<svg id="图层_1" data-name="图层 1" xmlns="http://www.w3.org/2000/svg" viewBox="0 0 102.36 23.46"><defs><style>.cls-1{isolation:isolate;}.cls-2{fill:#fff;}</style></defs><title>重点乡镇</title><g class="cls-1"><path class="cls-2" d="M0,21H10.73V19.27H1.83V17.88h8.9v-2H4.41v.85H2.77V8h8V6.26H.19V4.8H10.73V3q-4.24.13-8.81.23c-.09-.5-.2-1-.33-1.6Q13.49,1.46,20.84,1l.28,1.59q-4.17.21-8.7.37V4.8H23.06V6.26H12.42V8h8v8.78H18.82v-.82h-6.4v2h8.93v1.39H12.42V21H23.06v1.45H0Zm4.41-9.7h6.32v-2H4.41Zm0,3.25h6.32v-2H4.41ZM18.82,9.3h-6.4v2h6.4Zm-6.4,5.25h6.4v-2h-6.4Z"/><path class="cls-2" d="M31.11,18.16a46.63,46.63,0,0,1-3.14,5l-1.62-1.15a43.08,43.08,0,0,0,3.12-4.82ZM29.35,7.57h7.36V.21h2V3H49.16V4.71H38.68V7.57H47v9H45.06v-1H31.27v1H29.35ZM45.06,9.26H31.27v4.59H45.06ZM35,17.13a40.06,40.06,0,0,1,1.88,5l-1.9.65c-.48-1.7-1-3.38-1.66-5ZM40.63,17a50.36,50.36,0,0,1,2,4.85l-1.86.73a46.24,46.24,0,0,0-1.89-4.92Zm5.69.09a48.79,48.79,0,0,1,3,5.11l-1.78,1q-1.17-2.39-2.84-5.22Z"/><path class="cls-2" d="M72,9l1.9.52Q70.94,21,54.28,23.46a14.7,14.7,0,0,0-.82-1.83Q63.9,20.2,68.6,15.21q-5.71.42-10.17.84a22.78,22.78,0,0,0-2.3.33l-.7-2a8.54,8.54,0,0,0,2.08-.87,66.91,66.91,0,0,0,6.8-5l-6.14.28A22.46,22.46,0,0,0,55.85,9l-.66-1.76a6.08,6.08,0,0,0,2-1A52.58,52.58,0,0,0,63.75,0l2,.73q-3.31,3.34-7,6.42c2.48-.06,4.92-.15,7.34-.25a54.63,54.63,0,0,0,4.21-4.27l1.79.91A67.79,67.79,0,0,1,59.29,14.3q5.1-.32,10.65-.75A13.75,13.75,0,0,0,72,9Z"/><path class="cls-2" d="M79.39,12.82h3V9.61H80.77V8.18l-.7,1a14.16,14.16,0,0,0-1-1.59A30.3,30.3,0,0,0,82.72.38L84.47,1c-.42,1-.86,2-1.33,3h3.72V5.48H82.34c-.48.9-1,1.75-1.52,2.58h5.67V9.61H84v3.21h3v1.55H84v5.36c.78-.54,1.51-1.08,2.2-1.61.12.68.25,1.29.37,1.8-.64.42-1.5,1-2.6,1.85-.28.21-.69.56-1.24,1.06l-1.22-1.55a2.31,2.31,0,0,0,.84-1.94v-5h-3ZM92.14,19.1l1,1.31c-1.88,1.14-3.71,2.16-5.51,3.05a10.47,10.47,0,0,0-1-1.5A55.39,55.39,0,0,0,92.14,19.1Zm-5.25-1.87h1.87V5.44h4.88V3.77h-6V2.32h6V.49h1.69V2.32h6.32V3.77H95.33V5.44h5V17.23h2.07v1.45H86.89ZM98.65,6.84H90.4V8.41h8.25Zm-8.25,4.5h8.25V9.77H90.4Zm0,2.93h8.25V12.7H90.4Zm0,3h8.25v-1.6H90.4Zm5.49,3.25.94-1.38q3.21,1.48,5.5,2.74l-1,1.62C99.47,22.34,97.65,21.34,95.89,20.48Z"/></g></svg>
