<svg xmlns="http://www.w3.org/2000/svg" xmlns:xlink="http://www.w3.org/1999/xlink" width="278.295" height="234.617" viewBox="0 0 278.295 234.617">
  <defs>
    <linearGradient id="linear-gradient" x1="0.671" y1="0.973" x2="0.623" y2="0.628" gradientUnits="objectBoundingBox">
      <stop offset="0" stop-color="#191e64"/>
      <stop offset="1" stop-color="#17448b"/>
    </linearGradient>
    <filter id="banan3" x="0" y="0" width="278.295" height="234.617" filterUnits="userSpaceOnUse">
      <feOffset dy="8" input="SourceAlpha"/>
      <feGaussianBlur stdDeviation="9" result="blur"/>
      <feFlood flood-color="#0f093c" flood-opacity="0.161"/>
      <feComposite operator="in" in2="blur"/>
      <feComposite in="SourceGraphic"/>
    </filter>
    <radialGradient id="radial-gradient" cx="0.5" cy="0.5" r="0.5" gradientUnits="objectBoundingBox">
      <stop offset="0" stop-color="#1fb9e6"/>
      <stop offset="1" stop-color="#0669d2"/>
    </radialGradient>
  </defs>
  <g id="banan" transform="translate(-3438.372 -1831.104)">
    <g transform="matrix(1, 0, 0, 1, 3438.37, 1831.1)" filter="url(#banan3)">
      <path id="banan3-2" data-name="banan3" d="M171.06,198.721h0a56,56,0,0,1-15.683-4.163c-7.019-3.228-10.505-4.374-16.093-4.374-2.439,0-5.3.209-9.405.57-2.642.235-6.261.557-10.759.878a37.582,37.582,0,0,1-20.214-3.187,40.122,40.122,0,0,0-16.788-3.731c-12.272.415-17.162,3.409-25.263,8.369-2.276,1.394-4.857,2.974-7.914,4.683-5.04-.2-18.807-1.381-19.615-1.938-1.561-1.05-1.053-3.584-.516-6.268l.033-.167a18.639,18.639,0,0,0,.517-7.384c-1.621-8.629-9.747-10.678-14.6-11.9l-.225-.056c-.64-.16-1.244-.311-1.79-.5a5.037,5.037,0,0,0-1.055-.294,13.255,13.255,0,0,1,.417-4.086l.228-1.155c.543-3.214.376-5.082-.6-6.664-1.009-1.64-2.936-3.021-6.138-4.995l-1.876-1.177A8.548,8.548,0,0,1,.031,145c.21-.1.119-5.2.039-9.691-.058-3.259-.108-6.073-.028-6.246a8.518,8.518,0,0,0,3.681,6.122L5.6,136.359c3.2,1.974,5.13,3.354,6.138,4.995.972,1.581,1.14,3.45.6,6.664l-.228,1.155a13.255,13.255,0,0,0-.417,4.086,5.041,5.041,0,0,1,1.055.294c.546.188,1.15.339,1.79.5l.226.056a30.247,30.247,0,0,1,8.568,3.2,12.464,12.464,0,0,1,6.033,8.706,18.64,18.64,0,0,1-.517,7.384l-.033.167c-.538,2.683-1.045,5.218.516,6.268.808.557,14.575,1.736,19.615,1.938,3.058-1.709,5.638-3.289,7.914-4.683,8.1-4.96,12.991-7.954,25.263-8.369a39.855,39.855,0,0,1,16.788,3.73,37.58,37.58,0,0,0,20.214,3.187c4.5-.321,8.117-.643,10.759-.877,4.11-.361,6.967-.57,9.405-.57,5.588,0,9.075,1.146,16.093,4.374a55.992,55.992,0,0,0,15.683,4.163c1.982-4.565,9.362-7.889,16.5-11.1,2.71-1.217,5.353-2.416,7.894-3.713,3.612-1.85,5.418-4.1,5.52-6.89.349,1.9.111,15.5-.028,16.411-.4,2.705-2.144,4.763-5.493,6.478-2.512,1.283-5.167,2.489-7.894,3.714-7.137,3.214-14.517,6.538-16.5,11.1Zm12.5-62.923c-1.871-5.8-.833-15.451,3.173-29.5,2.526-8.859,6.288-19.561,11.179-31.81,5.495-13.759,12.57-29.856,21.029-47.843l.916-1.938A25.83,25.83,0,0,1,224.3,18.1v16a25.829,25.829,0,0,0-4.442,6.607l-.916,1.937c-20.285,43.132-32.188,74.473-35.38,93.151ZM23.732,119.524h0c-4.846-2.913-8.264-5.946-10.448-9.274-1.519-2.322-2.073-4.09-1.522-4.852.1-.147-.033-5.656-.143-10.082-.07-2.808-.13-5.229-.1-5.25l.041-.019c-.051.932.561,2.425,1.724,4.2,4,6.088,11.213,9.835,15.988,12.314,3.938,2.044,6.107,3.17,6.107,5.369a3.053,3.053,0,0,1-1.871,2.742c-.755.4-1.456.783-2.134,1.156l-.048.026a60.782,60.782,0,0,1-7.593,3.667Z" transform="translate(27 0.9)" fill="url(#linear-gradient)"/>
    </g>
    <g id="banan2" transform="translate(3280.853 1665.7)" opacity="0.67" fill="url(#radial-gradient)">
      <path d="M 355.2785339355469 348.4820556640625 C 350.0484924316406 347.8479614257813 344.9433898925781 346.4754028320313 340.09912109375 344.400390625 C 333.0106811523438 341.1409606933594 329.4826354980469 339.98388671875 323.8036804199219 339.98388671875 C 321.3458251953125 339.98388671875 318.4774169921875 340.1937866210938 314.3534545898438 340.5563049316406 L 314.3478393554688 340.5567932128906 C 311.5361328125 340.8063354492188 308.0368957519531 341.1168518066406 303.6026306152344 341.4328002929688 L 303.5906066894531 341.4336242675781 L 303.5786437988281 341.4350891113281 C 302.1188049316406 341.6101379394531 300.6332397460938 341.6989135742188 299.1631774902344 341.6989135742188 C 296.4992980957031 341.6989135742188 293.8289489746094 341.4097595214844 291.226318359375 340.8395385742188 C 288.615478515625 340.2675170898438 286.0610656738281 339.4100341796875 283.6340942382813 338.2908630371094 C 278.3486328125 335.8273010253906 272.4705200195313 334.5210571289063 266.6370849609375 334.5141906738281 L 266.6283264160156 334.5141906738281 L 266.6195983886719 334.5144653320313 C 254.2162475585938 334.9338989257813 249.2838897705078 337.9539794921875 241.1122436523438 342.95751953125 C 238.8704528808594 344.3301696777344 236.3337707519531 345.8833923339844 233.3392639160156 347.5606994628906 C 230.8646392822266 347.4558715820313 226.3656311035156 347.125244140625 222.3075866699219 346.7491149902344 C 216.8229064941406 346.24072265625 214.4713287353516 345.8710327148438 214.1150054931641 345.7069091796875 C 212.8430328369141 344.8374328613281 213.3174896240234 342.4677429199219 213.8198394775391 339.9594116210938 L 213.8497772216797 339.8097229003906 C 214.5286712646484 337.3354187011719 214.7054290771484 334.7907409667969 214.3751373291016 332.2461853027344 L 214.3733367919922 332.232177734375 L 214.3707275390625 332.2182922363281 C 212.6917266845703 323.2752990722656 204.3717803955078 321.1767883300781 199.4007720947266 319.9230346679688 L 199.1938018798828 319.8713989257813 C 198.5624237060547 319.7141418457031 197.9657897949219 319.5655517578125 197.4378356933594 319.3840026855469 C 197.1956024169922 319.2877502441406 196.9462432861328 319.2084655761719 196.6927185058594 319.1470642089844 C 196.6639862060547 317.9505004882813 196.803466796875 316.759033203125 197.1083831787109 315.599609375 L 197.1123657226563 315.5845031738281 L 197.1153869628906 315.5691223144531 L 197.3430023193359 314.4144287109375 L 197.3442993164063 314.4078063964844 L 197.3454437255859 314.4010925292969 C 197.9114379882813 311.0536193847656 197.7254943847656 309.08837890625 196.6822509765625 307.3918151855469 C 195.6212768554688 305.6663818359375 193.6490020751953 304.247802734375 190.3805847167969 302.233642578125 L 188.5075225830078 301.0587768554688 C 186.7336730957031 299.9279479980469 185.6195220947266 298.1339721679688 185.1114044189453 295.5834350585938 C 188.3432312011719 294.0390625 195.4983215332031 290.7022399902344 199.6905212402344 289.3734436035156 C 209.4328002929688 286.2774047851563 212.8154449462891 284.4051513671875 216.0867156982422 282.5945739746094 C 216.7762451171875 282.2144775390625 217.4900817871094 281.8210144042969 218.2588653564453 281.417236328125 C 220.1193084716797 280.44580078125 220.3972473144531 279.004638671875 220.3972473144531 278.2321166992188 C 220.3972473144531 277.0232543945313 219.8517761230469 276.0560913085938 218.6285552978516 275.0962524414063 C 217.5567779541016 274.2552185058594 215.9963531494141 273.4453125 214.0207977294922 272.419921875 C 209.2908325195313 269.9642333984375 202.1427459716797 266.2532043457031 198.2197723388672 260.2757873535156 C 196.4832000732422 257.619140625 196.4382171630859 256.3326416015625 196.6854705810547 255.9914093017578 L 196.6878051757813 255.9881896972656 L 196.6901092529297 255.9849395751953 C 197.1685333251953 255.3021087646484 199.0263671875 254.8779144287109 201.5385894775391 254.8779144287109 C 203.3440551757813 254.8779144287109 205.3302154541016 255.0944366455078 206.8515625 255.4571380615234 C 207.3935546875 255.5869598388672 207.9963836669922 255.6528625488281 208.6428070068359 255.65283203125 C 210.7614135742188 255.6527404785156 213.1416320800781 254.9630432128906 215.4434967041016 254.2960815429688 L 215.4618835449219 254.2907409667969 L 215.5604400634766 254.2623901367188 C 216.6479797363281 253.9494934082031 218.4328460693359 253.4360046386719 219.1856536865234 253.3871002197266 C 221.5538177490234 254.77734375 228.8657073974609 256.3763732910156 234.6427459716797 257.4826049804688 C 240.3162231445313 258.5661926269531 251.1330871582031 260.3839416503906 259.8357238769531 260.3839416503906 C 266.3592224121094 260.3839416503906 270.3424072265625 259.3683166503906 272.3710327148438 257.187744140625 C 274.1677551269531 255.2543029785156 275.3591613769531 254.21435546875 276.4834594726563 253.5980224609375 C 277.5482788085938 253.0142974853516 278.5910034179688 252.7868804931641 280.2024841308594 252.7868804931641 C 281.1129455566406 252.7868804931641 282.1918029785156 252.8595275878906 283.4410400390625 252.9436340332031 C 284.3255615234375 253.0042724609375 285.3982543945313 253.0741882324219 286.6431884765625 253.1329650878906 C 286.7468872070313 253.1378326416016 286.8477478027344 253.1401672363281 286.9517211914063 253.1401672363281 C 292.4503173828125 253.1393890380859 298.9750671386719 246.3273773193359 308.3016357421875 235.9350280761719 L 308.46826171875 235.7501678466797 C 310.9308471679688 233.0175476074219 313.477294921875 230.1918792724609 315.7842102050781 227.8915557861328 C 318.3664245605469 225.3167114257813 320.1821899414063 223.8688812255859 321.3353576660156 223.4652404785156 C 322.3780212402344 223.1028289794922 323.2718811035156 222.9264678955078 324.0669860839844 222.9264678955078 C 325.4676818847656 222.9264678955078 326.5828552246094 223.4625549316406 328.1262817382813 224.2045440673828 L 328.1361999511719 224.2093048095703 C 330.5179748535156 225.3521118164063 333.4822082519531 226.7743530273438 338.5079956054688 226.7743530273438 C 339.9559020996094 226.7743530273438 342.2362976074219 226.4151916503906 345.3101806640625 223.3096618652344 C 348.5165100097656 220.0702972412109 352.0658874511719 214.3309936523438 355.8597106933594 206.2511291503906 C 360.0891418457031 197.2266387939453 363.293212890625 188.0580749511719 363.6446533203125 187.0423278808594 L 363.651123046875 187.0235443115234 L 363.8170471191406 186.5493774414063 L 363.3726196289063 186.3954772949219 C 367.6594543457031 184.2657318115234 371.2176818847656 180.8196716308594 373.4748840332031 176.5836029052734 C 375.1321105957031 173.4506378173828 378.1419677734375 170.1976013183594 382.423583984375 166.9103546142578 C 384.8476257324219 168.4615783691406 387.8599243164063 170.1763916015625 391.2471313476563 172.0872497558594 L 391.4730224609375 172.2154388427734 C 394.559326171875 173.9667510986328 398.7861938476563 176.3652191162109 402.287353515625 178.6337738037109 C 404.19140625 179.8674926757813 405.6704406738281 180.9296875 406.683349609375 181.7908325195313 C 408.2001037597656 183.0803070068359 408.3148803710938 183.6084442138672 408.3139038085938 183.7395782470703 L 408.3139038085938 184.2091827392578 C 406.5238647460938 186.1739501953125 405.0460205078125 188.389892578125 403.919677734375 190.7985229492188 L 403.0045471191406 192.734130859375 C 383.9391174316406 233.2732696533203 372.2522583007813 263.4518737792969 368.2680969238281 282.4325561523438 C 364.9024963378906 298.4666748046875 367.53564453125 303.8656005859375 370.2056274414063 306.7778015136719 C 370.6163940429688 307.2290344238281 371.1347045898438 307.8020629882813 371.6834716796875 308.4087829589844 C 373.7151184082031 310.6549987792969 376.4975891113281 313.7313232421875 378.051513671875 315.3071899414063 C 380.7298889160156 318.0213317871094 382.6572265625 320.5113525390625 383.7801208496094 322.708251953125 C 384.7880554199219 324.6802062988281 385.1726379394531 326.4669494628906 384.9231872558594 328.0187377929688 C 384.5591735839844 330.2832336425781 382.8654479980469 332.1607666015625 379.7452392578125 333.7586059570313 C 377.2349853515625 335.0408020019531 374.5895080566406 336.2418518066406 371.8738708496094 337.4615783691406 C 364.8233947753906 340.636474609375 357.5390625 343.9166870117188 355.2785339355469 348.4820556640625 Z" stroke="none"/>
      <path d="M 382.4513854980469 167.5206909179688 C 378.3742065429688 170.6905822753906 375.5046081542969 173.8157653808594 373.9161376953125 176.8186950683594 C 371.7504577636719 180.8829650878906 368.4131774902344 184.2351684570313 364.3875122070313 186.4305114746094 L 364.1231689453125 187.1885070800781 L 364.1170043945313 187.206298828125 C 363.7645874023438 188.2248229980469 360.551513671875 197.4182739257813 356.3123168945313 206.4636840820313 C 352.4403991699219 214.7098083496094 348.957763671875 220.3352355957031 345.66552734375 223.6614074707031 C 343.2257690429688 226.1263122558594 340.951416015625 227.2743530273438 338.5079956054688 227.2743530273438 C 333.3682861328125 227.2743530273438 330.3471984863281 225.8247680664063 327.919677734375 224.6600036621094 L 327.90966796875 224.6551818847656 C 326.3705749511719 223.9152526855469 325.3537902832031 223.4264526367188 324.0669860839844 223.4264526367188 C 323.3286743164063 223.4264526367188 322.4885559082031 223.59375 321.5005493164063 223.9371643066406 C 320.4346008300781 224.3102722167969 318.630126953125 225.7598266601563 316.1372375488281 228.24560546875 C 313.8397827148438 230.5365600585938 311.2978515625 233.357177734375 308.8396606445313 236.0849304199219 L 308.6737670898438 236.2689819335938 C 304.3945007324219 241.0372619628906 300.2529602050781 245.577880859375 296.6251220703125 248.7245178222656 C 292.7586669921875 252.0781555175781 289.6848449707031 253.64013671875 286.9516296386719 253.64013671875 C 286.8392944335938 253.64013671875 286.7308349609375 253.6376037597656 286.61962890625 253.6324157714844 C 285.3700561523438 253.5734252929688 284.2940063476563 253.5032653808594 283.4074096679688 253.4425048828125 C 282.1671447753906 253.3589782714844 281.0960388183594 253.286865234375 280.2025451660156 253.286865234375 C 278.6832275390625 253.286865234375 277.7078857421875 253.4970397949219 276.723876953125 254.0364685058594 C 275.6640014648438 254.6174621582031 274.4718017578125 255.6616516113281 272.7370910644531 257.5283508300781 C 271.6288146972656 258.7196350097656 270.023681640625 259.5648803710938 267.8300476074219 260.1123657226563 C 265.7496032714844 260.6315307617188 263.1346435546875 260.8839416503906 259.8357238769531 260.8839416503906 C 251.0917663574219 260.8839416503906 240.2397155761719 259.0606079101563 234.5487060546875 257.9736633300781 C 228.8480529785156 256.882080078125 221.6538696289063 255.3078308105469 219.0756530761719 253.8988952636719 C 218.3113098144531 253.9912414550781 216.639892578125 254.4721069335938 215.6989135742188 254.7428283691406 L 215.6010437011719 254.77099609375 L 215.5819396972656 254.7765197753906 C 213.2467956542969 255.453125 210.8321838378906 256.1528015136719 208.6427917480469 256.1528015136719 C 207.9571228027344 256.1528015136719 207.3150939941406 256.0823059082031 206.735595703125 255.9434814453125 C 205.2499694824219 255.58935546875 203.3071899414063 255.3778991699219 201.53857421875 255.3778991699219 C 198.5227661132813 255.3778991699219 197.3162231445313 255.962646484375 197.0995788574219 256.2718505859375 L 197.0958862304688 256.2771301269531 C 197.0190124511719 256.4590148925781 197.0600280761719 257.5877380371094 198.6377868652344 260.0014343261719 C 202.4891357421875 265.8696899414063 209.5673828125 269.5444641113281 214.2511291503906 271.9761047363281 C 218.3956298828125 274.1272277832031 220.8972473144531 275.4256591796875 220.8972473144531 278.2321166992188 C 220.8972473144531 278.9451293945313 220.66259765625 280.7261047363281 218.4913330078125 281.8599243164063 C 217.7269287109375 282.2613525390625 217.015380859375 282.653564453125 216.3288269042969 283.0320434570313 C 213.0361022949219 284.8544921875 209.6312866210938 286.739013671875 199.8416137695313 289.8500366210938 C 195.8254699707031 291.1231079101563 189.0482177734375 294.2628173828125 185.6824035644531 295.8650512695313 C 186.1932983398438 298.0963134765625 187.1877136230469 299.6238098144531 188.7777099609375 300.6380615234375 L 190.6456298828125 301.8096313476563 C 193.9782409667969 303.8634643554688 195.9950866699219 305.3197021484375 197.108154296875 307.1298828125 C 198.3930053710938 309.2193603515625 198.329345703125 311.5811462402344 197.8384399414063 314.4844665527344 L 197.836181640625 314.4978637695313 L 197.8335571289063 314.5111999511719 L 197.6059265136719 315.6658935546875 L 197.599853515625 315.696533203125 L 197.5919189453125 315.7267456054688 C 197.3303527832031 316.721435546875 197.1955261230469 317.7406311035156 197.1892395019531 318.7659912109375 C 197.33154296875 318.8103637695313 197.4721374511719 318.8599853515625 197.6106262207031 318.9146728515625 C 198.1156311035156 319.087646484375 198.6983032226563 319.2327575683594 199.3147277832031 319.3862609863281 L 199.5230712890625 319.4382019042969 C 204.6100463867188 320.7212524414063 213.1241149902344 322.86865234375 214.8621215820313 332.1260375976563 L 214.8673400878906 332.15380859375 L 214.8709716796875 332.1818237304688 C 215.2091064453125 334.7866821289063 215.029296875 337.3916625976563 214.3367004394531 339.9248352050781 L 214.3100891113281 340.0575866699219 C 213.8487548828125 342.3611145019531 213.4124755859375 344.5392150878906 214.3496704101563 345.2596740722656 C 214.7979736328125 345.4005432128906 216.95654296875 345.7542724609375 222.527587890625 346.2672729492188 C 226.4462890625 346.6281433105469 230.7708435058594 346.9461669921875 233.2187805175781 347.0549926757813 C 236.1510620117188 345.4089660644531 238.6442565917969 343.8823852539063 240.85107421875 342.5311279296875 C 249.0928649902344 337.4846801757813 254.0675659179688 334.4386596679688 266.6027221679688 334.0147705078125 L 266.6201782226563 334.01416015625 L 266.6376953125 334.0142211914063 C 272.5433654785156 334.0211181640625 278.4942932128906 335.3435668945313 283.8434448242188 337.8368225097656 C 286.2377319335938 338.9408569335938 288.7576599121094 339.7868041992188 291.3332824707031 340.3511352539063 C 293.9008483886719 340.9136657714844 296.53515625 341.1989135742188 299.1631164550781 341.1989135742188 C 300.6134033203125 341.1989135742188 302.0789489746094 341.111328125 303.5191040039063 340.9386596679688 L 303.5430297851563 340.9357604980469 L 303.5671081542969 340.9340515136719 C 307.9983825683594 340.6183166503906 311.4959411621094 340.3079223632813 314.3096313476563 340.0582275390625 C 318.4469909667969 339.6944885253906 321.3268432617188 339.48388671875 323.8036193847656 339.4838256835938 C 329.5731201171875 339.4837341308594 333.1443176269531 340.6524658203125 340.3011474609375 343.9429626464844 C 344.994384765625 345.9526977539063 349.9349975585938 347.2973022460938 354.9962463378906 347.9430541992188 C 357.5037841796875 343.3840942382813 364.6990051269531 340.1441650390625 371.6689758300781 337.0054931640625 C 374.3783569335938 335.78857421875 377.0173950195313 334.5905151367188 379.517333984375 333.3135375976563 C 382.4857788085938 331.79345703125 384.0925903320313 330.0355529785156 384.4295043945313 327.9393920898438 C 384.9300537109375 324.8255615234375 382.6644897460938 320.6936645507813 377.695556640625 315.6582641601563 C 376.1341857910156 314.0748901367188 373.3478698730469 310.9943237304688 371.3134155273438 308.7449951171875 C 370.7646484375 308.1383056640625 370.2462768554688 307.565185546875 369.8370971679688 307.1156921386719 C 368.7039794921875 305.8798217773438 367.12353515625 303.7618713378906 366.4829711914063 299.6556091308594 C 365.8114013671875 295.3505554199219 366.2352294921875 289.6832275390625 367.7787780761719 282.329833984375 C 371.7708740234375 263.3112182617188 383.4701232910156 233.0955505371094 402.552490234375 192.5204162597656 L 403.4667358398438 190.5867004394531 C 404.5870056152344 188.1911315917969 406.048583984375 185.9825134277344 407.8139038085938 184.0166015625 L 407.8139038085938 183.7657165527344 C 407.7884521484375 183.6845703125 407.5780639648438 183.1676330566406 406.0993957519531 181.9546508789063 C 405.066162109375 181.1070556640625 403.5996704101563 180.0712585449219 401.7406005859375 178.8760070800781 C 398.3048095703125 176.6669311523438 394.213623046875 174.3454284667969 391.226318359375 172.6503295898438 L 391.00146484375 172.5227355957031 C 387.7444458007813 170.6853332519531 384.8329467773438 169.028564453125 382.4513854980469 167.5206909179688 M 382.399169921875 166.3000183105469 C 384.9029846191406 167.9210815429688 388.1173706054688 169.74755859375 391.4927978515625 171.6517639160156 C 397.5385131835938 175.0827026367188 408.8305358886719 181.4615173339844 408.8139038085938 183.7432250976563 L 408.8139038085938 184.4038696289063 C 407.0015258789063 186.3637390136719 405.5033569335938 188.5922546386719 404.37255859375 191.0103149414063 L 403.4565734863281 192.9478149414063 C 359.726318359375 285.9321899414063 365.6166076660156 301.0325927734375 370.5741882324219 306.4399108886719 C 372.4895629882813 308.5439453125 376.436767578125 312.95751953125 378.4075927734375 314.9561157226563 C 388.7891235351563 325.4764709472656 386.4019470214844 330.9115295410156 379.97314453125 334.2036437988281 C 377.397216796875 335.5193786621094 374.6990661621094 336.7407531738281 372.0786743164063 337.9176940917969 C 364.92822265625 341.1376342773438 357.5556335449219 344.4685668945313 355.5792846679688 349.02099609375 C 350.1771240234375 348.4015197753906 344.8939819335938 346.9989013671875 339.8958740234375 344.8572387695313 C 332.75927734375 341.575439453125 329.3516540527344 340.4837341308594 323.8036804199219 340.4838562011719 C 321.2897338867188 340.4839172363281 318.3356018066406 340.7081298828125 314.397216796875 341.0543823242188 C 311.5825500488281 341.3041687011719 308.0794677734375 341.6150817871094 303.6381530761719 341.9315185546875 C 302.14794921875 342.1102294921875 300.654296875 342.1989135742188 299.1631469726563 342.1989135742188 C 293.7469787597656 342.1989135742188 288.3751525878906 341.0277099609375 283.4246826171875 338.7449035644531 C 278.1668395996094 336.2942504882813 272.4373779296875 335.0210266113281 266.6365051269531 335.0142211914063 C 250.8754272460938 335.547119140625 247.266845703125 340.3493041992188 233.4599304199219 348.0661010742188 C 228.4745483398438 347.8662109375 214.6509399414063 346.6837158203125 213.8459777832031 346.1286010742188 C 212.2526550292969 345.05712890625 212.8078308105469 342.4700317382813 213.3630065917969 339.6942138671875 C 214.0245056152344 337.2918090820313 214.2000427246094 334.7816162109375 213.8793029785156 332.310546875 C 212.2637329101563 323.7055053710938 204.2749633789063 321.6680297851563 199.2785034179688 320.4078369140625 C 198.5679016113281 320.2301940917969 197.8739318847656 320.0636596679688 197.2632446289063 319.8526916503906 C 196.9233093261719 319.7167053222656 196.5696411132813 319.6180419921875 196.2084350585938 319.5584411621094 C 196.1340637207031 318.1830749511719 196.2745056152344 316.8045043945313 196.6248168945313 315.472412109375 L 196.8524475097656 314.3177490234375 C 197.8905944824219 308.1776428222656 196.4693603515625 306.5731811523438 190.1182861328125 302.6593017578125 L 188.2418212890625 301.4823608398438 C 186.0211791992188 300.066650390625 184.9885864257813 297.8515625 184.5500183105469 295.2978515625 C 187.5589904785156 293.8544006347656 195.1258544921875 290.2958374023438 199.5394287109375 288.8967895507813 C 209.1825866699219 285.832275390625 212.5746459960938 283.9669189453125 215.8445739746094 282.1571044921875 C 216.5496215820313 281.7684631347656 217.2546691894531 281.3798828125 218.0263671875 280.9745788574219 C 219.6529846191406 280.1251831054688 219.8972473144531 278.8927307128906 219.8972473144531 278.2321166992188 C 219.8972473144531 276.0336303710938 217.7265625 274.9066467285156 213.7904663085938 272.8636474609375 C 209.010498046875 270.382080078125 201.7878112792969 266.6236572265625 197.8017578125 260.5501098632813 C 196.3139038085938 258.2739868164063 195.7254333496094 256.4641418457031 196.2806091308594 255.6980285644531 C 196.9436645507813 254.7516784667969 199.1319580078125 254.3778991699219 201.53857421875 254.3778991699219 C 203.4238891601563 254.3778991699219 205.4433288574219 254.6073913574219 206.9674682617188 254.9707641601563 C 207.496826171875 255.0975646972656 208.0578002929688 255.1528015136719 208.6427917480469 255.1528015136719 C 210.6959533691406 255.1528015136719 213.0414428710938 254.4714965820313 215.3227233886719 253.8104858398438 C 216.6162414550781 253.4385070800781 218.5259704589844 252.8833312988281 219.2921142578125 252.8833312988281 L 219.3198852539063 252.8833312988281 C 221.4128723144531 254.2156982421875 228.7354736328125 255.8423461914063 234.7367858886719 256.9915161132813 C 240.4049682617188 258.0740966796875 251.1640625 259.8839416503906 259.8357238769531 259.8839416503906 C 266.2090148925781 259.8839416503906 270.0784912109375 258.9179382324219 272.0049438476563 256.8471984863281 C 275.4927978515625 253.0939636230469 277.0864868164063 252.2868957519531 280.2025451660156 252.2868957519531 C 281.1286926269531 252.2868957519531 282.1898498535156 252.3582458496094 283.474609375 252.4447631835938 C 284.4461364746094 252.5113525390625 285.4898376464844 252.5779724121094 286.6667785644531 252.6335144042969 C 286.7616271972656 252.6379699707031 286.8560180664063 252.64013671875 286.9516296386719 252.64013671875 C 292.2400207519531 252.64013671875 298.7193603515625 245.8637084960938 307.9295349121094 235.60107421875 C 312.8427734375 230.1493835449219 318.3943786621094 223.9648742675781 321.1701965332031 222.9933166503906 C 322.3153686523438 222.5952453613281 323.2408142089844 222.4264526367188 324.0669860839844 222.4264526367188 C 325.579833984375 222.4264526367188 326.7593994140625 222.9926452636719 328.3429260253906 223.75390625 C 330.6801452636719 224.8753356933594 333.5892333984375 226.2743530273438 338.5079956054688 226.2743530273438 C 341.6835327148438 226.2743530273438 346.8909301757813 224.1758117675781 355.4071350097656 206.0386352539063 C 359.8484497070313 196.5619812011719 363.1461791992188 186.9520874023438 363.179443359375 186.8577270507813 L 362.0358276367188 186.4635620117188 C 366.7444763183594 184.4392700195313 370.6233520507813 180.8717346191406 373.0335998535156 176.3484191894531 C 375.0099792480469 172.6122131347656 378.607421875 169.1757507324219 382.399169921875 166.3000183105469 Z" stroke="none" fill="#30abec"/>
    </g>
    <text id="banan1" transform="translate(3562.054 1968.36)" fill="#fff" font-size="10" font-family="MicrosoftYaHei, Microsoft YaHei"><tspan x="0" y="0">巴南区</tspan></text>
  </g>
</svg>
