<svg xmlns="http://www.w3.org/2000/svg" xmlns:xlink="http://www.w3.org/1999/xlink" width="301.15" height="241.557" viewBox="0 0 301.15 241.557">
  <defs>
    <linearGradient id="linear-gradient" x1="0.698" y1="0.817" x2="0.606" y2="0.548" gradientUnits="objectBoundingBox">
      <stop offset="0" stop-color="#191e64"/>
      <stop offset="1" stop-color="#17448b"/>
    </linearGradient>
    <filter id="beibei3" x="0" y="29.518" width="301.15" height="212.039" filterUnits="userSpaceOnUse">
      <feOffset dy="8" input="SourceAlpha"/>
      <feGaussianBlur stdDeviation="9" result="blur"/>
      <feFlood flood-color="#0f093c" flood-opacity="0.161"/>
      <feComposite operator="in" in2="blur"/>
      <feComposite in="SourceGraphic"/>
    </filter>
    <radialGradient id="radial-gradient" cx="0.483" cy="0.5" r="0.671" gradientTransform="translate(0.079) scale(0.842 1)" gradientUnits="objectBoundingBox">
      <stop offset="0" stop-color="#1fb9e6"/>
      <stop offset="1" stop-color="#0669d2"/>
    </radialGradient>
  </defs>
  <g id="beibei" transform="translate(-338.864 -1886)">
    <g transform="matrix(1, 0, 0, 1, 338.86, 1886)" filter="url(#beibei3)">
      <path id="beibei3-2" data-name="beibei3" d="M91.267,206.557h0a5.277,5.277,0,0,1-1.791-.331s-.49-.431-.615-1.941c-.145-1.635-.04-15.287,0-15.915l0-.018,0-.015c.185,1.515.6,1.886.609,1.889a5.273,5.273,0,0,0,1.791.33c3.014,0,5.543-2.841,10.073-9.21,1.153-1.624,2.286-3.206,3.48-4.715a11.2,11.2,0,0,1,5.108-3.559,20.408,20.408,0,0,1,6.845-1.035c6.654,0,14.362,2.171,20.334,4.062l.773.248c.144-.456.291-1.02.409-1.473l.079-.3a27.744,27.744,0,0,1,.888-3.055c1.025-2.967,4.742-4.573,9.448-6.606,1.136-.49,3.252-1.4,4.77-2.2.025.543.044,3.819.065,7.288.024,4.047.049,8.228.085,8.633-1.354.726-3.164,1.526-4.919,2.281-4.706,2.034-8.423,3.641-9.448,6.607a27.813,27.813,0,0,0-.888,3.054l-.077.3c-.119.457-.266,1.024-.411,1.481l-.773-.249c-5.972-1.891-13.681-4.061-20.334-4.061-5.512,0-9.533,1.546-11.953,4.594-1.188,1.5-2.324,3.088-3.48,4.716a52.785,52.785,0,0,1-5.462,6.854C94.227,205.808,92.762,206.557,91.267,206.557ZM10.743,170.362h0a43.886,43.886,0,0,1-10.679-1.04c-.107-.636-.056-5.388-.011-9.58v-.006c.036-3.319.066-6.185.011-6.279.048-.025.1-.053.174-.092a44.545,44.545,0,0,0,10.5,1c9.733,0,22.005-1.652,32.833-3.109l5.6-.746a208.57,208.57,0,0,1,24.683-1.637,82.033,82.033,0,0,1,12.957.851c4.022.665,6.741,1.722,8.083,3.14a4.846,4.846,0,0,1,1.315,4.235,56.444,56.444,0,0,1-1.732,5.728c-.434,1.313-.974,2.948-1.52,4.668-3.461-1.739-9.888-2.622-19.1-2.622a208.566,208.566,0,0,0-24.682,1.637l-5.6.746C32.747,168.71,20.474,170.362,10.743,170.362Zm172.568-6.788h0a21.843,21.843,0,0,1-7.611-1.614,23.172,23.172,0,0,0-7.814-1.672,15.5,15.5,0,0,0-2.566.216,6.774,6.774,0,0,1-1.134.093c-3.022,0-6.309-1.873-9.208-3.525l-.039-.022c-2.4-1.388-5.126-2.96-7.687-2.96a5.78,5.78,0,0,0-1.628.228c-2.545-3.744-4-7.47-4-10.222a5.706,5.706,0,0,1,2.664-5.186,5.6,5.6,0,0,1,2.968-.82c2.563,0,5.285,1.573,7.687,2.96l.038.022c2.9,1.653,6.187,3.526,9.209,3.526a6.773,6.773,0,0,0,1.134-.093,15.5,15.5,0,0,1,2.565-.216,23.205,23.205,0,0,1,7.815,1.672,21.842,21.842,0,0,0,7.61,1.614,23.476,23.476,0,0,0,8.16-1.685c1.445-.541,2.69-3.759,2.835-7.326,0,.447.008,1.37.017,2.539v.027c.031,4,.09,11.432-.014,13.341-.2,3.758-1.391,6.878-2.839,7.42A23.474,23.474,0,0,1,183.311,163.574ZM193.4,133.18h0a4.871,4.871,0,0,0-1.534-1.9c-2.838-2.022-5.772-4.113-5.266-7.592.648-4.4,5.235-6.742,28.868-14.758,12.81-4.355,20.564-10.876,25.143-21.144,4.339-9.731,5.6-22.24,6.237-39.269a51.711,51.711,0,0,1,.278,7.034c-1.039,38.871-2.92,59.61-31.658,69.378-9.95,3.375-17.51,6.07-22.067,8.25Zm-163.2-14.1h0c-3.421-6.653-10.309-13.607-17.975-18.147.077-.05.3-14.159.276-15.836A53.189,53.189,0,0,1,25.861,96.585c3.847,4.681,6.124,9.3,6.586,13.366a27.961,27.961,0,0,0,.334,2.839c.409,2.647.7,4.559-2.109,5.979l-.468.306Z" transform="translate(27)" fill="url(#linear-gradient)"/>
    </g>
    <g id="beibei2" transform="translate(315.587 1873.22)" opacity="0.67" fill="url(#radial-gradient)">
      <path d="M 141.5428924560547 202.8367309570313 C 141.0615539550781 202.8367309570313 140.5733184814453 202.7530975341797 140.0544738769531 202.5814208984375 C 139.8425140380859 202.2291412353516 139.0027923583984 200.3449249267578 140.1554870605469 193.9395751953125 C 141.2602996826172 187.7967529296875 143.650390625 180.5584106445313 145.2331237792969 175.7660217285156 C 145.9140167236328 173.8819122314453 146.5009460449219 171.9400634765625 146.9776763916016 169.9940948486328 L 146.9815521240234 169.9782867431641 L 146.9843902587891 169.9622650146484 C 147.2843322753906 168.2670745849609 146.7437896728516 166.5219879150391 145.5384826660156 165.2930908203125 C 142.9332580566406 162.5431213378906 135.7332611083984 161.1489715576172 124.1379241943359 161.1489715576172 C 115.0993347167969 161.1489715576172 105.1573028564453 162.0332641601563 99.389892578125 162.7904815673828 L 93.7857666015625 163.5365142822266 C 82.97187042236328 164.9921112060547 70.71562194824219 166.641845703125 61.02014923095703 166.641845703125 C 61.01955413818359 166.641845703125 61.01936340332031 166.641845703125 61.01876831054688 166.641845703125 C 56.94234085083008 166.6417694091797 53.57347869873047 166.3404235839844 50.9931755065918 165.7457122802734 C 54.95021820068359 154.7080535888672 67.00579833984375 141.2134246826172 81.19914245605469 131.9831695556641 C 84.31022644042969 130.3999633789063 83.95916748046875 128.1262664794922 83.55292510986328 125.4946670532227 C 83.41761016845703 124.6182250976563 83.2777099609375 123.7119140625 83.2244873046875 122.7051315307617 L 83.22367858886719 122.6900100708008 L 83.22195434570313 122.6750106811523 C 82.30593872070313 114.622428894043 74.08495330810547 104.2532424926758 63.53939056396484 97.74852752685547 C 68.65703582763672 95.17636871337891 74.43672180175781 92.18465423583984 81.63558197021484 88.38201141357422 C 88.71131134033203 84.64437866210938 94.93013000488281 81.37787628173828 99.08687591552734 79.40110015869141 L 99.21628570556641 79.93541717529297 C 100.3823776245117 85.18252563476563 103.6642303466797 89.82761383056641 108.2206115722656 92.67938232421875 L 108.2273941040039 92.68360137939453 L 108.2342681884766 92.68759918212891 C 111.95751953125 94.85581970214844 116.2027359008789 96.00185394287109 120.510986328125 96.00182342529297 C 121.193229675293 96.00182342529297 121.883918762207 95.97269439697266 122.5637588500977 95.91529846191406 C 134.12451171875 95.11931610107422 142.4794464111328 87.0797119140625 150.5594635009766 79.30475616455078 C 151.0055084228516 78.87371826171875 151.4837493896484 78.47295379638672 151.9862976074219 78.10873413085938 C 152.7037048339844 79.34309387207031 153.0611877441406 80.78018951416016 152.9988250732422 82.20825958251953 L 152.9983673095703 82.21916198730469 L 152.9983673095703 82.23007202148438 C 152.9983673095703 90.83472442626953 161.7384643554688 92.34450531005859 164.4171752929688 92.60225677490234 L 164.4359283447266 92.60407257080078 L 164.4547119140625 92.60447692871094 C 164.6562805175781 92.60863494873047 164.8516845703125 92.61069488525391 165.0519104003906 92.61069488525391 C 165.0534210205078 92.61069488525391 165.0549163818359 92.61069488525391 165.0564270019531 92.61069488525391 C 175.3558349609375 92.61003875732422 184.9517669677734 87.06769561767578 190.0994567871094 78.14656829833984 L 190.1009216308594 78.14400482177734 L 190.1023712158203 78.14144897460938 C 191.3624572753906 75.89725494384766 192.03955078125 75.12116241455078 196.7808990478516 75.12116241455078 C 198.4383087158203 75.12116241455078 200.5870208740234 75.2156982421875 204.1974639892578 75.44747924804688 C 207.4264221191406 75.65606689453125 211.08642578125 75.89250946044922 214.8854217529297 75.89250946044922 C 223.3758087158203 75.89250946044922 228.5506744384766 74.19575500488281 231.1710510253906 70.55278778076172 C 233.5639190673828 67.22610473632813 233.622802734375 62.7375373840332 233.6909942626953 57.54025650024414 C 233.7352447509766 54.16647720336914 233.7810211181641 50.67782211303711 234.4598083496094 47.0691032409668 C 234.9839019775391 44.26791381835938 238.0534210205078 40.73403930664063 243.3366088867188 36.84897613525391 C 247.4200134277344 33.84622573852539 252.1528015136719 31.13175773620605 255.2203674316406 29.59266471862793 C 256.8858032226563 28.75747680664063 258.8427429199219 28.30153846740723 260.7351989746094 27.86063385009766 C 265.636962890625 26.71859741210938 270.7055358886719 25.53749084472656 271.2295227050781 17.82408332824707 C 271.4246215820313 16.08519172668457 272.2470092773438 14.51591873168945 273.5562744140625 13.37134170532227 C 276.3425903320313 14.74024963378906 278.9472045898438 16.33806800842285 281.3018188476563 18.12331962585449 C 284.3125 20.40591430664063 286.9359130859375 23.01372718811035 289.0992736816406 25.87425804138184 C 294.5567321777344 33.09057235717773 297.1836242675781 41.98750686645508 296.9069519042969 52.31791305541992 C 296.6234436035156 62.927978515625 296.3002014160156 70.95056915283203 295.5655822753906 78.15213012695313 C 294.7334594726563 86.30947875976563 293.4403076171875 92.54172515869141 291.4958801269531 97.765380859375 C 289.3574829101563 103.5102920532227 286.3602600097656 108.1175689697266 282.3329772949219 111.8505401611328 C 278.09765625 115.7763214111328 272.6205749511719 118.8466339111328 265.5888671875 121.2368850708008 C 254.6240539550781 124.9563522338867 246.9312133789063 127.7202606201172 242.4664916992188 130.0029754638672 C 238.4161376953125 132.0738525390625 236.7682647705078 133.8065032958984 236.3863983154297 136.3958587646484 C 235.8363342285156 140.1788177490234 239.0335235595703 142.4568176269531 241.8543701171875 144.4666595458984 C 244.0065765380859 145.9913482666016 244.3328399658203 149.8945465087891 243.9593658447266 152.7744750976563 C 243.6014251708984 155.5343170166016 242.5973663330078 157.8162536621094 241.5718688964844 158.2004089355469 C 238.5825500488281 159.3127899169922 235.9706420898438 159.8537292480469 233.5879516601563 159.8537292480469 C 230.7135467529297 159.8537292480469 228.4922332763672 159.0831604003906 226.1404876708984 158.2673797607422 C 223.8478698730469 157.4705352783203 221.2492065429688 156.5673522949219 218.1625823974609 156.5673522949219 C 217.2826080322266 156.5673522949219 216.3910827636719 156.6423797607422 215.5127410888672 156.7903137207031 C 215.1762084960938 156.8475952148438 214.8231811523438 156.8765716552734 214.4625854492188 156.8765716552734 C 211.5723266601563 156.8765716552734 208.3463592529297 155.0380706787109 205.5001068115234 153.4159698486328 L 205.4627075195313 153.3946685791016 C 203.00830078125 151.9772338867188 200.2236175537109 150.3690338134766 197.5274505615234 150.3690338134766 C 196.3702087402344 150.3690338134766 195.2848358154297 150.6690063476563 194.3014831542969 151.2605743408203 L 194.2974548339844 151.2629699707031 L 194.29345703125 151.2655029296875 C 192.3714904785156 152.4716491699219 191.2620086669922 154.625732421875 191.3952484130859 156.8900756835938 C 191.4000701904297 159.6157531738281 192.7158355712891 163.1342010498047 195.1013946533203 166.8000946044922 C 197.2568054199219 170.1122741699219 200.0855102539063 173.1821441650391 202.9508514404297 175.3354187011719 C 201.5266876220703 176.0473327636719 199.7871704101563 176.7974853515625 198.7834320068359 177.2303466796875 C 193.9667053222656 179.3115539550781 190.1617126464844 180.955810546875 189.0624847412109 184.1273498535156 C 188.6488342285156 185.2380981445313 188.3668365478516 186.3867797851563 188.1607360839844 187.2270965576172 C 188.1365966796875 187.3188323974609 188.1110229492188 187.4172058105469 188.0842437744141 187.5200958251953 C 188.0066833496094 187.8184051513672 187.9165649414063 188.1650085449219 187.823486328125 188.4943237304688 L 187.5374298095703 188.4022521972656 C 181.5284271240234 186.4997253417969 173.7716064453125 184.3166961669922 167.0498352050781 184.3166961669922 C 161.3777770996094 184.3166961669922 157.2243957519531 185.9261016845703 154.7051086425781 189.1001892089844 C 153.513671875 190.6046600341797 152.4165191650391 192.1353759765625 151.2081451416016 193.8367614746094 C 149.0935516357422 196.8098449707031 147.3652648925781 199.1017608642578 145.8043975830078 200.6226043701172 C 144.2328338623047 202.1538848876953 142.9185180664063 202.8367309570313 141.5428924560547 202.8367309570313 Z" stroke="none"/>
      <path d="M 141.5428924560547 202.3367309570313 C 144.0991821289063 202.3367309570313 146.5649871826172 199.5023193359375 150.8005218505859 193.5472564697266 C 152.0130157470703 191.8400421142578 153.1142120361328 190.3037261962891 154.3134613037109 188.7893524169922 C 156.9323883056641 185.4897308349609 161.2175445556641 183.8166961669922 167.0498352050781 183.8166961669922 C 173.7608947753906 183.8166961669922 181.4632720947266 185.9613037109375 187.4785308837891 187.8592987060547 C 187.5213623046875 187.6979827880859 187.5623626708984 187.540283203125 187.6003265380859 187.394287109375 C 187.6267395019531 187.2928161621094 187.6519622802734 187.1957550048828 187.6758270263672 187.1050415039063 C 187.8844451904297 186.2544860839844 188.1697235107422 185.09326171875 188.5918579101563 183.9584503173828 C 189.7650909423828 180.5822143554688 193.6578216552734 178.9003601074219 198.5854339599609 176.7712249755859 C 199.4201507568359 176.4112548828125 200.7665710449219 175.8306274414063 202.0096740722656 175.2380523681641 C 199.3212585449219 173.0880889892578 196.7076416015625 170.1850738525391 194.6823272705078 167.0728149414063 C 192.2489776611328 163.3335266113281 190.9049377441406 159.7241973876953 190.8952941894531 156.9052124023438 C 190.7568359375 154.4637603759766 191.9550323486328 152.1427307128906 194.0276794433594 150.8419799804688 L 194.0356750488281 150.8369750976563 L 194.0437316894531 150.8321075439453 C 195.1060180664063 150.1930694580078 196.2781066894531 149.8690338134766 197.5274505615234 149.8690338134766 C 200.3571319580078 149.8690338134766 203.2027282714844 151.5121002197266 205.7136535644531 152.9621887207031 L 205.7476196289063 152.9815368652344 C 208.5399322509766 154.5728759765625 211.7047729492188 156.3765716552734 214.4625854492188 156.3765716552734 C 214.7951202392578 156.3765716552734 215.1199188232422 156.3499755859375 215.4297027587891 156.2972869873047 C 216.3354644775391 156.1446990966797 217.2549285888672 156.0673522949219 218.1625823974609 156.0673522949219 C 221.3335876464844 156.0673522949219 223.974609375 156.9852600097656 226.3044891357422 157.7950439453125 C 228.6152648925781 158.5966033935547 230.7978668212891 159.3537292480469 233.5879516601563 159.3537292480469 C 235.9100494384766 159.3537292480469 238.4648895263672 158.8230743408203 241.396484375 157.7321929931641 C 241.99658203125 157.5073852539063 243.0685272216797 155.7558135986328 243.4635162353516 152.7101593017578 C 243.6797943115234 151.0424499511719 243.6298980712891 149.36962890625 243.3230133056641 147.9998779296875 C 243.0946502685547 146.9804382324219 242.6048889160156 145.6110992431641 241.5688018798828 144.8771362304688 L 241.5653381347656 144.8746643066406 L 241.564208984375 144.8738555908203 C 238.6268615722656 142.781005859375 235.297607421875 140.4089202880859 235.8917388916016 136.3228759765625 C 236.6232147216797 131.363037109375 241.0399322509766 129.0363464355469 265.4279174804688 120.7635116577148 C 272.3918151855469 118.3962860107422 277.810302734375 115.3609161376953 281.9930725097656 111.4838180541992 C 285.9617004394531 107.8052597045898 288.9168090820313 103.2608489990234 291.0273132324219 97.5909423828125 C 292.9564514160156 92.40822601318359 294.240478515625 86.21528625488281 295.0681457519531 78.10137939453125 C 295.8012084960938 70.91535186767578 296.1239624023438 62.90303802490234 296.4071044921875 52.30450820922852 C 296.6806640625 42.09038162231445 294.0877990722656 33.29941558837891 288.7004699707031 26.17585182189941 C 286.5647583007813 23.35188293457031 283.973876953125 20.77666473388672 280.999755859375 18.52172660827637 C 278.7568969726563 16.82123374938965 276.2843322753906 15.29245185852051 273.6418762207031 13.97177505493164 C 272.5712280273438 15.00794506072998 271.8982238769531 16.37046813964844 271.7276000976563 17.86923027038574 C 271.1744079589844 25.94226837158203 265.68896484375 27.21988487243652 260.8486633300781 28.34757041931152 C 258.9845581054688 28.78188323974609 257.0569763183594 29.23100852966309 255.444580078125 30.03956985473633 C 252.3952941894531 31.56947708129883 247.6910552978516 34.26753997802734 243.6328277587891 37.25178909301758 C 238.4536437988281 41.06038284301758 235.4516448974609 44.48675918579102 234.951171875 47.16150665283203 C 234.2803955078125 50.72769546508789 234.2349243164063 54.19432067871094 234.1909637451172 57.54682159423828 C 234.0583038330078 67.65916442871094 233.9437408447266 76.39250946044922 214.8854217529297 76.39250946044922 C 211.0702667236328 76.39250946044922 207.4017333984375 76.15550994873047 204.1654205322266 75.94644927978516 C 200.5667114257813 75.71541595458984 198.42724609375 75.62116241455078 196.7808990478516 75.62116241455078 C 194.5195465087891 75.62116241455078 193.1968078613281 75.80663299560547 192.3579864501953 76.24131774902344 C 191.6200866699219 76.62369537353516 191.1833038330078 77.23763275146484 190.538330078125 78.38626098632813 L 190.5354919433594 78.39138031005859 L 190.5325469970703 78.39644622802734 C 185.2958374023438 87.47188568115234 175.5339508056641 93.11003875732422 165.0519866943359 93.11069488525391 C 164.8494262695313 93.11069488525391 164.6506805419922 93.10863494873047 164.4443969726563 93.10435485839844 L 164.4067687988281 93.10356903076172 L 164.3693084716797 93.0999755859375 C 161.5845184326172 92.83200836181641 152.4983673095703 91.25619506835938 152.4983673095703 82.23007202148438 L 152.4983673095703 82.20825958251953 L 152.4992980957031 82.18647766113281 C 152.5492095947266 81.04334259033203 152.3108978271484 79.89410400390625 151.8196105957031 78.86328887939453 C 151.5026245117188 79.11577606201172 151.1973724365234 79.38363647460938 150.9061431884766 79.66506958007813 C 142.7621917724609 87.50148010253906 134.3417205810547 95.60462188720703 122.6007080078125 96.41395568847656 C 121.9084701538086 96.47225189208984 121.205436706543 96.50182342529297 120.510986328125 96.50182342529297 C 116.1143951416016 96.50185394287109 111.7821731567383 95.33232116699219 107.9826431274414 93.11969757080078 L 107.968864440918 93.11166381835938 L 107.9553604125977 93.10319519042969 C 103.3078536987305 90.19443511962891 99.95445251464844 85.46534729003906 98.74506378173828 80.11904907226563 C 94.60833740234375 82.11168670654297 88.63070678710938 85.25239562988281 81.86911010742188 88.82410430908203 C 75.03561401367188 92.43376159667969 69.47927856445313 95.31356048583984 64.55435180664063 97.79733276367188 C 69.12537384033203 100.7327499389648 73.42948150634766 104.5226364135742 76.80899047851563 108.6064453125 C 80.84086608886719 113.4785995483398 83.23023986816406 118.3238830566406 83.71877288818359 122.6184768676758 L 83.72217559814453 122.6485366821289 L 83.72377014160156 122.6787261962891 C 83.77567291259766 123.6604461669922 83.91364288330078 124.5541305541992 84.04705047607422 125.4183807373047 C 84.46391296386719 128.1185150146484 84.85752868652344 130.6697082519531 81.44998168945313 132.4164733886719 C 67.57894897460938 141.4425659179688 55.77273178100586 154.5446624755859 51.66122436523438 165.3794708251953 C 54.12668609619141 165.8855895996094 57.2672119140625 166.1417694091797 61.02011489868164 166.141845703125 C 70.68196105957031 166.141845703125 82.92048645019531 164.4945068359375 93.71977233886719 163.0408782958984 L 99.32479858398438 162.2947235107422 C 105.107177734375 161.5355377197266 115.0752105712891 160.6489715576172 124.1379241943359 160.6489715576172 C 129.3757629394531 160.6489715576172 133.7900238037109 160.9397888183594 137.2580871582031 161.5133209228516 C 141.554443359375 162.2238464355469 144.3807983398438 163.3466186523438 145.8983459472656 164.9459075927734 C 147.214599609375 166.2897338867188 147.8045501708984 168.1966857910156 147.4767761230469 170.0493469238281 L 147.4710845947266 170.0814514160156 L 147.4633331298828 170.1130676269531 C 146.9829254150391 172.0740661621094 146.3915863037109 174.0308990478516 145.7056274414063 175.9296722412109 C 144.1272888183594 180.7087707519531 141.74560546875 187.9229736328125 140.6475830078125 194.0281372070313 C 139.6453704833984 199.5972442626953 140.1817169189453 201.6209411621094 140.4062194824219 202.1670684814453 C 140.8011932373047 202.2810211181641 141.1755828857422 202.3367309570313 141.5428924560547 202.3367309570313 M 141.5429077148438 203.3367309570313 C 140.9657135009766 203.3367309570313 140.3730010986328 203.2274475097656 139.7522125244141 203.0062255859375 C 139.7344207763672 202.9973449707031 138.2603302001953 201.6475982666016 139.6633911132813 193.8510131835938 C 140.7733612060547 187.679443359375 143.1709899902344 180.4156341552734 144.7604827880859 175.6026916503906 C 145.4391174316406 173.7256622314453 146.0171203613281 171.8137512207031 146.4920501708984 169.8751373291016 C 146.7647705078125 168.3337554931641 146.2751159667969 166.7556915283203 145.1778259277344 165.6394195556641 C 142.291015625 162.5880126953125 133.5234832763672 161.6489715576172 124.137939453125 161.6489715576172 C 114.7866973876953 161.6489715576172 104.8219375610352 162.5815734863281 99.45498657226563 163.2862243652344 L 93.85173797607422 164.0321350097656 C 83.06357574462891 165.4842681884766 70.74586486816406 167.1419982910156 61.01874923706055 167.141845703125 C 56.88648223876953 167.1417694091797 53.22060394287109 166.8424987792969 50.33998870849609 166.1011657714844 C 54.11399078369141 154.9301910400391 66.31501770019531 141.0597229003906 80.94917297363281 131.5492858886719 C 84.67874145507813 129.6667633056641 82.94717407226563 126.9317245483398 82.72517395019531 122.7315063476563 C 81.74836730957031 114.1445999145508 72.61089324951172 103.6929168701172 62.50555038452148 97.70781707763672 C 68.12654876708984 94.89288330078125 74.32473754882813 91.67832183837891 81.40205383300781 87.93988037109375 C 88.47936248779297 84.201416015625 95.21926879882813 80.65831756591797 99.42836761474609 78.68697357177734 L 99.70364379882813 79.82360076904297 C 100.8477401733398 84.97660064697266 104.0115203857422 89.45513153076172 108.4858932495117 92.25553894042969 C 112.147087097168 94.38761901855469 116.2980880737305 95.50186157226563 120.510986328125 95.50182342529297 C 121.1812896728516 95.50181579589844 121.8533782958984 95.47360229492188 122.5250854492188 95.41678619384766 C 133.9002990722656 94.63535308837891 141.9810485839844 86.86537933349609 150.2127685546875 78.94447326660156 C 150.8043670654297 78.37278747558594 151.4463043212891 77.85566711425781 152.1308288574219 77.39938354492188 C 153.0937347412109 78.82091522216797 153.5732421875 80.51472473144531 153.4983673095703 82.23007202148438 C 153.4983673095703 90.41738128662109 161.8810272216797 91.85591125488281 164.465087890625 92.10456848144531 C 164.6630554199219 92.10867309570313 164.8589630126953 92.11071014404297 165.056396484375 92.11070251464844 C 175.1936798095703 92.11005401611328 184.5849609375 86.70299530029297 189.6663970947266 77.89666748046875 C 191.0221557617188 75.48206329345703 191.8897705078125 74.62115478515625 196.7808837890625 74.62115478515625 C 198.6171112060547 74.62115478515625 201.0204010009766 74.74249267578125 204.2294921875 74.94850921630859 C 207.666015625 75.17050933837891 211.1824951171875 75.39250946044922 214.8854217529297 75.39250946044922 C 238.8879241943359 75.39250946044922 231.1890258789063 61.75291442871094 233.9684295654297 46.97666549682617 C 235.2560272216797 40.0947265625 249.8635559082031 31.72091484069824 254.9961395263672 29.1457576751709 C 261.0167236328125 26.1265697479248 270.0387573242188 28.07125854492188 270.7313842773438 17.77941513061523 C 270.9490661621094 15.81360149383545 271.9393920898438 14.01500797271729 273.4842224121094 12.78000831604004 C 283.6605834960938 17.69947624206543 298.0372314453125 28.7905387878418 297.4067687988281 52.3312873840332 C 296.3678283691406 91.21656799316406 294.4852905273438 111.9423828125 265.749755859375 121.7102890014648 C 242.1113586425781 129.7288818359375 237.529296875 132.0731964111328 236.8810577392578 136.4687957763672 C 236.3748931884766 139.9496917724609 239.3052673339844 142.0365142822266 242.1468658447266 144.0611267089844 C 246.25830078125 146.9737548828125 244.54443359375 157.6208190917969 241.7472686767578 158.6686401367188 C 238.4329681396484 159.9019470214844 235.8199310302734 160.3537139892578 233.5879669189453 160.3537139892578 C 230.6292114257813 160.3537139892578 228.3402404785156 159.5596618652344 225.9764556884766 158.7397003173828 C 223.6887054443359 157.9445648193359 221.1604919433594 157.0673522949219 218.1625671386719 157.0673522949219 C 217.3437194824219 157.0673522949219 216.4892883300781 157.1328735351563 215.5957946777344 157.2833862304688 C 215.2224578857422 157.346923828125 214.8447418212891 157.3765869140625 214.4625854492188 157.3765869140625 C 211.4269714355469 157.3765869140625 208.1491241455078 155.5011291503906 205.2151489257813 153.8290710449219 C 202.6797332763672 152.3648529052734 200.0494384765625 150.8690490722656 197.5274658203125 150.8690490722656 C 196.5162963867188 150.8690490722656 195.5224151611328 151.1095733642578 194.5592346191406 151.6890106201172 C 192.7891082763672 152.7998809814453 191.767333984375 154.7890014648438 191.8952331542969 156.8748779296875 C 191.8952331542969 162.3449096679688 197.5606384277344 170.9673461914063 203.9009246826172 175.4073486328125 C 202.4446105957031 176.1887817382813 200.4022369384766 177.0767517089844 198.9814300537109 177.6894836425781 C 194.2750549316406 179.7230072021484 190.5543670654297 181.3391265869141 189.5331726074219 184.2961578369141 C 189.1424560546875 185.3440093994141 188.8760528564453 186.4096069335938 188.6451721191406 187.3508758544922 C 188.511962890625 187.8570404052734 188.3343963623047 188.5674438476563 188.1567687988281 189.1268463134766 L 187.3842315673828 188.8782196044922 C 180.7601928710938 186.7809448242188 173.3534393310547 184.8166961669922 167.0498199462891 184.8166961669922 C 162.0637054443359 184.8166961669922 157.7675018310547 186.0461120605469 155.0967407226563 189.4110412597656 C 153.8801727294922 190.947265625 152.7257995605469 192.5634155273438 151.6157989501953 194.1262817382813 C 147.3498229980469 200.1241607666016 144.6727905273438 203.3367309570313 141.5429077148438 203.3367309570313 Z" stroke="none" fill="#30abec"/>
    </g>
    <text id="beibei1" transform="translate(474.354 2003.32)" fill="#fff" font-size="10" font-family="MicrosoftYaHei, Microsoft YaHei"><tspan x="0" y="0">北碚区</tspan></text>
  </g>
</svg>
