<svg xmlns="http://www.w3.org/2000/svg" xmlns:xlink="http://www.w3.org/1999/xlink" width="327" height="258" viewBox="0 0 327 258">
  <defs>
    <radialGradient id="radial-gradient" cx="0.5" cy="0.5" r="0.5" gradientUnits="objectBoundingBox">
      <stop offset="0" stop-color="#1fb9e6"/>
      <stop offset="1" stop-color="#0669d2"/>
    </radialGradient>
    <linearGradient id="linear-gradient" x1="0.5" x2="0.5" y2="1" gradientUnits="objectBoundingBox">
      <stop offset="0" stop-color="#191e64"/>
      <stop offset="1" stop-color="#17448b"/>
    </linearGradient>
    <filter id="bishan1" x="63.5" y="25.866" width="199.64" height="236.301" filterUnits="userSpaceOnUse">
      <feOffset dy="8" input="SourceAlpha"/>
      <feGaussianBlur stdDeviation="9" result="blur"/>
      <feFlood flood-opacity="0.161"/>
      <feComposite operator="in" in2="blur"/>
      <feComposite in="SourceGraphic"/>
    </filter>
    <clipPath id="clip-bishan">
      <rect width="327" height="258"/>
    </clipPath>
  </defs>
  <g id="bishan" clip-path="url(#clip-bishan)">
    <rect width="327" height="258" fill="rgba(0,0,0,0)"/>
    <g id="bishan-2" data-name="bishan" transform="translate(-3.188 -5)">
      <g id="thick_bishan" transform="translate(-218.558 -273.938)" opacity="0.67" fill="url(#radial-gradient)">
        <path d="M 341.9826965332031 488.1044006347656 C 341.9824829101563 488.1044006347656 341.9824523925781 488.1044006347656 341.9822692871094 488.1044006347656 C 339.5450744628906 488.1043395996094 337.157470703125 487.7059020996094 334.8852233886719 486.9201354980469 C 326.8343811035156 483.1219482421875 319.5836181640625 478.1987915039063 313.3272705078125 472.282958984375 C 321.3427734375 450.2526245117188 332.7982788085938 414.261474609375 334.9024047851563 404.4814453125 C 336.0265808105469 399.2268676757813 339.3967590332031 393.157958984375 344.1488952636719 387.8303527832031 C 348.89501953125 382.5094909667969 354.3714294433594 378.6526184082031 359.1739501953125 377.2485961914063 C 369.0771179199219 374.3617553710938 375.7219543457031 372.1741027832031 377.7709655761719 368.2265625 C 378.9989318847656 365.8722534179688 378.3052673339844 363.3337097167969 375.7087707519531 360.6823425292969 L 375.7068176269531 360.6803283691406 L 375.7048034667969 360.6783447265625 C 374.8053283691406 359.7803039550781 373.8229370117188 358.9342346191406 372.7847900390625 358.16357421875 C 372.3359069824219 357.8186950683594 372.1519775390625 357.6542053222656 372.1416931152344 357.4173889160156 C 372.0928039550781 356.29345703125 375.1704406738281 353.0170593261719 383.1185913085938 345.7315673828125 C 389.6390380859375 339.7502746582031 398.1622924804688 333.4813232421875 408.4516296386719 327.0986633300781 C 416.5703125 322.0625610351563 423.2976684570313 318.5227355957031 425.2998352050781 317.4904174804688 C 429.5475463867188 317.0733947753906 434.912353515625 315.2752990722656 443.1735229492188 311.4990234375 C 446.8796997070313 313.6183166503906 450.0763549804688 315.7623596191406 452.4296569824219 317.7080383300781 C 455.1719055175781 319.9752807617188 456.7042236328125 321.9248046875 456.8609313964844 323.3458862304688 L 456.8621215820313 323.3566589355469 L 456.86376953125 323.3673400878906 C 456.9456787109375 323.8980102539063 456.656494140625 324.4237365722656 456.1271362304688 324.7066955566406 L 456.1095275878906 324.7160949707031 L 456.0927429199219 324.7268676757813 C 443.5928344726563 332.7489013671875 433.6654357910156 344.3976440429688 431.3896789550781 353.7133178710938 C 429.80712890625 360.1795959472656 426.67431640625 368.5153198242188 423.2137756347656 375.4673156738281 C 421.263916015625 379.3844604492188 419.2771911621094 382.7630310058594 417.3087768554688 385.5091857910156 C 415.1373596191406 388.5385131835938 413.0483703613281 390.7086486816406 411.0998840332031 391.9593505859375 L 409.793212890625 392.7974548339844 C 400.7784729003906 398.5623474121094 400.1325378417969 399.5837707519531 401.1549377441406 406.4585571289063 C 401.3283996582031 407.6217956542969 401.5442199707031 409.0692138671875 401.7203369140625 410.8848876953125 C 401.9692687988281 413.3034057617188 402.4295654296875 416.1143493652344 402.8747253417969 418.8327026367188 C 404.4958190917969 428.6912231445313 406.5133056640625 440.9600524902344 401.1977233886719 448.0531311035156 C 398.67529296875 451.4325866699219 396.6533508300781 455.0987548828125 395.1875305175781 458.9505310058594 L 395.1851806640625 458.9567260742188 L 395.1829528808594 458.9629821777344 C 393.3602600097656 464.1643371582031 389.9646911621094 468.8041381835938 385.36328125 472.380859375 L 385.3547973632813 472.3874816894531 L 385.3465881347656 472.3944396972656 C 377.9883422851563 478.6398620605469 359.7498168945313 486.5219116210938 345.3432006835938 487.8467712402344 L 345.3280944824219 487.8481750488281 L 345.3131103515625 487.8504638671875 C 344.2160034179688 488.0189514160156 343.0953979492188 488.1044006347656 341.9826965332031 488.1044006347656 Z" stroke="none"/>
        <path d="M 443.1474609375 312.0604858398438 C 435.0263366699219 315.7604370117188 429.6941528320313 317.5425720214844 425.4444885253906 317.9784240722656 C 423.3477783203125 319.0615234375 416.7077026367188 322.5657043457031 408.7152099609375 327.5235595703125 C 398.4522705078125 333.8898010253906 389.9541015625 340.1398010253906 383.4564514160156 346.1001281738281 C 379.0143127441406 350.1719360351563 376.1804504394531 352.910400390625 374.5381774902344 354.7181701660156 C 373.770751953125 355.5629272460938 373.2459716796875 356.2204895019531 372.933837890625 356.7284545898438 C 372.6805725097656 357.1405944824219 372.6463317871094 357.3314819335938 372.641845703125 357.3818054199219 C 372.701904296875 357.4688110351563 372.9286499023438 357.6435852050781 373.0852355957031 357.7638549804688 C 374.1419982910156 358.5485229492188 375.1421203613281 359.4099731445313 376.0580749511719 360.3244934082031 L 376.0620422363281 360.3284606933594 L 376.0659790039063 360.3324584960938 C 379.5100402832031 363.8493041992188 379.1349487304688 366.6926879882813 378.2147216796875 368.4569396972656 C 377.1873474121094 370.4362487792969 375.0599060058594 372.083251953125 371.51953125 373.6401977539063 C 368.5274963378906 374.9559936523438 364.7783508300781 376.1356811523438 359.3142700195313 377.7284851074219 C 354.5990905761719 379.1069641113281 349.2075500488281 382.9102783203125 344.5220336914063 388.1631774902344 C 339.8258972167969 393.4280090332031 336.4979248046875 399.4137268066406 335.3912048339844 404.5866394042969 C 333.29345703125 414.3368225097656 321.9248657226563 450.0730285644531 313.9095764160156 472.1445007324219 C 320.0662536621094 477.9175720214844 327.1835327148438 482.7307434082031 335.0739135742188 486.456298828125 C 337.2860412597656 487.2181396484375 339.6099853515625 487.6043701171875 341.982177734375 487.6043701171875 C 343.0700073242188 487.6043701171875 344.1651306152344 487.5209045410156 345.2372131347656 487.3562316894531 L 345.2672119140625 487.3516235351563 L 345.2974243164063 487.3488464355469 C 351.9163513183594 486.7401733398438 359.9134521484375 484.6602783203125 367.8156127929688 481.4922790527344 C 374.9824523925781 478.6190490722656 381.4151306152344 475.0754699707031 385.0230407714844 472.0132141113281 L 385.0394287109375 471.9992980957031 L 385.0564270019531 471.9861145019531 C 389.5817260742188 468.468505859375 392.9202880859375 463.9080200195313 394.7110900878906 458.7976684570313 L 394.7154846191406 458.7850952148438 L 394.72021484375 458.7726745605469 C 396.2025451660156 454.8775939941406 398.2468566894531 451.1706237792969 400.797607421875 447.7532653808594 C 405.9853210449219 440.8308410644531 403.987060546875 428.6786193847656 402.3812866210938 418.9134826660156 C 401.9349975585938 416.188232421875 401.4734802246094 413.3702087402344 401.2232360839844 410.9389953613281 L 401.2229309082031 410.9360656738281 L 401.22265625 410.9331359863281 C 401.0477905273438 409.1302490234375 400.8330383300781 407.6898498535156 400.660400390625 406.5321044921875 C 399.5718994140625 399.2128601074219 400.6393432617188 398.0578002929688 409.5232543945313 392.3765563964844 L 410.8297729492188 391.53857421875 C 414.455078125 389.2116088867188 418.6941528320313 383.4249267578125 422.7661743164063 375.2445068359375 C 426.2113647460938 368.3232727050781 429.3296203613281 360.0273742675781 430.9039611816406 353.5946655273438 C 433.2080688476563 344.1628723144531 443.2221374511719 332.3926696777344 455.8226623535156 324.3060302734375 L 455.8562316894531 324.2844848632813 L 455.8914184570313 324.2656860351563 C 456.2309875488281 324.084228515625 456.418701171875 323.7615051269531 456.36962890625 323.443603515625 L 456.3663330078125 323.4222106933594 L 456.3639526367188 323.4006958007813 C 456.2827758789063 322.6646423339844 455.622314453125 320.9964294433594 452.1110534667969 318.0933837890625 C 449.8264465332031 316.2045288085938 446.7344970703125 314.1240234375 443.1474609375 312.0604858398438 M 443.1984252929688 310.9376831054688 C 450.1604919433594 314.8952026367188 456.9827575683594 319.8890380859375 457.35791015625 323.2910766601563 C 457.472412109375 324.0330200195313 457.0802917480469 324.76416015625 456.36279296875 325.1476440429688 C 443.9690551757813 333.1015625 434.1236877441406 344.6287231445313 431.8753967285156 353.8319702148438 C 428.8614501953125 366.14697265625 419.8204650878906 386.9559936523438 411.3699645996094 392.380126953125 L 410.0631408691406 393.2183227539063 C 401.2204895019531 398.8731689453125 400.66015625 399.732421875 401.6495056152344 406.385009765625 C 401.8277587890625 407.5803833007813 402.0423889160156 409.0260009765625 402.2179870605469 410.8366088867188 C 402.4607543945313 413.1952514648438 402.89599609375 415.8687744140625 403.3681335449219 418.7518920898438 C 405.0050659179688 428.7066040039063 407.0386657714844 441.0927734375 401.5978393554688 448.3529663085938 C 399.1015625 451.6973876953125 397.1040954589844 455.320068359375 395.6548156738281 459.1283569335938 C 393.8013000488281 464.4176635742188 390.344482421875 469.1422119140625 385.6701354980469 472.775634765625 C 378.2538452148438 479.0703125 359.8936767578125 487.0108032226563 345.3890075683594 488.3446655273438 C 344.259033203125 488.5181884765625 343.1196594238281 488.6043701171875 341.982177734375 488.6043701171875 C 339.5001831054688 488.6043701171875 337.0288696289063 488.1936950683594 334.6961669921875 487.3837890625 C 326.5032653808594 483.5216064453125 319.0852966308594 478.4644775390625 312.7452697753906 472.4198608398438 C 320.6679992675781 450.686279296875 332.3044738769531 414.1793823242188 334.41357421875 404.3762817382813 C 336.8094177246094 393.1778564453125 348.7768859863281 379.7672119140625 359.0336608886719 376.7686767578125 C 368.8189697265625 373.9161987304688 375.3726806640625 371.7616577148438 377.3271789550781 367.9962158203125 C 378.4471435546875 365.8489990234375 377.7780456542969 363.5099487304688 375.3515319824219 361.0321655273438 C 374.4646911621094 360.146728515625 373.5057373046875 359.3211669921875 372.4830322265625 358.562255859375 C 370.9015197753906 357.3474731445313 370.2534790039063 356.8458251953125 382.7807312011719 345.3629760742188 C 398.2573852539063 331.1661376953125 420.9317932128906 319.1756591796875 425.1563720703125 317.0018920898438 C 429.3867797851563 316.60595703125 434.8873596191406 314.7490234375 443.1984252929688 310.9376831054688 Z" stroke="none" fill="#30abec"/>
      </g>
      <text id="bishang" transform="translate(140.579 130.746)" fill="#fff" font-size="10" font-family="MicrosoftYaHei, Microsoft YaHei"><tspan x="0" y="0">璧山区</tspan></text>
      <g transform="matrix(1, 0, 0, 1, 3.19, 5)" filter="url(#bishan1)">
        <path id="bishan1-2" data-name="bishan1" d="M-1225.764-857.333a22.138,22.138,0,0,1-7.285-1.221,86.378,86.378,0,0,1-10.444-5.836,79.279,79.279,0,0,1-9.179-6.994c-.929-.823-2.315-2.121-2.328-2.133V-890.5l.006-.012a82.958,82.958,0,0,0,21.945,14.958,22.143,22.143,0,0,0,7.284,1.22,22.479,22.479,0,0,0,3.407-.259c14.5-1.333,32.866-9.275,40.281-15.569a29.87,29.87,0,0,0,9.985-13.648,44.493,44.493,0,0,1,5.944-10.775,16.715,16.715,0,0,0,2.77-6.155,60.267,60.267,0,0,1,.666,12.581c-.333,4.473-1.457,7.932-3.436,10.574a44.488,44.488,0,0,0-5.944,10.775,29.871,29.871,0,0,1-9.985,13.648c-7.415,6.294-25.782,14.236-40.281,15.569A22.539,22.539,0,0,1-1225.764-857.333Zm60.87-90.065v0c-.3-1.927-.5-3.421-.632-4.7-.176-1.818-.394-3.276-.568-4.448-.989-6.649-.438-7.51,8.414-13.171l1.307-.838c8.458-5.43,17.493-26.24,20.5-38.549,2.247-9.2,12.088-20.726,24.488-28.684a1.887,1.887,0,0,0,.974-1.235c-.053,2.207-.311,13.366.021,16.379a1.8,1.8,0,0,1-.995,1.857c-12.4,7.957-22.241,19.484-24.488,28.684-3.011,12.309-12.046,33.119-20.5,38.549l-1.307.838c-3.884,2.484-5.954,3.913-7.211,5.319Zm-30.513-43.383,0,0c1.306-2.254-.008-11.364-.442-14.1a3.842,3.842,0,0,0,.585.511,25.955,25.955,0,0,1,2.869,2.471c2.428,2.48,3.093,4.823,1.975,6.963-.805,1.552-2.39,2.874-4.986,4.159Z" transform="translate(1346 1084)" stroke="rgba(0,0,0,0)" stroke-miterlimit="10" stroke-width="1" fill="url(#linear-gradient)"/>
      </g>
    </g>
  </g>
</svg>
