<svg xmlns="http://www.w3.org/2000/svg" xmlns:xlink="http://www.w3.org/1999/xlink" width="327" height="258" viewBox="0 0 327 258">
  <defs>
    <radialGradient id="radial-gradient" cx="0.5" cy="0.5" r="0.5" gradientUnits="objectBoundingBox">
      <stop offset="0" stop-color="#1fb9e6"/>
      <stop offset="1" stop-color="#0669d2"/>
    </radialGradient>
    <linearGradient id="linear-gradient" x1="0.5" x2="0.5" y2="1" gradientUnits="objectBoundingBox">
      <stop offset="0" stop-color="#191e64"/>
      <stop offset="1" stop-color="#17448b"/>
    </linearGradient>
    <filter id="changshouqu1" x="42.5" y="66.931" width="241.363" height="166.753" filterUnits="userSpaceOnUse">
      <feOffset dy="8" input="SourceAlpha"/>
      <feGaussianBlur stdDeviation="9" result="blur"/>
      <feFlood flood-opacity="0.161"/>
      <feComposite operator="in" in2="blur"/>
      <feComposite in="SourceGraphic"/>
    </filter>
    <clipPath id="clip-changshouqu">
      <rect width="327" height="258"/>
    </clipPath>
  </defs>
  <g id="changshouqu" clip-path="url(#clip-changshouqu)">
    <rect width="327" height="258" fill="rgba(0,0,0,0)"/>
    <g id="changshouqu-2" data-name="changshouqu" transform="translate(-4.456 -6.4)">
      <g id="thick_changshou" transform="translate(-419.197 -199.349)" opacity="0.67" fill="url(#radial-gradient)">
        <path d="M 521.8784790039063 386.1354675292969 C 518.4567260742188 383.0570983886719 512.5326538085938 379.7458801269531 506.798828125 376.5410766601563 L 506.7765197753906 376.5286254882813 C 503.5080261230469 374.704345703125 500.4208068847656 372.9812316894531 498.4337768554688 371.6231994628906 C 496.9380493164063 370.6052551269531 497.2933959960938 367.3018798828125 499.4606323242188 362.0696716308594 C 501.3697204589844 357.4607543945313 504.2373657226563 352.38427734375 506.1349182128906 349.0250854492188 L 506.1413269042969 349.0137329101563 C 506.3226318359375 348.6901550292969 506.5015258789063 348.3715515136719 506.6782531738281 348.056884765625 C 507.7231140136719 346.1960754394531 508.7100524902344 344.4384765625 509.476318359375 342.9216918945313 C 510.737060546875 340.4370727539063 510.8424987792969 338.0516357421875 509.789306640625 335.8325500488281 C 508.69970703125 333.53662109375 506.4046020507813 331.4762573242188 502.9678039550781 329.7086791992188 C 499.9220581054688 328.1422424316406 496.7373657226563 327.2027587890625 494.6844177246094 326.7031860351563 C 496.5044250488281 325.10009765625 498.1681518554688 324.3184814453125 499.7513732910156 324.3184814453125 C 501.3180847167969 324.3184814453125 502.7861328125 325.0833740234375 504.2394409179688 326.6568603515625 C 506.2783203125 328.8680419921875 509.2979431152344 329.9429931640625 513.470703125 329.9428405761719 C 517.7291259765625 329.9426879882813 523.13720703125 328.8175048828125 530.4901123046875 326.40185546875 C 537.2456665039063 324.1822814941406 538.6190185546875 322.5275268554688 540.5197143554688 320.2372436523438 C 541.72412109375 318.7859802246094 543.0891723632813 317.1411437988281 546.2024536132813 314.8706970214844 C 546.92431640625 314.3442993164063 547.8334350585938 313.6837158203125 548.8973388671875 312.91064453125 C 560.3054809570313 304.6209106445313 587.0214233398438 285.2079467773438 595.6732788085938 276.9030456542969 C 598.1590576171875 274.5200500488281 601.8974609375 270.6159973144531 606.7872924804688 265.2965393066406 L 606.8272094726563 265.3049011230469 C 607.3795166015625 265.4554443359375 616.492431640625 268.0314025878906 616.492431640625 273.85791015625 C 616.492431640625 283.2985229492188 622.1611938476563 287.8938903808594 622.6026611328125 288.2351684570313 C 622.6112060546875 288.2421264648438 622.6197509765625 288.24853515625 622.6285400390625 288.2548217773438 C 622.62890625 288.2550659179688 622.629150390625 288.2552795410156 622.6293334960938 288.2554321289063 L 622.6293334960938 288.25537109375 C 622.6442260742188 288.2659912109375 622.6600952148438 288.2762756347656 622.6787109375 288.2883605957031 C 624.0352172851563 289.1681823730469 625.5587768554688 290.5924987792969 625.388427734375 291.7110900878906 C 625.274169921875 292.4817199707031 624.1484375 293.34033203125 622.2183227539063 294.1306457519531 C 617.4877319335938 296.060302734375 614.9542236328125 298.2479553222656 614.4738159179688 300.8183898925781 C 614.1748046875 302.4179382324219 614.6844482421875 304.1042785644531 616.0319213867188 305.9737854003906 C 617.150146484375 307.5252075195313 618.6517333984375 308.9435424804688 619.9765625 310.1948852539063 L 619.97998046875 310.1981201171875 L 619.9849853515625 310.2027282714844 C 620.990234375 311.116943359375 621.9534301757813 312.0888671875 622.8483276367188 313.0920104980469 C 623.9444580078125 314.7384033203125 624.5296020507813 316.619873046875 624.5409545898438 318.5355529785156 L 624.5411376953125 318.5625915527344 L 624.544189453125 318.5894470214844 C 624.759521484375 320.4710998535156 625.0545043945313 323.0481262207031 626.8252563476563 325.1720886230469 C 628.9185180664063 327.6829223632813 632.478271484375 328.9034729003906 637.7078857421875 328.9034729003906 C 645.2760009765625 328.9034729003906 653.4383544921875 327.390869140625 661.33203125 325.9281005859375 L 661.449951171875 325.9062194824219 L 661.7289428710938 325.8545837402344 C 666.7373046875 324.9275512695313 671.9161376953125 323.9689636230469 676.6891479492188 323.4653625488281 C 678.00146484375 323.3252868652344 678.7011108398438 323.3104553222656 679.0180053710938 323.3055114746094 C 679.0785522460938 323.3773803710938 679.1364135742188 323.4508972167969 679.1914672851563 323.5258483886719 C 666.863037109375 333.0386352539063 657.2302856445313 340.8760986328125 654.0264282226563 343.6061706542969 C 647.58984375 349.0717163085938 641.8652954101563 353.2430725097656 637.0125732421875 356.00390625 C 632.230224609375 358.7246704101563 628.2505493164063 360.1042175292969 625.1839599609375 360.1042175292969 C 624.8255004882813 360.1042175292969 624.4747314453125 360.0851135253906 624.1414184570313 360.0474243164063 C 621.6227416992188 359.75146484375 619.2911987304688 359.2868347167969 617.2340698242188 358.8768920898438 C 614.31591796875 358.2962036132813 611.2985229492188 357.69580078125 608.1019287109375 357.69580078125 C 602.5053100585938 357.69580078125 597.8203125 359.5747985839844 593.3580932617188 363.609130859375 C 585.6362915039063 370.5885925292969 581.315673828125 372.1066284179688 564.5728149414063 376.1141967773438 C 560.61279296875 377.0699768066406 555.9199829101563 377.7346496582031 551.3817138671875 378.3774108886719 L 551.3494262695313 378.3820190429688 C 541.4999389648438 379.7911071777344 530.3519897460938 381.3861999511719 521.8784790039063 386.1354675292969 Z" stroke="none"/>
        <path d="M 521.9452514648438 385.5268859863281 C 530.4591674804688 380.8654479980469 541.5049438476563 379.2852783203125 551.2786254882813 377.8870544433594 L 551.3115844726563 377.8823547363281 C 555.8381958007813 377.2412414550781 560.5188598632813 376.5783081054688 564.4564208984375 375.6279296875 C 573.0645751953125 373.5674743652344 578.169677734375 372.2098999023438 582.1829223632813 370.5079345703125 C 586.0239868164063 368.8789978027344 588.9619140625 366.90869140625 593.0227661132813 363.2382202148438 C 597.5824584960938 359.1158142089844 602.3739013671875 357.19580078125 608.1019287109375 357.19580078125 C 611.3477783203125 357.19580078125 614.3897705078125 357.8011169433594 617.331787109375 358.3865356445313 C 619.3796997070313 358.7946472167969 621.700927734375 359.2572021484375 624.1976318359375 359.5505981445313 C 624.5122680664063 359.586181640625 624.8441162109375 359.6042175292969 625.1839599609375 359.6042175292969 C 628.1627197265625 359.6042175292969 632.0592651367188 358.2466735839844 636.7653198242188 355.5693359375 C 641.591064453125 352.8238830566406 647.2898559570313 348.6704711914063 653.7021484375 343.2256164550781 C 656.8279418945313 340.5620727539063 666.063720703125 333.0443725585938 677.9491577148438 323.8536682128906 C 677.6236572265625 323.8766784667969 677.2252197265625 323.9109802246094 676.7415771484375 323.9626159667969 C 671.9879760742188 324.4641723632813 666.8189086914063 325.4209289550781 661.8200073242188 326.3462524414063 L 661.5410766601563 326.3978576660156 L 661.423095703125 326.4197387695313 C 653.5072631835938 327.8866271972656 645.3219604492188 329.4034729003906 637.7078857421875 329.4034729003906 C 632.3207397460938 329.4034729003906 628.6353759765625 328.1240844726563 626.4412231445313 325.4922485351563 C 624.5747680664063 323.2534790039063 624.2699584960938 320.5906372070313 624.0474243164063 318.6463012695313 L 624.041259765625 318.5925903320313 L 624.0409545898438 318.5385131835938 C 624.0302734375 316.7319946289063 623.4808959960938 314.9561462402344 622.451416015625 313.398193359375 C 621.5748291015625 312.4174194335938 620.6321411132813 311.4670715332031 619.6486206054688 310.5726318359375 L 619.64013671875 310.5648803710938 L 619.6332397460938 310.5584106445313 C 618.292236328125 309.2917175292969 616.7722778320313 307.8560791015625 615.6263427734375 306.2661437988281 C 614.194580078125 304.2797241210938 613.6567993164063 302.4677124023438 613.9822998046875 300.7265319824219 C 614.4964599609375 297.9757080078125 617.12890625 295.6666259765625 622.0288696289063 293.6679077148438 C 624.0414428710938 292.8438110351563 624.8283081054688 292.079833984375 624.8941650390625 291.6358032226563 C 625.0014038085938 290.931396484375 623.978515625 289.7273864746094 622.4066162109375 288.7078552246094 C 622.3857421875 288.6942749023438 622.3636474609375 288.6799621582031 622.3402099609375 288.6632995605469 C 622.3401489257813 288.6632690429688 622.340087890625 288.6632080078125 622.3399658203125 288.6631469726563 C 622.3233642578125 288.6513671875 622.3060913085938 288.638427734375 622.2880249023438 288.6237487792969 C 621.9915161132813 288.3938598632813 620.4812622070313 287.15771484375 618.9916381835938 284.7693786621094 C 617.029541015625 281.6234741210938 615.992431640625 277.850341796875 615.992431640625 273.85791015625 C 615.992431640625 272.657470703125 615.5577392578125 271.5075988769531 614.7005004882813 270.4402465820313 C 613.9677734375 269.5280456542969 612.9285278320313 268.6688537597656 611.611572265625 267.8865661621094 C 609.6705322265625 266.7335510253906 607.6585693359375 266.0736694335938 606.9481201171875 265.8602905273438 C 602.1527099609375 271.0724792480469 598.477294921875 274.9076232910156 596.01953125 277.2637634277344 C 587.3429565429688 285.5923461914063 560.6077270507813 305.0194091796875 549.1912231445313 313.3151245117188 C 548.1276245117188 314.0880126953125 547.21875 314.7484130859375 546.4970703125 315.2747192382813 C 543.4341430664063 317.5083923339844 542.0902099609375 319.1277770996094 540.9044799804688 320.5565490722656 C 538.9503784179688 322.9111328125 537.5385131835938 324.6123657226563 530.6461791992188 326.8768615722656 C 523.241455078125 329.3095703125 517.7838134765625 330.4426879882813 513.470703125 330.4428405761719 C 509.2105407714844 330.4429931640625 505.98095703125 329.2831420898438 503.8721618652344 326.9961242675781 C 502.5187377929688 325.5307922363281 501.1708068847656 324.8184814453125 499.7513732910156 324.8184814453125 C 498.5278625488281 324.8184814453125 497.1916809082031 325.3705444335938 495.7644958496094 326.4632568359375 C 497.8043212890625 327.0096130371094 500.5505065917969 327.9031982421875 503.1964721679688 329.2640380859375 C 506.7331237792969 331.0829467773438 509.103271484375 333.2207641601563 510.2410278320313 335.6181640625 C 511.3640441894531 337.9844055175781 511.2566528320313 340.51806640625 509.922607421875 343.1471862792969 C 509.1513977050781 344.6737060546875 508.1618347167969 346.4359436035156 507.1142272949219 348.3016967773438 C 506.9375610351563 348.6162414550781 506.7587585449219 348.9346923828125 506.5766906738281 349.2596435546875 L 506.5702514648438 349.27099609375 C 504.6786499023438 352.6196594238281 501.8200073242188 357.68017578125 499.922607421875 362.2610168457031 C 498.8997497558594 364.7303466796875 498.2832336425781 366.7638854980469 498.0901489257813 368.3051452636719 C 497.9002075195313 369.8210754394531 498.1102294921875 370.7981872558594 498.7159423828125 371.2104187011719 C 500.6842346191406 372.5556640625 503.7618713378906 374.2734069824219 507.0202026367188 376.092041015625 L 507.0427551269531 376.1046447753906 C 512.6546630859375 379.2412719726563 518.4476928710938 382.4791259765625 521.9452514648438 385.5268859863281 M 521.8089599609375 386.7498168945313 C 518.4801025390625 383.6429138183594 512.4418334960938 380.2679138183594 506.5548706054688 376.9775390625 C 503.27099609375 375.1446533203125 500.161865234375 373.4098815917969 498.1516723632813 372.0360107421875 C 494.1119384765625 369.2866821289063 501.9407958984375 355.4331970214844 505.7059936523438 348.7677917480469 C 506.96044921875 346.5287780761719 508.1407470703125 344.4564819335938 509.030029296875 342.6962585449219 C 513.5228881835938 333.841796875 501.4991455078125 328.69140625 493.652587890625 326.9779052734375 C 495.5964050292969 325.0892639160156 497.6498718261719 323.8184509277344 499.7513732910156 323.8184509277344 C 501.351318359375 323.8184509277344 502.979248046875 324.5555114746094 504.6067504882813 326.317626953125 C 506.6673889160156 328.5524291992188 509.7509765625 329.4429931640625 513.4706420898438 329.4428405761719 C 518.30322265625 329.4426574707031 524.2089233398438 327.9391174316406 530.3340454101563 325.9268188476563 C 541.1741943359375 322.3652648925781 537.7838745117188 320.391357421875 545.9078369140625 314.4667358398438 C 554.0321655273438 308.5422058105469 585.8582763671875 285.6313781738281 595.3270263671875 276.5423278808594 C 598.1573486328125 273.8290405273438 602.2589721679688 269.487548828125 606.6113891601563 264.7490234375 L 606.944091796875 264.8185119628906 C 607.354736328125 264.9291687011719 616.992431640625 267.5834655761719 616.992431640625 273.85791015625 C 616.992431640625 283.1091918945313 622.6109619140625 287.6294555664063 622.9185180664063 287.8475036621094 C 622.942138671875 287.8701477050781 626.178466796875 289.8442687988281 625.8827514648438 291.7863464355469 C 625.7374267578125 292.7663879394531 624.5686645507813 293.7085266113281 622.4077758789063 294.5933532714844 C 609.68115234375 299.78466796875 616.0440063476563 305.7926330566406 620.3214111328125 309.8328247070313 C 621.3526000976563 310.7705993652344 622.328369140625 311.7561645507813 623.2447509765625 312.7853088378906 C 624.4089965820313 314.5219116210938 625.0289306640625 316.5071716308594 625.0409545898438 318.5325927734375 C 625.4633178710938 322.2229309082031 626.178466796875 328.4034729003906 637.7078857421875 328.4034729003906 C 645.267578125 328.4034729003906 653.437255859375 326.8825378417969 661.3588256835938 325.4146118164063 C 666.4736938476563 324.4679870605469 671.7555541992188 323.4831237792969 676.6366577148438 322.9681396484375 C 678.6373291015625 322.7545776367188 679.2476196289063 322.8273010253906 679.2293701171875 322.7909545898438 C 679.4742431640625 323.0521545410156 679.6871337890625 323.3366394042969 679.8630981445313 323.6392822265625 C 668.0716552734375 332.7300415039063 657.9489135742188 340.9206848144531 654.3507080078125 343.9867553710938 C 641.3397216796875 355.0348205566406 631.5082397460938 360.604248046875 625.1839599609375 360.604248046875 C 624.8051147460938 360.604248046875 624.4388427734375 360.5842590332031 624.085205078125 360.5442504882813 C 621.5576782226563 360.2472534179688 619.2276000976563 359.7839965820313 617.1363525390625 359.3672485351563 C 614.2699584960938 358.796875 611.247314453125 358.19580078125 608.1019287109375 358.19580078125 C 603.5199584960938 358.19580078125 598.678955078125 359.4725952148438 593.6934204101563 363.9800109863281 C 585.8765869140625 371.0453491210938 581.5247802734375 372.5707092285156 564.689208984375 376.6004333496094 C 560.773193359375 377.5456237792969 556.2640991210938 378.1908874511719 551.4518432617188 378.8724670410156 C 541.4441528320313 380.3041687011719 530.2459716796875 381.9023742675781 521.8089599609375 386.7498168945313 Z" stroke="none" fill="#30abec"/>
      </g>
      <text id="changshouqu-3" data-name="changshouqu" transform="translate(144 136)" fill="#fff" font-size="10" font-family="MicrosoftYaHei, Microsoft YaHei"><tspan x="0" y="0">长寿区</tspan></text>
      <g transform="matrix(1, 0, 0, 1, 4.46, 6.4)" filter="url(#changshouqu1)">
        <path id="changshouqu1-2" data-name="changshouqu1" d="M-1623.844-565v0h0c-3.328-3.1-9.387-6.491-15.247-9.767l-.006,0-.076-.043c-3.256-1.818-6.331-3.535-8.327-4.9-3.651-2.484-1.495-15.989-1.025-18.671a2.558,2.558,0,0,0,1.025,1.672c2.01,1.373,5.112,3.1,8.4,4.937l.007,0,.007,0c5.86,3.275,11.92,6.662,15.247,9.768,8.431-4.844,19.688-6.453,29.62-7.874l.023,0c4.552-.645,9.259-1.312,13.237-2.273,16.846-4.032,21.2-5.562,29-12.621a20.487,20.487,0,0,1,14.408-5.784,45.933,45.933,0,0,1,9.035,1.171c2.069.412,4.411.879,6.949,1.177a9.8,9.8,0,0,0,1.1.06c3.154,0,7.217-1.4,12.075-4.165a117.369,117.369,0,0,0,17.091-12.452c3.191-2.719,12.861-10.588,25.224-20.125,0,.166.116,16.48.289,16.777-12.489,9.629-22.277,17.591-25.512,20.348-12.985,11.026-22.8,16.617-29.167,16.617a9.811,9.811,0,0,1-1.1-.06c-2.54-.3-4.882-.765-6.948-1.177a45.944,45.944,0,0,0-9.036-1.172,20.488,20.488,0,0,0-14.408,5.784c-7.808,7.058-12.159,8.589-29,12.621-3.986.962-8.689,1.628-13.236,2.271l-.032,0C-1604.161-571.452-1615.415-569.842-1623.844-565Zm-16.17-54.863h0a20.921,20.921,0,0,0-2.611-1.582,63.162,63.162,0,0,0-9.374-3.326v-17c6.14,1.344,13.484,4.435,15.686,9.073a7.243,7.243,0,0,1-.307,6.649c-.764,1.511-1.748,3.263-2.79,5.118l-.048.085-.487.869-.045.081-.021.037Zm116.576-37.214h0c-.6-.628-1.241-1.247-1.893-1.839-2.66-2.512-5.97-5.639-5.356-8.923a5.787,5.787,0,0,1,2-3.19,19.092,19.092,0,0,1,5.445-3.127c2.16-.884,3.329-1.829,3.475-2.807,0-.015,0-.03.006-.044.082,4.585.24,15.424-.006,17.044-.145.978-1.314,1.923-3.475,2.807l-.193.079Z" transform="translate(1722 763)" stroke="rgba(0,0,0,0)" stroke-miterlimit="10" stroke-width="1" fill="url(#linear-gradient)"/>
      </g>
    </g>
  </g>
</svg>
