  <svg
           
            name="城口县"
            xmlns="http://www.w3.org/2000/svg"
            xmlns:xlink="http://www.w3.org/1999/xlink"
            width="266.774"
            height="145.013"
            viewBox="0 0 266.774 145.013"
        >
            <defs>
                <linearGradient
                    id="linear-gradient"
                    x1="0.458"
                    y1="1.039"
                    x2="0.5"
                    y2="0.634"
                    gradientUnits="objectBoundingBox"
                >
                    <stop offset="0" stop-color="#191e64" />
                    <stop offset="1" stop-color="#17448b" />
                </linearGradient>
                <filter
                    id="thick_1"
                    x="0"
                    y="0"
                    width="266.774"
                    height="145.013"
                    filterUnits="userSpaceOnUse"
                >
                    <feOffset dy="8" input="SourceAlpha" />
                    <feGaussianBlur stdDeviation="9" result="blur" />
                    <feFlood flood-color="#0f093c" flood-opacity="0.161" />
                    <feComposite operator="in" in2="blur" />
                    <feComposite in="SourceGraphic" />
                </filter>
                <radialGradient
                    id="radial-gradient"
                    cx="0.5"
                    cy="0.5"
                    r="0.5"
                    gradientUnits="objectBoundingBox"
                >
                    <stop offset="0" stop-color="#1fb9e6" />
                    <stop offset="1" stop-color="#0669d2" />
                </radialGradient>
            </defs>
            <g id="chengkou" transform="translate(-30.5 -58.719)">
                <g
                    transform="matrix(1, 0, 0, 1, 30.5, 58.72)"
                    filter="url(#thick_1)"
                >
                    <path
                        id="thick_1-2"
                        data-name="thick_1"
                        d="M-1168.069,108.232c-3.262,0-5.665-.429-6.592-1.176-4.588-3.711-25.053-10.462-29.109-11.777l-.086-.028a2.425,2.425,0,0,1-.58-3.324c1.476-2.1,1.957-3.583,1.469-4.522-.474-.911-1.851-1.335-4.334-1.335l-.892,0h-.03l-1.046,0c-3.842,0-7.49-.159-8.156-1.309a.961.961,0,0,1,.081-1c.522-.912.65-1.519.416-1.966-.432-.823-2.1-1.1-5.437-1.379a33.779,33.779,0,0,1-9.053-2.644,35.838,35.838,0,0,1-7.441-4.054c-2.513-2.014-5.954-4.772-9.68-5.857a10.749,10.749,0,0,1-4.575-2.643A5.821,5.821,0,0,1-1255,61.165a11.367,11.367,0,0,1,.086-1.5V46.053c.489,2.509,3.049,4.846,6.373,5.817,3.726,1.085,7.167,3.843,9.68,5.857a35.834,35.834,0,0,0,7.441,4.054,33.761,33.761,0,0,0,9.053,2.644c3.339.279,5,.557,5.437,1.379.235.447.107,1.054-.415,1.966a.961.961,0,0,0-.081,1c.667,1.15,4.314,1.309,8.157,1.309l1.008,0h.038l.922,0c2.483,0,3.86.424,4.334,1.335.488.939.008,2.418-1.468,4.522a2.419,2.419,0,0,0,.58,3.323l.111.036c4.055,1.317,24.516,8.075,29.084,11.77.928.747,3.331,1.175,6.593,1.175.187,0,.353,0,.508,0,7.026-.08,15.355-1.973,16.994-3.408,2.508-2.2,5.63-4.935,10.714-5.463.547-.044,1.1-.067,1.651-.067a20.1,20.1,0,0,1,8.463,1.86c6.077,2.591,8.99,3.341,12.988,3.341,1.64,0,3.471-.129,5.521-.285a17.5,17.5,0,0,0,7.71-2.488,21.56,21.56,0,0,1,8.932-2.9c3.359-.294,8.461-.645,13.692-.645a72.336,72.336,0,0,1,10.716.675,30.293,30.293,0,0,0,4.486.3A51.731,51.731,0,0,0-1043.506,78h.28V94.3l-1,.041a52.007,52.007,0,0,1-21.465,4.8,30.287,30.287,0,0,1-4.486-.3,72.331,72.331,0,0,0-10.716-.675c-5.23,0-10.333.351-13.692.645a21.574,21.574,0,0,0-8.932,2.9,17.487,17.487,0,0,1-7.71,2.488c-2.051.156-3.882.285-5.523.285-4,0-6.91-.749-12.986-3.341a20.117,20.117,0,0,0-8.464-1.86c-.548,0-1.1.022-1.65.067-5.083.528-8.206,3.265-10.714,5.464-1.64,1.436-9.969,3.328-16.994,3.408C-1167.714,108.231-1167.88,108.232-1168.069,108.232ZM-1238.952,42.3a10.426,10.426,0,0,1-1.873-.23V34h.056c-.167,1.707.637,3.889,2.264,6.148.608.844.818,1.421.642,1.765C-1238,42.171-1238.353,42.3-1238.952,42.3Zm10.867-12.022h0a14.245,14.245,0,0,1-2.53-.177,16.954,16.954,0,0,0-3.208-.4c-.245,0-.478.01-.714.031V17.81c.252,1.361,2.39,2.533,7.151,3.919a6.411,6.411,0,0,1,3.854,2.375,12.94,12.94,0,0,0,3.318,2.857c.734.464,1.047.9.93,1.31C-1219.682,29.639-1224.771,30.276-1228.086,30.276Z"
                        transform="translate(1282.5 1.28)"
                        stroke="rgba(0,0,0,0)"
                        stroke-width="1"
                        fill="url(#linear-gradient)"
                    />
                </g>
                <g
                    id="thick_chengkpou"
                    transform="translate(-692.225 72.997)"
                    opacity="0.67"
                    fill="url(#radial-gradient)"
                >
                    <path
                        d="M 837.1593627929688 78.73757171630859 C 834.0548706054688 78.73757171630859 831.706787109375 78.33941650390625 830.8782348632813 77.67249298095703 C 826.2330932617188 73.91470336914063 805.6934814453125 67.13372802734375 801.6231689453125 65.81257629394531 L 801.615234375 65.80998992919922 C 801.4948120117188 65.70442199707031 801.2074584960938 65.42813110351563 801.0134887695313 65.04349517822266 C 800.705322265625 64.43236541748047 800.765869140625 63.83596801757813 801.1986694335938 63.22023010253906 C 802.8148193359375 60.91762542724609 803.2924194335938 59.31623077392578 802.701904296875 58.18023300170898 C 802.1249389648438 57.07041549682617 800.6513671875 56.57549285888672 797.9238891601563 56.57549285888672 C 797.62841796875 56.57549285888672 797.3196411132813 56.57646942138672 797.0010375976563 56.57746887207031 C 796.6622924804688 56.57854843139648 796.3124389648438 56.57965087890625 795.9556884765625 56.57965087890625 C 794.3104858398438 56.57962799072266 792.4249877929688 56.55604553222656 790.9139404296875 56.38123321533203 C 788.802001953125 56.13689041137695 788.3345947265625 55.69757461547852 788.231689453125 55.52001953125 C 788.2037353515625 55.47180938720703 788.1295166015625 55.34373092651367 788.314208984375 55.02130889892578 C 788.7296142578125 54.29596710205078 789.1532592773438 53.36231231689453 788.7390747070313 52.57389068603516 C 788.191650390625 51.53183746337891 786.5698852539063 51.23562622070313 782.901611328125 50.92933654785156 C 780.7088623046875 50.74631118774414 777.4652709960938 49.79662704467773 774.0023803710938 48.32378387451172 C 770.9551391601563 47.02773284912109 768.0800170898438 45.46380996704102 766.6776733398438 44.33949279785156 C 763.5003051757813 41.79220581054688 760.3558959960938 39.42057418823242 756.8247680664063 38.39233779907227 C 753.2907104492188 37.3603630065918 750.7254028320313 34.74386215209961 750.7254028320313 32.17099380493164 C 750.7254028320313 31.1623363494873 750.8001098632813 29.88570594787598 751.3823852539063 28.95896911621094 C 751.968505859375 28.02623176574707 753.010009765625 27.57281112670898 754.56640625 27.57281112670898 C 755.2571411132813 27.57281112670898 756.0552978515625 27.66496849060059 756.938720703125 27.84673118591309 C 758.2631225585938 28.11923217773438 759.5887451171875 28.44767951965332 760.8707885742188 28.76528358459473 C 763.1130981445313 29.32083702087402 765.0496215820313 29.80062675476074 766.2731323242188 29.80060005187988 C 766.5689697265625 29.80060005187988 767.4691162109375 29.80060005187988 767.8070678710938 29.14049530029297 C 768.0845336914063 28.59860038757324 767.8744506835938 27.8938102722168 767.1260375976563 26.85517883300781 C 765.3771362304688 24.42846870422363 764.6224365234375 22.10378456115723 765.0552978515625 20.47720527648926 C 765.3029174804688 19.54683685302734 765.9326782226563 18.84623146057129 766.9270629882813 18.39488983154297 C 768.841552734375 17.52591514587402 770.05419921875 17.20283699035645 771.4013671875 17.20283699035645 C 772.3267211914063 17.20283699035645 773.3148193359375 17.35838890075684 774.5137939453125 17.59196853637695 C 775.1392822265625 17.71386337280273 776.0470581054688 17.77825736999512 777.1389770507813 17.77820587158203 C 779.0311889648438 17.77815246582031 781.1426391601563 17.58720588684082 782.787109375 17.2674674987793 C 784.994140625 16.83833694458008 786.1822509765625 16.23138999938965 786.4193115234375 15.41194152832031 C 786.60595703125 14.76699447631836 786.2212524414063 14.13731002807617 785.2760620117188 13.54036331176758 C 783.45166015625 12.38815212249756 782.7182006835938 11.53415298461914 782.0711059570313 10.78067874908447 C 781.2156372070313 9.78467845916748 780.5399780273438 8.997968673706055 777.9776000976563 8.251757621765137 C 775.0520629882813 7.399810314178467 771.16259765625 6.089020729064941 771.16259765625 4.548310279846191 C 771.16259765625 3.583678722381592 771.4486694335938 2.930915594100952 772.090087890625 2.431705236434937 C 773.071044921875 1.668284058570862 774.8833618164063 1.281205177307129 777.4766845703125 1.281205177307129 C 779.1497192382813 1.281205177307129 781.6062622070313 1.14170515537262 784.4507446289063 0.9801788330078125 C 788.39208984375 0.7563893795013428 792.8592529296875 0.5027051568031311 797.047607421875 0.5027051568031311 C 801.6934814453125 0.5027051568031311 804.979736328125 0.8186262249946594 807.0941772460938 1.468547224998474 C 807.47998046875 1.58709990978241 807.849609375 1.700310468673706 808.2048950195313 1.809073567390442 C 814.1548461914063 3.630968332290649 815.9505615234375 4.18083667755127 821.2991943359375 7.887836933135986 C 825.8922729492188 11.07104682922363 827.3577880859375 11.81523132324219 831.2146606445313 11.81517887115479 C 832.080810546875 11.81515216827393 833.0875244140625 11.780442237854 834.1533203125 11.7437047958374 C 835.5897827148438 11.69417858123779 836.7901611328125 11.58875751495361 837.8492431640625 11.49575805664063 C 838.8028564453125 11.41202068328857 839.6264038085938 11.33967876434326 840.318115234375 11.33967876434326 C 841.86376953125 11.33967876434326 842.8162841796875 11.65265274047852 843.732666015625 13.36331081390381 C 845.6514282226563 16.94491577148438 847.984130859375 17.37796783447266 853.0774536132813 18.01612663269043 C 857.80859375 18.60888862609863 861.0513916015625 19.56394195556641 864.6328735351563 22.90749549865723 C 868.4449462890625 26.46636390686035 871.4852294921875 28.27338981628418 877.5233154296875 28.27338981628418 C 878.1888427734375 28.27338981628418 878.8523559570313 28.26854705810547 879.5548095703125 28.26344108581543 C 880.260498046875 28.2582836151123 880.990234375 28.25296783447266 881.7250366210938 28.25296783447266 C 886.5606079101563 28.25296783447266 892.2158203125 28.44604682922363 898.1429443359375 30.75160026550293 C 900.7013549804688 31.74678421020508 904.5004272460938 33.33912658691406 908.5225219726563 35.02494049072266 C 916.401611328125 38.32736206054688 925.3319702148438 42.07041549682617 928.6810302734375 42.90707397460938 C 930.7670288085938 43.42820358276367 932.0048217773438 43.81673049926758 932.5716552734375 44.37654876708984 C 933.0458984375 44.84494018554688 933.1244506835938 45.50520324707031 933.2568969726563 46.9539680480957 C 933.278564453125 47.19094085693359 933.3009643554688 47.43596649169922 933.3278198242188 47.70344161987305 C 933.6449584960938 50.86054611206055 936.291748046875 51.12494277954102 938.7476196289063 51.12491607666016 C 939.2063598632813 51.12491607666016 939.6726684570313 51.11483764648438 940.1663208007813 51.10415267944336 C 940.670166015625 51.09325790405273 941.1912231445313 51.08199310302734 941.7139892578125 51.08199310302734 C 943.093505859375 51.08199310302734 944.616455078125 51.35128402709961 945.892333984375 51.8208122253418 C 947.2171630859375 52.30836486816406 948.1633911132813 52.96315383911133 948.556640625 53.66454696655273 C 948.8555908203125 54.19762802124023 948.8236694335938 54.74673080444336 948.458984375 55.34320449829102 C 947.5678100585938 56.80146789550781 947.4649047851563 58.50809860229492 948.1766357421875 60.02552032470703 C 949.3340454101563 62.49294281005859 952.4896850585938 64.21968078613281 957.0623168945313 64.88762664794922 C 957.9500732421875 65.01737976074219 958.929931640625 65.12993621826172 960.0682373046875 65.23202514648438 C 956.9463500976563 66.64759826660156 953.5543823242188 67.74895477294922 949.9594116210938 68.51280975341797 C 945.5169677734375 69.45675659179688 941.8378295898438 69.65491485595703 939.53369140625 69.65491485595703 C 937.8928833007813 69.65491485595703 936.3677978515625 69.55339050292969 935.1233520507813 69.36133575439453 C 932.185791015625 68.9095458984375 928.5552368164063 68.68049621582031 924.3323974609375 68.68049621582031 C 919.085693359375 68.68049621582031 913.9661254882813 69.03202056884766 910.59521484375 69.32688903808594 C 907.3367309570313 69.64138793945313 904.176025390625 70.66717529296875 901.4503784179688 72.29373168945313 L 901.4476928710938 72.29536437988281 L 901.4449462890625 72.29701995849609 C 899.2266845703125 73.65930938720703 896.6368408203125 74.49444580078125 893.9555053710938 74.71212768554688 C 891.9174194335938 74.86728668212891 890.09619140625 74.99586486816406 888.4736938476563 74.99586486816406 C 884.5577392578125 74.99586486816406 881.6898803710938 74.25617980957031 875.6917114257813 71.69837951660156 C 873.0255737304688 70.45366668701172 870.028564453125 69.79576110839844 867.0241088867188 69.79576110839844 C 866.4619750976563 69.79576110839844 865.8930053710938 69.81880950927734 865.3330078125 69.86423492431641 L 865.3274536132813 69.86467742919922 L 865.3218994140625 69.86528778076172 C 860.080810546875 70.40923309326172 856.8919677734375 73.2041015625 854.3297729492188 75.44978332519531 C 853.7549438476563 75.953125 851.8104248046875 76.76936340332031 848.0774536132813 77.55033874511719 C 844.6556396484375 78.26620483398438 840.858642578125 78.69770812988281 837.6598510742188 78.73423004150391 C 837.4913940429688 78.73646545410156 837.3233032226563 78.73757171630859 837.1593627929688 78.73757171630859 Z"
                        stroke="none"
                    />
                    <path
                        d="M 797.0474853515625 1.002708435058594 C 792.8733520507813 1.002708435058594 788.4136962890625 1.255935668945313 784.47900390625 1.479377746582031 C 781.6270141601563 1.641319274902344 779.1638793945313 1.781181335449219 777.4766845703125 1.781181335449219 C 774.3883666992188 1.781181335449219 773.0098266601563 2.349517822265625 772.3971557617188 2.826263427734375 C 771.8754272460938 3.232322692871094 771.66259765625 3.731239318847656 771.66259765625 4.548294067382813 C 771.66259765625 4.920318603515625 772.1903076171875 5.419486999511719 773.1104125976563 5.917823791503906 C 774.1888427734375 6.501907348632813 775.7798461914063 7.090988159179688 778.117431640625 7.771682739257813 C 780.822509765625 8.559463500976563 781.5768432617188 9.437820434570313 782.4503784179688 10.45490264892578 C 783.0745849609375 11.18168640136719 783.7820434570313 12.00546264648438 785.5430908203125 13.11759948730469 C 786.983154296875 14.027099609375 787.07568359375 14.94293212890625 786.8997192382813 15.55104446411133 C 786.5972900390625 16.59629440307617 785.3583374023438 17.27704620361328 782.882568359375 17.75840377807617 C 781.2084350585938 18.08387756347656 779.0612182617188 18.2782096862793 777.138916015625 18.2782096862793 C 776.3553466796875 18.2782096862793 775.2471923828125 18.24429321289063 774.4181518554688 18.08276748657227 C 773.2476806640625 17.85470962524414 772.2866821289063 17.70285034179688 771.4013671875 17.70285034179688 C 770.1329956054688 17.70285034179688 768.9763793945313 18.01382064819336 767.1337280273438 18.85018157958984 C 766.2703857421875 19.24204254150391 765.7485961914063 19.81632232666016 765.5385131835938 20.60585021972656 C 765.144287109375 22.08699035644531 765.8707885742188 24.25823974609375 767.53173828125 26.56285095214844 C 768.1187744140625 27.37754440307617 768.731201171875 28.43268203735352 768.2521362304688 29.36835098266602 C 767.9354248046875 29.98693466186523 767.2695922851563 30.30059814453125 766.2731323242188 30.30059814453125 C 764.9885864257813 30.30059814453125 763.024658203125 29.81401824951172 760.7506103515625 29.25062942504883 C 759.4733276367188 28.93418502807617 758.152587890625 28.60696029663086 756.8379516601563 28.33646011352539 C 755.9879150390625 28.16157150268555 755.2236328125 28.07284927368164 754.565673828125 28.07279586791992 C 752.7409057617188 28.07279586791992 752.11669921875 28.73040390014648 751.805908203125 29.22507095336914 C 751.2855834960938 30.05318450927734 751.2254028320313 31.30295944213867 751.2254028320313 32.17098999023438 C 751.2254028320313 33.61248779296875 752.092529296875 34.79062652587891 752.8200073242188 35.52515411376953 C 753.8773803710938 36.59284973144531 755.3495483398438 37.44068145751953 756.964599609375 37.91229248046875 C 760.5838012695313 38.96618270874023 763.772216796875 41.36935043334961 766.990478515625 43.94940567016602 C 769.7564086914063 46.16698837280273 778.1798706054688 50.03343200683594 782.9432373046875 50.43107223510742 C 786.349853515625 50.71551513671875 788.4697265625 50.98604583740234 789.1817016601563 52.34135055541992 C 789.7149658203125 53.35640716552734 789.1895751953125 54.49876403808594 788.748046875 55.26982116699219 C 788.73828125 55.286865234375 788.7301635742188 55.3021125793457 788.7234497070313 55.31559753417969 C 788.8934936523438 55.43643569946289 789.4547119140625 55.72128295898438 791.110107421875 55.90004348754883 C 792.575439453125 56.05829620361328 794.3818969726563 56.07962799072266 795.9556884765625 56.07962799072266 C 796.311767578125 56.07962799072266 796.6609497070313 56.07851409912109 796.9990234375 56.07746124267578 C 797.3182983398438 56.07646179199219 797.6278076171875 56.07548904418945 797.9238891601563 56.07548904418945 C 799.9013671875 56.07548904418945 802.281982421875 56.28851699829102 803.1455078125 57.94960021972656 C 803.8316040039063 59.26934814453125 803.3430786132813 61.03532409667969 801.6077270507813 63.50776672363281 C 801.287109375 63.96390533447266 801.2380981445313 64.36123657226563 801.4489135742188 64.79604339599609 C 801.5740356445313 65.05418395996094 801.758056640625 65.25656127929688 801.8734130859375 65.36811065673828 C 804.0607299804688 66.07897186279297 809.5411987304688 67.88933563232422 815.2789916992188 70.01145935058594 C 823.7433471679688 73.14207458496094 829.0978393554688 75.58909606933594 831.1917114257813 77.28298950195313 C 831.73876953125 77.72335052490234 833.6300048828125 78.23757171630859 837.1595458984375 78.23757171630859 C 837.3216552734375 78.23757171630859 837.4859619140625 78.23648834228516 837.6541137695313 78.23426818847656 C 840.8218383789063 78.19809722900391 844.5836791992188 77.77043151855469 847.9750366210938 77.06093597412109 C 851.3839111328125 76.34776306152344 853.4575805664063 75.54885101318359 854.0001831054688 75.07376861572266 C 856.61572265625 72.78134918212891 859.8709106445313 69.92835235595703 865.2702026367188 69.36793518066406 L 865.2814331054688 69.36679077148438 L 865.2926025390625 69.36587524414063 C 865.8659057617188 69.31935119628906 866.448486328125 69.29576873779297 867.0241088867188 69.29576873779297 C 870.0979614257813 69.29568481445313 873.1653442382813 69.96860504150391 875.8954467773438 71.24169921875 C 881.8156127929688 73.76580810546875 884.638671875 74.49588012695313 888.4736938476563 74.49588012695313 C 890.0778198242188 74.49588012695313 891.8876953125 74.36808776855469 893.9165649414063 74.21364593505859 C 896.5193481445313 74.00210571289063 899.0321044921875 73.19205474853516 901.1832885742188 71.87096405029297 L 901.1886596679688 71.86763000488281 L 901.1941528320313 71.8643798828125 C 903.98291015625 70.20015716552734 907.215576171875 69.15074157714844 910.542724609375 68.82962799072266 L 910.5471801757813 68.82918548583984 L 910.5516357421875 68.82879638671875 C 913.9323120117188 68.53307342529297 919.0673828125 68.1805419921875 924.3324584960938 68.18051910400391 C 928.5802612304688 68.18045806884766 932.2362670898438 68.41146087646484 935.1996459960938 68.8671875 C 936.4192504882813 69.05540466308594 937.9179077148438 69.1549072265625 939.53369140625 69.1549072265625 C 941.8139038085938 69.1549072265625 945.45556640625 68.95865631103516 949.85546875 68.02374267578125 C 952.7491455078125 67.40888214111328 955.5093994140625 66.57345581054688 958.1002197265625 65.52999877929688 C 957.7130737304688 65.48324584960938 957.3444213867188 65.43419647216797 956.989990234375 65.38240814208984 C 950.9093627929688 64.49412536621094 948.5948486328125 62.09449005126953 947.7239990234375 60.23785018920898 C 946.9396362304688 58.56562805175781 947.0520629882813 56.68659973144531 948.0324096679688 55.08240509033203 C 948.3773193359375 54.51821136474609 948.2606811523438 54.15901565551758 948.1205444335938 53.90909957885742 C 947.790283203125 53.32015609741211 946.9152221679688 52.73001861572266 945.7196044921875 52.29004669189453 C 944.4968872070313 51.84007263183594 943.0369262695313 51.58198928833008 941.7139892578125 51.58198928833008 C 941.1966552734375 51.58198928833008 940.6784057617188 51.59318542480469 940.1771850585938 51.60404205322266 C 939.6807250976563 51.61476898193359 939.2117919921875 51.62490463256836 938.7476196289063 51.62490463256836 C 937.4354248046875 51.62490463256836 936.0693969726563 51.55251693725586 934.9683227539063 51.02735137939453 C 933.7074584960938 50.42596054077148 932.9881591796875 49.324462890625 932.830322265625 47.75337982177734 C 932.80322265625 47.48371124267578 932.78076171875 47.23754501342773 932.7589721679688 46.99948883056641 C 932.6349487304688 45.64268493652344 932.5706176757813 45.07829284667969 932.2202758789063 44.73229598999023 C 931.7399291992188 44.25785064697266 930.4635620117188 43.86776733398438 928.559814453125 43.39218139648438 C 925.173828125 42.5462646484375 916.2247924804688 38.79537582397461 908.3291625976563 35.48604583740234 C 904.3101806640625 33.80151748657227 900.5140380859375 32.21043395996094 897.961669921875 31.21757125854492 C 892.1152954101563 28.94343185424805 886.5153198242188 28.75298690795898 881.7252197265625 28.75298690795898 C 880.9921875 28.75298690795898 880.2633666992188 28.75829315185547 879.5585327148438 28.76343154907227 C 878.8551025390625 28.76857376098633 878.1906127929688 28.77340698242188 877.5233154296875 28.77340698242188 C 871.318603515625 28.77340698242188 868.1993408203125 26.92107391357422 864.291748046875 23.2729606628418 C 862.6314086914063 21.72298812866211 861.0200805664063 20.66354370117188 859.2208862304688 19.93885040283203 C 857.5812377929688 19.27843475341797 855.725341796875 18.8517951965332 853.0152587890625 18.51223754882813 C 847.8814086914063 17.86901473999023 845.3235473632813 17.39154434204102 843.2919311523438 13.59938049316406 C 842.4853515625 12.09374237060547 841.72265625 11.83968353271484 840.318115234375 11.83968353271484 C 839.6483154296875 11.83968353271484 838.8349609375 11.91110229492188 837.8931274414063 11.99382019042969 C 836.827880859375 12.08737945556641 835.6204833984375 12.19340515136719 834.1705322265625 12.243408203125 C 833.0999145507813 12.28029632568359 832.088623046875 12.31515502929688 831.214599609375 12.31515502929688 C 827.2423706054688 12.31515502929688 825.6366577148438 11.50226593017578 821.0143432617188 8.298797607421875 C 815.7296142578125 4.636100769042969 813.9511108398438 4.091514587402344 808.0582885742188 2.287124633789063 C 807.7029418945313 2.178321838378906 807.3331298828125 2.065071105957031 806.947265625 1.946464538574219 C 804.881103515625 1.311408996582031 801.6428833007813 1.002708435058594 797.0474853515625 1.002708435058594 M 797.0474853515625 0.00270843505859375 C 801.0944213867188 0.00270843505859375 804.8089599609375 0.2430877685546875 807.2410888671875 0.9906005859375 C 814.0515747070313 3.083992004394531 815.8464965820313 3.500404357910156 821.583984375 7.476905822753906 C 826.2501220703125 10.71072387695313 827.595458984375 11.31517028808594 831.214599609375 11.31517028808594 C 832.0457763671875 11.31517028808594 832.9973754882813 11.28324890136719 834.1361083984375 11.24398803710938 C 836.8946533203125 11.14888763427734 838.84375 10.83966827392578 840.318115234375 10.83966827392578 C 842.102294921875 10.83966827392578 843.1908569335938 11.29296112060547 844.1734008789063 13.12718200683594 C 845.968017578125 16.47698974609375 848.1192016601563 16.89098739624023 853.1395874023438 17.51998901367188 C 858.159912109375 18.14899063110352 861.3875122070313 19.19371032714844 864.97412109375 22.54198837280273 C 868.5606079101563 25.89029312133789 871.4227294921875 27.77340698242188 877.5233154296875 27.77340698242188 C 878.8741455078125 27.77340698242188 880.277099609375 27.75299072265625 881.7252197265625 27.75299072265625 C 886.81689453125 27.75299072265625 892.4624633789063 28.00548553466797 898.32421875 30.28559875488281 C 905.8529052734375 33.21421051025391 923.7791748046875 41.16709899902344 928.8021850585938 42.42198944091797 C 933.8253173828125 43.67690658569336 933.4682006835938 44.09579467773438 933.8253173828125 47.65348815917969 C 934.08935546875 50.28166198730469 936.1165771484375 50.62491607666016 938.7476196289063 50.62491607666016 C 939.677978515625 50.62491607666016 940.6839599609375 50.58198928833008 941.7139892578125 50.58198928833008 C 945.6572265625 50.58198928833008 950.6779174804688 52.67210006713867 948.8856201171875 55.60398864746094 C 947.0938720703125 58.53579711914063 948.5283813476563 63.13571166992188 957.1345825195313 64.39290618896484 C 958.644775390625 64.61360168457031 960.2833251953125 64.76210021972656 961.9581298828125 64.88079833984375 C 954.1323852539063 68.83824157714844 945.5392456054688 70.15489959716797 939.53369140625 70.15489959716797 C 937.7940063476563 70.15489959716797 936.2708129882813 70.04434204101563 935.047119140625 69.85549163818359 C 931.8062133789063 69.35706329345703 928.0414428710938 69.18046569824219 924.3324584960938 69.18050384521484 C 919.1155395507813 69.18055725097656 914.0101928710938 69.53007507324219 910.6387939453125 69.82498931884766 C 907.444580078125 70.13329315185547 904.3804931640625 71.12740325927734 901.7066040039063 72.72309875488281 C 899.4163208007813 74.12960052490234 896.76123046875 74.98599243164063 893.9959716796875 75.21048736572266 C 891.8104248046875 75.37686920166016 890.0601196289063 75.49587249755859 888.4736938476563 75.49587249755859 C 884.5146484375 75.49587249755859 881.5814819335938 74.75390625 875.48779296875 72.15499114990234 C 872.867431640625 70.93020629882813 869.96337890625 70.29566955566406 867.0241088867188 70.29575347900391 C 866.4747924804688 70.2957763671875 865.923583984375 70.31795501708984 865.3734741210938 70.36260223388672 C 860.294921875 70.88970947265625 857.1668090820313 73.62809753417969 854.6593017578125 75.82579040527344 C 853.0153198242188 77.26529693603516 844.6892700195313 79.15399169921875 837.66552734375 79.23420715332031 C 837.49462890625 79.23646545410156 837.3259887695313 79.23758697509766 837.1596069335938 79.23758697509766 C 833.887451171875 79.23758697509766 831.4876708984375 78.80489349365234 830.564697265625 78.06198883056641 C 825.6453857421875 74.08240509033203 802.35498046875 66.57698822021484 801.369873046875 66.25598907470703 C 801.369873046875 66.25598907470703 799.4660034179688 64.8157958984375 800.7896118164063 62.93270874023438 C 804.0181884765625 58.33279418945313 802.2269897460938 57.07548904418945 797.9238891601563 57.07548904418945 C 797.3143310546875 57.07548904418945 796.64794921875 57.07963943481445 795.9556274414063 57.07963943481445 C 791.760986328125 57.07963943481445 786.6464233398438 56.92695617675781 787.8803100585938 54.77279663085938 C 789.3176879882813 52.26290512084961 787.876708984375 51.84648895263672 782.8599853515625 51.42759704589844 C 777.843017578125 51.00879669189453 769.2332153320313 47.02921295166016 766.3649291992188 44.72959899902344 C 763.4965209960938 42.42998886108398 760.2667846679688 39.9154052734375 756.6849975585938 38.87240600585938 C 753.0963745117188 37.82448959350586 750.2254028320313 35.10459899902344 750.2254028320313 32.17098999023438 C 750.2254028320313 29.69379425048828 750.7347412109375 27.07246398925781 754.56640625 27.07279586791992 C 755.2720336914063 27.07286071777344 756.0910034179688 27.16183090209961 757.0394897460938 27.35698699951172 C 760.6762084960938 28.10524749755859 764.43701171875 29.30060195922852 766.2731323242188 29.30060195922852 C 767.5161743164063 29.30060195922852 767.8771362304688 28.75274658203125 766.7203979492188 27.14748764038086 C 763.8546752929688 23.17110061645508 763.494384765625 19.40390396118164 766.7203979492188 17.93959808349609 C 768.6717529296875 17.05387878417969 769.96728515625 16.70283889770508 771.4013671875 16.70283889770508 C 772.3379516601563 16.70283889770508 773.3338012695313 16.85270690917969 774.609375 17.10121154785156 C 775.215087890625 17.2192268371582 776.1112060546875 17.27821350097656 777.138916015625 17.27821350097656 C 781.5889282226563 17.27821350097656 788.5070190429688 16.17227172851563 785.0090942382813 13.96309661865234 C 780.7034912109375 11.24398803710938 782.14697265625 9.986709594726563 777.8378295898438 8.731796264648438 C 773.5283813476563 7.476905822753906 770.66259765625 6.222099304199219 770.66259765625 4.548294067382813 C 770.66259765625 2.874603271484375 771.3790283203125 0.7811813354492188 777.4766845703125 0.7811813354492188 C 781.3968505859375 0.7811813354492188 789.76220703125 0.00270843505859375 797.0474853515625 0.00270843505859375 Z"
                        stroke="none"
                        fill="#30abec"
                    />
                </g>
                <text
                    id="chengkouxian"
                    transform="translate(158.354 123.743)"
                    fill="#fff"
                    font-size="10"
                    font-family="MicrosoftYaHei, Microsoft YaHei"
                >
                    <tspan x="-15" y="0">城口县</tspan>
                </text>
            </g>
        </svg>