<svg xmlns="http://www.w3.org/2000/svg" xmlns:xlink="http://www.w3.org/1999/xlink" width="291.804" height="219.022" viewBox="0 0 291.804 219.022">
  <defs>
    <linearGradient id="linear-gradient" x1="0.687" y1="0.85" x2="0.614" y2="0.207" gradientUnits="objectBoundingBox">
      <stop offset="0" stop-color="#191e64"/>
      <stop offset="1" stop-color="#17448b"/>
    </linearGradient>
    <filter id="dadukou3" x="0" y="0" width="291.804" height="219.022" filterUnits="userSpaceOnUse">
      <feOffset dy="8" input="SourceAlpha"/>
      <feGaussianBlur stdDeviation="9" result="blur"/>
      <feFlood flood-color="#0f093c" flood-opacity="0.161"/>
      <feComposite operator="in" in2="blur"/>
      <feComposite in="SourceGraphic"/>
    </filter>
    <radialGradient id="radial-gradient" cx="0.5" cy="0.5" r="0.5" gradientUnits="objectBoundingBox">
      <stop offset="0" stop-color="#1fb9e6"/>
      <stop offset="1" stop-color="#0669d2"/>
    </radialGradient>
  </defs>
  <g id="dadukou" transform="translate(-1968.727 -1899.906)">
    <g transform="matrix(1, 0, 0, 1, 1968.73, 1899.91)" filter="url(#dadukou3)">
      <path id="dadukou3-2" data-name="dadukou3" d="M126.1,166.928v0a45.322,45.322,0,0,0-1.728-13.764c-4.215-5.077-9.565-6.348-17.665-8.272-.89-.211-1.811-.43-2.764-.662a93.293,93.293,0,0,0-11.007-.662c-17.075,0-37.187,4.857-71.731,17.323l-3.561,1.791a378.1,378.1,0,0,1-13.64-49.21C-.46,91.764-.392,80.462.452,74.8A211,211,0,0,0,4.005,97.47a378.1,378.1,0,0,0,13.64,49.21l3.561-1.791C39.19,138.4,52.939,134.1,64.475,131.364c10.913-2.59,19.956-3.8,28.46-3.8a93.269,93.269,0,0,1,11.009.663c.958.233,1.873.45,2.758.661a69.933,69.933,0,0,1,10.245,2.942,18.351,18.351,0,0,1,7.426,5.33,45.321,45.321,0,0,1,1.728,13.766c12.875-6.077,36.762-16.992,52.063-21.825,34.7-11,46.089-17.3,58.142-23.969l1.3-.721a1.18,1.18,0,0,1,.2.085c-.015,0-.03.06-.045.17-.11.807-.205,4.481-.217,8.364-.005,1.668,0,7.122.262,7.269l-1.5.833c-12.051,6.67-23.434,12.971-58.143,23.97-15.327,4.841-39.2,15.752-52.062,21.824ZM154.883,31.6v0a28.459,28.459,0,0,1-1.137-11.244A20.478,20.478,0,0,1,157.36,10.9a25.619,25.619,0,0,1,12.512-8.994c.165,0,.32.014.462.03h0a.014.014,0,0,1,.012,0c.155.158.078,4.293,0,8.292-.069,3.729-.134,7.248-.017,7.525A25.581,25.581,0,0,0,157.36,26.9a20.653,20.653,0,0,0-2.477,4.693Z" transform="translate(27 17.09)" fill="url(#linear-gradient)"/>
    </g>
    <g id="dadukou2" transform="translate(1872.197 1599.485)" opacity="0.67" fill="url(#radial-gradient)">
      <path d="M 250.14453125 467.6474609375 C 250.1928863525391 463.2138671875 249.6005401611328 458.8089294433594 248.381103515625 454.5409545898438 L 248.3522338867188 454.4398193359375 L 248.2850341796875 454.35888671875 C 243.9626312255859 449.1528015136719 238.2516021728516 447.7964477539063 230.3472595214844 445.919189453125 C 229.4588775634766 445.7082214355469 228.540283203125 445.4900512695313 227.5893249511719 445.2585754394531 L 227.5597534179688 445.2513732910156 L 227.5295104980469 445.247802734375 C 223.7232208251953 444.7997436523438 220.1031646728516 444.5819702148438 216.4624786376953 444.5819702148438 C 199.3253479003906 444.5819702148438 179.1668243408203 449.447021484375 144.5636901855469 461.93408203125 L 144.5355072021484 461.9442443847656 L 144.5087585449219 461.9577331542969 L 141.4558410644531 463.4931945800781 C 135.9146423339844 447.6622924804688 131.3955841064453 431.3116455078125 128.021728515625 414.8851318359375 C 126.242073059082 406.2337951660156 125.0415420532227 398.5394287109375 124.4534759521484 392.015625 C 123.9816360473633 386.78125 123.900634765625 382.2829895019531 124.2126922607422 378.6458740234375 C 124.6604995727539 373.4269714355469 125.799919128418 371.495849609375 126.1611404418945 371.0036010742188 L 126.199104309082 371.0036010742188 L 126.2076034545898 371.0036010742188 L 126.2161331176758 371.0033264160156 C 126.7015991210938 370.9867553710938 127.2018814086914 370.9783935546875 127.7030410766602 370.9783935546875 C 137.7012329101563 370.9783935546875 149.1039428710938 374.2420959472656 160.1311950683594 377.3983459472656 L 160.4657592773438 377.4943237304688 C 171.1459808349609 380.5578918457031 181.2339172363281 383.4515380859375 190.3848876953125 383.4510803222656 C 195.6010437011719 383.4508056640625 200.0522003173828 382.5095520019531 203.9926605224609 380.5735168457031 C 216.2504425048828 374.5509948730469 216.8231658935547 360.4478759765625 217.3284759521484 348.0049438476563 L 217.3290405273438 347.9912109375 C 217.5755004882813 341.943359375 217.8901062011719 336.1665954589844 219.0174407958984 331.9638061523438 C 219.5748443603516 329.8856201171875 220.3067321777344 328.2412109375 221.2547912597656 326.9365844726563 C 222.2504425048828 325.5664978027344 223.4928131103516 324.5579528808594 225.0529479980469 323.8531799316406 C 228.8974456787109 322.1204833984375 234.9861297607422 320.6521606445313 242.6604461669922 319.607177734375 C 250.3079376220703 318.5658874511719 259.0094299316406 318.0154724121094 267.82421875 318.0154724121094 C 269.8941040039063 318.0154724121094 271.9788513183594 318.0465698242188 274.0205993652344 318.1079406738281 C 279.930419921875 318.2479553222656 285.8858642578125 318.7114562988281 291.7557983398438 319.4872131347656 C 287.2746276855469 321.2678527832031 283.4080810546875 324.2219543457031 280.4870910644531 328.1163024902344 L 280.4824829101563 328.1224670410156 L 280.47802734375 328.1287841796875 C 273.8997192382813 337.487060546875 275.7184143066406 350.0916748046875 285.8835144042969 365.5924377441406 C 303.3245849609375 392.1414794921875 332.7939758300781 407.4591979980469 352.2944946289063 417.5952453613281 C 354.848876953125 418.9095153808594 357.7543334960938 420.4172973632813 360.3027954101563 421.8173217773438 L 359.591796875 422.2123107910156 C 347.5619506835938 428.8702087402344 336.1986083984375 435.1592102050781 301.5402526855469 446.142333984375 C 286.4785461425781 450.8997192382813 263.1800231933594 461.50830078125 250.14453125 467.6474609375 Z" stroke="none"/>
      <path d="M 250.6463775634766 466.8587951660156 C 263.8162536621094 460.6697998046875 286.572509765625 450.345703125 301.3891906738281 445.6656799316406 C 335.9197998046875 434.7230529785156 347.290283203125 428.4490661621094 359.2662048339844 421.821044921875 C 356.92529296875 420.5504760742188 354.3541564941406 419.2172546386719 352.0639038085938 418.0388793945313 C 332.517333984375 407.8788757324219 302.9783020019531 392.5249633789063 285.4654235839844 365.8666381835938 C 275.1767272949219 350.1774291992188 273.3611145019531 337.3838500976563 280.0690002441406 327.8412475585938 L 280.077880859375 327.82861328125 L 280.0871276855469 327.8162841796875 C 282.693115234375 324.3418884277344 286.0377807617188 321.6018371582031 289.8946838378906 319.7556762695313 C 284.6260070800781 319.1184692382813 279.2994689941406 318.733154296875 274.0119323730469 318.6078796386719 L 274.0087890625 318.6078186035156 L 274.005615234375 318.6077270507813 C 271.9685668945313 318.5465087890625 269.8888549804688 318.5154724121094 267.82421875 318.5154724121094 C 259.0316162109375 318.5154724121094 250.3534393310547 319.0642700195313 242.7279205322266 320.1026306152344 C 235.1006011962891 321.1412048339844 229.0596008300781 322.5957946777344 225.2587585449219 324.3088684082031 C 222.3704071044922 325.6135864257813 220.594482421875 328.014404296875 219.5003509521484 332.0933532714844 C 218.3863220214844 336.2465515136719 218.0739135742188 341.9929809570313 217.8286285400391 348.0115051269531 L 217.8280639648438 348.0252075195313 C 217.3171081542969 360.6075134277344 216.7379455566406 374.8685607910156 204.213134765625 381.0222778320313 C 200.2024383544922 382.9928283691406 195.67919921875 383.9508056640625 190.3849487304688 383.9510803222656 C 181.1636657714844 383.9515380859375 171.0429382324219 381.0484619140625 160.3280029296875 377.9749755859375 L 159.9936065673828 377.8790588378906 C 148.9994506835938 374.7322998046875 137.6309814453125 371.4783935546875 127.7030410766602 371.4783935546875 C 127.2756881713867 371.4783935546875 126.8491668701172 371.4845275878906 126.4322357177734 371.4967041015625 C 126.0158843994141 372.1752014160156 125.056510925293 374.2173461914063 124.6821670532227 379.0399169921875 C 124.4009170532227 382.6632995605469 124.5016937255859 387.1249694824219 124.9816665649414 392.3009948730469 C 125.5781326293945 398.7333984375 126.7657241821289 406.2978515625 128.5115051269531 414.7845458984375 C 131.8426208496094 431.0028991699219 136.2920684814453 447.1486206054688 141.7400970458984 462.79052734375 L 144.2841033935547 461.5110473632813 L 144.3376312255859 461.484130859375 L 144.3939819335938 461.4637756347656 C 179.0562591552734 448.9553833007813 199.2623901367188 444.0819702148438 216.4624786376953 444.0819702148438 C 220.1229400634766 444.0819702148438 223.7621307373047 444.3008728027344 227.5879821777344 444.751220703125 L 227.6484375 444.7583618164063 L 227.7075958251953 444.7727661132813 C 228.6571960449219 445.00390625 229.5751037597656 445.221923828125 230.4627838134766 445.4327087402344 C 238.4614715576172 447.3323669433594 244.2406616210938 448.7048950195313 248.6697235107422 454.0394897460938 L 248.8041076660156 454.2013244628906 L 248.8618774414063 454.403564453125 C 250.0216979980469 458.4630126953125 250.6203765869141 462.6454162597656 250.6463775634766 466.8587951660156 M 249.6287536621094 468.4434204101563 C 249.7612609863281 463.7936096191406 249.1782531738281 459.1510009765625 247.9003448486328 454.6782836914063 C 243.2147216796875 449.0347290039063 236.9672241210938 448.0559692382813 227.4710693359375 445.744384765625 C 223.8743438720703 445.3210144042969 220.2630004882813 445.0819702148438 216.4624938964844 445.0819702148438 C 200.2605590820313 445.0819702148438 180.6795043945313 449.4327392578125 144.7334136962891 462.4044189453125 L 141.1723480224609 464.1954345703125 C 135.5177917480469 448.11962890625 130.9605407714844 431.6786499023438 127.5319442749023 414.9857177734375 C 119.576789855957 376.3137817382813 125.9284133911133 370.5036010742188 125.9284133911133 370.5036010742188 L 126.199104309082 370.5036010742188 C 126.6969985961914 370.4866333007813 127.1978073120117 370.4783935546875 127.7030258178711 370.4783935546875 C 137.7424774169922 370.4783935546875 149.1853942871094 373.7453308105469 160.2687835693359 376.9176635742188 C 170.9601135253906 379.9841003417969 181.2083435058594 382.9515380859375 190.3848724365234 382.9510803222656 C 195.1682434082031 382.9508361816406 199.6620025634766 382.1441650390625 203.7721710205078 380.124755859375 C 215.7673797607422 374.2312622070313 216.3296356201172 360.278564453125 216.8294525146484 347.970947265625 C 217.3709106445313 334.6846923828125 218.1622619628906 326.4172058105469 224.8471069335938 323.3975219726563 C 232.8034210205078 319.8115539550781 249.887451171875 317.5154724121094 267.82421875 317.5154724121094 C 269.88720703125 317.5154724121094 271.9627380371094 317.5458679199219 274.03564453125 317.608154296875 C 280.6715698242188 317.765380859375 287.2920227050781 318.32177734375 293.8611145019531 319.274169921875 C 288.6813659667969 320.8788452148438 284.1407470703125 324.0784301757813 280.8871154785156 328.4163208007813 C 274.4314270019531 337.6001586914063 276.2639770507813 350.0118408203125 286.3016357421875 365.3182678222656 C 303.6488342285156 391.724365234375 333.0537414550781 407.0307006835938 352.5251159667969 417.151611328125 C 355.3988952636719 418.6301879882813 358.6059875488281 420.296142578125 361.3340454101563 421.81640625 L 359.8345947265625 422.6494140625 C 347.756103515625 429.334228515625 336.3232727050781 435.6442260742188 301.6912841796875 446.6189575195313 C 286.5931396484375 451.3878784179688 263.3941650390625 461.9461669921875 249.6287536621094 468.4434204101563 Z" stroke="none" fill="#30abec"/>
    </g>
    <text id="dadukou1" transform="translate(2084.014 2006.33)" fill="#fff" font-size="10" font-family="MicrosoftYaHei, Microsoft YaHei"><tspan x="0" y="0">大渡口区</tspan></text>
  </g>
</svg>
