<svg xmlns="http://www.w3.org/2000/svg" xmlns:xlink="http://www.w3.org/1999/xlink" width="327" height="258" viewBox="0 0 327 258">
  <defs>
    <radialGradient id="radial-gradient" cx="0.5" cy="0.5" r="0.5" gradientUnits="objectBoundingBox">
      <stop offset="0" stop-color="#1fb9e6"/>
      <stop offset="1" stop-color="#0669d2"/>
    </radialGradient>
    <linearGradient id="linear-gradient" x1="0.5" x2="0.5" y2="1" gradientUnits="objectBoundingBox">
      <stop offset="0" stop-color="#191e64"/>
      <stop offset="1" stop-color="#17448b"/>
    </linearGradient>
    <filter id="dazu1" x="43.476" y="38.107" width="239.583" height="197.726" filterUnits="userSpaceOnUse">
      <feOffset dy="8" input="SourceAlpha"/>
      <feGaussianBlur stdDeviation="9" result="blur"/>
      <feFlood flood-opacity="0.161"/>
      <feComposite operator="in" in2="blur"/>
      <feComposite in="SourceGraphic"/>
    </filter>
    <clipPath id="clip-dazu">
      <rect width="327" height="258"/>
    </clipPath>
  </defs>
  <g id="dazu" clip-path="url(#clip-dazu)">
    <rect width="327" height="258" fill="rgba(0,0,0,0)"/>
    <g id="dazu-2" data-name="dazu" transform="translate(-15.667 -2.748)">
      <g id="thick_dazu" transform="translate(-133.898 -257)" opacity="0.67" fill="url(#radial-gradient)">
        <path d="M 296.0057067871094 441.5813903808594 C 296.0055541992188 441.5813903808594 296.0055541992188 441.5813903808594 296.0054016113281 441.5813903808594 C 295.8922119140625 441.5813903808594 295.7849731445313 441.5762023925781 295.6866455078125 441.56591796875 C 295.4062194824219 441.5381469726563 294.4060974121094 441.3450317382813 293.2023315429688 440.0162048339844 C 292.0282592773438 438.7201232910156 291.0667724609375 436.7565307617188 290.4218444824219 434.3376770019531 C 285.8619384765625 417.3134155273438 277.0207214355469 413.4712219238281 260.9705810546875 406.4961242675781 L 258.0435791015625 405.2196044921875 C 251.8528900146484 402.4775695800781 245.3688354492188 400.1544799804688 238.774169921875 398.3160095214844 L 238.7671508789063 398.3140563964844 L 238.7600860595703 398.3123168945313 C 234.162841796875 397.1741638183594 229.8038177490234 395.4179382324219 225.8040618896484 393.0923461914063 C 223.9217224121094 391.9952087402344 222.7218475341797 390.4351501464844 222.2382202148438 388.4557495117188 C 221.8324584960938 386.7949829101563 221.9326782226563 384.7916870117188 222.5280151367188 382.6624145507813 C 223.1723022460938 380.3580322265625 224.1566314697266 378.6981506347656 224.4470062255859 378.2384033203125 L 225.5906829833984 376.5057373046875 L 225.9918670654297 375.8979187011719 L 225.2805023193359 375.7419128417969 L 221.3927001953125 374.88916015625 C 225.3338928222656 369.0137634277344 230.2521667480469 360.0234680175781 231.6574859619141 355.10986328125 C 232.4065093994141 352.4871215820313 235.1450500488281 349.6922607421875 239.1709899902344 347.4417114257813 C 244.001220703125 344.7415771484375 250.4432678222656 342.9010314941406 257.8006286621094 342.1190795898438 C 281.4898071289063 339.6012878417969 293.6722717285156 336.9338684082031 296.1395568847656 333.7245788574219 C 296.5475769042969 333.1938781738281 296.7095947265625 332.6356811523438 296.6210327148438 332.0655822753906 C 296.26220703125 329.7561340332031 293.2684631347656 328.1836242675781 290.0989685058594 326.5188293457031 C 288.0881042480469 325.4626159667969 286.0087890625 324.3704223632813 284.4287109375 323.0368041992188 C 282.7833862304688 321.6481323242188 281.9447937011719 320.1920471191406 281.8712768554688 318.5926818847656 C 282.487548828125 318.9458618164063 283.1417846679688 319.2433471679688 283.8246154785156 319.4805297851563 L 283.8345947265625 319.4839782714844 L 283.8446655273438 319.4870300292969 C 286.0130004882813 320.1389465332031 288.2716369628906 320.469482421875 290.5579223632813 320.4694519042969 C 291.957763671875 320.4694213867188 293.3594055175781 320.3437805175781 294.731689453125 320.0956726074219 C 295.3551025390625 322.3504333496094 297.525146484375 324.2309265136719 301.3435974121094 325.8314208984375 C 304.7755126953125 327.2698669433594 308.9480285644531 328.2534790039063 312.6293640136719 329.1212463378906 L 312.6336975097656 329.1222839355469 L 312.6380615234375 329.1231994628906 C 315.8591918945313 329.8221740722656 319.0708618164063 330.6983642578125 322.184326171875 331.7275390625 C 325.2017211914063 332.9130249023438 328.4015197753906 333.5140686035156 331.6952514648438 333.5140380859375 C 333.8579406738281 333.5140075683594 336.010498046875 333.2484436035156 338.0931396484375 332.7247009277344 L 338.0990905761719 332.7232055664063 L 338.1049499511719 332.7215881347656 C 343.0118408203125 331.359130859375 347.0253601074219 328.2214965820313 349.2091979980469 324.0655822753906 C 351.8959655761719 326.0367126464844 355.0634155273438 327.5050964355469 358.4082946777344 328.3258666992188 L 358.4185791015625 328.3283996582031 L 358.428955078125 328.3305053710938 C 363.8715515136719 329.4240112304688 369.4591979980469 329.9963073730469 375.0373229980469 330.0315246582031 L 375.0859985351563 330.0335693359375 C 383.2874450683594 330.378173828125 392.5831298828125 330.7687683105469 402.2520446777344 333.8783874511719 C 403.9315185546875 334.419189453125 404.525390625 334.8402709960938 404.6338195800781 334.9781799316406 C 404.6404113769531 335.0731811523438 404.594970703125 335.4547119140625 403.6969909667969 336.3182373046875 C 403.0006408691406 336.9878845214844 401.9205017089844 337.8197937011719 400.4866333007813 338.7908630371094 C 397.7870788574219 340.6191101074219 394.2030944824219 342.6988525390625 391.041015625 344.5338134765625 L 390.9790649414063 344.5697631835938 C 383.3287963867188 348.7330627441406 376.0508728027344 353.5373229980469 369.3467102050781 358.8495178222656 L 369.3379516601563 358.8564453125 L 369.3294982910156 358.86376953125 C 361.1378784179688 365.9726867675781 353.8123779296875 371.60791015625 342.6195678710938 377.7271728515625 C 334.115234375 382.3766479492188 331.8395080566406 383.3994445800781 329.43017578125 384.4823303222656 C 328.6817321777344 384.8187255859375 327.9078674316406 385.1665344238281 326.9328308105469 385.6295776367188 C 316.9299621582031 390.3720397949219 315.6519470214844 402.4559326171875 314.4160461425781 414.1419372558594 C 313.5704040527344 422.1150817871094 312.7716674804688 429.646240234375 309.5433959960938 433.2318420410156 C 304.0514831542969 439.3144226074219 298.3252563476563 441.5813903808594 296.0057067871094 441.5813903808594 Z" stroke="none"/>
        <path d="M 296.0057067871094 441.0813903808594 C 297.306396484375 441.0813903808594 299.350830078125 440.3694152832031 301.4745483398438 439.1768493652344 C 303.3507690429688 438.1232604980469 306.2093811035156 436.1783447265625 309.1718139648438 432.8973083496094 C 312.2915954589844 429.4322204589844 313.0820007324219 421.9794311523438 313.9188232421875 414.08935546875 C 315.1692504882813 402.2661743164063 316.4622497558594 390.0404357910156 326.7183532714844 385.1779174804688 C 327.6980895996094 384.7126159667969 328.4744262695313 384.3637084960938 329.2251892089844 384.0262756347656 C 331.6253967285156 382.947509765625 333.8924560546875 381.9285583496094 342.3797302246094 377.2884826660156 C 353.5331726074219 371.1907043457031 360.8352355957031 365.5732727050781 369.0018005371094 358.4861450195313 L 369.0186767578125 358.4714965820313 L 369.0361633300781 358.4576110839844 C 375.7606811523438 353.1293334960938 383.0611267089844 348.3099670410156 390.73388671875 344.1339111328125 L 390.7900695800781 344.101318359375 C 393.7634887695313 342.3758850097656 397.1336669921875 340.4201965332031 399.7584228515625 338.6771240234375 C 401.1437683105469 337.7571716308594 402.2246398925781 336.9591064453125 402.9710388183594 336.3050537109375 C 403.6331787109375 335.724853515625 403.9208679199219 335.3572082519531 404.0448913574219 335.1567993164063 C 403.7799072265625 334.9961547851563 403.2168273925781 334.7143249511719 402.0989379882813 334.3543701171875 C 392.4945068359375 331.2655334472656 383.2347412109375 330.8764343261719 375.0650024414063 330.5331420898438 L 375.0244445800781 330.5314331054688 C 369.4177856445313 330.4953918457031 363.801025390625 329.9198303222656 358.3304748535156 328.8206787109375 L 358.3097229003906 328.8165283203125 L 358.2891540527344 328.8114624023438 C 355.0712280273438 328.0218505859375 352.013671875 326.6434020996094 349.3765563964844 324.8003845214844 C 347.0763854980469 328.8283081054688 343.0796508789063 331.8592224121094 338.2387390136719 333.2033386230469 L 338.2269592285156 333.2066040039063 L 338.215087890625 333.2096252441406 C 336.0926513671875 333.7433776855469 333.8990478515625 334.0140075683594 331.6952514648438 334.0140380859375 C 328.3436279296875 334.0140686035156 325.086669921875 333.403076171875 322.0147094726563 332.1980895996094 C 318.9219970703125 331.17626953125 315.7315368652344 330.3061218261719 312.5320434570313 329.6118469238281 L 312.5233154296875 329.6099548339844 L 312.5146484375 329.60791015625 C 308.8143920898438 328.7356567382813 304.6204528808594 327.7470397949219 301.1503295898438 326.2925415039063 C 297.4198913574219 324.7289733886719 295.1950378417969 322.8796997070313 294.3878784179688 320.6618347167969 C 293.1250305175781 320.8660888671875 291.8406677246094 320.9694213867188 290.5579223632813 320.9694519042969 C 288.2228698730469 320.969482421875 285.915771484375 320.6318359375 283.7007141113281 319.9658203125 L 283.6805114746094 319.9597473144531 L 283.6605529785156 319.9528198242188 C 283.2665405273438 319.8159790039063 282.8815002441406 319.6597900390625 282.5072326660156 319.4851379394531 C 282.7948913574219 320.593505859375 283.5270385742188 321.6214904785156 284.7511901855469 322.6547241210938 C 286.2896118164063 323.9531555175781 288.3443603515625 325.0324401855469 290.3314514160156 326.0762023925781 C 293.6156005859375 327.8012084960938 296.7175903320313 329.4305725097656 297.1151428222656 331.9888305664063 C 297.1909790039063 332.4773864746094 297.1520690917969 333.2279357910156 296.5359497070313 334.0293273925781 C 295.5524597167969 335.3086242675781 292.9025573730469 337.2592468261719 281.2954711914063 339.4199523925781 C 275.3576354980469 340.5252990722656 267.6896667480469 341.5708312988281 257.8534851074219 342.6162719726563 C 250.5626983642578 343.3911437988281 244.1867523193359 345.2106628417969 239.4149627685547 347.878173828125 C 235.5035095214844 350.064697265625 232.8512725830078 352.7505187988281 232.1382293701172 355.2473449707031 C 230.7676544189453 360.0395202636719 226.1018981933594 368.6510925292969 222.2135009765625 374.5573120117188 L 225.3876342773438 375.2535095214844 L 226.8103637695313 375.5655822753906 L 226.0079650878906 376.7811584472656 L 224.8668060302734 378.510009765625 C 223.7308197021484 380.310791015625 221.827880859375 384.6696166992188 222.7239379882813 388.3370361328125 C 223.1741027832031 390.1795349121094 224.2952728271484 391.6342163085938 226.0553894042969 392.6600952148438 C 230.0141448974609 394.9618225097656 234.3290405273438 396.7002258300781 238.8802185058594 397.8269653320313 L 238.8943939208984 397.8304748535156 L 238.9084625244141 397.8344116210938 C 245.5263366699219 399.6793212890625 252.0333251953125 402.0106506347656 258.2484741210938 404.7634887695313 L 261.1698608398438 406.0375366210938 C 277.3627014160156 413.0746459960938 286.282470703125 416.9510192871094 290.9049682617188 434.2088928222656 C 291.5294799804688 436.5511169433594 292.4520263671875 438.4431762695313 293.5728759765625 439.6805114746094 C 294.4339904785156 440.631103515625 295.2535095214844 441.0205688476563 295.7333679199219 441.068115234375 L 295.7359313964844 441.068359375 L 295.7384948730469 441.0686340332031 C 295.8197631835938 441.0771179199219 295.9095458984375 441.0813903808594 296.0055236816406 441.0813903808594 L 296.0057067871094 441.0813903808594 M 296.00537109375 442.0813903808594 C 295.8743896484375 442.0813903808594 295.75048828125 442.0753173828125 295.634765625 442.063232421875 C 294.2339477539063 441.9244384765625 291.4595947265625 440.170654296875 289.938720703125 434.4664916992188 C 285.4413452148438 417.6756591796875 276.677978515625 413.867431640625 260.7708129882813 406.9544677734375 L 257.8436889648438 405.6779174804688 C 251.6540069580078 402.9363403320313 245.2332305908203 400.6357421875 238.6399078369141 398.7976684570313 C 234.0026092529297 397.6495971679688 229.5888214111328 395.8712768554688 225.5527496337891 393.5245971679688 C 218.7326354980469 389.5494384765625 222.1481475830078 380.9385986328125 224.0267181396484 377.9674682617188 L 225.1733856201172 376.2302856445313 L 220.5648956298828 375.219482421875 C 224.8027038574219 369.0314331054688 229.8278198242188 359.6889038085938 231.1767730712891 354.9723510742188 C 232.6534423828125 349.8017578125 241.5104064941406 343.3475952148438 257.747802734375 341.6218872070313 C 273.9853515625 339.8960571289063 296.8621826171875 336.876953125 296.126953125 332.1422729492188 C 295.3912963867188 327.4076538085938 281.365966796875 325.6834106445313 281.365966796875 318.36083984375 C 281.365966796875 318.16259765625 281.4470825195313 317.952880859375 281.4600219726563 317.7481079101563 C 282.234130859375 318.270263671875 283.0848388671875 318.6942749023438 283.9886474609375 319.0081787109375 C 286.1156311035156 319.647705078125 288.3343200683594 319.969482421875 290.5578918457031 319.9694519042969 C 292.0835266113281 319.9693908691406 293.6117248535156 319.81787109375 295.113037109375 319.5134887695313 C 296.0071411132813 324.684326171875 305.47216796875 326.92041015625 312.7440795898438 328.6345825195313 C 316.0015258789063 329.3414306640625 319.2105712890625 330.2174072265625 322.3545532226563 331.2572021484375 C 325.3200988769531 332.4241333007813 328.5021362304688 333.0140686035156 331.6952514648438 333.0140380859375 C 333.8021240234375 333.0140380859375 335.9138793945313 332.7572021484375 337.97119140625 332.2398071289063 C 342.9421997070313 330.8595581054688 346.9856567382813 327.5928344726563 349.0309448242188 323.305419921875 C 351.780029296875 325.4312744140625 355.0244750976563 326.980712890625 358.5274658203125 327.8402709960938 C 363.95166015625 328.9301147460938 369.4901123046875 329.4970092773438 375.0488891601563 329.5315551757813 C 383.2974853515625 329.878173828125 392.6488647460938 330.2647094726563 402.4050903320313 333.4024047851563 C 404.0108032226563 333.91943359375 405.0277709960938 334.4529418945313 405.11669921875 334.8390502929688 C 405.5662231445313 336.6904907226563 397.6216430664063 341.2931518554688 391.2239379882813 345.0057373046875 C 383.5767822265625 349.1669311523438 376.3590087890625 353.9310913085938 369.6572265625 359.2413940429688 C 361.4662475585938 366.3497314453125 354.023193359375 372.0625 342.8594360351563 378.1658935546875 C 331.6956787109375 384.269287109375 331.246826171875 384.1343383789063 327.1473388671875 386.0812377929688 C 317.404052734375 390.7006225585938 316.1359252929688 402.6340942382813 314.9132690429688 414.1945190429688 C 314.0585327148438 422.253662109375 313.2471313476563 429.8654174804688 309.9149780273438 433.56640625 C 304.5578002929688 439.499755859375 298.7055358886719 442.0816040039063 296.00537109375 442.0813903808594 Z" stroke="none" fill="#30abec"/>
      </g>
      <text id="dazu-3" data-name="dazu" transform="translate(141.579 117.746)" fill="#fff" font-size="10" font-family="MicrosoftYaHei, Microsoft YaHei"><tspan x="0" y="0">大足区</tspan></text>
      <g transform="matrix(1, 0, 0, 1, 15.67, 2.75)" filter="url(#dazu1)">
        <path id="dazu1-2" data-name="dazu1" d="M-3164.559-909.667h0a3.6,3.6,0,0,1-.371-.018c-1.4-.139-4.176-1.894-5.7-7.6-4.5-16.791-13.26-20.6-29.168-27.512l-2.927-1.276a141.28,141.28,0,0,0-19.2-6.88,49.818,49.818,0,0,1-13.087-5.273,8.055,8.055,0,0,1-3.22-3.308,8,8,0,0,1-.84-3.8c.049-3.347-.824-26.5-.924-29.133l0-.062,4.608,1.011-1.147,1.738c-1.3,2.061-3.249,6.615-2.274,10.606a7.716,7.716,0,0,0,3.8,4.95,49.814,49.814,0,0,0,13.087,5.273,141.288,141.288,0,0,1,19.2,6.88l2.927,1.276c15.908,6.913,24.671,10.721,29.168,27.512,1.521,5.7,4.3,7.458,5.7,7.6a3.7,3.7,0,0,0,.371.018,13.679,13.679,0,0,0,5.958-2.032,31.945,31.945,0,0,0,7.951-6.483c3.336-3.706,4.144-11.315,5-19.372,1.221-11.549,2.484-23.49,12.234-28.113l.01,0c4.077-1.936,7.928-3.765,11.938-5.87a31.824,31.824,0,0,1,3.765-2.041,166.671,166.671,0,0,0,26.8-18.924,151.12,151.12,0,0,1,21.567-14.236l.067-.039c5.193-3.013,11.656-6.763,13.389-8.978.285-.155.438-.24.438-.24,0,.162-.087,16.713,0,17.091.448,1.845-7.468,6.438-13.828,10.128l-.066.038a151.111,151.111,0,0,0-21.567,14.236,166.672,166.672,0,0,1-26.8,18.924c-3.031,1.313-3.458,1.661-3.765,2.041-4.013,2.107-7.867,3.937-11.948,5.874-9.75,4.623-11.013,16.565-12.234,28.113-.855,8.056-1.662,15.666-5,19.372a31.947,31.947,0,0,1-7.951,6.483A13.678,13.678,0,0,1-3164.559-909.667Zm-14.277-121.761h0a5.431,5.431,0,0,1-.363-1.959,1.608,1.608,0,0,1,.046-.324,1.923,1.923,0,0,0,.047-.289.059.059,0,0,0,.031.011.051.051,0,0,0,.036-.018c.277-.291.1-4.048-.09-8.026l-.03-.637c-.21-4.448-.358-8.167-.041-8.634.059,4.084,4.543,6.439,8.5,8.517,3.055,1.6,5.941,3.121,6.261,5.181.184,1.183-1.121,2.338-3.88,3.431a61.811,61.811,0,0,1-10.517,2.747Z" transform="translate(3311 1110)" stroke="rgba(0,0,0,0)" stroke-miterlimit="10" stroke-width="1" fill="url(#linear-gradient)"/>
      </g>
    </g>
  </g>
</svg>
