<svg xmlns="http://www.w3.org/2000/svg" xmlns:xlink="http://www.w3.org/1999/xlink" width="327" height="258" viewBox="0 0 327 258">
  <defs>
    <radialGradient id="radial-gradient" cx="0.5" cy="0.5" r="0.5" gradientUnits="objectBoundingBox">
      <stop offset="0" stop-color="#1fb9e6"/>
      <stop offset="1" stop-color="#0669d2"/>
    </radialGradient>
    <linearGradient id="linear-gradient" x1="0.5" x2="0.5" y2="1" gradientUnits="objectBoundingBox">
      <stop offset="0" stop-color="#191e64"/>
      <stop offset="1" stop-color="#17448b"/>
    </linearGradient>
    <filter id="dianjiangxian1" x="64.5" y="56.326" width="197.365" height="176.826" filterUnits="userSpaceOnUse">
      <feOffset dy="8" input="SourceAlpha"/>
      <feGaussianBlur stdDeviation="9" result="blur"/>
      <feFlood flood-opacity="0.161"/>
      <feComposite operator="in" in2="blur"/>
      <feComposite in="SourceGraphic"/>
    </filter>
    <clipPath id="clip-dianjiangxian">
      <rect width="327" height="258"/>
    </clipPath>
  </defs>
  <g id="dianjiangxian" clip-path="url(#clip-dianjiangxian)">
    <rect width="327" height="258" fill="rgba(0,0,0,0)"/>
    <g id="dianjiangxian-2" data-name="dianjiangxian" transform="translate(0 -8)">
      <g id="thick_dianjiang" transform="translate(-463.708 -157.558)" opacity="0.67" fill="url(#radial-gradient)">
        <path d="M 580.293212890625 345.7098388671875 C 579.2527465820313 345.7098388671875 578.7786254882813 345.6939086914063 578.4436645507813 345.315673828125 C 578.0281982421875 344.8464660644531 577.7469482421875 343.7565002441406 577.5040283203125 341.6727905273438 C 577.4356079101563 339.033203125 576.5379638671875 336.478271484375 574.9074096679688 334.2827758789063 L 574.8942260742188 334.2650451660156 L 574.8795166015625 334.2485656738281 C 573.8984985351563 333.1458740234375 572.8438110351563 332.0757446289063 571.7448120117188 331.0677795410156 C 569.7218017578125 329.1624755859375 568.0620727539063 327.5092468261719 568.2356567382813 326.5718994140625 C 568.3491821289063 325.9590148925781 569.2451782226563 325.3500061035156 571.231689453125 324.535400390625 C 575.5062866210938 322.7967834472656 577.8751220703125 320.599365234375 578.27099609375 318.0047302246094 C 578.8403930664063 314.1770935058594 574.7156982421875 311.1977844238281 573.43798828125 310.3757629394531 L 573.4342041015625 310.3733520507813 L 573.430419921875 310.3709411621094 L 573.4278564453125 310.3694152832031 C 571.1804809570313 307.7113647460938 570.014892578125 304.41943359375 570.144775390625 301.09130859375 L 570.1451416015625 301.08154296875 L 570.1451416015625 301.0718078613281 C 570.1451416015625 297.3587951660156 567.848388671875 293.9682922363281 563.503173828125 291.2668151855469 C 560.7923583984375 289.5814514160156 557.9954223632813 288.5830993652344 556.6110229492188 288.1483764648438 C 564.5322875976563 279.3752136230469 572.1524658203125 270.61669921875 572.230224609375 270.5273132324219 L 572.3004150390625 270.446533203125 L 572.3314819335938 270.3440246582031 C 572.3453369140625 270.2981567382813 573.7528686523438 265.6967468261719 576.5709838867188 260.4564514160156 C 578.2206420898438 257.3889770507813 580.0236206054688 254.7061004638672 581.9299926757813 252.4823150634766 C 584.2969360351563 249.7212066650391 586.8285522460938 247.6667327880859 589.4544677734375 246.3759155273438 C 596.4903564453125 242.9237060546875 605.445068359375 235.0524139404297 614.0478515625 227.2268676757813 C 617.5825805664063 230.2421417236328 626.4318237304688 236.5119171142578 638.8497924804688 236.5119171142578 C 638.8513793945313 236.5119171142578 638.8507690429688 236.5119171142578 638.8523559570313 236.5119171142578 C 640.4652099609375 236.5118103027344 642.1048583984375 236.4040069580078 643.7258911132813 236.1914978027344 C 648.1549072265625 235.6059265136719 651.5963745117188 235.3332061767578 654.5569458007813 235.3332061767578 C 659.933349609375 235.3332061767578 663.8519897460938 236.2024536132813 670.3441162109375 237.6425628662109 L 670.35498046875 237.6449584960938 L 674.6287231445313 238.5855407714844 L 674.63525390625 238.5869750976563 L 674.641845703125 238.5882263183594 C 678.87255859375 239.4015960693359 683.2030029296875 239.9886322021484 687.5128784179688 240.3330383300781 C 689.1386108398438 240.4925231933594 691.5928955078125 240.7334136962891 693.67236328125 241.0195770263672 C 696.2943115234375 241.3803863525391 697.2088623046875 241.6651611328125 697.5230102539063 241.8058319091797 C 697.410888671875 242.0975646972656 696.9838256835938 242.8499908447266 695.3593139648438 244.2653503417969 L 694.0308227539063 245.4047241210938 L 694.0286254882813 245.4066162109375 L 694.0264282226563 245.4085388183594 C 690.75830078125 248.2782592773438 687.6298828125 251.3404083251953 684.7279663085938 254.5099639892578 L 684.7230834960938 254.5151062011719 C 680.6710815429688 258.8038940429688 677.743408203125 261.9026184082031 673.111083984375 263.5698547363281 C 668.9459228515625 265.06005859375 666.3596801757813 266.8232421875 665.4251098632813 268.81005859375 C 664.8507080078125 270.0311584472656 665.02099609375 271.0898132324219 665.2650756835938 271.7628784179688 C 665.7013549804688 272.995361328125 666.7906494140625 274.0994567871094 668.4140014648438 274.9522094726563 C 669.7539672851563 275.6561279296875 671.3772583007813 276.1473388671875 673.1520385742188 276.3899841308594 C 671.9898071289063 277.7523498535156 670.616455078125 278.9517517089844 669.059326171875 279.9630737304688 L 669.0460815429688 279.9716796875 L 669.0333862304688 279.9811096191406 C 664.9752197265625 282.9980163574219 662.39453125 288.5812377929688 662.6117553710938 293.8742065429688 C 662.7662963867188 297.6404418945313 664.3624267578125 300.6561584472656 667.1060791015625 302.3658142089844 C 667.2515258789063 302.4557189941406 667.3997802734375 302.542236328125 667.5504150390625 302.6252136230469 C 665.411865234375 303.6134338378906 664.1597900390625 304.709228515625 663.6427612304688 306.03076171875 C 663.1045532226563 307.4063415527344 663.4618530273438 308.7840576171875 663.807373046875 310.1164245605469 L 663.8364868164063 310.2318420410156 C 663.9940795898438 310.8558959960938 664.1727294921875 311.5631713867188 664.3042602539063 312.3853454589844 L 664.405517578125 313.0286560058594 C 664.6492309570313 314.5280456542969 664.731201171875 315.0322875976563 663.6809692382813 315.920166015625 C 662.4573364257813 316.9547119140625 659.8108520507813 318.3306884765625 654.5383911132813 321.072021484375 C 647.5696411132813 324.6942749023438 634.3226318359375 334.3909606933594 624.330322265625 341.9720458984375 C 622.70947265625 341.0605773925781 620.58935546875 340.6168212890625 617.8644409179688 340.6168212890625 C 616.818115234375 340.6168212890625 615.6633911132813 340.6839599609375 614.4324951171875 340.8163757324219 C 609.4517822265625 341.3450622558594 604.3428344726563 342.2906494140625 599.402099609375 343.2051391601563 L 599.3317260742188 343.2181701660156 L 599.251708984375 343.2329406738281 C 592.3605346679688 344.5067138671875 585.8516235351563 345.7098388671875 580.293212890625 345.7098388671875 Z" stroke="none"/>
        <path d="M 580.293212890625 345.2098388671875 C 585.8057861328125 345.2098388671875 592.2928466796875 344.0107727050781 599.1608276367188 342.7412719726563 L 599.24072265625 342.7265319824219 L 599.3110961914063 342.7134704589844 C 604.2611694335938 341.7972717285156 609.3797607421875 340.8498840332031 614.3790283203125 340.3192138671875 C 615.627685546875 340.1849060058594 616.8003540039063 340.1168212890625 617.8644409179688 340.1168212890625 C 620.5189208984375 340.1168212890625 622.6281127929688 340.53076171875 624.283935546875 341.3796997070313 C 634.2610473632813 333.8161926269531 647.3675537109375 324.2358093261719 654.3077392578125 320.6283874511719 C 659.5472412109375 317.9042053222656 662.1771240234375 316.5368347167969 663.358154296875 315.5383605957031 C 663.8860473632813 315.0920715332031 663.9971923828125 314.8189086914063 664.0363159179688 314.6105651855469 C 664.1005249023438 314.268798828125 664.0216064453125 313.7832946777344 663.912353515625 313.1113586425781 L 663.9119873046875 313.10888671875 L 663.9115600585938 313.1063842773438 L 663.810546875 312.4643249511719 C 663.6824951171875 311.6640930175781 663.5067749023438 310.9682312011719 663.3517456054688 310.3542785644531 L 663.3228149414063 310.2395935058594 C 662.7144775390625 307.8940734863281 661.9752197265625 305.03662109375 666.5233154296875 302.5830078125 C 663.8298950195313 300.7535095214844 662.2676391601563 297.6844177246094 662.1121215820313 293.8947143554688 C 661.8884887695313 288.4437866210938 664.5499877929688 282.6910705566406 668.7350463867188 279.5798645019531 L 668.7604370117188 279.5610046386719 L 668.7869873046875 279.5437622070313 C 670.0420532226563 278.7285766601563 671.1741333007813 277.7885131835938 672.1682739257813 276.7371215820313 C 668.42041015625 276.0296936035156 665.6124267578125 274.2356567382813 664.7938842773438 271.9302673339844 C 664.3988037109375 270.8381958007813 664.4606323242188 269.6857299804688 664.97265625 268.5971984863281 C 665.9659423828125 266.4856567382813 668.647705078125 264.6357116699219 672.9417724609375 263.0993957519531 C 677.4618530273438 261.4725341796875 680.3551635742188 258.4101867675781 684.3596801757813 254.1717224121094 L 684.362060546875 254.1692047119141 C 687.275390625 250.9873809814453 690.415771484375 247.9135894775391 693.696533203125 245.0328216552734 L 693.7008666992188 245.0289764404297 L 693.705322265625 245.0251922607422 L 695.033447265625 243.8860931396484 C 696.0106811523438 243.034423828125 696.5210571289063 242.4520111083984 696.7862548828125 242.0871887207031 C 696.2484741210938 241.9435424804688 695.2483520507813 241.7362365722656 693.4054565429688 241.4878387451172 C 691.3839111328125 241.2153778076172 689.1221923828125 240.9933319091797 687.4683837890625 240.8310546875 C 683.141845703125 240.4851531982422 678.7946166992188 239.8957824707031 674.5474243164063 239.0792388916016 L 674.5343017578125 239.0767211914063 L 674.5213012695313 239.0738677978516 L 670.2467041015625 238.1331024169922 L 670.2357788085938 238.1306762695313 C 663.7770385742188 236.6979675292969 659.8786010742188 235.8332061767578 654.5569458007813 235.8332061767578 C 651.6187744140625 235.8332061767578 648.1981201171875 236.1045379638672 643.7908935546875 236.6872406005859 C 642.1482543945313 236.902587890625 640.4866943359375 237.0118255615234 638.8497924804688 237.0119171142578 C 626.6456298828125 237.0119171142578 617.8464965820313 231.0377655029297 614.060546875 227.89111328125 C 605.5306396484375 235.6430969238281 596.68017578125 243.3875122070313 589.675048828125 246.8246459960938 C 587.11279296875 248.0841369628906 584.6370239257813 250.0944213867188 582.3164672851563 252.7996978759766 C 580.4345092773438 254.9936676025391 578.6527099609375 257.6437072753906 577.0205688476563 260.6762084960938 C 574.2227783203125 265.8744506835938 572.8237915039063 270.4434509277344 572.81005859375 270.4887390136719 L 572.748046875 270.6937866210938 L 572.6074829101563 270.8553771972656 C 572.5313720703125 270.9429016113281 565.2333374023438 279.3312072753906 557.4966430664063 287.9132080078125 C 559.0315551757813 288.4387512207031 561.4307861328125 289.3895874023438 563.7672119140625 290.8421936035156 C 568.2667846679688 293.6396789550781 570.6451416015625 297.177001953125 570.6451416015625 301.0718078613281 L 570.6451416015625 301.09130859375 L 570.6444091796875 301.1107788085938 C 570.5203247070313 304.2901306152344 571.6266479492188 307.4375 573.7620239257813 309.9898681640625 C 575.1610717773438 310.8995361328125 579.37109375 314.0076904296875 578.7653198242188 318.0801391601563 C 578.3409423828125 320.861083984375 575.8692626953125 323.18896484375 571.42138671875 324.9980163574219 C 570.3961181640625 325.41845703125 569.707763671875 325.7639770507813 569.2551879882813 326.0854187011719 C 568.942626953125 326.3074035644531 568.7551879882813 326.5125122070313 568.727294921875 326.6629638671875 C 568.7080078125 326.7669982910156 568.727294921875 327.0912170410156 569.3206787109375 327.8535461425781 C 569.9461669921875 328.6571350097656 571.0191040039063 329.6974182128906 572.0860595703125 330.7023010253906 C 573.1962890625 331.7207946777344 574.2617797851563 332.8020324707031 575.2531127929688 333.9161987304688 L 575.282470703125 333.9491882324219 L 575.3087768554688 333.9846496582031 C 576.9964599609375 336.2569885253906 577.9276123046875 338.90234375 578.0032348632813 341.6373596191406 C 578.0897216796875 342.3807373046875 578.3373413085938 344.4413757324219 578.8179931640625 344.9841918945313 C 579.00146484375 345.1913452148438 579.348388671875 345.2098388671875 580.293212890625 345.2098388671875 M 580.293212890625 346.2098388671875 C 578.2249755859375 346.2098388671875 577.5272216796875 346.2098388671875 577.0047607421875 341.7080688476563 C 576.943603515625 339.1678466796875 576.0767822265625 336.6959228515625 574.5059814453125 334.5809020996094 C 573.53173828125 333.4859008789063 572.4969482421875 332.4359436035156 571.405029296875 331.4346008300781 C 566.8328857421875 327.128662109375 566.2996826171875 326.0173950195313 571.0419921875 324.0727844238281 C 575.1502685546875 322.4018249511719 577.40966796875 320.3349304199219 577.7767333984375 317.9292907714844 C 578.3193359375 314.281494140625 574.03125 311.3519592285156 573.16748046875 310.7962646484375 L 573.0980224609375 310.7533264160156 C 570.7296142578125 307.9820556640625 569.509033203125 304.5600280761719 569.6451416015625 301.0718078613281 C 569.6451416015625 292.5401916503906 557.20849609375 288.8122253417969 555.70751953125 288.4024658203125 C 563.9068603515625 279.33642578125 571.8529052734375 270.1991882324219 571.8529052734375 270.1991882324219 C 571.8529052734375 270.1991882324219 577.4417724609375 251.7237548828125 589.23388671875 245.9272155761719 C 596.5035400390625 242.3603057861328 605.8753662109375 233.9911956787109 614.0394287109375 226.5585021972656 C 617.2071533203125 229.3372497558594 626.141357421875 236.0127868652344 638.852294921875 236.0119323730469 C 640.3995971679688 236.0118255615234 642.0053100585938 235.9127807617188 643.660888671875 235.6957397460938 C 648.1542358398438 235.1016540527344 651.5709838867188 234.8332061767578 654.5569458007813 234.8332061767578 C 659.9912109375 234.8332061767578 663.99755859375 235.7225952148438 670.4632568359375 237.1568298339844 L 674.7362060546875 238.0972290039063 C 678.966552734375 238.9105224609375 683.2484130859375 239.4908447265625 687.557373046875 239.8349914550781 C 691.0103759765625 240.1737976074219 697.428955078125 240.8044891357422 698.049072265625 241.5627136230469 C 698.049072265625 241.568603515625 698.3885498046875 242.289306640625 695.687744140625 244.642333984375 L 694.3563232421875 245.7842407226563 C 691.088134765625 248.6540222167969 687.9962158203125 251.6804809570313 685.0941162109375 254.8504638671875 C 680.990478515625 259.19384765625 678.02783203125 262.3316345214844 673.2803955078125 264.0403137207031 C 665.3720703125 266.8697509765625 665.1534423828125 269.9881591796875 665.735107421875 271.5924377441406 C 666.53955078125 273.864990234375 669.900634765625 275.6316528320313 674.1163330078125 275.9941711425781 C 672.8109130859375 277.6898803710938 671.1927490234375 279.1736450195313 669.3316650390625 280.3823852539063 C 662.6016845703125 285.3855590820313 660.406494140625 297.6019897460938 667.3704833984375 301.9414367675781 C 667.8095703125 302.2128601074219 668.2730712890625 302.4507141113281 668.75634765625 302.652587890625 C 662.9862060546875 304.9502258300781 663.6202392578125 307.4031066894531 664.2913818359375 309.9909057617188 C 664.457275390625 310.6490783691406 664.6544189453125 311.4089050292969 664.7979736328125 312.3063659667969 L 664.8994140625 312.950927734375 C 665.3936767578125 315.9915771484375 665.3936767578125 315.9915771484375 654.76904296875 321.515625 C 647.890380859375 325.091064453125 634.8887939453125 334.5824890136719 624.364990234375 342.5734252929688 C 622.9893188476563 341.7171936035156 620.9944458007813 341.1168212890625 617.8644409179688 341.1168212890625 C 616.8607788085938 341.1168212890625 615.7398681640625 341.1786193847656 614.4859619140625 341.3135070800781 C 609.500244140625 341.8427124023438 604.399658203125 342.7886352539063 599.4227294921875 343.7098083496094 C 592.47900390625 344.9932861328125 585.9190673828125 346.2098388671875 580.293212890625 346.2098388671875 Z" stroke="none" fill="#30abec"/>
      </g>
      <text id="dianjiangxian-3" data-name="dianjiangxian" transform="translate(141 128)" fill="#fff" font-size="10" font-family="MicrosoftYaHei, Microsoft YaHei"><tspan x="0" y="0">垫江县</tspan></text>
      <g transform="matrix(1, 0, 0, 1, 0, 8)" filter="url(#dianjiangxian1)">
        <path id="dianjiangxian1-2" data-name="dianjiangxian1" d="M-1230.414-567.348c-2.069,0-2.766,0-3.289-4.5a12.423,12.423,0,0,0-2.5-7.127,43.511,43.511,0,0,0-3.1-3.146c-1.939-1.827-3.834-3.661-3.852-4.268a10.722,10.722,0,0,1-.157-2.3c0-3.716.318-12.944.381-14.756.261,1,1.477,2.293,3.628,4.32a43.489,43.489,0,0,1,3.1,3.146,12.423,12.423,0,0,1,2.5,7.127c.523,4.5,1.22,4.5,3.289,4.5,5.6,0,12.133-1.207,19.046-2.485l.084-.015.057-.01c4.936-.914,10.039-1.859,15.006-2.386a31.9,31.9,0,0,1,3.377-.2,12.178,12.178,0,0,1,6.5,1.456c10.011-7.6,23.414-17.425,30.4-21.057,10.625-5.524,10.625-5.524,10.13-8.565l-.1-.644c-.136-.85-.318-1.572-.48-2.209l-.027-.107c-.669-2.582-1.3-5.021,4.4-7.312l.065,0c0,.168-.478,16.769,0,16.969-5.771,2.3-5.136,4.746-4.465,7.338l.027.107c.162.639.344,1.361.48,2.209l.1.644c.494,3.041.494,3.041-10.13,8.565-7,3.638-20.4,13.459-30.4,21.057a12.178,12.178,0,0,0-6.5-1.457,31.9,31.9,0,0,0-3.377.2c-4.968.527-10.073,1.473-15.01,2.387l-.054.01-.085.016C-1218.282-568.555-1224.811-567.348-1230.414-567.348Zm-9.468-39.047h0a13.593,13.593,0,0,1-1.179-6.09c0-4.407-3.79-7.617-6.969-9.534a34.237,34.237,0,0,0-6.969-3.135v-16.761l.069-.063.132-.12a30.916,30.916,0,0,1,7.682,3.456,15.876,15.876,0,0,1,4.214,3.8,8.9,8.9,0,0,1,1.841,5.354,14.073,14.073,0,0,0,3.452,9.682l.07.042a14.351,14.351,0,0,1,2.832,2.407,5.847,5.847,0,0,1,1.777,4.726c-.368,2.408-2.633,4.475-6.735,6.143l-.216.09Zm95.361-23.111h0c-2.142-1.924-3.232-4.928-3.068-8.458a16.621,16.621,0,0,1,6.216-12.211,19.22,19.22,0,0,0,4.784-4.388c-4.209-.361-7.578-2.13-8.382-4.4a3.283,3.283,0,0,1,.143-2.57c.876-1.862,3.367-3.539,7.4-4.982,4.745-1.707,7.706-4.842,11.806-9.182l.008-.008a119.412,119.412,0,0,1,9.263-9.066l1.331-1.142c1.686-1.469,2.2-2.307,2.336-2.752l.026-.019V-672c0,.007.3.763-2.362,3.08l-1.331,1.142a119.432,119.432,0,0,0-9.263,9.066l-.008.008c-3.966,4.2-6.831,7.231-11.265,8.978l.3,12.157,0,.005a35.39,35.39,0,0,1-4.78,4.383c-2.037,1.514-3.1,2.748-3.146,3.668Z" transform="translate(1347 765)" stroke="rgba(0,0,0,0)" stroke-miterlimit="10" stroke-width="1" fill="url(#linear-gradient)"/>
      </g>
    </g>
  </g>
</svg>
