<svg xmlns="http://www.w3.org/2000/svg" xmlns:xlink="http://www.w3.org/1999/xlink" width="198.092" height="181.783" viewBox="0 0 198.092 181.783">
  <defs>
    <linearGradient id="linear-gradient" x1="0.463" y1="0.819" x2="0.469" y2="0.5" gradientUnits="objectBoundingBox">
      <stop offset="0" stop-color="#191e64"/>
      <stop offset="0.144" stop-color="#19266c"/>
      <stop offset="1" stop-color="#17448b"/>
    </linearGradient>
    <filter id="thick_1" x="3.819" y="0" width="194.273" height="115.293" filterUnits="userSpaceOnUse">
      <feOffset dy="8" input="SourceAlpha"/>
      <feGaussianBlur stdDeviation="9" result="blur"/>
      <feFlood flood-color="#0f093c" flood-opacity="0.161"/>
      <feComposite operator="in" in2="blur"/>
      <feComposite in="SourceGraphic"/>
    </filter>
    <radialGradient id="radial-gradient" cx="0.5" cy="0.5" r="0.5" gradientUnits="objectBoundingBox">
      <stop offset="0" stop-color="#1fb9e6"/>
      <stop offset="1" stop-color="#0669d2"/>
    </radialGradient>
    <linearGradient id="linear-gradient-2" x1="0.546" y1="1" x2="0.543" y2="0.093" gradientUnits="objectBoundingBox">
      <stop offset="0" stop-color="#191e64"/>
      <stop offset="1" stop-color="#17448b"/>
    </linearGradient>
    <filter id="thick_2" x="0" y="75.614" width="181.074" height="106.169" filterUnits="userSpaceOnUse">
      <feOffset dy="8" input="SourceAlpha"/>
      <feGaussianBlur stdDeviation="9" result="blur-2"/>
      <feFlood flood-color="#0f093c" flood-opacity="0.161"/>
      <feComposite operator="in" in2="blur-2"/>
      <feComposite in="SourceGraphic"/>
    </filter>
  </defs>
  <g id="fengjie" transform="translate(-64.512 -42.19)">
    <g transform="matrix(1, 0, 0, 1, 64.51, 42.19)" filter="url(#thick_1)">
      <path id="thick_1-2" data-name="thick_1" d="M-2337.545,80.964h0l-.2-.051c-3.382-.848-5.1-1.945-5.1-3.262,0-1.462,2.059-2.687,6.294-3.745a8.7,8.7,0,0,0,1.612-.521,8.316,8.316,0,0,0-.96-.974,18.03,18.03,0,0,1-1.469-1.466c-1.625-1.9-.267-4.225,1.047-6.47a8.788,8.788,0,0,0,1.492-3.47c0-2.385,1.855-6.612,14.282-8.123,9.159-1.112,17.373-7.6,17.6-9.7.026-.24.042-.473.049-.693V57.715l-.017.007a7.766,7.766,0,0,1-.031,1.454c-.222,2.1-8.435,8.593-17.6,9.7-12.427,1.511-14.283,5.738-14.283,8.123a8.744,8.744,0,0,1-1.492,3.468c-.091.155-.5.32-1.226.49ZM-2406.427,71h0a25.084,25.084,0,0,0-12.734-3.145,39.194,39.194,0,0,0-8.352.957,23.322,23.322,0,0,1-4.094.664,5.859,5.859,0,0,1-.823-2.443l-.008-.038-.235-1.084c-.992-4.351-1.539-6.748-7.023-10.271-.206-.132-.459-.272-.728-.42a9.241,9.241,0,0,1-1.29-.8l-.286.043v-.323a.5.5,0,0,1-.09-.616.706.706,0,0,1,.09-.12V36.278a4.847,4.847,0,0,1,0-1.352V20.273a1.929,1.929,0,0,0,.288.777,33.334,33.334,0,0,0,3.238,3.332c4.821,4.608,7.859,7.782,6.224,9.837-.354.448-1.27,1.229-3.433,1.422-2.789.251-5,.973-5.495,1.8-.457.748.553,1.612,1.48,2.206,5.482,3.522,6.03,5.919,7.024,10.271l.234,1.084.008.038a5.866,5.866,0,0,0,.823,2.443,23.34,23.34,0,0,0,4.094-.664,39.2,39.2,0,0,1,8.353-.957,24.66,24.66,0,0,1,13.537,3.634c2.163,1.386,3.153,2.15,3.3,3.013.093.535-.148,1.127-.806,1.978a11.684,11.684,0,0,0-1.921,3.451,15.684,15.684,0,0,0-.806,4.36,6.192,6.192,0,0,1-.571,2.709Zm75.827-32.307h0a2.549,2.549,0,0,1-1.533-.748c-.8-.834-.047-1.578.405-2.022a3.706,3.706,0,0,0,1.037-1.446.971.971,0,0,0,.093-.266v4.482Z" transform="translate(2473.49 -1.19)" stroke="rgba(0,0,0,0)" stroke-width="1" fill="url(#linear-gradient)"/>
    </g>
    <g id="thick_fengjie" transform="translate(-815.907 -62.326)" opacity="0.67" fill="url(#radial-gradient)">
      <path d="M 970.864990234375 234.2388458251953 C 970.2977294921875 234.2388458251953 969.8712768554688 234.0626525878906 969.5612182617188 233.7001800537109 C 968.9495239257813 232.9851989746094 968.766357421875 232.2658843994141 968.9848022460938 231.4364624023438 C 969.1895751953125 230.6590270996094 969.7025756835938 229.9097442626953 970.1986694335938 229.1851196289063 C 970.5466918945313 228.6768493652344 970.8753662109375 228.19677734375 971.07373046875 227.7333831787109 C 971.1343994140625 227.5916290283203 971.2003784179688 227.4467468261719 971.2703247070313 227.2933349609375 C 971.6566772460938 226.4452362060547 972.0946044921875 225.4839630126953 971.9334716796875 224.3954010009766 C 971.7495727539063 223.1529083251953 970.8146362304688 222.0547637939453 969.0751342773438 221.0382080078125 C 965.046142578125 218.6836090087891 964.6661987304688 218.1794128417969 964.6661987304688 216.8643951416016 C 964.6661987304688 216.5307006835938 964.527587890625 215.4419403076172 962.7442016601563 215.4419403076172 C 961.2551879882813 215.4419403076172 959.3582153320313 216.1895599365234 958.4255981445313 217.1439361572266 L 958.2991333007813 217.2735748291016 C 956.9698486328125 218.6375885009766 955.919921875 219.7149963378906 951.6113891601563 219.7149963378906 C 947.1787109375 219.7149963378906 945.3798828125 219.8303985595703 945.3798828125 222.7247924804688 C 945.3798828125 224.0513153076172 943.9705810546875 224.6236267089844 941.2698974609375 225.6020050048828 C 940.4364013671875 225.9039459228516 939.4917602539063 226.2461547851563 938.5136108398438 226.6605072021484 C 937.0217895507813 227.2923583984375 931.8197631835938 229.3539886474609 927.5162353515625 229.3539886474609 C 925.8209228515625 229.3539886474609 924.494873046875 229.0271759033203 923.5750122070313 228.3826141357422 C 922.9403686523438 227.9380187988281 922.3948364257813 227.5974731445313 921.9135131835938 227.2970123291016 C 920.8096313476563 226.6079254150391 920.3168334960938 226.2818145751953 920.2051391601563 225.7726440429688 C 920.0628051757813 225.1240234375 920.4944458007813 223.9631805419922 921.237060546875 222.3003997802734 C 921.8307495117188 220.9710845947266 922.56640625 219.7696685791016 923.2155151367188 218.7096862792969 C 924.3486938476563 216.8591156005859 925.1674194335938 215.5220489501953 924.6259765625 214.506591796875 C 924.265869140625 213.8311157226563 923.417724609375 213.5012054443359 921.8760986328125 213.4369201660156 C 921.6847534179688 213.4289398193359 921.4869995117188 213.4248962402344 921.2884521484375 213.4248962402344 C 919.2904663085938 213.4248962402344 917.2655029296875 213.8290252685547 915.4789428710938 214.1855773925781 C 914.0682983398438 214.4671173095703 912.7359008789063 214.7330322265625 911.7124633789063 214.7330322265625 C 910.8920288085938 214.7330322265625 910.3551635742188 214.5703430175781 910.0228881835938 214.2210083007813 L 910.018798828125 214.2167053222656 L 910.0145874023438 214.2124786376953 C 909.5840454101563 213.7808532714844 909.0532836914063 213.4471282958984 908.46142578125 213.2332916259766 C 908.6845703125 211.7898559570313 909.8859252929688 205.0863342285156 913.4094848632813 201.4304809570313 C 914.8936767578125 199.8904266357422 915.6283569335938 198.6943359375 915.791748046875 197.5522613525391 C 915.9512939453125 196.4368438720703 915.5462646484375 195.5115051269531 915.0411987304688 194.5032806396484 L 915.0369262695313 194.4947509765625 L 915.0323486328125 194.4863739013672 C 914.2249755859375 193.0173950195313 913.819580078125 191.3769989013672 913.860107421875 189.7425689697266 L 913.8602294921875 189.7363739013672 L 913.8602294921875 189.7301940917969 C 913.8602294921875 188.0533142089844 914.2879638671875 186.9574432373047 915.1315307617188 186.4729766845703 C 916.1092529296875 185.9161224365234 918.2171020507813 185.8392333984375 920.3490600585938 185.8392333984375 C 921.0755004882813 185.8392333984375 921.8516845703125 185.8488464355469 922.602294921875 185.858154296875 L 923.1134033203125 185.8631744384766 C 923.809326171875 185.8701782226563 924.5289306640625 185.8773956298828 925.2672729492188 185.8773956298828 C 928.6243286132813 185.8773956298828 931.0658569335938 185.3884887695313 932.7315063476563 184.3827209472656 C 935.3976440429688 182.7728729248047 935.2584838867188 180.3615417480469 935.1356201171875 178.2340698242188 C 935.1118774414063 177.8554534912109 935.0900268554688 177.45263671875 935.0900268554688 177.0552978515625 C 935.0900268554688 175.6469879150391 935.5936279296875 175.0945281982422 935.8911743164063 174.9900817871094 C 935.9295654296875 174.9764251708984 936.072998046875 174.9344482421875 936.403076171875 174.9344482421875 C 936.87109375 174.9344482421875 937.9317626953125 175.0208435058594 939.7769165039063 175.5995025634766 C 940.9153442382813 175.9587707519531 942.4116821289063 176.3714599609375 943.8825073242188 176.3714294433594 C 944.6109619140625 176.3714141845703 945.2922973632813 176.2699279785156 945.9076538085938 176.0697784423828 C 948.2918701171875 175.2753143310547 948.4174194335938 173.5159606933594 948.5504150390625 171.6533050537109 L 948.5509643554688 171.6456604003906 L 948.55126953125 171.6380157470703 C 948.609375 170.2092742919922 948.8716430664063 168.7902069091797 949.3308715820313 167.4200134277344 C 949.7430419921875 166.2387847900391 950.3615112304688 165.1285095214844 951.1690673828125 164.1201324462891 L 951.1716918945313 164.1168518066406 L 951.17431640625 164.1135101318359 C 951.7052612304688 163.4270629882813 952.2278442382813 162.6087951660156 952.0782470703125 161.7443237304688 C 951.8966674804688 160.6948699951172 950.8438720703125 159.8629608154297 948.552734375 158.3951721191406 C 944.7072143554688 155.9311828613281 940.0616455078125 154.6818084716797 934.7451171875 154.6818084716797 C 932.0634155273438 154.6818084716797 929.2171020507813 155.0076446533203 926.28515625 155.6502990722656 L 926.2767333984375 155.6521453857422 L 926.268310546875 155.6542816162109 C 925.0449829101563 155.9671020507813 923.7847900390625 156.1788024902344 922.5182495117188 156.2844390869141 C 922.3140258789063 155.8882904052734 922.0825805664063 154.8053741455078 921.9642333984375 154.2512054443359 L 921.9568481445313 154.2168121337891 L 921.7227783203125 153.1319274902344 L 921.7221069335938 153.1289825439453 L 921.721435546875 153.1260528564453 C 920.7317504882813 148.7937622070313 920.1343994140625 146.1788330078125 914.4805908203125 142.5464324951172 C 913.4949951171875 141.9161376953125 912.9755859375 141.3176422119141 913.156494140625 141.0211181640625 C 913.497314453125 140.4581756591797 915.4042358398438 139.7220458984375 918.268798828125 139.4636840820313 C 920.62158203125 139.2541046142578 921.6476440429688 138.364013671875 922.0498657226563 137.8520812988281 C 923.2647705078125 136.3252563476563 922.2459106445313 134.5192108154297 921.3736572265625 133.2937622070313 C 920.140380859375 131.56103515625 918.0231323242188 129.4910888671875 915.7781372070313 127.3448867797852 L 915.772216796875 127.3392105102539 L 915.7660522460938 127.333740234375 C 914.6303100585938 126.3171920776367 913.5633544921875 125.2205963134766 912.594482421875 124.0739364624023 C 912.3992309570313 123.7720489501953 912.1609497070313 122.9942092895508 912.63427734375 121.1102523803711 C 912.9503173828125 119.8524932861328 913.5287475585938 118.3497543334961 914.27294921875 116.8485794067383 C 915.349609375 116.9252319335938 916.3036499023438 116.9736938476563 917.1802368164063 116.996337890625 C 918.3727416992188 117.0258483886719 920.1212768554688 117.0538330078125 922.1458740234375 117.0862503051758 L 922.9066162109375 117.0984268188477 C 926.7456665039063 117.1547012329102 934.7325439453125 117.2717590332031 942.1644287109375 117.5663757324219 C 953.3931274414063 118.0114822387695 956.7778930664063 118.6053009033203 957.64013671875 119.0250701904297 L 957.6424560546875 119.0261917114258 L 957.644775390625 119.0272827148438 C 959.0813598632813 119.7084197998047 960.607177734375 120.2376937866211 962.1797485351563 120.6004028320313 C 962.9855346679688 120.8032836914063 963.5161743164063 120.9372711181641 963.9398803710938 121.2569046020508 C 964.3762817382813 121.586067199707 964.7669677734375 122.1707382202148 965.246337890625 123.2118835449219 C 967.1476440429688 127.3545227050781 968.2864990234375 128.5755462646484 972.1656494140625 128.6843109130859 L 972.6126708984375 128.6986541748047 C 973.687744140625 129.0887145996094 974.544921875 129.855224609375 974.9725341796875 130.8116302490234 C 975.41357421875 131.9081268310547 976.702880859375 132.9959869384766 978.5123291015625 133.7977142333984 C 980.4412841796875 134.6523895263672 982.822509765625 135.1230316162109 985.2174072265625 135.1229248046875 C 985.8197021484375 135.1229095458984 986.4307250976563 135.0937042236328 987.033447265625 135.0361328125 C 990.0166625976563 134.7569732666016 1000.974426269531 134.3338775634766 1010.320739746094 134.0280456542969 C 1011.534729003906 135.2374725341797 1013.700378417969 135.9266052246094 1016.31591796875 135.9266052246094 C 1019.895874023438 135.9266052246094 1021.908874511719 136.4573364257813 1022.544860839844 136.9118347167969 L 1022.554504394531 136.918701171875 L 1022.564453125 136.9251098632813 C 1022.803771972656 137.07958984375 1022.888549804688 137.3463439941406 1022.770568847656 137.5737915039063 L 1022.75830078125 137.5974273681641 L 1022.748657226563 137.6222534179688 C 1022.565490722656 138.0916137695313 1022.255981445313 138.5228271484375 1021.853576660156 138.8692779541016 L 1021.841247558594 138.8798980712891 L 1021.82958984375 138.8912963867188 C 1021.401000976563 139.3119201660156 1020.263610839844 140.4279632568359 1021.413513183594 141.6197509765625 C 1022.462219238281 142.6961059570313 1023.633666992188 142.6961059570313 1028.56396484375 142.6961059570313 L 1028.650512695313 142.6961059570313 L 1028.73876953125 142.6961059570313 L 1030.539672851563 142.6961059570313 L 1030.551147460938 142.6961059570313 L 1030.5625 142.6955718994141 C 1030.85009765625 142.6824188232422 1031.141845703125 142.6757354736328 1031.4296875 142.6757354736328 C 1033.581176757813 142.6757354736328 1035.685913085938 143.0356903076172 1037.685424804688 143.7455749511719 L 1037.688232421875 143.74658203125 L 1037.691040039063 143.7475433349609 C 1038.912475585938 144.1648254394531 1040.247314453125 144.5722503662109 1041.947998046875 144.5722351074219 C 1043.409423828125 144.5722351074219 1045.0234375 144.2862854003906 1047.027221679688 143.6723785400391 C 1048.23828125 143.3010559082031 1048.942626953125 143.2230987548828 1049.3203125 143.2230987548828 C 1049.579467773438 143.2230987548828 1049.681884765625 143.2601013183594 1049.686157226563 143.2616729736328 C 1049.983154296875 143.3740234375 1050.707275390625 144.1678161621094 1050.462036132813 146.4489593505859 C 1050.387451171875 147.1517333984375 1048.719604492188 149.1212615966797 1045.245361328125 151.3014678955078 C 1043.061767578125 152.6718139648438 1038.6064453125 155.0667877197266 1033.302368164063 155.71044921875 C 1027.751953125 156.3852996826172 1023.699645996094 157.6750183105469 1021.257934570313 159.5437774658203 C 1019.044921875 161.2375030517578 1018.580383300781 163.081787109375 1018.580383300781 164.3307037353516 C 1018.580383300781 165.1101531982422 1017.823608398438 166.4052276611328 1017.155883789063 167.5478363037109 C 1015.819213867188 169.8312530517578 1014.303894042969 172.4197082519531 1016.160461425781 174.5942687988281 L 1016.163818359375 174.5982360839844 L 1016.167297363281 174.6021270751953 C 1016.635925292969 175.1283721923828 1017.143920898438 175.6356811523438 1017.677124023438 176.1099243164063 L 1017.680053710938 176.1125335693359 L 1017.683044433594 176.1150970458984 C 1017.828857421875 176.2407379150391 1017.969970703125 176.3714752197266 1018.105590820313 176.5065155029297 C 1017.825988769531 176.6001892089844 1017.540100097656 176.6791687011719 1017.250244140625 176.7427062988281 L 1017.2431640625 176.7442474365234 L 1017.236083984375 176.7460174560547 C 1012.683166503906 177.8837890625 1010.562683105469 179.2278137207031 1010.562683105469 180.9756774902344 C 1010.562683105469 182.5744781494141 1012.353820800781 183.8002471923828 1016.038513183594 184.7230377197266 C 1018.093444824219 185.2359008789063 1019.088500976563 185.6644439697266 1019.587890625 186.2515716552734 C 1020.087646484375 186.8391418457031 1020.179077148438 187.7143402099609 1020.179077148438 189.2263031005859 C 1020.179077148438 192.8414611816406 1027.153564453125 196.65869140625 1031.320678710938 198.9393920898438 L 1031.3251953125 198.9418182373047 L 1031.393310546875 198.9791870117188 C 1031.859130859375 199.2343139648438 1032.22705078125 199.4358520507813 1032.4091796875 199.5528411865234 L 1033.315795898438 200.1296234130859 L 1033.353393554688 200.2231597900391 C 1032.64111328125 201.1305694580078 1030.50732421875 202.3868560791016 1026.436645507813 203.4034881591797 C 1026.004028320313 203.5119018554688 1025.585083007813 203.6155395507813 1025.180297851563 203.7157287597656 C 1020.606506347656 204.847412109375 1017.845764160156 205.5304870605469 1017.460510253906 207.566650390625 C 1017.206665039063 208.9079742431641 1015.9013671875 210.9034118652344 1013.345825195313 210.9034118652344 C 1013.345642089844 210.9034118652344 1013.345520019531 210.9034118652344 1013.345397949219 210.9034118652344 C 1012.707153320313 210.9033508300781 1012.018493652344 210.7790374755859 1011.298583984375 210.5338897705078 C 1010.892944335938 210.395751953125 1010.537231445313 210.2702484130859 1010.223388671875 210.1595001220703 C 1009.10107421875 209.7635040283203 1008.482849121094 209.5453643798828 1007.853576660156 209.5453643798828 C 1007.017578125 209.5453643798828 1006.351013183594 209.9296417236328 1004.890563964844 210.7716674804688 C 1004.306457519531 211.1084442138672 1003.579467773438 211.527587890625 1002.652160644531 212.0323333740234 C 997.4877319335938 214.8433227539063 985.08740234375 223.0735778808594 981.00927734375 227.4031982421875 C 979.31103515625 229.2059326171875 977.4212036132813 230.8719329833984 975.6880493164063 232.0942687988281 C 973.6986694335938 233.4972686767578 972.0308837890625 234.2388458251953 970.864990234375 234.2388458251953 Z" stroke="none"/>
      <path d="M 970.864990234375 233.7388458251953 C 971.9119873046875 233.7388458251953 973.5225219726563 233.0096893310547 975.39990234375 231.6856689453125 C 977.1065063476563 230.4820709228516 978.9693603515625 228.8394165039063 980.6453247070313 227.0603485107422 C 984.755615234375 222.6965789794922 997.22412109375 214.4175872802734 1002.4130859375 211.5931854248047 C 1003.335021972656 211.0913696289063 1004.05908203125 210.6739196777344 1004.640869140625 210.3385009765625 C 1006.134216308594 209.4775238037109 1006.8837890625 209.0453643798828 1007.853515625 209.0453643798828 C 1008.568420410156 209.0453643798828 1009.253967285156 209.2872467041016 1010.389709472656 209.6880035400391 C 1010.702331542969 209.7983093261719 1011.056701660156 209.92333984375 1011.459716796875 210.0605773925781 C 1012.127685546875 210.2880249023438 1012.762145996094 210.4033660888672 1013.345825195313 210.4033966064453 C 1015.597473144531 210.4033966064453 1016.746337890625 208.6513214111328 1016.96923828125 207.4736633300781 C 1017.414184570313 205.1222229003906 1020.292114257813 204.4101257324219 1025.060180664063 203.2303619384766 C 1025.464599609375 203.1303100585938 1025.882934570313 203.0267791748047 1026.3154296875 202.9183959960938 C 1029.736206054688 202.0640869140625 1031.729614257813 201.0503845214844 1032.61376953125 200.2755737304688 L 1032.138916015625 199.9735107421875 C 1031.971313476563 199.8658447265625 1031.591552734375 199.6578063964844 1031.151733398438 199.4169158935547 L 1031.085083007813 199.3804168701172 L 1031.08056640625 199.3779602050781 C 1029.088134765625 198.2874908447266 1026.359375 196.7940063476563 1024.071533203125 195.1170959472656 C 1021.115844726563 192.9507293701172 1019.679077148438 191.0238494873047 1019.679077148438 189.2263031005859 C 1019.679077148438 187.8363037109375 1019.606079101563 187.044677734375 1019.20703125 186.5755157470703 C 1018.787963867188 186.0828857421875 1017.835021972656 185.6867370605469 1015.917053222656 185.2080383300781 C 1014.104248046875 184.7540588378906 1012.759155273438 184.2366180419922 1011.804992675781 183.6261596679688 C 1010.648864746094 182.8865203857422 1010.062683105469 181.9947662353516 1010.062683105469 180.9756774902344 C 1010.062683105469 178.9356079101563 1012.23388671875 177.4822845458984 1017.102294921875 176.2640838623047 C 1016.642883300781 175.8410797119141 1016.203796386719 175.3949432373047 1015.793884277344 174.9346160888672 L 1015.786987304688 174.9268493652344 L 1015.780212402344 174.9188995361328 C 1014.83544921875 173.8123016357422 1014.572204589844 172.4607238769531 1014.997802734375 170.9017486572266 C 1015.333984375 169.6704254150391 1016.040893554688 168.4627838134766 1016.724182128906 167.2955627441406 C 1017.328430175781 166.2615966796875 1018.080383300781 164.9748229980469 1018.080383300781 164.3307037353516 C 1018.080383300781 162.9691162109375 1018.578918457031 160.9645080566406 1020.954040527344 159.1466979980469 C 1023.467590332031 157.2229766845703 1027.601806640625 155.8998565673828 1033.242065429688 155.2140808105469 C 1038.413330078125 154.5865631103516 1042.773315429688 152.2545013427734 1044.911987304688 150.9202423095703 C 1046.389526367188 149.9985198974609 1047.681274414063 149.0190277099609 1048.647705078125 148.0876770019531 C 1049.66455078125 147.10791015625 1049.943481445313 146.5329284667969 1049.964965820313 146.3955383300781 C 1050.177490234375 144.4182434082031 1049.609985351563 143.8246154785156 1049.504272460938 143.7332153320313 C 1049.470581054688 143.7286834716797 1049.410888671875 143.7231292724609 1049.3203125 143.7231292724609 C 1049.0390625 143.7231292724609 1048.386474609375 143.7786254882813 1047.173706054688 144.1504364013672 C 1045.12109375 144.779296875 1043.460571289063 145.0722198486328 1041.947998046875 145.0722503662109 C 1040.170776367188 145.0722503662109 1038.790649414063 144.6515808105469 1037.529418945313 144.220703125 L 1037.523681640625 144.2187805175781 L 1037.51806640625 144.2167663574219 C 1035.572509765625 143.5260009765625 1033.524047851563 143.1757507324219 1031.4296875 143.1757507324219 C 1031.149291992188 143.1757507324219 1030.865234375 143.1822357177734 1030.58544921875 143.195068359375 L 1030.562622070313 143.1961059570313 L 1030.539672851563 143.1961059570313 L 1028.73876953125 143.1961059570313 L 1028.56396484375 143.1961059570313 C 1023.588500976563 143.1961059570313 1022.251281738281 143.1961059570313 1021.0537109375 141.9669494628906 C 1020.428039550781 141.3184967041016 1020.25634765625 140.5018463134766 1020.582580566406 139.7263793945313 C 1020.806091308594 139.1950988769531 1021.211059570313 138.7977600097656 1021.479431152344 138.534423828125 L 1021.502685546875 138.5116271972656 L 1021.52734375 138.4904022216797 C 1021.868041992188 138.1970367431641 1022.129272460938 137.8339996337891 1022.282836914063 137.4405212402344 L 1022.302429199219 137.3903961181641 L 1022.316467285156 137.3633270263672 C 1022.311157226563 137.3581390380859 1022.303588867188 137.3518524169922 1022.293273925781 137.3451843261719 L 1022.2734375 137.3323669433594 L 1022.254211425781 137.3186492919922 C 1021.822387695313 137.0101013183594 1020.025573730469 136.4266052246094 1016.31591796875 136.4266052246094 C 1013.678466796875 136.4266052246094 1011.459777832031 135.7424011230469 1010.12841796875 134.5346374511719 C 1000.835815429688 134.8396453857422 990.0301513671875 135.2579040527344 987.0809326171875 135.5338897705078 C 986.4623413085938 135.5929412841797 985.8353881835938 135.6229095458984 985.2174072265625 135.6229248046875 C 982.7542724609375 135.623046875 980.3010864257813 135.1371765136719 978.3097534179688 134.2548370361328 C 976.359130859375 133.3905334472656 975.0117797851563 132.2380981445313 974.5125122070313 131.0077514648438 C 974.1484375 130.19970703125 973.4257202148438 129.5459442138672 972.5145874023438 129.1957550048828 L 972.1516723632813 129.1840972900391 C 968.0660400390625 129.069580078125 966.7305908203125 127.6444244384766 964.7921142578125 123.4210052490234 C 964.3497314453125 122.4599609375 964.0047607421875 121.9321441650391 963.6387939453125 121.6560821533203 C 963.2965087890625 121.3978881835938 962.832763671875 121.2804107666016 962.0626831054688 121.0865173339844 C 960.45654296875 120.7157211303711 958.8980712890625 120.1749114990234 957.4305419921875 119.4790802001953 L 957.4259033203125 119.4768600463867 L 957.4212646484375 119.4746246337891 C 957.1476440429688 119.3414001464844 956.0830078125 118.9938659667969 952.1171264648438 118.6450042724609 C 949.594970703125 118.4231262207031 946.23974609375 118.2283248901367 942.1445922851563 118.0659866333008 C 934.7192993164063 117.7716445922852 926.7363891601563 117.6546249389648 922.8986206054688 117.5983810424805 L 922.1378784179688 117.586181640625 C 920.1121215820313 117.5537643432617 918.3626098632813 117.5257415771484 917.1673583984375 117.4961624145508 C 916.3758544921875 117.4757232666016 915.5224609375 117.4344711303711 914.5744018554688 117.3706741333008 C 913.9164428710938 118.7390899658203 913.4058837890625 120.0911407470703 913.1192016601563 121.2321014404297 C 912.6773681640625 122.9909515380859 912.91162109375 123.6206207275391 913.0013427734375 123.7807159423828 C 913.9486694335938 124.8990249633789 914.9907836914063 125.9688034057617 916.0995483398438 126.9611663818359 L 916.1117553710938 126.9721221923828 L 916.1236572265625 126.9834671020508 C 918.38671875 129.1469421386719 920.5223388671875 131.2353668212891 921.7810668945313 133.0038299560547 C 922.33740234375 133.7854919433594 924.0299682617188 136.1638488769531 922.4405517578125 138.1641693115234 C 921.9867553710938 138.7400665283203 920.8485717773438 139.7358703613281 918.313720703125 139.961669921875 C 917.0404663085938 140.0765075683594 915.88427734375 140.2923583984375 914.97021484375 140.5859069824219 C 914.2044677734375 140.8318176269531 913.817138671875 141.0702209472656 913.66064453125 141.2024688720703 C 913.7694702148438 141.365966796875 914.0719604492188 141.6916351318359 914.7508544921875 142.1257781982422 C 920.576416015625 145.8684844970703 921.1908569335938 148.5583190917969 922.2088623046875 153.0147094726563 L 922.210205078125 153.0205841064453 L 922.2114868164063 153.0264587402344 L 922.44580078125 154.1123046875 L 922.4532470703125 154.1469573974609 C 922.5407104492188 154.5562744140625 922.6989135742188 155.2967071533203 922.8462524414063 155.7522583007813 C 923.9603881835938 155.6406707763672 925.0671997070313 155.4453430175781 926.14453125 155.1698760986328 L 926.1612548828125 155.1655883789063 L 926.1781005859375 155.1618804931641 C 929.1452026367188 154.5115509033203 932.027587890625 154.1818084716797 934.7451171875 154.1818084716797 C 940.1588134765625 154.1818084716797 944.8951416015625 155.4577484130859 948.8224487304688 157.9741668701172 C 950.9993896484375 159.3687591552734 952.3379516601563 160.3126983642578 952.5709228515625 161.6590881347656 C 952.7536010742188 162.7147674560547 952.1673583984375 163.6468658447266 951.56982421875 164.4194183349609 L 951.5646362304688 164.4261016845703 L 951.559326171875 164.4327087402344 C 950.7879638671875 165.3959503173828 950.1973266601563 166.4555358886719 949.8038330078125 167.5821838378906 C 949.3603515625 168.9065704345703 949.1069946289063 170.2779693603516 949.0509033203125 171.6583404541016 L 949.0502319335938 171.6736450195313 L 949.0491333007813 171.6889038085938 C 948.9168090820313 173.5428161621094 948.7667846679688 175.6441040039063 946.0691528320313 176.5430297851563 L 946.0657348632813 176.5441589355469 L 946.0623168945313 176.5452575683594 C 945.3969116210938 176.7616882324219 944.6635131835938 176.8714294433594 943.8825073242188 176.8714294433594 C 942.3434448242188 176.8714599609375 940.799072265625 176.4463806152344 939.6272583007813 176.0765838623047 C 937.7792358398438 175.4970245361328 936.7568359375 175.4344635009766 936.403076171875 175.4344635009766 C 936.1708374023438 175.4344635009766 936.0709228515625 175.4581756591797 936.0570068359375 175.4618225097656 C 935.9630737304688 175.5011901855469 935.5900268554688 175.9042053222656 935.5900268554688 177.0552978515625 C 935.5900268554688 177.4384765625 935.6113891601563 177.8320465087891 935.634521484375 178.2002563476563 L 935.6347045898438 178.2027587890625 L 935.6348266601563 178.2052612304688 C 935.75927734375 180.3615264892578 935.9142456054688 183.0450439453125 932.9899291992188 184.8107452392578 C 931.2440795898438 185.8649444580078 928.7179565429688 186.3774108886719 925.2672729492188 186.3774108886719 C 924.5264282226563 186.3774108886719 923.8055419921875 186.3701629638672 923.1083984375 186.3631591796875 L 922.5961303710938 186.3581237792969 C 921.8473510742188 186.3488464355469 921.0731201171875 186.3392486572266 920.34912109375 186.3392486572266 C 918.384765625 186.3392486572266 916.2579345703125 186.4068603515625 915.3804931640625 186.9065704345703 C 914.7034912109375 187.2953796386719 914.3602294921875 188.2454071044922 914.3602294921875 189.7302093505859 L 914.3602294921875 189.7425842285156 L 914.3599243164063 189.7549591064453 C 914.3216552734375 191.3011016845703 914.7056884765625 192.8539276123047 915.4705200195313 194.2455444335938 L 915.479736328125 194.2622833251953 L 915.48828125 194.2793426513672 C 916.5911254882813 196.4810485839844 917.1133422851563 198.3076477050781 913.76953125 201.7774658203125 C 910.6024169921875 205.0634918212891 909.3578491210938 210.9592437744141 909.0194091796875 212.9222869873047 C 909.5252685546875 213.1557006835938 909.9824829101563 213.4722747802734 910.3685913085938 213.8594207763672 L 910.3770141601563 213.8678436279297 L 910.3851928710938 213.8764190673828 C 910.6134033203125 214.1164093017578 911.0475463867188 214.2330474853516 911.7124633789063 214.2330474853516 C 912.6864624023438 214.2330474853516 913.9953002929688 213.9718170166016 915.3810424804688 213.6952667236328 C 917.1903076171875 213.3341827392578 919.240966796875 212.9249267578125 921.2883911132813 212.9249267578125 C 921.4940185546875 212.9249267578125 921.6987915039063 212.9291076660156 921.89697265625 212.9373626708984 C 923.06787109375 212.9862060546875 924.4863891601563 213.1819610595703 925.0671997070313 214.2713623046875 C 925.7432250976563 215.5392303466797 924.86181640625 216.9786071777344 923.6419067382813 218.9707794189453 C 923.000732421875 220.017822265625 922.2741088867188 221.2045593261719 921.693603515625 222.5042877197266 C 921.1320190429688 223.7618103027344 920.573974609375 225.1207580566406 920.6935424804688 225.6654815673828 C 920.7616577148438 225.9760894775391 921.24951171875 226.2931060791016 922.1782836914063 226.8728637695313 C 922.6408081054688 227.1615905761719 923.2164306640625 227.5209045410156 923.8619384765625 227.97314453125 C 924.6961059570313 228.5576477050781 925.9255981445313 228.85400390625 927.5162353515625 228.85400390625 C 931.7255859375 228.85400390625 936.8486938476563 226.8226623535156 938.318603515625 226.2001037597656 C 939.3089599609375 225.7805786132813 940.26025390625 225.4359588623047 941.0995483398438 225.1319274902344 C 942.336669921875 224.6837463378906 943.4050903320313 224.2967071533203 944.096435546875 223.8547821044922 C 944.7466430664063 223.4391784667969 944.8798828125 223.1024780273438 944.8798828125 222.7248077392578 C 944.8798828125 221.6310882568359 945.0786743164063 220.2963104248047 946.628662109375 219.6775970458984 C 947.6141967773438 219.2842254638672 949.0206298828125 219.2149963378906 951.6113891601563 219.2149963378906 C 955.708984375 219.2149963378906 956.645263671875 218.2543029785156 957.9410400390625 216.9246215820313 L 958.0679931640625 216.7945098876953 C 959.201171875 215.6348876953125 961.33544921875 214.9419403076172 962.7442016601563 214.9419403076172 C 964.5319213867188 214.9419403076172 965.1661987304688 215.9775695800781 965.1661987304688 216.8644104003906 C 965.1661987304688 217.9029998779297 965.3311767578125 218.2710571289063 969.3274536132813 220.6065216064453 C 973.7015991210938 223.1627960205078 972.4644775390625 225.8782043457031 971.7252807617188 227.5006256103516 C 971.6566162109375 227.6513061523438 971.591796875 227.7936401367188 971.5333862304688 227.9301300048828 C 971.315673828125 228.4387054443359 970.9735107421875 228.9384613037109 970.6112670898438 229.4675903320313 C 969.3985595703125 231.23876953125 968.9371337890625 232.2016448974609 969.941162109375 233.3751373291016 C 970.07470703125 233.5312805175781 970.3157958984375 233.7388458251953 970.864990234375 233.7388458251953 M 970.864990234375 234.7388458251953 C 970.1815795898438 234.7388458251953 969.6046752929688 234.5201568603516 969.1812744140625 234.0252075195313 C 967.0319213867188 231.5130004882813 969.897705078125 229.210205078125 970.6140747070313 227.5366058349609 C 971.3303833007813 225.8628082275391 972.7631225585938 223.7725982666016 968.8228759765625 221.4699096679688 C 964.8825073242188 219.1670989990234 964.1661987304688 218.5348052978516 964.1661987304688 216.8644104003906 C 964.1661987304688 216.2121734619141 963.5639038085938 215.9419555664063 962.7442016601563 215.9419555664063 C 961.464599609375 215.9419555664063 959.6554565429688 216.600830078125 958.783203125 217.493408203125 C 957.3519897460938 218.9575958251953 956.268310546875 220.2149963378906 951.6113891601563 220.2149963378906 C 946.9547119140625 220.2149963378906 945.8798828125 220.4219970703125 945.8798828125 222.7248077392578 C 945.8798828125 225.0274963378906 942.6541137695313 225.4496002197266 938.7086181640625 227.1209106445313 C 935.9617309570313 228.2843322753906 931.3028564453125 229.8539886474609 927.5162353515625 229.8539886474609 C 925.8636474609375 229.8539886474609 924.37646484375 229.5546875 923.2880859375 228.7920989990234 C 919.7059936523438 226.2825012207031 918.6312255859375 226.9091033935547 920.780517578125 222.0964965820313 C 922.9298706054688 217.2839965820313 926.8782958984375 214.14599609375 921.8552856445313 213.9365081787109 C 921.666748046875 213.9286499023438 921.4777221679688 213.9249114990234 921.2883911132813 213.9249114990234 C 917.7427368164063 213.9249114990234 914.09423828125 215.2330322265625 911.7124633789063 215.2330322265625 C 910.8328247070313 215.2330322265625 910.12548828125 215.0544281005859 909.6605834960938 214.5655975341797 C 909.1928100585938 214.0966033935547 908.584716796875 213.7568969726563 907.9091186523438 213.5867004394531 L 907.92431640625 213.4542999267578 C 907.9342041015625 213.3749084472656 908.9747924804688 205.3112030029297 913.0494995117188 201.08349609375 C 916.0100708007813 198.0113983154297 915.5667724609375 196.6688995361328 914.5941772460938 194.7272033691406 C 913.7409057617188 193.1746978759766 913.3173828125 191.4605102539063 913.3602294921875 189.7302093505859 C 913.3602294921875 187.8621978759766 913.8698120117188 186.6210021972656 914.8825073242188 186.0393981933594 C 915.9150390625 185.4513549804688 917.8577270507813 185.3392486572266 920.34912109375 185.3392486572266 C 921.0602416992188 185.3392486572266 921.8165283203125 185.348388671875 922.6085205078125 185.3582000732422 C 923.4608764648438 185.3661956787109 924.35009765625 185.3774108886719 925.2672729492188 185.3774108886719 C 928.53271484375 185.3774108886719 930.8878173828125 184.9118957519531 932.4730224609375 183.9546966552734 C 934.8792724609375 182.5018005371094 934.7601928710938 180.4058990478516 934.636474609375 178.2629089355469 C 934.6113891601563 177.8632965087891 934.5900268554688 177.4564056396484 934.5900268554688 177.0552978515625 C 934.5900268554688 175.4811096191406 935.1748046875 174.7116088867188 935.7255859375 174.518310546875 C 935.8720703125 174.4660949707031 936.0979614257813 174.4344635009766 936.403076171875 174.4344635009766 C 937.1295166015625 174.4344635009766 938.304931640625 174.6138763427734 939.926513671875 175.1224060058594 C 941.1658935546875 175.5135345458984 942.5410766601563 175.8714752197266 943.8825073242188 175.8714294433594 C 944.5196533203125 175.8714141845703 945.1493530273438 175.7906341552734 945.7529907226563 175.5942993164063 C 947.8143920898438 174.9074096679688 947.9193725585938 173.4712066650391 948.0516967773438 171.6177062988281 C 948.11181640625 170.1394958496094 948.3828125 168.6743011474609 948.85791015625 167.2577056884766 C 949.2883911132813 166.0232086181641 949.9371948242188 164.8585052490234 950.77880859375 163.8076019287109 C 952.3699951171875 161.7503967285156 951.7271118164063 161.0225982666016 948.2830200195313 158.8161773681641 C 944.519287109375 156.4045867919922 939.928466796875 155.1818084716797 934.7451171875 155.1818084716797 C 932.1043090820313 155.1818084716797 929.3093872070313 155.4992980957031 926.3922119140625 156.1387023925781 C 925.0554809570313 156.4804992675781 923.6843872070313 156.7031097412109 922.2988891601563 156.8030090332031 C 921.9412231445313 156.5527038574219 921.68359375 155.3305969238281 921.4678955078125 154.3213043212891 L 921.2340087890625 153.2373962402344 C 920.2398071289063 148.8852996826172 919.6917114257813 146.4887084960938 914.2103271484375 142.9671020507813 C 913.283203125 142.3742065429688 912.27392578125 141.5077056884766 912.7296752929688 140.7606964111328 C 913.2285766601563 139.9365997314453 915.4387817382813 139.2169036865234 918.223876953125 138.9656982421875 C 920.385009765625 138.7732086181641 921.3054809570313 137.9902038574219 921.6566772460938 137.5431976318359 C 923.291015625 135.4891967773438 920.256103515625 132.3175048828125 915.4326171875 127.7063064575195 C 914.2684936523438 126.6644058227539 913.186279296875 125.5511016845703 912.1942138671875 124.3749008178711 C 911.2620239257813 123.0133056640625 912.4127807617188 119.3889999389648 913.976318359375 116.3255996704102 C 915.1890258789063 116.4163055419922 916.2332153320313 116.4717025756836 917.1931762695313 116.4965057373047 C 918.5264892578125 116.5295028686523 920.513671875 116.5599060058594 922.9146728515625 116.598503112793 C 930.7946166992188 116.7140045166016 954.7720947265625 117.0727005004883 957.8590087890625 118.5755004882813 C 959.2659301757813 119.2425994873047 960.755615234375 119.7592010498047 962.2974243164063 120.1144027709961 C 963.998779296875 120.5428009033203 964.6419067382813 120.7033996582031 965.7005004882813 123.002799987793 C 967.529296875 126.9874038696289 968.5447998046875 128.0825958251953 972.1796875 128.1845092773438 L 972.7061767578125 128.2014007568359 C 973.9514770507813 128.6307067871094 974.940185546875 129.5065002441406 975.4332885742188 130.6172027587891 C 976.1972045898438 132.538330078125 980.1588745117188 134.6231536865234 985.2174072265625 134.6229248046875 C 985.7933959960938 134.6228942871094 986.384521484375 134.5958251953125 986.9859008789063 134.5384063720703 C 990.0208129882813 134.2544097900391 1001.3046875 133.8218078613281 1010.52880859375 133.52099609375 C 1011.599975585938 134.7205047607422 1013.708801269531 135.4266052246094 1016.31591796875 135.4266052246094 C 1020.006408691406 135.4266052246094 1022.105590820313 135.9833984375 1022.835571289063 136.5050048828125 C 1023.293212890625 136.8003997802734 1023.452209472656 137.3455047607422 1023.214416503906 137.8040008544922 C 1023.000793457031 138.3515014648438 1022.646606445313 138.8462982177734 1022.179809570313 139.2481994628906 C 1021.726806640625 139.6927032470703 1020.967407226563 140.4373016357422 1021.773315429688 141.2725982666016 C 1022.667785644531 142.1906433105469 1023.774963378906 142.1961059570313 1028.56396484375 142.1961059570313 C 1028.621704101563 142.1961059570313 1028.680053710938 142.1961059570313 1028.73876953125 142.1961059570313 L 1030.539672851563 142.1961059570313 C 1030.836547851563 142.1825103759766 1031.133056640625 142.1757354736328 1031.4296875 142.1757354736328 C 1033.626098632813 142.1757354736328 1035.805908203125 142.5477142333984 1037.852661132813 143.2743988037109 C 1039.172729492188 143.7253570556641 1040.38720703125 144.0722503662109 1041.947998046875 144.0722351074219 C 1043.2587890625 144.0722351074219 1044.81396484375 143.8275299072266 1046.880737304688 143.1943054199219 C 1048.112060546875 142.8167877197266 1048.870483398438 142.7231140136719 1049.3203125 142.7231140136719 C 1049.624877929688 142.7231140136719 1049.787963867188 142.76611328125 1049.8603515625 142.7929992675781 C 1050.39306640625 142.9945068359375 1051.227783203125 144.0037994384766 1050.959228515625 146.5024108886719 C 1050.736206054688 148.6013031005859 1042.519653320313 155.0955963134766 1033.362548828125 156.2068023681641 C 1020.936828613281 157.7176055908203 1019.080383300781 161.9454040527344 1019.080383300781 164.3307037353516 C 1019.080383300781 165.2407073974609 1018.328918457031 166.5315093994141 1017.587585449219 167.8001098632813 C 1016.27197265625 170.0475006103516 1014.918579101563 172.3695983886719 1016.540710449219 174.2696075439453 C 1016.998291015625 174.7834777832031 1017.488586425781 175.2731018066406 1018.009399414063 175.7362976074219 C 1018.358215332031 176.0368041992188 1018.679321289063 176.3621978759766 1018.969421386719 176.7095031738281 C 1018.454284667969 176.9343109130859 1017.913879394531 177.1091003417969 1017.357299804688 177.2311096191406 C 1013.122497558594 178.2893981933594 1011.062683105469 179.5138092041016 1011.062683105469 180.9756774902344 C 1011.062683105469 182.2940063476563 1012.780212402344 183.3916015625 1016.159973144531 184.2380065917969 C 1020.291198730469 185.2691040039063 1020.679077148438 186.0498046875 1020.679077148438 189.2263031005859 C 1020.679077148438 192.5464019775391 1027.68017578125 196.3769073486328 1031.565185546875 198.5032043457031 C 1032.079223632813 198.7848052978516 1032.473388671875 198.9998016357422 1032.679443359375 199.1322021484375 L 1033.719970703125 199.7940979003906 L 1033.9169921875 200.28515625 C 1033.259765625 201.3911895751953 1030.962158203125 202.7886047363281 1026.557739257813 203.8886108398438 C 1021.533874511719 205.1475982666016 1018.30810546875 205.7765960693359 1017.951782226563 207.6596069335938 C 1017.662658691406 209.1875152587891 1016.188354492188 211.4036560058594 1013.345336914063 211.4034118652344 C 1012.684265136719 211.4033508300781 1011.94873046875 211.2834625244141 1011.137390136719 211.0072021484375 C 1009.35595703125 210.4006195068359 1008.558837890625 210.0453643798828 1007.853515625 210.0453643798828 C 1006.856262207031 210.0453643798828 1006.042785644531 210.7560577392578 1002.891174316406 212.4714965820313 C 997.5109252929688 215.4000091552734 985.3161010742188 223.5599975585938 981.3732299804688 227.7460021972656 C 978.2069091796875 231.1071929931641 973.6502685546875 234.7388458251953 970.864990234375 234.7388458251953 Z" stroke="none" fill="#30abec"/>
    </g>
    <text id="fengjiexian" transform="translate(161.672 119.42)" fill="#fff" font-size="10" font-family="MicrosoftYaHei, Microsoft YaHei"><tspan x="-15" y="0">奉节县</tspan></text>
    <g transform="matrix(1, 0, 0, 1, 64.51, 42.19)" filter="url(#thick_2)">
      <path id="thick_2-2" data-name="thick_2" d="M-2382.863,147.473a2.107,2.107,0,0,1-1.683-.713,2.823,2.823,0,0,1-.717-2.521c-.04-.25.281-9.821.289-9.886,0-.035,0-.069,0-.1v-.018c0-.018,0-.036,0-.054a21.062,21.062,0,0,1-3.75-2.505,2.546,2.546,0,0,1-.84-2.054c0-.6-.5-.924-1.418-.924a6.315,6.315,0,0,0-3.955,1.551l-.131.134c-1.352,1.385-2.519,2.582-7.032,2.582-3.951,0-5.36.138-5.661,1.679l0,.045c0,.079-.008.169-.008.266a2.108,2.108,0,0,1-.059.484c0,.006,0,.012,0,.018s0,.012,0,.018c0,1.734-1.857,2.407-4.427,3.338-.829.3-1.767.64-2.737,1.051-1.514.641-6.8,2.733-11.184,2.733a7.31,7.31,0,0,1-4.226-1.062c-.618-.433-1.154-.769-1.627-1.064-1.51-.945-2.2-1.376-1.914-2.812,0-.008,0-.016,0-.024v-.006c0-.01,0-.019,0-.029-.041-.2.3-10.174.307-10.25a2.185,2.185,0,0,1,0-.446,1.215,1.215,0,0,1,0-.124v-.044a37.72,37.72,0,0,0-4.468.7,21.869,21.869,0,0,1-3.861.555,2.674,2.674,0,0,1-2.054-.668,5.111,5.111,0,0,0-1.961-1.3c0-.02,0-.291,0-.749-.02-9.166-.021-14.215,0-15.006.126.032.246.069.358.109l.431.265c.133.033.218.056.284.076a3.641,3.641,0,0,1,.472.344c.064.072.126.139.2.209a2.666,2.666,0,0,0,2.05.667,21.827,21.827,0,0,0,3.864-.557l.488-.1a27.178,27.178,0,0,1,5.222-.653c.192,0,.384,0,.57.012,1.679.07,2.431.461,2.439,1.267a8.234,8.234,0,0,1-1.505,3.217,31.8,31.8,0,0,0-2.009,3.649,9.408,9.408,0,0,0-1.1,3.414c-.007,1,.7,1.441,1.97,2.237.476.3,1.015.634,1.64,1.071a7.315,7.315,0,0,0,4.228,1.062c4.4,0,9.679-2.092,11.192-2.733.968-.41,1.9-.749,2.731-1.049,2.578-.934,4.44-1.608,4.44-3.348,0-1.218.3-1.792,1.12-2.118a14.554,14.554,0,0,1,4.612-.391c4.52,0,5.69-1.2,7.045-2.593l.126-.129a6.316,6.316,0,0,1,3.962-1.551c.917,0,1.422.328,1.422.922,0,1.638.609,2.24,4.657,4.605,1.773,1.037,2.638,2.141,2.644,3.377a5.558,5.558,0,0,1-.652,2.212l-.013.028c-.066.146-.129.285-.188.423a8.8,8.8,0,0,1-.828,1.366,6.032,6.032,0,0,0-1.39,3.2,2.915,2.915,0,0,0,.785,1.953,2.107,2.107,0,0,0,1.684.714c2.708,0,7.229-3.512,10.508-6.992,4.042-4.294,16.375-12.476,21.517-15.275.935-.509,1.664-.929,2.25-1.267,1.381-.8,2.01-1.159,2.713-1.159a7.289,7.289,0,0,1,2.2.585l.007,0c.314.111.669.236,1.075.374a6.884,6.884,0,0,0,2.208.4,4.672,4.672,0,0,0,4.606-3.744c.153-.809.827-1.419,2.184-1.976a40.877,40.877,0,0,1,5.166-1.483l.022-.005,1.235-.307a19.872,19.872,0,0,0,5.313-1.947,6.22,6.22,0,0,0,1.844-1.4c.083-.077.167-.157.26-.246l-.252,15.632c-.814,1.942-2.458,2.884-7.034,4.029l-1.213.3-.05.012c-4.219,1.041-7.007,1.729-7.334,3.447a4.673,4.673,0,0,1-4.6,3.744,6.881,6.881,0,0,1-2.208-.4c-.41-.14-.763-.264-1.074-.374a7.322,7.322,0,0,0-2.211-.588c-.7,0-1.33.362-2.707,1.157-.589.34-1.318.76-2.25,1.268-5.136,2.8-17.458,10.971-21.5,15.259a37.134,37.134,0,0,1-5.392,4.75C-2379.828,146.7-2381.594,147.473-2382.863,147.473Z" transform="translate(2473.49 -1.19)" stroke="rgba(0,0,0,0)" stroke-width="1" fill="url(#linear-gradient-2)"/>
    </g>
  </g>
</svg>
