<svg xmlns="http://www.w3.org/2000/svg" xmlns:xlink="http://www.w3.org/1999/xlink" width="197.811" height="143.962" viewBox="0 0 197.811 143.962">
  <defs>
    <radialGradient id="radial-gradient" cx="0.483" cy="0.5" r="0.771" gradientTransform="translate(0.17 -0.069) scale(0.649 1.137)" gradientUnits="objectBoundingBox">
      <stop offset="0" stop-color="#1fb9e6"/>
      <stop offset="1" stop-color="#0669d2"/>
    </radialGradient>
    <linearGradient id="linear-gradient" x1="1.386" y1="0.883" x2="0.599" y2="0.238" gradientUnits="objectBoundingBox">
      <stop offset="0" stop-color="#191e64"/>
      <stop offset="1" stop-color="#17448b"/>
    </linearGradient>
    <filter id="thick_2" x="130.857" y="44.479" width="66.954" height="74.45" filterUnits="userSpaceOnUse">
      <feOffset dy="8" input="SourceAlpha"/>
      <feGaussianBlur stdDeviation="9" result="blur"/>
      <feFlood flood-color="#0f093c" flood-opacity="0.161"/>
      <feComposite operator="in" in2="blur"/>
      <feComposite in="SourceGraphic"/>
    </filter>
    <linearGradient id="linear-gradient-2" x1="0.474" y1="0.952" x2="0.5" y2="0.5" xlink:href="#linear-gradient"/>
    <filter id="thick_1" x="0" y="14.374" width="196.331" height="129.589" filterUnits="userSpaceOnUse">
      <feOffset dy="8" input="SourceAlpha"/>
      <feGaussianBlur stdDeviation="9" result="blur-2"/>
      <feFlood flood-color="#0f093c" flood-opacity="0.161"/>
      <feComposite operator="in" in2="blur-2"/>
      <feComposite in="SourceGraphic"/>
    </filter>
  </defs>
  <g id="fengdu" transform="translate(-57.99 -67.325)">
    <g id="Op_component_14" data-name="Op component 14" transform="translate(-512 -195)" opacity="0.67" fill="url(#radial-gradient)">
      <path d="M 669.0636596679688 353.9926452636719 C 667.5805053710938 353.4172058105469 666.19482421875 352.6653137207031 664.9379272460938 351.75341796875 L 664.9317016601563 351.7489013671875 L 664.9253540039063 351.7445678710938 C 664.1781005859375 351.2367553710938 663.4589233398438 350.6822509765625 662.7879028320313 350.0965270996094 L 662.7854614257813 350.0943908691406 L 662.782958984375 350.0922546386719 C 660.1109008789063 347.8205261230469 658.2605590820313 346.8952941894531 650.5966796875 346.8952941894531 C 650.0475463867188 346.8952941894531 649.52978515625 346.8888549804688 649.0524291992188 346.8761596679688 L 648.8936767578125 346.8240051269531 L 648.7880249023438 346.7892761230469 C 649.4257202148438 345.6499328613281 649.7868041992188 344.3882141113281 649.8372192382813 343.1111145019531 L 649.8375854492188 343.1012573242188 L 649.8375854492188 343.0914001464844 C 649.8375854492188 341.0987854003906 648.8983764648438 339.6516723632813 647.0460205078125 338.7902526855469 C 645.4962158203125 338.0695190429688 643.5504760742188 337.830322265625 641.6688232421875 337.5989990234375 L 641.6610107421875 337.5980224609375 L 641.6560668945313 337.5974426269531 L 641.651123046875 337.596923828125 C 639.8922729492188 337.4161071777344 638.1345825195313 337.1097106933594 636.4268188476563 336.6862487792969 C 634.6150512695313 336.2047729492188 634.1731567382813 335.412353515625 633.9906616210938 334.7756958007813 C 633.7129516601563 333.8068542480469 633.9136352539063 332.4443969726563 634.1840209960938 330.8934631347656 C 634.3920288085938 329.8616943359375 634.5153198242188 328.8082275390625 634.5504150390625 327.7621765136719 L 634.5507202148438 327.7537841796875 L 634.5507202148438 327.7453918457031 C 634.5507202148438 323.4228210449219 634.419921875 323.1175842285156 631.0518188476563 319.5801086425781 C 629.9944458007813 318.46826171875 629.463623046875 317.9100646972656 629.2738647460938 317.3951110839844 C 629.0935668945313 316.9058837890625 629.189208984375 316.305419921875 629.3797607421875 315.109130859375 C 629.4794921875 314.4972534179688 629.5658569335938 313.9007263183594 629.6436157226563 313.2872619628906 C 629.9910278320313 310.6817016601563 629.3261108398438 308.5221557617188 627.5505981445313 306.4942932128906 C 626.0366821289063 304.7652587890625 623.7127075195313 303.0640563964844 619.5289306640625 300.6223449707031 C 613.9481811523438 297.3697509765625 610.3435668945313 297.1072082519531 605.7799072265625 296.7748413085938 C 604.3245239257813 296.6684265136719 602.5130004882813 296.5360107421875 600.4451293945313 296.2565307617188 L 600.435791015625 296.2552490234375 L 600.4263305664063 296.2543334960938 C 599.9474487304688 296.2080078125 599.4769287109375 296.1207275390625 599.0197143554688 295.9937438964844 C 607.2467651367188 289.7312927246094 613.375732421875 285.4560241699219 616.3245239257813 283.9255981445313 C 623.296875 280.300048828125 624.5921020507813 279.5090026855469 624.036865234375 276.0802612304688 L 623.9747924804688 275.7182006835938 C 623.8864135742188 275.1515808105469 623.7655029296875 274.6633911132813 623.6389770507813 274.1717834472656 C 623.5585327148438 273.8618774414063 623.4757080078125 273.5429992675781 623.4827880859375 273.429443359375 C 623.5931396484375 273.3409118652344 624.0181274414063 273.2024841308594 624.466796875 273.0563049316406 C 626.7006225585938 272.3331604003906 628.0292358398438 271.4820556640625 628.5162353515625 270.4598083496094 C 631.6805419921875 268.9898376464844 634.5103149414063 267.053466796875 636.9297485351563 264.7024230957031 C 637.5772705078125 264.1124267578125 638.2591552734375 263.5425415039063 638.9615478515625 263.0041198730469 C 639.1401977539063 263.238525390625 639.2819213867188 263.4925842285156 639.384765625 263.7632446289063 L 639.38671875 263.7685241699219 L 639.3888549804688 263.7737426757813 C 640.215087890625 265.8094482421875 641.9365234375 266.0322265625 645.3984985351563 266.0321960449219 C 646.3973999023438 266.0321655273438 647.5882568359375 266.0080261230469 648.9671630859375 265.9800415039063 L 652.4537353515625 265.9142150878906 C 653.3106689453125 265.8985900878906 654.0626831054688 265.8881225585938 654.7261352539063 265.8826599121094 C 654.5269775390625 266.259033203125 654.4111328125 266.6713256835938 654.3890991210938 267.0982055664063 L 654.388427734375 267.111083984375 L 654.388427734375 267.1239929199219 C 654.388427734375 268.06298828125 654.9653930664063 268.8780517578125 656.103271484375 269.5465698242188 C 656.9794311523438 270.0613098144531 658.2208862304688 270.5050659179688 659.7930908203125 270.865478515625 C 662.5260009765625 271.491943359375 665.7591552734375 271.7619323730469 668.0134887695313 271.8782043457031 C 668.2067260742188 271.9457092285156 668.3770141601563 272.0571899414063 668.5037231445313 272.1987609863281 C 668.4901123046875 272.2796020507813 668.394775390625 272.58251953125 667.7396850585938 273.1341247558594 C 665.9537353515625 274.6387329101563 665.0449829101563 275.9539184570313 664.96142578125 277.1549377441406 C 664.9117431640625 277.8690795898438 665.153564453125 278.5284729003906 665.68017578125 279.1148071289063 C 666.3540649414063 279.864501953125 667.3869018554688 280.4013061523438 668.8377075195313 280.7560424804688 C 670.2274169921875 281.0958251953125 671.9661254882813 281.260986328125 674.1531982421875 281.260986328125 C 677.1932983398438 281.260986328125 679.1400756835938 281.3310546875 680.7190551757813 281.7005310058594 C 682.218994140625 282.051513671875 683.4384765625 282.6820983886719 685.068603515625 283.9495544433594 C 688.3027954101563 286.4666442871094 695.632568359375 289.0410461425781 702.2313232421875 289.9922180175781 C 703.1136474609375 293.0160217285156 703.94873046875 295.7415771484375 704.6519775390625 297.8921203613281 C 704.9758911132813 298.9368286132813 705.1235961914063 300.0164184570313 705.0907592773438 301.1007690429688 L 705.0903930664063 301.1116943359375 L 705.090576171875 301.1226196289063 C 705.1163940429688 303.0495910644531 705.1431884765625 305.0421447753906 708.9520263671875 307.2645568847656 C 711.2927856445313 308.6339721679688 711.5992431640625 310.0079650878906 712.0196533203125 311.9084167480469 C 712.2062377929688 312.88037109375 712.5010986328125 313.8404235839844 712.8961181640625 314.7621459960938 L 712.8984985351563 314.7676696777344 L 712.9010009765625 314.7731323242188 C 714.4989624023438 318.2667541503906 718.9334106445313 318.7147216796875 722.6181640625 318.7146911621094 C 723.0311889648438 318.7146911621094 723.4349365234375 318.7095336914063 723.7593383789063 318.7053833007813 L 724.8997802734375 318.6941833496094 C 726.3514404296875 318.6942138671875 729.568115234375 319.0926818847656 732.6605834960938 319.8311157226563 C 736.0784912109375 320.6472473144531 738.3924560546875 321.6770629882813 738.8505249023438 322.5858459472656 C 739.6461791992188 324.16455078125 739.9054565429688 325.1860961914063 739.7454833984375 326.11181640625 C 739.5610961914063 327.1787719726563 738.7923583984375 328.2373962402344 737.2529907226563 329.5443725585938 L 737.24462890625 329.5514526367188 L 737.236572265625 329.5588989257813 C 735.4736328125 331.1940002441406 734.1301879882813 333.20361328125 733.3506469726563 335.3712463378906 C 733.1473999023438 335.8343811035156 732.8711547851563 336.4623718261719 732.5814208984375 336.997314453125 C 732.1942749023438 337.7119140625 731.9810180664063 337.886962890625 731.925048828125 337.9237060546875 C 730.6171875 338.2664794921875 727.96044921875 338.9764709472656 727.8497924804688 340.7796020507813 C 727.7503051757813 342.5412902832031 730.0728149414063 343.6190795898438 733.852294921875 344.7877807617188 L 733.8584594726563 344.7896728515625 L 733.8646850585938 344.7914428710938 C 735.2327880859375 345.1759643554688 736.5761108398438 345.65380859375 737.867919921875 346.2149963378906 C 737.6223754882813 346.4205322265625 737.3678588867188 346.6177673339844 737.1064453125 346.8049621582031 C 736.4149780273438 347.3080749511719 732.2366943359375 348.0067443847656 726.9956665039063 348.0067443847656 C 724.063720703125 348.0067443847656 721.4411010742188 347.7789916992188 719.4113159179688 347.3480834960938 L 719.4002685546875 347.3457641601563 C 714.9874267578125 346.4097290039063 710.4242553710938 345.4418640136719 706.4451293945313 345.4418640136719 C 703.5331420898438 345.4418640136719 701.2317504882813 345.9573974609375 699.4099731445313 347.017822265625 C 698.8438720703125 347.3231811523438 698.1945190429688 347.4844970703125 697.5315551757813 347.4844970703125 C 697.2123413085938 347.4844970703125 696.894287109375 347.4469299316406 696.586181640625 347.3728637695313 L 696.5589599609375 347.3663330078125 L 696.5311279296875 347.3628540039063 C 695.2546997070313 347.2037353515625 694.20263671875 346.400146484375 693.8424072265625 345.3120422363281 C 693.5965576171875 344.0726013183594 692.7704467773438 343.0186767578125 691.3864135742188 342.1792602539063 C 690.2545776367188 341.4927673339844 688.7076416015625 340.9290466308594 686.7884521484375 340.5037536621094 C 683.3411254882813 339.7397766113281 679.3944702148438 339.5470275878906 676.5125732421875 339.4063110351563 C 676.2304077148438 339.3814086914063 675.9437255859375 339.3687744140625 675.6603393554688 339.3687744140625 C 674.1187133789063 339.3687744140625 672.5996704101563 339.7379760742188 671.2675170898438 340.4364929199219 L 671.2584838867188 340.4411926269531 L 671.249755859375 340.4462585449219 C 667.82568359375 342.4227905273438 668.323974609375 346.3946533203125 668.8058471679688 350.2357482910156 L 668.8085327148438 350.2568359375 L 668.8092651367188 350.2628173828125 L 668.8101196289063 350.2687377929688 C 668.96826171875 351.3232116699219 669.0637817382813 352.3950500488281 669.0940551757813 353.4544982910156 L 669.09423828125 353.459716796875 L 669.094482421875 353.4649047851563 C 669.103271484375 353.6422729492188 669.0928955078125 353.8186340332031 669.0636596679688 353.9926452636719 Z" stroke="none"/>
      <path d="M 668.5873413085938 353.2568359375 C 668.551513671875 352.2865600585938 668.4602661132813 351.3073120117188 668.315673828125 350.3428649902344 L 668.3139038085938 350.3309936523438 L 668.3123779296875 350.319091796875 L 668.3097534179688 350.2980041503906 C 667.8309326171875 346.4814453125 667.2882690429688 342.1557006835938 670.999755859375 340.0132446289063 L 671.017333984375 340.0030822753906 L 671.0353393554688 339.9936828613281 C 672.4388427734375 339.2577514648438 674.0381469726563 338.8687744140625 675.6603393554688 338.8687744140625 C 675.9550170898438 338.8687744140625 676.2529907226563 338.8817749023438 676.54638671875 338.9073486328125 C 679.4452514648438 339.0489196777344 683.4116821289063 339.2432861328125 686.8966674804688 340.0155944824219 C 688.8970336914063 340.4588928222656 690.4505004882813 341.0267944335938 691.6456909179688 341.751708984375 C 693.1428833007813 342.6598205566406 694.04443359375 343.8136596679688 694.3262329101563 345.1819763183594 C 694.6346435546875 346.073974609375 695.518310546875 346.7326965332031 696.593017578125 346.86669921875 L 696.6485595703125 346.8736267089844 L 696.7030639648438 346.88671875 C 696.9729614257813 346.9515991210938 697.251708984375 346.9844970703125 697.5315551757813 346.9844970703125 C 698.1092529296875 346.9844970703125 698.6740112304688 346.8451232910156 699.1658325195313 346.5813903808594 C 701.06494140625 345.4781188964844 703.4461669921875 344.9418640136719 706.4451293945313 344.9418640136719 C 710.4767456054688 344.9418640136719 715.0659790039063 345.915283203125 719.504150390625 346.8566589355469 L 719.51513671875 346.8590087890625 C 721.5113525390625 347.2827453613281 724.0980834960938 347.5067443847656 726.9956665039063 347.5067443847656 C 729.2418823242188 347.5067443847656 731.5538940429688 347.3703918457031 733.5057983398438 347.122802734375 C 736.2332153320313 346.77685546875 736.805419921875 346.4053649902344 736.8091430664063 346.4028930664063 L 736.8121948242188 346.4006652832031 L 736.8153076171875 346.3984375 C 736.8392333984375 346.38134765625 736.8630981445313 346.3641052246094 736.8868408203125 346.3468322753906 C 735.8587646484375 345.9338684082031 734.8018798828125 345.57421875 733.7294311523438 345.2727661132813 L 733.7169189453125 345.2692565917969 L 733.70458984375 345.2654418945313 C 731.6480712890625 344.6295471191406 730.3070678710938 344.1052551269531 729.3563842773438 343.5654602050781 C 728.837646484375 343.2709350585938 727.2589721679688 342.3746032714844 727.3507690429688 340.7489624023438 C 727.4799194335938 338.6436462402344 730.2244873046875 337.8548278808594 731.6815795898438 337.470703125 C 731.7575073242188 337.3866577148438 731.9320678710938 337.1620788574219 732.2106323242188 336.6297607421875 C 732.4627685546875 336.1478576660156 732.7056884765625 335.5967102050781 732.8860473632813 335.1856994628906 C 733.693359375 332.9492492675781 735.07958984375 330.8775634765625 736.8966064453125 329.1922912597656 L 736.9126586914063 329.1773986816406 L 736.9293823242188 329.1632080078125 C 738.3536987304688 327.9539489746094 739.0919189453125 326.9573059082031 739.2527465820313 326.0266723632813 C 739.3927612304688 325.2165222167969 739.1468505859375 324.2848205566406 738.4039916992188 322.8108825683594 C 738.3390502929688 322.6819763183594 738.013427734375 322.2120971679688 736.5513916015625 321.5778503417969 C 735.532958984375 321.1360168457031 734.1473388671875 320.7001647949219 732.54443359375 320.3174438476563 C 729.4921264648438 319.5885925292969 726.3290405273438 319.1949768066406 724.8990478515625 319.1942138671875 L 723.7658081054688 319.205322265625 C 723.4402465820313 319.2095031738281 723.0350952148438 319.2146911621094 722.6181640625 319.2146911621094 C 718.783935546875 319.2146911621094 714.1626586914063 318.7335205078125 712.4463500976563 314.9811096191406 L 712.4412841796875 314.9701843261719 L 712.4365844726563 314.9591064453125 C 712.0284423828125 314.0068359375 711.7234497070313 313.0147399902344 711.5300903320313 312.0101623535156 C 711.1087646484375 310.1058349609375 710.849609375 308.9539794921875 708.7000122070313 307.6964416503906 C 704.64697265625 305.33154296875 704.6170654296875 303.0990295410156 704.590576171875 301.1293334960938 L 704.59033203125 301.1074829101563 L 704.5909423828125 301.0856628417969 C 704.6220703125 300.0579833984375 704.4822998046875 299.03466796875 704.1755981445313 298.0440979003906 C 703.4949951171875 295.9625549316406 702.69140625 293.3443603515625 701.84130859375 290.4402160644531 C 695.1567993164063 289.4324951171875 688.0577392578125 286.9095458984375 684.7616577148438 284.3442687988281 C 681.74560546875 281.9992065429688 680.05859375 281.760986328125 674.1531982421875 281.760986328125 C 669.5366821289063 281.760986328125 666.7261962890625 281.0264282226563 665.3082275390625 279.4489135742188 C 664.6876831054688 278.7580261230469 664.4031982421875 277.9745483398438 664.462646484375 277.1202392578125 C 664.5560302734375 275.7770690917969 665.5225830078125 274.34814453125 667.4176025390625 272.7516479492188 C 667.601318359375 272.5969848632813 667.7301025390625 272.4692077636719 667.81982421875 272.3686828613281 C 665.5547485351563 272.2467346191406 662.3818359375 271.9718627929688 659.6813354492188 271.3528442382813 C 658.0592651367188 270.9809875488281 656.770263671875 270.518310546875 655.8499755859375 269.9776611328125 C 654.228759765625 269.025146484375 653.888427734375 267.9000854492188 653.888427734375 267.1239929199219 L 653.888427734375 267.0981750488281 L 653.8897705078125 267.0723876953125 C 653.9017333984375 266.8403015136719 653.937255859375 266.6121826171875 653.9950561523438 266.3902893066406 C 653.525390625 266.3961181640625 653.0161743164063 266.404052734375 652.463134765625 266.4141235351563 L 648.9801025390625 266.4799194335938 C 647.5974731445313 266.5079650878906 646.4034423828125 266.5321655273438 645.3984985351563 266.5321960449219 C 642.0201416015625 266.5322265625 639.8986206054688 266.3592529296875 638.9255981445313 263.9617919921875 L 638.9213256835938 263.9513244628906 L 638.9173583984375 263.9407653808594 C 638.8914794921875 263.8727722167969 638.8626708984375 263.8059692382813 638.8309326171875 263.7404479980469 C 638.294921875 264.1667175292969 637.7730712890625 264.6107177734375 637.2721557617188 265.0668640136719 C 634.8530883789063 267.4162902832031 632.03173828125 269.3576049804688 628.8811645507813 270.8411254882813 C 628.2759399414063 271.9187622070313 626.875244140625 272.8021545410156 624.6216430664063 273.5317077636719 C 624.4148559570313 273.5990905761719 624.2041625976563 273.667724609375 624.0413818359375 273.7260131835938 C 624.0659790039063 273.8267517089844 624.0953369140625 273.9398193359375 624.1232299804688 274.0471801757813 C 624.2527465820313 274.5503845214844 624.3765869140625 275.0508117675781 624.4683837890625 275.6383361816406 L 624.5288696289063 275.9912109375 L 624.5296630859375 275.9957885742188 L 624.5303955078125 276.0003356933594 C 624.8033447265625 277.6858825683594 624.69970703125 278.9917297363281 623.3416748046875 280.2920227050781 C 622.1729125976563 281.4111633300781 619.9982299804688 282.578857421875 616.5548095703125 284.369384765625 C 613.735595703125 285.8325805664063 607.9622192382813 289.8432006835938 600.199951171875 295.7252197265625 C 600.2910766601563 295.7372741699219 600.3826293945313 295.7477722167969 600.4744873046875 295.7566833496094 L 600.4933471679688 295.7584838867188 L 600.5120849609375 295.7610168457031 C 602.5647583007813 296.0384216308594 604.2923583984375 296.1647338867188 605.8162231445313 296.2761535644531 C 610.4443969726563 296.6132202148438 614.0999755859375 296.8795166015625 619.7809448242188 300.1905212402344 C 624.0147705078125 302.6614379882813 626.374755859375 304.392333984375 627.9267578125 306.1649169921875 C 629.8035278320313 308.3084106445313 630.506591796875 310.5928955078125 630.1392211914063 313.3536987304688 C 630.0608520507813 313.9718322753906 629.9737548828125 314.5729675292969 629.87353515625 315.1878051757813 C 629.6845703125 316.3741149902344 629.613037109375 316.8695983886719 629.7429809570313 317.2222290039063 C 629.8970947265625 317.6403198242188 630.4359741210938 318.2070007324219 631.4139404296875 319.2353515625 C 634.8468017578125 322.8408203125 635.0507202148438 323.3180236816406 635.0507202148438 327.7453918457031 L 635.0507202148438 327.7621765136719 L 635.0501708984375 327.7789611816406 C 635.0142211914063 328.8501892089844 634.8881225585938 329.9288940429688 634.675537109375 330.9854431152344 C 634.41650390625 332.4718017578125 634.2232055664063 333.7723693847656 634.4713134765625 334.6379089355469 C 634.6263427734375 335.178955078125 634.9949340820313 335.7877197265625 636.5520629882813 336.2021484375 C 638.235595703125 336.6193542480469 639.9683227539063 336.9212951660156 641.7022705078125 337.0995483398438 L 641.712158203125 337.1005554199219 L 641.7219848632813 337.1017761230469 L 641.7297973632813 337.1027526855469 C 643.6499633789063 337.3388061523438 645.6355590820313 337.5828552246094 647.2568969726563 338.3368530273438 C 649.3010864257813 339.2875366210938 650.3375854492188 340.8871765136719 650.3375854492188 343.0914001464844 L 650.3375854492188 343.1111145019531 L 650.3367919921875 343.1308288574219 C 650.292724609375 344.2491149902344 650.0245361328125 345.3556823730469 649.5526123046875 346.3868713378906 C 649.8849487304688 346.3924865722656 650.2338256835938 346.3952941894531 650.5966796875 346.3952941894531 C 658.3919677734375 346.3952941894531 660.3948974609375 347.4057312011719 663.1068115234375 349.7113342285156 L 663.11181640625 349.7155456542969 L 663.11669921875 349.7198486328125 C 663.7726440429688 350.2923889160156 664.4757080078125 350.83447265625 665.2063598632813 351.3310546875 L 665.2191162109375 351.3396911621094 L 665.2315063476563 351.3486938476563 C 666.2662353515625 352.099365234375 667.3909301757813 352.7386169433594 668.5873413085938 353.2568359375 M 669.3995971679688 354.6510009765625 C 667.6832275390625 354.0400085449219 666.0797119140625 353.1994934082031 664.644287109375 352.1581115722656 C 663.8778076171875 351.63720703125 663.1480712890625 351.0745849609375 662.4591064453125 350.4732055664063 C 659.8862915039063 348.285888671875 658.0916748046875 347.3952941894531 650.5966796875 347.3952941894531 C 649.7843017578125 347.3952941894531 649.1558837890625 347.381591796875 648.67578125 347.3648071289063 L 648.7376098632813 347.2990112304688 L 648.0416259765625 347.0703125 L 648.1060791015625 346.9548034667969 C 648.8613891601563 345.7760009765625 649.2839965820313 344.4497985839844 649.3375854492188 343.0914001464844 C 649.3375854492188 339.0426025390625 645.2352294921875 338.5411987304688 641.5999755859375 338.0942993164063 C 639.8101806640625 337.9103088378906 638.039306640625 337.6014099121094 636.302978515625 337.1706848144531 C 632.9232177734375 336.2745056152344 633.1049194335938 334.1708068847656 633.692626953125 330.8009033203125 C 633.8964233398438 329.7918090820313 634.0162963867188 328.7705993652344 634.0507202148438 327.7453918457031 C 634.0507202148438 323.5763854980469 633.9586181640625 323.3581848144531 630.689697265625 319.9248962402344 C 628.4769897460938 317.5981140136719 628.4769897460938 317.5981140136719 628.885986328125 315.0304870605469 C 628.9686279296875 314.5234069824219 629.05810546875 313.9305114746094 629.1475830078125 313.2243957519531 C 629.822021484375 308.1662902832031 626.5015258789063 305.2705993652344 619.2769165039063 301.05419921875 C 613.8034057617188 297.8641052246094 610.2498779296875 297.6017150878906 605.7435913085938 297.2734985351563 C 604.1951904296875 297.1603088378906 602.43798828125 297.0303955078125 600.378173828125 296.7520141601563 C 599.5460815429688 296.6715087890625 598.7337036132813 296.4732971191406 597.9711303710938 296.1646118164063 C 606.6015014648438 289.5708923339844 613.0225219726563 285.0759887695313 616.0941772460938 283.4818115234375 C 623.158203125 279.80859375 624.0296020507813 279.1633911132813 623.5432739257813 276.1601867675781 L 623.4813842773438 275.7991943359375 C 623.3947143554688 275.2424011230469 623.2747192382813 274.7625122070313 623.15478515625 274.29638671875 C 622.834228515625 273.0622863769531 622.834228515625 273.0622863769531 624.3118896484375 272.5809020996094 C 626.5004272460938 271.8724060058594 627.7838134765625 271.0364074707031 628.12841796875 270.0935974121094 L 628.12841796875 270.0880126953125 C 631.305908203125 268.6354064941406 634.1697998046875 266.6885070800781 636.5869750976563 264.3382873535156 C 637.3632202148438 263.6307067871094 638.1787719726563 262.9588012695313 639.0308837890625 262.3252868652344 C 639.3961181640625 262.6918029785156 639.6754760742188 263.1205139160156 639.8521728515625 263.585693359375 C 640.5107421875 265.2083435058594 641.7322387695313 265.5322265625 645.3984375 265.5321960449219 C 646.3929443359375 265.5321960449219 647.568115234375 265.5083312988281 648.9597778320313 265.4801025390625 L 652.4442749023438 265.414306640625 C 653.8145751953125 265.3893127441406 654.8947143554688 265.3781127929688 655.7506713867188 265.3781127929688 C 655.2301025390625 265.8432006835938 654.9224243164063 266.4660949707031 654.888427734375 267.1239929199219 C 654.888427734375 270.339111328125 663.8599853515625 271.1671142578125 668.1046752929688 271.3822021484375 C 668.4525146484375 271.4869995117188 668.752197265625 271.69140625 668.9573974609375 271.9639892578125 C 669.136474609375 272.3281860351563 668.8184814453125 272.87939453125 668.0617065429688 273.5166015625 C 665.4826049804688 275.6893920898438 664.8270874023438 277.4166870117188 666.0521850585938 278.7807006835938 C 667.24951171875 280.1127014160156 669.8992919921875 280.760986328125 674.1531982421875 280.760986328125 C 680.2412719726563 280.760986328125 682.1370849609375 281.0368957519531 685.37548828125 283.5548095703125 C 688.6351928710938 286.091796875 696.0404052734375 288.643310546875 702.6209106445313 289.5419921875 C 703.068603515625 291.0809020996094 704.1004028320313 294.5968017578125 705.12841796875 297.7405090332031 C 705.4694213867188 298.8387145996094 705.625 299.9765014648438 705.5905151367188 301.1159057617188 C 705.6156005859375 302.9855041503906 705.639892578125 304.7531127929688 709.2039794921875 306.8327026367188 C 711.7304077148438 308.3106994628906 712.0725708007813 309.8327941894531 712.5093994140625 311.8074035644531 C 712.689697265625 312.7492980957031 712.9733276367188 313.6730041503906 713.355712890625 314.565185546875 C 714.8800659179688 317.8979187011719 719.3533935546875 318.2147216796875 722.6181640625 318.2146911621094 C 723.016845703125 318.2146911621094 723.39794921875 318.2099609375 723.7529907226563 318.2054138183594 L 724.8948974609375 318.1942138671875 C 727.9638061523438 318.1942138671875 738.0433959960938 319.8735046386719 739.2969970703125 322.3608093261719 C 740.7871704101563 325.3175048828125 740.8900756835938 327.1123046875 737.5765991210938 329.9255065917969 C 735.8579711914063 331.5195007324219 734.5712280273438 333.4461059570313 733.8154296875 335.556396484375 C 733.3883056640625 336.5296936035156 732.6708984375 338.1600952148438 732.1011962890625 338.3944091796875 C 731.0053100585938 338.6816101074219 728.438720703125 339.3458862304688 728.348876953125 340.8102111816406 C 728.2681884765625 342.2391967773438 730.5491943359375 343.2430114746094 734 344.3100891113281 C 735.646484375 344.7728881835938 737.2448120117188 345.3634948730469 738.7766723632813 346.0752868652344 C 738.3468017578125 346.4820861816406 737.885986328125 346.8616943359375 737.3975219726563 347.2114868164063 C 736.483154296875 347.8768920898438 731.8668212890625 348.5067443847656 726.9956665039063 348.5067443847656 C 724.3191528320313 348.5067443847656 721.5647583007813 348.3163757324219 719.3074951171875 347.8371887207031 C 714.8870849609375 346.8995666503906 710.3750610351563 345.9418640136719 706.4451293945313 345.9418640136719 C 703.867919921875 345.9418640136719 701.5406494140625 346.3539428710938 699.6549072265625 347.4537963867188 C 699.008544921875 347.8041076660156 698.2734375 347.9844970703125 697.5315551757813 347.9844970703125 C 697.176025390625 347.9844970703125 696.81884765625 347.9430541992188 696.4692993164063 347.8590087890625 C 694.988525390625 347.6744079589844 693.7686157226563 346.72509765625 693.357421875 345.4375 C 692.4553833007813 340.6827087402344 682.0645751953125 340.1780090332031 676.47802734375 339.9052124023438 C 676.2053833007813 339.880859375 675.9324951171875 339.8687744140625 675.6603393554688 339.8687744140625 C 674.2027587890625 339.8687744140625 672.7659301757813 340.2153625488281 671.4996948242188 340.8793029785156 C 668.357177734375 342.6932983398438 668.8372802734375 346.4692993164063 669.3046264648438 350.1946105957031 C 669.4660034179688 351.2710876464844 669.5628051757813 352.3544921875 669.5938720703125 353.440185546875 C 669.6141967773438 353.8511047363281 669.5482177734375 354.2619018554688 669.3995971679688 354.6510009765625 Z" stroke="none" fill="#30abec"/>
    </g>
    <g id="fengdu-2" data-name="fengdu" transform="translate(-519 -204)">
      <text id="fengduxian" transform="translate(661.579 326.746)" fill="#fff" font-size="10" font-family="MicrosoftYaHei, Microsoft YaHei"><tspan x="0" y="0">丰都县</tspan></text>
    </g>
    <g transform="matrix(1, 0, 0, 1, 57.99, 67.33)" filter="url(#thick_2)">
      <path id="thick_2-2" data-name="thick_2" d="M139.9,83.346h0a31.828,31.828,0,0,0-3.869-1.361c-3.45-1.066-5.731-2.07-5.651-3.5.089-1.456,2.642-2.125,3.733-2.411l.019-.005c.574-.236,1.288-1.864,1.715-2.838a14.341,14.341,0,0,1,3.761-5.631c1.778-1.509,2.612-2.769,2.7-4.086.026.318.026,14.962,0,15.513-.024,1.569-.724,2.82-2.414,4.318Z" transform="translate(27.98)" stroke="rgba(0,0,0,0)" stroke-width="1" fill="url(#linear-gradient)"/>
    </g>
    <g transform="matrix(1, 0, 0, 1, 57.99, 67.33)" filter="url(#thick_1)">
      <path id="thick_1-2" data-name="thick_1" d="M71.429,108.326h0a18.864,18.864,0,0,1-4.755-2.493,23.148,23.148,0,0,1-2.185-1.685c-2.572-2.187-4.366-3.078-11.862-3.078-.7,0-1.351-.01-1.921-.031l.062-.066-.7-.229.064-.115a7.744,7.744,0,0,0,1.232-3.864c0-4.047-4.108-4.551-7.732-5h-.006a38.394,38.394,0,0,1-5.3-.924c-3.385-.9-3.2-3-2.61-6.369a18.656,18.656,0,0,0,.357-3.055c0-4.171-.094-4.39-3.361-7.821-2.213-2.327-2.213-2.327-1.8-4.894.1-.594.183-1.185.262-1.806.674-5.056-2.646-7.953-9.871-12.17-5.479-3.194-9.034-3.453-13.533-3.781-1.543-.113-3.292-.241-5.366-.521A8.638,8.638,0,0,1,0,49.839c.128-.1.118-5.522.108-7.847C.091,38.063.039,34.185,0,34.013c.063-.033.129-.065.2-.1a8.668,8.668,0,0,0,2.21.511c2.1.284,3.913.415,5.366.521,4.5.328,8.052.587,13.533,3.781,7.225,4.217,10.545,7.114,9.871,12.171-.079.621-.165,1.212-.262,1.805-.41,2.568-.41,2.568,1.8,4.9,3.266,3.43,3.361,3.649,3.361,7.82a18.655,18.655,0,0,1-.357,3.055c-.587,3.365-.775,5.472,2.61,6.37a38.523,38.523,0,0,0,5.3.923h.006c3.624.445,7.732.949,7.732,5a7.744,7.744,0,0,1-1.232,3.864l-.064.115.7.229-.062.066c.556.02,1.2.031,1.922.031,7.5,0,9.29.891,11.862,3.078a23.147,23.147,0,0,0,2.185,1.685,18.864,18.864,0,0,0,4.756,2.493,2.972,2.972,0,0,0,.194-1.21,27.182,27.182,0,0,0-.29-3.245l0-.021c-.461-3.679-.938-7.484,2.2-9.295a9,9,0,0,1,4.161-1.01c.272,0,.547.012.817.036h.009c5.581.272,15.97.78,16.871,5.532A3.678,3.678,0,0,0,98.5,85.533a4.543,4.543,0,0,0,1.063.126,4.463,4.463,0,0,0,2.123-.531,13.267,13.267,0,0,1,6.79-1.512c3.928,0,8.466.963,12.855,1.894h.007a38.392,38.392,0,0,0,7.69.67c4.673,0,9.436-.593,10.4-1.3a13.23,13.23,0,0,0,1.352-1.11l.01,0,.018.006c.005.065-.005.973-.02,2.347-.046,4.151-.142,12.786.02,13.617a13.22,13.22,0,0,1-1.38,1.137c-.965.7-5.728,1.295-10.4,1.295a38.406,38.406,0,0,1-7.688-.669l-.011,0c-4.388-.931-8.925-1.893-12.852-1.893a13.263,13.263,0,0,0-6.79,1.512,4.463,4.463,0,0,1-2.123.53,4.556,4.556,0,0,1-1.063-.125,3.679,3.679,0,0,1-3.111-2.421c-.9-4.752-11.29-5.259-16.871-5.532h-.009c-.271-.024-.546-.036-.817-.036a9,9,0,0,0-4.161,1.01c-3.136,1.811-2.659,5.615-2.2,9.294l0,.021a27.189,27.189,0,0,1,.29,3.246,2.972,2.972,0,0,1-.194,1.21Z" transform="translate(27.98)" stroke="rgba(0,0,0,0)" stroke-width="1" fill="url(#linear-gradient-2)"/>
    </g>
  </g>
</svg>
