<svg xmlns="http://www.w3.org/2000/svg" xmlns:xlink="http://www.w3.org/1999/xlink" width="327" height="258" viewBox="0 0 327 258">
  <defs>
    <radialGradient id="radial-gradient" cx="0.5" cy="0.5" r="0.5" gradientUnits="objectBoundingBox">
      <stop offset="0" stop-color="#1fb9e6"/>
      <stop offset="1" stop-color="#0669d2"/>
    </radialGradient>
    <linearGradient id="linear-gradient" x1="0.5" x2="0.5" y2="1" gradientUnits="objectBoundingBox">
      <stop offset="0" stop-color="#191e64"/>
      <stop offset="1" stop-color="#17448b"/>
    </linearGradient>
    <filter id="fulingqu1" x="34.5" y="107.693" width="258.889" height="120.47" filterUnits="userSpaceOnUse">
      <feOffset dy="8" input="SourceAlpha"/>
      <feGaussianBlur stdDeviation="9" result="blur"/>
      <feFlood flood-opacity="0.161"/>
      <feComposite operator="in" in2="blur"/>
      <feComposite in="SourceGraphic"/>
    </filter>
    <clipPath id="clip-fulingqu">
      <rect width="327" height="258"/>
    </clipPath>
  </defs>
  <g id="fulingqu" clip-path="url(#clip-fulingqu)">
    <rect width="327" height="258" fill="rgba(0,0,0,0)"/>
    <g id="fulingqu-2" data-name="fulingqu" transform="translate(0 -8)">
      <g id="thick_fuling" transform="translate(-434.859 -225.389)" opacity="0.67" fill="url(#radial-gradient)">
        <path d="M 569.1262817382813 409.5413513183594 C 568.7123413085938 409.4251708984375 567.33447265625 408.5829772949219 566.3413696289063 406.5580444335938 C 563.189697265625 400.1051025390625 559.5420532226563 398.8311462402344 552.5316772460938 397.6263732910156 C 551.965576171875 397.5305480957031 551.3880615234375 397.4820861816406 550.8139038085938 397.4820861816406 L 550.8065185546875 397.4820861816406 C 545.9380493164063 397.4820861816406 542.0479125976563 400.8106994628906 537.9293212890625 404.3347473144531 L 537.9029541015625 404.3572692871094 L 537.82421875 404.4243469238281 C 536.5131225585938 405.5409545898438 533.0857543945313 408.4598693847656 531.99365234375 408.8285522460938 C 530.3925170898438 408.596435546875 528.8740844726563 408.0044250488281 527.59619140625 407.1132202148438 L 527.584716796875 407.105224609375 L 527.5728149414063 407.0978393554688 C 523.7021484375 404.7084045410156 519.9636840820313 400.215087890625 521.07958984375 394.7701721191406 C 521.7027587890625 391.7418823242188 520.3956298828125 389.1812133789063 517.1944580078125 387.1596374511719 C 512.2604370117188 384.0390319824219 503.9573669433594 383.0374755859375 497.5970764160156 382.7613220214844 C 501.3645629882813 373.7329711914063 506.1157531738281 363.1914672851563 511.7255249023438 351.4148864746094 L 512.3107299804688 350.1894836425781 C 515.9461669921875 342.5279235839844 525.8345947265625 341.1186828613281 536.3035888671875 339.6266784667969 L 536.3106689453125 339.6257019042969 C 539.882568359375 339.1758422851563 543.46923828125 338.5560302734375 546.9716186523438 337.7834167480469 L 546.9758911132813 337.782470703125 L 546.980224609375 337.7814636230469 C 560.5651245117188 334.5322570800781 564.8650512695313 332.9186706542969 571.4732666015625 326.9523315429688 C 573.4457397460938 325.1666870117188 574.5293579101563 324.6224365234375 576.1116333007813 324.6224365234375 C 577.196044921875 324.6224365234375 578.5574340820313 324.8930358886719 580.4417724609375 325.2675476074219 L 580.5626220703125 325.2916259765625 C 582.2426147460938 325.6261901855469 584.146728515625 326.0053405761719 586.3861694335938 326.2638549804688 C 587.0870361328125 326.3456115722656 587.8078002929688 326.3870849609375 588.5276489257813 326.3870239257813 C 598.0160522460938 326.3861999511719 607.6127319335938 319.30615234375 615.7489013671875 312.3805236816406 C 617.9029541015625 310.5555725097656 624.3526000976563 305.3149719238281 632.559814453125 298.9606018066406 C 634.376220703125 299.6870727539063 636.2958374023438 300.1672973632813 638.2705688476563 300.388916015625 C 641.4725341796875 300.8200378417969 644.0750732421875 301.0088500976563 646.3715209960938 301.1754455566406 L 646.3811645507813 301.1761779785156 C 651.8350219726563 301.5769958496094 655.126953125 301.8189392089844 660.9559936523438 305.2224426269531 C 665.2627563476563 307.736328125 668.5210571289063 309.8471069335938 670.42431640625 311.9775390625 C 672.1613159179688 313.921875 672.755859375 315.8643798828125 672.4124145507813 318.4727783203125 C 672.2726440429688 319.4905700683594 672.1437377929688 320.3186950683594 672.0360717773438 320.9942016601563 C 671.7089233398438 323.0393371582031 671.5323486328125 324.3608703613281 672.0040283203125 325.6982116699219 C 672.4642944335938 327.0032958984375 673.5362548828125 328.2786865234375 675.4816284179688 330.3202819824219 C 677.3411865234375 332.2692565917969 678.2744750976563 333.2474670410156 678.7147827148438 334.2776184082031 C 679.1497802734375 335.2954406738281 679.150390625 336.4916076660156 679.150390625 338.872314453125 C 679.1015014648438 340.1265563964844 678.9478759765625 341.3891296386719 678.6936645507813 342.6252136230469 L 678.6920166015625 342.6331481933594 L 678.690673828125 342.64111328125 L 678.688720703125 342.6524963378906 C 678.28759765625 344.9827270507813 677.8329467773438 347.6239013671875 678.689697265625 350.0426025390625 C 679.6864624023438 352.8564147949219 682.2528686523438 354.7756652832031 686.5357055664063 355.9100036621094 L 686.5385131835938 355.9107360839844 L 686.5413818359375 355.9114685058594 C 689.4105834960938 356.6358642578125 692.3666381835938 357.1604614257813 695.3271484375 357.4707946777344 C 697.5864868164063 357.7474060058594 698.9503173828125 357.91455078125 699.6152954101563 358.2673645019531 C 700.0603637695313 358.5034484863281 700.2472534179688 358.8049011230469 700.2484130859375 360.05615234375 C 700.182861328125 361.4095153808594 699.7412719726563 362.7422790527344 698.9710693359375 363.9111938476563 C 698.5345458984375 364.5741577148438 698.2247924804688 365.2911376953125 698.0490112304688 366.0447082519531 C 696.1254272460938 367.9210205078125 690.09033203125 373.6087036132813 685.9873657226563 375.2858581542969 C 684.5529174804688 375.8757019042969 681.8901977539063 376.7259216308594 679.315185546875 377.5481567382813 L 678.8954467773438 377.6821899414063 C 673.3120727539063 379.4630737304688 669.2279663085938 380.8350524902344 666.1241455078125 382.1700134277344 C 662.4591674804688 383.7463073730469 660.5713500976563 385.1002197265625 660.0031127929688 386.56005859375 C 659.7110595703125 387.3104248046875 659.7816772460938 388.0732421875 660.2130737304688 388.8273010253906 L 660.2161254882813 388.8327331542969 L 660.2194213867188 388.8381042480469 C 660.7642822265625 389.7375183105469 661.4190063476563 390.5853576660156 662.16552734375 391.3581848144531 C 662.3914184570313 391.6033020019531 662.6421508789063 391.8757019042969 662.7279052734375 392.0169982910156 C 662.5516357421875 392.1786499023438 661.9735107421875 392.4784240722656 661.3649291992188 392.7939453125 C 660.2935180664063 393.3499450683594 657.5112915039063 394.793701171875 656.6538696289063 394.9110717773438 C 656.43798828125 394.8046569824219 655.6617431640625 394.3334350585938 654.5942993164063 392.6739196777344 C 653.6005249023438 391.1261901855469 648.2486572265625 383.3472900390625 640.47509765625 382.2046813964844 C 639.84765625 382.1017761230469 639.206298828125 382.0496215820313 638.5687255859375 382.0496215820313 C 636.79345703125 382.0496215820313 635.0315551757813 382.4543151855469 633.4736328125 383.2200012207031 L 633.4700927734375 383.2217407226563 L 633.466552734375 383.2235412597656 C 631.0978393554688 384.4344482421875 629.2053833007813 385.0484313964844 627.8417358398438 385.0484313964844 C 627.7088623046875 385.0484313964844 627.5802612304688 385.0422973632813 627.4591674804688 385.0302124023438 C 626.3164672851563 384.82958984375 625.29052734375 384.27294921875 624.5689086914063 383.4616394042969 L 624.5592041015625 383.45068359375 L 624.548828125 383.4403381347656 C 620.9214477539063 379.8139953613281 615.3905029296875 377.3775024414063 610.7857055664063 377.3775024414063 C 610.6223754882813 377.3775024414063 610.4585571289063 377.3805847167969 610.2984008789063 377.3866882324219 C 610.2203979492188 377.3843383789063 610.1415405273438 377.3831787109375 610.0636596679688 377.3831787109375 C 607.8992919921875 377.3831787109375 605.8842163085938 378.2590942382813 604.5350341796875 379.7863464355469 L 604.5200805664063 379.8033142089844 L 604.5066528320313 379.8215637207031 L 604.2385864257813 380.1868896484375 L 604.2332153320313 380.1942749023438 C 603.4700927734375 381.2422485351563 602.9187622070313 381.9993896484375 602.0810546875 382.4983825683594 C 601.1965942382813 383.0252075195313 599.9561157226563 383.2951354980469 597.933349609375 383.4009094238281 C 591.9373779296875 383.7246398925781 590.8013305664063 386.6866760253906 590.12255859375 388.4564208984375 L 590.1122436523438 388.4833068847656 L 590.1051025390625 388.5111694335938 C 589.86767578125 389.4363098144531 589.3652954101563 390.2994995117188 588.65234375 391.0074157714844 C 587.9329223632813 391.7217407226563 587.013427734375 392.2640991210938 585.9933471679688 392.5758361816406 L 585.978515625 392.5803833007813 L 585.9639892578125 392.5857849121094 C 584.6683959960938 393.0713806152344 583.2830200195313 393.5695495605469 581.8162841796875 394.096923828125 L 581.781494140625 394.1094665527344 C 578.0653076171875 395.4409484863281 574.8554077148438 396.591064453125 572.3898315429688 397.7825317382813 C 569.5260009765625 399.16650390625 568.0796508789063 400.412353515625 567.7000122070313 401.8220825195313 L 567.6956176757813 401.8384704589844 L 567.6923217773438 401.8551025390625 C 567.4295043945313 403.184326171875 568.103759765625 404.5390625 569.3712768554688 405.2344360351563 C 570.5572509765625 406.0368957519531 571.25927734375 406.490966796875 571.8056640625 406.8269653320313 C 570.6136474609375 408.7376708984375 569.4622192382813 409.4254455566406 569.1262817382813 409.5413513183594 Z" stroke="none"/>
        <path d="M 569.1106567382813 408.9927368164063 C 569.4390258789063 408.8113708496094 570.2185668945313 408.28125 571.108642578125 406.9809265136719 C 570.6220703125 406.6722412109375 570.0023193359375 406.2649841308594 569.1097412109375 405.6611633300781 C 567.6636352539063 404.8569641113281 566.89794921875 403.2952270507813 567.2017822265625 401.7581481933594 L 567.2083740234375 401.724853515625 L 567.2172241210938 401.6920471191406 C 568.0801391601563 398.4874877929688 573.7567138671875 396.4535827636719 581.6123046875 393.6389465332031 L 581.6470947265625 393.6264343261719 C 583.1122436523438 393.099609375 584.49609375 392.6020202636719 585.7885131835938 392.1176147460938 L 585.8175659179688 392.1067199707031 L 585.8472290039063 392.09765625 C 586.7898559570313 391.8096008300781 587.6380615234375 391.3098754882813 588.300048828125 390.6526184082031 C 588.9490356445313 390.0082092285156 589.40576171875 389.2247314453125 589.6207885742188 388.3868713378906 L 589.6351318359375 388.3311157226563 L 589.6557006835938 388.2773742675781 C 590.3779296875 386.3944091796875 591.586669921875 383.2428588867188 597.9072265625 382.9015808105469 C 599.8434448242188 382.8003540039063 601.0151977539063 382.5513000488281 601.8251953125 382.0688171386719 C 602.5748901367188 381.6222839355469 603.0737915039063 380.9370727539063 603.8289794921875 379.8999633789063 L 603.83544921875 379.8910827636719 L 604.1035766601563 379.5257568359375 L 604.13037109375 379.4892578125 L 604.1603393554688 379.455322265625 C 605.6043090820313 377.8206787109375 607.7560424804688 376.8831787109375 610.0636596679688 376.8831787109375 C 610.1408081054688 376.8831787109375 610.2188110351563 376.8842468261719 610.296142578125 376.8864135742188 C 610.4575805664063 376.8804931640625 610.6220703125 376.8775024414063 610.7857055664063 376.8775024414063 C 615.514404296875 376.8775024414063 621.1874389648438 379.372802734375 624.9022827148438 383.0867309570313 L 624.9230346679688 383.107421875 L 624.9425048828125 383.1293334960938 C 625.5855712890625 383.8522644042969 626.502197265625 384.3504333496094 627.5266723632813 384.5343933105469 C 627.626220703125 384.543701171875 627.7319946289063 384.5484313964844 627.8417358398438 384.5484313964844 C 628.7243041992188 384.5484313964844 630.3771362304688 384.2413330078125 633.2389526367188 382.7783508300781 L 633.2459716796875 382.7747497558594 L 633.2530517578125 382.7712707519531 C 634.8792724609375 381.9720458984375 636.7174072265625 381.5496215820313 638.5687255859375 381.5496215820313 C 639.231689453125 381.5496215820313 639.8985595703125 381.6037292480469 640.551025390625 381.7104797363281 C 648.537353515625 382.8860778808594 654.0007934570313 390.8242492675781 655.0148315429688 392.4034423828125 C 655.839599609375 393.6856994628906 656.461669921875 394.1980285644531 656.7356567382813 394.3804016113281 C 656.9749145507813 394.3156433105469 657.4827880859375 394.1421813964844 658.4796142578125 393.6779174804688 C 659.419921875 393.2399291992188 660.4517211914063 392.7044982910156 661.1348266601563 392.3500671386719 C 661.4375 392.193115234375 661.7457885742188 392.0332641601563 661.9845581054688 391.9005737304688 C 661.9251098632813 391.8351440429688 661.86279296875 391.7675170898438 661.8025512695313 391.7021179199219 C 661.0316162109375 390.9034423828125 660.3551635742188 390.027099609375 659.791748046875 389.0972290039063 L 659.7852783203125 389.0864868164063 L 659.779052734375 389.0755920410156 C 659.2761840820313 388.1965942382813 659.1925659179688 387.2640075683594 659.5371704101563 386.3786926269531 C 660.157958984375 384.7838745117188 662.1285400390625 383.3442077636719 665.9265747070313 381.710693359375 C 669.049072265625 380.3677062988281 673.1458129882813 378.9913024902344 678.7432861328125 377.2059020996094 L 679.1630859375 377.0718383789063 C 681.7286376953125 376.2526550292969 684.3815307617188 375.4055480957031 685.7982177734375 374.822998046875 C 689.7490234375 373.2080078125 695.5879516601563 367.739501953125 697.5974731445313 365.7865600585938 C 697.7914428710938 365.0282287597656 698.1122436523438 364.3062438964844 698.5535278320313 363.6360473632813 C 699.2721557617188 362.5454711914063 699.68505859375 361.3039855957031 699.7484130859375 360.0442810058594 C 699.746337890625 358.9027709960938 699.5928344726563 358.8214111328125 699.3809814453125 358.7090454101563 C 698.7980346679688 358.3997802734375 697.39453125 358.2276306152344 695.2700805664063 357.967529296875 C 692.2876586914063 357.6546936035156 689.3096313476563 357.1260375976563 686.4189453125 356.396240234375 L 686.413330078125 356.3948364257813 L 686.40771484375 356.393310546875 C 681.9531860351563 355.2135009765625 679.2744140625 353.1907958984375 678.2183837890625 350.2095642089844 C 677.3180541992188 347.6677856445313 677.7844848632813 344.9582214355469 678.1959228515625 342.5676574707031 L 678.1979370117188 342.5563049316406 L 678.2006225585938 342.5403442382813 L 678.2039184570313 342.5245056152344 C 678.4519653320313 341.3182678222656 678.6021728515625 340.0863037109375 678.650390625 338.8624572753906 C 678.650390625 336.5564880371094 678.6492919921875 335.3966064453125 678.2550048828125 334.47412109375 C 677.8502807617188 333.5271301269531 676.9378662109375 332.5708618164063 675.1196899414063 330.6651916503906 C 673.125244140625 328.5721740722656 672.0228881835938 327.2550354003906 671.532470703125 325.864501953125 C 671.0205688476563 324.4131469726563 671.2027587890625 323.0381469726563 671.5422973632813 320.91552734375 C 671.6494750976563 320.2432250976563 671.7777099609375 319.4191589355469 671.9171142578125 318.4045104980469 C 672.2429809570313 315.9244995117188 671.702392578125 314.1586303710938 670.0514526367188 312.3106689453125 C 668.1918334960938 310.2290954589844 664.9697265625 308.1442565917969 660.703857421875 305.6542053222656 C 657.9969482421875 304.0736999511719 655.7528076171875 303.1195373535156 653.4273681640625 302.5604248046875 C 651.2406616210938 302.03466796875 649.0800170898438 301.8758850097656 646.344482421875 301.6748352050781 L 646.3353881835938 301.6741333007813 C 644.0330200195313 301.5071105957031 641.4239501953125 301.3178405761719 638.2091674804688 300.8851623535156 C 636.2883911132813 300.6691589355469 634.4185180664063 300.2137451171875 632.6414794921875 299.52978515625 C 624.5474243164063 305.8009948730469 618.2033081054688 310.9564208984375 616.072998046875 312.7612609863281 C 607.8675537109375 319.7458801269531 598.1781616210938 326.8861999511719 588.5277099609375 326.8870239257813 C 587.78857421875 326.8870849609375 587.0484008789063 326.844482421875 586.328857421875 326.7605285644531 C 584.069091796875 326.4997253417969 582.1543579101563 326.1184387207031 580.4649658203125 325.7820129394531 L 580.3442993164063 325.7579956054688 C 578.4880981445313 325.3890075683594 577.1469116210938 325.1224365234375 576.1116333007813 325.1224365234375 C 574.6770629882813 325.1224365234375 573.6718139648438 325.636474609375 571.8082885742188 327.3234558105469 C 565.1165771484375 333.3652038574219 560.7805786132813 334.9948120117188 547.0964965820313 338.2677307128906 L 547.087890625 338.2698059082031 L 547.0792846679688 338.2716979980469 C 543.5635375976563 339.0472717285156 539.9629516601563 339.6695251464844 536.37744140625 340.1212158203125 L 536.3741455078125 340.1217041015625 C 531.047607421875 340.8807983398438 526.0164794921875 341.5978393554688 521.8123168945313 343.0976867675781 C 517.2271118164063 344.7335205078125 514.3516235351563 347.0547485351563 512.761962890625 350.4049682617188 L 512.1769409179688 351.6299133300781 C 506.7063598632813 363.1142272949219 502.0534057617188 373.4218444824219 498.3338012695313 382.2955627441406 C 504.6530151367188 382.6183776855469 512.6201171875 383.6749267578125 517.46142578125 386.7368774414063 C 521.6905517578125 389.4075927734375 522.029541015625 392.634521484375 521.5693969726563 394.8705444335938 C 520.5052490234375 400.0631103515625 524.1085205078125 404.3716735839844 527.83544921875 406.6723937988281 L 527.8592529296875 406.6870727539063 L 527.8822021484375 406.7030944824219 C 529.0609741210938 407.5251770019531 530.4567260742188 408.0795593261719 531.9318237304688 408.3134765625 C 532.1848754882813 408.1973266601563 532.83056640625 407.8346252441406 534.264404296875 406.7161254882813 C 535.4278564453125 405.8084411621094 536.6748657226563 404.7464294433594 537.5000610351563 404.0436706542969 L 537.5779418945313 403.9773864746094 L 537.604248046875 403.954833984375 C 541.7949829101563 400.3690490722656 545.7533569335938 396.9820861816406 550.806884765625 396.9820861816406 L 550.8139038085938 396.9820861816406 C 551.4158935546875 396.9820861816406 552.021484375 397.0328979492188 552.6163940429688 397.1335754394531 C 559.190185546875 398.2633361816406 563.4246215820313 399.4466857910156 566.790283203125 406.337890625 C 567.6104736328125 408.0101928710938 568.6596069335938 408.7659301757813 569.1106567382813 408.9927368164063 M 569.1382446289063 410.0516967773438 C 568.69580078125 410.0127868652344 567.0481567382813 409.1347045898438 565.8924560546875 406.7781982421875 C 562.8419799804688 400.5324096679688 559.2910766601563 399.2953491210938 552.447021484375 398.119140625 C 551.9085083007813 398.0279846191406 551.3619384765625 397.9820861816406 550.8139038085938 397.9820861816406 C 550.8115844726563 397.9820861816406 550.8092041015625 397.9820861816406 550.806884765625 397.9820861816406 C 546.1126098632813 397.9820861816406 542.2932739257813 401.2587890625 538.22802734375 404.7371826171875 C 536.5791015625 406.141357421875 533.1553344726563 409.0682983398438 532.029296875 409.3384399414063 C 530.308349609375 409.10595703125 528.6834106445313 408.4810180664063 527.3101806640625 407.5233154296875 C 523.2955932617188 405.0450439453125 519.4220581054688 400.3674926757813 520.5897827148438 394.6697692871094 C 521.1669921875 391.8648376464844 519.934814453125 389.4815368652344 516.927490234375 387.5823974609375 C 511.7114868164063 384.2834777832031 502.47607421875 383.4341125488281 496.8593139648438 383.2324523925781 C 500.6614379882813 374.0786437988281 505.5053100585938 363.310302734375 511.2741088867188 351.1998596191406 L 511.8595581054688 349.9739990234375 C 515.6109008789063 342.068115234375 525.6365966796875 340.641845703125 536.2440185546875 339.130126953125 C 539.8165893554688 338.6803283691406 543.36083984375 338.0679321289063 546.8638916015625 337.295166015625 C 560.3561401367188 334.0681457519531 564.616943359375 332.4690551757813 571.13818359375 326.5812072753906 C 573.15283203125 324.7574157714844 574.3709106445313 324.1224365234375 576.1116333007813 324.1224365234375 C 577.2447509765625 324.1224365234375 578.5995483398438 324.3916015625 580.5392456054688 324.7771606445313 C 582.2410888671875 325.115966796875 584.1705932617188 325.5047912597656 586.4434814453125 325.7671508789063 C 587.1373901367188 325.8481140136719 587.8312377929688 325.8870849609375 588.5276489257813 325.8870239257813 C 597.8134765625 325.88623046875 607.2680053710938 318.9429931640625 615.4248046875 311.9997863769531 C 617.7657470703125 310.0164794921875 624.4662475585938 304.5902404785156 632.481689453125 298.3887939453125 C 634.3330078125 299.1585388183594 636.3065795898438 299.6658935546875 638.3319091796875 299.8926696777344 C 641.4970092773438 300.3190002441406 644.1015014648438 300.5094604492188 646.40771484375 300.6767578125 C 651.93798828125 301.0832214355469 655.2754516601563 301.32666015625 661.2080688476563 304.7906494140625 C 670.4608154296875 310.1914978027344 673.6262817382813 313.0840759277344 672.9081420898438 318.5380249023438 C 672.7769165039063 319.4936828613281 672.6533813476563 320.2976379394531 672.5298461914063 321.0728759765625 C 671.87109375 325.1911926269531 671.939208984375 325.8778381347656 675.8436279296875 329.975341796875 C 679.650390625 333.9652099609375 679.650390625 333.9652099609375 679.650390625 338.8821105957031 C 679.6006469726563 340.171875 679.4443969726563 341.4566955566406 679.1834106445313 342.7259216308594 C 678.3972778320313 347.29296875 677.4110107421875 352.9760131835938 686.6637573242188 355.4266662597656 C 689.5200805664063 356.1477966308594 692.4354858398438 356.6651306152344 695.3828735351563 356.973876953125 C 700.1401977539063 357.5563049316406 700.7484130859375 357.6315307617188 700.7484130859375 360.0678405761719 C 700.680419921875 361.5198974609375 700.2133178710938 362.9346008300781 699.3885498046875 364.1863098144531 C 698.958984375 364.8387145996094 698.6600952148438 365.5533447265625 698.505126953125 366.2981262207031 C 696.35546875 368.4033203125 690.3485107421875 374.0433044433594 686.1765747070313 375.7486572265625 C 684.6466674804688 376.3777770996094 681.8001708984375 377.2791748046875 679.047607421875 378.1584777832031 C 666.6045532226563 382.1273498535156 658.596435546875 384.9944152832031 660.6470336914063 388.5790405273438 C 661.1744384765625 389.4495239257813 661.805419921875 390.2663269042969 662.5294799804688 391.0153198242188 C 663.61328125 392.19140625 663.61328125 392.19140625 661.5950927734375 393.2378234863281 C 660.1375732421875 393.9941711425781 657.4271240234375 395.3993530273438 656.5778198242188 395.4184265136719 C 656.565185546875 395.4184265136719 655.5891723632813 395.1448669433594 654.1737670898438 392.9444274902344 C 653.2009887695313 391.4294128417969 647.9542846679688 383.8060913085938 640.3972778320313 382.6986083984375 C 639.7904663085938 382.5989074707031 639.1787109375 382.5495910644531 638.5687866210938 382.5495910644531 C 636.8745727539063 382.5495910644531 635.1966552734375 382.9303283691406 633.6941528320313 383.6687316894531 C 630.7631225585938 385.1671142578125 628.9577026367188 385.5484313964844 627.8417358398438 385.5484313964844 C 627.6767578125 385.5484313964844 627.5267944335938 385.5401000976563 627.3905639648438 385.5257873535156 C 626.1290283203125 385.3082580566406 624.9959716796875 384.694091796875 624.1953125 383.7939147949219 C 620.621826171875 380.2214050292969 615.2421264648438 377.8775024414063 610.7857055664063 377.8775024414063 C 610.6227416992188 377.8775024414063 610.4606323242188 377.8806457519531 610.30029296875 377.8869934082031 C 610.22119140625 377.8844299316406 610.1425170898438 377.8831787109375 610.0636596679688 377.8831787109375 C 608.0593872070313 377.8831787109375 606.1588745117188 378.703369140625 604.9097900390625 380.1173706054688 L 604.6416625976563 380.4827270507813 C 603.04833984375 382.6708679199219 602.3230590820313 383.6720581054688 597.95947265625 383.9002075195313 C 592.29736328125 384.2059326171875 591.2689819335938 386.8636169433594 590.5894165039063 388.6354675292969 C 590.0597534179688 390.6990051269531 588.3762817382813 392.3704223632813 586.1394653320313 393.0540161132813 C 584.8306884765625 393.5444946289063 583.4625854492188 394.0362854003906 581.95068359375 394.5799560546875 C 574.6656494140625 397.1901550292969 568.9096069335938 399.2531127929688 568.1828002929688 401.9520874023438 C 567.959716796875 403.0805053710938 568.535400390625 404.2156982421875 569.6315307617188 404.8068237304688 C 571.1431274414063 405.8299560546875 571.8612060546875 406.282958984375 572.4900512695313 406.65625 C 570.9686889648438 409.3130493164063 569.4313354492188 410.0250854492188 569.1382446289063 410.0516967773438 Z" stroke="none" fill="#30abec"/>
      </g>
      <text id="fulingqu-3" data-name="fulingqu" transform="translate(149 133)" fill="#fff" font-size="10" font-family="MicrosoftYaHei, Microsoft YaHei"><tspan x="0" y="0">涪陵区</tspan></text>
      <g transform="matrix(1, 0, 0, 1, 0, 8)" filter="url(#fulingqu1)">
        <path id="fulingqu1-2" data-name="fulingqu1" d="M-1976.721-576.337h0c-.439-.039-2.091-.919-3.245-3.273-3.051-6.246-6.607-7.484-13.446-8.659a9.719,9.719,0,0,0-1.623-.137h-.016c-4.684,0-8.506,3.27-12.552,6.732l-.026.023-.078.066c-1.628,1.387-5.013,4.27-6.122,4.536a10.794,10.794,0,0,1-4.719-1.815c-4.015-2.478-7.889-7.156-6.72-12.854.577-2.8-.656-5.188-3.663-7.087-4.014-2.539-10.293-3.581-14.854-4.008-2.045-.192-5.085-.337-5.214-.343v-16a74.2,74.2,0,0,1,10.185,1.014,27.985,27.985,0,0,1,9.884,3.337c3.007,1.9,4.24,4.283,3.663,7.088-1.168,5.7,2.705,10.375,6.72,12.853a10.793,10.793,0,0,0,4.719,1.815c1.106-.265,4.484-3.141,6.108-4.523l.091-.078.024-.021c4.047-3.464,7.869-6.735,12.554-6.735a9.907,9.907,0,0,1,1.64.137c6.839,1.175,10.394,2.413,13.446,8.659,1.153,2.352,2.806,3.235,3.245,3.274.295-.027,1.818-.717,3.352-3.4-.626-.372-1.352-.83-2.858-1.849a2.686,2.686,0,0,1-1.448-2.855c.726-2.7,6.481-4.761,13.767-7.372l.007,0c1.4-.5,2.845-1.023,4.182-1.524a6.371,6.371,0,0,0,4.45-4.418c.676-1.764,1.7-4.429,7.37-4.736,4.36-.228,5.087-1.226,6.678-3.412l0,0,.268-.365a6.842,6.842,0,0,1,5.154-2.234c.079,0,.158,0,.237,0,.159-.006.323-.009.485-.009,4.481,0,9.87,2.377,13.41,5.916a5.523,5.523,0,0,0,3.2,1.732,4.335,4.335,0,0,0,.45.023,14.066,14.066,0,0,0,5.853-1.88,11.1,11.1,0,0,1,4.875-1.119,11.321,11.321,0,0,1,1.828.149c7.564,1.109,12.8,8.73,13.776,10.246,1.434,2.229,2.4,2.473,2.4,2.474.853-.02,3.561-1.425,5.016-2.18,1.1-.57,1.6-.83,1.654-1.137.045-.258-.226-.552-.719-1.086a13.832,13.832,0,0,1-1.882-2.436,2.03,2.03,0,0,1-.178-1.838c1.1-2.816,8.391-5.333,18.579-8.582l.412-.132c2.588-.826,5.263-1.681,6.717-2.279,4.268-1.745,10.515-7.674,12.328-9.45a6.088,6.088,0,0,1,.884-2.112,8.214,8.214,0,0,0,1.358-4.078l0,15.96a8.207,8.207,0,0,1-1.36,4.118,6.089,6.089,0,0,0-.884,2.111c-1.814,1.777-8.062,7.707-12.328,9.451-1.454.6-4.13,1.452-6.717,2.279l0,0-.406.13c-10.187,3.248-17.482,5.766-18.579,8.582a2.03,2.03,0,0,0,.178,1.838,13.828,13.828,0,0,0,1.882,2.436c.493.534.764.828.719,1.086-.054.307-.555.567-1.653,1.136-1.454.755-4.161,2.162-5.017,2.181-.008,0-.988-.274-2.4-2.474-.974-1.516-6.215-9.137-13.776-10.246a11.325,11.325,0,0,0-1.828-.149,11.1,11.1,0,0,0-4.875,1.119,14.065,14.065,0,0,1-5.851,1.88,4.351,4.351,0,0,1-.453-.023,5.52,5.52,0,0,1-3.195-1.732c-3.54-3.539-8.93-5.916-13.411-5.916-.162,0-.325,0-.485.009-.079,0-.159,0-.237,0a6.843,6.843,0,0,0-5.154,2.234l-.268.365,0,.006c-1.592,2.186-2.318,3.184-6.677,3.411-5.672.307-6.694,2.972-7.37,4.736a6.372,6.372,0,0,1-4.451,4.418c-1.343.5-2.789,1.023-4.188,1.526-7.286,2.61-13.041,4.672-13.767,7.372a2.687,2.687,0,0,0,1.448,2.855c1.514,1.025,2.238,1.48,2.858,1.849a9.855,9.855,0,0,1-2.136,2.684A2.923,2.923,0,0,1-1976.721-576.337Z" transform="translate(2111 769)" stroke="rgba(0,0,0,0)" stroke-miterlimit="10" stroke-width="1" fill="url(#linear-gradient)"/>
      </g>
    </g>
  </g>
</svg>
