<svg xmlns="http://www.w3.org/2000/svg" xmlns:xlink="http://www.w3.org/1999/xlink" width="327" height="258" viewBox="0 0 327 258">
  <defs>
    <radialGradient id="radial-gradient" cx="0.5" cy="0.5" r="0.5" gradientUnits="objectBoundingBox">
      <stop offset="0" stop-color="#1fb9e6"/>
      <stop offset="1" stop-color="#0669d2"/>
    </radialGradient>
    <linearGradient id="linear-gradient" x1="0.5" x2="0.5" y2="1" gradientUnits="objectBoundingBox">
      <stop offset="0" stop-color="#191e64"/>
      <stop offset="1" stop-color="#17448b"/>
    </linearGradient>
    <filter id="hechuan1" x="30.26" y="64.761" width="267.206" height="153.464" filterUnits="userSpaceOnUse">
      <feOffset dy="8" input="SourceAlpha"/>
      <feGaussianBlur stdDeviation="9" result="blur"/>
      <feFlood flood-opacity="0.161"/>
      <feComposite operator="in" in2="blur"/>
      <feComposite in="SourceGraphic"/>
    </filter>
    <clipPath id="clip-hechuan">
      <rect width="327" height="258"/>
    </clipPath>
  </defs>
  <g id="hechuan" clip-path="url(#clip-hechuan)">
    <rect width="327" height="258" fill="rgba(0,0,0,0)"/>
    <g id="hechuan-2" data-name="hechuan" transform="translate(0 -9)">
      <g id="thick_hechuan" transform="translate(-249.073 -171.252)" opacity="0.67" fill="url(#radial-gradient)">
        <path d="M 393.1116943359375 344.12255859375 C 393.1259155273438 343.7741394042969 393.1573486328125 343.4255065917969 393.2058410644531 343.0802612304688 L 393.2068481445313 343.0731201171875 L 393.2076416015625 343.06591796875 C 393.3681640625 341.6200866699219 393.5877685546875 339.6421813964844 392.5343933105469 337.6981811523438 C 391.2980651855469 335.4165649414063 388.6642456054688 333.7993469238281 384.4824523925781 332.7541809082031 C 376.3674926757813 330.7223815917969 364.916015625 329.3949279785156 356.5545043945313 328.4256591796875 L 355.5989379882813 328.3133850097656 C 353.0008239746094 328.0083312988281 350.7570495605469 327.744873046875 349.3916625976563 327.5274047851563 C 346.5356140136719 327.0735473632813 345.5409240722656 326.5461120605469 345.2093505859375 326.1835632324219 C 344.7101135253906 325.6436462402344 344.8977355957031 324.5073852539063 345.7222290039063 323.0640258789063 C 347.4628601074219 320.0199584960938 348.0489501953125 317.6211547851563 347.5137939453125 315.7307434082031 C 347.1551208496094 314.4635925292969 346.2825927734375 313.444091796875 344.9204711914063 312.7005615234375 C 343.4816284179688 311.9139404296875 341.6776123046875 311.5150451660156 339.5587768554688 311.5150451660156 C 337.8552551269531 311.5150451660156 335.9170532226563 311.7734680175781 333.7979431152344 312.2831726074219 C 326.0289001464844 314.1513671875 322.272216796875 314.4302978515625 320.724365234375 314.4302978515625 C 320.6009216308594 314.4302978515625 320.4891052246094 314.4285888671875 320.3882751464844 314.4256896972656 C 320.7783508300781 313.5574951171875 321.4213562011719 312.8062133789063 322.2683715820313 312.234375 L 322.2903137207031 312.2195434570313 L 322.3105773925781 312.2025146484375 C 323.4302368164063 311.2601013183594 325.3041381835938 309.6828002929688 324.0307006835938 307.7300109863281 L 324.0226135253906 307.7176208496094 L 324.0138244628906 307.7057800292969 C 323.3547668457031 306.8148803710938 322.4118957519531 306.2638549804688 320.4107666015625 305.6000366210938 L 320.3939514160156 305.594482421875 L 320.3768005371094 305.590087890625 C 318.8959350585938 305.2127075195313 317.3714294433594 304.9266357421875 315.8456420898438 304.7398071289063 C 312.5141296386719 304.2764587402344 310.7952270507813 303.6745910644531 310.0990295410156 302.7275695800781 C 309.4316101074219 301.8197631835938 309.5881958007813 300.4506225585938 309.8252258300781 298.378173828125 L 310.0180969238281 296.69873046875 C 310.5789489746094 293.00244140625 310.6821594238281 289.2428283691406 310.3248901367188 285.5242309570313 C 310.1333618164063 283.4724426269531 309.2776184082031 281.5463256835938 307.8475952148438 279.9443664550781 C 308.0631713867188 279.8241882324219 308.33203125 279.6785888671875 308.6571044921875 279.5059509277344 L 308.6663208007813 279.5010681152344 C 312.3102416992188 277.569580078125 315.7520446777344 275.7452392578125 316.3911437988281 272.9536437988281 C 316.737060546875 271.4426574707031 316.2470397949219 269.8116149902344 314.89306640625 267.9673156738281 L 314.8912658691406 267.96484375 L 314.8893737792969 267.96240234375 C 313.893798828125 266.640625 312.5912475585938 265.493896484375 311.1014709472656 264.6238098144531 C 311.343994140625 264.1906433105469 311.6212158203125 263.7712707519531 311.9288940429688 263.3724365234375 L 311.9317016601563 263.3688049316406 L 311.9344482421875 263.3651123046875 C 313.6947021484375 260.9943237304688 315.2066345214844 258.4622802734375 316.4322814941406 255.8331451416016 C 320.5116577148438 256.8170471191406 324.548828125 258.0620422363281 328.4382934570313 259.5358581542969 L 328.4423217773438 259.5373840332031 L 328.4463500976563 259.5388488769531 C 330.5617065429688 260.2988586425781 332.3253479003906 260.7852478027344 333.8813781738281 261.2143859863281 C 337.7844543457031 262.2907409667969 339.7435607910156 262.8309936523438 340.9152221679688 266.0161743164063 C 342.8080139160156 271.1616821289063 348.5023193359375 271.4228820800781 357.6363220214844 271.4228820800781 L 357.6413879394531 271.4228820800781 C 360.64453125 271.4228820800781 363.2381591796875 271.4228820800781 365.2183227539063 271.6754150390625 C 367.2451782226563 271.9339599609375 368.5255737304688 272.4499816894531 369.247802734375 273.2994384765625 C 370.0625305175781 274.2575988769531 370.2735595703125 275.7379150390625 369.911865234375 277.9580078125 C 369.3328552246094 281.5115966796875 370.6368408203125 284.97265625 373.6828002929688 287.9670715332031 C 376.4794311523438 290.7164306640625 380.6309814453125 292.8969116210938 385.3727111816406 294.1069030761719 C 386.3136291503906 294.3470458984375 387.2609558105469 294.5974426269531 388.1771240234375 294.839599609375 C 392.8064880371094 296.063232421875 397.1791381835938 297.218994140625 401.1182556152344 297.218994140625 C 404.6251220703125 297.218994140625 407.4076843261719 296.276611328125 409.625 294.3379821777344 C 412.182373046875 292.1022033691406 412.7965393066406 290.066162109375 413.2450256347656 288.5794982910156 C 413.6746215820313 287.1553344726563 413.8353881835938 286.6224365234375 415.2632751464844 286.6224365234375 C 415.9016418457031 286.6224365234375 416.7626647949219 286.7460021972656 417.8954772949219 287.0001525878906 C 419.8046875 287.4285583496094 421.5138854980469 287.6367797851563 423.1207885742188 287.63671875 C 427.1231079101563 287.6365661621094 429.9873352050781 286.317138671875 433.3038635253906 284.7893371582031 C 433.67919921875 284.616455078125 434.0673217773438 284.4376220703125 434.4620971679688 284.2584228515625 C 435.2544250488281 283.8987121582031 436.1569519042969 283.723876953125 437.2212829589844 283.723876953125 C 438.454345703125 283.723876953125 439.7737426757813 283.9584045410156 441.0496826171875 284.1852111816406 C 442.3487243652344 284.4161376953125 443.6919860839844 284.6549377441406 444.9748840332031 284.6548767089844 C 447.6187744140625 284.65478515625 449.5106506347656 283.6080932617188 450.9287414550781 281.3609008789063 C 451.7636413574219 280.0378723144531 452.3584289550781 278.8255920410156 452.8832397460938 277.7560424804688 C 453.8635559082031 275.758056640625 454.5718383789063 274.3144836425781 456.1722412109375 273.3178405761719 C 457.9152526855469 272.2323608398438 460.6642150878906 271.7483215332031 465.0855407714844 271.7483215332031 C 465.6107177734375 271.7483215332031 466.169189453125 271.7554321289063 466.7454833984375 271.7694091796875 C 470.1632080078125 271.8526306152344 472.9542846679688 271.9080200195313 475.467041015625 271.9080200195313 C 480.2857055664063 271.9079895019531 483.4075317382813 271.6915283203125 485.5894165039063 271.2061157226563 C 488.2354736328125 270.617431640625 489.6423645019531 269.554931640625 489.8904724121094 267.9579467773438 C 489.9810180664063 267.3750610351563 490.6613464355469 266.8366088867188 491.80615234375 266.4418334960938 C 493.0028991699219 266.0290832519531 494.6353149414063 265.8017883300781 496.4026184082031 265.8017883300781 C 498.7391052246094 265.8017883300781 501.0535583496094 266.1849365234375 502.9196166992188 266.8806762695313 C 504.37109375 267.4218139648438 506.2437744140625 268.4201965332031 506.9224853515625 270.1033020019531 C 507.63037109375 271.8584594726563 507.9578247070313 273.3437805175781 508.220947265625 274.5372619628906 C 508.527099609375 275.9259033203125 508.7689208984375 277.0227355957031 509.4472961425781 277.8228759765625 C 510.1727905273438 278.6785278320313 511.2842102050781 279.0956726074219 513.1636352539063 279.2177734375 C 514.6755981445313 279.3159790039063 515.980224609375 279.5567016601563 516.936279296875 279.9139709472656 C 517.7516479492188 280.2186279296875 518.2765502929688 280.6090698242188 518.3403930664063 280.9583129882813 C 518.416748046875 281.3760375976563 517.8126831054688 282.1337890625 515.888427734375 283.0078430175781 C 512.817626953125 284.4026184082031 511.9990539550781 286.2915344238281 511.8530578613281 287.6305236816406 C 511.626953125 289.7042541503906 512.8524169921875 291.9100646972656 515.2151489257813 293.6823425292969 L 515.223876953125 293.6889038085938 L 515.2328491210938 293.6950378417969 C 515.8564453125 294.1216430664063 516.5148315429688 294.5035095214844 517.2020874023438 294.8375244140625 C 514.1103515625 295.3504333496094 510.2726440429688 296.2049560546875 506.998291015625 297.591064453125 C 502.2780151367188 299.5892028808594 499.7745056152344 302.22802734375 499.5573120117188 305.4341735839844 C 499.3874816894531 307.8955688476563 498.310791015625 308.4305114746094 495.9516906738281 309.6026000976563 L 495.9342041015625 309.611328125 C 492.9486083984375 311.0947265625 489.2329406738281 312.9408569335938 488.2414855957031 318.1496887207031 C 487.4693298339844 322.20751953125 486.4290161132813 324.8097534179688 485.0611267089844 326.1051025390625 C 483.9649353027344 327.1431579589844 482.8582153320313 327.1431579589844 481.7879028320313 327.1431579589844 C 480.4461364746094 327.1431579589844 479.0938415527344 327.0577392578125 477.7860717773438 326.9751281738281 L 477.7044677734375 326.969970703125 C 476.4570617675781 326.8890991210938 475.0422668457031 326.7973937988281 473.5641784667969 326.7973937988281 C 469.8753662109375 326.7973937988281 464.6827697753906 327.3017272949219 462.1884765625 331.6624755859375 C 461.8940124511719 332.1763305664063 461.5405883789063 332.6591491699219 461.1330871582031 333.10498046875 C 460.3020324707031 330.4031982421875 457.7432861328125 328.3379516601563 454.6090698242188 327.9463500976563 C 454.0126953125 327.8576965332031 453.4044799804688 327.812744140625 452.8011169433594 327.812744140625 C 449.578857421875 327.812744140625 446.5227661132813 329.0709533691406 444.4144287109375 331.2651062011719 C 443.6194763183594 332.0192565917969 442.2951354980469 333.2749328613281 440.9531860351563 334.344482421875 C 439.1876525878906 335.7515563964844 438.2658996582031 336.1308898925781 437.814208984375 336.2114868164063 C 436.9583435058594 335.4105224609375 436.3815612792969 334.3812866210938 436.1819458007813 333.2919311523438 L 436.1759643554688 333.25927734375 L 436.1657104492188 333.2276916503906 C 435.5390319824219 331.2966003417969 434.8290710449219 329.1090393066406 431.368408203125 328.2802429199219 L 431.3573303222656 328.277587890625 L 431.3461303710938 328.2754211425781 C 430.6004333496094 328.1324462890625 429.8358764648438 328.0599365234375 429.0736694335938 328.0599365234375 C 427.3981018066406 328.0599365234375 425.7199401855469 328.4146728515625 424.2198791503906 329.0858764648438 C 421.982421875 329.9967346191406 418.098876953125 332.0225524902344 413.9874267578125 334.1672058105469 C 401.4327697753906 340.7198791503906 395.7133178710938 343.2198791503906 393.1116943359375 344.12255859375 Z" stroke="none"/>
        <path d="M 316.7102966308594 256.4154357910156 C 315.5026245117188 258.9422607421875 314.0333251953125 261.376953125 312.3358154296875 263.6631469726563 L 312.3303833007813 263.6705017089844 L 312.3247680664063 263.6777954101563 C 312.1312866210938 263.9285888671875 311.9505004882813 264.1878967285156 311.7836303710938 264.4537658691406 C 313.1513671875 265.3205871582031 314.3505859375 266.4160461425781 315.2887573242188 267.6615600585938 L 315.2924194335938 267.6664428710938 L 315.2960815429688 267.6714172363281 C 316.7411804199219 269.6398010253906 317.2587890625 271.4041442871094 316.8785095214844 273.0652160644531 C 316.1883544921875 276.0798645019531 312.6483764648438 277.9562683105469 308.9005126953125 279.9428405761719 L 308.8916015625 279.9475708007813 C 308.7980346679688 279.9972534179688 308.708984375 280.0447998046875 308.6244506835938 280.0901489257813 C 309.8837890625 281.6719055175781 310.639892578125 283.5194091796875 310.8225708007813 285.4764404296875 C 311.1834716796875 289.2332458496094 311.0796508789063 293.0310363769531 310.5137939453125 296.7647705078125 L 310.322021484375 298.4349975585938 C 310.098388671875 300.3901062011719 309.9506225585938 301.6816711425781 310.5018310546875 302.4314270019531 C 311.10205078125 303.2478332519531 312.7695922851563 303.8068542480469 315.908935546875 304.2438049316406 C 317.4550170898438 304.4332275390625 318.9997253417969 304.7231750488281 320.5002746582031 305.1055908203125 L 320.5345764160156 305.1143493652344 L 320.5681457519531 305.12548828125 C 322.6535339355469 305.8171997070313 323.6963806152344 306.4359130859375 324.4158020019531 307.4083862304688 L 324.4333801269531 307.4321594238281 L 324.4495239257813 307.4569091796875 C 324.9173278808594 308.1742858886719 325.2984924316406 309.3151550292969 324.4576416015625 310.6762390136719 C 323.97802734375 311.4525756835938 323.2319946289063 312.0804748535156 322.6325378417969 312.5850219726563 L 322.592041015625 312.619140625 L 322.5481262207031 312.6487731933594 C 322.0222473144531 313.0038146972656 321.5834655761719 313.4338684082031 321.2460021972656 313.9207763671875 C 323.0278015136719 313.8595581054688 326.7296447753906 313.4685974121094 333.6809997558594 311.7969970703125 C 335.8381958007813 311.2781677246094 337.8157653808594 311.0151062011719 339.5587768554688 311.0150451660156 C 341.7622680664063 311.0149841308594 343.64697265625 311.4345092773438 345.1600341796875 312.2616882324219 C 346.6444702148438 313.0719909667969 347.5982666015625 314.1933288574219 347.9949035644531 315.5945739746094 C 348.5685119628906 317.6209411621094 347.967041015625 320.1455078125 346.1563415527344 323.3120422363281 C 345.3857727050781 324.6610412597656 345.3089294433594 325.5547485351563 345.5745849609375 325.8421020507813 L 345.5764770507813 325.8440856933594 L 345.5783386230469 325.8461608886719 C 345.7614135742188 326.0463256835938 346.5071105957031 326.562744140625 349.4703063964844 327.0335998535156 C 350.8262023925781 327.2496032714844 353.0667724609375 327.5126342773438 355.6610717773438 327.8172302246094 L 356.6120910644531 327.9289855957031 C 364.9873352050781 328.8998718261719 376.4576110839844 330.2295227050781 384.6036987304688 332.2691040039063 C 388.9291687011719 333.3501892089844 391.6671142578125 335.0481262207031 392.9739990234375 337.4599914550781 C 394.1019897460938 339.5417175292969 393.8629150390625 341.6947631835938 393.7045593261719 343.12109375 L 393.7029724121094 343.1354370117188 L 393.7009887695313 343.1497192382813 C 393.6898498535156 343.2290344238281 393.6796569824219 343.3085327148438 393.67041015625 343.38818359375 C 396.5347900390625 342.3080749511719 402.2733154296875 339.7171630859375 413.7561645507813 333.7239379882813 C 417.8728942871094 331.5764770507813 421.7619934082031 329.5478210449219 424.0225524902344 328.6264038085938 C 425.5845642089844 327.9286804199219 427.3307189941406 327.5599670410156 429.0736389160156 327.5599670410156 C 429.8672790527344 327.5599365234375 430.6635437011719 327.6354370117188 431.4402770996094 327.7843627929688 L 431.4626770019531 327.7886657714844 L 431.48486328125 327.7939758300781 C 435.2180786132813 328.6880493164063 436.0070190429688 331.1189575195313 436.6412963867188 333.0733032226563 L 436.6618041992188 333.136474609375 L 436.6737670898438 333.2017822265625 C 436.8414611816406 334.1172485351563 437.2843933105469 334.958251953125 437.9632568359375 335.6578674316406 C 438.3813781738281 335.5165100097656 439.1925964355469 335.1082763671875 440.6415405273438 333.9534606933594 C 441.9619445800781 332.9010925292969 443.2716979980469 331.6599731445313 444.0617065429688 330.9105224609375 C 446.2635803222656 328.6237487792969 449.4473571777344 327.312744140625 452.8011474609375 327.312744140625 C 453.4269104003906 327.312744140625 454.0577392578125 327.3591918945313 454.6763305664063 327.4508361816406 C 457.6747131347656 327.8270874023438 460.1781005859375 329.653076171875 461.2942199707031 332.1213989257813 C 461.4614562988281 331.8934326171875 461.6150512695313 331.6575012207031 461.7544555664063 331.4142456054688 C 464.3777465820313 326.8279724121094 469.7508239746094 326.2974853515625 473.5641784667969 326.2973937988281 C 475.0574645996094 326.2973327636719 476.4813537597656 326.3896179199219 477.7359924316406 326.470947265625 L 477.8154296875 326.4759521484375 C 479.1161193847656 326.5581359863281 480.4611511230469 326.6431579589844 481.7879028320313 326.6431579589844 C 482.8050537109375 326.6431579589844 483.7657775878906 326.6431579589844 484.7173156738281 325.7420654296875 C 485.9884338378906 324.538330078125 487.0088806152344 321.9524841308594 487.7503051757813 318.0562438964844 C 488.7881774902344 312.6034851074219 492.7898559570313 310.6152648925781 495.7117614746094 309.1635131835938 L 495.7291870117188 309.1548767089844 C 498.0426940917969 308.0054016113281 498.9083862304688 307.5752868652344 499.0584716796875 305.400390625 C 499.2894592285156 301.9906616210938 501.8952026367188 299.2083129882813 506.8033752441406 297.1305847167969 C 509.6357727050781 295.9315795898438 512.8772583007813 295.1263427734375 515.7072143554688 294.5941772460938 C 515.449951171875 294.43896484375 515.1976318359375 294.2767028808594 514.9505615234375 294.107666015625 L 514.9325561523438 294.0953979492188 L 514.9151611328125 294.0823364257813 C 512.407470703125 292.2013854980469 511.1102294921875 289.8300476074219 511.3559875488281 287.5763244628906 C 511.5160827636719 286.1081237792969 512.396484375 284.0447387695313 515.681640625 282.5525817871094 C 517.570556640625 281.6946105957031 517.8186645507813 281.1225280761719 517.8448486328125 281.0414733886719 C 517.7974853515625 280.9432067871094 517.5059814453125 280.6451416015625 516.6587524414063 280.3450317382813 C 515.755859375 280.0252380371094 514.5360717773438 279.8079528808594 513.1312255859375 279.7167053222656 C 511.1304321289063 279.5867614746094 509.8766479492188 279.1023864746094 509.06591796875 278.146240234375 C 508.3073120117188 277.2514953613281 508.0537414550781 276.1011962890625 507.732666015625 274.6448974609375 C 507.4735717773438 273.4695739746094 507.1510620117188 272.0067749023438 506.4587707519531 270.2902526855469 C 505.8482360839844 268.7761840820313 504.1022033691406 267.8551635742188 502.7449645996094 267.3491516113281 C 500.9333801269531 266.6737670898438 498.6809692382813 266.3017883300781 496.4026489257813 266.3017883300781 C 492.651611328125 266.3017883300781 490.4974365234375 267.3081970214844 490.3845520019531 268.0347290039063 C 489.9634704589844 270.7452392578125 486.7529602050781 271.45947265625 485.6979675292969 271.6942138671875 C 483.4789428710938 272.1878662109375 480.3236083984375 272.4080505371094 475.4669799804688 272.4080505371094 C 472.9494934082031 272.4080505371094 470.1548767089844 272.3525695800781 466.7333374023438 272.269287109375 C 466.1604309082031 272.25537109375 465.6060180664063 272.2483215332031 465.0854797363281 272.2483215332031 C 460.7630310058594 272.2483215332031 458.0955810546875 272.7090759277344 456.4365234375 273.7422485351563 C 454.9576416015625 274.6632385253906 454.2758178710938 276.0528564453125 453.3321228027344 277.9762268066406 C 452.8018493652344 279.0570373535156 452.2007751464844 280.2821044921875 451.3515930175781 281.6277160644531 C 449.8330688476563 284.0341186523438 447.8068237304688 285.1549072265625 444.9749145507813 285.1549072265625 C 443.64794921875 285.1549072265625 442.2826843261719 284.9122009277344 440.9623107910156 284.6775207519531 C 439.6499328613281 284.4442138671875 438.4102783203125 284.2238464355469 437.2212524414063 284.2238464355469 C 436.2297668457031 284.2238464355469 435.3948364257813 284.3840637207031 434.6687927246094 284.7136840820313 C 434.2751159667969 284.8923950195313 433.8874816894531 285.0709838867188 433.5126342773438 285.24365234375 C 430.1428527832031 286.7960510253906 427.2325744628906 288.13671875 423.1207580566406 288.13671875 C 421.4763793945313 288.13671875 419.7313537597656 287.9244995117188 417.7859497070313 287.488037109375 C 416.6896362304688 287.2420349121094 415.8644714355469 287.1224670410156 415.2632751464844 287.1224670410156 C 414.496337890625 287.1224670410156 414.3292846679688 287.3158874511719 414.2579345703125 287.3984985351563 C 414.0514221191406 287.6376342773438 413.8995666503906 288.1410217285156 413.7237243652344 288.7239074707031 C 413.2840270996094 290.1814575195313 412.6195983886719 292.3841247558594 409.9541320800781 294.71435546875 C 407.6416625976563 296.7361755371094 404.7514038085938 297.718994140625 401.1182250976563 297.718994140625 C 397.1140747070313 297.718994140625 392.7108764648438 296.5551452636719 388.0491638183594 295.3229675292969 C 387.1340637207031 295.0810852050781 386.1878356933594 294.8309936523438 385.2490844726563 294.5913696289063 C 380.423095703125 293.35986328125 376.1909484863281 291.1339416503906 373.332275390625 288.3236389160156 C 370.1655578613281 285.2105102539063 368.8121643066406 281.5983276367188 369.4183654785156 277.8775939941406 C 369.7500915527344 275.8414611816406 369.5697021484375 274.4498596191406 368.8669128417969 273.623291015625 C 367.4210815429688 271.9228820800781 363.3189697265625 271.9228820800781 357.6414184570313 271.9228820800781 L 357.6363220214844 271.9228820800781 C 353.2245178222656 271.9228820800781 349.3366088867188 271.8633422851563 346.4365234375 271.1319274902344 C 343.2989807128906 270.3406372070313 341.3954467773438 268.7699279785156 340.4459533691406 266.1887817382813 C 339.3630065917969 263.2447204589844 337.6035461425781 262.759521484375 333.7485046386719 261.6964111328125 C 332.1838989257813 261.264892578125 330.4105224609375 260.7758483886719 328.2773132324219 260.0093688964844 L 328.2691955566406 260.0064392089844 L 328.2611083984375 260.0033874511719 C 324.5166320800781 258.5845336914063 320.6347961425781 257.3788757324219 316.7102966308594 256.4154357910156 M 316.1495361328125 255.2515258789063 C 320.3999938964844 256.2582702636719 324.5660400390625 257.5338745117188 328.6154479980469 259.0682983398438 C 336.1661376953125 261.78125 339.6393737792969 261.0994567871094 341.3844909667969 265.8435668945313 C 343.1296691894531 270.5877990722656 348.34619140625 270.9228820800781 357.6363220214844 270.9228820800781 C 366.9262084960938 270.9228820800781 371.5647888183594 270.9215698242188 370.4053649902344 278.0383911132813 C 369.2457885742188 285.1553039550781 376.2091979980469 291.2525329589844 385.496337890625 293.6224365234375 C 391.082275390625 295.048095703125 396.4571838378906 296.718994140625 401.1182250976563 296.718994140625 C 404.2062072753906 296.718994140625 406.9809265136719 295.9855651855469 409.2958984375 293.9615478515625 C 414.1925964355469 289.6806640625 411.663330078125 286.1224365234375 415.2632751464844 286.1224365234375 C 415.9345703125 286.1224365234375 416.8195190429688 286.246337890625 418.0049133300781 286.5122985839844 C 419.9461059570313 286.9478454589844 421.6181030273438 287.13671875 423.1207580566406 287.13671875 C 427.4563293457031 287.13671875 430.3780212402344 285.5634460449219 434.2554016113281 283.8031311035156 C 435.1963806152344 283.3759460449219 436.1940307617188 283.2238464355469 437.2212829589844 283.2238464355469 C 439.7627868652344 283.2238464355469 442.4847106933594 284.1548767089844 444.9749145507813 284.1548767089844 C 447.0625610351563 284.1548767089844 448.9874572753906 283.5003051757813 450.5058898925781 281.0940551757813 C 454.3972778320313 274.9276123046875 452.962646484375 271.2483215332031 465.0854797363281 271.2483215332031 C 465.6160583496094 271.2483215332031 466.1735534667969 271.2554016113281 466.7576599121094 271.2695922851563 C 469.9783325195313 271.3479919433594 472.8880310058594 271.4080200195313 475.4669799804688 271.4080200195313 C 484.0426330566406 271.4080200195313 488.95166015625 270.7437438964844 489.3963928222656 267.8811950683594 C 489.6542663574219 266.2215576171875 492.7944641113281 265.3017883300781 496.4026489257813 265.3017883300781 C 500.8893127441406 265.3017883300781 506.0992126464844 266.724609375 507.3861999511719 269.9162902832031 C 509.7086486816406 275.6746826171875 507.9778747558594 278.3798828125 513.196044921875 278.7188110351563 C 518.4144287109375 279.0577392578125 521.3135375976563 281.0927734375 516.09521484375 283.4630737304688 C 510.8771057128906 285.8331604003906 511.4569091796875 290.2383117675781 515.5151977539063 293.2823791503906 C 516.5918579101563 294.0190124511719 517.777587890625 294.6184387207031 519.03759765625 295.0628662109375 C 512.2972412109375 296.0057067871094 500.52001953125 298.6213073730469 500.0561828613281 305.4679870605469 C 499.866455078125 308.2173461914063 498.5517883300781 308.8690795898438 496.1702575683594 310.0523376464844 C 493.2768249511719 311.4899597167969 489.6791687011719 313.2703857421875 488.732666015625 318.2431945800781 C 486.9439392089844 327.6431579589844 483.9622802734375 327.6431579589844 481.7879028320313 327.6431579589844 C 480.4022216796875 327.6431579589844 479.0120544433594 327.5535278320313 477.6729431152344 327.4689636230469 C 476.4283142089844 327.3882751464844 475.0204772949219 327.29736328125 473.564208984375 327.2973937988281 C 469.3946228027344 327.2974853515625 464.8345947265625 328.0433349609375 462.6224975585938 331.9107360839844 C 462.161376953125 332.71533203125 461.5626525878906 333.4500427246094 460.8480224609375 334.0887451171875 C 460.3917846679688 331.154541015625 457.8167419433594 328.8485412597656 454.5413513183594 328.4417724609375 C 453.9607849121094 328.3551635742188 453.3789672851563 328.312744140625 452.8011474609375 328.312744140625 C 449.7420959472656 328.3127746582031 446.7973022460938 329.5019226074219 444.7669677734375 331.619873046875 C 443.1626586914063 333.1418762207031 439.4068908691406 336.7027282714844 437.6427917480469 336.7301330566406 C 436.6083374023438 335.8305053710938 435.9236450195313 334.6565551757813 435.6901245117188 333.3820190429688 C 435.0773315429688 331.4938049316406 434.4405822753906 329.5301208496094 431.251953125 328.7664794921875 C 430.5314331054688 328.6283264160156 429.8014526367188 328.5599365234375 429.0736694335938 328.5599365234375 C 427.4665832519531 328.5599670410156 425.870849609375 328.8935241699219 424.4161376953125 329.5458374023438 C 422.2444763183594 330.4288940429688 418.5233154296875 332.3650817871094 414.2186889648438 334.6105346679688 C 400.9959106445313 341.5119018554688 395.1226806640625 344.0469665527344 392.6059875488281 344.8142700195313 C 392.5915832519531 344.2117309570313 392.626708984375 343.6089782714844 392.710693359375 343.0107421875 C 393.02099609375 340.2158813476563 393.5426330566406 335.5339660644531 384.3612365722656 333.2392578125 C 376.3004760742188 331.2210388183594 364.9317932128906 329.9001159667969 356.4969482421875 328.9223327636719 C 353.4635620117188 328.5652770996094 350.8529357910156 328.2664489746094 349.3130187988281 328.0211486816406 C 346.8694763183594 327.6328735351563 345.408203125 327.1418762207031 344.8403930664063 326.52099609375 C 344.1764221191406 325.802978515625 344.3370056152344 324.4809265136719 345.2880249023438 322.8160400390625 C 348.0290222167969 318.0225830078125 347.8288879394531 314.8577880859375 344.680908203125 313.1394348144531 C 343.3089599609375 312.389404296875 341.5949401855469 312.0149841308594 339.5588073730469 312.0150451660156 C 337.889892578125 312.0151062011719 336.00439453125 312.2667236328125 333.9148559570313 312.769287109375 C 326.3141784667969 314.5970153808594 322.4858093261719 314.9302978515625 320.7243041992188 314.9302978515625 C 320.2528991699219 314.9302978515625 319.929443359375 314.9064025878906 319.7214050292969 314.8809204101563 C 319.7238159179688 314.818115234375 319.7319641113281 314.7556457519531 319.7460021972656 314.6939392089844 C 320.1354675292969 313.5475158691406 320.9201965332031 312.541259765625 321.9885864257813 311.8199768066406 C 323.1089477539063 310.8769836425781 324.6426086425781 309.5837097167969 323.6118774414063 308.0031433105469 C 323.0947265625 307.3041076660156 322.3451538085938 306.7684936523438 320.2533264160156 306.0746154785156 C 318.7862243652344 305.7007446289063 317.291259765625 305.4203491210938 315.7801513671875 305.2355041503906 C 308.6515502929688 304.2446899414063 308.8353271484375 302.6330261230469 309.3284912109375 298.3213806152344 L 309.5223388671875 296.633056640625 C 310.079345703125 292.9676208496094 310.1812744140625 289.2577819824219 309.8271484375 285.5720520019531 C 309.6414794921875 283.5831604003906 308.78173828125 281.692626953125 307.3626708984375 280.1540222167969 C 307.25244140625 280.0240478515625 307.1527099609375 279.9176940917969 307.0728759765625 279.8189697265625 C 307.2816162109375 279.6851196289063 307.674072265625 279.4618835449219 308.422607421875 279.0643615722656 C 313.8275146484375 276.199462890625 318.5010070800781 273.7267456054688 314.489990234375 268.2632141113281 C 313.435302734375 266.8629760742188 312.0498046875 265.6880187988281 310.431396484375 264.82177734375 C 310.7373046875 264.2076416015625 311.106201171875 263.6202697753906 311.532958984375 263.0670166015625 C 313.3597412109375 260.6067199707031 314.9063720703125 257.9883728027344 316.1495361328125 255.2515258789063 Z" stroke="none" fill="#30abec"/>
      </g>
      <text id="hechuan-3" data-name="hechuan" transform="translate(149 144)" fill="#fff" font-size="10" font-family="MicrosoftYaHei, Microsoft YaHei"><tspan x="0" y="0">合川区</tspan></text>
      <g transform="matrix(1, 0, 0, 1, 0, 9)" filter="url(#hechuan1)">
        <path id="hechuan1-2" data-name="hechuan1" d="M-772.466-944.437h0a11.136,11.136,0,0,1,.1-1.8c.311-2.8.831-7.477-8.349-9.771-8.09-2.025-19.518-3.349-27.863-4.316l-.974-.115c-2.6-.3-4.837-.568-6.211-.787-2.44-.387-3.9-.878-4.472-1.5-.666-.72-.507-2.036.447-3.705,1.671-2.921,2.241-5.194,1.745-6.949a4.524,4.524,0,0,0-2.351-2.728,10.626,10.626,0,0,0-5.122-1.124,24.5,24.5,0,0,0-5.644.754c-7.819,1.88-11.62,2.161-13.19,2.161a8.446,8.446,0,0,1-1-.049.955.955,0,0,1,.024-.187,5.671,5.671,0,0,1,2.243-2.874c1.12-.943,2.655-2.235,1.623-3.817a4.377,4.377,0,0,0-2.142-1.531l-1.216-.4a35.762,35.762,0,0,0-4.473-.839c-7.13-.991-6.945-2.6-6.452-6.914l.194-1.688a45,45,0,0,0,.305-11.061c-.014-.149-.032-.3-.053-.449.83,1.022,2.57,1.634,6.007,2.112a35.77,35.77,0,0,1,4.473.839l1.216.4a4.376,4.376,0,0,1,2.142,1.531c1.032,1.582-.5,2.874-1.623,3.817a5.672,5.672,0,0,0-2.243,2.874.949.949,0,0,0-.024.187,8.392,8.392,0,0,0,1,.049c1.57,0,5.372-.281,13.19-2.161a24.5,24.5,0,0,1,5.644-.754,10.626,10.626,0,0,1,5.122,1.124,4.525,4.525,0,0,1,2.352,2.728c.5,1.755-.074,4.028-1.745,6.949-.954,1.67-1.113,2.986-.447,3.705.569.622,2.032,1.112,4.472,1.5,1.372.219,3.612.482,6.207.787l.977.115c8.346.967,19.775,2.291,27.865,4.316,9.18,2.295,8.66,6.974,8.349,9.77a11.159,11.159,0,0,0-.1,1.8c2.257-.688,7.841-3.016,21.613-10.2,4.1-2.141,7.981-4.163,10.2-5.065a11.468,11.468,0,0,1,4.658-.986,11.609,11.609,0,0,1,2.178.206c3.188.764,3.823,2.722,4.438,4.616a5.886,5.886,0,0,0,1.953,3.348c1.767-.027,5.521-3.589,7.123-5.11a11.13,11.13,0,0,1,8.034-3.307,11.832,11.832,0,0,1,1.741.129,7.683,7.683,0,0,1,4.21,1.876,6.347,6.347,0,0,1,2.1,3.771,8.8,8.8,0,0,0,1.775-2.178c2.365-4.135,7.376-4.613,10.94-4.613,1.463,0,2.869.091,4.109.172l.057,0c1.325.084,2.693.17,4.06.17,2.176,0,5.156,0,6.944-9.4.946-4.966,4.539-6.751,7.427-8.185l.011-.005.005,0c2.38-1.183,3.691-1.835,3.881-4.582.46-6.8,12.062-9.432,18.937-10.4v.011l.043,17.983c-.017,0-2.627.4-3.793.638a36.958,36.958,0,0,0-10.024,3.307c-3.256,1.764-4.993,3.938-5.164,6.46-.19,2.748-1.5,3.4-3.881,4.582l-.005,0-.011.005c-2.887,1.434-6.481,3.219-7.427,8.185-1.788,9.4-4.768,9.4-6.944,9.4-1.368,0-2.737-.086-4.06-.17l-.056,0c-1.241-.081-2.647-.172-4.11-.172-3.564,0-8.575.478-10.94,4.613a8.8,8.8,0,0,1-1.775,2.178,7.073,7.073,0,0,0-6.306-5.647,11.826,11.826,0,0,0-1.741-.129,11.13,11.13,0,0,0-8.034,3.307c-1.6,1.521-5.357,5.083-7.123,5.11a5.884,5.884,0,0,1-1.953-3.348c-.615-1.894-1.25-3.852-4.438-4.616a11.614,11.614,0,0,0-2.178-.206,11.467,11.467,0,0,0-4.658.986c-2.214.9-6.09,2.923-10.193,5.063-13.768,7.186-19.353,9.516-21.615,10.205Zm-83.486-61.979a9.584,9.584,0,0,0-1.758-2.681c-.047-.056-.092-.107-.135-.155-.058-.065-.11-.125-.155-.181.205-.131,0-17.795,0-17.973l.043.025c.034.041.071.083.111.128s.088.1.136.156a9.217,9.217,0,0,1,2.464,5.418,45,45,0,0,1-.305,11.061l-.194,1.688a23.737,23.737,0,0,0-.206,2.513Zm209.873-5.788h0a15.214,15.214,0,0,1-3.477-1.764c-2.218-1.664-3.371-3.7-3.165-5.6.189-1.735,1.484-3.195,3.745-4.222a5.7,5.7,0,0,0,2.579-1.842l.319,13.425Zm-208.867-16.9v0l.336-13.312a12.444,12.444,0,0,1,4.028,3.425c1.256,1.71,1.72,3.2,1.419,4.555-.457,2.058-2.551,3.566-5.781,5.333Z" transform="translate(916 1127)" stroke="rgba(0,0,0,0)" stroke-miterlimit="10" stroke-width="1" fill="url(#linear-gradient)"/>
      </g>
    </g>
  </g>
</svg>
