<svg xmlns="http://www.w3.org/2000/svg" xmlns:xlink="http://www.w3.org/1999/xlink" width="381.253" height="136.366" viewBox="0 0 381.253 136.366">
  <defs>
    <linearGradient id="linear-gradient" x1="0.603" y1="0.898" x2="0.591" y2="0.542" gradientUnits="objectBoundingBox">
      <stop offset="0" stop-color="#191e64"/>
      <stop offset="1" stop-color="#17448b"/>
    </linearGradient>
    <filter id="jiagnbei3" x="0" y="0" width="381.253" height="136.366" filterUnits="userSpaceOnUse">
      <feOffset dy="8" input="SourceAlpha"/>
      <feGaussianBlur stdDeviation="9" result="blur"/>
      <feFlood flood-color="#0f093c" flood-opacity="0.161"/>
      <feComposite operator="in" in2="blur"/>
      <feComposite in="SourceGraphic"/>
    </filter>
    <radialGradient id="radial-gradient" cx="0.5" cy="0.5" r="0.5" gradientUnits="objectBoundingBox">
      <stop offset="0" stop-color="#1fb9e6"/>
      <stop offset="1" stop-color="#0669d2"/>
    </radialGradient>
  </defs>
  <g id="jiagnbei" transform="translate(-2722.934 -1919.088)">
    <g transform="matrix(1, 0, 0, 1, 2722.93, 1919.09)" filter="url(#jiagnbei3)">
      <path id="jiagnbei3-2" data-name="jiagnbei3" d="M35.513,82.454A186.884,186.884,0,0,1,15.54,81.36c-1.819-1.222-3.875-2.4-5.66-3.41C6.073,75.781,1.758,73.324.51,71.11A4.512,4.512,0,0,1,0,69.17c.47-.03,0-13.695,0-13.833l.009,0a4.463,4.463,0,0,0,.5,1.77c1.247,2.212,5.562,4.671,9.37,6.84,1.781,1.006,3.835,2.182,5.66,3.409a186.584,186.584,0,0,0,19.974,1.094,107.912,107.912,0,0,0,15.732-.983c4.629-.712,7.615-1.758,8.874-3.11C72.767,50.92,91.774,48.1,105.492,48.1A94.632,94.632,0,0,1,127.96,50.63a10.68,10.68,0,0,1,3.53-.751c.738-.036,1.493-.055,2.244-.055,7.9,0,15.159,1.995,21.566,3.754a76.123,76.123,0,0,0,13.62,2.9c.2.016.41.024.628.024,4.118,0,11.081-2.849,18.454-5.866l.388-.159.159-.065c11.022-4.543,23.515-9.693,35.3-9.693.278,0,.548,0,.824.008,18.891.316,31.88,11.125,35.411,14.43a21.91,21.91,0,0,1,5.946-.871c4.453,0,7.8,1.6,11.044,3.151l.023.011c3.835,1.838,7.8,3.739,14.817,3.739,1.383,0,9-1.533,23.17-31.79C320.2,18.517,324.5,7.459,327.214.1l.036-.01c.009.019,0,1.669-.012,3.757v.126c-.005.959-.011,2.017-.017,3.074-.015,3.21-.025,6.9.028,6.956-2.715,7.381-7.03,18.472-12.168,29.4-14.168,30.257-21.786,31.79-23.17,31.79-7.015,0-10.98-1.9-14.814-3.737l-.026-.013c-3.24-1.549-6.589-3.152-11.045-3.152a21.915,21.915,0,0,0-5.945.871c-3.531-3.305-16.517-14.112-35.411-14.43-.271-.006-.548-.009-.824-.009-11.778,0-24.264,5.146-35.281,9.686l-.175.072-.394.161c-7.369,3.015-14.329,5.863-18.446,5.863-.22,0-.431-.008-.63-.024a76.115,76.115,0,0,1-13.62-2.9c-6.4-1.76-13.662-3.755-21.565-3.755-.752,0-1.508.018-2.245.055a10.678,10.678,0,0,0-3.53.75A94.592,94.592,0,0,0,105.494,62.1C91.776,62.1,72.768,64.92,60.12,78.36c-1.259,1.352-4.245,2.4-8.874,3.11a107.924,107.924,0,0,1-15.731.983h0Z" transform="translate(27 18.91)" fill="url(#linear-gradient)"/>
    </g>
    <g id="jiagnbei2" transform="translate(2580.004 1732.86)" opacity="0.67" fill="url(#radial-gradient)">
      <path d="M 205.4425506591797 273.0933837890625 C 198.9580535888672 273.0933837890625 192.1159820556641 272.7210388183594 185.6464080810547 272.0163269042969 C 183.8356781005859 270.80615234375 181.8139953613281 269.6480102539063 180.0560150146484 268.6547241210938 C 176.4961700439453 266.627197265625 172.0648651123047 264.1033325195313 170.8793334960938 262.0111083984375 C 170.6788177490234 261.6262512207031 170.5419158935547 261.2067565917969 170.4750518798828 260.7770690917969 C 175.7613067626953 260.4515991210938 183.5767974853516 260.0800170898438 191.7000579833984 260.0800170898438 C 200.4674224853516 260.0800170898438 206.2915191650391 259.0750427246094 213.6650543212891 257.8027648925781 C 218.2203826904297 257.0162658691406 222.7889709472656 256.2503051757813 228.5820465087891 255.526123046875 C 239.6010894775391 254.1652526855469 245.6617584228516 248.6001739501953 252.0782165527344 242.7082977294922 C 256.41943359375 238.7255401611328 261.3400573730469 234.2112121582031 268.6905517578125 230.1783752441406 C 272.4085388183594 228.1410827636719 277.0840454101563 226.5808410644531 282.5869750976563 225.5410003662109 C 288.0699768066406 224.5049591064453 294.4059753417969 223.9796295166016 301.4190063476563 223.9796295166016 C 311.7870178222656 223.9796295166016 323.5645141601563 225.1144561767578 336.42431640625 227.3525848388672 L 336.6055908203125 227.3840484619141 C 356.5030822753906 230.8362884521484 368.5131225585938 232.9200439453125 384.5056762695313 233.0599975585938 L 384.7500610351563 233.0599975585938 C 395.2694396972656 233.0599975585938 404.9880676269531 227.1012115478516 413.5626220703125 221.8438720703125 L 413.5913391113281 221.8262481689453 C 419.1167297363281 218.4237518310547 424.3348999023438 215.2104187011719 429.1334838867188 213.8818817138672 C 430.8335266113281 213.4062194824219 432.7134704589844 212.8659973144531 435.2303466796875 212.1299133300781 C 444.7633056640625 209.3504638671875 456.6278381347656 205.8912048339844 466.2234191894531 205.8912048339844 C 468.4519348144531 205.8912048339844 470.4996337890625 206.0791778564453 472.3097229003906 206.4498443603516 C 475.8362121582031 207.1499633789063 479.4442749023438 207.5046691894531 483.0364990234375 207.5046691894531 C 487.5340881347656 207.5046691894531 492.0178833007813 206.9529418945313 496.3796691894531 205.86376953125 C 493.6513061523438 213.2251129150391 489.478759765625 223.8605041503906 484.5575256347656 234.3272094726563 C 481.3039855957031 241.2752075195313 478.1492919921875 247.2241668701172 475.1808776855469 252.0095520019531 C 472.7445983886719 255.9371337890625 470.4165954589844 259.1110534667969 468.2615661621094 261.4431762695313 C 464.5001220703125 265.513671875 462.3954772949219 265.8300170898438 461.8400268554688 265.8300170898438 C 454.9396362304688 265.8300170898438 451.0265502929688 263.9549560546875 447.2423095703125 262.1416625976563 L 447.216064453125 262.1290893554688 C 443.9253540039063 260.5555725097656 440.5229797363281 258.9286804199219 435.9560546875 258.9286804199219 C 434.0909423828125 258.9286804199219 432.1876220703125 259.1956481933594 430.1463623046875 259.7442321777344 C 426.3063049316406 256.2031555175781 413.3305969238281 245.6842651367188 394.6083984375 245.3701324462891 C 394.3352966308594 245.3644561767578 394.0547485351563 245.3615875244141 393.7765502929688 245.3615875244141 C 381.8956909179688 245.3615875244141 369.35546875 250.5305023193359 358.29150390625 255.0909576416016 L 358.1294555664063 255.1577606201172 L 357.7386474609375 255.3176727294922 C 350.4152526855469 258.3140869140625 343.498046875 261.144287109375 339.479248046875 261.144287109375 C 339.2776794433594 261.144287109375 339.082763671875 261.1369323730469 338.8998718261719 261.1224365234375 C 334.325927734375 260.579833984375 329.776611328125 259.6109619140625 325.3785400390625 258.2426147460938 L 325.3705444335938 258.2401428222656 L 325.3625183105469 258.2379150390625 C 318.9273376464844 256.4696350097656 311.6336059570313 254.4653778076172 303.6637573242188 254.4653778076172 C 302.9043884277344 254.4653778076172 302.1412353515625 254.4839630126953 301.3954772949219 254.5205841064453 C 300.1841430664063 254.5691528320313 298.9938049316406 254.8130340576172 297.8585205078125 255.2457275390625 C 295.8750915527344 254.7414855957031 287.2476501464844 252.7386627197266 275.4229431152344 252.7386627197266 C 261.6062316894531 252.7386627197266 242.4556732177734 255.5871734619141 229.6859283447266 269.1573791503906 C 227.3887176513672 271.6226196289063 218.3263854980469 273.0933837890625 205.4425506591797 273.0933837890625 Z" stroke="none"/>
      <path d="M 205.4425506591797 272.5933837890625 C 211.5038909912109 272.5933837890625 216.8916778564453 272.2574768066406 221.0234680175781 271.6219177246094 C 226.7949676513672 270.7341613769531 228.6978454589844 269.4843444824219 229.3218078613281 268.8147583007813 C 242.2139282226563 255.1144561767578 261.5076904296875 252.2386627197266 275.4229431152344 252.2386627197266 C 284.6963500976563 252.2386627197266 293.0088500976563 253.5068359375 297.830322265625 254.7225494384766 C 298.9701843261719 254.3057403564453 300.16162109375 254.0699157714844 301.377197265625 254.0209045410156 C 302.1292114257813 253.9840698242188 302.8984680175781 253.9653778076172 303.6637573242188 253.9653778076172 C 311.7010192871094 253.9653778076172 319.0293579101563 255.9791259765625 325.4949645996094 257.7557983398438 L 325.5111083984375 257.7602233886719 L 325.527099609375 257.7651977539063 C 329.8927917480469 259.1234741210938 334.4079284667969 260.08544921875 338.9481811523438 260.6246948242188 C 339.1154174804688 260.6376953125 339.2940063476563 260.644287109375 339.479248046875 260.644287109375 C 343.3996887207031 260.644287109375 350.2725524902344 257.8322448730469 357.5489196777344 254.8550415039063 L 357.9389343261719 254.6955108642578 L 358.1009826660156 254.6287078857422 C 369.2078552246094 250.0505828857422 381.7966918945313 244.8615875244141 393.7765502929688 244.8615875244141 C 394.0581359863281 244.8615875244141 394.3421325683594 244.864501953125 394.6167907714844 244.8701629638672 C 413.1960754394531 245.1819610595703 426.1679382324219 255.4490661621094 430.2828063964844 259.1911926269531 C 432.2667541503906 258.6785278320313 434.1280822753906 258.4286804199219 435.9560546875 258.4286804199219 C 440.6362915039063 258.4286804199219 444.0907287597656 260.0804748535156 447.43212890625 261.6781616210938 L 447.4583740234375 261.6907653808594 C 451.1922607421875 263.4799194335938 455.05322265625 265.3300170898438 461.8400268554688 265.3300170898438 C 462.1988830566406 265.3300170898438 464.1773071289063 265.1262512207031 467.8943176269531 261.1038513183594 C 470.0278015136719 258.7950134277344 472.33642578125 255.6465911865234 474.7560119628906 251.7459564208984 C 477.7141723632813 246.9771728515625 480.8594360351563 241.0455474853516 484.1050415039063 234.1144561767578 C 488.8262634277344 224.0732269287109 492.8580627441406 213.8746032714844 495.5837097167969 206.5696258544922 C 491.4719543457031 207.5224914550781 487.2604064941406 208.0046691894531 483.0364990234375 208.0046691894531 C 479.4116821289063 208.0046691894531 475.7709350585938 207.6467590332031 472.2153015136719 206.9408721923828 L 472.2123413085938 206.9402923583984 L 472.2093811035156 206.9396667480469 C 470.4322509765625 206.5757598876953 468.4182739257813 206.3912048339844 466.2234191894531 206.3912048339844 C 456.6992492675781 206.3912048339844 444.8727111816406 209.8393859863281 435.3707275390625 212.6098022460938 C 432.8518981933594 213.3464660644531 430.97021484375 213.8871765136719 429.2668762207031 214.3637542724609 C 424.5366821289063 215.67333984375 419.3478393554688 218.8686218261719 413.8527221679688 222.2525024414063 L 413.8240051269531 222.2701263427734 C 405.1930541992188 227.5620422363281 395.4105224609375 233.5599975585938 384.7500610351563 233.5599975585938 L 384.5100402832031 233.5599975585938 L 384.5056762695313 233.5599975585938 L 384.5013122558594 233.5599670410156 C 368.4679260253906 233.419677734375 356.4427185058594 231.3332977294922 336.5200805664063 227.8766632080078 L 336.3385925292969 227.84521484375 C 323.5069274902344 225.6119689941406 311.75830078125 224.4796295166016 301.4190063476563 224.4796295166016 C 294.4370422363281 224.4796295166016 288.1322631835938 225.0020446777344 282.6798095703125 226.0323333740234 C 277.2286071777344 227.0623779296875 272.6026916503906 228.6048736572266 268.9310607910156 230.6167144775391 C 261.633544921875 234.6204986572266 256.7366027832031 239.1131286621094 252.4163818359375 243.0765838623047 C 245.9392547607422 249.0241241455078 239.8213500976563 254.6418762207031 228.6440887451172 256.0223083496094 C 222.8616790771484 256.7450866699219 218.2993927001953 257.510009765625 213.7500915527344 258.2955017089844 C 206.3529357910156 259.5718383789063 200.5102233886719 260.5800170898438 191.7000579833984 260.5800170898438 C 183.8869781494141 260.5800170898438 176.3583221435547 260.9243469238281 171.0972747802734 261.2402038574219 C 171.1563720703125 261.4235229492188 171.2304992675781 261.6018981933594 171.3188629150391 261.7725219726563 C 172.4430541992188 263.7433776855469 176.8013916015625 266.2256469726563 180.3019714355469 268.2194213867188 C 182.0350189208984 269.1985778808594 184.0234680175781 270.3374938964844 185.8219604492188 271.532470703125 C 192.2379302978516 272.2267150878906 199.0162506103516 272.5933837890625 205.4425506591797 272.5933837890625 M 205.4425354003906 273.5933532714844 C 198.9433135986328 273.5933532714844 191.9526977539063 273.2108459472656 185.4700469970703 272.5000305175781 C 183.7300109863281 271.3300170898438 181.81005859375 270.2200317382813 179.81005859375 269.0900573730469 C 176.0000610351563 266.9200439453125 171.6800537109375 264.4500427246094 170.4400482177734 262.2500305175781 C 170.1259307861328 261.6501159667969 169.9515991210938 260.9869079589844 169.9300537109375 260.31005859375 C 174.3800506591797 260.0300598144531 182.7900543212891 259.5800170898438 191.7000579833984 259.5800170898438 C 200.4100494384766 259.5800170898438 206.2200469970703 258.5800170898438 213.5800476074219 257.31005859375 C 217.7500610351563 256.5900573730469 222.5200500488281 255.7799987792969 228.5200500488281 255.0299987792969 C 239.3700561523438 253.6900024414063 245.3800506591797 248.1800079345703 251.7400512695313 242.3399963378906 C 256.1000671386719 238.3399963378906 261.050048828125 233.8000030517578 268.4500427246094 229.7400054931641 C 276.0425720214844 225.5796966552734 287.3187255859375 223.4796447753906 301.4190063476563 223.4796447753906 C 311.7212524414063 223.4796447753906 323.5322265625 224.6013336181641 336.5100402832031 226.8600006103516 C 356.5100402832031 230.3300018310547 368.5100402832031 232.4199981689453 384.5100402832031 232.5599975585938 L 384.7500610351563 232.5599975585938 C 395.1400146484375 232.5599975585938 404.8000183105469 226.6300048828125 413.3300170898438 221.4000091552734 C 418.9000244140625 217.9700012207031 424.1600646972656 214.7400054931641 429.0000610351563 213.4000091552734 C 430.9300231933594 212.8600006103516 432.9700622558594 212.2700042724609 435.0900268554688 211.6500091552734 C 444.8536682128906 208.8032989501953 456.5660400390625 205.3912200927734 466.2234191894531 205.3912200927734 C 468.4057922363281 205.3912200927734 470.4837951660156 205.5655517578125 472.4100036621094 205.9600067138672 C 475.9208374023438 206.6570129394531 479.4801025390625 207.0046691894531 483.0365295410156 207.0046691894531 C 487.7970581054688 207.0046691894531 492.5525512695313 206.3817443847656 497.1800231933594 205.1399993896484 C 494.9200134277344 211.2799987792969 490.4500122070313 222.9699554443359 485.010009765625 234.5399627685547 C 470.8400268554688 264.8000183105469 463.2200012207031 266.3300170898438 461.8400268554688 266.3300170898438 C 454.8099975585938 266.3300170898438 450.8400268554688 264.4200134277344 447 262.5800170898438 C 443.7313537597656 261.0170288085938 440.3968200683594 259.4286804199219 435.9560852050781 259.4286804199219 C 434.1745300292969 259.4286804199219 432.2146301269531 259.6844177246094 430.010009765625 260.3000183105469 C 426.7200012207031 257.2200317382813 413.6700134277344 246.1900482177734 394.6000061035156 245.8700408935547 C 394.3257446289063 245.8643646240234 394.0516357421875 245.861572265625 393.7765502929688 245.861572265625 C 381.9369506835938 245.861572265625 369.3927612304688 251.0560760498047 358.3200073242188 255.6200408935547 C 350.7910766601563 258.7000122070313 343.669189453125 261.644287109375 339.479248046875 261.644287109375 C 339.2616271972656 261.644287109375 339.051513671875 261.6363525390625 338.8500671386719 261.6200561523438 C 334.2307739257813 261.0726623535156 329.6716003417969 260.1019287109375 325.2300109863281 258.7200317382813 C 318.777587890625 256.9469909667969 311.5414733886719 254.9653778076172 303.6637573242188 254.9653778076172 C 302.9219665527344 254.9653778076172 302.1730346679688 254.9830017089844 301.4200134277344 255.0200042724609 C 300.2093811035156 255.0685424804688 299.0157470703125 255.3221282958984 297.8900146484375 255.7700500488281 C 293.8941345214844 254.7318420410156 285.4362182617188 253.2386932373047 275.4229125976563 253.2386932373047 C 260.5525817871094 253.2386932373047 242.2529449462891 256.5322265625 230.050048828125 269.5000305175781 C 227.4071960449219 272.3362426757813 217.2299652099609 273.5933532714844 205.4425354003906 273.5933532714844 Z" stroke="none" fill="#30abec"/>
    </g>
    <text id="jiagnbei1" transform="translate(2898.974 1979.9)" fill="#fff" font-size="10" font-family="MicrosoftYaHei, Microsoft YaHei"><tspan x="0" y="0">江北区</tspan></text>
  </g>
</svg>
