<svg xmlns="http://www.w3.org/2000/svg" xmlns:xlink="http://www.w3.org/1999/xlink" width="327" height="258" viewBox="0 0 327 258">
  <defs>
    <radialGradient id="radial-gradient" cx="0.5" cy="0.5" r="0.5" gradientUnits="objectBoundingBox">
      <stop offset="0" stop-color="#1fb9e6"/>
      <stop offset="1" stop-color="#0669d2"/>
    </radialGradient>
    <linearGradient id="linear-gradient" x1="0.5" x2="0.5" y2="1" gradientUnits="objectBoundingBox">
      <stop offset="0" stop-color="#191e64"/>
      <stop offset="1" stop-color="#17448b"/>
    </linearGradient>
    <filter id="jiangjin1" x="50.488" y="25.833" width="225.297" height="228.785" filterUnits="userSpaceOnUse">
      <feOffset dy="8" input="SourceAlpha"/>
      <feGaussianBlur stdDeviation="9" result="blur"/>
      <feFlood flood-opacity="0.161"/>
      <feComposite operator="in" in2="blur"/>
      <feComposite in="SourceGraphic"/>
    </filter>
    <clipPath id="clip-jiangjin">
      <rect width="327" height="258"/>
    </clipPath>
  </defs>
  <g id="jiangjin" clip-path="url(#clip-jiangjin)">
    <rect width="327" height="258" fill="rgba(0,0,0,0)"/>
    <g id="jiangjin-2" data-name="jiangjin" transform="translate(-0.068 -8.93)">
      <g id="thick_jiangjin" transform="translate(-191.389 -318.814)" opacity="0.67" fill="url(#radial-gradient)">
        <path d="M 398.6745300292969 527.5097045898438 C 398.1872253417969 527.5097045898438 397.6873474121094 527.4912109375 397.1887817382813 527.4547729492188 C 395.2804870605469 527.3153076171875 393.8920288085938 527.1146850585938 392.944091796875 526.84130859375 C 392.1407470703125 526.6096801757813 391.6401977539063 526.3164672851563 391.4964904785156 525.9932861328125 C 391.3228149414063 525.6026000976563 391.590576171875 524.9598999023438 392.3151550292969 524.0283813476563 C 392.4023132324219 523.916259765625 392.4917297363281 523.802001953125 392.5827331542969 523.6857299804688 C 394.0426635742188 521.8203125 395.859619140625 519.498779296875 395.36474609375 517.388916015625 C 395.1150817871094 516.3245849609375 394.2996215820313 515.45556640625 392.9409484863281 514.8059692382813 C 390.7921752929688 513.7786254882813 389.678466796875 512.8907470703125 389.0968017578125 511.7413024902344 C 388.5045166015625 510.57080078125 388.3961486816406 509.0781860351563 388.3961486816406 506.5602416992188 C 388.3961486816406 503.8003845214844 385.6211547851563 501.4334411621094 382.6832275390625 498.9275207519531 C 380.1205444335938 496.74169921875 377.4706420898438 494.4814758300781 377.1062927246094 492.1419067382813 C 376.8628845214844 490.5777587890625 377.0848999023438 489.1662292480469 377.2996520996094 487.8012084960938 C 377.7696228027344 484.81396484375 378.2134704589844 481.9924011230469 373.2426147460938 479.0941467285156 C 371.1201171875 477.8566284179688 369.0687561035156 476.2933654785156 367.0849304199219 474.7815551757813 C 363.3988342285156 471.9724731445313 359.9171447753906 469.3191833496094 356.6322937011719 469.3191833496094 C 355.9610900878906 469.3191833496094 355.30810546875 469.4314575195313 354.6914672851563 469.6529235839844 C 352.8650207519531 470.3088684082031 350.915771484375 470.6013793945313 348.3712463378906 470.6013793945313 C 346.8280944824219 470.6013793945313 345.1517333984375 470.4963684082031 343.3769226074219 470.3851928710938 C 341.197509765625 470.2486877441406 338.727294921875 470.0939331054688 335.9277648925781 470.0939331054688 C 334.5321655273438 470.0939331054688 333.2562866210938 470.1131896972656 332.1305847167969 470.130126953125 C 331.2150573730469 470.1439514160156 330.3502807617188 470.156982421875 329.5831604003906 470.156982421875 C 325.3121032714844 470.156982421875 324.1506652832031 469.7023620605469 323.9342346191406 467.9458312988281 C 323.7328491210938 466.31103515625 322.2857055664063 464.3569030761719 319.9638366699219 462.58447265625 C 317.832275390625 460.957275390625 315.4725646972656 459.8714294433594 313.8055419921875 459.750732421875 C 313.0095825195313 459.6930541992188 312.3539428710938 459.5735473632813 311.7754821777344 459.4681396484375 C 311.1514587402344 459.3544006347656 310.5620422363281 459.2469787597656 309.9481506347656 459.2469787597656 C 308.7122497558594 459.2469787597656 307.4838562011719 459.7019653320313 305.8406982421875 460.7683410644531 C 304.5739135742188 461.5903625488281 303.0419921875 463.0323486328125 301.420166015625 464.5590209960938 C 298.4283142089844 467.3752136230469 295.0373229980469 470.567138671875 292.5977478027344 470.567138671875 C 292.5464477539063 470.567138671875 292.4951171875 470.5656433105469 292.4451599121094 470.5627136230469 C 290.9052429199219 470.4723205566406 290.8086242675781 469.7283020019531 290.6624145507813 468.60205078125 C 290.5233764648438 467.5310668945313 290.3329467773438 466.0643310546875 288.1636657714844 466.0643310546875 C 287.9689331054688 466.0643310546875 287.757080078125 466.0762634277344 287.5339660644531 466.0998229980469 C 286.6008605957031 466.1983642578125 285.34423828125 466.4053649902344 283.8892211914063 466.6450500488281 C 281.0011901855469 467.1207580566406 277.406982421875 467.7128601074219 274.6646423339844 467.7128601074219 C 272.1751708984375 467.7128601074219 270.8623352050781 467.2403869628906 270.7625732421875 466.3085327148438 C 270.6232604980469 465.0097961425781 270.8351135253906 464.1195068359375 271.0053405761719 463.4041442871094 C 271.0774230957031 463.1011657714844 271.1410522460938 462.833740234375 271.1658020019531 462.5829467773438 L 272.3898620605469 462.478271484375 L 272.977783203125 462.427978515625 L 272.8316650390625 461.8562927246094 L 272.575927734375 460.8556518554688 C 271.1893615722656 455.4102172851563 270.3102722167969 449.8522338867188 270.1007080078125 445.2059936523438 C 269.9112243652344 441.0047302246094 270.2715148925781 437.8111877441406 271.0892333984375 436.4441833496094 C 271.2215881347656 436.2229309082031 271.4322814941406 435.9462585449219 271.6859130859375 435.8809814453125 C 277.3140258789063 434.61376953125 277.89111328125 431.8360595703125 278.2727966308594 429.9977722167969 C 278.6160278320313 428.3486938476563 278.8231811523438 427.3531494140625 281.5634460449219 426.4383850097656 L 283.4536437988281 425.8134460449219 C 286.8984680175781 424.6819152832031 288.7254943847656 424.0308227539063 289.3480224609375 422.7323303222656 C 289.7005615234375 421.9969482421875 289.64501953125 421.1348876953125 289.1622924804688 419.8498229980469 C 288.9937133789063 419.4014892578125 288.7629089355469 418.7876892089844 288.5546875 418.0042114257813 L 288.5539245605469 418.0013427734375 L 288.5531616210938 417.9984741210938 C 288.317138671875 417.1510009765625 287.9031066894531 416.3551330566406 287.3377380371094 415.6533203125 L 288.0784606933594 415.6074523925781 C 294.3134460449219 415.2250366210938 300.7765197753906 410.4503173828125 307.2879028320313 401.4159240722656 C 312.2897033691406 394.4760131835938 315.6681213378906 387.2044982910156 316.2945861816406 385.8172607421875 C 316.4350280761719 385.5115966796875 316.5927734375 385.1472473144531 316.7719421386719 384.7144165039063 C 319.2741088867188 386.6358642578125 322.0256042480469 388.2895202636719 324.9600524902344 389.634765625 C 326.7864990234375 390.4571533203125 329.0565795898438 390.8734130859375 331.7103576660156 390.8734130859375 C 332.5538330078125 390.8734130859375 333.4484558105469 390.8309936523438 334.3692932128906 390.7472839355469 C 343.0130615234375 389.9496765136719 352.9215087890625 385.5900573730469 357.1519775390625 382.0055236816406 C 359.7568359375 379.9556274414063 361.7060241699219 377.3097229003906 362.7886657714844 374.3537292480469 C 363.3768005371094 372.7967529296875 364.189697265625 371.3123168945313 365.2048034667969 369.94140625 C 365.8099365234375 369.1178588867188 366.28271484375 368.2285461425781 366.6142272949219 367.2916870117188 C 371.2620544433594 367.9028930664063 374.3802490234375 369.1244812011719 375.1979675292969 370.6627807617188 C 375.5984191894531 371.4206237792969 375.9754638671875 372.0667419433594 376.3013916015625 372.6054077148438 C 371.696044921875 372.7737731933594 368.8220520019531 373.7795104980469 367.5291748046875 375.6707763671875 L 367.5241394042969 375.6781311035156 L 367.5193481445313 375.6856994628906 C 367.0530090332031 376.423095703125 366.83251953125 377.2611694335938 366.8810729980469 378.1106262207031 C 366.8775939941406 378.3048706054688 366.8733215332031 378.5165100097656 366.8551025390625 378.6077575683594 C 366.7418823242188 378.6542358398438 366.4286804199219 378.7080078125 366.1248168945313 378.7601928710938 L 366.115478515625 378.7617797851563 C 364.3620300292969 379.0643005371094 362.3746643066406 379.4071655273438 361.7346801757813 380.7339477539063 C 361.0488891601563 382.1558837890625 362.5061340332031 383.095703125 363.3768005371094 383.6572570800781 L 363.38330078125 383.6614379882813 L 363.3901672363281 383.6655578613281 C 364.4002990722656 384.2735595703125 365.2939758300781 385.014404296875 366.0467224121094 385.8677978515625 C 366.8175048828125 386.8555297851563 367.5279846191406 387.8969421386719 368.1585083007813 388.9631958007813 L 368.1619262695313 388.968994140625 L 368.16552734375 388.9747009277344 C 370.5725708007813 392.8059997558594 373.0615844726563 396.7677307128906 377.6741333007813 397.7062683105469 C 378.3228759765625 397.8370971679688 378.9878845214844 397.9033203125 379.6515808105469 397.9033203125 C 380.8134460449219 397.9032897949219 381.9490356445313 397.705322265625 383.0267333984375 397.3149719238281 C 387.2633056640625 395.8059997558594 390.9811096191406 395.6672058105469 394.9171752929688 395.5202331542969 C 396.0631103515625 395.4783935546875 397.09375 395.4385986328125 398.1201171875 395.3743591308594 C 400.7727966308594 395.1980590820313 403.48095703125 394.9115600585938 404.9171752929688 393.5426940917969 C 406.6228332519531 391.9234924316406 405.3234252929688 389.8990173339844 404.7685546875 389.0345153808594 L 404.7610168457031 389.0227966308594 L 404.7528381347656 389.011474609375 C 404.0584411621094 388.0517883300781 403.1819458007813 387.2279968261719 402.1476440429688 386.5628662109375 C 402.1082153320313 386.5351257324219 402.0698547363281 386.5079345703125 402.0326232910156 386.4813232421875 C 402.2906188964844 386.3387756347656 402.5588684082031 386.2105712890625 402.8350524902344 386.0979919433594 L 402.8425598144531 386.0949401855469 L 402.8499755859375 386.0916442871094 C 404.2661437988281 385.4600830078125 405.83349609375 384.685302734375 407.3492736816406 383.9360046386719 C 409.527099609375 382.8588256835938 411.2661743164063 382.0426330566406 412.5338745117188 381.5026245117188 C 412.5394592285156 381.7545166015625 412.5405883789063 382.0004272460938 412.5405883789063 382.2141418457031 C 412.5617065429688 384.8024291992188 412.5879211425781 388.0185546875 415.8999633789063 390.106201171875 L 415.902587890625 390.1078796386719 L 415.9052429199219 390.1094970703125 L 417.1124267578125 390.8495788574219 C 418.0953979492188 391.4491882324219 418.6363220214844 391.7791442871094 418.8016967773438 392.0807800292969 C 418.9417724609375 392.3362121582031 418.8809204101563 392.7335205078125 418.7172241210938 393.6874694824219 L 418.6163635253906 394.2867431640625 C 418.1363220214844 397.0047912597656 417.8187255859375 398.8030700683594 422.0426635742188 400.1744079589844 C 422.5744323730469 400.3475646972656 423.1575927734375 400.4980163574219 423.7084655761719 400.634765625 C 425.8391723632813 401.1716613769531 427.1275024414063 401.4964294433594 427.5593872070313 403.7384338378906 C 427.6601257324219 404.697509765625 427.5774841308594 405.6581726074219 427.3136596679688 406.5942077636719 L 427.3089599609375 406.6109924316406 L 427.3053894042969 406.6280822753906 C 426.8715209960938 408.7152099609375 426.3797607421875 411.0807800292969 429.0511169433594 412.8793334960938 L 429.0613708496094 412.88623046875 L 429.0719909667969 412.8926391601563 C 430.3202209472656 413.6460571289063 431.7417602539063 414.1646423339844 433.2196960449219 414.4095764160156 C 432.2879333496094 416.8249206542969 434.2166748046875 419.3349609375 435.935546875 421.5716247558594 C 436.9882507324219 422.9434509277344 437.9827880859375 424.2394714355469 438.5105590820313 425.507080078125 C 439.0645751953125 426.8377380371094 439.0077819824219 427.9473876953125 438.3318176269531 428.9992980957031 C 437.9655151367188 429.5744323730469 437.5960693359375 429.8132629394531 437.4368591308594 429.8338623046875 C 437.3765563964844 429.8412170410156 437.3059692382813 429.8451843261719 437.2305603027344 429.8451843261719 C 434.9197692871094 429.8451843261719 429.2158813476563 426.4910583496094 425.8079528808594 424.4870300292969 L 425.7688903808594 424.4640502929688 L 425.7137756347656 424.4316101074219 C 423.498779296875 423.12841796875 421.20849609375 421.7809448242188 419.0573120117188 420.7191162109375 C 417.3040466308594 419.8016357421875 415.3057556152344 419.3167724609375 413.2777099609375 419.3167724609375 C 412.9303588867188 419.3167724609375 412.5788269042969 419.3311767578125 412.2328796386719 419.3595886230469 C 408.148681640625 419.734619140625 405.6630554199219 422.0754699707031 403.4700622558594 424.1407165527344 L 403.4642028808594 424.146240234375 L 403.4585266113281 424.1519775390625 C 402.7243041992188 424.8894958496094 401.931640625 425.5898132324219 401.0997314453125 426.2361450195313 C 400.5393676757813 426.1187438964844 399.9653930664063 426.0592956542969 399.3899536132813 426.0592956542969 C 397.9662475585938 426.0592956542969 396.5763244628906 426.4201965332031 395.3704223632813 427.1029357910156 L 395.364013671875 427.1065979003906 L 395.3576965332031 427.1104125976563 C 393.7093200683594 428.1090393066406 392.5864562988281 429.8572692871094 392.1104736328125 432.1660766601563 C 391.4410705566406 435.413330078125 392.1837463378906 439.1595153808594 394.0025939941406 441.7099914550781 C 394.7347106933594 442.7347106933594 395.5526428222656 443.7559814453125 396.4688110351563 444.8890380859375 C 399.4044799804688 448.5243225097656 402.4403076171875 452.2835998535156 402.4403076171875 457.2926940917969 C 402.4403076171875 460.453125 404.9314880371094 465.2843017578125 409.8446655273438 471.6520080566406 C 413.6370849609375 476.567138671875 417.6342468261719 480.770263671875 418.3970336914063 481.5629272460938 L 419.2382507324219 482.4409484863281 L 419.4563598632813 482.6685791015625 L 419.7557983398438 482.5698852539063 L 420.0453491210938 482.4744567871094 C 420.2960205078125 483.8565673828125 420.6573791503906 484.9031982421875 420.9480285644531 485.7450561523438 C 421.2510375976563 486.622802734375 421.469970703125 487.2569580078125 421.37255859375 487.73828125 C 421.3079223632813 488.0576171875 421.0796203613281 488.5143432617188 419.8782958984375 489.2173767089844 C 418.22998046875 490.1818237304688 417.4500122070313 491.2238464355469 417.5600280761719 492.314453125 C 417.6949462890625 493.6517639160156 419.1825561523438 494.8133239746094 421.9815673828125 495.7668151855469 C 424.1521911621094 496.5054321289063 426.5881652832031 498.1007690429688 428.8409729003906 500.2589721679688 C 430.8917236328125 502.2236022949219 432.5783386230469 504.4768676757813 433.3527526855469 506.2864379882813 C 433.4911193847656 506.6097412109375 433.6351013183594 506.9358825683594 433.7875366210938 507.2811889648438 C 434.87109375 509.7355041503906 436.0991821289063 512.5172729492188 435.2541198730469 514.284912109375 C 434.8761596679688 515.0756225585938 434.0987854003906 515.619873046875 432.8776245117188 515.9488525390625 C 432.5820922851563 516.0284423828125 432.2839965820313 516.1080932617188 431.9849548339844 516.18798828125 C 427.7036437988281 517.33154296875 423.6597900390625 518.4116821289063 422.9518127441406 520.3848266601563 C 422.7221984863281 521.0247192382813 422.8506774902344 521.691650390625 423.3336486816406 522.3670654296875 C 424.2647705078125 523.669189453125 426.2537536621094 524.84033203125 427.8518981933594 525.7813110351563 C 428.5848999023438 526.2129516601563 429.5457763671875 526.7786865234375 429.9111633300781 527.1162719726563 C 429.7927856445313 527.1498413085938 429.6083068847656 527.1887817382813 429.3259887695313 527.2215576171875 C 429.1869812011719 527.2376708984375 429.034912109375 527.245849609375 428.8740844726563 527.245849609375 C 428.8738708496094 527.245849609375 428.8736877441406 527.245849609375 428.8734436035156 527.245849609375 C 427.1783142089844 527.24560546875 424.6354675292969 526.3811645507813 421.943359375 525.4658813476563 C 418.9378356933594 524.4441528320313 415.8299865722656 523.3875732421875 413.4543762207031 523.3875732421875 C 412.6854248046875 523.3875732421875 412.0164184570313 523.5015258789063 411.4660034179688 523.726318359375 C 410.7120056152344 524.0342407226563 409.9759521484375 524.3666381835938 409.1966857910156 524.7185668945313 C 406.1584167480469 526.0907592773438 403.0166931152344 527.5097045898438 398.6745300292969 527.5097045898438 Z" stroke="none"/>
        <path d="M 398.6745300292969 527.0097045898438 C 402.9090270996094 527.0097045898438 406.0008239746094 525.61328125 408.9908447265625 524.262939453125 C 409.7744140625 523.9090576171875 410.5144958496094 523.5747680664063 411.2769775390625 523.263427734375 C 411.8963012695313 523.010498046875 412.6085510253906 522.8875732421875 413.4543762207031 522.8875732421875 C 415.9126586914063 522.8875732421875 419.060302734375 523.9576416015625 422.1043090820313 524.9925537109375 C 424.4355773925781 525.7850952148438 426.8397521972656 526.6024169921875 428.4656982421875 526.72900390625 C 428.1743469238281 526.5513916015625 427.8688049316406 526.3715209960938 427.5982055664063 526.212158203125 C 425.9593505859375 525.2471923828125 423.9197082519531 524.0462646484375 422.9269409179688 522.6578979492188 C 422.1994018554688 521.6404418945313 422.282958984375 520.7683715820313 422.4811706542969 520.2160034179688 C 422.8727722167969 519.1245727539063 424.0060119628906 518.2650146484375 426.1554870605469 517.4288940429688 C 427.8080749511719 516.7861328125 429.8658752441406 516.2364501953125 431.8559265136719 515.7048950195313 C 432.1546020507813 515.6251220703125 432.4523620605469 515.5455932617188 432.74755859375 515.466064453125 C 433.8193969726563 515.1773071289063 434.4917602539063 514.7203979492188 434.8030395507813 514.0692749023438 C 435.5489501953125 512.5089721679688 434.3186950683594 509.7222900390625 433.3301391601563 507.4831237792969 C 433.1770935058594 507.1365051269531 433.0325622558594 506.80908203125 432.8930969238281 506.483154296875 C 431.362060546875 502.9055786132813 426.3015747070313 497.7649841308594 421.8203430175781 496.2401123046875 C 418.77734375 495.2034912109375 417.2210693359375 493.9358215332031 417.0625305175781 492.3646240234375 C 416.9311218261719 491.0619812011719 417.7935485839844 489.85791015625 419.625732421875 488.7858276367188 C 420.7880554199219 488.1056823730469 420.859130859375 487.7544555664063 420.8825073242188 487.6390380859375 C 420.952880859375 487.2913208007813 420.7421875 486.6809692382813 420.4754028320313 485.9082336425781 C 420.2198181152344 485.1679382324219 419.9105834960938 484.2721557617188 419.6647644042969 483.1263732910156 L 419.3134460449219 483.2421569824219 L 418.8772277832031 482.786865234375 L 418.0367736816406 481.9096069335938 C 417.2708129882813 481.1136779785156 413.257080078125 476.8931274414063 409.4487915039063 471.9574279785156 C 404.4665222167969 465.5002136230469 401.9403076171875 460.5662536621094 401.9403076171875 457.2926940917969 C 401.9403076171875 452.4602966308594 398.9609069824219 448.7709045410156 396.0799865722656 445.2034301757813 C 395.1587219238281 444.0640258789063 394.3358764648438 443.0365905761719 393.5954895019531 442.0003051757813 C 391.69970703125 439.3419494628906 390.9246215820313 435.4421691894531 391.6207885742188 432.0651245117188 C 392.1255798339844 429.6165161132813 393.3281860351563 427.7553405761719 395.0986328125 426.6827697753906 L 395.1112365722656 426.6751098632813 L 395.1240844726563 426.6678466796875 C 396.4049682617188 425.942626953125 397.8800964355469 425.5592956542969 399.3899536132813 425.5592956542969 C 399.9209594726563 425.5592956542969 400.4508361816406 425.6070556640625 400.9710998535156 425.7015686035156 C 401.7214050292969 425.1074523925781 402.4374389648438 424.4689331054688 403.1041870117188 423.7991943359375 L 403.1155395507813 423.7877807617188 L 403.1272888183594 423.7767333984375 C 405.3790893554688 421.6560668945313 407.9313354492188 419.2524719238281 412.182373046875 418.8621215820313 L 412.1871643066406 418.8616943359375 L 412.1919250488281 418.8612670898438 C 412.5514221191406 418.8317565917969 412.916748046875 418.8167724609375 413.2777099609375 418.8167724609375 C 415.3843688964844 418.8167724609375 417.4610900878906 419.3204956054688 419.2844848632813 420.273681640625 C 421.4503784179688 421.3431396484375 423.74658203125 422.6941223144531 425.9673156738281 424.0006713867188 L 426.0223388671875 424.0330505371094 L 426.0610656738281 424.0558471679688 C 427.8663635253906 425.117431640625 430.1130981445313 426.4386291503906 432.2547912597656 427.5205383300781 C 435.2401123046875 429.0286254882813 436.6083984375 429.3451843261719 437.2305603027344 429.3451843261719 C 437.2722473144531 429.3451843261719 437.3110961914063 429.3436279296875 437.3465270996094 429.340576171875 C 437.4252319335938 429.3023986816406 437.6530456542969 429.1343078613281 437.9111633300781 428.7289733886719 C 438.4984130859375 427.815185546875 438.5409240722656 426.8807983398438 438.0489807128906 425.6992797851563 C 437.5463256835938 424.4919738769531 436.5711364746094 423.22119140625 435.5390930175781 421.8763122558594 C 433.8609008789063 419.6925048828125 431.9925537109375 417.26123046875 432.5726318359375 414.7957763671875 C 431.2359619140625 414.5108337402344 429.9556579589844 414.0100708007813 428.8135986328125 413.3207092285156 L 428.7923889160156 413.3079223632813 L 428.7718811035156 413.2940979003906 C 425.8218383789063 411.3079223632813 426.3963623046875 408.5442504882813 426.8158569335938 406.5263061523438 L 426.8229675292969 406.4921264648438 L 426.8324279785156 406.4585571289063 C 427.0769958496094 405.5908508300781 427.1549682617188 404.7006530761719 427.0643310546875 403.8120422363281 C 426.8382263183594 402.6616821289063 426.3850402832031 402.2267456054688 426.0140991210938 401.9761962890625 C 425.435791015625 401.5856628417969 424.5789184570313 401.3697509765625 423.5880126953125 401.1200561523438 C 423.0281066894531 400.9810485839844 422.4345397949219 400.8278503417969 421.8882751464844 400.6499633789063 C 417.4766540527344 399.2177124023438 417.5827941894531 397.2653198242188 418.1240234375 394.1994934082031 L 418.2244262695313 393.6029052734375 C 418.3138122558594 393.08203125 418.425048828125 392.4337768554688 418.36328125 392.3211669921875 C 418.2620544433594 392.1365356445313 417.5776062011719 391.7190246582031 416.8511047363281 391.2758483886719 L 415.6439208984375 390.5357666015625 L 415.6385803222656 390.5325012207031 L 415.6333312988281 390.5291748046875 C 412.1076965332031 388.306884765625 412.0630493164063 384.961669921875 412.0409545898438 382.2626342773438 C 410.8653259277344 382.7846984863281 409.3690490722656 383.4948120117188 407.5708618164063 384.3842468261719 C 406.0506896972656 385.1356811523438 404.4788208007813 385.9127197265625 403.0536193847656 386.5482788085938 L 403.038818359375 386.5549011230469 L 403.0237731933594 386.5610046386719 C 403.0235290527344 386.5610961914063 403.0232849121094 386.5612182617188 403.0230407714844 386.5613098144531 C 403.8504028320313 387.1778259277344 404.5665588378906 387.9010925292969 405.1579284667969 388.7183837890625 L 405.1742553710938 388.7409973144531 L 405.1893310546875 388.7644348144531 C 405.757568359375 389.6497497558594 407.2669677734375 392.0014343261719 405.2621459960938 393.9046630859375 C 403.7049255371094 395.3888244628906 400.8973999023438 395.6908874511719 398.1513366699219 395.8733825683594 C 397.1189575195313 395.93798828125 396.0848999023438 395.9779357910156 394.9358215332031 396.0198974609375 C 391.0394592285156 396.1653747558594 387.3589172363281 396.3028564453125 383.1925048828125 397.7867126464844 C 382.0613708496094 398.1958312988281 380.8700256347656 398.4032897949219 379.6515808105469 398.4033203125 C 378.9547119140625 398.4033203125 378.2564392089844 398.333740234375 377.5744323730469 398.1962280273438 C 372.7521057128906 397.2150268554688 370.0904541015625 392.978515625 367.7421264648438 389.2406921386719 L 367.7349853515625 389.2292785644531 L 367.7281188964844 389.2177124023438 C 367.1110534667969 388.1741333007813 366.416015625 387.1548156738281 365.6619873046875 386.1875 C 364.9451293945313 385.3771362304688 364.0941772460938 384.6729125976563 363.1322937011719 384.0939636230469 L 363.1188354492188 384.0858459472656 L 363.1058044433594 384.0774230957031 C 362.6496887207031 383.7832336425781 362.08203125 383.4171447753906 361.6633911132813 382.9304504394531 C 360.8030700683594 381.9302978515625 361.0566101074219 380.9888916015625 361.2843322753906 380.5167236328125 C 362.0360717773438 378.9581909179688 364.1581726074219 378.5920715332031 366.0304870605469 378.2690734863281 L 366.0402526855469 378.2673645019531 C 366.1535339355469 378.2479248046875 366.2734680175781 378.2273559570313 366.3791198730469 378.207763671875 C 366.3797302246094 378.1785278320313 366.3802795410156 378.1488647460938 366.3808288574219 378.1195373535156 C 366.3307189941406 377.1719970703125 366.5778503417969 376.2389831542969 367.0967712402344 375.41845703125 L 367.1062927246094 375.4033508300781 L 367.1163940429688 375.3885803222656 C 368.0191650390625 374.0679931640625 369.6400146484375 373.1335144042969 371.9338684082031 372.6110229492188 C 373.1334228515625 372.3377990722656 374.3655700683594 372.2069091796875 375.4461975097656 372.1428833007813 C 375.2286682128906 371.7671813964844 374.9968566894531 371.3524169921875 374.7564697265625 370.8974609375 C 374.0478820800781 369.564453125 371.1515808105469 368.4386901855469 366.9417114257813 367.8411560058594 C 366.6058044433594 368.6841430664063 366.1588439941406 369.4873962402344 365.6066284179688 370.2389526367188 C 364.6192016601563 371.5724792480469 363.8285522460938 373.01611328125 363.2567443847656 374.529541015625 C 362.1428527832031 377.5685424804688 360.1414794921875 380.2872619628906 357.4682006835938 382.3928833007813 C 353.1758728027344 386.0254211425781 343.1512451171875 390.4390563964844 334.41455078125 391.2452087402344 C 333.4786376953125 391.3302917480469 332.5688171386719 391.3734130859375 331.7103576660156 391.3734130859375 C 328.9853515625 391.3734130859375 326.6462097167969 390.9423217773438 324.7578735351563 390.0920715332031 L 324.7547912597656 390.0906677246094 L 324.751708984375 390.0892639160156 C 321.9832153320313 388.8201293945313 319.3753356933594 387.2793273925781 316.982666015625 385.5003356933594 C 316.8998413085938 385.6919250488281 316.8219299316406 385.8670654296875 316.7483825683594 386.0272216796875 C 316.1136779785156 387.4322814941406 312.7183837890625 394.7363891601563 307.6935119628906 401.708251953125 C 301.1426086425781 410.7975158691406 294.6052856445313 415.6373596191406 288.2613220214844 416.0963439941406 C 288.6012573242188 416.6500549316406 288.8621215820313 417.2442016601563 289.0348205566406 417.8643493652344 L 289.0364074707031 417.8700561523438 L 289.0379333496094 417.8757934570313 C 289.23974609375 418.6351013183594 289.4562683105469 419.2109985351563 289.6303405761719 419.6739807128906 C 289.9859008789063 420.6205139160156 290.3263854980469 421.84814453125 289.7988891601563 422.948486328125 C 289.0882568359375 424.4307250976563 287.1876220703125 425.1131896972656 283.610595703125 426.2881774902344 L 281.7217712402344 426.9126586914063 C 280.5350646972656 427.3088073730469 279.796630859375 427.7401428222656 279.3979187011719 428.2700805664063 C 279.0456237792969 428.73828125 278.9205932617188 429.3391723632813 278.7623596191406 430.0993957519531 C 278.3548583984375 432.0621032714844 277.7396545410156 435.0269775390625 271.8076171875 436.3660583496094 C 271.7173156738281 436.3966064453125 271.3392028808594 436.7559509277344 271.0226440429688 438.0354309082031 C 270.7014770507813 439.3336791992188 270.5388488769531 441.1773376464844 270.5523681640625 443.3670349121094 C 270.5830383300781 448.333740234375 271.4738159179688 454.5010070800781 273.0603332519531 460.7318420410156 L 273.3161010742188 461.7324829101563 L 273.6083374023438 462.8758850097656 L 272.4324645996094 462.9764709472656 L 271.5981140136719 463.0478210449219 C 271.5670776367188 463.2032775878906 271.5296936035156 463.3603515625 271.4917297363281 463.5198974609375 C 271.3303833007813 464.197998046875 271.1295776367188 465.0419006347656 271.259765625 466.2553100585938 C 271.271728515625 466.3672180175781 271.2997741699219 466.6293029785156 271.953857421875 466.87255859375 C 272.5609436035156 467.098388671875 273.4729919433594 467.2128601074219 274.6646423339844 467.2128601074219 C 277.3660583496094 467.2128601074219 280.9378967285156 466.6244506835938 283.8079223632813 466.1517028808594 C 285.2706604003906 465.9107360839844 286.5339050292969 465.7026672363281 287.4815063476563 465.6026000976563 C 287.7219848632813 465.5772094726563 287.9515075683594 465.5643310546875 288.1636657714844 465.5643310546875 C 290.772216796875 465.5643310546875 291.0233459472656 467.49853515625 291.1582641601563 468.5376586914063 C 291.2179260253906 468.9972229003906 291.2742919921875 469.4313049316406 291.4422607421875 469.6804504394531 C 291.4982604980469 469.7635192871094 291.6686401367188 470.0162658691406 292.4745483398438 470.0635681152344 C 292.5147705078125 470.0659484863281 292.5562133789063 470.067138671875 292.5977478027344 470.067138671875 C 294.8390197753906 470.067138671875 298.2980651855469 466.8111572265625 301.0774536132813 464.1949157714844 C 302.7161560058594 462.6524047851563 304.2639770507813 461.1954650878906 305.5685119628906 460.3489074707031 C 307.2986755371094 459.22607421875 308.6084899902344 458.7469787597656 309.9481506347656 458.7469787597656 C 310.6072082519531 458.7469787597656 311.2182312011719 458.8583374023438 311.8650817871094 458.9762268066406 C 312.4587707519531 459.0844421386719 313.0726623535156 459.1963195800781 313.8416748046875 459.2520141601563 C 315.6004028320313 459.37939453125 318.0625305175781 460.5040283203125 320.2672424316406 462.1870422363281 C 321.4159851074219 463.06396484375 324.1212463378906 465.3746032714844 324.4305114746094 467.8846740722656 C 324.5245971679688 468.648681640625 324.7959899902344 469.0084838867188 325.4674987792969 469.2597045898438 C 326.40087890625 469.6088562011719 327.9971618652344 469.656982421875 329.5831604003906 469.656982421875 C 330.3465270996094 469.656982421875 331.2094421386719 469.6439819335938 332.123046875 469.6301879882813 C 333.25048828125 469.6131896972656 334.5283813476563 469.5939331054688 335.9277648925781 469.5939331054688 C 338.742919921875 469.5939331054688 341.221435546875 469.7492065429688 343.408203125 469.8861694335938 C 345.1749572753906 469.996826171875 346.84375 470.1013793945313 348.3712463378906 470.1013793945313 C 350.8555603027344 470.1013793945313 352.752685546875 469.8179321289063 354.5224914550781 469.1823425292969 C 355.1934509277344 468.9413452148438 355.9032897949219 468.8191833496094 356.6322937011719 468.8191833496094 C 360.0859680175781 468.8191833496094 363.6328430175781 471.5221557617188 367.3880004882813 474.3838500976563 C 369.3597412109375 475.886474609375 371.3986206054688 477.4402465820313 373.4944458007813 478.6621704101563 C 378.760498046875 481.7325744628906 378.2689514160156 484.857177734375 377.7935791015625 487.87890625 C 377.5848388671875 489.2059326171875 377.3689575195313 490.5781555175781 377.6003112792969 492.06494140625 C 377.9361572265625 494.2213439941406 380.5143737792969 496.42041015625 383.0076904296875 498.547119140625 C 384.4025573730469 499.7368469238281 385.8448791503906 500.9671020507813 386.930419921875 502.2243957519531 C 388.2531433105469 503.7564086914063 388.8961486816406 505.1746520996094 388.8961486816406 506.5602416992188 C 388.8961486816406 508.9450378417969 388.9992065429688 510.4410400390625 389.5429382324219 511.5155334472656 C 390.0700073242188 512.5570678710938 391.116943359375 513.3796997070313 393.1566162109375 514.3549194335938 C 394.6588439941406 515.0731201171875 395.5655517578125 516.0554809570313 395.8515319824219 517.2747192382813 C 396.4011535644531 519.6180419921875 394.5022583007813 522.0443725585938 392.9764709472656 523.993896484375 C 392.8858032226563 524.1097412109375 392.7966918945313 524.2236328125 392.7098083496094 524.3353271484375 C 391.8271179199219 525.4701538085938 391.9520263671875 525.7870483398438 391.953369140625 525.7901611328125 C 391.9584655761719 525.8016357421875 392.08984375 526.0746459960938 393.0826110839844 526.3609008789063 C 393.9968566894531 526.62451171875 395.3518981933594 526.8192138671875 397.2252197265625 526.9561157226563 C 397.7117614746094 526.9916381835938 398.1993713378906 527.0097045898438 398.6745300292969 527.0097045898438 M 398.6745300292969 528.0097045898438 C 398.1822204589844 528.0097045898438 397.675048828125 527.9916381835938 397.15234375 527.9534301757813 C 390.7129516601563 527.48291015625 389.9081115722656 526.3085327148438 391.9204711914063 523.7213745117188 C 393.9325561523438 521.1343994140625 397.15234375 517.3735961914063 392.7252807617188 515.257080078125 C 388.2984924316406 513.1405639648438 387.8961486816406 511.4990844726563 387.8961486816406 506.5602416992188 C 387.8961486816406 501.621337890625 377.41748046875 497.3892822265625 376.6122436523438 492.2188415527344 C 375.8075561523438 487.0482482910156 379.84130859375 483.5202941894531 372.9907531738281 479.5260620117188 C 366.8994445800781 475.974609375 361.4471130371094 469.8191833496094 356.6322631835938 469.8191833496094 C 356.0320739746094 469.8191833496094 355.4408264160156 469.9150695800781 354.8604736328125 470.1234741210938 C 352.7657775878906 470.8757629394531 350.6720581054688 471.1013793945313 348.3712463378906 471.1013793945313 C 344.9212646484375 471.1013793945313 341.0061645507813 470.5939331054688 335.9277648925781 470.5939331054688 C 333.3928833007813 470.5939331054688 331.2927551269531 470.656982421875 329.5831604003906 470.656982421875 C 325.5833435058594 470.656982421875 323.7219543457031 470.3118591308594 323.43798828125 468.0069580078125 C 323.0326538085938 464.7167358398438 316.9927673339844 460.4828491210938 313.7694396972656 460.2494201660156 C 312.0850524902344 460.1273498535156 311.0601196289063 459.7469787597656 309.9481506347656 459.7469787597656 C 308.9320678710938 459.7469787597656 307.8432312011719 460.0647888183594 306.1128845214844 461.187744140625 C 302.5428466796875 463.5044250488281 296.6205749511719 471.067138671875 292.5977478027344 471.067138671875 C 292.5369262695313 471.067138671875 292.475830078125 471.0653686523438 292.4158935546875 471.0618591308594 C 288.5821533203125 470.8367919921875 291.6904602050781 466.5643310546875 288.1636657714844 466.5643310546875 C 287.9883422851563 466.5643310546875 287.7963256835938 466.5749206542969 287.5864868164063 466.5970764160156 C 284.7974548339844 466.8915405273438 278.8150024414063 468.2128601074219 274.6646423339844 468.2128601074219 C 272.2227172851563 468.2128601074219 270.4145812988281 467.7551879882813 270.2654418945313 466.3617553710938 C 270.0170288085938 464.046142578125 270.8300170898438 462.8905029296875 270.6500244140625 462.125244140625 L 272.3472290039063 461.9801025390625 L 272.0914916992188 460.9794616699219 C 268.6235961914063 447.3600769042969 268.9617004394531 436.0419311523438 271.5694274902344 435.3946838378906 C 276.8877258300781 434.1993713378906 277.4057312011719 431.7142639160156 277.7832336425781 429.8961181640625 C 278.1372375488281 428.1951904296875 278.3968505859375 426.9683532714844 281.4051208496094 425.964111328125 L 283.2966918945313 425.3387145996094 C 288.5111999511719 423.6258850097656 289.832275390625 423.0552673339844 288.6942138671875 420.025634765625 C 288.5111999511719 419.5388793945313 288.2830200195313 418.9286193847656 288.0714721679688 418.1326293945313 C 287.7650146484375 417.0322265625 287.1329345703125 416.026123046875 286.2422790527344 415.22021484375 L 288.0475463867188 415.1083984375 C 302.5393371582031 414.2196044921875 314.5179138183594 388.53662109375 315.8388977050781 385.6114807128906 C 316.0554504394531 385.1400756835938 316.2959289550781 384.5668029785156 316.5584411621094 383.9132995605469 C 319.1693420410156 385.9867248535156 322.0624694824219 387.7563781738281 325.1684265136719 389.1802368164063 C 326.9292602539063 389.9730834960938 329.1224060058594 390.3734130859375 331.7103576660156 390.3734130859375 C 332.5412902832031 390.3734130859375 333.4129638671875 390.3321533203125 334.3240356445313 390.2493286132813 C 342.8728332519531 389.4605102539063 352.6650695800781 385.1563720703125 356.8355407714844 381.6182556152344 C 359.37353515625 379.6231384277344 361.267578125 377.0542297363281 362.3198852539063 374.1798095703125 C 362.9247741699219 372.5777282714844 363.7595520019531 371.0530090332031 364.802978515625 369.6438598632813 C 365.4581604003906 368.7521667480469 365.9529418945313 367.7734985351563 366.2686157226563 366.7439880371094 C 369.3010559082031 367.1127014160156 374.3879699707031 368.07373046875 375.6394653320313 370.4281005859375 C 376.2272644042969 371.5404357910156 376.7534790039063 372.3922729492188 377.1820068359375 373.083740234375 C 374.3739013671875 373.1216125488281 369.6673278808594 373.4289855957031 367.9419250488281 375.9529418945313 C 367.5291442871094 376.6056823730469 367.334716796875 377.3509521484375 367.3813171386719 378.0999450683594 C 367.3644409179688 379.0546875 367.3644409179688 379.0546875 366.2094421386719 379.2529602050781 C 364.5744934082031 379.5350341796875 362.7141723632813 379.8541259765625 362.1850280761719 380.951171875 C 361.6911315917969 381.9752197265625 362.8221130371094 382.7045288085938 363.6480102539063 383.2371826171875 C 364.7044677734375 383.8730773925781 365.6438598632813 384.65283203125 366.4317321777344 385.5484619140625 C 367.2227172851563 386.5610046386719 367.9430541992188 387.6165161132813 368.5888977050781 388.7087097167969 C 370.9403381347656 392.4515075683594 373.3749389648438 396.3212585449219 377.7738342285156 397.21630859375 C 378.3934936523438 397.3412780761719 379.0231323242188 397.4033203125 379.6515808105469 397.4032897949219 C 380.7441101074219 397.4032897949219 381.8327026367188 397.2156982421875 382.8564453125 396.8448791503906 C 387.1686706542969 395.3089294433594 390.9174499511719 395.1692199707031 394.9006652832031 395.0205078125 C 395.9902954101563 394.980712890625 397.0516967773438 394.9402465820313 398.0888977050781 394.8753356933594 C 400.5296020507813 394.713134765625 403.2482299804688 394.442626953125 404.5722045898438 393.1807556152344 C 405.8066711425781 392.0088806152344 405.1948547363281 390.6243591308594 404.3477478027344 389.3045959472656 C 403.6910705566406 388.3970031738281 402.8501892089844 387.6077270507813 401.8688659667969 386.9780578613281 C 401.6816711425781 386.8464965820313 401.33935546875 386.6012268066406 401.1526489257813 386.4372253417969 C 401.6152038574219 386.1200561523438 402.1163635253906 385.8510131835938 402.6463317871094 385.6349792480469 C 404.0087890625 385.0274047851563 405.5177001953125 384.2836608886719 407.127685546875 383.48779296875 C 410.1219787597656 382.0067443847656 411.9197998046875 381.200927734375 413.0024719238281 380.7673950195313 C 413.0336303710938 381.2098999023438 413.0405883789063 381.7056884765625 413.0405883789063 382.2141418457031 C 413.0617370605469 384.806640625 413.0889892578125 387.7433471679688 416.1665649414063 389.6832275390625 L 417.3737487792969 390.4233093261719 C 419.5561828613281 391.7546081542969 419.5561828613281 391.7546081542969 419.2100219726563 393.7720336914063 L 419.1094360351563 394.3697204589844 C 418.6285095214844 397.0928344726563 418.3900146484375 398.4628601074219 422.1970520019531 399.6988220214844 C 422.6951293945313 399.8610229492188 423.2443542480469 400.0043640136719 423.8289489746094 400.1495056152344 C 426.0002746582031 400.6966247558594 427.5667114257813 401.0905456542969 428.0544128417969 403.6650390625 C 428.1650390625 404.6924438476563 428.0769958496094 405.7290344238281 427.794921875 406.7298278808594 C 427.3736877441406 408.7561645507813 426.9378662109375 410.8537902832031 429.3303527832031 412.4645690917969 C 430.7200012207031 413.3033447265625 432.3134155273438 413.83251953125 433.9776000976563 414.0079040527344 C 432.5419006347656 416.3226318359375 434.4615478515625 418.8330078125 436.3320007324219 421.2669677734375 C 438.4507446289063 424.0279541015625 440.4468688964844 426.6329040527344 438.75244140625 429.2696228027344 C 438.3592529296875 429.886962890625 437.88427734375 430.2801208496094 437.5010681152344 430.3297424316406 C 437.4158935546875 430.3401489257813 437.3258666992188 430.3451843261719 437.2305603027344 430.3451843261719 C 434.774658203125 430.3451843261719 429.0570373535156 426.9776611328125 425.5154418945313 424.8950500488281 C 423.2878112792969 423.5844421386719 420.98486328125 422.2278137207031 418.8308715820313 421.1649475097656 C 417.1409606933594 420.2794799804688 415.2234497070313 419.8167724609375 413.2777099609375 419.8167724609375 C 412.943603515625 419.8167724609375 412.6085510253906 419.8304138183594 412.2738037109375 419.85791015625 C 408.3662414550781 420.2167358398438 405.9837341308594 422.4602966308594 403.8128662109375 424.5047302246094 C 403.0071411132813 425.3140563964844 402.1407470703125 426.0727844238281 401.2188415527344 426.7753601074219 C 400.6166076660156 426.6305847167969 400.0020446777344 426.559326171875 399.3899536132813 426.559326171875 C 398.0667724609375 426.559326171875 396.7565002441406 426.8927612304688 395.6167907714844 427.5380554199219 C 391.5118103027344 430.0249633789063 391.5220642089844 437.3705444335938 394.40966796875 441.419677734375 C 395.1560668945313 442.4643859863281 395.9931640625 443.5055847167969 396.8576049804688 444.5746765136719 C 399.8486938476563 448.278564453125 402.9403076171875 452.1159973144531 402.9403076171875 457.2926940917969 C 402.9403076171875 464.5572814941406 417.1352233886719 479.5305786132813 418.75732421875 481.2162170410156 L 419.5993041992188 482.0950317382813 L 420.4636535644531 481.8101501464844 C 420.4806823730469 481.9841613769531 420.4948120117188 482.1572265625 420.5330810546875 482.3618774414063 C 421.3379516601563 486.829345703125 423.3503112792969 487.7649230957031 420.1307983398438 489.64892578125 C 416.9110107421875 491.5328674316406 417.3136596679688 493.6484680175781 422.1427917480469 495.2935180664063 C 426.9772338867188 496.9385986328125 432.2026672363281 502.328125 433.8124389648438 506.0897216796875 C 435.4221496582031 509.851318359375 438.2504272460938 515.0192260742188 433.0076904296875 516.431640625 C 427.7646484375 517.8441162109375 421.7242126464844 519.2567138671875 423.7403564453125 522.0762329101563 C 425.7565307617188 524.8958129882813 433.4121398925781 527.2503662109375 429.3836669921875 527.7182006835938 C 429.2221374511719 527.7369384765625 429.0523376464844 527.7459106445313 428.8733825683594 527.745849609375 C 425.1601867675781 527.7453002929688 417.8534545898438 523.8875732421875 413.4543762207031 523.8875732421875 C 412.7783203125 523.8875732421875 412.1701354980469 523.9788208007813 411.655029296875 524.189208984375 C 407.9537963867188 525.70068359375 404.2467956542969 528.0097045898438 398.6745300292969 528.0097045898438 Z" stroke="none" fill="#30abec"/>
      </g>
      <text id="jiangjinqu" transform="translate(148.579 119.746)" fill="#fff" font-size="10" font-family="MicrosoftYaHei, Microsoft YaHei"><tspan x="0" y="0">江津区</tspan></text>
      <g transform="matrix(1, 0, 0, 1, 0.07, 8.93)" filter="url(#jiangjin1)">
        <path id="jiangjin1-2" data-name="jiangjin1" d="M129.123,161.238h0c-.5,0-1.012-.019-1.523-.056-3.863-.282-5.691-.808-6.113-1.757-.263-.591.009-1.354.881-2.475l.27-.346c1.393-1.781,3.127-4,2.687-5.872a3.536,3.536,0,0,0-2.153-2.246c-2.258-1.08-3.439-2.033-4.075-3.29s-.755-2.81-.755-5.407c0-2.529-2.69-4.823-5.537-7.252-2.632-2.245-5.354-4.566-5.746-7.089a13.959,13.959,0,0,1,.194-4.5c.462-2.936.861-5.471-3.815-8.2a62.343,62.343,0,0,1-6.209-4.347c-3.617-2.757-7.034-5.36-10.15-5.36a5.227,5.227,0,0,0-1.772.3,18.547,18.547,0,0,1-6.487.978c-1.559,0-3.244-.106-5.027-.217-2.173-.136-4.635-.29-7.418-.29-1.395,0-2.669.019-3.793.036-.919.014-1.785.027-2.555.027a13.933,13.933,0,0,1-4.464-.461,2.411,2.411,0,0,1-1.678-2.189c-.185-1.5-1.562-3.334-3.777-5.025a12.793,12.793,0,0,0-5.891-2.733,18.439,18.439,0,0,1-2.083-.289,9.621,9.621,0,0,0-1.737-.213,6.958,6.958,0,0,0-3.836,1.441,36.688,36.688,0,0,0-4.35,3.735c-3.059,2.88-6.527,6.144-9.165,6.144-.061,0-.122,0-.182-.005-1.953-.114-2.1-1.274-2.25-2.4-.141-1.081-.273-2.1-2-2.1a5.544,5.544,0,0,0-.576.033c-.918.1-2.168.3-3.614.541a63.484,63.484,0,0,1-9.308,1.075c-2.827,0-4.265-.605-4.4-1.851a8.384,8.384,0,0,1,.253-3.073A2.744,2.744,0,0,0,1.1,95.354l1.7-.146-.257-1C.748,87.173.159,78.027-.019,71.593c-.193-6.982.041-12.347.043-12.4l.008.006A80.215,80.215,0,0,0,2.539,75.356l.257,1L1.1,76.5a2.745,2.745,0,0,1-.131,1.163,8.384,8.384,0,0,0-.253,3.073c.133,1.246,1.572,1.851,4.4,1.851a63.467,63.467,0,0,0,9.307-1.075c1.447-.238,2.7-.444,3.614-.541a5.542,5.542,0,0,1,.577-.033c1.73,0,1.863,1.021,2,2.1.146,1.121.3,2.281,2.249,2.4.059,0,.121.005.182.005,2.638,0,6.106-3.264,9.165-6.144a36.7,36.7,0,0,1,4.35-3.736A6.957,6.957,0,0,1,40.4,74.124a9.613,9.613,0,0,1,1.738.213,18.452,18.452,0,0,0,2.083.29,12.787,12.787,0,0,1,5.891,2.732c2.216,1.691,3.592,3.523,3.777,5.025a2.412,2.412,0,0,0,1.68,2.19,13.95,13.95,0,0,0,4.467.461c.772,0,1.638-.013,2.555-.027,1.127-.017,2.4-.036,3.789-.036,2.784,0,5.245.154,7.417.29,1.783.112,3.467.217,5.026.217a18.552,18.552,0,0,0,6.49-.978,5.227,5.227,0,0,1,1.772-.3c3.116,0,6.533,2.6,10.15,5.36a62.352,62.352,0,0,0,6.209,4.347c4.676,2.726,4.277,5.262,3.815,8.2a13.964,13.964,0,0,0-.194,4.5c.393,2.522,3.114,4.844,5.746,7.089,2.848,2.429,5.537,4.723,5.537,7.252,0,2.6.117,4.147.755,5.407s1.817,2.211,4.075,3.29a3.535,3.535,0,0,1,2.153,2.245c.44,1.876-1.294,4.093-2.688,5.874l-.269.344c-.872,1.121-1.144,1.885-.881,2.475.422.949,2.25,1.475,6.113,1.757.512.037,1.023.056,1.52.056,4.452,0,7.644-1.442,10.732-2.836.774-.35,1.506-.68,2.251-.984a4.782,4.782,0,0,1,1.8-.3c2.284,0,5.435,1.07,7.966,1.929l.359.122c2.733.929,5.315,1.807,7.094,1.807a4.458,4.458,0,0,0,.51-.028c.726-.084,1.1-.234,1.149-.456.091-.429-1.02-1.083-2.427-1.911-1.558-.917-3.5-2.058-4.366-3.274a1.613,1.613,0,0,1-.318-1.522c.619-1.727,4.724-2.823,8.693-3.883l.007,0,.885-.237c2.278-.614,3.252-2,2.98-4.233l.027-.011a.541.541,0,0,1,.005.06c.083,1.255.358,5.7.41,10.259.055,4.813-.136,10.752-1.355,11.711a5.145,5.145,0,0,1-2.067,1.065l-.9.241c-3.966,1.06-8.067,2.156-8.687,3.882a1.614,1.614,0,0,0,.318,1.522c.869,1.216,2.808,2.357,4.366,3.274,1.407.828,2.517,1.482,2.427,1.911-.047.223-.423.372-1.149.456a4.455,4.455,0,0,1-.51.028c-1.778,0-4.36-.878-7.093-1.807l-.36-.122c-2.532-.859-5.683-1.929-7.966-1.929a4.782,4.782,0,0,0-1.8.3c-.747.3-1.479.636-2.255.986C136.762,159.8,133.571,161.238,129.123,161.238Zm23.317-51.62h0c-2.468-.863-3.828-1.894-3.934-2.983-.084-.864.634-1.767,2.074-2.61,1.041-.609,1.553-1.124,1.711-1.722l.15,7.313Zm15.238-46.045c-2.45,0-8.231-3.4-11.686-5.433l-.028-.017-.108-.063c-2.192-1.289-4.458-2.621-6.577-3.667a12,12,0,0,0-5.553-1.348c-.334,0-.671.014-1,.041-3.907.359-6.326,2.636-8.46,4.646a25.491,25.491,0,0,1-2.6,2.272,7.857,7.857,0,0,0-3.537-.028c-.282-.354-.57-.71-.824-1.024-.945-1.169-1.724-2.143-2.447-3.155a11.236,11.236,0,0,1-1.8-4.348,12.321,12.321,0,0,1-.014-4.8,6.914,6.914,0,0,1,3.017-4.729,7.661,7.661,0,0,1,3.772-.979,7.829,7.829,0,0,1,1.83.216,25.471,25.471,0,0,0,2.595-2.271c2.134-2.01,4.553-4.288,8.461-4.648.332-.027.669-.041,1-.041a12.005,12.005,0,0,1,5.554,1.349c2.129,1.05,4.4,2.388,6.6,3.682l.08.047.029.017c3.455,2.032,9.237,5.433,11.686,5.433a2.245,2.245,0,0,0,.27-.015,2.141,2.141,0,0,0,1.251-1.06,3.754,3.754,0,0,0,.636-2.053c.161,3.078.876,18.552-.636,20.9a2.141,2.141,0,0,1-1.251,1.06A2.247,2.247,0,0,1,167.678,63.574ZM101.711,7.051h0c-.963-1.243-1.833-2.626-2.673-3.964A29.852,29.852,0,0,0,96.88-.075,11.779,11.779,0,0,0,94.1-2.386c-.826-.533-1.957-1.262-1.463-2.286.529-1.1,2.383-1.416,4.02-1.7,1.16-.2,1.16-.2,1.177-1.154a3.578,3.578,0,0,1,.561-2.147c1.274-1.863,4.295-2.8,9.234-2.869-.016.743-.41,18.18.006,18.852a20.451,20.451,0,0,0-5.918.738Z" transform="translate(78.1 57.88)" stroke="rgba(0,0,0,0)" stroke-miterlimit="10" stroke-width="1" fill="url(#linear-gradient)"/>
      </g>
    </g>
  </g>
</svg>
