<svg xmlns="http://www.w3.org/2000/svg" xmlns:xlink="http://www.w3.org/1999/xlink" width="307.507" height="219.09" viewBox="0 0 307.507 219.09">
  <defs>
    <linearGradient id="linear-gradient" x1="0.478" y1="0.945" x2="0.439" y2="0.027" gradientUnits="objectBoundingBox">
      <stop offset="0" stop-color="#191e64"/>
      <stop offset="1" stop-color="#17448b"/>
    </linearGradient>
    <filter id="jiulongpo3" x="0" y="0" width="307.507" height="219.09" filterUnits="userSpaceOnUse">
      <feOffset dy="8" input="SourceAlpha"/>
      <feGaussianBlur stdDeviation="9" result="blur"/>
      <feFlood flood-color="#0f093c" flood-opacity="0.161"/>
      <feComposite operator="in" in2="blur"/>
      <feComposite in="SourceGraphic"/>
    </filter>
    <radialGradient id="radial-gradient" cx="0.5" cy="0.5" r="0.502" gradientTransform="translate(0 0)" gradientUnits="objectBoundingBox">
      <stop offset="0" stop-color="#1fb9e6"/>
      <stop offset="0.788" stop-color="#076cd3"/>
      <stop offset="1" stop-color="#0669d2"/>
    </radialGradient>
  </defs>
  <g id="jiulongpo" transform="translate(-1623.723 -1897.975)">
    <g transform="matrix(1, 0, 0, 1, 1623.72, 1897.98)" filter="url(#jiulongpo3)">
      <path id="jiulongpo3-2" data-name="jiulongpo3" d="M51.21,180.065h0c-.11,0-.214,0-.311-.014-7.5-1.559-17.515-17.65-22.327-25.383l0-.005-.063-.1a118.309,118.309,0,0,0-9.1-13.378,53.286,53.286,0,0,0-8.686-8.139c.29-.077-.335-7.279-.748-12.045v-.02l-.011-.126c-.2-2.281-.339-3.929-.307-3.939h.282c.406,0,.814.005,1.213.016-.09.025-.18.049-.27.073l-.157.041a53.416,53.416,0,0,1,8.685,8.139,118.385,118.385,0,0,1,9.1,13.379l.07.113c4.811,7.732,14.821,23.82,22.323,25.376.1.01.2.014.311.014a3.306,3.306,0,0,0,1.506-.365,173.883,173.883,0,0,1,54.519-8.753h.669c4.184-.156,7.665-.293,11.181-.525a74.752,74.752,0,0,0,8.775-.925,2.515,2.515,0,0,1,.653.576c.11.019-.067,3.516-.255,7.218l0,.07c-.192,3.769-.39,7.662-.3,8.12a74.525,74.525,0,0,1-8.872.941c-3.526.233-7,.37-11.18.526h-.669a173.881,173.881,0,0,0-54.52,8.753A3.3,3.3,0,0,1,51.21,180.065Zm66.155-37.971h0a18.16,18.16,0,0,1-4.087-4.109,6.683,6.683,0,0,1-1.162-5.167c.774-3.946,5.1-7.5,14.013-11.519,1.8-.808,3.819-1.761,6.356-3a1.962,1.962,0,0,0-.072-.48c-.01-.039-.019-.076-.026-.111-.082-.231-.259-.732-.516-1.487.529,1.131.867,1.878,1.033,2.347.022.1-.167,6.777-.291,11.2v.053l-.028.977v.04l-.015.535,0,.093-.033,1.173c-.026.938-.045,1.616-.045,1.664-2.58,1.258-4.6,2.21-6.356,3a52.323,52.323,0,0,0-8.762,4.794ZM60.26,92.907h0c-1.217-1.986-2.836-4.7-4.57-8.05C52.1,78,44.069,72.41,31.819,68.251a145.821,145.821,0,0,0-29.2-6.137A157.415,157.415,0,0,0,.468,30.947a.016.016,0,0,0,.01,0c.151-.158,0-4.349-.157-7.982C.279,21.953.236,20.945.194,20l-.017-.388,0-.075C.062,17-.026,14.989.007,14.975l.468.01A157.384,157.384,0,0,1,2.624,46.113a145.855,145.855,0,0,1,29.2,6.137C44.069,56.41,52.1,62,55.69,68.856c2.126,4.115,4.106,7.309,5.551,9.642l.126.2c3.368,5.467,5.593,9.079,1.367,12.635a11.425,11.425,0,0,1-2.474,1.57ZM123.1,80.9h0c-1.237-9.64-.642-16.444,1.77-20.224a8.911,8.911,0,0,1,7.385-4.234c.371-.014.754-.021,1.136-.021,6.638,0,13.767,2.068,19.5,3.729,4.344,1.26,9.749,2.828,13.437,2.828a7.182,7.182,0,0,0,3.125-.574c1.631-.81,1.816-5.372,1.98-9.4.284-7.012.674-16.615,9.365-20.533a45.777,45.777,0,0,1,12.29-2.994,114.283,114.283,0,0,1,14.21-.857c1.338,0,2.658.022,3.922.066,10.171.361,23.045,2.071,26.616,8.171l.153.307a60.111,60.111,0,0,1,6.093,1.006,5.58,5.58,0,0,0,1.269.125,34.769,34.769,0,0,0,7.691-1.438c-.058-.157-.125-.327-.2-.5a4.842,4.842,0,0,1,.6.966c.189.393-.043,5.772-.229,10.094v.022l0,.045,0,.058c-.119,2.777-.222,5.175-.169,5.319a34.062,34.062,0,0,1-7.69,1.438,5.594,5.594,0,0,1-1.268-.125,60.014,60.014,0,0,0-6.094-1.006l-.153-.307c-3.57-6.1-16.444-7.81-26.615-8.171-1.269-.044-2.589-.067-3.922-.067-11.157,0-21.064,1.44-26.5,3.851-8.69,3.919-9.079,13.522-9.364,20.533v.009c-.165,4.021-.351,8.579-1.98,9.388a7.188,7.188,0,0,1-3.125.574c-3.691,0-9.1-1.568-13.437-2.828l-.006,0-.007,0c-5.722-1.66-12.843-3.726-19.482-3.726-.369,0-.751.007-1.136.021a8.911,8.911,0,0,0-7.384,4.234A14.138,14.138,0,0,0,123.1,80.9Z" transform="translate(27 4.02)" fill="url(#linear-gradient)"/>
    </g>
    <g id="jiulongpo2" transform="translate(1647.161 1618.594)" opacity="0.67" fill="url(#radial-gradient)">
      <path d="M 54.77214050292969 446.9707946777344 C 54.69306945800781 446.9707946777344 54.61314010620117 446.9673461914063 54.5341682434082 446.9605712890625 C 51.42333984375 446.2998046875 47.44321441650391 442.8843383789063 42.70339202880859 436.8082885742188 C 38.68460845947266 431.6565246582031 34.99739074707031 425.7301940917969 32.5574836730957 421.8086242675781 L 32.49539947509766 421.7088317871094 C 29.77020454406738 417.0449523925781 26.69646453857422 412.5270385742188 23.35907936096191 408.2796936035156 L 23.35289192199707 408.2718505859375 L 23.34639167785645 408.2642211914063 C 20.96340179443359 405.4695129394531 18.28949546813965 402.9165649414063 15.38755702972412 400.6642761230469 C 29.08226585388184 396.7382507324219 29.19944953918457 389.428955078125 29.26367378234863 385.4601745605469 L 29.26411056518555 385.4337158203125 L 29.2617359161377 385.4074096679688 C 29.15277481079102 384.1924743652344 29.36280822753906 382.9653930664063 29.86926078796387 381.8560791015625 C 30.23102378845215 381.3096923828125 30.75668144226074 380.5735168457031 33.22323608398438 379.93017578125 C 36.35467147827148 379.1134033203125 41.79939270019531 378.6992797851563 49.40617370605469 378.6992797851563 L 49.82576751708984 378.6993713378906 L 50.25126647949219 378.699462890625 C 55.65095520019531 378.699462890625 62.37098693847656 378.699462890625 66.61836242675781 375.1250305175781 C 71.17357635498047 371.2915649414063 68.73282623291016 367.3293151855469 65.354736328125 361.8453369140625 L 65.21651458740234 361.6222229003906 C 63.77782821655273 359.2997131347656 61.8074836730957 356.1189575195313 59.69570541381836 352.0326843261719 C 56.04317474365234 345.053466796875 47.91689300537109 339.3851623535156 35.5413932800293 335.1829833984375 C 25.38566207885742 331.7344970703125 14.33475875854492 329.9619140625 6.698207855224609 329.0751037597656 C 6.977210998535156 318.9827575683594 6.279541969299316 308.8259582519531 4.623329639434814 298.8662414550781 C 8.518095970153809 298.9472045898438 12.33363151550293 298.9882202148438 15.97357940673828 298.9882202148438 C 69.80835723876953 298.9882202148438 82.88964080810547 290.3069152832031 89.9173583984375 285.6429748535156 L 89.9315185546875 285.6336059570313 L 89.94498443603516 285.623291015625 C 90.79462432861328 284.9723205566406 91.7305908203125 284.44482421875 92.72742462158203 284.0550537109375 C 93.19723510742188 283.9560852050781 93.73783111572266 283.9059143066406 94.33507537841797 283.9059143066406 C 100.8169250488281 283.9059143066406 112.5256118774414 289.6341247558594 116.9334564208984 291.79052734375 L 117.5053634643555 292.0655517578125 C 119.6838607788086 293.1307373046875 122.5317687988281 293.6275024414063 126.4649200439453 293.6274719238281 C 128.5626678466797 293.62744140625 130.7473602294922 293.4920043945313 132.860107421875 293.3609924316406 L 132.8646697998047 293.3607177734375 L 132.8692626953125 293.3603820800781 C 134.5230102539063 293.2273559570313 136.2025756835938 293.159912109375 137.8612976074219 293.159912109375 C 138.1670989990234 293.159912109375 138.4756469726563 293.1622009277344 138.7833251953125 293.166748046875 L 138.7833251953125 295.7718200683594 L 138.7831726074219 295.7873840332031 C 138.7436065673828 300.083251953125 138.6894226074219 305.9666748046875 140.3171691894531 311.1385498046875 C 142.284423828125 317.3890075683594 146.2818908691406 320.9136962890625 152.1985168457031 321.6146545410156 C 152.9634857177734 321.7041320800781 153.7413024902344 321.7494506835938 154.5110778808594 321.7494506835938 L 154.5444793701172 321.7494201660156 C 169.3361358642578 321.7494201660156 182.9657897949219 305.9205322265625 185.6107940673828 299.0697326660156 C 185.7458801269531 298.9322509765625 186.2348175048828 298.5786743164063 187.9634246826172 297.9989624023438 C 189.2119903564453 297.5802917480469 190.6823883056641 297.1832885742188 191.7560424804688 296.8934020996094 L 191.8054046630859 296.8800964355469 C 194.6195831298828 296.2108764648438 197.3863983154297 295.2932434082031 200.0457000732422 294.1477966308594 L 200.0244903564453 294.2125244140625 L 200.4889221191406 294.3735961914063 C 205.5291442871094 296.1214599609375 210.5160522460938 298.1932067871094 215.3110198974609 300.5313110351563 C 219.8796081542969 302.7548217773438 225.5266418457031 303.0399475097656 229.9359283447266 303.0399169921875 C 231.8312377929688 303.0399169921875 233.7106170654297 302.9776000976563 235.3687286376953 302.9226379394531 L 235.3769226074219 302.9223937988281 L 235.3850860595703 302.9218139648438 C 236.3802337646484 302.856201171875 237.3904876708984 302.8229064941406 238.3878326416016 302.8229064941406 C 239.3385772705078 302.8229064941406 240.3011627197266 302.8531799316406 241.2511444091797 302.912841796875 C 244.7173461914063 305.3727722167969 253.4126892089844 313.9684143066406 255.9251098632813 319.9281005859375 C 253.7322082519531 320.5135192871094 250.8443298339844 321.2027893066406 248.9054565429688 321.2027893066406 C 248.4511108398438 321.2027893066406 248.0633239746094 321.165283203125 247.7528991699219 321.0912780761719 L 247.7483215332031 321.0902099609375 L 247.7437286376953 321.0892028808594 C 245.8114776611328 320.6668090820313 243.8368988037109 320.3361206054688 241.8699035644531 320.1053771972656 L 241.8378601074219 320.0412902832031 L 241.8304901123047 320.0265502929688 L 241.8221740722656 320.0123291015625 C 240.1483612060547 317.1524658203125 236.4003295898438 314.9763488769531 230.6821746826172 313.54443359375 C 226.3997650146484 312.4720764160156 221.0538940429688 311.8157043457031 214.7930450439453 311.5935363769531 C 213.5228271484375 311.5492858886719 212.1980743408203 311.52685546875 210.8553314208984 311.52685546875 C 206.6492309570313 311.52685546875 192.2928924560547 311.8076782226563 184.1503601074219 315.4212036132813 C 175.1759490966797 319.4675598144531 174.7792358398438 329.2489318847656 174.4895477294922 336.3910217285156 C 174.4067993164063 338.4219055175781 174.3211975097656 340.5220947265625 174.0547637939453 342.2390441894531 C 173.7085418701172 344.47021484375 173.1741027832031 345.1678771972656 172.7867279052734 345.3602905273438 C 172.0824890136719 345.7063903808594 171.1051788330078 345.8823547363281 169.8837280273438 345.8823547363281 C 166.2654876708984 345.8823547363281 160.8986968994141 344.3254089355469 156.5863952636719 343.0744018554688 C 150.8291473388672 341.4042053222656 143.6640777587891 339.3255310058594 136.9532928466797 339.3255310058594 C 136.5652770996094 339.3255310058594 136.1772918701172 339.3325500488281 135.8000946044922 339.3463745117188 C 132.6031799316406 339.4251708984375 129.6903228759766 341.0954284667969 128.0074615478516 343.8147888183594 C 126.1461715698242 346.7352294921875 125.3289489746094 351.395263671875 125.5787963867188 357.6651611328125 C 125.7795791625977 362.7038269042969 126.664794921875 368.8200988769531 128.2098541259766 375.8440246582031 C 131.0346527099609 388.6856994628906 135.1751708984375 400.4380798339844 135.4654998779297 401.2559204101563 C 135.4721069335938 401.2846984863281 135.4794769287109 401.3147583007813 135.4871978759766 401.3460693359375 C 135.4928588867188 401.3689880371094 135.49853515625 401.3920593261719 135.5040283203125 401.415283203125 C 133.1184997558594 402.575439453125 131.1986999511719 403.4791870117188 129.4847106933594 404.2491149902344 C 124.9436721801758 406.2964782714844 121.6182327270508 408.2098388671875 119.3177032470703 410.0988464355469 C 116.952018737793 412.0413208007813 115.6004257202148 414.0135192871094 115.1857070922852 416.1280822753906 C 114.1720809936523 421.2893676757813 119.0897979736328 424.8379821777344 123.0412368774414 427.6893615722656 L 123.0558624267578 427.6998901367188 L 123.071174621582 427.7093505859375 C 125.3605499267578 429.1227111816406 127.3595657348633 430.9156494140625 129.0126800537109 433.038330078125 C 129.7548217773438 434.1144714355469 130.3677062988281 435.2740173339844 130.8388824462891 436.4923706054688 C 128.1245727539063 436.9230041503906 125.3634567260742 437.2044982910156 122.621826171875 437.3298950195313 L 122.616828918457 437.3301086425781 L 122.6118316650391 437.3304443359375 C 119.1025848388672 437.5615539550781 115.6302947998047 437.6989135742188 111.4563751220703 437.8543701171875 C 111.2360763549805 437.8535461425781 111.0163726806641 437.8531188964844 110.7960815429688 437.8531188964844 C 92.18804931640625 437.8531188964844 73.79220581054688 440.8064880371094 56.11954879760742 446.631103515625 L 56.08204650878906 446.6434326171875 L 56.04695510864258 446.6615295410156 C 55.65448379516602 446.8638610839844 55.21367263793945 446.9707946777344 54.77214050292969 446.9707946777344 Z" stroke="none"/>
      <path d="M 54.77224349975586 446.4707641601563 C 55.1344108581543 446.4707641601563 55.49597549438477 446.383056640625 55.81781005859375 446.2171325683594 L 55.88801193237305 446.1809387207031 L 55.96300888061523 446.1562194824219 C 73.68630981445313 440.3149108886719 92.13494110107422 437.3531188964844 110.7964096069336 437.3531188964844 C 111.0140609741211 437.3531188964844 111.2307510375977 437.353515625 111.448371887207 437.3543090820313 C 115.6134185791016 437.1991882324219 119.0792236328125 437.06201171875 122.5789413452148 436.8315124511719 L 122.5889739990234 436.8308715820313 L 122.599006652832 436.8303833007813 C 125.1120300292969 436.7154846191406 127.6416778564453 436.4684753417969 130.1361541748047 436.0948486328125 C 129.7185821533203 435.1277465820313 129.2071990966797 434.2027587890625 128.6089782714844 433.3336791992188 C 126.9942932128906 431.2633056640625 125.0428619384766 429.5142211914063 122.8085098266602 428.1347961425781 L 122.7778778076172 428.1159057617188 L 122.7486801147461 428.0948181152344 C 120.7923736572266 426.6831359863281 118.5750122070313 425.0830993652344 116.9447402954102 423.1799621582031 C 114.9448471069336 420.84521484375 114.2089462280273 418.5069580078125 114.6950454711914 416.0317993164063 C 115.1330108642578 413.7986450195313 116.5413131713867 411.7315979003906 119.000373840332 409.71240234375 C 121.3354415893555 407.7950744628906 124.6974792480469 405.8589782714844 129.2798461914063 403.7929992675781 C 130.8957824707031 403.0671081542969 132.6957702636719 402.2216796875 134.8992004394531 401.1531677246094 C 134.2014770507813 399.1610412597656 130.3800659179688 388.0372009277344 127.7215423583984 375.951416015625 C 124.1821899414063 359.861328125 124.1364669799805 348.9588317871094 127.5854187011719 343.546630859375 C 129.3571929931641 340.6870422363281 132.4209289550781 338.9307250976563 135.7839050292969 338.8466186523438 C 136.1665496826172 338.8326416015625 136.5599517822266 338.8255310058594 136.9532775878906 338.8255310058594 C 143.7349700927734 338.8255310058594 150.9379730224609 340.9151611328125 156.7256774902344 342.5942077636719 C 161.0076141357422 343.8363952636719 166.3366394042969 345.3823547363281 169.8837127685547 345.3823547363281 C 171.0280151367188 345.3823547363281 171.9311370849609 345.2236633300781 172.5643463134766 344.9124450683594 C 172.6673736572266 344.8612976074219 173.1997833251953 344.4881286621094 173.5606842041016 342.1623840332031 C 173.8227386474609 340.4734497070313 173.9077758789063 338.3876647949219 173.9899749755859 336.3707275390625 C 174.2849426269531 329.0984191894531 174.6889495849609 319.138671875 183.942138671875 314.9665832519531 L 183.9448394775391 314.9653930664063 L 183.9475402832031 314.9642028808594 C 192.1799468994141 311.3107604980469 206.6244506835938 311.0268249511719 210.8554077148438 311.0268249511719 C 212.2039489746094 311.0268249511719 213.5345153808594 311.0493469238281 214.8108062744141 311.0938720703125 C 221.1065826416016 311.3172302246094 226.4873504638672 311.9785461425781 230.8036499023438 313.0594177246094 C 236.5777587890625 314.50537109375 240.4046783447266 316.7186279296875 242.181640625 319.6390686035156 C 244.0808868408203 319.8700256347656 245.9853668212891 320.1930236816406 247.8505096435547 320.6007385253906 L 247.8597106933594 320.6027221679688 L 247.8688507080078 320.6049194335938 C 248.1413116455078 320.6698608398438 248.4901123046875 320.7027893066406 248.9054718017578 320.7027893066406 C 250.6271057128906 320.7027893066406 253.1528015136719 320.1341552734375 255.2276306152344 319.5948486328125 C 254.0799102783203 317.1645202636719 251.8339996337891 314.0477600097656 248.7888031005859 310.6769409179688 C 245.7287292480469 307.2896118164063 242.7140655517578 304.5912780761719 241.07666015625 303.4031066894531 C 240.1836090087891 303.3498840332031 239.2804718017578 303.3229370117188 238.3878173828125 303.3229370117188 C 237.4014129638672 303.3229370117188 236.4022064208984 303.3558349609375 235.4179840087891 303.4207458496094 L 235.4016723632813 303.4218139648438 L 235.3853149414063 303.4223937988281 C 233.7235107421875 303.4774475097656 231.8399505615234 303.5399169921875 229.9359436035156 303.5399169921875 C 225.4729766845703 303.5399169921875 219.7525787353516 303.2490844726563 215.0918731689453 300.9807739257813 C 210.3148803710938 298.6513671875 205.3466033935547 296.5873413085938 200.3251037597656 294.8459777832031 L 199.9713287353516 294.7232971191406 C 197.3715667724609 295.8250427246094 194.6725921630859 296.7117614746094 191.928955078125 297.3646240234375 L 191.8867492675781 297.3760375976563 C 190.8575744628906 297.6539001464844 189.4480438232422 298.034423828125 188.2402038574219 298.4338073730469 C 186.7233581542969 298.9353637695313 186.1967926025391 299.2471618652344 186.0305328369141 299.3690185546875 C 184.6715545654297 302.7863464355469 180.7617645263672 308.3700561523438 174.9446716308594 313.3659973144531 C 170.2260131835938 317.4185791015625 162.8562774658203 322.2494201660156 154.5467376708984 322.2494201660156 L 154.5114440917969 322.2494506835938 C 153.7219085693359 322.2494506835938 152.9244079589844 322.2030029296875 152.1396789550781 322.1112060546875 C 146.0099792480469 321.3849487304688 141.8718414306641 317.7436828613281 139.8402099609375 311.2885131835938 C 138.1886749267578 306.0411071777344 138.2433166503906 300.1119384765625 138.283203125 295.7826232910156 L 138.2833404541016 295.7666320800781 L 138.2833404541016 293.661376953125 C 138.1424102783203 293.660400390625 138.0016632080078 293.659912109375 137.8615417480469 293.659912109375 C 136.2160797119141 293.659912109375 134.5499114990234 293.7268371582031 132.9093475341797 293.8587341308594 L 132.9002075195313 293.8594970703125 L 132.8910369873047 293.8600463867188 C 130.7704162597656 293.9915161132813 128.5775756835938 294.1274719238281 126.4649124145508 294.1274719238281 C 122.4541015625 294.1275024414063 119.5367813110352 293.6147766113281 117.2846298217773 292.5141906738281 L 116.719841003418 292.2426147460938 L 116.7167739868164 292.2411499023438 L 116.7137451171875 292.2396545410156 C 114.5185470581055 291.1657409667969 110.4325103759766 289.166748046875 106.0973129272461 287.4549865722656 C 100.9734420776367 285.4317932128906 97.01604461669922 284.4059143066406 94.33507537841797 284.4059143066406 C 93.78953552246094 284.4059143066406 93.29736328125 284.4496765136719 92.87064361572266 284.5360107421875 C 91.93209075927734 284.9071044921875 91.05046081542969 285.4061889648438 90.24904632568359 286.0202026367188 L 90.22210693359375 286.0408325195313 L 90.19384002685547 286.0596008300781 C 83.12224578857422 290.7526550292969 69.95931243896484 299.4882202148438 15.97347736358643 299.4882202148438 C 12.51688194274902 299.4882202148438 8.903049468994141 299.4512939453125 5.214165210723877 299.3783569335938 C 6.780759811401367 309.0278625488281 7.451515674591064 318.8589477539063 7.210000514984131 328.6316833496094 C 23.88450813293457 330.6082153320313 51.98142242431641 336.2140197753906 60.13751220703125 351.7985534667969 L 60.13871002197266 351.8008728027344 L 60.13987731933594 351.8031616210938 C 62.2424430847168 355.8715515136719 64.20671081542969 359.0425720214844 65.64094543457031 361.3578796386719 L 65.78044128417969 361.5831298828125 C 69.15781402587891 367.0658569335938 71.82547760009766 371.3964538574219 66.9403076171875 375.507568359375 C 62.5533447265625 379.1994934082031 55.73200988769531 379.1994934082031 50.25101089477539 379.1994934082031 L 49.82587814331055 379.1994018554688 L 49.40617752075195 379.1992797851563 C 41.84197616577148 379.1992797851563 36.4397087097168 379.6080017089844 33.34944534301758 380.4140014648438 C 31.12185668945313 380.9949951171875 30.62556838989258 381.6239929199219 30.30796813964844 382.0993347167969 C 29.84918403625488 383.1204833984375 29.65970039367676 384.2471923828125 29.75974273681641 385.3627319335938 L 29.76447677612305 385.4153442382813 L 29.76361083984375 385.4682312011719 C 29.69879150390625 389.4756469726563 29.58108901977539 396.7814636230469 16.45181274414063 400.8682861328125 C 19.08946228027344 402.9918212890625 21.53076553344727 405.3642578125 23.72684288024902 407.9397888183594 L 23.73984336853027 407.9550170898438 L 23.75221061706543 407.9707946777344 C 27.1023120880127 412.2342834472656 30.18818283081055 416.7698669433594 32.92397689819336 421.451171875 L 32.98207855224609 421.5445556640625 C 35.41640853881836 425.4571838378906 39.09521102905273 431.3699951171875 43.09767532348633 436.5007934570313 C 45.28014373779297 439.2985229492188 47.31864547729492 441.5481872558594 49.15650939941406 443.1872863769531 C 51.21323776245117 445.0215759277344 53.04663848876953 446.1239624023438 54.60707092285156 446.4647827148438 C 54.66202545166016 446.46875 54.71737670898438 446.4707641601563 54.77224349975586 446.4707641601563 M 54.77223587036133 447.4707641601563 C 54.66833877563477 447.4707641601563 54.56413650512695 447.4658203125 54.46010971069336 447.4559020996094 C 46.92294311523438 445.8916015625 36.91350936889648 429.7561645507813 32.06740951538086 421.9674072265625 C 29.34330940246582 417.3047790527344 26.30231094360352 412.8346862792969 22.96590995788574 408.588623046875 C 20.38351058959961 405.5599975585938 17.47007751464844 402.8300476074219 14.28011035919189 400.4497985839844 C 28.56681060791016 396.6976318359375 28.69811058044434 389.5105285644531 28.76374435424805 385.4520568847656 C 28.64567756652832 384.1357727050781 28.87581062316895 382.8116149902344 29.43101119995117 381.6123352050781 C 30.24054336547852 380.3871459960938 31.73921012878418 378.1992797851563 49.40617752075195 378.1992797851563 C 49.68621826171875 378.1992797851563 49.96785736083984 378.1994934082031 50.25099563598633 378.1994934082031 C 55.98463439941406 378.1994934082031 62.28300094604492 378.1199951171875 66.29640960693359 374.7424621582031 C 70.50804138183594 371.1981506347656 68.29830932617188 367.5772399902344 64.92900848388672 362.1076049804688 C 63.45220947265625 359.7228393554688 61.43937683105469 356.4957580566406 59.25151062011719 352.2622680664063 C 51.03610992431641 336.5643920898438 21.50004386901855 331.2588195800781 6.18507719039917 329.5194396972656 C 6.504177093505859 319.0849914550781 5.782310485839844 308.6446838378906 4.030010223388672 298.353515625 C 8.219444274902344 298.4448547363281 12.19657802581787 298.4882507324219 15.97348117828369 298.4882507324219 C 69.6531982421875 298.4882202148438 82.86489868164063 289.7232666015625 89.64087677001953 285.2263793945313 C 90.53834533691406 284.5387878417969 91.5291748046875 283.9826049804688 92.58354187011719 283.5745239257813 C 93.11214447021484 283.4593200683594 93.69931030273438 283.4059143066406 94.33506774902344 283.4059143066406 C 100.8829345703125 283.4059143066406 112.5265579223633 289.0779724121094 117.1531753540039 291.3414001464844 L 117.7220077514648 291.6148986816406 C 120.1416625976563 292.7980041503906 123.202033996582 293.1275024414063 126.4649276733398 293.1274719238281 C 128.5420837402344 293.12744140625 130.7015991210938 292.9938659667969 132.8291778564453 292.8619689941406 C 134.5034484863281 292.7273254394531 136.1822357177734 292.659912109375 137.8615570068359 292.659912109375 C 138.3354644775391 292.659912109375 138.8094482421875 292.665283203125 139.2833404541016 292.676025390625 C 139.2833404541016 293.5839538574219 139.2833404541016 294.7981872558594 139.2833404541016 295.7718200683594 C 139.2067413330078 304.0856628417969 139.0536041259766 319.5538330078125 152.2573394775391 321.1181335449219 C 153.0055236816406 321.2056579589844 153.7581481933594 321.2494506835938 154.5114288330078 321.2494506835938 C 154.5221557617188 321.2494506835938 154.5329132080078 321.2494506835938 154.5436401367188 321.2494201660156 C 168.9616088867188 321.2494201660156 182.5810394287109 305.6828002929688 185.1736450195313 298.8129272460938 C 185.7862396240234 297.9815673828125 189.4946746826172 296.986083984375 191.6825408935547 296.3953552246094 C 194.8415374755859 295.6446533203125 197.9192810058594 294.5857238769531 200.8715057373047 293.23388671875 L 200.6527404785156 293.9011840820313 C 205.7309417724609 295.6622009277344 210.6990051269531 297.7261352539063 215.5301818847656 300.0819396972656 C 219.7098083496094 302.1161193847656 224.9686126708984 302.5399475097656 229.9359588623047 302.5399169921875 C 231.8071136474609 302.5399169921875 233.6370544433594 302.4797973632813 235.3521728515625 302.4229125976563 C 236.3629455566406 302.3562622070313 237.3753662109375 302.3229370117188 238.3878021240234 302.3229370117188 C 239.4002227783203 302.3229370117188 240.4126586914063 302.3562622070313 241.4234466552734 302.4229125976563 C 245.0662384033203 304.9498596191406 254.3427734375 314.1716918945313 256.5962219238281 320.264892578125 C 253.8391876220703 321.0159912109375 250.9183654785156 321.7027893066406 248.9054718017578 321.7027893066406 C 248.4265441894531 321.7027893066406 247.9986114501953 321.6638488769531 247.6369781494141 321.5776672363281 C 245.62451171875 321.1377563476563 243.5907440185547 320.8018493652344 241.5437774658203 320.5711669921875 L 241.3906402587891 320.264892578125 C 237.8244171142578 314.1716918945313 224.9488830566406 312.4541931152344 214.7753448486328 312.0932312011719 C 213.5330352783203 312.0499267578125 212.2196197509766 312.02685546875 210.8554077148438 312.02685546875 C 201.8766326904297 312.02685546875 190.7727661132813 313.029296875 184.3531799316406 315.8782348632813 C 175.6673736572266 319.7944641113281 175.2735748291016 329.399169921875 174.9891510009766 336.4112548828125 C 174.8250732421875 340.4368896484375 174.6391143798828 344.9985656738281 173.0091400146484 345.80810546875 C 172.1884765625 346.21142578125 171.1231079101563 346.3823547363281 169.8837127685547 346.3823547363281 C 166.2824859619141 346.3823547363281 161.2161712646484 344.9381408691406 156.4470825195313 343.5545959472656 C 150.3899536132813 341.7973937988281 143.4742584228516 339.8255310058594 136.9532928466797 339.8255310058594 C 136.5729217529297 339.8255310058594 136.1930084228516 339.832275390625 135.8155822753906 339.8461303710938 C 132.7971496582031 339.91943359375 130.0197448730469 341.5118408203125 128.4315490722656 344.0796508789063 C 120.5443420410156 356.4410705566406 134.5247497558594 397.1242980957031 135.9468383789063 401.1171264648438 C 135.9796447753906 401.2702941894531 136.0452728271484 401.4671936035156 136.0452728271484 401.7078552246094 C 133.8683776855469 402.7689514160156 131.7352142333984 403.7863159179688 129.6895751953125 404.7052001953125 C 120.7849807739258 408.7199401855469 116.453010559082 412.2642517089844 115.6763458251953 416.2242736816406 C 114.7246398925781 421.0703735351563 119.4832077026367 424.5052795410156 123.3338470458984 427.2839050292969 L 123.3338470458984 427.2838745117188 C 125.6703796386719 428.7263793945313 127.7301788330078 430.5750122070313 129.4160766601563 432.7425537109375 C 130.3007049560547 434.0230712890625 131.0072784423828 435.4178466796875 131.5164489746094 436.8886108398438 C 128.5806427001953 437.3792114257813 125.6180801391602 437.6933898925781 122.6446762084961 437.829345703125 C 118.9909439086914 438.0700073242188 115.2825469970703 438.2122192382813 111.4647445678711 438.3544006347656 C 111.2416152954102 438.3535461425781 111.0194931030273 438.3531188964844 110.7964019775391 438.3531188964844 C 92.27491760253906 438.3531188964844 73.86949157714844 441.3074645996094 56.27604293823242 447.10595703125 C 55.80968475341797 447.3463745117188 55.29395294189453 447.4707641601563 54.77223587036133 447.4707641601563 Z" stroke="none" fill="#30abec"/>
    </g>
    <text id="jiulongpo1" transform="translate(1726.844 1975.87)" fill="#fff" font-size="10" font-family="MicrosoftYaHei, Microsoft YaHei"><tspan x="0" y="0">九龙坡区</tspan></text>
  </g>
</svg>
