<svg xmlns="http://www.w3.org/2000/svg" xmlns:xlink="http://www.w3.org/1999/xlink" width="248.505" height="179.877" viewBox="0 0 248.505 179.877">
  <defs>
    <linearGradient id="linear-gradient" x1="0.804" y1="1.046" x2="0.468" y2="0.206" gradientUnits="objectBoundingBox">
      <stop offset="0" stop-color="#191e64"/>
      <stop offset="1" stop-color="#17448b"/>
    </linearGradient>
    <filter id="减去_1" x="153.484" y="0" width="95.021" height="92.633" filterUnits="userSpaceOnUse">
      <feOffset dy="8" input="SourceAlpha"/>
      <feGaussianBlur stdDeviation="9" result="blur"/>
      <feFlood flood-color="#0f093c" flood-opacity="0.161"/>
      <feComposite operator="in" in2="blur"/>
      <feComposite in="SourceGraphic"/>
    </filter>
    <radialGradient id="radial-gradient" cx="0.483" cy="0.5" r="0.844" gradientTransform="translate(0.197 -0.019) scale(0.592 1.038)" gradientUnits="objectBoundingBox">
      <stop offset="0" stop-color="#1fb9e6"/>
      <stop offset="1" stop-color="#0669d2"/>
    </radialGradient>
    <linearGradient id="linear-gradient-2" x1="0.885" y1="1.03" x2="0.415" y2="0.226" xlink:href="#linear-gradient"/>
    <filter id="减去_3" x="137.271" y="28.895" width="81.82" height="83.716" filterUnits="userSpaceOnUse">
      <feOffset dy="8" input="SourceAlpha"/>
      <feGaussianBlur stdDeviation="9" result="blur-2"/>
      <feFlood flood-color="#0f093c" flood-opacity="0.161"/>
      <feComposite operator="in" in2="blur-2"/>
      <feComposite in="SourceGraphic"/>
    </filter>
    <linearGradient id="linear-gradient-3" x1="0.671" y1="1.178" x2="0.424" y2="0.553" xlink:href="#linear-gradient"/>
    <filter id="减去_2" x="0" y="47.059" width="202.285" height="132.818" filterUnits="userSpaceOnUse">
      <feOffset dy="8" input="SourceAlpha"/>
      <feGaussianBlur stdDeviation="9" result="blur-3"/>
      <feFlood flood-color="#0f093c" flood-opacity="0.161"/>
      <feComposite operator="in" in2="blur-3"/>
      <feComposite in="SourceGraphic"/>
    </filter>
  </defs>
  <g id="kaizhou" transform="translate(-38.963 -41.441)">
    <g transform="matrix(1, 0, 0, 1, 38.96, 41.44)" filter="url(#减去_1)">
      <path id="减去_1-2" data-name="减去 1" d="M155.141,43.186h0c1.865-2.47,5.866-5.758,8.894-8.081a34.388,34.388,0,0,1-8.536-4.164,4.428,4.428,0,0,1-2-2.879,2.625,2.625,0,0,1,.674-2.048c.95-1.1,3.2-2.414,8.536-2.414.212,0,.43,0,.648.006a10.805,10.805,0,0,0,7.687-3.23,12.867,12.867,0,0,0,2.523-3.435,6.247,6.247,0,0,1,4.5-3.251,9.5,9.5,0,0,1,1.76-.165,9.382,9.382,0,0,1,3.811.806,1.794,1.794,0,0,0,.463.16,15.148,15.148,0,0,0,3.235-1.8l.218-.143c.7-.458,1.5-.977,2.386-1.51a7.233,7.233,0,0,0,3.5-5.1l.008,0c.146.056.083,4.616.022,9.026-.055,3.943-.111,8.021-.018,8.883a7.212,7.212,0,0,1-3.512,5.187c-.891.533-1.686,1.052-2.386,1.51l-.218.143a15.149,15.149,0,0,1-3.235,1.8,1.794,1.794,0,0,1-.463-.16,9.382,9.382,0,0,0-3.811-.806,9.5,9.5,0,0,0-1.76.165,6.247,6.247,0,0,0-4.5,3.251,12.861,12.861,0,0,1-2.523,3.435A11.556,11.556,0,0,1,167.9,40.6a10.522,10.522,0,0,1-4.535,1c-.218,0-.436-.006-.648-.006C159.3,41.6,156.756,42.132,155.141,43.186Z" transform="translate(27.5 13.8)" stroke="rgba(0,0,0,0)" stroke-width="1" fill="url(#linear-gradient)"/>
    </g>
    <g id="Op_component_9" data-name="Op component 9" transform="translate(-620 -16)" opacity="0.67" fill="url(#radial-gradient)">
      <path d="M 734.1663818359375 185.3178558349609 C 731.5256958007813 185.3178558349609 729.6536254882813 185.0135955810547 728.4432983398438 184.3876800537109 C 726.925537109375 183.6071624755859 726.105712890625 182.1748352050781 725.9359741210938 180.0082550048828 C 725.8079223632813 178.3397827148438 725.352783203125 176.5389404296875 722.9488525390625 175.8387603759766 C 722.4136962890625 175.6828765869141 721.8483276367188 175.6038208007813 721.2684936523438 175.6038208007813 C 719.6129150390625 175.6038208007813 718.0491943359375 176.2325134277344 716.6695556640625 176.7871856689453 C 715.04052734375 177.4404754638672 713.7022705078125 177.9403228759766 712.5463256835938 177.9403228759766 C 712.0187377929688 177.9403228759766 711.5299072265625 177.8362579345703 711.052001953125 177.6221618652344 C 708.6835327148438 176.4989471435547 706.0162963867188 175.9052276611328 703.3383178710938 175.9052276611328 C 700.6149291992188 175.9052276611328 697.914306640625 176.5163879394531 695.5161743164063 177.6740112304688 C 694.7294311523438 177.5186309814453 693.8953857421875 177.346435546875 693.0439453125 177.1208801269531 C 689.8657836914063 176.2757110595703 687.6093139648438 172.2573852539063 687.05126953125 171.1731414794922 C 687.566162109375 170.5843963623047 689.40673828125 168.8280792236328 694.1575927734375 167.1929931640625 C 696.4841918945313 166.3922576904297 700.5101318359375 164.7908325195313 704.1990356445313 162.9127502441406 C 710.4374389648438 159.7367095947266 710.509765625 158.3673553466797 710.5335083007813 157.9173583984375 C 710.5499877929688 157.605712890625 710.4541015625 157.0251922607422 709.6271362304688 156.6388702392578 C 709.2356567382813 156.4560394287109 708.8123168945313 156.2685699462891 708.3641967773438 156.0700836181641 C 706.1109619140625 155.0721893310547 703.025146484375 153.7055206298828 702.9009399414063 152.2246856689453 C 702.8439331054688 151.544921875 703.4384765625 150.7879638671875 704.6680297851563 149.974853515625 C 704.9509887695313 149.7877349853516 705.247802734375 149.5924987792969 705.5554809570313 149.3901062011719 C 711.5714111328125 145.4331817626953 716.957275390625 141.6329193115234 716.787109375 138.6323699951172 C 716.7332153320313 137.6821136474609 716.137939453125 136.9129028320313 715.0178833007813 136.3460845947266 C 713.9141845703125 135.7875671386719 712.640869140625 135.2675018310547 711.409423828125 134.7645721435547 C 710.0264282226563 134.19970703125 708.7201538085938 133.6661834716797 707.7660522460938 133.1281433105469 C 706.5921630859375 132.4661407470703 706.4339599609375 132.0618286132813 706.4442138671875 131.8797607421875 C 706.451416015625 131.7515716552734 706.5689086914063 131.3973236083984 707.5028686523438 130.8773803710938 C 708.3894653320313 130.3838043212891 709.802978515625 129.8607330322266 711.704345703125 129.3227081298828 C 717.9063110351563 127.5676574707031 723.5568237304688 125.4651107788086 727.614990234375 123.4023742675781 C 732.4298095703125 120.9550170898438 734.6748046875 118.7389907836914 734.28759765625 116.8159027099609 C 734.0042114257813 115.4085388183594 733.250732421875 114.5257339477539 732.7006225585938 113.8811340332031 C 732.2650756835938 113.370849609375 732.0205688476563 113.0683517456055 732.0593872070313 112.7850875854492 C 732.1180419921875 112.357063293457 732.7966918945313 111.7037811279297 734.076416015625 110.8433303833008 C 736.4757080078125 109.2300186157227 738.4729614257813 107.3702087402344 739.8521728515625 105.464973449707 C 741.3285522460938 103.4255676269531 742.0111083984375 101.4333953857422 741.826171875 99.70382690429688 C 741.7047119140625 98.569091796875 741.2864990234375 97.65549468994141 740.950439453125 96.92140197753906 C 740.7074584960938 96.39070892333984 740.4562377929688 95.84194946289063 740.5708618164063 95.64714050292969 C 740.6678466796875 95.48233032226563 741.1329345703125 95.18220520019531 743.1587524414063 95.02406311035156 C 743.6980590820313 94.98197174072266 744.4044189453125 94.96151733398438 745.3181762695313 94.96151733398438 C 746.9776000976563 94.96151733398438 749.092529296875 95.02983093261719 751.3316650390625 95.10213470458984 C 753.961669921875 95.18706512451172 756.6812133789063 95.27487182617188 759.1891479492188 95.27487182617188 C 765.5325317382813 95.27484893798828 768.0040283203125 94.71294403076172 768.0040283203125 93.27070617675781 C 768.0040283203125 92.88992309570313 767.9901733398438 92.53901672363281 767.9779052734375 92.22942352294922 C 767.9397583007813 91.26589965820313 767.9332885742188 90.74901580810547 768.2212524414063 90.44611358642578 C 768.5693969726563 90.07994842529297 769.4874877929688 89.87261199951172 771.1104125976563 89.79361724853516 C 776.2196655273438 89.54521179199219 778.0401000976563 87.10356903076172 778.0401000976563 84.90139770507813 C 778.0401000976563 83.93380737304688 778.4834594726563 82.21278381347656 779.7329711914063 80.54694366455078 C 780.7102661132813 79.24397277832031 782.5074462890625 77.57501983642578 785.5191040039063 77.02373504638672 C 788.1393432617188 76.54413604736328 790.7464599609375 75.55563354492188 793.2677001953125 74.59966278076172 C 796.3486938476563 73.43144989013672 799.2588500976563 72.32804107666016 801.9447631835938 72.21727752685547 C 804.9293823242188 72.09344482421875 805.0410766601563 72.05416107177734 805.4113159179688 71.92404174804688 C 805.5296020507813 71.88246917724609 805.67431640625 71.83159637451172 806.0964965820313 71.75459289550781 C 814.6288452148438 74.64904022216797 823.6830444335938 77.89598083496094 826.4087524414063 80.09590148925781 C 828.3901977539063 81.69999694824219 832.153076171875 82.54811096191406 837.2901000976563 82.54811096191406 L 837.8275756835938 82.54811096191406 L 837.830322265625 82.54811096191406 L 837.8330078125 82.54808807373047 C 841.7034301757813 82.50613403320313 846.1819458007813 82.00049591064453 850.1201782226563 81.16082763671875 C 853.1761474609375 80.50925445556641 857.224853515625 79.37715911865234 859.1583862304688 77.68396759033203 L 859.1678466796875 77.6756591796875 C 861.1698608398438 75.92267608642578 863.4384765625 73.9361572265625 866.3199462890625 73.63421630859375 C 866.5407104492188 73.62272644042969 866.7645874023438 73.61689758300781 866.9855346679688 73.61689758300781 C 868.9037475585938 73.61689758300781 870.8060913085938 74.05292510986328 872.4869384765625 74.87785339355469 L 872.4961547851563 74.88237762451172 L 872.5055541992188 74.88649749755859 C 874.7201538085938 75.86284637451172 877.0232543945313 76.72144317626953 879.357421875 77.44115447998047 C 878.9979248046875 79.22832489013672 877.8469848632813 80.81838226318359 876.1499633789063 81.85040283203125 C 875.2510375976563 82.38768768310547 874.4498901367188 82.91127777099609 873.7431030273438 83.37322998046875 L 873.5321655273438 83.51103973388672 C 871.5074462890625 84.84130859375 870.82080078125 85.16171264648438 870.5887451171875 85.22118377685547 C 870.5003662109375 85.19759368896484 870.4157104492188 85.16522979736328 870.336181640625 85.12454223632813 L 870.3247680664063 85.11868286132813 L 870.31298828125 85.11342620849609 C 869.0719604492188 84.55725860595703 867.6832885742188 84.26328277587891 866.297119140625 84.26328277587891 C 865.6759643554688 84.26328277587891 865.0526123046875 84.32158660888672 864.444580078125 84.43661499023438 C 862.2984619140625 84.83373260498047 860.4813842773438 86.14990234375 859.5858154296875 87.95697021484375 L 859.5825805664063 87.96344757080078 L 859.57958984375 87.97003936767578 C 859.5719604492188 87.98664093017578 858.7969360351563 89.64875793457031 857.16064453125 91.25735473632813 C 855.0782470703125 93.30451202392578 852.6114501953125 94.34306335449219 849.8287353515625 94.34420776367188 C 849.6090087890625 94.33998870849609 849.3894653320313 94.33785247802734 849.176025390625 94.33785247802734 C 843.6542358398438 94.33785247802734 841.2803955078125 95.74449157714844 840.2613525390625 96.92449188232422 C 839.642333984375 97.64132690429688 839.3682250976563 98.48237609863281 839.4686889648438 99.35673522949219 C 839.60009765625 100.5005874633789 840.3804321289063 101.6464920043945 841.6660766601563 102.5833969116211 L 841.6732788085938 102.5886383056641 L 841.6806640625 102.5936126708984 C 844.0697021484375 104.2075958251953 846.6812133789063 105.5246505737305 849.4559326171875 106.5157012939453 C 847.0897216796875 108.3592300415039 845.1297607421875 110.0265426635742 843.6223754882813 111.4786605834961 C 841.2222900390625 113.7907791137695 840.0556030273438 115.4820404052734 840.0556030273438 116.6491165161133 L 840.0556030273438 116.6522064208984 L 840.0556640625 116.6553039550781 C 840.0596923828125 116.9820861816406 840.08203125 117.3096084594727 840.1223754882813 117.634880065918 C 838.3184814453125 117.294563293457 835.6785278320313 116.9539489746094 833.2400512695313 116.9539489746094 C 830.564453125 116.9539489746094 828.6759643554688 117.3554916381836 827.6271362304688 118.1474685668945 L 827.6248168945313 118.1491851806641 L 827.62255859375 118.1509475708008 C 827.030517578125 118.6087341308594 826.701416015625 119.1932830810547 826.6959228515625 119.7969207763672 C 826.689453125 120.5114974975586 827.1168823242188 121.2195205688477 827.96630859375 121.9013290405273 L 827.9761352539063 121.9092330932617 L 827.9863891601563 121.9166107177734 C 829.2257080078125 122.8125610351563 830.6089477539063 123.5219421386719 832.0975952148438 124.0251235961914 L 832.2048950195313 124.0666580200195 C 832.2417602539063 124.0809173583984 832.2797241210938 124.0956039428711 832.318359375 124.1106033325195 C 832.191650390625 124.1911239624023 832.0615234375 124.2674942016602 831.9284057617188 124.3394241333008 L 831.92236328125 124.3426818847656 L 831.9163818359375 124.3461380004883 L 830.3184204101563 125.2673263549805 C 827.400390625 126.9363021850586 823.7670288085938 129.0144653320313 821.0781860351563 131.2384643554688 C 819.5702514648438 132.4857330322266 818.5394897460938 133.6251373291016 817.927001953125 134.7218017578125 C 817.1802368164063 136.0588073730469 817.0791625976563 137.3202972412109 817.6265869140625 138.4712524414063 C 818.4536743164063 140.2061614990234 818.9091796875 141.1616058349609 818.7540893554688 142.1803741455078 C 818.585693359375 143.2863006591797 817.6553955078125 144.6397094726563 815.9976196289063 146.7503509521484 C 812.415771484375 151.3094482421875 809.4755859375 153.1690826416016 805.8493041992188 153.1690826416016 C 803.3007202148438 153.1690826416016 800.8711547851563 153.2248077392578 799.1575927734375 153.897705078125 C 797.2949829101563 154.6291656494141 796.3895263671875 156.056396484375 796.3895263671875 158.2610015869141 C 796.3895263671875 159.0550231933594 795.7192993164063 159.9928436279297 794.9418334960938 160.9691772460938 C 792.2845458984375 161.2709655761719 789.6326904296875 161.7529449462891 787.0568237304688 162.4024658203125 L 787.0512084960938 162.4039001464844 L 787.0455932617188 162.4054412841797 C 784.8137817382813 163.0237274169922 782.7779541015625 164.0237121582031 780.99462890625 165.3776550292969 L 780.9915161132813 165.3800659179688 L 780.9884033203125 165.3825225830078 C 779.4696044921875 166.5740356445313 777.630615234375 167.4375915527344 775.670166015625 167.8798828125 C 772.41064453125 168.5696868896484 770.64892578125 169.3572845458984 770.6737060546875 171.5368957519531 C 770.6766357421875 171.8123321533203 770.6791381835938 172.0505676269531 770.5067749023438 172.3970947265625 C 770.2813720703125 172.8503570556641 769.7893676757813 173.3980407714844 769.04443359375 174.0249176025391 C 767.124267578125 175.6440582275391 761.140625 178.2748718261719 753.42822265625 180.8910369873047 C 746.0990600585938 183.3771820068359 739.287109375 185.1325836181641 736.4774780273438 185.2591094970703 C 735.5831909179688 185.2991790771484 734.8487548828125 185.3178558349609 734.1663818359375 185.3178558349609 Z" stroke="none"/>
      <path d="M 734.166259765625 184.8178558349609 C 734.8411865234375 184.8178558349609 735.5684814453125 184.7993469238281 736.4550170898438 184.7596282958984 C 739.2222290039063 184.6349792480469 745.9786376953125 182.8900451660156 753.267578125 180.4175567626953 C 760.9248046875 177.8200988769531 766.8464965820313 175.2242431640625 768.7224731445313 173.6423797607422 C 769.4146728515625 173.0598754882813 769.8643798828125 172.5659790039063 770.05908203125 172.1744537353516 C 770.1779174804688 171.9355773925781 770.1763305664063 171.7873229980469 770.1737670898438 171.5425720214844 C 770.1422119140625 168.7705688476563 772.7044067382813 167.9965209960938 775.563720703125 167.3913269042969 C 777.4509887695313 166.9650115966797 779.2199096679688 166.1344299316406 780.6797485351563 164.9891204833984 L 780.6859741210938 164.9842224121094 L 780.6923217773438 164.9794464111328 C 782.5263671875 163.5869750976563 784.6190185546875 162.5588226318359 786.912109375 161.9235992431641 L 786.9232788085938 161.9205017089844 L 786.9345703125 161.9176483154297 C 789.4654541015625 161.2794799804688 792.0689697265625 160.8016967773438 794.6795043945313 160.4961242675781 C 795.2343139648438 159.7935333251953 795.8895263671875 158.8908843994141 795.8895263671875 158.2610015869141 C 795.8895263671875 155.8608551025391 796.9275512695313 154.2362518310547 798.974853515625 153.4323272705078 C 800.769775390625 152.7274780273438 803.2508544921875 152.6690979003906 805.8493041992188 152.6690979003906 C 807.5973510742188 152.6690979003906 809.1168823242188 152.2267303466797 810.63134765625 151.2769012451172 C 812.2105102539063 150.2864532470703 813.790771484375 148.7499237060547 815.6043701171875 146.4414978027344 C 817.1718139648438 144.4458923339844 818.1088256835938 143.0966033935547 818.259765625 142.1051177978516 C 818.3864135742188 141.2732238769531 818.0188598632813 140.4559936523438 817.175048828125 138.6860198974609 C 816.5540771484375 137.3803558349609 816.66015625 135.9645538330078 817.490478515625 134.4779815673828 C 818.1336669921875 133.3262939453125 819.2030029296875 132.140625 820.759521484375 130.8531799316406 C 823.4814453125 128.601806640625 827.135498046875 126.5118026733398 830.0686645507813 124.8341522216797 L 831.1505737304688 124.21044921875 C 829.9119873046875 123.7205200195313 828.7520751953125 123.0871353149414 827.6934204101563 122.3218002319336 L 827.6729736328125 122.3070526123047 L 827.6533813476563 122.2912750244141 C 826.6783447265625 121.508674621582 826.18798828125 120.6679229736328 826.1959228515625 119.7923736572266 C 826.202880859375 119.0322723388672 826.6008911132813 118.3088760375977 827.3167114257813 117.7554016113281 L 827.3212280273438 117.7518997192383 L 827.3258056640625 117.7484512329102 C 828.4634399414063 116.8894729614258 830.4532470703125 116.4539260864258 833.2401123046875 116.4539260864258 C 835.43359375 116.4539260864258 837.7874145507813 116.7256164550781 839.5674438476563 117.0277404785156 C 839.5610961914063 116.9056625366211 839.5571899414063 116.7835159301758 839.5556640625 116.6614761352539 L 839.5556030273438 116.6552963256836 L 839.5556030273438 116.6491012573242 C 839.5556030273438 115.8133010864258 839.9412231445313 114.3306503295898 843.2755126953125 111.1185760498047 C 844.6430053710938 109.8012161254883 846.3772583007813 108.3102340698242 848.4449462890625 106.6737823486328 C 845.9437866210938 105.7100372314453 843.5810546875 104.4809188842773 841.4007568359375 103.007926940918 L 841.3860473632813 102.9979476928711 L 841.3716430664063 102.9874725341797 C 839.951416015625 101.9524993896484 839.12158203125 100.7167510986328 838.971923828125 99.41379547119141 C 838.8551025390625 98.39689636230469 839.170166015625 97.42312622070313 839.8829345703125 96.59770202636719 C 840.9702758789063 95.33867645263672 843.4651489257813 93.83785247802734 849.176025390625 93.83785247802734 C 849.3912963867188 93.83785247802734 849.6126098632813 93.83998870849609 849.833984375 93.84419250488281 C 852.4788208007813 93.84177398681641 854.8258056640625 92.85151672363281 856.8101806640625 90.90077209472656 C 858.3817749023438 89.35577392578125 859.1181030273438 87.77682495117188 859.1253662109375 87.76104736328125 L 859.1314086914063 87.7479248046875 L 859.1378173828125 87.73497772216797 C 860.1029052734375 85.78752136230469 862.053466796875 84.37057495117188 864.3516235351563 83.94532775878906 C 864.990234375 83.82452392578125 865.6448364257813 83.76327514648438 866.2971801757813 83.76327514648438 C 867.7532958984375 83.76327514648438 869.212646484375 84.07237243652344 870.5175170898438 84.65715026855469 L 870.541015625 84.66767120361328 L 870.5639038085938 84.67942047119141 C 870.5708618164063 84.68297576904297 870.577880859375 84.68642425537109 870.5849609375 84.68976593017578 C 870.8713989257813 84.56911468505859 871.5712890625 84.20107269287109 873.2588500976563 83.09234619140625 L 873.470947265625 82.95372772216797 C 874.1805419921875 82.49001312255859 874.9846801757813 81.9644775390625 875.8935546875 81.42109680175781 C 877.3280639648438 80.54766082763672 878.3412475585938 79.24948883056641 878.76123046875 77.77873229980469 C 876.5620727539063 77.08283996582031 874.3939819335938 76.2655029296875 872.3038330078125 75.34402465820313 L 872.2850341796875 75.33574676513672 L 872.2666625976563 75.32672119140625 C 870.6539306640625 74.53524780273438 868.8278198242188 74.11689758300781 866.985595703125 74.11689758300781 C 866.7774047851563 74.11689758300781 866.566650390625 74.12228393554688 866.3588256835938 74.13290405273438 C 863.6411743164063 74.42317962646484 861.4400634765625 76.35065460205078 859.4972534179688 78.05184936523438 L 859.48779296875 78.06009674072266 C 856.0930786132813 81.03287506103516 845.6069946289063 82.96385192871094 837.8384399414063 83.04804992675781 L 837.8330078125 83.048095703125 L 837.8275756835938 83.048095703125 L 837.2901000976563 83.048095703125 C 831.9622192382813 83.048095703125 828.1951904296875 82.1854248046875 826.0947265625 80.48497772216797 C 824.9091186523438 79.52809906005859 822.2555541992188 78.23317718505859 818.207763671875 76.63617706298828 C 814.3430786132813 75.11140441894531 809.7175903320313 73.51156616210938 806.0602416992188 72.27028656005859 C 805.77392578125 72.32659149169922 805.6666870117188 72.36426544189453 805.5771484375 72.395751953125 C 805.1212158203125 72.55599975585938 804.9216918945313 72.59420013427734 801.9653930664063 72.71685028076172 C 799.3604125976563 72.82424926757813 796.487060546875 73.91372680664063 793.4449462890625 75.06717681884766 C 790.90283203125 76.03107452392578 788.2741088867188 77.02777099609375 785.609130859375 77.51554870605469 C 782.756591796875 78.03772735595703 781.0567016601563 79.61540222167969 780.1329345703125 80.84694671630859 C 779.0326538085938 82.31392669677734 778.5401000976563 83.94029998779297 778.5401000976563 84.90139770507813 C 778.5401000976563 86.39352416992188 777.8214721679688 87.73927307128906 776.5166625976563 88.6907958984375 C 775.2097778320313 89.64387512207031 773.3989868164063 90.18292236328125 771.1347045898438 90.29302215576172 C 769.2389526367188 90.38527679443359 768.72265625 90.64437103271484 768.5836181640625 90.79062652587891 C 768.4278564453125 90.95447540283203 768.4519653320313 91.56414794921875 768.4774780273438 92.20962524414063 C 768.4899291992188 92.52387237548828 768.5040283203125 92.88002777099609 768.5040283203125 93.27069854736328 C 768.5040283203125 95.11955261230469 766.0664672851563 95.77484893798828 759.1890869140625 95.77487182617188 C 756.6730346679688 95.77490234375 753.9494018554688 95.68692779541016 751.3153686523438 95.60187530517578 C 749.0805053710938 95.52970123291016 746.9696044921875 95.46152496337891 745.3182983398438 95.46152496337891 C 744.4176025390625 95.46152496337891 743.7239379882813 95.48149871826172 743.1976928710938 95.52257537841797 C 741.8023681640625 95.63148498535156 741.2638549804688 95.79886627197266 741.0645141601563 95.89171600341797 C 741.1222534179688 96.09563446044922 741.2820434570313 96.444580078125 741.405029296875 96.71327209472656 C 741.7376708984375 97.43987274169922 742.1932373046875 98.43497467041016 742.3233032226563 99.65065002441406 C 742.5216674804688 101.5050735473633 741.8071899414063 103.6170272827148 740.2572021484375 105.758171081543 C 738.8438110351563 107.7105712890625 736.8030395507813 109.6124496459961 734.3554077148438 111.2582778930664 C 732.740966796875 112.3437118530273 732.5733642578125 112.7751998901367 732.55615234375 112.8464050292969 C 732.5880126953125 112.9790344238281 732.8839111328125 113.3257141113281 733.0809326171875 113.5565490722656 C 733.6666259765625 114.2427978515625 734.46875 115.1826477050781 734.7777709960938 116.7172012329102 C 735.2208862304688 118.9179229736328 732.9520263671875 121.2504730224609 727.841552734375 123.8480987548828 C 723.75537109375 125.9251022338867 718.07275390625 128.0401916503906 711.8404541015625 129.8038177490234 C 710.1532592773438 130.2812805175781 708.8610229492188 130.7442169189453 707.999755859375 131.1798248291016 C 707.2726440429688 131.5475769042969 707.0347290039063 131.8036499023438 706.9638671875 131.9017028808594 C 707.0384521484375 132.0145416259766 707.3146362304688 132.3293914794922 708.2784423828125 132.8379669189453 C 709.1814575195313 133.3144989013672 710.35546875 133.7940063476563 711.5984497070313 134.3016510009766 C 712.8390502929688 134.808349609375 714.1219482421875 135.3323211669922 715.24365234375 135.8999481201172 C 716.851318359375 136.7135009765625 717.2418212890625 137.8195037841797 717.2863159179688 138.6040496826172 C 717.3809814453125 140.2730712890625 716.0685424804688 142.1776733398438 713.1560668945313 144.5979309082031 C 710.8969116210938 146.4752960205078 708.0875854492188 148.3231048583984 705.830322265625 149.8078308105469 C 705.52294921875 150.0099792480469 705.2265014648438 150.2049713134766 704.94384765625 150.3919067382813 C 703.92333984375 151.0667724609375 703.3603515625 151.7195434570313 703.3992309570313 152.1828765869141 C 703.4205322265625 152.4368743896484 703.6480102539063 152.9849243164063 704.9324340820313 153.8018035888672 C 705.9762573242188 154.4656677246094 707.3524780273438 155.0751800537109 708.566650390625 155.6129302978516 C 709.0171508789063 155.8124542236328 709.442626953125 156.0009002685547 709.8387451171875 156.1858673095703 C 710.9723510742188 156.7153778076172 711.0514526367188 157.5915985107422 711.0328369140625 157.9437255859375 C 710.9810180664063 158.9250030517578 710.1832275390625 160.4272308349609 704.4259033203125 163.3583221435547 C 700.7139892578125 165.2480926513672 696.6621704101563 166.8598022460938 694.3203125 167.665771484375 C 690.224853515625 169.0752868652344 688.36376953125 170.5611572265625 687.6607055664063 171.2560272216797 C 688.3890991210938 172.5947265625 690.43505859375 175.9096984863281 693.1719970703125 176.6375427246094 C 693.951171875 176.8439636230469 694.7198486328125 177.0058135986328 695.45068359375 177.1513061523438 C 697.8781127929688 176.0081024169922 700.5974731445313 175.4052276611328 703.3383178710938 175.4052276611328 C 706.0877075195313 175.4052276611328 708.826904296875 176.0146179199219 711.2604370117188 177.1676177978516 C 711.6769409179688 177.3536376953125 712.0858154296875 177.4403228759766 712.5463256835938 177.4403228759766 C 713.61279296875 177.4403228759766 714.9051513671875 176.9560546875 716.4830322265625 176.3232727050781 C 717.90478515625 175.7516784667969 719.5162353515625 175.1038208007813 721.2684936523438 175.1038208007813 C 721.8956298828125 175.1038208007813 722.508056640625 175.1895751953125 723.0886840820313 175.3587036132813 C 725.8011474609375 176.1487731933594 726.3015747070313 178.2384796142578 726.4344482421875 179.9691772460938 C 726.5916748046875 181.9761505126953 727.3023681640625 183.2386932373047 728.6729736328125 183.9435424804688 C 729.8106079101563 184.5318756103516 731.6074829101563 184.8178558349609 734.166259765625 184.8178558349609 M 734.166259765625 185.8178558349609 C 731.9256591796875 185.8178558349609 729.7236328125 185.6126708984375 728.213623046875 184.8318023681641 C 726.530029296875 183.9660034179688 725.621826171875 182.3997955322266 725.4375 180.0473022460938 C 725.3165893554688 178.4723052978516 724.9108276367188 176.9309997558594 722.8090209960938 176.3188018798828 C 722.2908935546875 176.1678771972656 721.7767333984375 176.1038208007813 721.2684936523438 176.1038208007813 C 719.7152099609375 176.1038208007813 718.2198486328125 176.7027893066406 716.8560791015625 177.2510986328125 C 715.1101684570313 177.9512634277344 713.7702026367188 178.4403381347656 712.5463256835938 178.4403381347656 C 711.9622192382813 178.4403381347656 711.404541015625 178.3289184570313 710.8419189453125 178.0758972167969 C 708.4937744140625 176.9615020751953 705.9154052734375 176.4052276611328 703.3383178710938 176.4052276611328 C 700.6663818359375 176.4052276611328 697.9957885742188 177.0032196044922 695.5845947265625 178.1970977783203 C 694.7838134765625 178.039794921875 693.8516235351563 177.8520965576172 692.9158935546875 177.6042022705078 C 688.9754028320313 176.5563049316406 686.4633178710938 171.1130981445313 686.4633178710938 171.1130981445313 C 686.4633178710938 171.1130981445313 687.9008178710938 168.8175964355469 693.994873046875 166.7201995849609 C 700.0889892578125 164.6228942871094 713.005615234375 158.7689056396484 709.41552734375 157.0919036865234 C 705.8248901367188 155.4149932861328 699.0125732421875 153.1154022216797 704.3922119140625 149.5578002929688 C 709.7717895507813 146.0000915527344 720.1654052734375 139.5113983154297 714.7921142578125 136.7922058105469 C 709.4188232421875 134.0731048583984 699.736083984375 132.1898956298828 711.5681762695313 128.8415985107422 C 723.4000854492188 125.4934005737305 734.5137939453125 120.472297668457 733.7974243164063 116.9145965576172 C 733.0809936523438 113.3568954467773 729.131591796875 113.5654983520508 733.7974243164063 110.4283981323242 C 738.4631958007813 107.2910995483398 741.6870727539063 103.1052017211914 741.3289794921875 99.75699615478516 C 740.970703125 96.40869903564453 737.7432250976563 94.94529724121094 743.119873046875 94.52559661865234 C 743.7053833007813 94.47989654541016 744.4517211914063 94.46152496337891 745.3182373046875 94.46152496337891 C 748.8942260742188 94.46152496337891 754.505126953125 94.77489471435547 759.1890869140625 94.77487945556641 C 763.7941284179688 94.77486419677734 767.5040283203125 94.47196960449219 767.5040283203125 93.27069854736328 C 767.5040283203125 90.55159759521484 766.7813110351563 89.50370025634766 771.0861206054688 89.29419708251953 C 775.39111328125 89.08489990234375 777.5401000976563 87.2041015625 777.5401000976563 84.90139770507813 C 777.5401000976563 82.59849548339844 779.69140625 77.58219909667969 785.4290771484375 76.53189849853516 C 791.1668701171875 75.48169708251953 796.9038696289063 71.92469787597656 801.9241943359375 71.71769714355469 C 806.2335815429688 71.53890228271484 804.4096069335938 71.5374755859375 806.1355590820313 71.23987579345703 C 814.6764526367188 74.13557434082031 823.9035034179688 77.431396484375 826.7227783203125 79.70680236816406 C 828.6168823242188 81.24019622802734 832.2753295898438 82.048095703125 837.2901000976563 82.048095703125 L 837.8275756835938 82.048095703125 C 845.44873046875 81.96549987792969 855.7081909179688 80.04070281982422 858.8289794921875 77.30780029296875 C 860.8917236328125 75.50160217285156 863.2305908203125 73.44999694824219 866.2808837890625 73.13559722900391 C 866.51611328125 73.12310791015625 866.7508544921875 73.11690521240234 866.985595703125 73.11690521240234 C 868.9816284179688 73.11690521240234 870.9500732421875 73.56661224365234 872.7072143554688 74.42900085449219 C 875.0435180664063 75.45899963378906 877.4534301757813 76.34809875488281 879.9219970703125 77.09040069580078 C 879.6478881835938 79.19460296630859 878.3660888671875 81.08789825439453 876.4097290039063 82.27759552001953 C 875.4271850585938 82.86489868164063 874.5748901367188 83.42739868164063 873.8054809570313 83.92970275878906 C 872.9995727539063 84.45919799804688 871.10791015625 85.69729614257813 870.5706176757813 85.73020172119141 C 870.4085083007813 85.69750213623047 870.2528076171875 85.64350128173828 870.1085205078125 85.5697021484375 C 868.9179077148438 85.03612518310547 867.6124267578125 84.76326751708984 866.2971801757813 84.76326751708984 C 865.7094116210938 84.76326751708984 865.1195678710938 84.81779479980469 864.5374755859375 84.92790222167969 C 862.5390014648438 85.29769897460938 860.8618774414063 86.50810241699219 860.0338134765625 88.17900085449219 C 859.9083251953125 88.45179748535156 856.8355102539063 94.84420013427734 849.82421875 94.84420013427734 C 849.6029052734375 94.83992004394531 849.3873291015625 94.83784484863281 849.1760864257813 94.83784484863281 C 843.5203857421875 94.83784484863281 841.4320678710938 96.33386993408203 840.6397705078125 97.25129699707031 C 839.363525390625 98.72920227050781 839.8829956054688 100.6652984619141 841.9605712890625 102.1792984008789 C 844.5614013671875 103.9364013671875 847.4375 105.339599609375 850.4959716796875 106.3435974121094 C 846.3452758789063 109.5289001464844 840.5556030273438 114.3768997192383 840.5556030273438 116.6491012573242 C 840.5623168945313 117.1923980712891 840.6220703125 117.7342987060547 840.734619140625 118.268196105957 C 838.9258422851563 117.8778381347656 835.9490356445313 117.4539337158203 833.2401123046875 117.4539337158203 C 831.0323486328125 117.4539337158203 829.0023803710938 117.7355880737305 827.9284057617188 118.546501159668 C 827.4144287109375 118.9439010620117 826.413818359375 120.0140991210938 828.279296875 121.5113983154297 C 829.4788818359375 122.3786010742188 830.8255004882813 123.0684967041016 832.2681884765625 123.5550003051758 C 832.594970703125 123.6818008422852 833.0435791015625 123.8526000976563 833.3302001953125 123.9850006103516 C 832.9754028320313 124.2866973876953 832.5848999023438 124.5530014038086 832.1660766601563 124.779296875 L 830.568115234375 125.7005004882813 C 824.7872924804688 129.0068969726563 816.0556030273438 134.0041046142578 818.078125 138.2565002441406 C 819.788330078125 141.8439025878906 820.051025390625 142.3992004394531 816.3908081054688 147.0592041015625 C 812.7036743164063 151.7523040771484 809.6500244140625 153.6690979003906 805.8493041992188 153.6690979003906 C 800.4384765625 153.6690979003906 796.8895263671875 153.9891967773438 796.8895263671875 158.2610015869141 C 796.8895263671875 159.2839965820313 796.0557250976563 160.3816986083984 795.2030029296875 161.4430999755859 C 792.4912719726563 161.7415008544922 789.8087768554688 162.2241973876953 787.1790771484375 162.8872985839844 C 785.0211181640625 163.4850921630859 783.0203247070313 164.4674987792969 781.2969970703125 165.7758941650391 C 779.7122192382813 167.0191955566406 777.8204956054688 167.9076995849609 775.7777099609375 168.3681945800781 C 772.2725830078125 169.1096038818359 771.1549072265625 169.8791046142578 771.1737060546875 171.5312042236328 C 771.1799926757813 172.1295928955078 771.185302734375 172.8768005371094 769.3663940429688 174.4075012207031 C 764.9863891601563 178.1007995605469 742.6282958984375 185.4826049804688 736.5 185.7586059570313 C 735.7357177734375 185.7928466796875 734.9488525390625 185.8178558349609 734.166259765625 185.8178558349609 Z" stroke="none" fill="#30abec"/>
    </g>
    <g id="kaizhou-2" data-name="kaizhou" transform="translate(-619 -20)">
      <text id="kaizhouqu" transform="translate(757.579 137.746)" fill="#fff" font-size="10" font-family="MicrosoftYaHei, Microsoft YaHei"><tspan x="0" y="0">开州区</tspan></text>
    </g>
    <g transform="matrix(1, 0, 0, 1, 38.96, 41.44)" filter="url(#减去_3)">
      <path id="减去_3-2" data-name="减去 3" d="M141.446,63.313c-.242,0-1.952-1.922-3.976-4.817,2.179-1.487,4.547-2.84,6.635-4.035l1.6-.922a6.743,6.743,0,0,0,1.164-.794c-.259-.12-.651-.271-.965-.393l-.1-.037a14.953,14.953,0,0,1-3.989-2.044,2.336,2.336,0,0,1-1.083-1.71,1.671,1.671,0,0,1,.732-1.254c.96-.725,2.748-1.093,5.312-1.093a38.99,38.99,0,0,1,7.495.815,8.354,8.354,0,0,1-.179-1.619c0-2.2,5.368-6.792,9.871-10.253-.046.827-.162,14.918.069,15.947-4.535,3.48-9.94,8.092-9.94,10.305a8.334,8.334,0,0,0,.179,1.619,39.005,39.005,0,0,0-7.494-.814c-2.565,0-4.353.368-5.313,1.093A.03.03,0,0,1,141.446,63.313Z" transform="translate(27.5 13.8)" stroke="rgba(0,0,0,0)" stroke-width="1" fill="url(#linear-gradient-2)"/>
    </g>
    <g transform="matrix(1, 0, 0, 1, 38.96, 41.44)" filter="url(#减去_2)">
      <path id="减去_2-2" data-name="减去 2" d="M47.7,130.578a13.26,13.26,0,0,1-5.953-.986c-1.683-.866-2.591-2.431-2.776-4.784-.121-1.575-.524-3.116-2.629-3.729a5.507,5.507,0,0,0-1.54-.215,12.12,12.12,0,0,0-4.412,1.147,12.465,12.465,0,0,1-4.31,1.189,4.069,4.069,0,0,1-1.7-.365,17.678,17.678,0,0,0-15.257.121c-.851-.167-1.757-.351-2.668-.593a9.519,9.519,0,0,1-4.7-3.638A17.742,17.742,0,0,1,0,115.873v-.036c0-1.423,0-13.958.091-15.778.444.888,2.83,5.365,6.362,6.3.94.249,1.87.436,2.668.592a17.678,17.678,0,0,1,15.257-.121,4.072,4.072,0,0,0,1.7.364,12.466,12.466,0,0,0,4.311-1.189,12.145,12.145,0,0,1,4.413-1.147,5.5,5.5,0,0,1,1.54.215c2.1.614,2.507,2.155,2.629,3.729.185,2.354,1.092,3.919,2.776,4.784a13.259,13.259,0,0,0,5.953.986c.687,0,1.429-.019,2.334-.059,6.126-.276,28.486-7.657,32.867-11.351,1.821-1.533,1.814-2.278,1.807-2.876-.019-1.653,1.1-2.422,4.6-3.164a13.95,13.95,0,0,0,5.52-2.592,17.332,17.332,0,0,1,5.882-2.889A59.625,59.625,0,0,1,108.74,90.2c.888-1.107,1.687-2.184,1.687-3.182,0-4.272,3.547-4.592,8.959-4.592,3.8,0,6.853-1.915,10.542-6.61,3.661-4.662,3.4-5.213,1.688-8.8-2.024-4.255,6.71-9.25,12.49-12.556l1.6-.922a6.752,6.752,0,0,0,1.134-.769.112.112,0,0,1,.029,0c0,.012-.006.7-.021,1.746v.012c-.061,4.222-.205,14.106.021,14.211a6.7,6.7,0,0,1-1.164.795l-1.6.922c-5.78,3.3-14.515,8.3-12.49,12.556,1.711,3.59,1.974,4.141-1.687,8.8-3.689,4.7-6.743,6.611-10.542,6.611-5.412,0-8.959.32-8.959,4.592,0,1-.8,2.075-1.687,3.182a59.48,59.48,0,0,0-8.024,1.444,17.315,17.315,0,0,0-5.882,2.889,13.963,13.963,0,0,1-5.52,2.592c-3.5.741-4.622,1.51-4.6,3.164.006.6.014,1.343-1.807,2.875-4.38,3.694-26.741,11.076-32.867,11.352C49.134,130.559,48.392,130.578,47.7,130.578Z" transform="translate(27.5 13.8)" stroke="rgba(0,0,0,0)" stroke-width="1" fill="url(#linear-gradient-3)"/>
    </g>
  </g>
</svg>
