<svg xmlns="http://www.w3.org/2000/svg" xmlns:xlink="http://www.w3.org/1999/xlink" width="327" height="258" viewBox="0 0 327 258">
  <defs>
    <linearGradient id="linear-gradient" x1="0.526" y1="1.283" x2="0.52" y2="0.609" gradientUnits="objectBoundingBox">
      <stop offset="0" stop-color="#191e64"/>
      <stop offset="1" stop-color="#17448b"/>
    </linearGradient>
    <filter id="liangpingqu3" x="38.5" y="95.41" width="249.085" height="116.358" filterUnits="userSpaceOnUse">
      <feOffset dy="8" input="SourceAlpha"/>
      <feGaussianBlur stdDeviation="9" result="blur"/>
      <feFlood flood-opacity="0.161"/>
      <feComposite operator="in" in2="blur"/>
      <feComposite in="SourceGraphic"/>
    </filter>
    <radialGradient id="radial-gradient" cx="0.5" cy="0.5" r="0.5" gradientUnits="objectBoundingBox">
      <stop offset="0" stop-color="#1fb9e6"/>
      <stop offset="1" stop-color="#0669d2"/>
    </radialGradient>
    <clipPath id="clip-liangpingqu">
      <rect width="327" height="258"/>
    </clipPath>
  </defs>
  <g id="liangpingqu" clip-path="url(#clip-liangpingqu)">
    <rect width="327" height="258" fill="rgba(0,0,0,0)"/>
    <g id="liangpingqu-2" data-name="liangpingqu" transform="translate(0.008 12)">
      <g transform="matrix(1, 0, 0, 1, -0.01, -12)" filter="url(#liangpingqu3)">
        <path id="liangpingqu3-2" data-name="liangpingqu3" d="M19.29-608.918h0a2.787,2.787,0,0,0-.571-1.664c-1.94-2.7-7.826-3.282-14.058-3.9H4.655a88.735,88.735,0,0,1-9.473-1.259l-3.559-.784c-5.769-1.279-9.937-2.2-15.649-2.2a81.355,81.355,0,0,0-10.765.828,18.316,18.316,0,0,1-2.383.156c-8.681,0-15.116-6.109-15.821-6.806l-.011-.011-.82-.839v-15.978l.035.013.785.8.011.011c.705.7,7.141,6.806,15.823,6.806a18.309,18.309,0,0,0,2.381-.156,81.321,81.321,0,0,1,10.766-.829c5.712,0,9.879.924,15.646,2.2l3.56.783a88.935,88.935,0,0,0,9.473,1.26c6.235.614,12.123,1.194,14.063,3.9a2.786,2.786,0,0,1,.572,1.666c5.112-1.84,8.536-3.981,10.174-6.366,2.9-4.244,5.062-6.5,8.841-7.042a10.745,10.745,0,0,1,1.508-.106c3.3,0,6.287,1.492,8.684,2.692,1.478.741,2.8,1.537,3.865,2.177l.128.077c.528.316,1.186.709,1.752,1.02a14.708,14.708,0,0,0,1.61-3.289,14.732,14.732,0,0,1,5.058-6.973,17.437,17.437,0,0,1,8.457-3.428,12.693,12.693,0,0,1,2.076-.171,12.279,12.279,0,0,1,7.107,2.233,19.825,19.825,0,0,1,2.569,2.79c2.486,3.079,4.4,5.1,8.167,5.1a13.388,13.388,0,0,0,2.293-.214c4.075-.723,4.428-1.394,4.963-2.409.7-1.324,1.748-3.325,7.846-4.116,5.591-.724,10.713-4.762,12.149-5.982a8.391,8.391,0,0,1-2.238-2.945,7.782,7.782,0,0,1-.244-6.784,10.581,10.581,0,0,1,4.148-4.282,28.977,28.977,0,0,1,7.834-3.167c.887-.235,1.654-.425,2.331-.592l.738-.183.268-.064.047-.011L130-667.1c0,.778.049,15.887.076,15.982l-.815.2-.154.037-.735.183c-.68.168-1.447.358-2.334.593-6.33,1.679-10.473,4.255-11.983,7.45a7.782,7.782,0,0,0,.244,6.784,8.391,8.391,0,0,0,2.238,2.945c-1.438,1.222-6.564,5.259-12.149,5.982-6.1.791-7.15,2.792-7.846,4.116-.535,1.015-.889,1.685-4.963,2.409a13.565,13.565,0,0,1-2.293.214c-3.77,0-5.681-2.018-8.167-5.1a19.831,19.831,0,0,0-2.569-2.79,12.272,12.272,0,0,0-7.105-2.233,12.69,12.69,0,0,0-2.077.171c-6.363.8-11.668,4.887-13.514,10.4a14.7,14.7,0,0,1-1.61,3.289c-.577-.317-1.246-.718-1.784-1.039l-.094-.056c-1.055-.636-2.369-1.427-3.867-2.178-2.4-1.2-5.38-2.692-8.683-2.692a10.73,10.73,0,0,0-1.509.106c-3.778.543-5.942,2.8-8.841,7.042-1.636,2.382-5.059,4.524-10.172,6.365Zm-71.585-33.854h0a45.24,45.24,0,0,1-8.045-5.459,14.088,14.088,0,0,1-2.731-3.176A5.9,5.9,0,0,1-64-654.774c.113-2.061,0-15.66,0-15.8.1,2.5,1.9,5.055,5.527,7.823a73.849,73.849,0,0,0,9.662,5.877c.419.225.819.439,1.2.643q.619.336,1.173.632l.037.02c2.861,1.536,4.436,2.383,4.511,3.372.084,1.111-1.683,2.435-5.2,5.075-1.3.973-2.952,2.357-5.2,4.357Z" transform="translate(130.01 785)" stroke="rgba(0,0,0,0)" stroke-miterlimit="10" stroke-width="1" fill="url(#linear-gradient)"/>
      </g>
      <g id="liangpingqu2" transform="translate(-519.248 -111.741)" opacity="0.67" fill="url(#radial-gradient)">
        <path d="M 668.9607543945313 259.1346130371094 C 668.859619140625 258.68115234375 668.6602783203125 258.2493591308594 668.3699340820313 257.8609008789063 C 666.2944946289063 254.9792175292969 660.2994384765625 254.3882446289063 653.9526977539063 253.7627563476563 L 653.9476928710938 253.7622833251953 L 653.9426879882813 253.7618713378906 C 650.7930297851563 253.5151519775391 647.6259765625 253.0943145751953 644.5297241210938 252.5111389160156 L 640.9779663085938 251.7291564941406 C 635.1787719726563 250.4437255859375 630.98828125 249.5149078369141 625.22216796875 249.5149078369141 C 622.1035766601563 249.5149078369141 618.661865234375 249.7794952392578 614.3907470703125 250.3476257324219 C 613.6278076171875 250.4480438232422 612.8485717773438 250.4990234375 612.0755615234375 250.4990234375 C 612.0753173828125 250.4990234375 612.0751953125 250.4990234375 612.074951171875 250.4990234375 C 610.0843505859375 250.4989471435547 608.0501098632813 250.1635589599609 606.02880859375 249.5021514892578 C 604.3952026367188 248.9675750732422 602.763671875 248.2191772460938 601.1796264648438 247.2777557373047 C 598.5643310546875 245.7234497070313 596.9091186523438 244.1387023925781 596.6038818359375 243.8368072509766 L 596.5979614257813 243.8310089111328 L 596.1433715820313 243.3655853271484 C 598.2627563476563 241.4573364257813 600.614013671875 239.3871154785156 602.4513549804688 238.0122528076172 C 606.2315673828125 235.1768341064453 607.9566040039063 233.8828735351563 607.8521728515625 232.4990997314453 C 607.7568969726563 231.2367248535156 606.193603515625 230.3970794677734 603.0790405273438 228.7243041992188 C 602.6996459960938 228.5205230712891 602.2968139648438 228.30419921875 601.870849609375 228.0732727050781 C 601.4932861328125 227.8685455322266 601.091796875 227.6531829833984 600.6714477539063 227.4276733398438 C 595.2890014648438 224.5404052734375 586.2804565429688 219.7079772949219 585.7710571289063 214.4393005371094 C 585.6793212890625 213.490478515625 585.8715209960938 212.5433807373047 586.3424072265625 211.6242980957031 C 586.864990234375 210.6043090820313 587.745361328125 209.5842590332031 588.958984375 208.5924835205078 C 592.3298950195313 205.8379516601563 594.962158203125 202.9990081787109 597.2846069335938 200.4942779541016 C 599.705322265625 197.8834991455078 601.7958984375 195.6287536621094 604.1724243164063 193.9995727539063 C 606.74462890625 192.2362060546875 609.4053955078125 191.4149017333984 612.5460205078125 191.4149017333984 C 612.712890625 191.4149017333984 612.8836059570313 191.4172821044922 613.053466796875 191.4219207763672 C 613.9269409179688 191.4459533691406 614.7734985351563 191.4576263427734 615.641357421875 191.4576263427734 C 617.5996704101563 191.4575958251953 619.2516479492188 191.3964080810547 620.7091064453125 191.3424072265625 C 621.910400390625 191.2978820800781 622.9478149414063 191.2594451904297 623.9638061523438 191.2594451904297 C 627.261474609375 191.2594451904297 630.16015625 191.6764984130859 635.218017578125 193.8082580566406 C 639.0475463867188 195.4223480224609 641.360107421875 196.2418975830078 643.3723754882813 196.2417449951172 C 645.4395751953125 196.2416076660156 647.0574951171875 195.4182586669922 649.9946899414063 193.9235534667969 C 650.944091796875 193.4403991699219 652.0202026367188 192.8928070068359 653.2958374023438 192.2798004150391 C 656.326171875 190.8236083984375 659.453857421875 188.3905029296875 662.2133178710938 186.2438201904297 C 665.520751953125 183.6708526611328 668.6448364257813 181.2405548095703 670.6336669921875 181.2405548095703 C 671.3258056640625 181.2405548095703 672.3097534179688 181.5017547607422 672.861328125 183.7600555419922 C 675.1024780273438 192.9371948242188 680.1209716796875 197.7879791259766 687.3741455078125 197.7879791259766 C 691.932373046875 197.7879791259766 694.1642456054688 198.2573699951172 696.989990234375 198.8516693115234 C 698.5889282226563 199.1879730224609 700.4012451171875 199.5691223144531 702.8955688476563 199.9053955078125 C 704.4349365234375 200.1128540039063 705.6107788085938 200.3887481689453 706.5556030273438 200.6104278564453 C 707.6103515625 200.8579254150391 708.4434814453125 201.0534210205078 709.2969970703125 201.0533294677734 C 711.1831665039063 201.0531311035156 712.9322509765625 200.1231231689453 716.783203125 197.0728759765625 C 717.8652954101563 196.2169952392578 719.0382080078125 195.2615509033203 720.280029296875 194.25 C 721.3296508789063 193.3949584960938 722.410888671875 192.5142211914063 723.5324096679688 191.6156921386719 C 726.7374267578125 196.8908538818359 737.2962646484375 211.6759338378906 755.7559204101563 213.5987243652344 C 763.0004272460938 214.3527526855469 768.3953247070313 214.5093078613281 772.3345947265625 214.6235961914063 L 772.6480102539063 214.6327209472656 L 772.6586303710938 214.6330261230469 L 772.6692504882813 214.6328735351563 C 772.8305053710938 214.6307067871094 772.99169921875 214.6296234130859 773.1528930664063 214.6296234130859 C 774.8596801757813 214.6296234130859 776.5784912109375 214.7525177001953 778.2655639648438 214.9950103759766 C 778.29345703125 215.0827178955078 778.3294067382813 215.2246398925781 778.3640747070313 215.4452056884766 C 778.4691162109375 216.1586456298828 778.595947265625 216.7386322021484 778.7206420898438 217.255615234375 C 778.6583251953125 217.2705993652344 778.5947265625 217.285888671875 778.5303344726563 217.3013458251953 L 778.2374877929688 217.3717193603516 L 778.2349853515625 217.3723297119141 L 778.2325439453125 217.3729553222656 C 778.010498046875 217.4286804199219 777.7734985351563 217.4872283935547 777.5211181640625 217.5495758056641 C 776.8359985351563 217.7188720703125 776.0594482421875 217.9107208251953 775.1571655273438 218.150146484375 C 768.587890625 219.8932952880859 764.4473266601563 222.4904479980469 762.8504638671875 225.8694763183594 C 761.8212280273438 228.0473480224609 761.9022827148438 230.4715728759766 763.0913696289063 233.0747833251953 C 763.5498657226563 234.0885314941406 764.1982421875 235.0019989013672 765.022216796875 235.7959136962891 C 763.8603515625 236.7433319091797 762.153076171875 237.9854736328125 760.0348510742188 239.0986022949219 C 757.751708984375 240.2983551025391 755.5770874023438 241.0384521484375 753.5713500976563 241.2983703613281 C 747.2152709960938 242.1229248046875 746.0910034179688 244.2619781494141 745.3469848632813 245.6774291992188 C 745.093017578125 246.1587982177734 744.925048828125 246.4772796630859 744.383544921875 246.7908020019531 C 743.7232666015625 247.1731719970703 742.5650024414063 247.5023193359375 740.7384033203125 247.8267211914063 C 739.9354248046875 247.9656829833984 739.2133178710938 248.0334014892578 738.532958984375 248.0334014892578 C 734.9881591796875 248.0334014892578 733.1528930664063 246.0912628173828 730.760009765625 243.1276702880859 C 729.9864501953125 242.1053009033203 729.1018676757813 241.1449890136719 728.1307983398438 240.2733306884766 L 728.1103515625 240.2549743652344 L 728.0880737304688 240.2389831542969 C 725.9945068359375 238.7388305664063 723.3673706054688 237.9126586914063 720.6907348632813 237.9126586914063 C 719.9719848632813 237.9126586914063 719.2489624023438 237.9720153808594 718.54150390625 238.0891265869141 C 711.9935913085938 238.9201354980469 706.531982421875 243.1339263916016 704.6255493164063 248.8264770507813 C 704.297607421875 249.7877349853516 703.8590698242188 250.7213592529297 703.3200073242188 251.6061706542969 C 702.8656005859375 251.3465423583984 702.385498046875 251.0595703125 701.9810180664063 250.8177795410156 L 701.8677368164063 250.7500762939453 C 700.8018188476563 250.1082000732422 699.4734497070313 249.3082580566406 697.96826171875 248.5544281005859 C 695.5241088867188 247.3315582275391 692.4824829101563 245.8097229003906 689.0608520507813 245.8097229003906 C 688.5301513671875 245.8097229003906 687.998779296875 245.8470764160156 687.4814453125 245.9207763671875 C 683.5191040039063 246.4900970458984 681.280517578125 248.8103790283203 678.299072265625 253.1749572753906 C 676.807861328125 255.3455352783203 673.5853271484375 257.4005126953125 668.9607543945313 259.1346130371094 Z" stroke="none"/>
        <path d="M 669.281494140625 258.4771423339844 C 673.5426635742188 256.822021484375 676.5064697265625 254.9011993408203 677.88623046875 252.8929443359375 C 680.8820190429688 248.5072631835938 683.2870483398438 246.0183410644531 687.4109497070313 245.4257965087891 C 687.9515991210938 245.3487854003906 688.5066528320313 245.3097381591797 689.060791015625 245.3097381591797 C 692.6005249023438 245.3097381591797 695.7007446289063 246.86083984375 698.1921997070313 248.1073760986328 C 699.714599609375 248.8698425292969 701.0523071289063 249.6753997802734 702.1241455078125 250.3208465576172 L 702.2384643554688 250.3891906738281 C 702.5145874023438 250.5542297363281 702.826171875 250.740478515625 703.1399536132813 250.9241943359375 C 703.54833984375 250.1976623535156 703.8877563476563 249.4403839111328 704.1528930664063 248.6632843017578 C 706.1202392578125 242.7949371337891 711.7380981445313 238.4521179199219 718.46923828125 237.5942840576172 C 719.2005615234375 237.4737701416016 719.9478759765625 237.4126281738281 720.6907348632813 237.4126281738281 C 723.470947265625 237.4126281738281 726.2014770507813 238.2720336914063 728.3792724609375 239.83251953125 L 728.4239501953125 239.8645324707031 L 728.46484375 239.9012298583984 C 729.4577026367188 240.7925262451172 730.3624877929688 241.7744598388672 731.154296875 242.8200988769531 C 733.5228881835938 245.7531585693359 735.20458984375 247.5334014892578 738.532958984375 247.5334014892578 C 739.1844482421875 247.5334014892578 739.8786010742188 247.4680480957031 740.6509399414063 247.3344268798828 C 742.3941040039063 247.0248413085938 743.5330810546875 246.7055053710938 744.1329956054688 246.3581390380859 C 744.5499267578125 246.1166839599609 744.6611938476563 245.9057159423828 744.9044189453125 245.4447937011719 C 745.6483154296875 244.0293884277344 746.8934936523438 241.6605072021484 753.5070190429688 240.8025207519531 C 755.4537963867188 240.5502319335938 757.5718383789063 239.8280487060547 759.8021850585938 238.656005859375 C 761.3245849609375 237.8559875488281 762.8819580078125 236.8431549072266 764.2777709960938 235.7503356933594 C 763.5946044921875 235.01123046875 763.04443359375 234.1843566894531 762.6365966796875 233.2825317382813 C 761.3834228515625 230.5390777587891 761.3033447265625 227.9730987548828 762.3984375 225.6558227539063 C 764.0611572265625 222.1374206542969 768.3106689453125 219.4495544433594 775.0289306640625 217.6669006347656 C 775.9359741210938 217.4262084960938 776.715087890625 217.2336883544922 777.4025268554688 217.0638427734375 C 777.6537475585938 217.0017700195313 777.8897705078125 216.9434509277344 778.11083984375 216.8879699707031 L 778.1157836914063 216.8867340087891 L 778.1207275390625 216.8855590820313 L 778.12158203125 216.8853454589844 C 778.0325317382813 216.4822692871094 777.9457397460938 216.03564453125 777.8695068359375 215.5188446044922 C 777.8652954101563 215.4920806884766 777.861083984375 215.4668579101563 777.85693359375 215.4430999755859 C 776.302001953125 215.2350006103516 774.7222900390625 215.129638671875 773.1526489257813 215.129638671875 C 772.99365234375 215.129638671875 772.8349609375 215.1307067871094 772.6759033203125 215.1328430175781 L 772.6546630859375 215.1331024169922 L 772.6334228515625 215.1325073242188 L 772.3203125 215.1233978271484 C 768.3731689453125 215.0088653564453 762.9673461914063 214.8520050048828 755.7041015625 214.0960540771484 C 737.55859375 212.2059478759766 726.9674072265625 198.0585479736328 723.4039306640625 192.3600158691406 C 722.440673828125 193.1348114013672 721.506591796875 193.8957366943359 720.5961303710938 194.6373443603516 C 719.352783203125 195.6501617431641 718.1784057617188 196.6068420410156 717.0936279296875 197.4648132324219 C 713.13818359375 200.5978393554688 711.3165283203125 201.5531005859375 709.2970581054688 201.5533142089844 C 708.3856201171875 201.5534210205078 707.527587890625 201.3521118164063 706.4412231445313 201.0972137451172 C 705.4583129882813 200.8665466308594 704.3441772460938 200.6051635742188 702.8287353515625 200.4008941650391 C 700.3162841796875 200.0621795654297 698.4944458007813 199.6790313720703 696.8870849609375 199.3409729003906 C 694.08984375 198.7526550292969 691.8804321289063 198.2879791259766 687.3741455078125 198.2879791259766 C 679.9713745117188 198.2879791259766 674.644775390625 193.170654296875 672.3756103515625 183.8786773681641 C 671.8533935546875 181.7405548095703 670.9986572265625 181.7405548095703 670.6336669921875 181.7405548095703 C 669.855712890625 181.7405548095703 668.76416015625 182.1941070556641 667.2967529296875 183.1271362304688 C 665.8584594726563 184.0416564941406 664.2369995117188 185.3030242919922 662.5203247070313 186.6384735107422 C 659.7410888671875 188.8005218505859 656.5910034179688 191.2510833740234 653.5123901367188 192.7304534912109 C 652.2418823242188 193.3409729003906 651.16845703125 193.8872375488281 650.2213745117188 194.3691864013672 C 647.314208984375 195.8486022949219 645.5594482421875 196.7415771484375 643.3723754882813 196.7417297363281 C 641.274658203125 196.7419281005859 638.9151000976563 195.9091644287109 635.0238647460938 194.2689971923828 C 630.0438842773438 192.1700744628906 627.197509765625 191.7594451904297 623.9638671875 191.7594451904297 C 622.9570922851563 191.7594451904297 621.923828125 191.7977294921875 620.7274780273438 191.8420562744141 C 619.2656860351563 191.8962097167969 617.6088256835938 191.9576110839844 615.641357421875 191.9576263427734 C 614.7684936523438 191.9576263427734 613.91748046875 191.9458923339844 613.0397338867188 191.9217681884766 C 612.8742065429688 191.9172058105469 612.7081298828125 191.9149017333984 612.5460205078125 191.9149017333984 C 609.5111083984375 191.9149017333984 606.940185546875 192.7083740234375 604.455078125 194.4119720458984 C 602.1246337890625 196.0096130371094 600.0515747070313 198.2454223632813 597.6512451171875 200.8342437744141 C 595.3178100585938 203.3508758544922 592.6730346679688 206.2032623291016 589.275390625 208.9796600341797 C 587.0740356445313 210.7785491943359 586.090576171875 212.5486907958984 586.2687377929688 214.3911895751953 C 586.47314453125 216.5052947998047 588.2496948242188 218.8378753662109 591.5490112304688 221.3241271972656 C 594.508544921875 223.5543365478516 598.0567016601563 225.4576873779297 600.90771484375 226.9870452880859 C 601.3287963867188 227.2129516601563 601.73095703125 227.4286804199219 602.109130859375 227.6337432861328 C 602.5345458984375 227.8643188476563 602.936767578125 228.0803680419922 603.3156127929688 228.2838439941406 C 606.5908813476563 230.0429229736328 608.23486328125 230.9258728027344 608.3507690429688 232.4614715576172 C 608.475830078125 234.1184539794922 606.6820678710938 235.4639282226563 602.7509155273438 238.4125823974609 C 601.039306640625 239.6933746337891 598.8712158203125 241.5887298583984 596.8651733398438 243.3890228271484 L 596.9507446289063 243.4766235351563 C 596.9522094726563 243.4780731201172 596.9537963867188 243.4796142578125 596.9554443359375 243.4812316894531 C 597.2532348632813 243.7758483886719 598.868896484375 245.3226776123047 601.4341430664063 246.8473968505859 C 602.98681640625 247.770263671875 604.5847778320313 248.5034942626953 606.1836547851563 249.0267333984375 C 608.1549072265625 249.6718444824219 610.1370239257813 249.9989471435547 612.0755615234375 249.9989929199219 C 612.826904296875 249.9989929199219 613.5841064453125 249.9494781494141 614.3248291015625 249.8519744873047 C 618.618408203125 249.2808685302734 622.0811157226563 249.014892578125 625.2221069335938 249.014892578125 C 631.04296875 249.014892578125 635.2559204101563 249.9487152099609 641.08544921875 251.2408447265625 L 644.6295166015625 252.0211029052734 C 647.7058715820313 252.6002960205078 650.8521728515625 253.0182495117188 653.9817504882813 253.263427734375 L 653.9917602539063 253.2642059326172 L 654.001708984375 253.2651824951172 C 657.1958618164063 253.5799713134766 660.212890625 253.8773193359375 662.7667846679688 254.4505004882813 C 665.8271484375 255.1373748779297 667.7362060546875 256.1273498535156 668.7735595703125 257.5657958984375 C 668.9862060546875 257.85107421875 669.15625 258.1570739746094 669.281494140625 258.4771423339844 M 668.5377807617188 259.8226623535156 C 668.53515625 259.22900390625 668.3360595703125 258.6493225097656 667.966796875 258.1566772460938 C 666.0264892578125 255.4555511474609 660.1441650390625 254.8753967285156 653.9036254882813 254.2603759765625 C 650.7203369140625 254.0109710693359 647.556640625 253.5903167724609 644.429931640625 253.0010986328125 L 640.8704833984375 252.2174530029297 C 635.042236328125 250.9255981445313 630.927001953125 250.0149078369141 625.2221069335938 250.0149078369141 C 622.2297973632813 250.0149078369141 618.7996826171875 250.2655639648438 614.4566650390625 250.8432312011719 C 613.6464233398438 250.9498901367188 612.85205078125 250.9990386962891 612.074951171875 250.9990081787109 C 602.9744262695313 250.9987335205078 596.3196411132813 244.2561340332031 596.2421264648438 244.1822967529297 L 595.4220581054688 243.3427124023438 C 597.9990844726563 241.0161895751953 600.3090209960938 238.9908752441406 602.1517944335938 237.6119232177734 C 609.4292602539063 232.1532440185547 608.9078979492188 232.4566802978516 601.632568359375 228.5128631591797 C 594.3655395507813 224.5724945068359 578.2505493164063 216.6976776123047 588.642578125 208.205322265625 C 598.8681640625 199.8495788574219 602.05322265625 190.9149017333984 612.5460205078125 190.9149017333984 C 612.7172241210938 190.9149017333984 612.89208984375 190.9173126220703 613.0671997070313 190.9221343994141 C 613.9848022460938 190.9473571777344 614.8390502929688 190.9576263427734 615.641357421875 190.9576263427734 C 619.163818359375 190.9575958251953 621.6686401367188 190.7594451904297 623.9638671875 190.7594451904297 C 627.361572265625 190.7594451904297 630.3019409179688 191.1936645507813 635.4122314453125 193.3475036621094 C 639.3226318359375 194.9956970214844 641.5071411132813 195.7418823242188 643.372314453125 195.7417449951172 C 645.9663696289063 195.7415466308594 647.942138671875 194.2977294921875 653.0792846679688 191.8291015625 C 659.7517700195313 188.6227569580078 666.7274169921875 180.7405548095703 670.6336669921875 180.7405548095703 C 671.8974609375 180.7405548095703 672.840087890625 181.5658264160156 673.3470458984375 183.6414184570313 C 675.4207153320313 192.1327362060547 680.100341796875 197.2879791259766 687.3741455078125 197.2879791259766 C 694.6478271484375 197.2879791259766 696.2000732421875 198.4982147216797 702.9623413085938 199.4098663330078 C 706.1851806640625 199.8442230224609 707.7518920898438 200.5534973144531 709.2969360351563 200.5533294677734 C 710.9939575195313 200.5531463623047 712.664794921875 199.6971130371094 716.4727172851563 196.6809234619141 C 718.5777587890625 195.0159759521484 721.03173828125 192.9697113037109 723.6675415039063 190.8675231933594 C 726.4874267578125 195.6613464355469 736.9677124023438 211.1390075683594 755.8077392578125 213.1014251708984 C 763.2257080078125 213.8735046386719 768.6656494140625 214.0165557861328 772.6625366210938 214.1329193115234 C 772.8260498046875 214.1307220458984 772.9891967773438 214.1296234130859 773.1526489257813 214.1296234130859 C 774.971435546875 214.1296234130859 776.7874755859375 214.265625 778.5816040039063 214.5361785888672 C 778.62158203125 214.5641632080078 778.755615234375 214.7164459228516 778.8580322265625 215.3675231933594 C 778.974609375 216.1593170166016 779.11767578125 216.7779235839844 779.2474975585938 217.3058471679688 C 779.273193359375 217.4254760742188 779.2953491210938 217.5289764404297 779.3223876953125 217.6254425048828 C 779.050048828125 217.6905822753906 778.7022705078125 217.7743225097656 778.354248046875 217.8578948974609 C 777.538330078125 218.0626525878906 776.5205078125 218.3057098388672 775.285400390625 218.6334533691406 C 764.7907104492188 221.4181518554688 760.625244140625 226.4723968505859 763.5462036132813 232.8670196533203 C 764.0496826171875 233.9803619384766 764.81298828125 234.9847412109375 765.7844848632813 235.8119964599609 C 762.783447265625 238.3617706298828 758.1229248046875 241.2127075195313 753.6355590820313 241.7942352294922 C 747.54248046875 242.5846862792969 746.4850463867188 244.5868682861328 745.78955078125 245.9100494384766 C 745.2547607421875 246.9237823486328 744.897705078125 247.5958709716797 740.8258056640625 248.3190307617188 C 739.98828125 248.4639434814453 739.2294921875 248.5334014892578 738.532958984375 248.5334014892578 C 734.79248046875 248.5334014892578 732.8626708984375 246.5282135009766 730.3660888671875 243.4357299804688 C 729.6095581054688 242.4350280761719 728.749755859375 241.5008087158203 727.7968139648438 240.6454010009766 C 725.7637939453125 239.1886291503906 723.25341796875 238.4126434326172 720.6907348632813 238.4126434326172 C 719.9995727539063 238.4126434326172 719.30419921875 238.4691467285156 718.6138916015625 238.5839538574219 C 712.2293090820313 239.3908996582031 706.9526977539063 243.4521026611328 705.0996704101563 248.9852294921875 C 704.707763671875 250.1340789794922 704.167236328125 251.2381591796875 703.4891967773438 252.2745513916016 C 702.8779907226563 251.9385070800781 702.1463623046875 251.4989929199219 701.6112670898438 251.1793212890625 C 700.483642578125 250.5002593994141 699.19775390625 249.7294006347656 697.744384765625 249.0014953613281 C 695.314208984375 247.7856292724609 692.3561401367188 246.3097381591797 689.0608520507813 246.3097381591797 C 688.5654907226563 246.3097381591797 688.0618896484375 246.3431549072266 687.552001953125 246.4157867431641 C 683.7730712890625 246.9587707519531 681.61083984375 249.2132110595703 678.7119750976563 253.4570007324219 C 676.7405395507813 256.3264465332031 672.414306640625 258.4275207519531 668.5377807617188 259.8226623535156 Z" stroke="none" fill="#30abec"/>
      </g>
      <text id="liangpingqu1" transform="translate(149 112)" fill="#fff" font-size="10" font-family="MicrosoftYaHei, Microsoft YaHei"><tspan x="0" y="0">梁平区</tspan></text>
    </g>
  </g>
</svg>
