<svg xmlns="http://www.w3.org/2000/svg" xmlns:xlink="http://www.w3.org/1999/xlink" width="328.751" height="162.699" viewBox="0 0 328.751 162.699">
  <defs>
    <linearGradient id="linear-gradient" x1="0.651" y1="0.858" x2="0.634" y2="0.378" gradientUnits="objectBoundingBox">
      <stop offset="0" stop-color="#191e64"/>
      <stop offset="1" stop-color="#17448b"/>
    </linearGradient>
    <filter id="nanan3" x="0" y="0" width="328.751" height="162.699" filterUnits="userSpaceOnUse">
      <feOffset dy="8" input="SourceAlpha"/>
      <feGaussianBlur stdDeviation="9" result="blur"/>
      <feFlood flood-color="#0f093c" flood-opacity="0.161"/>
      <feComposite operator="in" in2="blur"/>
      <feComposite in="SourceGraphic"/>
    </filter>
    <radialGradient id="radial-gradient" cx="0.5" cy="0.5" r="0.5" gradientUnits="objectBoundingBox">
      <stop offset="0" stop-color="#1fb9e6"/>
      <stop offset="1" stop-color="#0669d2"/>
    </radialGradient>
  </defs>
  <g id="nanan" transform="translate(-3090.481 -1884.307)">
    <g transform="matrix(1, 0, 0, 1, 3090.48, 1884.31)" filter="url(#nanan3)">
      <path id="nanan3-2" data-name="nanan3" d="M123.579,124.006a289.666,289.666,0,0,1-39.332-3.267c-17.191-2.425-31.6-5.363-40.667-7.4-11.544-2.6-18.8-4.712-20.877-5.659a9.753,9.753,0,0,0-6.784-2.29,28.751,28.751,0,0,0-6.882,1.018A49.758,49.758,0,0,0,.028,91.335c.267-.067.136-6.588.04-11.349C.016,77.405-.025,75.371.02,75.36h.03A49.761,49.761,0,0,1,9.036,90.407a28.753,28.753,0,0,1,6.882-1.018,9.753,9.753,0,0,1,6.784,2.29c2.073.947,9.333,3.064,20.877,5.659,9.063,2.038,23.476,4.976,40.667,7.4a289.652,289.652,0,0,0,39.333,3.267,87.463,87.463,0,0,0,16.409-1.261c3.7-.735,6.283-1.781,7.459-3.026,6.083-6.547,10.926-10.516,15.7-12.869A27.7,27.7,0,0,1,170.3,88.46a41.055,41.055,0,0,1,7.785-.639c2.712,0,5.6.157,9.381.411l.979.065c2.161.144,4.61.307,7.26.423.1,0,.193.007.292.007,4.3,0,11.143-4.52,20.936-13.818,8.421-8,17.456-18.015,25.428-26.856l.674-.747.674-.749c11.913-13.238,22.2-24.671,31.006-31.249h.032c0,.158-.208,15.813,0,15.977C265.943,37.857,255.645,49.3,243.72,62.55l-.681.756-.666.738c-7.973,8.842-17.009,18.863-25.431,26.86-9.795,9.3-16.645,13.822-20.941,13.823-.1,0-.2,0-.292-.007-2.6-.114-5.012-.274-7.138-.415l-.125-.008-.976-.064c-3.782-.254-6.671-.412-9.383-.412-10.755,0-18.083,2.379-30.641,15.9-1.175,1.245-3.755,2.292-7.459,3.026A87.462,87.462,0,0,1,123.579,124.006Z" transform="translate(27 3.69)" fill="url(#linear-gradient)"/>
    </g>
    <g id="nanan2" transform="translate(2881.009 1634.164)" opacity="0.67" fill="url(#radial-gradient)">
      <path d="M 360.0505981445313 361.3419494628906 C 349.3228759765625 361.3419494628906 336.1131286621094 360.2444152832031 320.7882690429688 358.0798645019531 C 303.6132202148438 355.6569213867188 289.2151184082031 352.7218017578125 280.1609497070313 350.6862182617188 C 268.7723999023438 348.1257934570313 261.5836791992188 346.0401611328125 259.4481201171875 345.08984375 C 257.6257934570313 343.498291015625 255.3160400390625 342.7245178222656 252.3898010253906 342.7245178222656 C 250.5450744628906 342.7245178222656 248.4473876953125 343.02001953125 245.816650390625 343.6524047851563 C 243.8055572509766 338.4754028320313 240.9790191650391 333.7064514160156 237.4051513671875 329.4599609375 C 257.7774963378906 324.3880615234375 278.7173461914063 321.1004638671875 299.6605224609375 319.6861267089844 C 312.2965393066406 318.8849792480469 321.0322265625 313.8379516601563 325.6228942871094 304.6853637695313 C 329.5090637207031 296.9374694824219 329.8206481933594 287.6487731933594 330.0481872558594 280.8663940429688 C 330.2425231933594 275.0734558105469 330.5449523925781 271.8264465332031 331.0593872070313 270.00927734375 C 331.2926635742188 269.1851806640625 331.57666015625 268.6310424804688 331.9275512695313 268.3152160644531 C 332.2175598144531 268.0542297363281 332.5707702636719 267.9313354492188 333.1085815429688 267.9042663574219 C 334.0321350097656 267.8572998046875 334.9783325195313 267.8334655761719 335.9212341308594 267.8334655761719 C 345.8661804199219 267.8334655761719 355.3162231445313 270.4322204589844 364.4551086425781 272.9454345703125 C 371.7661743164063 274.9535522460938 379.3259582519531 277.0299682617188 386.8965759277344 277.6355895996094 C 387.4801635742188 277.6825256347656 388.09033203125 277.706298828125 388.7099914550781 277.706298828125 C 397.38671875 277.7060241699219 408.4354553222656 273.1593017578125 421.2287902832031 267.8946838378906 L 421.3672790527344 267.8377380371094 C 428.8121643066406 264.7742004394531 437.2503967285156 261.3019409179688 445.5149841308594 258.6971130371094 C 454.8254089355469 255.7626495361328 462.6383056640625 254.3361968994141 469.4000854492188 254.3361968994141 C 469.6424560546875 254.3361968994141 469.8868713378906 254.3380432128906 470.1265869140625 254.3417205810547 C 478.6012573242188 254.4896240234375 487.0491027832031 256.4090881347656 495.2344055175781 260.0467529296875 C 501.8888854980469 263.0041198730469 507.082763671875 266.5381164550781 510.4026184082031 269.1131896972656 C 501.6671447753906 275.7759399414063 491.5162048339844 287.0554809570313 479.7995300292969 300.0751342773438 L 479.1399536132813 300.8080139160156 L 478.4706115722656 301.5502624511719 C 470.5042724609375 310.3847961425781 461.4750061035156 320.3980712890625 453.0674133300781 328.3812561035156 C 448.481201171875 332.7359924316406 444.6378479003906 335.9609069824219 441.3176879882813 338.2403259277344 C 437.622314453125 340.7774353027344 434.6465454101563 342.0638427734375 432.4730529785156 342.0638427734375 C 432.3832397460938 342.0638427734375 432.2935180664063 342.0616149902344 432.2064208984375 342.0572204589844 C 429.5792541503906 341.9424438476563 427.1493530273438 341.7806701660156 425.0054321289063 341.6378784179688 C 424.6573486328125 341.6146850585938 424.3141174316406 341.5918579101563 423.9756164550781 341.5695495605469 C 420.1847534179688 341.3148803710938 417.2872924804688 341.1570129394531 414.5614929199219 341.1570129394531 C 403.6582336425781 341.1570129394531 396.2370910644531 343.5597229003906 383.5527954101563 357.2140502929688 C 382.785888671875 358.0261840820313 380.9132690429688 359.1874084472656 376.3629760742188 360.0902404785156 C 372.1767883300781 360.9208068847656 366.6885375976563 361.3419494628906 360.0505981445313 361.3419494628906 Z" stroke="none"/>
      <path d="M 360.0505981445313 360.8419494628906 C 366.6559448242188 360.8419494628906 372.1114807128906 360.4240112304688 376.2656555175781 359.5997924804688 C 380.9104614257813 358.67822265625 382.5962524414063 357.4964294433594 383.1885375976563 356.8715209960938 C 395.99755859375 343.0836181640625 403.51123046875 340.6570129394531 414.5614929199219 340.6570129394531 C 417.3014831542969 340.6570129394531 420.2081298828125 340.8153076171875 424.0084838867188 341.0706481933594 C 424.3470764160156 341.0929565429688 424.6903991699219 341.1158142089844 425.0386657714844 341.1389770507813 C 427.1798706054688 341.2815551757813 429.6068115234375 341.4431457519531 432.2249145507813 341.5575561523438 L 432.2282409667969 341.5576782226563 L 432.2315673828125 341.5578308105469 C 432.3104553222656 341.5618286132813 432.3916931152344 341.5638427734375 432.4730529785156 341.5638427734375 C 436.4443054199219 341.5638427734375 443.2574157714844 337.006591796875 452.72314453125 328.0186462402344 C 461.1167297363281 320.0487976074219 470.1390991210938 310.0431518554688 478.0993347167969 301.2153625488281 L 478.768310546875 300.4735412597656 L 479.4278869628906 299.7406616210938 C 490.9317626953125 286.9573974609375 500.927734375 275.8497924804688 509.5826110839844 269.1138305664063 C 506.2745361328125 266.5979309082031 501.3067626953125 263.2925415039063 495.0313415527344 260.503662109375 C 486.9076232910156 256.8933715820313 478.525146484375 254.9883728027344 470.1188659667969 254.8416900634766 C 469.8820495605469 254.8380432128906 469.6401977539063 254.8361968994141 469.4000854492188 254.8361968994141 C 462.6900634765625 254.8361968994141 454.9263305664063 256.2550964355469 445.6652526855469 259.1739807128906 C 437.4209899902344 261.7723999023438 428.9931945800781 265.2403564453125 421.5575256347656 268.3000793457031 L 421.4190063476563 268.3570861816406 C 408.5766296386719 273.6419067382813 397.485595703125 278.2060241699219 388.7099304199219 278.206298828125 C 388.0768737792969 278.206298828125 387.4532165527344 278.1819763183594 386.856689453125 278.1340026855469 C 379.2390441894531 277.5246276855469 371.6560974121094 275.4418334960938 364.3225402832031 273.4275512695313 C 355.215576171875 270.9231567382813 345.7986145019531 268.3334655761719 335.9212341308594 268.3334655761719 C 334.987060546875 268.3334655761719 334.0494079589844 268.3570861816406 333.1337280273438 268.4036560058594 C 332.615234375 268.4297180175781 332.4083862304688 268.5552062988281 332.2620544433594 268.6868591308594 C 331.9871826171875 268.9342346191406 331.7444458007813 269.4249877929688 331.5404357910156 270.1454772949219 C 331.0376586914063 271.9215698242188 330.7408447265625 275.1328735351563 330.5479125976563 280.8831787109375 C 330.31884765625 287.7117309570313 330.0050964355469 297.063720703125 326.06982421875 304.9095458984375 C 321.3937683105469 314.2323913574219 312.5183410644531 319.3719177246094 299.6942443847656 320.1849670410156 C 279.0453796386719 321.5794372558594 258.3980407714844 324.7978515625 238.2978668212891 329.7538757324219 C 241.5754547119141 333.7738342285156 244.2020721435547 338.24169921875 246.1234130859375 343.0662536621094 C 248.5973052978516 342.4932556152344 250.6056060791016 342.2245178222656 252.3898010253906 342.2245178222656 C 255.4114837646484 342.2245178222656 257.810791015625 343.0223083496094 259.7185363769531 344.6625366210938 C 264.2127990722656 346.6143188476563 289.8126831054688 353.2050476074219 320.8581848144531 357.5847778320313 C 336.1599426269531 359.74609375 349.3461608886719 360.8419494628906 360.0505981445313 360.8419494628906 M 360.0505981445313 361.8419189453125 C 350.2734375 361.8419189453125 337.3160705566406 360.9192810058594 320.7183227539063 358.574951171875 C 289.89453125 354.2265014648438 263.6114196777344 347.541015625 259.1741333007813 345.5147705078125 C 257.3228759765625 343.8710021972656 255.0435028076172 343.2245178222656 252.3897857666016 343.2245178222656 C 250.3155212402344 343.2245178222656 248.0122985839844 343.6197814941406 245.5075531005859 344.2427368164063 C 243.4194030761719 338.7259521484375 240.3696899414063 333.623046875 236.5000457763672 329.1709899902344 C 257.2023620605469 323.966796875 278.3288879394531 320.6255493164063 299.6268310546875 319.187255859375 C 328.3208312988281 317.3679809570313 329.0899658203125 294.5162963867188 329.5484924316406 280.8496704101563 C 329.9330139160156 269.3868408203125 330.7317199707031 267.523193359375 333.0834655761719 267.4049072265625 C 334.0343322753906 267.3565368652344 334.9798278808594 267.33349609375 335.9212341308594 267.33349609375 C 345.9187927246094 267.33349609375 355.3955688476563 269.9355163574219 364.5877075195313 272.4633483886719 C 372.2344665527344 274.5636596679688 379.5411376953125 276.5455932617188 386.9364318847656 277.13720703125 C 387.5152587890625 277.1837463378906 388.1060180664063 277.206298828125 388.7099609375 277.206298828125 C 397.319091796875 277.2060241699219 408.4476928710938 272.6135559082031 421.1769714355469 267.3753356933594 C 436.6363525390625 261.0139465332031 454.1437683105469 253.8361968994141 469.4001159667969 253.8361968994141 C 469.6451416015625 253.8361968994141 469.8904113769531 253.8380584716797 470.13427734375 253.841796875 C 489.62841796875 254.1819763183594 504.4191284179688 263.7367858886719 511.2228698730469 269.12060546875 C 502.2449340820313 275.82080078125 491.4920654296875 287.8308715820313 479.5115966796875 301.1425170898438 C 463.768798828125 318.5987548828125 442.2994384765625 342.5638427734375 432.4730529785156 342.5638427734375 C 432.3749389648438 342.5638427734375 432.2770690917969 342.5614013671875 432.1812744140625 342.5565795898438 C 429.1343688964844 342.4234924316406 426.4128723144531 342.231201171875 423.9427795410156 342.0684814453125 C 420.4704284667969 341.835205078125 417.3919067382813 341.6570129394531 414.5614929199219 341.6570129394531 C 403.3944091796875 341.6570129394531 396.1083984375 344.4328918457031 383.9191284179688 357.5543212890625 C 381.6969604492188 359.9077453613281 374.2072448730469 361.8419189453125 360.0505981445313 361.8419189453125 Z" stroke="none" fill="#30abec"/>
    </g>
    <text id="nanan1" transform="translate(3248 1954)" fill="#fff" font-size="10" font-family="MicrosoftYaHei, Microsoft YaHei"><tspan x="0" y="0">南岸区</tspan></text>
  </g>
</svg>
