<svg xmlns="http://www.w3.org/2000/svg" xmlns:xlink="http://www.w3.org/1999/xlink" width="327" height="258" viewBox="0 0 327 258">
  <defs>
    <linearGradient id="linear-gradient" x1="0.5" x2="0.5" y2="1" gradientUnits="objectBoundingBox">
      <stop offset="0" stop-color="#191e64"/>
      <stop offset="1" stop-color="#17448b"/>
    </linearGradient>
    <filter id="nanchuanqu1" x="70.5" y="53.459" width="185.414" height="192.881" filterUnits="userSpaceOnUse">
      <feOffset dy="8" input="SourceAlpha"/>
      <feGaussianBlur stdDeviation="9" result="blur"/>
      <feFlood flood-opacity="0.161"/>
      <feComposite operator="in" in2="blur"/>
      <feComposite in="SourceGraphic"/>
    </filter>
    <radialGradient id="radial-gradient" cx="0.5" cy="0.5" r="0.477" gradientTransform="translate(-0.053) scale(1.106 1)" gradientUnits="objectBoundingBox">
      <stop offset="0" stop-color="#1fb9e6"/>
      <stop offset="1" stop-color="#0669d2"/>
    </radialGradient>
    <clipPath id="clip-nanchuanqu">
      <rect width="327" height="258"/>
    </clipPath>
  </defs>
  <g id="nanchuanqu" clip-path="url(#clip-nanchuanqu)">
    <rect width="327" height="258" fill="rgba(0,0,0,0)"/>
    <g id="nanchuanqu-2" data-name="nanchuanqu" transform="translate(-0.125 6.844)">
      <g transform="matrix(1, 0, 0, 1, 0.13, -6.84)" filter="url(#nanchuanqu1)">
        <path id="nanchuanqu1-2" data-name="nanchuanqu1" d="M-2760.747-541.16c-2.153,0-3.717-1.539-4.4-4.335l-.489-1.376-.007-.019h0c-1.436-3.023-4.878-5.068-7.916-6.873a30.6,30.6,0,0,1-4.366-2.918c-5.72-5-10.3-7.539-13.6-7.539a5.837,5.837,0,0,0-1.007.085c-.831.144-1.5.225-2.041.284-.913-1.3-5.464-8.169-5.464-15.966,0-8.471-1.266-9.8-7.164-12.295l-1.446-.618c-2.447-1.073-3.564-1.562-3.722-2.2-.127-.511.355-1.12,1.23-2.224a5.078,5.078,0,0,0,1.405-3.735c-.267-2.029-2.458-3.664-5.232-5.735l-.021-.016c-.715-.533-1.525-1.137-2.388-1.809-6.691-5.208-12.135-5.6-19.678-5.6-1.564,0-2.317-2.565-3.012-5.423a17.132,17.132,0,0,0-2.538-6.423,3.7,3.7,0,0,1-.6-1.641l.327-17.947.021.209a3.063,3.063,0,0,0,.251.379,17.122,17.122,0,0,1,2.538,6.423c.7,2.857,1.448,5.422,3.012,5.422,7.542,0,12.986.39,19.678,5.6.857.667,1.665,1.27,2.378,1.8l.006,0,.025.019c2.775,2.071,4.966,3.707,5.232,5.735a5.078,5.078,0,0,1-1.4,3.735c-.875,1.1-1.358,1.713-1.23,2.225.158.635,1.275,1.124,3.722,2.2l1.446.618c5.9,2.491,7.164,3.824,7.164,12.295,0,7.8,4.552,14.669,5.464,15.966.537-.059,1.2-.139,2.041-.284a5.839,5.839,0,0,1,1.007-.085c1.959,0,4.381.894,7.2,2.658a51.007,51.007,0,0,1,6.4,4.881,20.429,20.429,0,0,0,2.733,1.936l.29.815-.29-.815c.527.326,1.064.645,1.633.983,3.044,1.809,6.494,3.859,7.924,6.891l.49,1.376c.685,2.8,2.248,4.334,4.4,4.334a6.354,6.354,0,0,0,4.271-1.938c2.717-2.633,7.207-4.5,10.5-5.6l.454-.151c3.244-1.079,8.673-2.885,8.673-5.173,0-1.562,1.15-2.388,3.324-2.388a14.269,14.269,0,0,1,3.515.524,8.076,8.076,0,0,0,2.027.276,4.511,4.511,0,0,0,4.824-4.8c0-2.917,3.5-5.415,6.594-7.619l.01-.007c.568-.405,1.1-.788,1.6-1.162a5.641,5.641,0,0,0,1.913-1.926l0,.023c.077,1.235.32,5.608.225,10.016-.134,6.257-.854,9.92-2.142,10.886-.5.376-1.04.76-1.611,1.167-3.093,2.206-6.6,4.7-6.6,7.621a4.8,4.8,0,0,1-1.3,3.472,4.815,4.815,0,0,1-3.519,1.332,8.077,8.077,0,0,1-2.027-.276,14.267,14.267,0,0,0-3.515-.524c-2.175,0-3.324.826-3.324,2.388,0,2.288-5.429,4.094-8.674,5.173l-.083.028-.37.123c-3.289,1.1-7.779,2.962-10.5,5.6A6.352,6.352,0,0,1-2760.747-541.16Zm37.782-57.387a16.477,16.477,0,0,1-3.767-.482,3.687,3.687,0,0,1-2.19-2.071c-.5-1.527.554-3.39,1.664-5.363a20.059,20.059,0,0,0,1.828-3.85c.806-2.667-.763-3.671-2.28-4.643-1.078-.691-2.1-1.343-2.288-2.548a1.081,1.081,0,0,1,.11-.868.7.7,0,0,1,.566-.2,8.337,8.337,0,0,1,1.717.326l.016,0c.234.059.477.119.736.181a16.8,16.8,0,0,0,3.888.51,12.354,12.354,0,0,0,3.465-.491c1.841-.538,2.843-1.505,2.978-2.876a.219.219,0,0,0,.067.07,9.463,9.463,0,0,0,.146,2.175,72.555,72.555,0,0,1,.525,11.217c-.278,4.945-1.528,7.776-3.715,8.415A12.356,12.356,0,0,1-2722.965-598.547Zm5.8-25.232a26.9,26.9,0,0,0-3.306-4.937q-.211-.267-.4-.5a2.9,2.9,0,0,1-.884-2.132c.146-.847,1.141-1.48,2.646-2.438.688-.438,1.469-.935,2.341-1.557a5.185,5.185,0,0,1,1.119-.593,18.58,18.58,0,0,0-1.933,5.6,19.651,19.651,0,0,0,.3,5.768c.043.251.08.467.095.6l0,.025.005.047c0,.041.009.081.014.121Zm1.434-12.389-.131-.305a12.459,12.459,0,0,1-.626-2.053c.3,1.06.63,2,.76,2.358Zm-1.367-6.013c-.773-6.326-.751-15.219.049-19.418a24.306,24.306,0,0,1,1.045-3.72,9.161,9.161,0,0,0,.345-1.094l0-.008c0,.188-.466,18.845.013,18.944a9.217,9.217,0,0,1-.361,1.158,24.292,24.292,0,0,0-1.045,3.72,3.064,3.064,0,0,0-.047.418Zm-118.229-9.058c-.8-.808-1.426-1.461-1.974-2.056-1.057-1.147-.754-20.845-.74-21.683a4.124,4.124,0,0,0,.74,2.683c.994,1.078,2.065,2.151,3.1,3.189l.271.272,0,0c3.816,3.82,7.76,7.769,7.216,11.166-.265,1.65-1.542,3.033-3.905,4.228-1.6.808-3.249,1.546-4.708,2.2h-.005Zm113.222-16.64h0a4.535,4.535,0,0,1-1.446-1.029c-1.283-1.434-.273-2.9.538-4.071a4.1,4.1,0,0,0,.907-1.807c0,.7,0,2.857,0,5.582v1.327Z" transform="translate(2941.2 752)" stroke="rgba(0,0,0,0)" stroke-miterlimit="10" stroke-width="1" fill="url(#linear-gradient)"/>
      </g>
      <g id="路径_17" data-name="路径 17" transform="translate(-254.25 -15.919)" opacity="0.67" fill="url(#radial-gradient)" style="isolation: isolate">
        <path d="M 434.6230773925781 200.4237060546875 C 433.7467956542969 200.4237060546875 432.9783325195313 200.1315765380859 432.3390808105469 199.5554504394531 C 431.5935668945313 198.8835754394531 431.044677734375 197.8448486328125 430.7076416015625 196.4681243896484 L 430.7015686035156 196.4433746337891 L 430.6930236816406 196.4193725585938 L 430.2510681152344 195.1773681640625 L 430.2443542480469 195.1585693359375 L 430.2362060546875 195.1403503417969 C 428.777099609375 191.8877868652344 425.2056579589844 189.7619934082031 422.0546875 187.8864288330078 C 420.4278869628906 186.9181213378906 418.8912658691406 186.0034790039063 417.7721862792969 185.024658203125 C 411.8760375976563 179.8681182861328 407.3215026855469 177.3614807128906 403.8482971191406 177.3614807128906 C 403.4716491699219 177.3614807128906 403.1043090820313 177.3924713134766 402.7565002441406 177.4535522460938 C 402.0766296386719 177.5708312988281 401.5145263671875 177.6451721191406 401.0419616699219 177.700439453125 C 399.8592224121094 175.9635620117188 395.8370056152344 169.5209808349609 395.8370056152344 162.2650146484375 C 395.8370056152344 153.5547027587891 394.4217529296875 152.0701751708984 388.3681030273438 149.5046234130859 L 386.9246215820313 148.8872833251953 C 384.9902648925781 148.0396270751953 383.5897216796875 147.4259185791016 383.4910583496094 147.029541015625 C 383.4231262207031 146.7565765380859 383.9814453125 146.0516662597656 384.6279296875 145.2354583740234 C 385.8099670410156 143.7380523681641 386.30322265625 142.3935699462891 386.1364135742188 141.1245727539063 C 385.8422241210938 138.8863525390625 383.5765380859375 137.1952819824219 380.7080688476563 135.0543212890625 L 380.6593322753906 135.0179748535156 C 379.9531555175781 134.4912414550781 379.1527404785156 133.8942413330078 378.3060607910156 133.2354125976563 C 371.4862670898438 127.927116394043 365.9657592773438 127.5299911499023 358.3219909667969 127.5299911499023 C 357.1240844726563 127.5299911499023 356.3917236328125 124.9389343261719 355.7996520996094 122.5045013427734 C 355.3816833496094 120.141975402832 354.5039672851563 117.9234924316406 353.1907348632813 115.910774230957 L 353.1796264648438 115.8937149047852 L 353.1671752929688 115.8776473999023 C 353.1090087890625 115.8026428222656 353.0554809570313 115.7252197265625 353.0073547363281 115.6465377807617 L 352.888427734375 114.4891510009766 C 353.5405578613281 113.3520202636719 356.4081420898438 112.004508972168 360.0705871582031 110.3716812133789 L 360.1558227539063 110.3336639404297 C 361.7454833984375 109.6245346069336 363.3892517089844 108.8912811279297 364.98583984375 108.0831146240234 C 367.5016479492188 106.8112487792969 368.8666381835938 105.3083190917969 369.1585693359375 103.4885711669922 C 369.7437744140625 99.84051513671875 365.7090759277344 95.79927825927734 361.8071899414063 91.89109802246094 L 361.7998657226563 91.88373565673828 L 361.5387573242188 91.62204742431641 C 360.5021667480469 90.58328247070313 359.4302978515625 89.5091552734375 358.4415588378906 88.43702697753906 C 358.1012268066406 88.06800842285156 357.3952331542969 86.70035552978516 358.1878662109375 81.98261260986328 C 359.1154174804688 76.46154022216797 361.7588806152344 68.25376892089844 366.0452880859375 57.58467483520508 C 369.5884399414063 57.6832160949707 377.3724365234375 58.15681457519531 380.8937683105469 60.38360977172852 L 380.9195556640625 60.39989852905273 L 380.9471130371094 60.41293716430664 C 382.1297302246094 60.97270202636719 382.7548217773438 62.25535583496094 382.4671936035156 63.53211975097656 L 382.4573364257813 63.57590103149414 L 382.4554443359375 63.62073516845703 C 382.4479675292969 63.79551696777344 382.2810668945313 67.92259216308594 382.9756774902344 69.74784851074219 C 383.7100219726563 71.67533874511719 383.9096984863281 71.94629669189453 385.4636840820313 74.05517578125 C 385.8182983398438 74.53643035888672 386.2596435546875 75.1353759765625 386.7942504882813 75.87253570556641 L 386.8194885253906 75.90737152099609 L 386.8503112792969 75.93737030029297 C 388.3399658203125 77.38674163818359 389.7843017578125 78.35923004150391 390.5155944824219 78.81151580810547 C 393.3284301757813 80.62765502929688 396.5835876464844 81.61925506591797 399.9290771484375 81.67893981933594 L 399.9429321289063 81.67917633056641 L 399.9568176269531 81.67864227294922 C 403.9540100097656 81.52796936035156 406.9786682128906 78.94110107421875 410.8079833984375 75.66599273681641 C 411.3955688476563 75.15897369384766 412.7677307128906 73.9749755859375 414.0502624511719 72.97052001953125 C 415.7672729492188 71.62580108642578 416.45556640625 71.28202819824219 416.7139587402344 71.19707489013672 C 420.8386535644531 71.90512847900391 422.4029541015625 72.20606994628906 424.4683837890625 76.43468475341797 C 425.1604919433594 77.89909362792969 426.2044067382813 79.196533203125 427.4875183105469 80.18682861328125 C 429.3068542480469 81.59051513671875 431.4799499511719 82.33233642578125 433.7719116210938 82.3321533203125 C 436.8432312011719 82.3319091796875 439.6906127929688 81.00394439697266 441.6530151367188 78.67304992675781 C 443.5283203125 79.79524230957031 445.5359191894531 80.68842315673828 447.626708984375 81.33026885986328 C 449.9881286621094 82.11309814453125 452.3130493164063 83.07304382324219 454.5366516113281 84.18333435058594 L 456.0186462402344 84.92331695556641 C 459.8609313964844 86.83195495605469 461.9769897460938 87.88307952880859 464.7496032714844 87.88295745849609 C 466.35888671875 87.88288116455078 468.1374206542969 87.52775573730469 470.6966247558594 86.69550323486328 L 470.7014465332031 86.69391632080078 L 470.7062683105469 86.6922607421875 C 471.3710021972656 86.46105194091797 472.0602416992188 86.28034210205078 472.7611389160156 86.15326690673828 C 472.7625122070313 86.17961883544922 472.7632751464844 86.20602416992188 472.7634582519531 86.23246002197266 C 472.6321105957031 86.79736328125 472.3636169433594 87.32552337646484 471.9850463867188 87.76268005371094 L 471.9672241210938 87.78322601318359 L 471.9517211914063 87.8056640625 C 471.1357727050781 88.98555755615234 469.9027099609375 90.76863098144531 471.4492797851563 92.49828338623047 C 472.7669677734375 93.97986602783203 475.3942260742188 94.48248291015625 477.2556762695313 94.73159027099609 C 477.8626098632813 94.812255859375 478.5672607421875 94.90828704833984 479.1005859375 94.99383544921875 C 479.0403137207031 95.19109344482422 478.973388671875 95.38552093505859 478.9003295898438 95.57550048828125 L 478.8992004394531 95.57844543457031 L 478.8981018066406 95.58139038085938 C 478.4431762695313 96.81017303466797 478.0842590332031 98.08782958984375 477.8313293457031 99.37886047363281 C 477.2785949707031 102.2801361083984 477.0700073242188 107.36376953125 477.2864074707031 112.6484603881836 C 477.5173950195313 118.2884063720703 478.1598815917969 122.7169036865234 479.0491943359375 124.7984237670898 L 479.0810546875 124.8724746704102 C 478.8167724609375 125.0023040771484 478.5624389648438 125.1531066894531 478.3209533691406 125.3233337402344 C 477.4598999023438 125.9380264282227 476.6863403320313 126.4304275512695 476.0038757324219 126.8648452758789 C 474.3852233886719 127.8952102661133 473.3158569335938 128.5758972167969 473.1318664550781 129.6410522460938 C 473.0082702636719 130.3563385009766 473.3113403320313 131.1351318359375 474.1145324707031 132.1662445068359 C 474.2378540039063 132.3245391845703 474.3704833984375 132.492919921875 474.5100402832031 132.6701202392578 C 476.1826782226563 134.793701171875 478.9822082519531 138.3479309082031 478.2559509277344 140.6175384521484 C 477.9730834960938 141.5014801025391 477.1255187988281 142.1553802490234 475.73681640625 142.5610656738281 C 474.6506958007813 142.8783569335938 473.562744140625 143.0325927734375 472.4107666015625 143.0325927734375 C 470.614501953125 143.0325927734375 469.039794921875 142.6393127441406 467.8899841308594 142.3521728515625 C 467.1273498535156 142.1616973876953 466.5249938964844 142.0112609863281 466.0519409179688 142.0112609863281 C 465.6342468261719 142.0112609863281 465.3161010742188 142.1359710693359 465.1063537597656 142.3818817138672 C 464.7846984863281 142.7589721679688 464.8249816894531 143.287841796875 464.8832702636719 143.6528472900391 C 465.1109313964844 145.0787353515625 466.2727661132813 145.8230285644531 467.3963317871094 146.5428161621094 C 468.1391906738281 147.0187225341797 468.8408813476563 147.4682312011719 469.2639770507813 148.0895538330078 C 469.7209777832031 148.7606658935547 469.7852783203125 149.5648651123047 469.4663696289063 150.6204071044922 C 469.0896301269531 151.8674163818359 468.3736572265625 153.1387939453125 467.6812438964844 154.3683013916016 C 466.4998474121094 156.4661712646484 465.3839721679688 158.4476928710938 465.997802734375 160.1989440917969 C 466.3640747070313 161.2438507080078 467.2956848144531 162.0559539794922 468.8458557128906 162.6816711425781 C 471.837158203125 163.8890686035156 473.3627319335938 165.5573425292969 474.708740234375 167.0292053222656 C 475.9796447753906 168.4190063476563 477.0772399902344 169.6192779541016 479.0016479492188 169.9007415771484 C 480.0821838378906 170.0587921142578 480.7748413085938 170.1982574462891 481.2474975585938 170.3530120849609 C 481.8247375488281 170.5419616699219 481.87841796875 170.6946105957031 481.8787841796875 170.6960754394531 C 481.8828430175781 170.7119598388672 481.9566955566406 171.1005554199219 480.1187133789063 172.4812164306641 C 479.6214599609375 172.8547515869141 479.0831298828125 173.2387542724609 478.5132141113281 173.6452941894531 C 475.3257751464844 175.9190521240234 471.7130126953125 178.4961700439453 471.7130126953125 181.6700134277344 C 471.7130126953125 182.9455871582031 471.31201171875 184.0245056152344 470.5533142089844 184.7900848388672 C 469.7857055664063 185.564697265625 468.6918334960938 185.9741363525391 467.3899841308594 185.9741363525391 C 467.3898315429688 185.9741363525391 467.3897094726563 185.9741363525391 467.3895568847656 185.9741363525391 C 466.7900390625 185.9741058349609 466.1502685546875 185.8866271972656 465.4880065917969 185.7141571044922 C 464.1112365722656 185.3555755615234 462.8862609863281 185.1737670898438 461.8471069335938 185.1737670898438 C 460.6891174316406 185.1737670898438 459.7727355957031 185.4009857177734 459.1234436035156 185.84912109375 C 458.4035339355469 186.345947265625 458.0230102539063 187.1111602783203 458.0230102539063 188.0619964599609 C 458.0230102539063 188.6021118164063 457.5337219238281 189.4886169433594 455.2026062011719 190.6446075439453 C 453.4798583984375 191.4989166259766 451.3016662597656 192.2245330810547 449.7112426757813 192.7543487548828 C 449.5473327636719 192.8089599609375 449.3886413574219 192.86181640625 449.2361755371094 192.9128875732422 C 445.8979797363281 194.0312042236328 441.3338317871094 195.9304656982422 438.5472412109375 198.6277618408203 C 437.3854675292969 199.7523193359375 435.91845703125 200.4237060546875 434.6230773925781 200.4237060546875 Z" stroke="none"/>
        <path d="M 434.6230773925781 199.9236755371094 C 435.791748046875 199.9236755371094 437.1287231445313 199.3049163818359 438.1994934082031 198.2684783935547 C 441.0534362792969 195.5059814453125 445.6901550292969 193.5735015869141 449.0773315429688 192.4387969970703 C 449.2301025390625 192.3876190185547 449.3890380859375 192.3346557617188 449.5532531738281 192.2799530029297 C 451.1297912597656 191.7547760009766 453.2889099121094 191.0355224609375 454.9805297851563 190.1966400146484 C 457.3396911621094 189.0267181396484 457.5230102539063 188.2669830322266 457.5230102539063 188.0619964599609 C 457.5230102539063 185.9403991699219 459.1394958496094 184.6737823486328 461.8471069335938 184.6737823486328 C 462.9287719726563 184.6737823486328 464.1961364746094 184.8610229492188 465.614013671875 185.2302856445313 C 466.2351684570313 185.3920440673828 466.8325805664063 185.4740753173828 467.3900146484375 185.4741363525391 C 469.7481079101563 185.4741363525391 471.2130126953125 184.0164794921875 471.2130126953125 181.6699981689453 C 471.2130126953125 178.2386627197266 474.9371337890625 175.5820770263672 478.2228698730469 173.2382354736328 C 478.7901916503906 172.8335418701172 479.3260498046875 172.4512786865234 479.8183898925781 172.0814666748047 C 480.6307373046875 171.4712371826172 481.0254211425781 171.08984375 481.2166748046875 170.86767578125 C 480.8919677734375 170.7495574951172 480.2388000488281 170.5870056152344 478.9292907714844 170.3954772949219 C 476.8285522460938 170.0882263183594 475.61962890625 168.7662353515625 474.3397521972656 167.3666381835938 C 473.0296630859375 165.9340057373047 471.5447692871094 164.3102264404297 468.65869140625 163.1452941894531 C 466.9673156738281 162.4626007080078 465.9425659179688 161.5529327392578 465.5259704589844 160.3643341064453 C 464.8372497558594 158.3995361328125 466.007080078125 156.3222351074219 467.2455749511719 154.1229553222656 C 467.9247131347656 152.9170379638672 468.6269226074219 151.6700592041016 468.9877319335938 150.4757995605469 C 469.5487670898438 148.6187591552734 468.7354125976563 147.9944610595703 467.1265869140625 146.9638214111328 C 465.9669189453125 146.2209014892578 464.6525268554688 145.3788604736328 464.3895263671875 143.7316741943359 C 464.3469543457031 143.4650421142578 464.2173767089844 142.6535949707031 464.7259521484375 142.0574035644531 C 465.0350646972656 141.6950073242188 465.4811706542969 141.5112609863281 466.0519409179688 141.5112609863281 C 466.5864868164063 141.5112609863281 467.2151489257813 141.6682739257813 468.0111083984375 141.8670654296875 C 469.1983947753906 142.1635589599609 470.6759948730469 142.5325775146484 472.4107666015625 142.5325775146484 C 473.5145874023438 142.5325775146484 474.5567016601563 142.3849029541016 475.5965881347656 142.0811157226563 C 476.833251953125 141.7198638916016 477.5473937988281 141.1912536621094 477.7797241210938 140.4651641845703 C 478.4250183105469 138.4486236572266 475.6227416992188 134.8908538818359 474.1172485351563 132.9795074462891 C 473.9771118164063 132.8015594482422 473.8439331054688 132.6324768066406 473.7200927734375 132.4735260009766 C 473.1160888671875 131.6981353759766 472.4473876953125 130.6657867431641 472.63916015625 129.5559234619141 C 472.8608093261719 128.2728576660156 474.0665588378906 127.5053405761719 475.7353515625 126.4430618286133 C 476.4125671386719 126.0119781494141 477.18017578125 125.5233764648438 478.0280151367188 124.9181213378906 L 478.0304260253906 124.9163818359375 L 478.0328674316406 124.9146575927734 C 478.1682434082031 124.819221496582 478.3074035644531 124.7293701171875 478.4497680664063 124.6453704833984 C 477.2650451660156 121.4814224243164 476.8931579589844 115.2654342651367 476.7868347167969 112.6689224243164 C 476.5689697265625 107.348762512207 476.7807922363281 102.2214431762695 477.3396606445313 99.28785705566406 L 477.3401489257813 99.28530120849609 L 477.3406677246094 99.28276062011719 C 477.5986938476563 97.96543884277344 477.9649353027344 96.66172027587891 478.4292297363281 95.40778350830078 L 478.431396484375 95.40187835693359 L 478.4327392578125 95.3984375 C 478.0142211914063 95.33776092529297 477.56494140625 95.27708435058594 477.1893615722656 95.22715759277344 C 475.2489318847656 94.96749877929688 472.50390625 94.43643951416016 471.0765380859375 92.83155822753906 C 469.2674255371094 90.80828094482422 470.6903076171875 88.75070190429688 471.5404968261719 87.52121734619141 L 471.5714721679688 87.47647857666016 L 471.6070556640625 87.43534088134766 C 471.7686157226563 87.24879455566406 471.9068603515625 87.04293823242188 472.0189819335938 86.82346343994141 C 471.629638671875 86.92002105712891 471.2460021972656 87.03389739990234 470.8705139160156 87.16449737548828 L 470.8609313964844 87.16783905029297 L 470.8512573242188 87.17098236083984 C 468.2392272949219 88.02042388916016 466.4144287109375 88.38288116455078 464.7496337890625 88.38295745849609 C 461.859619140625 88.383056640625 459.5776977539063 87.24954223632813 455.7952575683594 85.37065887451172 L 454.3132934570313 84.63066101074219 C 452.1126708984375 83.53182220458984 449.8118896484375 82.58171081542969 447.4750061035156 81.80673980712891 C 445.4805908203125 81.19407653808594 443.5608825683594 80.35702514648438 441.7564392089844 79.31394195556641 C 439.7127075195313 81.56022644042969 436.8496398925781 82.83188629150391 433.7719421386719 82.83213806152344 C 431.3684387207031 82.83232116699219 429.0897216796875 82.05449676513672 427.1820068359375 80.5826416015625 C 425.83740234375 79.54486846923828 424.7433166503906 78.18553161621094 424.017578125 76.65100860595703 C 423.0452575683594 74.66115570068359 422.1659240722656 73.54065704345703 421.0780334472656 72.90505981445313 C 420.0278625488281 72.29148101806641 418.6497497558594 72.03730010986328 416.7664794921875 71.71343231201172 C 416.5143127441406 71.82672882080078 415.8453979492188 72.19732666015625 414.3218994140625 73.39289855957031 C 413.0598449707031 74.38333892822266 411.7118835449219 75.54644012451172 411.1329650878906 76.04595947265625 C 407.229736328125 79.38426208496094 404.146728515625 82.02105712890625 399.9756469726563 82.17829895019531 L 399.9479064941406 82.17933654785156 L 399.9201354980469 82.17884063720703 C 396.4833374023438 82.11754608154297 393.1396179199219 81.09962463378906 390.2494812011719 79.23486328125 C 389.4998168945313 78.77098083496094 388.0232543945313 77.77619934082031 386.5016479492188 76.29573822021484 L 386.4399719238281 76.2357177734375 L 386.3894653320313 76.16606140136719 C 385.8559875488281 75.43045806884766 385.415283203125 74.83238220214844 385.0611572265625 74.35179901123047 C 383.5060729980469 72.24141693115234 383.2670593261719 71.91706085205078 382.5083923339844 69.92568206787109 C 381.7898864746094 68.0377197265625 381.936767578125 64.04814147949219 381.9558715820313 63.59944152832031 L 381.9596862792969 63.50978088378906 L 381.9794311523438 63.42222213745117 C 382.2152709960938 62.37540054321289 381.7027893066406 61.32378005981445 380.7332153320313 60.86486053466797 L 380.6781005859375 60.83877944946289 L 380.6265563964844 60.80620193481445 C 379.1590270996094 59.87820053100586 376.6173400878906 59.13679885864258 373.2762451171875 58.66218185424805 C 370.7478942871094 58.30301284790039 368.23046875 58.15437316894531 366.3793640136719 58.09482192993164 C 362.1827087402344 68.57292175292969 359.5932006835938 76.63539123535156 358.680908203125 82.06543731689453 C 357.8837280273438 86.81050109863281 358.6478271484375 87.92317962646484 358.8091125488281 88.09806060791016 C 359.7912292480469 89.16297912597656 360.8595886230469 90.23358154296875 361.8927917480469 91.26895904541016 L 362.1536865234375 91.53045654296875 L 362.1610717773438 91.537841796875 C 366.1515502929688 95.53478240966797 370.2778930664063 99.66780090332031 369.6522521972656 103.567756652832 C 369.3331298828125 105.5570220947266 367.8804626464844 107.1799774169922 365.2116394042969 108.5291976928711 C 363.6041564941406 109.342903137207 361.9547119140625 110.0786819458008 360.3595886230469 110.7902374267578 L 360.2742004394531 110.8283386230469 C 357.6893615722656 111.9807434082031 354.2044067382813 113.5344696044922 353.4037170410156 114.6124572753906 L 353.492431640625 115.475715637207 C 353.5146179199219 115.5079574584961 353.5379638671875 115.5398788452148 353.5623474121094 115.5713424682617 L 353.5872802734375 115.6035003662109 L 353.6094970703125 115.6375579833984 C 354.9567565917969 117.7024765014648 355.8582763671875 119.9781036376953 356.2891540527344 122.4013519287109 C 356.6578063964844 123.9160995483398 356.9877624511719 125.1027908325195 357.3956298828125 125.9673004150391 C 357.5828857421875 126.3641815185547 357.9522399902344 127.0299987792969 358.3219909667969 127.0299987792969 C 366.0694274902344 127.0299987792969 371.6673278808594 127.4344635009766 378.6131286621094 132.8408050537109 C 379.4553527832031 133.4961853027344 380.2532653808594 134.0913238525391 380.957275390625 134.6163940429688 L 381.0071411132813 134.6536254882813 C 383.9701232910156 136.8651428222656 386.3104553222656 138.6119384765625 386.6321716308594 141.0594177246094 C 386.8174743652344 142.46923828125 386.2904357910156 143.9363555908203 385.0198974609375 145.5458984375 C 384.6146850585938 146.0574645996094 384.1622619628906 146.6286926269531 384.0228576660156 146.9126739501953 C 384.3993835449219 147.2346649169922 385.7265930175781 147.8163909912109 387.1257019042969 148.4294738769531 L 388.5632019042969 149.0442810058594 C 394.7636108398438 151.6719970703125 396.3370056152344 153.31396484375 396.3370056152344 162.2649993896484 C 396.3370056152344 169.0676879882813 399.9533996582031 175.1553344726563 401.2861022949219 177.1671905517578 C 401.6844482421875 177.1171264648438 402.1413879394531 177.0522613525391 402.6699829101563 176.9610748291016 C 403.0462646484375 176.8949737548828 403.4426879882813 176.8614807128906 403.8482666015625 176.8614807128906 C 407.4478454589844 176.8614807128906 412.1100463867188 179.4085540771484 418.1013488769531 184.6483001708984 C 419.1861877441406 185.5971374511719 420.7037658691406 186.5004577636719 422.3104553222656 187.4568023681641 C 425.5250854492188 189.3702392578125 429.1686096191406 191.5389556884766 430.6924133300781 194.9356994628906 L 430.708740234375 194.9721221923828 L 430.7221069335938 195.0097351074219 L 431.1640930175781 196.2517395019531 L 431.1811828613281 196.2997131347656 L 431.1932983398438 196.3491973876953 C 431.592529296875 197.9798583984375 432.5115966796875 199.9236755371094 434.6230773925781 199.9236755371094 M 434.6230773925781 200.9236907958984 C 432.7430419921875 200.9236907958984 430.98681640625 199.7110290527344 430.2219848632813 196.5870056152344 L 429.7799987792969 195.3450012207031 C 427.6589965820313 190.6170043945313 420.8099975585938 188.3459930419922 417.4429931640625 185.4010009765625 C 414.0534057617188 182.4365997314453 408.2998352050781 177.8614807128906 403.8482666015625 177.8614807128906 C 403.5049743652344 177.8614807128906 403.1690979003906 177.8887176513672 402.8429870605469 177.9459991455078 C 402.0429992675781 178.0839996337891 401.3980102539063 178.1649932861328 400.8009948730469 178.2310028076172 C 399.8729858398438 176.9120025634766 395.3370056152344 170.0489959716797 395.3370056152344 162.2649993896484 C 395.3370056152344 153.7920074462891 394.0719909667969 152.4649963378906 388.1730041503906 149.9649963378906 L 386.7279968261719 149.3470001220703 C 382.2780151367188 147.3970031738281 382.2780151367188 147.3970031738281 384.2359924316406 144.9250030517578 C 387.5190124511719 140.7660064697266 384.6990051269531 138.6569976806641 380.4089965820313 135.4550018310547 C 379.6809997558594 134.9120025634766 378.8689880371094 134.3070068359375 377.9989929199219 133.6300048828125 C 371.3080139160156 128.4219970703125 365.8619995117188 128.0299987792969 358.3219909667969 128.0299987792969 C 356.7590026855469 128.0299987792969 356.0069885253906 125.4749984741211 355.3099975585938 122.6070022583008 C 354.9070129394531 120.3170013427734 354.0429992675781 118.1320037841797 352.7720031738281 116.1839981079102 C 352.6789855957031 116.0640029907227 352.5950012207031 115.9380035400391 352.52099609375 115.8050003051758 L 352.3760070800781 114.3939971923828 C 352.9679870605469 113.0810012817383 355.6950073242188 111.7750015258789 359.8670043945313 109.9150009155273 C 361.4809875488281 109.1949996948242 363.14599609375 108.4540023803711 364.760009765625 107.6370010375977 C 372.7789916992188 103.5830001831055 367.0199890136719 97.81999969482422 361.4460144042969 92.23699951171875 C 360.3259887695313 91.11399841308594 359.1530151367188 89.94599914550781 358.0740051269531 88.7760009765625 C 356.9949951171875 87.60600280761719 355.5960083007813 82.17600250244141 365.7109985351563 57.07600021362305 C 369.3619995117188 57.15999984741211 377.4590148925781 57.61999893188477 381.1610107421875 59.96099853515625 C 382.5469970703125 60.61700057983398 383.2919921875 62.14599990844727 382.9549865722656 63.64200210571289 C 382.9549865722656 63.64200210571289 382.7770080566406 67.81999969482422 383.4429931640625 69.56999969482422 C 384.3200073242188 71.87200164794922 384.385986328125 71.69999694824219 387.1990051269531 75.57900238037109 C 388.6050109863281 76.94699859619141 389.9949951171875 77.90200042724609 390.7829895019531 78.38899993896484 C 393.5150146484375 80.15399932861328 396.6860046386719 81.12100219726563 399.93798828125 81.17900085449219 C 403.7579956054688 81.03500366210938 406.6830139160156 78.53600311279297 410.4830017089844 75.28600311279297 C 412.0069885253906 73.97100067138672 415.5799865722656 70.91000366210938 416.6919860839844 70.68599700927734 C 420.9580078125 71.41799926757813 422.7250061035156 71.72499847412109 424.9190063476563 76.21800231933594 C 425.5809936523438 77.62000274658203 426.5660095214844 78.84400177001953 427.7929992675781 79.79100036621094 C 429.5758972167969 81.16654968261719 431.6815490722656 81.83230590820313 433.7718811035156 81.83214569091797 C 436.7054138183594 81.8319091796875 439.6079711914063 80.52011108398438 441.5390014648438 78.01799774169922 C 443.4880065917969 79.22799682617188 445.5849914550781 80.18099975585938 447.7789916992188 80.85400390625 C 450.1719970703125 81.64700317382813 452.5050048828125 82.61000061035156 454.760009765625 83.73600006103516 L 456.2420043945313 84.47599792480469 C 459.9887390136719 86.33714294433594 462.0947570800781 87.38307189941406 464.7496032714844 87.38295745849609 C 466.3313293457031 87.38288879394531 468.1081237792969 87.01150512695313 470.5419921875 86.22000122070313 C 471.3930053710938 85.92400360107422 472.27099609375 85.71099853515625 473.1629943847656 85.58100128173828 C 473.2340087890625 85.80999755859375 473.2680053710938 86.05000305175781 473.2630004882813 86.29000091552734 C 473.1180114746094 86.95600128173828 472.8089904785156 87.57499694824219 472.3630065917969 88.09000396728516 C 471.5469970703125 89.26999664306641 470.5379943847656 90.72900390625 471.8219909667969 92.16500091552734 C 473.0280151367188 93.52100372314453 475.5360107421875 93.99700164794922 477.3219909667969 94.23600006103516 C 478.2699890136719 94.36199951171875 479.2369995117188 94.49700164794922 479.7269897460938 94.59700012207031 C 479.6319885253906 94.99099731445313 479.5119934082031 95.37799835205078 479.3670043945313 95.75499725341797 C 478.9190063476563 96.96500396728516 478.5700073242188 98.20899963378906 478.3219909667969 99.47499847412109 C 477.1860046386719 105.4380035400391 477.6329956054688 120.2109985351563 479.5090026855469 124.6019973754883 L 479.7369995117188 125.1320037841797 C 479.3370056152344 125.2839965820313 478.9580078125 125.4860000610352 478.6090087890625 125.7320022583008 C 474.5090026855469 128.6589965820313 472.22900390625 128.9320068359375 474.5090026855469 131.8589935302734 C 476.7890014648438 134.7859954833984 482.2680053710938 141.1739959716797 475.8770141601563 143.0410003662109 C 474.6463317871094 143.4005279541016 473.4838562011719 143.5325775146484 472.4107666015625 143.5325775146484 C 469.4288940429688 143.5325775146484 467.1436767578125 142.5112609863281 466.0519409179688 142.5112609863281 C 465.4963073730469 142.5112609863281 465.2495727539063 142.7757720947266 465.3770141601563 143.5740051269531 C 465.8450012207031 146.5050048828125 471.31298828125 146.2369995117188 469.9450073242188 150.7649993896484 C 468.5769958496094 155.2929992675781 463.0920104980469 159.8200073242188 469.0329895019531 162.2180023193359 C 474.9739990234375 164.6159973144531 475.4230041503906 168.8719940185547 479.0740051269531 169.406005859375 C 482.7250061035156 169.9400024414063 483.6099853515625 170.4839935302734 480.4190063476563 172.8809967041016 C 477.2279968261719 175.2779998779297 472.2130126953125 178.2089996337891 472.2130126953125 181.6699981689453 C 472.2130126953125 184.5230407714844 470.342041015625 186.4743347167969 467.3895568847656 186.4741363525391 C 466.7604064941406 186.4740905761719 466.0816650390625 186.3854217529297 465.3619995117188 186.197998046875 C 464.0316772460938 185.8515319824219 462.84423828125 185.6737670898438 461.8471374511719 185.6737670898438 C 459.7734375 185.6737670898438 458.5230102539063 186.4426422119141 458.5230102539063 188.0619964599609 C 458.5230102539063 190.4600067138672 452.5950012207031 192.3150024414063 449.3949890136719 193.3869934082031 C 446.1950073242188 194.4589996337891 441.6409912109375 196.3289947509766 438.8949890136719 198.9869995117188 C 437.6808776855469 200.1622009277344 436.1131286621094 200.9236907958984 434.6230773925781 200.9236907958984 Z" stroke="none" fill="#30abec"/>
      </g>
      <text id="nanchuanqu-3" data-name="nanchuanqu" transform="translate(149.579 112.746)" fill="#fff" font-size="10" font-family="MicrosoftYaHei, Microsoft YaHei"><tspan x="0" y="0">南川区</tspan></text>
    </g>
  </g>
</svg>
