<svg xmlns="http://www.w3.org/2000/svg" xmlns:xlink="http://www.w3.org/1999/xlink" width="214.83" height="170.424" viewBox="0 0 214.83 170.424">
  <defs>
    <linearGradient id="linear-gradient" x1="0.5" x2="0.5" y2="1" gradientUnits="objectBoundingBox">
      <stop offset="0" stop-color="#191e64"/>
      <stop offset="1" stop-color="#17448b"/>
    </linearGradient>
    <radialGradient id="radial-gradient" cx="0.483" cy="0.5" r="0.672" gradientTransform="translate(0.124 -0.152) scale(0.744 1.305)" gradientUnits="objectBoundingBox">
      <stop offset="0" stop-color="#1fb9e6"/>
      <stop offset="1" stop-color="#0669d2"/>
    </radialGradient>
    <linearGradient id="linear-gradient-2" x1="0.591" y1="0.962" x2="0.566" y2="0.52" xlink:href="#linear-gradient"/>
    <filter id="thick_1" x="0" y="19.249" width="214.83" height="151.175" filterUnits="userSpaceOnUse">
      <feOffset dy="8" input="SourceAlpha"/>
      <feGaussianBlur stdDeviation="9" result="blur"/>
      <feFlood flood-color="#0f093c" flood-opacity="0.161"/>
      <feComposite operator="in" in2="blur"/>
      <feComposite in="SourceGraphic"/>
    </filter>
  </defs>
  <g id="pengshui" transform="translate(-48.687 -50.428)">
    <path id="thick_2" d="M-98.189,32.436h0a7.562,7.562,0,0,1-3.1-2.589,3.2,3.2,0,0,1,.933-4.52,7.423,7.423,0,0,0,2.169-3.3v10.41Z" transform="translate(323.19 52.428)" fill="url(#linear-gradient)"/>
    <g id="Op_component_19" data-name="Op component 19" transform="translate(-582 -281)" opacity="0.67" fill="url(#radial-gradient)">
      <path d="M 671.8048095703125 449.8520812988281 C 671.2443237304688 449.8520812988281 670.6925659179688 449.7600402832031 670.1648559570313 449.5784912109375 C 666.9580688476563 448.4573669433594 662.7611083984375 445.7298889160156 662.6197509765625 444.2641906738281 C 662.6021118164063 444.0809326171875 662.6387939453125 443.8373413085938 663.0828247070313 443.5779724121094 C 663.95166015625 443.0704956054688 664.387451171875 442.5610961914063 664.4542236328125 441.9748840332031 C 664.55615234375 441.0799865722656 663.7720947265625 440.3414611816406 662.7794799804688 439.4064331054688 C 662.1212158203125 438.7864074707031 661.3754272460938 438.0838928222656 660.7310791015625 437.2067260742188 C 659.3032836914063 435.1158752441406 658.6036376953125 432.7337341308594 658.6974487304688 430.2951965332031 L 659.6993408203125 430.0167236328125 C 659.93359375 429.9514465332031 665.4933471679688 428.39111328125 671.1250610351563 425.891845703125 C 678.5181884765625 422.61083984375 682.6642456054688 419.2638854980469 683.4480590820313 415.9439697265625 C 684.2793579101563 412.4228210449219 685.8921508789063 409.9022216796875 687.0987548828125 408.4077453613281 C 688.5380859375 406.6249694824219 689.8844604492188 405.7211303710938 690.4072265625 405.6320190429688 C 692.087646484375 405.6224365234375 693.9131469726563 404.9573669433594 696.1474609375 403.5412292480469 C 698.7272338867188 401.9094848632813 701.4240112304688 399.538330078125 703.3611450195313 397.1986083984375 C 705.9092407226563 394.1209411621094 707.0791625976563 391.2060241699219 706.7445678710938 388.7689819335938 C 706.1885986328125 384.7109375 705.9010009765625 380.3101806640625 705.95556640625 376.6952819824219 C 706.018798828125 372.5085754394531 706.5133056640625 369.4884643554688 707.3856201171875 367.96142578125 C 708.984375 365.1616516113281 715.9168701171875 357.3941040039063 721.4437255859375 351.510498046875 C 723.22021484375 351.6861572265625 725.2003173828125 351.7787780761719 727.1884155273438 351.7787475585938 C 732.431884765625 351.7787170410156 738.92041015625 351.1322326660156 741.406005859375 349.3179626464844 C 744.1282958984375 347.3299865722656 746.2109985351563 344.9428100585938 748.1798095703125 339.1925659179688 L 748.5036010742188 338.2370300292969 L 748.5068969726563 338.2273254394531 L 748.509765625 338.2174682617188 C 748.9810180664063 336.612548828125 749.6181030273438 335.0411682128906 750.4063110351563 333.5384826660156 C 755.316162109375 337.6146850585938 762.66015625 338.1650085449219 769.197998046875 338.1650085449219 C 772.3906860351563 338.1650085449219 775.0409545898438 337.5608215332031 776.8622436523438 336.4177856445313 C 778.5283813476563 335.3721008300781 779.4459838867188 333.9209594726563 779.4459838867188 332.3316955566406 L 779.4459838867188 332.3110656738281 L 779.4442749023438 332.29052734375 C 779.439208984375 332.2291870117188 779.440673828125 332.1681213378906 779.4486694335938 332.1076049804688 C 779.8060913085938 332.1741638183594 780.22509765625 332.2424011230469 780.7359008789063 332.3176574707031 C 782.5841674804688 332.5877075195313 783.7725219726563 333.0698852539063 784.369384765625 333.7918090820313 C 784.8711547851563 334.3986511230469 784.971923828125 335.1705322265625 784.971923828125 336.2192077636719 C 784.971923828125 337.6275939941406 786.029541015625 337.8968811035156 786.7294311523438 338.0750427246094 C 787.4979248046875 338.2707214355469 787.8377075195313 338.3891906738281 787.8377075195313 339.1477966308594 C 787.8377075195313 339.3598327636719 787.8345336914063 339.5736999511719 787.8314208984375 339.7805480957031 C 787.8113403320313 341.1161804199219 787.7924194335938 342.3777465820313 788.6142578125 343.2120361328125 C 789.16357421875 343.7696533203125 790.010498046875 344.0407104492188 791.2034301757813 344.0407104492188 C 792.0860595703125 344.0407104492188 792.8363037109375 343.9505920410156 793.4982299804688 343.8710632324219 C 794.0317993164063 343.8069763183594 794.49267578125 343.7516174316406 794.930908203125 343.7516174316406 C 795.8308715820313 343.7516174316406 796.6676025390625 343.9869689941406 797.7644653320313 345.0899658203125 L 797.4115600585938 345.7846374511719 C 796.7139282226563 347.1667785644531 796.797607421875 348.2672424316406 797.666748046875 349.1500854492188 C 798.7681274414063 350.2682495117188 800.614990234375 350.54052734375 802.2444458007813 350.78076171875 L 802.2584838867188 350.7828063964844 L 802.2725830078125 350.7840881347656 C 803.5291748046875 350.8970947265625 804.7368774414063 351.2134399414063 805.862548828125 351.7244262695313 C 806.4561157226563 352.0472717285156 806.7733154296875 352.5787658691406 806.8321533203125 353.3486938476563 C 806.963134765625 355.0635070800781 805.6865234375 357.4818115234375 804.5389404296875 358.3491516113281 C 802.7544555664063 359.5831909179688 802.2996826171875 361.8149719238281 803.4794311523438 363.5485534667969 C 803.9112548828125 364.2360229492188 804.7905883789063 365.2481384277344 806.5313720703125 366.1832275390625 C 808.4954833984375 367.23828125 811.1314086914063 367.9780578613281 814.3658447265625 368.3820495605469 C 816.9449462890625 368.7039489746094 817.388916015625 369.2400207519531 817.4635009765625 369.3966674804688 C 817.7869873046875 370.0743408203125 816.3159790039063 372.0659790039063 812.7131958007813 374.043701171875 C 810.6537475585938 375.1753845214844 809.5172729492188 376.3057556152344 809.2387084960938 377.49951171875 C 808.9446411132813 378.7594909667969 809.6657104492188 379.7916870117188 810.1922607421875 380.5453491210938 C 810.7205200195313 381.2996215820313 810.9461059570313 381.6540832519531 810.7783813476563 382.1815490722656 C 809.7882690429688 385.259521484375 810.5606689453125 386.9170227050781 811.9629516601563 389.9259643554688 L 811.9659423828125 389.9324035644531 L 812.80810546875 391.7686462402344 C 813.7050170898438 393.7766723632813 813.4537353515625 395.6119689941406 813.0846557617188 396.7971801757813 C 812.6531372070313 398.1828918457031 811.8803100585938 399.226806640625 811.3399658203125 399.5418395996094 C 808.307373046875 401.3168029785156 809.6097412109375 403.866943359375 810.9885864257813 406.5668029785156 L 811.0184936523438 406.6249694824219 C 811.2847290039063 407.1428833007813 811.56005859375 407.6784057617188 811.8358764648438 408.2598266601563 L 811.8450317382813 408.2791748046875 L 811.8558349609375 408.2976989746094 C 812.0159912109375 408.57177734375 812.119873046875 408.8683776855469 812.1639404296875 409.1725158691406 C 809.392822265625 409.3692321777344 807.3045043945313 410.7694702148438 805.3990478515625 412.1979370117188 L 804.7877807617188 412.6596069335938 C 802.0599365234375 414.7244873046875 798.9685668945313 417.0645141601563 794.5109252929688 417.0645141601563 C 794.1651000976563 417.0645141601563 793.8106079101563 417.0502624511719 793.457275390625 417.0221862792969 C 793.2535400390625 417.0070495605469 793.0502319335938 416.9998168945313 792.8331298828125 416.9998168945313 C 789.3726196289063 416.9998168945313 783.7676391601563 418.9266967773438 776.173828125 422.7269592285156 C 769.8345336914063 425.8994140625 763.891845703125 429.4966430664063 761.631103515625 430.8959655761719 L 760.5750732421875 431.5499267578125 L 760.2713623046875 431.7379760742188 C 759.2459106445313 432.1017456054688 758.3046264648438 432.6546936035156 757.5230102539063 433.3559265136719 L 757.5210571289063 433.357666015625 L 757.5191040039063 433.3594665527344 C 756.6610107421875 434.1456909179688 756.0131225585938 435.3139038085938 755.3865966796875 436.4436340332031 C 754.351318359375 438.3103942871094 753.3733520507813 440.0737609863281 751.613525390625 440.0737609863281 C 751.6134643554688 440.0737609863281 751.6134643554688 440.0737609863281 751.6133422851563 440.0737609863281 C 751.17431640625 440.0736999511719 750.6846313476563 439.9658203125 750.1578369140625 439.7530822753906 C 748.5289306640625 439.0952453613281 747.154296875 438.0245666503906 745.824951171875 436.9891052246094 C 743.8594360351563 435.4581298828125 742.0029296875 434.0120849609375 739.5414428710938 434.0120849609375 C 738.9229736328125 434.0120849609375 738.2819213867188 434.1075744628906 737.6361083984375 434.2959289550781 C 736.9077758789063 434.5083618164063 736.1725463867188 434.7361145019531 735.4614868164063 434.9563903808594 C 732.806396484375 435.77880859375 730.2985229492188 436.5556640625 728.2194213867188 436.5556640625 C 726.9407958984375 436.5556640625 725.946533203125 436.2564392089844 725.1798706054688 435.6408996582031 C 723.4684448242188 434.2670288085938 720.3550415039063 432.6626281738281 717.2129516601563 432.6626281738281 C 715.5825805664063 432.6626281738281 714.1937255859375 433.0999450683594 713.0850219726563 433.9624633789063 C 711.2528076171875 435.3879089355469 708.9481201171875 436.8175354003906 706.7618408203125 437.8847961425781 C 704.0250854492188 439.2208251953125 701.6058349609375 439.927001953125 699.765625 439.927001953125 C 698.5834350585938 439.927001953125 697.4548950195313 439.8628540039063 696.3634643554688 439.8008422851563 C 695.3427124023438 439.7428283691406 694.3786010742188 439.6880187988281 693.4334106445313 439.6880187988281 C 691.3685913085938 439.6880187988281 689.8291015625 439.9684753417969 688.4417724609375 440.5973815917969 C 687.3189086914063 441.1064147949219 686.4482421875 441.6416015625 685.6800537109375 442.1138305664063 C 684.190673828125 443.0293884277344 683.114501953125 443.6908874511719 681.1192016601563 443.6908874511719 C 680.6771850585938 443.6908874511719 680.2786254882813 443.682861328125 679.927001953125 443.6758117675781 C 679.642578125 443.6701049804688 679.3739013671875 443.6647033691406 679.13330078125 443.6647033691406 C 677.3243408203125 443.6647033691406 676.6272583007813 444.0498046875 676.3187866210938 446.2136535644531 L 676.3176879882813 446.2214050292969 L 676.3168334960938 446.2291870117188 C 676.2776489257813 446.5830078125 676.1858520507813 446.9303283691406 676.0440063476563 447.2615661621094 C 675.3799438476563 448.8110046386719 673.6763305664063 449.8520812988281 671.8048095703125 449.8520812988281 Z" stroke="none"/>
      <path d="M 671.8048095703125 449.3520812988281 C 673.4791259765625 449.3520812988281 674.998046875 448.4327697753906 675.5844116210938 447.0646667480469 C 675.7068481445313 446.7787170410156 675.7860717773438 446.4790954589844 675.81982421875 446.1741943359375 L 675.8215942382813 446.1586303710938 L 675.8237915039063 446.1431274414063 C 676.1451416015625 443.888427734375 676.9493408203125 443.1647033691406 679.13330078125 443.1647033691406 C 679.37890625 443.1647033691406 679.6500244140625 443.1701354980469 679.9370727539063 443.1759033203125 C 680.2863159179688 443.1829223632813 680.6821899414063 443.1908874511719 681.1192016601563 443.1908874511719 C 682.97314453125 443.1908874511719 683.9458618164063 442.5929565429688 685.4182739257813 441.6878662109375 C 686.198974609375 441.2079467773438 687.0838623046875 440.6640014648438 688.2353515625 440.1420288085938 C 689.6907348632813 439.4822692871094 691.2938232421875 439.1880493164063 693.433349609375 439.1880493164063 C 694.3927001953125 439.1880493164063 695.36376953125 439.2432250976563 696.3917846679688 439.3016662597656 C 697.4762573242188 439.36328125 698.5975952148438 439.427001953125 699.765625 439.427001953125 C 703.7870483398438 439.427001953125 709.7506713867188 435.9230346679688 712.7780151367188 433.5678100585938 C 713.9766235351563 432.6354064941406 715.46875 432.1626281738281 717.2129516601563 432.1626281738281 C 720.4848022460938 432.1626281738281 723.7181396484375 433.8262939453125 725.4928588867188 435.2510070800781 C 726.1672973632813 435.7924499511719 727.0591430664063 436.0556640625 728.2194213867188 436.0556640625 C 730.222900390625 436.0556640625 732.6956787109375 435.2896728515625 735.3136596679688 434.4787292480469 C 736.026611328125 434.2578735351563 736.7637939453125 434.0295104980469 737.49609375 433.81591796875 C 738.1874389648438 433.6142883300781 738.8755493164063 433.5120544433594 739.5414428710938 433.5120544433594 C 742.1746826171875 433.5120544433594 744.1865844726563 435.0791320800781 746.1322021484375 436.5946044921875 C 747.4343872070313 437.6089477539063 748.7809448242188 438.6578063964844 750.3450317382813 439.2894592285156 C 750.8120727539063 439.4780578613281 751.2388305664063 439.5736999511719 751.613525390625 439.57373046875 C 752.9801635742188 439.57373046875 753.7854614257813 438.2995910644531 754.9492797851563 436.2010803222656 C 755.5952758789063 435.036376953125 756.2632446289063 433.8320007324219 757.1813354492188 432.9908142089844 L 757.1851806640625 432.9872436523438 L 757.1890869140625 432.9837341308594 C 758.0059814453125 432.2508850097656 758.986083984375 431.6708374023438 760.052978515625 431.2851257324219 L 760.3118286132813 431.1248168945313 L 761.3679809570313 430.4707946777344 C 766.6629638671875 427.193359375 784.5807495117188 416.4998168945313 792.8331298828125 416.4998168945313 C 793.0592651367188 416.4998168945313 793.2808227539063 416.5077209472656 793.4915161132813 416.5233154296875 L 793.4942016601563 416.5235290527344 L 793.4968872070313 416.5237426757813 C 793.8369750976563 416.5508117675781 794.1781616210938 416.5645141601563 794.5109252929688 416.5645141601563 C 798.8006591796875 416.5645141601563 801.8209228515625 414.2783203125 804.4864501953125 412.2606506347656 L 805.09912109375 411.7978820800781 C 806.9260864257813 410.4282531738281 808.9187622070313 409.083740234375 811.5199584960938 408.7356262207031 C 811.4915161132813 408.6725463867188 811.4595947265625 408.6105651855469 811.4241333007813 408.5498962402344 L 811.4025268554688 408.5128784179688 L 811.3840942382813 408.4741516113281 C 811.1116943359375 407.8999633789063 810.8382568359375 407.3680419921875 810.5738525390625 406.8536071777344 L 810.5433959960938 406.7943115234375 C 809.828125 405.393798828125 809.1524658203125 404.0709228515625 809.0166625976563 402.8269653320313 C 808.8460083007813 401.264892578125 809.54248046875 400.0145568847656 811.088134765625 399.1098937988281 C 811.469970703125 398.8872985839844 812.1937255859375 397.9764709472656 812.6072387695313 396.6485290527344 C 812.9505004882813 395.5463256835938 813.1845703125 393.8407287597656 812.3513793945313 391.9722290039063 L 811.5111083984375 390.1401977539063 L 811.5097045898438 390.1371765136719 C 810.1019897460938 387.1163940429688 809.2522583007813 385.2930603027344 810.3018798828125 382.030029296875 C 810.3876953125 381.7600708007813 810.3152465820313 381.5925598144531 809.7823486328125 380.8316955566406 C 809.2346801757813 380.0477294921875 808.4070434570313 378.863037109375 808.7517700195313 377.3858947753906 C 809.0645141601563 376.0459899902344 810.2814331054688 374.8094482421875 812.4725952148438 373.6053771972656 C 813.9329833984375 372.8037109375 815.1987915039063 371.8988952636719 816.0369262695313 371.0575866699219 C 816.8316650390625 370.259765625 817.0038452148438 369.7644653320313 817.0071411132813 369.6170043945313 C 816.9075317382813 369.5269165039063 816.3678588867188 369.1357727050781 814.3038330078125 368.878173828125 C 811.0079956054688 368.4665222167969 808.3133544921875 367.7080078125 806.2947387695313 366.6236877441406 C 804.4642944335938 365.6404724121094 803.5267333984375 364.5608825683594 803.0609130859375 363.822265625 C 801.75244140625 361.8905639648438 802.2708740234375 359.3173217773438 804.24462890625 357.94482421875 C 805.1771850585938 357.2333068847656 806.4583740234375 355.0200500488281 806.3336181640625 353.3867492675781 C 806.2752075195313 352.6224060058594 805.9163208007813 352.3260498046875 805.638916015625 352.1720275878906 C 804.5693359375 351.6888732910156 803.421875 351.3894348144531 802.2278442382813 351.2820739746094 L 802.1995849609375 351.279541015625 L 802.1715698242188 351.2754211425781 C 800.5488891601563 351.0361938476563 798.5294799804688 350.7384948730469 797.3104248046875 349.5008544921875 C 796.286376953125 348.4606018066406 796.1699829101563 347.1348876953125 796.9657592773438 345.5581665039063 L 797.1509399414063 345.1936645507813 C 796.304443359375 344.4224853515625 795.6552124023438 344.2516174316406 794.930908203125 344.2516174316406 C 794.5225830078125 344.2516174316406 794.0755004882813 344.3053283691406 793.557861328125 344.3675231933594 C 792.8820190429688 344.4486999511719 792.115966796875 344.5407104492188 791.2034301757813 344.5407104492188 C 789.8696899414063 344.5407104492188 788.90625 344.2208862304688 788.258056640625 343.5629272460938 C 787.2893676757813 342.5795593261719 787.3107299804688 341.1528015136719 787.3314819335938 339.7730407714844 C 787.3345336914063 339.5680541992188 787.3377075195313 339.3561096191406 787.3377075195313 339.1477966308594 C 787.3377075195313 339.0365905761719 787.3268432617188 338.8414916992188 787.2543334960938 338.7847290039063 C 787.1403198242188 338.6956176757813 786.8564453125 338.6233520507813 786.6060791015625 338.5596008300781 C 785.913330078125 338.3832397460938 784.471923828125 338.0162353515625 784.471923828125 336.2192077636719 C 784.471923828125 335.2815856933594 784.3903198242188 334.6017761230469 783.9840087890625 334.1103820800781 C 783.476806640625 333.4969177246094 782.35986328125 333.0602416992188 780.6630249023438 332.8123168945313 C 780.3961791992188 332.7729797363281 780.1536865234375 332.7355041503906 779.931396484375 332.6990966796875 C 779.8023681640625 334.3204650878906 778.8184204101563 335.7803649902344 777.1279907226563 336.8412780761719 C 775.2269897460938 338.0343627929688 772.48486328125 338.6650085449219 769.197998046875 338.6650085449219 C 762.7813720703125 338.6650085449219 755.5919799804688 338.136474609375 750.573974609375 334.3106994628906 C 749.9267578125 335.619140625 749.3953857421875 336.97607421875 748.9895629882813 338.3583374023438 L 748.9837646484375 338.3780212402344 L 748.9771118164063 338.3975219726563 L 748.6528930664063 339.3545532226563 C 746.6415405273438 345.2288208007813 744.501708984375 347.6764831542969 741.7007446289063 349.7218017578125 C 739.1181030273438 351.6069641113281 732.5107421875 352.2787170410156 727.1883544921875 352.2787780761719 C 725.2752685546875 352.2787780761719 723.368896484375 352.1936645507813 721.6402587890625 352.03173828125 C 715.7554321289063 358.3048400878906 709.2831420898438 365.6466674804688 707.8197631835938 368.2094421386719 C 707.0010986328125 369.642578125 706.5166015625 372.658935546875 706.4555053710938 376.7028198242188 C 706.4013061523438 380.2936706542969 706.6871948242188 384.6669311523438 707.2399291992188 388.7009887695313 C 707.5940551757813 391.2804260253906 706.385986328125 394.3291320800781 703.7462768554688 397.5174865722656 C 701.7774047851563 399.8955078125 699.0365600585938 402.305419921875 696.4151611328125 403.9635314941406 C 694.1204833984375 405.4179382324219 692.225341796875 406.1085205078125 690.461669921875 406.1315307617188 C 690.1249389648438 406.2198486328125 688.9199829101563 406.9386901855469 687.4624633789063 408.7532958984375 C 686.2975463867188 410.2035827636719 684.7398681640625 412.6483154296875 683.9346923828125 416.0588684082031 C 683.113037109375 419.5390014648438 678.8715209960938 423.0010681152344 671.327880859375 426.3488464355469 C 665.6640014648438 428.8623962402344 660.0693359375 430.4326782226563 659.8331909179688 430.4985046386719 L 659.1892700195313 430.6774597167969 C 659.1790771484375 432.8785095214844 659.8468627929688 435.0222473144531 661.1392211914063 436.9177551269531 C 661.7554931640625 437.7550354003906 662.4814453125 438.4387817382813 663.122314453125 439.0424499511719 C 664.1734619140625 440.0326232910156 665.081298828125 440.8877563476563 664.9509887695313 442.0314636230469 C 664.8378295898438 443.0246887207031 663.9745483398438 443.6361694335938 663.3350219726563 444.0097351074219 C 663.1517333984375 444.1167907714844 663.1173095703125 444.1890258789063 663.1171875 444.1890258789063 C 663.1171875 444.1890258789063 663.1171875 444.1890258789063 663.1171875 444.1890258789063 C 663.0888061523438 444.3205871582031 663.394287109375 445.146728515625 665.3347778320313 446.5081481933594 C 666.80517578125 447.5397644042969 668.7666625976563 448.5599365234375 670.3319702148438 449.1072387695313 C 670.8058471679688 449.2697143554688 671.3013305664063 449.3520812988281 671.8048095703125 449.3520812988281 M 671.8048095703125 450.3520812988281 C 671.2052001953125 450.3520812988281 670.5953979492188 450.25537109375 670.002197265625 450.0513000488281 C 666.4127807617188 448.79638671875 659.9649047851563 444.8198852539063 662.8306884765625 443.1462097167969 C 665.6961059570313 441.4725036621094 662.4724731445313 440.4270935058594 660.3231201171875 437.4959106445313 C 658.767578125 435.22119140625 658.0324096679688 432.5722045898438 658.2175903320313 429.9096069335938 L 659.5654296875 429.5350036621094 C 660.4465942382813 429.2893981933594 681.17041015625 423.4154052734375 682.96142578125 415.8291015625 C 684.5064086914063 409.2850036621094 688.9421997070313 405.3110046386719 690.3704833984375 405.1321105957031 C 691.9642944335938 405.1321105957031 693.71240234375 404.4926147460938 695.8798217773438 403.118896484375 C 700.2659912109375 400.3445129394531 706.9603271484375 394.0162048339844 706.2492065429688 388.8370056152344 C 705.19091796875 381.1127014160156 704.9572143554688 371.2044067382813 706.9514770507813 367.7134094238281 C 708.7058715820313 364.6409912109375 716.514892578125 356.0205078125 721.2485961914063 350.9880981445313 C 723.1041870117188 351.1817626953125 725.1397094726563 351.2787780761719 727.1883544921875 351.2787475585938 C 733.0169677734375 351.2787170410156 738.94775390625 350.4932556152344 741.1112060546875 348.9140930175781 C 743.7548217773438 346.9836120605469 745.7796020507813 344.6592102050781 747.706787109375 339.0306091308594 L 748.030029296875 338.0765991210938 C 748.5667724609375 336.2485961914063 749.309326171875 334.4743041992188 750.2465209960938 332.7810974121094 C 750.3765258789063 332.8749084472656 750.5294799804688 332.9937133789063 750.7086181640625 333.1395874023438 C 755.49609375 337.1274108886719 762.7376098632813 337.6650085449219 769.197998046875 337.6650085449219 C 775.9298706054688 337.6650085449219 778.9459838867188 334.9874877929688 778.9459838867188 332.3316955566406 C 778.927978515625 332.1135864257813 778.9630126953125 331.8947143554688 779.048095703125 331.6897888183594 L 778.263916015625 331.4283142089844 L 778.86376953125 331.5470886230469 L 778.9005737304688 331.4836120605469 C 779.3759765625 331.5942993164063 779.9652709960938 331.6986999511719 780.8087768554688 331.822998046875 C 785.11376953125 332.4519958496094 785.471923828125 334.1290893554688 785.471923828125 336.2192077636719 C 785.471923828125 338.3092956542969 788.3377075195313 336.8450927734375 788.3377075195313 339.1477966308594 C 788.3377075195313 341.4505004882813 787.9722290039063 343.5407104492188 791.2034301757813 343.5407104492188 C 792.75439453125 343.5407104492188 793.8909301757813 343.2516174316406 794.930908203125 343.2516174316406 C 796.0576782226563 343.2516174316406 797.0709838867188 343.5909729003906 798.375 345.0050048828125 C 798.4456787109375 345.0820007324219 798.5191040039063 345.1318054199219 798.5897827148438 345.2008056640625 L 798.2943115234375 345.1510009765625 L 797.8572998046875 346.0111083984375 C 797.2628173828125 347.1889953613281 797.3121948242188 348.0772094726563 798.0230712890625 348.7992858886719 C 799.00390625 349.7951049804688 800.76611328125 350.0574035644531 802.3173828125 350.2861022949219 C 803.6307983398438 350.4042053222656 804.908203125 350.739990234375 806.0847778320313 351.2762145996094 C 808.7553100585938 352.7044067382813 806.6069946289063 357.4230041503906 804.8311767578125 358.7550048828125 C 803.2750244140625 359.8255920410156 802.8723754882813 361.7760925292969 803.8978881835938 363.2746887207031 C 804.7324829101563 364.6098022460938 807.2069091796875 366.9840087890625 814.4277954101563 367.8858947753906 C 816.4526977539063 368.1386108398438 817.6259155273438 368.5750122070313 817.9149169921875 369.1816101074219 C 818.478271484375 370.3619079589844 816.3944091796875 372.5932922363281 812.9537963867188 374.4819946289063 C 808.3425903320313 377.0158996582031 809.644775390625 378.8886108398438 810.6021118164063 380.2590026855469 C 811.1257934570313 381.0067138671875 811.5048828125 381.5468139648438 811.2548217773438 382.3330993652344 C 810.3236083984375 385.2280883789063 811.0247802734375 386.7291870117188 812.4191284179688 389.72119140625 L 813.2625732421875 391.5602111816406 C 815.0018920898438 395.4541015625 812.8787231445313 399.2235107421875 811.591796875 399.9737854003906 C 808.966796875 401.5101928710938 810.0531005859375 403.6357116699219 811.4348754882813 406.34130859375 C 811.7053833007813 406.8676147460938 811.998291015625 407.4356994628906 812.28759765625 408.0455017089844 C 812.5761108398438 408.5393981933594 812.7128295898438 409.0932006835938 812.6843872070313 409.6502075195313 C 809.811279296875 409.6966857910156 807.6627197265625 411.1257934570313 805.698974609375 412.5979919433594 L 805.0891723632813 413.05859375 C 802.285888671875 415.1805725097656 799.1146240234375 417.5645141601563 794.5109252929688 417.5645141601563 C 794.1552734375 417.5645141601563 793.7908325195313 417.55029296875 793.4176025390625 417.5205993652344 C 793.2289428710938 417.5066223144531 793.034912109375 417.4998168945313 792.8331298828125 417.4998168945313 C 784.9302368164063 417.4998168945313 767.2208251953125 428.0241088867188 761.894287109375 431.3211059570313 L 760.8383178710938 431.9750061035156 L 760.9625854492188 432.0430908203125 C 759.7904052734375 432.3713989257813 758.7246704101563 432.9495849609375 757.8568725585938 433.7280883789063 C 755.6731567382813 435.7290344238281 754.85107421875 440.573974609375 751.6133422851563 440.57373046875 C 751.1250610351563 440.5736999511719 750.5816650390625 440.4634704589844 749.9705810546875 440.2167053222656 C 745.8873901367188 438.5677185058594 743.454345703125 434.5120544433594 739.5414428710938 434.5120544433594 C 738.9859008789063 434.5120544433594 738.4002685546875 434.5938720703125 737.776123046875 434.7759094238281 C 734.36572265625 435.7706909179688 730.955322265625 437.0556640625 728.2194213867188 437.0556640625 C 726.9279174804688 437.0556640625 725.78662109375 436.7692565917969 724.8668212890625 436.0307922363281 C 722.9655151367188 434.5044555664063 719.9625854492188 433.1626281738281 717.2129516601563 433.1626281738281 C 715.8143310546875 433.1626281738281 714.4808349609375 433.5101013183594 713.3920288085938 434.3570861816406 C 710.1629028320313 436.8692932128906 704.0676879882813 440.427001953125 699.765625 440.427001953125 C 697.46875 440.427001953125 695.3765258789063 440.1880187988281 693.433349609375 440.1880187988281 C 691.73681640625 440.1880187988281 690.1538696289063 440.3702392578125 688.648193359375 441.0527954101563 C 685.4180908203125 442.51708984375 684.3505249023438 444.1908874511719 681.1192016601563 444.1908874511719 C 680.3110961914063 444.1908874511719 679.6605834960938 444.1647033691406 679.13330078125 444.1647033691406 C 677.5526123046875 444.1647033691406 677.0823364257813 444.4003601074219 676.8137817382813 446.2842102050781 C 676.769287109375 446.6861877441406 676.6652221679688 447.0810852050781 676.5036010742188 447.4584045410156 C 675.7351684570313 449.2514343261719 673.8276977539063 450.3520812988281 671.8048095703125 450.3520812988281 Z" stroke="none" fill="#30abec"/>
    </g>
    <text id="penshui" transform="translate(141.579 107.746)" fill="#fff" font-size="10" font-family="MicrosoftYaHei, Microsoft YaHei"><tspan x="0" y="0">彭水苗族土</tspan><tspan x="0" y="16">家族自治县</tspan></text>
    <g transform="matrix(1, 0, 0, 1, 48.69, 50.43)" filter="url(#thick_1)">
      <path id="thick_1-2" data-name="thick_1" d="M13.616,134.924h0a5.531,5.531,0,0,1-1.8-.3,23.415,23.415,0,0,1-4.961-2.532c-1.8-1.214-2.836-2.353-2.918-3.207a1.192,1.192,0,0,1,.709-1.166c.721-.421,1.079-.812,1.127-1.228.074-.646-.63-1.309-1.521-2.147a16.605,16.605,0,0,1-2.114-2.275,11.874,11.874,0,0,1-2.106-7.587l0-14.445a12.083,12.083,0,0,0,2.11,6.032,16.609,16.609,0,0,0,2.114,2.275c.891.839,1.594,1.5,1.521,2.147-.047.416-.405.807-1.127,1.228a1.192,1.192,0,0,0-.709,1.166c.082.854,1.119,1.993,2.919,3.207a23.421,23.421,0,0,0,4.961,2.531,5.523,5.523,0,0,0,1.8.3,5.082,5.082,0,0,0,4.7-2.893,4.139,4.139,0,0,0,.31-1.174c.267-1.87.707-2.12,2.318-2.12.236,0,.5.005.784.011.354.007.755.015,1.2.015a8.216,8.216,0,0,0,4.823-1.651,23.363,23.363,0,0,1,2.706-1.487,11.186,11.186,0,0,1,4.784-.865c.931,0,1.888.054,2.9.112,1.1.062,2.235.127,3.432.127,4.607,0,10.928-3.971,13.626-6.071a6.062,6.062,0,0,1,3.821-1.194,13.217,13.217,0,0,1,7.654,2.868,5.147,5.147,0,0,0,3.353,1.025,27.279,27.279,0,0,0,7.388-1.621c.709-.22,1.442-.447,2.169-.659a6.318,6.318,0,0,1,1.765-.264c2.29,0,4.08,1.395,5.976,2.871a18.828,18.828,0,0,0,4.453,2.833,4.43,4.43,0,0,0,1.642.357c2.054,0,3.15-1.976,4.211-3.887a11.876,11.876,0,0,1,2.034-2.959,7.826,7.826,0,0,1,3.105-1.685l-.124-.067,1.057-.654c2.254-1.4,8.18-4.983,14.5-8.147,7.524-3.765,13.053-5.674,16.435-5.674.2,0,.4.007.584.021.366.029.734.044,1.093.044,4.625,0,7.788-2.394,10.579-4.506l.609-.46c1.943-1.457,4.079-2.884,6.935-2.947v.132c.018,3.6.076,15.381.05,15.867-2.879.047-5.03,1.482-6.986,2.948l-.609.461c-2.791,2.112-5.953,4.506-10.579,4.506-.359,0-.727-.015-1.093-.044-.186-.014-.383-.021-.584-.021-3.382,0-8.911,1.909-16.435,5.674-6.324,3.165-12.25,6.752-14.5,8.147l-1.057.653.124.068a7.825,7.825,0,0,0-3.105,1.685,11.877,11.877,0,0,0-2.034,2.958c-1.06,1.911-2.157,3.887-4.211,3.888a4.428,4.428,0,0,1-1.642-.357,18.84,18.84,0,0,1-4.452-2.833c-1.9-1.477-3.687-2.872-5.977-2.872a6.319,6.319,0,0,0-1.765.264c-.723.211-1.454.438-2.162.657a27.307,27.307,0,0,1-7.4,1.623,5.148,5.148,0,0,1-3.352-1.025,13.217,13.217,0,0,0-7.654-2.868,6.062,6.062,0,0,0-3.821,1.194c-2.7,2.1-9.02,6.07-13.626,6.07-1.2,0-2.332-.064-3.43-.127-1.014-.058-1.971-.112-2.9-.112a11.193,11.193,0,0,0-4.787.865,23.359,23.359,0,0,0-2.706,1.487,8.216,8.216,0,0,1-4.823,1.651c-.447,0-.848-.008-1.2-.015-.283-.006-.549-.011-.785-.011-1.61,0-2.051.249-2.318,2.119a4.139,4.139,0,0,1-.31,1.174,4.6,4.6,0,0,1-1.879,2.119A5.443,5.443,0,0,1,13.616,134.924ZM153.646,75.7h0c-.121-.24-.241-.473-.356-.7l-.008-.015-.036-.07c-1.379-2.7-2.468-4.832.157-6.368a6.387,6.387,0,0,0,2.269-4.414c.57,7.379.518,10.138-.908,10.922-.442.243-.807.453-1.117.643Zm.485-17.614h0c-1.384-2.973-1.958-4.4-1.065-7.177.249-.786-.129-1.326-.652-2.073a3.359,3.359,0,0,1-.877-2.648c.245-1.048,1.3-2.072,3.228-3.132,2.941-1.614,4.922-3.481,5.047-4.756-.023,1.686-.139,14.825.017,15.423.071.537-3.708,3.431-5.7,4.362Z" transform="translate(27.5)" stroke="rgba(0,0,0,0)" stroke-width="1" fill="url(#linear-gradient-2)"/>
    </g>
  </g>
</svg>
