<svg xmlns="http://www.w3.org/2000/svg" xmlns:xlink="http://www.w3.org/1999/xlink" width="145.095" height="151.136" viewBox="0 0 145.095 151.136">
  <defs>
    <linearGradient id="linear-gradient" x1="0.435" y1="1.017" x2="0.462" y2="0.586" gradientUnits="objectBoundingBox">
      <stop offset="0" stop-color="#191e64"/>
      <stop offset="1" stop-color="#17448b"/>
    </linearGradient>
    <filter id="thick_1" x="0" y="0" width="145.095" height="151.136" filterUnits="userSpaceOnUse">
      <feOffset dy="8" input="SourceAlpha"/>
      <feGaussianBlur stdDeviation="9" result="blur"/>
      <feFlood flood-color="#0f093c" flood-opacity="0.161"/>
      <feComposite operator="in" in2="blur"/>
      <feComposite in="SourceGraphic"/>
    </filter>
    <radialGradient id="radial-gradient" cx="0.5" cy="0.5" r="0.5" gradientUnits="objectBoundingBox">
      <stop offset="0" stop-color="#1fb9e6"/>
      <stop offset="1" stop-color="#0669d2"/>
    </radialGradient>
  </defs>
  <g id="qianjiang" transform="translate(-90.5 -60.979)">
    <g transform="matrix(1, 0, 0, 1, 90.5, 60.98)" filter="url(#thick_1)">
      <path id="thick_1-2" data-name="thick_1" d="M-2023.516,124.615c-.056,0-.117,0-.186,0-1.274-.211-2.818-2.072-4.18-3.715a43.581,43.581,0,0,0-2.962-3.321,14.5,14.5,0,0,0-3.262-2.52c.528-.885.449-2.022-.243-3.478-.241-.506-.494-1.016-.775-1.558l-.105-.2-.018-.035c-.66-1.292-1.342-2.629-1.221-3.245l-.016-.019V92.732a10.391,10.391,0,0,0,1.249,3.072l.008.015.1.2c.259.5.52,1.023.776,1.559.692,1.456.771,2.593.242,3.477a14.489,14.489,0,0,1,3.262,2.521,43.5,43.5,0,0,1,2.96,3.319l.014.017c1.358,1.636,2.9,3.49,4.168,3.7.056,0,.117,0,.186,0a4.634,4.634,0,0,0,1.919-.414c2.028-.761,2.2-1.312,2.367-1.845a2.215,2.215,0,0,1,1.653-1.6,4.983,4.983,0,0,1,1.6-.242,24.363,24.363,0,0,1,4.974.829l.012,0a26.776,26.776,0,0,0,4.4.836,2.644,2.644,0,0,0,1.422-.457,31.315,31.315,0,0,1,4.148-1.89,7.11,7.11,0,0,0,2.7-1.478c.972-.9,1.77-1.281,4.195-1.281,1.516,0,3.635.143,6.843.36l2.56.176c2.127.149,3.532.247,4.495.247,1.893,0,2.044-.38,2.491-1.508l.093-.232c.108-.269.23-.575.369-.9,1.555-3.628,5.9-7.568,8.772-10.175l.016-.015c.843-.765,1.378-1.254,1.748-1.633l.763-.778,1.758.585c-.211-1.876,2.109-5.636,3.973-8.657l.01-.017c.33-.535.642-1.04.92-1.5a2.55,2.55,0,0,0,.4-1.18l.012-.01V91.619l-.014,0a2.4,2.4,0,0,1-.393,1.4c-.286.478-.614,1.008-.93,1.521-1.864,3.022-4.185,6.782-3.973,8.658l-1.758-.585-.763.778c-.366.376-.905.868-1.749,1.633l-.027.024c-2.87,2.605-7.208,6.543-8.761,10.166-.135.315-.254.613-.359.876l-.1.258c-.447,1.128-.6,1.508-2.489,1.508-.962,0-2.368-.1-4.5-.248l-2.56-.176c-3.2-.217-5.322-.36-6.84-.36-2.427,0-3.225.378-4.2,1.282a7.116,7.116,0,0,1-2.7,1.478,31.243,31.243,0,0,0-4.146,1.888,2.648,2.648,0,0,1-1.424.458,26.794,26.794,0,0,1-4.4-.835l-.011,0a24.322,24.322,0,0,0-4.974-.83,4.983,4.983,0,0,0-1.6.242,2.217,2.217,0,0,0-1.653,1.6c-.167.533-.339,1.084-2.367,1.846A4.629,4.629,0,0,1-2023.516,124.615Zm-11.574-33.294h0a5.235,5.235,0,0,1-.2-4.183,3.923,3.923,0,0,0-.923-3.657,2.585,2.585,0,0,1-.55-1.038v-.009a.8.8,0,0,1,0-.113l.015-13.026c-4.266-.672-5.655-1.976-6.1-2.694a1.292,1.292,0,0,1-.147-1.382V53.02a17.7,17.7,0,0,0-4.775-1.174l-.12-.018-.4-.06-.7-.03v-.1l.031-13.989c.27.058.68.118,1.042.172l.151.022a17.562,17.562,0,0,1,5.839,1.643,4.879,4.879,0,0,1,2.842,4.045,7.881,7.881,0,0,1-1.058,4.2,9.756,9.756,0,0,1-2.5,3.034,1.307,1.307,0,0,0-.205,1.828c.492.789,2.056,2.2,7.008,2.821,4.876.609,6.565,2.125,7.123,3.29,1.631,3.41-4.41,7.07-6.3,8.111-1.154.632-1.638,1.028-1.728,1.413-.084.358.163.71.536,1.244a3.924,3.924,0,0,1,.924,3.658c-.727,2.265-.273,3.239,1.075,6.127l.862,1.873a9.248,9.248,0,0,1,.6,5.861,8.9,8.9,0,0,1-2.339,4.322Zm64.769-18.414h0a4.932,4.932,0,0,1-3.7-2.62,2.174,2.174,0,0,1,.365-2.142q.152-.2.3-.387l.022-.028c1.284-1.657,2.058-2.656.4-4.4a1.237,1.237,0,0,1-.322-1.186c.43-1.932,4.493-4.484,7.136-5.51.8-.311,1.221-.675,1.244-1.082l.008,0V69.462l-.01,0c.04.443-.378.838-1.243,1.175a21.184,21.184,0,0,0-4.194,2.273Zm-76.03-36.624v0l-.114-8.227a5.7,5.7,0,0,0,1.495,2.441c.213.259.434.527.669.825.688.871.958,1.4.9,1.784-.05.338-.346.545-.756.832a5.119,5.119,0,0,0-1.579,1.567,3.257,3.257,0,0,1-.615.779Z" transform="translate(2076.5 -8.98)" stroke="rgba(0,0,0,0)" stroke-width="1" fill="url(#linear-gradient)"/>
    </g>
    <path id="thick_qijiang" d="M881.143,382.689c-3.224-.626-5.021-2.929-3.582-4.814s2.515-2.929.717-4.814,3.582-5.441,6.814-6.7-.364-3.138-4.663-3.976-4.306-2.3-6.815-6.7-2.507-1.464-7.889.839-5.381.416-6.455-2.093-2.866-2.512-3.582-.209-2.866,3.138-5.021.839-5.738-3.558-10.757-5.857-4.663-11.715-6.1-18.2-5.015-6.905-7.889-8.163-15.421,8.369-19.006,11.511-2.149,3.974,0,6.7,0,1.883-1.433,4.184a3.662,3.662,0,0,1-3.143,1.773,1.931,1.931,0,0,0-.124.369c.3.067.822.141,1.225.2a17.619,17.619,0,0,1,5.839,1.643c5.432,2.9,1.923,9.307-.711,11.282a1.3,1.3,0,0,0-.206,1.829c.493.789,2.06,2.2,7.009,2.821,4.879.61,6.565,2.126,7.122,3.29,1.634,3.414-4.411,7.07-6.3,8.11-2.2,1.208-1.971,1.544-1.191,2.658a3.9,3.9,0,0,1,.923,3.657c-.726,2.264-.274,3.237,1.075,6.128l.862,1.873c2.176,4.87-.3,9.582-2.928,11.113-.6.347.244,1.986,1.052,3.568l.1.2c.25.482.512,1,.775,1.558.686,1.444.77,2.595.243,3.477a14.5,14.5,0,0,1,3.263,2.52,43.614,43.614,0,0,1,2.961,3.32c1.373,1.655,2.906,3.5,4.181,3.715a4.629,4.629,0,0,0,2.105-.411c2.028-.762,2.2-1.313,2.367-1.846a2.222,2.222,0,0,1,1.653-1.6c1.48-.488,3.063-.213,6.578.587,4.6,1.043,4.6,1.043,5.835.38a31.093,31.093,0,0,1,4.146-1.889,7.079,7.079,0,0,0,2.7-1.478c1.671-1.553,2.921-1.47,11.038-.921l2.56.177c6.3.441,6.31.441,6.985-1.261.135-.336.283-.714.462-1.134,1.557-3.635,5.91-7.578,8.788-10.19.791-.717,1.37-1.244,1.748-1.633l.763-.777,1.758.585c-.25-2.217,3.078-7.134,4.9-10.179C894.412,384.569,884.372,383.317,881.143,382.689Z" transform="translate(-684.218 -257.73)" stroke="#30abec" stroke-width="1" opacity="0.67" fill="url(#radial-gradient)"/>
    <text id="qianjiangqu" transform="translate(164.361 130.016)" fill="#fff" font-size="10" font-family="MicrosoftYaHei, Microsoft YaHei"><tspan x="-15" y="0">黔江区</tspan></text>
  </g>
</svg>
