<svg xmlns="http://www.w3.org/2000/svg" xmlns:xlink="http://www.w3.org/1999/xlink" width="327" height="258" viewBox="0 0 327 258">
  <defs>
    <radialGradient id="radial-gradient" cx="0.5" cy="0.5" r="0.5" gradientUnits="objectBoundingBox">
      <stop offset="0" stop-color="#1fb9e6"/>
      <stop offset="1" stop-color="#0669d2"/>
    </radialGradient>
    <linearGradient id="linear-gradient" x1="0.5" x2="0.5" y2="1" gradientUnits="objectBoundingBox">
      <stop offset="0" stop-color="#191e64"/>
      <stop offset="1" stop-color="#17448b"/>
    </linearGradient>
    <filter id="qijiang1" x="72.479" y="39.644" width="181.241" height="203.623" filterUnits="userSpaceOnUse">
      <feOffset dy="8" input="SourceAlpha"/>
      <feGaussianBlur stdDeviation="9" result="blur"/>
      <feFlood flood-opacity="0.161"/>
      <feComposite operator="in" in2="blur"/>
      <feComposite in="SourceGraphic"/>
    </filter>
    <clipPath id="clip-qijiang">
      <rect width="327" height="258"/>
    </clipPath>
  </defs>
  <g id="qijiang" clip-path="url(#clip-qijiang)">
    <rect width="327" height="258" fill="rgba(0,0,0,0)"/>
    <g id="qijiang-2" data-name="qijiang" transform="translate(-0.986 -9)">
      <g id="thick_qijiang" transform="translate(-282.543 -344.345)" opacity="0.67" fill="url(#radial-gradient)">
        <path d="M 470.971435546875 543.6183471679688 C 469.6529846191406 543.6183471679688 468.7540283203125 543.14794921875 468.0567321777344 542.09326171875 C 466.6596984863281 539.980224609375 465.3262939453125 539.1182861328125 463.4543151855469 539.1182861328125 C 462.5061340332031 539.1182861328125 461.4546813964844 539.3311157226563 460.1786804199219 539.609375 C 459.5409851074219 539.7484130859375 458.9293823242188 539.8189086914063 458.3608093261719 539.8189086914063 C 456.3952941894531 539.8189086914063 454.8390808105469 539.0259399414063 453.3147888183594 537.2477416992188 C 452.41943359375 536.2032470703125 450.9083862304688 535.6511840820313 448.9449157714844 535.6511840820313 C 447.0479736328125 535.6511840820313 444.8582153320313 536.172119140625 442.779052734375 537.1180419921875 C 441.092529296875 537.8853149414063 438.9595642089844 538.4422607421875 437.707275390625 538.4422607421875 C 437.3563537597656 538.4422607421875 437.1767272949219 538.3980712890625 437.0934753417969 538.3668212890625 C 437.1703796386719 538.2001342773438 437.5042419433594 537.7096557617188 438.9469909667969 536.728515625 C 444.136962890625 533.19921875 449.1455078125 527.7398071289063 448.6764526367188 524.1338500976563 C 448.2794799804688 521.08251953125 448.5946044921875 520.4600830078125 452.4230041503906 516.733642578125 C 453.4929809570313 515.6922607421875 454.6253356933594 514.770263671875 455.6243896484375 513.956787109375 C 457.5475158691406 512.3909912109375 458.7082824707031 511.4458923339844 458.4101867675781 510.5325012207031 C 458.1647644042969 509.7804260253906 457.0484924316406 509.6221618652344 455.9889221191406 509.5665283203125 L 455.9303894042969 509.5634460449219 C 453.5339660644531 509.4376220703125 449.9124755859375 509.2474670410156 446.8805847167969 508.6842956542969 C 445.2420654296875 508.3799438476563 443.970947265625 508.0002136230469 443.1024780273438 507.5556335449219 C 442.2104797363281 507.0989685058594 441.7581787109375 506.5848693847656 441.7581787109375 506.0275573730469 C 441.7581787109375 502.42919921875 441.1474609375 498.8140258789063 436.7171020507813 496.7441711425781 L 436.7084045410156 496.7401123046875 L 436.6995239257813 496.7363891601563 C 432.9097290039063 495.1402587890625 429.5326538085938 492.7431640625 426.933349609375 489.8042907714844 C 425.296875 487.8978881835938 422.7083129882813 486.8591613769531 420.2049255371094 485.8546142578125 C 418.5955810546875 485.2088317871094 416.9314270019531 484.541015625 415.5907897949219 483.660888671875 C 414.605224609375 482.9850769042969 413.5807800292969 482.3381042480469 412.5340576171875 481.7301635742188 L 412.9417724609375 481.5963745117188 L 412.3913269042969 481.0229187011719 L 411.4848022460938 480.0784606933594 C 409.07421875 477.5756530761719 405.0699768066406 473.0577392578125 401.7163696289063 468.5596923828125 C 397.5806579589844 463.0126037597656 395.3946228027344 458.8092346191406 395.3946228027344 456.404052734375 C 395.3946228027344 449.9251098632813 391.5743103027344 445.1873779296875 388.2036743164063 441.0073547363281 L 388.19287109375 440.9939270019531 C 387.2247619628906 439.7972717285156 386.4260559082031 438.800537109375 385.6891174316406 437.7710571289063 C 383.9970092773438 435.4046936035156 383.8381652832031 432.1041259765625 384.21630859375 429.9967956542969 C 384.4336547851563 428.7854309082031 384.8457336425781 427.8065490722656 385.3146057128906 427.3640747070313 C 385.9319458007813 427.484619140625 386.5428466796875 427.545654296875 387.1338195800781 427.5455932617188 C 390.8508605957031 427.5452575683594 393.3561706542969 425.1863708496094 395.3692016601563 423.2909851074219 L 395.3743896484375 423.2861022949219 L 395.3790283203125 423.2817077636719 C 396.6773071289063 422.0620422363281 398.634765625 420.2231140136719 400.0234680175781 420.0707397460938 C 400.7733764648438 420.0950622558594 401.5034484863281 420.2955627441406 402.1366882324219 420.6513977050781 L 402.1480712890625 420.6577758789063 L 402.1597595214844 420.6635437011719 C 404.3367919921875 421.7415466308594 406.8294982910156 423.2109680175781 409.0287475585938 424.5074157714844 L 409.1196594238281 424.5609436035156 C 415.3283081054688 428.2170715332031 420.6902770996094 431.3746032714844 425.9083557128906 431.3742065429688 C 426.4266967773438 431.3741455078125 426.9430541992188 431.342041015625 427.4432373046875 431.2787780761719 C 429.9140014648438 431.0309753417969 432.1368408203125 429.7272338867188 433.3901977539063 427.7903137207031 C 436.2431335449219 423.356689453125 433.003662109375 419.1327514648438 430.6382751464844 416.0485534667969 L 430.6312561035156 416.0393981933594 C 429.7354736328125 414.8729858398438 428.8895263671875 413.771484375 428.4712524414063 412.846435546875 C 427.9755249023438 411.7500915527344 428.2681274414063 411.3032531738281 428.6197509765625 411.0107727050781 C 430.6721496582031 409.2985229492188 434.4066467285156 407.5029602050781 438.8662414550781 406.0840454101563 C 443.3355407714844 404.6619873046875 447.8222045898438 403.8461303710938 451.1770324707031 403.8453369140625 C 453.2088012695313 403.8825073242188 455.2225036621094 404.3665161132813 457.0005798339844 405.2451477050781 L 457.0168151855469 405.253173828125 L 457.0335998535156 405.260009765625 C 459.7489624023438 406.3651428222656 463.1282958984375 407.7405090332031 469.2826538085938 407.740478515625 C 470.3013610839844 407.7404479980469 471.3807373046875 407.7022399902344 472.4907836914063 407.6268615722656 C 474.9251708984375 407.4573364257813 476.8029479980469 407.2953796386719 478.6703796386719 407.130615234375 C 480.5302429199219 406.9666442871094 481.7589416503906 406.8583374023438 482.7216491699219 406.8583374023438 C 484.5548706054688 406.8583374023438 485.3934936523438 407.2384643554688 488.172119140625 408.4979553222656 L 488.1775817871094 408.5004272460938 L 488.18310546875 408.5027465820313 C 492.1777954101563 410.1991882324219 496.4299926757813 411.2530517578125 500.8261413574219 411.636474609375 C 500.866943359375 411.6950073242188 500.9095764160156 411.7537231445313 500.9544677734375 411.8132629394531 C 501.9143676757813 413.3813171386719 502.5522766113281 415.0724792480469 502.8504028320313 416.8399658203125 L 502.8525085449219 416.8523864746094 L 502.855224609375 416.8646545410156 C 503.0475769042969 417.7354431152344 503.2881774902344 418.6069030761719 503.5726623535156 419.4640502929688 C 503.1670227050781 419.459716796875 502.7857971191406 419.4575805664063 502.4198913574219 419.4575805664063 C 498.1184692382813 419.4575805664063 493.8977355957031 419.7130432128906 492.1544494628906 421.56640625 C 491.6668701171875 422.0914306640625 491.429931640625 422.6917419433594 491.467041015625 423.3047485351563 C 491.5151062011719 424.0997619628906 492.0147094726563 424.9043884277344 492.9518737792969 425.6962280273438 C 493.8922424316406 426.4875183105469 494.0227661132813 426.9075622558594 493.9288330078125 427.3291015625 C 493.7904357910156 427.9500122070313 493.1107788085938 428.8119812011719 492.0895690917969 430.0557556152344 C 491.110595703125 431.2135314941406 490.2017517089844 432.4360656738281 489.3881530761719 433.6896362304688 L 489.3865661621094 433.6920166015625 L 489.3850402832031 433.6944580078125 C 488.4512634277344 435.1701354980469 488.1261901855469 436.5111083984375 488.4187927246094 437.6801452636719 C 488.8543701171875 439.4203796386719 490.5281677246094 440.3700561523438 491.6357421875 440.9985046386719 C 492.6724853515625 441.5887145996094 492.7119750976563 441.6613464355469 492.7119750976563 441.8738098144531 C 492.7116394042969 441.8980712890625 492.6770629882813 442.4939880371094 490.3517150878906 444.5587463378906 C 488.8371276855469 445.9036254882813 486.70947265625 447.5472106933594 484.3607177734375 449.1867980957031 C 480.1888427734375 452.0990295410156 474.4663696289063 455.5792541503906 470.9172058105469 456.6131286621094 C 466.8749694824219 457.7942504882813 466.1777038574219 459.6374206542969 466.1217956542969 460.6309814453125 C 466.0210571289063 462.4180603027344 467.7172546386719 464.2689514160156 471.1632385253906 466.1322021484375 C 473.7593688964844 467.535888671875 476.4866333007813 468.4839477539063 477.0069885253906 468.6597290039063 C 478.2132263183594 469.0693969726563 479.9284973144531 472.2436828613281 481.3760986328125 476.746337890625 C 482.8158874511719 481.2247619628906 483.7462463378906 486.2213134765625 483.7462463378906 489.4756774902344 C 483.7462463378906 492.1188049316406 485.5327453613281 494.5596008300781 489.0560913085938 496.7303161621094 C 491.6471862792969 498.3266906738281 494.2704772949219 499.1944274902344 494.5610961914063 499.2881164550781 L 496.1871643066406 499.8108825683594 L 496.4880065917969 499.9075622558594 L 496.7044677734375 499.6773986816406 L 497.0658874511719 499.2930603027344 C 498.1911926269531 500.0176696777344 499.4925537109375 500.5101318359375 500.8566589355469 500.7247314453125 C 505.0106811523438 501.593017578125 507.9357604980469 502.4666137695313 508.7115173339844 503.9052429199219 C 508.9982604980469 504.4369812011719 508.9896545410156 505.0705261230469 508.6852416992188 505.8421020507813 C 507.8348999023438 507.9974365234375 506.3878479003906 509.2394104003906 504.5557861328125 510.8117980957031 C 503.7437438964844 511.5087890625 502.8233032226563 512.2987670898438 501.8773803710938 513.2455444335938 C 500.6044921875 514.5196533203125 499.6808166503906 514.8346557617188 499.0064086914063 515.0646362304688 C 497.89697265625 515.4429931640625 497.4107666015625 515.8006591796875 497.4107666015625 517.63720703125 C 497.4107666015625 518.514404296875 497.2152404785156 519.2323608398438 496.8453063964844 519.7135620117188 C 496.5023193359375 520.1597290039063 496.0231323242188 520.385986328125 495.421142578125 520.385986328125 C 495.4210510253906 520.385986328125 495.4209899902344 520.385986328125 495.4208679199219 520.385986328125 C 494.72265625 520.3858642578125 493.8864135742188 520.07568359375 493.0025939941406 519.4888916015625 C 491.6564331054688 518.59521484375 489.9541320800781 518.0826416015625 488.3322143554688 518.0826416015625 C 485.9664001464844 518.0826416015625 484.4377136230469 519.1951293945313 484.4377136230469 520.9168090820313 C 484.4377136230469 521.7974853515625 484.7671508789063 522.6875610351563 485.0857238769531 523.5482788085938 C 485.4528503417969 524.540283203125 485.7996215820313 525.4772338867188 485.4479370117188 525.982421875 C 485.211669921875 526.32177734375 484.4815979003906 526.726318359375 482.3453674316406 526.726318359375 C 478.4927978515625 526.726318359375 475.8487243652344 527.7740478515625 475.091064453125 529.6008911132813 C 474.5716247558594 530.8533325195313 475.0276184082031 532.2865600585938 476.3750915527344 533.636474609375 C 476.9346008300781 534.197021484375 477.6046752929688 534.790771484375 478.2527160644531 535.364990234375 C 479.2252197265625 536.2266845703125 480.2308349609375 537.1177368164063 480.9319152832031 537.9497680664063 C 481.6316223144531 538.7802124023438 481.9315795898438 539.4453125 481.8234558105469 539.9266967773438 C 481.6618041992188 540.646484375 480.5323486328125 541.116455078125 479.6133117675781 541.3839111328125 C 478.5997619628906 541.6788940429688 477.6629028320313 541.9760131835938 476.7568664550781 542.2633666992188 C 474.4642639160156 542.9904174804688 472.4842834472656 543.6183471679688 470.971435546875 543.6183471679688 Z" stroke="none"/>
        <path d="M 470.971435546875 543.1183471679688 C 472.4068908691406 543.1183471679688 474.3526611328125 542.5012817382813 476.6056518554688 541.7867431640625 C 477.5145263671875 541.49853515625 478.4543151855469 541.2005004882813 479.4735717773438 540.9038696289063 C 481.0798950195313 540.4363403320313 481.3049011230469 539.953857421875 481.3356018066406 539.817138671875 C 481.3682556152344 539.6718139648438 481.3570251464844 539.2302856445313 480.5495300292969 538.27197265625 C 479.8719482421875 537.4677734375 478.8802185058594 536.5890502929688 477.9211120605469 535.7391967773438 C 477.2674560546875 535.1600341796875 476.591552734375 534.5610961914063 476.021240234375 533.9896850585938 C 473.9978637695313 531.9627075195313 474.2805786132813 530.2498779296875 474.6292114257813 529.4093627929688 C 475.4681701660156 527.386474609375 478.2805786132813 526.226318359375 482.3453674316406 526.226318359375 C 484.5568542480469 526.226318359375 484.9760131835938 525.78515625 485.0375671386719 525.6967163085938 C 485.2400512695313 525.4058837890625 484.8798217773438 524.4325561523438 484.6167907714844 523.7218627929688 C 484.2984924316406 522.86181640625 483.9377136230469 521.8870239257813 483.9377136230469 520.9168090820313 C 483.9377136230469 518.891357421875 485.6626586914063 517.5826416015625 488.3322143554688 517.5826416015625 C 490.0500183105469 517.5826416015625 491.8530883789063 518.1256103515625 493.2791442871094 519.0723876953125 C 494.2918701171875 519.7446899414063 495.0028381347656 519.8859252929688 495.4211730957031 519.885986328125 C 496.7172546386719 519.885986328125 496.9107666015625 518.47705078125 496.9107666015625 517.63720703125 C 496.9107666015625 515.5955810546875 497.5074768066406 515.0475463867188 498.8450012207031 514.5913696289063 C 499.5079650878906 514.3652954101563 500.3330078125 514.0839233398438 501.5236511230469 512.8921508789063 C 502.4831237792969 511.9318237304688 503.4112854003906 511.1352233886719 504.2301635742188 510.4324035644531 C 506.0096740722656 508.9050903320313 507.4152526855469 507.69873046875 508.2201232910156 505.6585998535156 C 508.5491638183594 504.8246459960938 508.406982421875 504.3939514160156 508.2714233398438 504.1425476074219 C 507.5477905273438 502.8005981445313 504.2395935058594 501.9429931640625 500.7665405273438 501.2167053222656 C 499.4799194335938 501.0127258300781 498.2461853027344 500.5729675292969 497.1512756347656 499.93212890625 L 497.0686950683594 500.0199279785156 L 496.6358032226563 500.4802856445313 L 496.0341491699219 500.2868957519531 L 494.4076538085938 499.7640075683594 C 494.1111755371094 499.6683959960938 491.4348754882813 498.7831726074219 488.7938232421875 497.156005859375 C 485.1127319335938 494.8880920410156 483.2462463378906 492.3040771484375 483.2462463378906 489.4756774902344 C 483.2462463378906 486.2689514160156 482.3253173828125 481.3324584960938 480.9000854492188 476.8993835449219 C 480.2000427246094 474.7219543457031 479.432861328125 472.833984375 478.6814880371094 471.4396057128906 C 477.6248474121094 469.478759765625 476.9666442871094 469.174072265625 476.8469848632813 469.1334228515625 C 476.3198547363281 468.9553527832031 473.5571899414063 467.9949645996094 470.9254455566406 466.572021484375 C 469.4036560058594 465.7492065429688 468.1952209472656 464.9146423339844 467.3336181640625 464.091552734375 C 466.1324768066406 462.9440612792969 465.5567932128906 461.770263671875 465.6225891113281 460.6029357910156 C 465.6553344726563 460.021240234375 465.87548828125 459.1431579589844 466.7386779785156 458.2633056640625 C 467.605712890625 457.3795166015625 468.9642333984375 456.6628723144531 470.77734375 456.1331176757813 C 473.6113586425781 455.3075256347656 478.5700988769531 452.5835571289063 483.7184448242188 449.024169921875 C 486.0016784667969 447.4456176757813 488.1131896972656 445.8376770019531 489.6640014648438 444.4964904785156 C 491.4855346679688 442.9212036132813 492.0169067382813 442.1689147949219 492.1660766601563 441.9021911621094 C 491.985595703125 441.7730102539063 491.6364440917969 441.5742492675781 491.3890075683594 441.4333801269531 C 490.2072448730469 440.7628479003906 488.4213256835938 439.7495727539063 487.9337463378906 437.8015441894531 C 487.6066284179688 436.4946594238281 487.9527587890625 435.0228576660156 488.9625244140625 433.4270935058594 L 488.9656066894531 433.4222412109375 L 488.96875 433.4174194335938 C 489.7929077148438 432.1475830078125 490.7133483886719 430.9092712402344 491.7047119140625 429.736572265625 C 492.4618225097656 428.8144836425781 493.3180847167969 427.7708740234375 493.4408264160156 427.2203369140625 C 493.4730224609375 427.0757141113281 493.5270080566406 426.8336181640625 492.6291809082031 426.0781555175781 C 491.5835266113281 425.1946411132813 491.0245971679688 424.2716979980469 490.9679260253906 423.3349609375 C 490.9223937988281 422.5821838378906 491.2052307128906 421.8537902832031 491.7858581542969 421.228515625 L 491.7880554199219 421.2261657714844 L 491.7902526855469 421.2238464355469 C 493.6636657714844 419.2321166992188 498.0062255859375 418.9575805664063 502.4198913574219 418.9575805664063 C 502.5729064941406 418.9575805664063 502.7285766601563 418.9579467773438 502.8875427246094 418.9587097167969 C 502.6877746582031 418.300537109375 502.5136413574219 417.6363525390625 502.3670043945313 416.9725036621094 L 502.361572265625 416.9479370117188 L 502.3573608398438 416.9231262207031 C 502.0723876953125 415.2337646484375 501.4651489257813 413.6160583496094 500.5521545410156 412.1138610839844 C 496.1854248046875 411.7095031738281 491.9609375 410.6502990722656 487.9876403808594 408.9629821777344 L 487.9766235351563 408.9582824707031 L 487.9656982421875 408.9533386230469 C 485.2626342773438 407.7281188964844 484.4468383789063 407.3583374023438 482.7216491699219 407.3583374023438 C 481.7811889648438 407.3583374023438 480.5610961914063 407.4658813476563 478.7143249511719 407.628662109375 C 476.8444519042969 407.7936706542969 474.9641418457031 407.955810546875 472.524658203125 408.1257019042969 C 471.4034118652344 408.2018432617188 470.3126525878906 408.2404479980469 469.2826538085938 408.240478515625 C 463.0303955078125 408.2405090332031 459.600830078125 406.8446960449219 456.8451232910156 405.7231140136719 L 456.8115539550781 405.7094421386719 L 456.779052734375 405.6933898925781 C 455.0681457519531 404.8479309082031 453.1298217773438 404.3818664550781 451.1730346679688 404.3453369140625 C 447.8679809570313 404.3468322753906 443.4382934570313 405.1540222167969 439.017822265625 406.5604858398438 C 434.6176147460938 407.9605102539063 430.944580078125 409.7223510742188 428.9395141601563 411.3951416015625 C 428.7729187011719 411.5337524414063 428.5211486816406 411.7431640625 428.9268493652344 412.6404418945313 C 429.3212890625 413.5127868652344 430.1501159667969 414.5920104980469 431.0280151367188 415.735107421875 L 431.0350341796875 415.7442626953125 C 433.49072265625 418.9462585449219 436.8539123535156 423.3314819335938 433.8099975585938 428.0619506835938 C 432.4759521484375 430.12353515625 430.11767578125 431.5110778808594 427.4997863769531 431.775634765625 C 426.9807739257813 431.8410034179688 426.4454040527344 431.8741455078125 425.9084167480469 431.8742065429688 C 420.5540161132813 431.8746337890625 415.1376037597656 428.6850280761719 408.8659057617188 424.9917907714844 L 408.7748413085938 424.9381408691406 C 406.5829467773438 423.6460571289063 404.0986022949219 422.1815490722656 401.9378967285156 421.1116333007813 L 401.9145202636719 421.1000671386719 L 401.8917846679688 421.0872802734375 C 401.3385620117188 420.7764587402344 400.7009582519531 420.5987854003906 400.0439453125 420.5718383789063 C 398.8229064941406 420.7324523925781 396.9601745605469 422.4823608398438 395.7213745117188 423.6461486816406 L 395.7171325683594 423.6501159667969 L 395.7119140625 423.6550598144531 C 393.6345520019531 425.6109924316406 391.0492248535156 428.0452575683594 387.1338500976563 428.0455932617188 C 386.6020202636719 428.0456237792969 386.0556030273438 427.9989013671875 385.5033874511719 427.9064025878906 C 385.2427673339844 428.2558288574219 384.9139099121094 428.940185546875 384.7084350585938 430.0851135253906 C 384.3474731445313 432.0966796875 384.4942932128906 435.240478515625 386.095703125 437.4800415039063 C 386.8246765136719 438.4984130859375 387.6187438964844 439.4892883300781 388.5820922851563 440.6800842285156 L 388.5929260253906 440.6935119628906 C 392.0154418945313 444.9379272460938 395.8946228027344 449.7486572265625 395.8946228027344 456.404052734375 C 395.8946228027344 457.2271728515625 396.2034912109375 458.7794494628906 397.6748962402344 461.500244140625 C 398.7231750488281 463.4385986328125 400.2178039550781 465.7131958007813 402.1172180175781 468.2608337402344 C 405.4569091796875 472.7402038574219 409.4443969726563 477.2392883300781 411.8455200195313 479.7322082519531 L 412.7520446777344 480.6766662597656 L 413.8529357910156 481.8236083984375 L 413.7334289550781 481.86279296875 C 414.4606628417969 482.3071899414063 415.1745300292969 482.769287109375 415.8692321777344 483.2455749511719 C 417.1671752929688 484.096923828125 418.7332458496094 484.7253112792969 420.3911437988281 485.3905639648438 C 422.9487915039063 486.4169006347656 425.5933227539063 487.4779663085938 427.3095092773438 489.474853515625 C 429.8592529296875 492.3572082519531 433.1731567382813 494.7086791992188 436.8936157226563 496.2755737304688 L 436.9113159179688 496.2830200195313 L 436.9287414550781 496.2911682128906 C 441.612548828125 498.4794311523438 442.2581787109375 502.2638854980469 442.2581787109375 506.0275573730469 C 442.2581787109375 506.6510009765625 443.4964599609375 507.5471801757813 446.9718933105469 508.1927185058594 C 449.9714965820313 508.7498779296875 453.5732421875 508.9389953613281 455.9566040039063 509.0641479492188 L 456.01513671875 509.0671997070313 C 457.2441711425781 509.1317443847656 458.5462951660156 509.3378601074219 458.8855285644531 510.3773803710938 C 459.2900695800781 511.6170043945313 458.0291442871094 512.6436767578125 455.9400939941406 514.3445434570313 C 454.9490966796875 515.1514282226563 453.8258361816406 516.0659790039063 452.771728515625 517.0919799804688 C 450.9010925292969 518.9127807617188 449.8663330078125 520.0057983398438 449.4022827148438 520.9263916015625 C 449.0130920410156 521.6985473632813 448.9593505859375 522.432861328125 449.1722717285156 524.0693359375 C 449.4713134765625 526.3681030273438 447.7779846191406 528.995849609375 446.3047790527344 530.79541015625 C 444.4776916503906 533.0272827148438 441.9645080566406 535.2811889648438 439.2281799316406 537.1419677734375 C 438.7663879394531 537.4559936523438 438.4295959472656 537.7129516601563 438.1845703125 537.9182739257813 C 439.3955383300781 537.8062744140625 441.1438293457031 537.3126831054688 442.572021484375 536.6629028320313 C 444.71484375 535.6880493164063 446.9780883789063 535.1511840820313 448.9449157714844 535.1511840820313 C 451.0588073730469 535.1511840820313 452.701171875 535.763671875 453.6943969726563 536.9223022460938 C 455.1151733398438 538.5797729492188 456.5543518066406 539.3189086914063 458.3608093261719 539.3189086914063 C 458.8936157226563 539.3189086914063 459.4694213867188 539.2522583007813 460.0721130371094 539.120849609375 C 461.3779296875 538.8361206054688 462.4561157226563 538.6182861328125 463.4543151855469 538.6182861328125 C 465.5172424316406 538.6182861328125 466.9714965820313 539.545166015625 468.4738159179688 541.8175048828125 C 469.0766296386719 542.7293090820313 469.8236083984375 543.1183471679688 470.971435546875 543.1183471679688 M 470.971435546875 544.1183471679688 C 469.58447265625 544.1183471679688 468.4824523925781 543.643798828125 467.6396484375 542.3690185546875 C 466.2520751953125 540.2702026367188 465.0475769042969 539.6182861328125 463.4543151855469 539.6182861328125 C 462.5557556152344 539.6182861328125 461.5334777832031 539.82568359375 460.2851867675781 540.097900390625 C 459.5941162109375 540.2485961914063 458.9549560546875 540.3189086914063 458.3608093261719 540.3189086914063 C 455.9789123535156 540.3189086914063 454.3199768066406 539.1886596679688 452.9351806640625 537.5731201171875 C 452.0983276367188 536.596923828125 450.6536865234375 536.1511840820313 448.9449157714844 536.1511840820313 C 447.1201477050781 536.1511840820313 444.9942016601563 536.6596069335938 442.9861145019531 537.5731201171875 C 441.1824951171875 538.3937377929688 439.00537109375 538.9422607421875 437.707275390625 538.9422607421875 C 436.2069702148438 538.9422607421875 435.8810729980469 538.2088623046875 438.6658325195313 536.3150634765625 C 443.8599548339844 532.782958984375 448.6072387695313 527.477783203125 448.1806335449219 524.1983642578125 C 447.7539367675781 520.9187622070313 448.1859436035156 520.1600952148438 452.0742492675781 516.3753662109375 C 455.9627075195313 512.5906372070313 460.7183837890625 510.3155212402344 455.9627075195313 510.0658264160156 C 451.2068481445313 509.8160705566406 441.2581787109375 509.3071594238281 441.2581787109375 506.0275573730469 C 441.2581787109375 502.7479553222656 440.826171875 499.2157897949219 436.5054626464844 497.1971740722656 C 432.6246643066406 495.562744140625 429.2193603515625 493.14453125 426.5564575195313 490.1328735351563 C 423.9609680175781 487.1058044433594 418.7677612304688 486.3470764160156 415.3118591308594 484.0758972167969 C 414.0234069824219 483.1921691894531 412.6851196289063 482.36865234375 411.30224609375 481.608154296875 L 412.0306091308594 481.369140625 L 411.1240844726563 480.4246826171875 C 406.6072082519531 475.7350769042969 394.8946228027344 462.2781372070313 394.8946228027344 456.404052734375 C 394.8946228027344 450.0947570800781 391.1293334960938 445.43212890625 387.8036499023438 441.3078002929688 C 386.9158325195313 440.2103576660156 386.0514526367188 439.13623046875 385.2825622558594 438.0621032714844 C 382.5768432617188 434.2782287597656 383.4118041992188 428.0278015136719 385.1864318847656 426.826904296875 C 385.8728332519531 426.9773864746094 386.5201721191406 427.045654296875 387.1337585449219 427.0455932617188 C 390.6555480957031 427.0452880859375 393.04296875 424.7944946289063 395.0316162109375 422.9220581054688 C 396.4715576171875 421.5693054199219 398.4425659179688 419.716064453125 400.0055236816406 419.5700073242188 C 400.8475952148438 419.5918579101563 401.6681213378906 419.8145751953125 402.3816223144531 420.2154846191406 C 404.51171875 421.2702331542969 406.8955383300781 422.6694946289063 409.2826538085938 424.0766906738281 C 415.4247436523438 427.6935424804688 420.8013916015625 430.8746032714844 425.9083251953125 430.8742065429688 C 426.4034118652344 430.8741455078125 426.89697265625 430.8442077636719 427.387451171875 430.7818603515625 C 429.7208251953125 430.5495910644531 431.7927856445313 429.3385620117188 432.9704284667969 427.5186767578125 C 435.6349182128906 423.3778686523438 432.6398315429688 419.47998046875 430.2345275878906 416.3436889648438 C 428.3928527832031 413.9456481933594 426.8040771484375 411.8707885742188 428.2999877929688 410.6263732910156 C 432.70556640625 406.950927734375 444.0394592285156 403.3453369140625 451.1820068359375 403.3453369140625 C 453.2969970703125 403.3833923339844 455.3697814941406 403.8815612792969 457.2220764160156 404.796875 C 459.9425354003906 405.9040832519531 463.2345886230469 407.2405090332031 469.2826538085938 407.2404479980469 C 470.2648315429688 407.2404479980469 471.3200073242188 407.2052001953125 472.4569091796875 407.1279907226563 C 474.9842834472656 406.9519958496094 476.9705505371094 406.7786560058594 478.6264343261719 406.6325378417969 C 480.4965515136719 406.4676818847656 481.73779296875 406.3583374023438 482.7216491699219 406.3583374023438 C 484.6595764160156 406.3583374023438 485.5989074707031 406.7825927734375 488.3785400390625 408.0425415039063 C 492.3844909667969 409.7437438964844 496.69384765625 410.7986145019531 501.1089477539063 411.1585693359375 C 501.1863403320313 411.2815246582031 501.271728515625 411.4044494628906 501.3679809570313 411.5311279296875 C 502.3656005859375 413.1549377441406 503.0343017578125 414.9241027832031 503.3434448242188 416.7568054199219 C 503.583740234375 417.8446350097656 503.896484375 418.9189453125 504.2786865234375 419.9735412597656 C 503.6452331542969 419.9635314941406 503.0246887207031 419.9575805664063 502.4198913574219 419.9575805664063 C 497.7511291503906 419.9575805664063 494.0199890136719 420.3128662109375 492.5186462402344 421.9089965820313 C 491.8608093261719 422.6174011230469 491.4559326171875 423.7776794433594 493.2745666503906 425.3143005371094 C 495.1802062988281 426.9178161621094 494.68212890625 427.6862487792969 492.4732360839844 430.3764038085938 C 491.5044250488281 431.5219421386719 490.6139526367188 432.7193603515625 489.8075561523438 433.9618225097656 C 487.283447265625 437.9507446289063 490.1598510742188 439.5862121582031 491.8825073242188 440.5636291503906 C 492.9108276367188 441.1490478515625 493.2119750976563 441.3416748046875 493.2119750976563 441.8738098144531 C 493.2119750976563 444.1121826171875 477.7945861816406 455.1305236816406 471.0570373535156 457.0932006835938 C 467.3112487792969 458.1876831054688 466.6694641113281 459.7978210449219 466.6210021972656 460.6590881347656 C 466.4091491699219 464.4177551269531 476.0643310546875 467.8135070800781 477.1670227050781 468.18603515625 C 480.2215881347656 469.2234497070313 484.2462463378906 482.4714660644531 484.2462463378906 489.4756774902344 C 484.2462463378906 495.3767700195313 494.282470703125 498.6729431152344 494.7145080566406 498.8122253417969 L 496.3402099609375 499.3348693847656 L 496.9935913085938 498.6400451660156 C 498.1414794921875 499.4595031738281 499.5008544921875 500.0072326660156 500.9467163085938 500.2327575683594 C 506.9976806640625 501.4967956542969 510.4454345703125 502.7430114746094 509.1503295898438 506.0256042480469 C 507.8552856445313 509.3081970214844 505.2554321289063 510.5719299316406 502.2310791015625 513.5989379882813 C 499.20703125 516.6258544921875 497.9107666015625 514.610107421875 497.9107666015625 517.63720703125 C 497.9107666015625 519.6549072265625 496.9566040039063 520.8861694335938 495.4208068847656 520.8859252929688 C 494.6525573730469 520.8858642578125 493.7384643554688 520.5775756835938 492.7260437011719 519.9054565429688 C 491.4083557128906 519.0306396484375 489.7676696777344 518.5826416015625 488.3322143554688 518.5826416015625 C 486.4603576660156 518.5826416015625 484.9377136230469 519.3449096679688 484.9377136230469 520.9168090820313 C 484.9377136230469 523.6942749023438 488.8260192871094 527.226318359375 482.3453674316406 527.226318359375 C 475.8646850585938 527.226318359375 473.7044982910156 530.2532958984375 476.7289733886719 533.283203125 C 479.7530212402344 536.3131713867188 485.8115844726563 540.1006469726563 479.7530212402344 541.864013671875 C 476.0476989746094 542.9423828125 473.1557922363281 544.1183471679688 470.971435546875 544.1183471679688 Z" stroke="none" fill="#30abec"/>
      </g>
      <text id="qijiangqu" transform="translate(149 133)" fill="#fff" font-size="10" font-family="MicrosoftYaHei, Microsoft YaHei"><tspan x="0" y="0">綦江区</tspan></text>
      <g transform="matrix(1, 0, 0, 1, 0.99, 9)" filter="url(#qijiang1)">
        <path id="qijiang1-2" data-name="qijiang1" d="M-373.58-894.234h0a3.67,3.67,0,0,1-3.324-1.742c-1.309-1.979-2.482-2.751-4.186-2.751a15.731,15.731,0,0,0-3.168.479,9.081,9.081,0,0,1-1.925.221,6.852,6.852,0,0,1-5.425-2.746,5.085,5.085,0,0,0-3.991-1.422,14.868,14.868,0,0,0-5.958,1.422,15.586,15.586,0,0,1-5.256,1.412,1.34,1.34,0,0,1-.529-.078c-.974-.348-.7-17.225-.7-17.4l.07-.016c.049.293.44.447,1.132.447a14.8,14.8,0,0,0,5.279-1.369,14.876,14.876,0,0,1,5.959-1.422,5.084,5.084,0,0,1,3.99,1.422,6.853,6.853,0,0,0,5.425,2.746,9.085,9.085,0,0,0,1.925-.221,15.729,15.729,0,0,1,3.168-.479c1.7,0,2.877.771,4.186,2.751a3.684,3.684,0,0,0,3.333,1.75,21.852,21.852,0,0,0,5.934-1.378c.9-.287,1.839-.583,2.847-.877,1.546-.45,2.383-1.048,2.558-1.828.326-1.454-1.734-3.28-3.727-5.046-.673-.6-1.306-1.158-1.855-1.707-1.2-1.2-1.613-2.438-1.176-3.491.666-1.607,3.206-2.566,6.792-2.566,1.915,0,3.064-.313,3.513-.958.5-.72.11-1.776-.3-2.894a7.5,7.5,0,0,1-.617-2.458c0-1.721,1.754-2.334,3.395-2.334a8.259,8.259,0,0,1,4.394,1.323,5.086,5.086,0,0,0,2.695.981c1.536,0,2.49-1.245,2.49-3.249,0-1.67.394-1.8,1.257-2.1a7.125,7.125,0,0,0,3.063-1.939c.932-.933,1.8-1.682,2.649-2.406,1.885-1.618,3.374-2.9,4.27-5.167.042-.106.079-.211.111-.313.313,4.331.924,14.689-.111,17.313-.9,2.272-2.385,3.549-4.27,5.167-.844.724-1.717,1.473-2.649,2.406a7.124,7.124,0,0,1-3.063,1.939c-.863.294-1.257.429-1.257,2.1,0,2-.954,3.248-2.49,3.249a5.084,5.084,0,0,1-2.695-.981,8.26,8.26,0,0,0-4.394-1.323c-1.641,0-3.395.613-3.395,2.334a7.5,7.5,0,0,0,.617,2.458c.414,1.118.8,2.174.3,2.894-.449.645-1.6.958-3.513.958-.15,0-.295,0-.431-.008a93.634,93.634,0,0,1-.621,12.21,3.453,3.453,0,0,1-2.728,2.794l-.074.019q-.709.22-1.368.431A22.965,22.965,0,0,1-373.58-894.234Zm-23.1-34.755h0c-4.381-.672-6.6-1.792-6.6-3.329,0-3.2-.367-6.781-4.753-8.83a27.637,27.637,0,0,1-9.949-7.064c-1.556-1.816-4.089-2.832-6.539-3.815a26.985,26.985,0,0,1-4.706-2.242c-1.281-.879-2.63-1.71-4.009-2.468l.729-.239-.907-.944c-4.514-4.688-16.229-18.141-16.229-24.021,0-6.3-3.762-10.967-7.081-15.083l-.01-.013c-.973-1.2-1.777-2.206-2.521-3.246a10.864,10.864,0,0,1-1.7-7.054c.181-1.73.073-10.917.018-14.786a10.058,10.058,0,0,0,1.682,4.84c.744,1.04,1.548,2.043,2.521,3.246l.01.013c3.319,4.116,7.081,8.78,7.081,15.083,0,5.88,11.715,19.333,16.229,24.021l.907.944-.729.239c1.384.761,2.733,1.592,4.01,2.468a26.98,26.98,0,0,0,4.706,2.242c2.45.983,4.982,2,6.539,3.815a27.636,27.636,0,0,0,9.949,7.064c4.386,2.049,4.753,5.633,4.753,8.831,0,3.267,9.9,3.785,14.652,4.035l.053,0c1.228.065,1.855.262,1.972.622.192.587-.99,1.55-2.626,2.882-1.007.82-2.148,1.749-3.234,2.806-3.953,3.846-4.316,4.578-3.894,7.823a4.624,4.624,0,0,1-.319,2.158Zm31.252-56.171h0a4.473,4.473,0,0,0-1.946-2,40.609,40.609,0,0,1-5.766-2.494c-3.261-1.763-4.869-3.456-4.78-5.033.048-.862.688-2.471,4.436-3.566,3.585-1.045,9.331-4.529,13.512-7.442,5.075-3.535,8.547-6.642,8.64-7.732l0,16.954c0,.719-1.645,2.439-4.513,4.718a93.644,93.644,0,0,1-9.585,6.593Zm12.878-29.56h0l-.043-.025-.062-.036c-1.1-.621-2.595-1.472-2.979-3a4.7,4.7,0,0,1,.9-3.6,35.651,35.651,0,0,1,2.666-3.585c2.209-2.689,2.708-3.458.8-5.062a3.124,3.124,0,0,1-1.309-2.039,1.822,1.822,0,0,1,.553-1.367c1.617-1.719,5.911-1.951,9.9-1.951.57,0,1.178.005,1.861.016l-.043-.119,0-.014.027,0,.021,0c.024.038,0,1.586-.041,3.729-.083,4.739-.223,12.67.041,13.4-.657-.01-1.265-.016-1.86-.016-3.987,0-8.282.232-9.9,1.951a1.809,1.809,0,0,0-.529,1.714Zm-63.7-9.985h0c-.546-.9-.729-1.527-.576-1.962.135-.529.026-13.954,0-16.64.117,1.179,1.283,2.7,2.518,4.306l.008.01c2.4,3.131,5.39,7.028,2.728,11.164a7.408,7.408,0,0,1-4.679,3.122Z" transform="translate(561.01 1102)" stroke="rgba(0,0,0,0)" stroke-miterlimit="10" stroke-width="1" fill="url(#linear-gradient)"/>
      </g>
    </g>
  </g>
</svg>
