<svg xmlns="http://www.w3.org/2000/svg" xmlns:xlink="http://www.w3.org/1999/xlink" width="327" height="258" viewBox="0 0 327 258">
  <defs>
    <radialGradient id="radial-gradient" cx="0.5" cy="0.5" r="0.5" gradientUnits="objectBoundingBox">
      <stop offset="0" stop-color="#1fb9e6"/>
      <stop offset="1" stop-color="#0669d2"/>
    </radialGradient>
    <linearGradient id="linear-gradient" x1="0.5" x2="0.5" y2="1" gradientUnits="objectBoundingBox">
      <stop offset="0" stop-color="#191e64"/>
      <stop offset="1" stop-color="#17448b"/>
    </linearGradient>
    <filter id="rongchang1" x="55.5" y="86.335" width="215.861" height="146.338" filterUnits="userSpaceOnUse">
      <feOffset dy="8" input="SourceAlpha"/>
      <feGaussianBlur stdDeviation="9" result="blur"/>
      <feFlood flood-opacity="0.161"/>
      <feComposite operator="in" in2="blur"/>
      <feComposite in="SourceGraphic"/>
    </filter>
    <clipPath id="clip-rongchang">
      <rect width="327" height="258"/>
    </clipPath>
  </defs>
  <g id="rongchang" clip-path="url(#clip-rongchang)">
    <rect width="327" height="258" fill="rgba(0,0,0,0)"/>
    <g id="rongchang1-2" data-name="rongchang1" transform="translate(31.648 2.453)">
      <g id="thick_songchang" transform="translate(-114.899 -289.16)" opacity="0.67" fill="url(#radial-gradient)">
        <path d="M 291.0710144042969 464.2726135253906 C 285.0303344726563 463.5688781738281 278.8848571777344 463.2121887207031 272.7970581054688 463.2121887207031 C 271.91796875 463.2121887207031 271.0265808105469 463.2196350097656 270.1476440429688 463.234375 L 270.1432495117188 463.2344665527344 L 270.1388549804688 463.2345886230469 C 269.00634765625 463.2734985351563 267.8124389648438 463.293212890625 266.5902709960938 463.293212890625 C 260.4674987792969 463.293212890625 254.1108856201172 462.8112182617188 249.150390625 461.9707946777344 C 243.3808135986328 460.9933166503906 239.6424102783203 459.5538330078125 238.6238250732422 457.9175415039063 C 238.3167419433594 457.4244689941406 238.0244445800781 456.9320068359375 237.7417602539063 456.4557495117188 C 235.5974731445313 452.8430480957031 233.7455902099609 449.7229614257813 227.6356353759766 449.7229614257813 C 227.3067169189453 449.7229614257813 226.9627838134766 449.7322692871094 226.6133575439453 449.7506103515625 C 226.0170288085938 449.7818603515625 225.4087829589844 449.8186340332031 224.820556640625 449.8542175292969 C 223.2371978759766 449.9499206542969 221.7416687011719 450.0403137207031 220.3571472167969 450.0403137207031 C 217.3490905761719 450.0403137207031 215.6780242919922 449.5752258300781 215.0982208251953 448.5765991210938 C 214.5429382324219 447.6203002929688 214.9119873046875 445.9956970214844 216.195068359375 443.7479858398438 C 216.7013854980469 442.8610229492188 217.2199859619141 441.9754638671875 217.7215118408203 441.1190490722656 C 220.8243865966797 435.8206481933594 223.5041198730469 431.2448120117188 222.1164398193359 428.5264587402344 C 221.4779815673828 427.2757568359375 220.0812835693359 426.5620422363281 217.8465270996094 426.3445434570313 C 216.8947143554688 426.2519226074219 215.8986358642578 426.1632080078125 214.9353485107422 426.0774230957031 C 212.0159454345703 425.8173828125 208.9971466064453 425.5485229492188 206.68310546875 425.1273193359375 C 203.5291900634766 424.5532531738281 202.837646484375 423.883056640625 202.7061309814453 423.5346374511719 C 202.6017303466797 423.2580871582031 202.7707977294922 422.8843383789063 203.2085876464844 422.4237976074219 C 204.7288055419922 420.8248291015625 205.2516784667969 419.5438537597656 204.8070678710938 418.5076904296875 C 204.197021484375 417.0859375 201.8437347412109 416.4237670898438 197.4011383056641 416.4237670898438 C 195.8770141601563 416.4237670898438 194.1968688964844 416.5040283203125 192.5720062255859 416.5816040039063 C 190.9592132568359 416.6586303710938 189.29150390625 416.73828125 187.7918395996094 416.73828125 C 185.6686096191406 416.73828125 184.2030487060547 416.5809020996094 183.1796264648438 416.2429809570313 C 181.7493896484375 415.770751953125 181.5839691162109 415.047607421875 181.5839691162109 414.5447387695313 C 181.5839691162109 411.8462219238281 177.9035949707031 407.7270812988281 174.0071258544922 403.3660888671875 C 171.8542327880859 400.95654296875 169.8207550048828 398.6806335449219 168.5868377685547 396.811279296875 C 166.8880920410156 394.237548828125 166.3647308349609 391.6756286621094 167.0733642578125 389.4025268554688 C 167.4698181152344 388.1307067871094 168.2532806396484 386.9496459960938 169.4019622802734 385.8922119140625 C 170.6607360839844 384.7333984375 172.3654632568359 383.7161254882813 174.4687957763672 382.86865234375 C 178.3154449462891 381.3188171386719 181.5429382324219 379.3084716796875 184.3904876708984 377.5347595214844 C 188.1216735839844 375.210693359375 191.3440246582031 373.2035217285156 194.7098999023438 372.9853820800781 C 196.7944030761719 372.8501892089844 197.9231262207031 372.7145385742188 198.6998138427734 372.3092346191406 C 199.519775390625 371.8813171386719 199.8815765380859 371.1881713867188 200.4291687011719 370.1390075683594 C 200.9629669189453 369.1162719726563 201.6940307617188 367.7156677246094 203.2416076660156 365.6499633789063 C 204.3561096191406 364.1622619628906 205.2193145751953 362.6857604980469 205.9809112548828 361.383056640625 C 206.9008026123047 359.8096008300781 207.6952514648438 358.45068359375 208.6642150878906 357.4992370605469 C 209.6888885498047 356.4930419921875 210.8037414550781 356.0443420410156 212.279052734375 356.0443420410156 C 213.5460357666016 356.0443420410156 215.0706176757813 356.3851928710938 216.9399261474609 357.08642578125 C 223.861572265625 359.6824645996094 228.4886169433594 360.8914794921875 231.5015258789063 360.8912658691406 C 235.1992340087891 360.8910217285156 235.9754028320313 358.9992370605469 235.9754028320313 357.4122619628906 C 235.9754028320313 356.3155212402344 235.7965850830078 355.0614624023438 235.6236724853516 353.8486633300781 C 235.2869262695313 351.4869384765625 234.938720703125 349.0448608398438 235.9131164550781 347.9216918945313 C 236.3306884765625 347.4403381347656 236.9918060302734 347.2063293457031 237.9342193603516 347.2063293457031 C 239.1249847412109 347.2063293457031 240.7553253173828 347.593994140625 242.7799072265625 348.3585510253906 C 248.0209197998047 350.3320007324219 252.7919921875 351.3325500488281 256.9610290527344 351.3324890136719 C 258.355224609375 351.3324890136719 259.6729431152344 351.2164306640625 260.890380859375 350.9869384765625 C 259.6977844238281 355.5963439941406 259.9862060546875 361.6316833496094 267.0921936035156 365.7774963378906 C 271.5984191894531 368.3907775878906 276.5006103515625 370.3797912597656 281.6639709472656 371.6900024414063 C 287.21142578125 373.2366943359375 292.6649475097656 375.1913757324219 297.8724670410156 377.4995727539063 L 300.5919494628906 378.6830444335938 L 300.620361328125 378.6954040527344 C 307.484619140625 381.682373046875 312.4441833496094 383.8404846191406 316.017333984375 386.8424987792969 C 317.8507080078125 388.3827819824219 319.2652893066406 390.0802612304688 320.4692077636719 392.1845703125 C 321.6971435546875 394.330810546875 322.7205200195313 396.9661254882813 323.5976867675781 400.2404174804688 C 324.1441345214844 402.4798278808594 325.1158752441406 404.5885009765625 326.4881896972656 406.5141906738281 C 323.7468872070313 410.1122131347656 315.3120727539063 421.3153076171875 307.43603515625 433.1288757324219 C 297.5090942382813 448.0187072753906 292.0071105957031 458.490478515625 291.0710144042969 464.2726135253906 Z" stroke="none"/>
        <path d="M 237.9342041015625 347.7063293457031 C 236.7618560791016 347.7063293457031 236.4072875976563 348.1150207519531 236.290771484375 348.2493286132813 C 235.4659118652344 349.2001342773438 235.8126831054688 351.6322631835938 236.11865234375 353.7780456542969 C 236.2940368652344 355.0081176757813 236.4754028320313 356.2800598144531 236.4754028320313 357.4122619628906 C 236.4754028320313 358.8983154296875 235.8292236328125 361.3912658691406 231.5014953613281 361.3912658691406 C 228.4261474609375 361.3912658691406 223.7433471679688 360.172119140625 216.7643127441406 357.5545349121094 C 214.9521484375 356.874755859375 213.4850158691406 356.5443115234375 212.279052734375 356.5443115234375 C 210.9451599121094 356.5443115234375 209.9383239746094 356.9488220214844 209.0145263671875 357.85595703125 C 208.0932006835938 358.7606506347656 207.3143920898438 360.0928344726563 206.4125366210938 361.6354064941406 C 205.6442260742188 362.9496459960938 204.7733459472656 364.439208984375 203.6417236328125 365.9497680664063 C 202.1184997558594 367.9829711914063 201.3982849121094 369.36279296875 200.8724365234375 370.3703308105469 C 200.3023071289063 371.462646484375 199.8903503417969 372.2518920898438 198.93115234375 372.7524719238281 C 198.0748291015625 373.1993408203125 196.8981323242188 373.3445129394531 194.7422180175781 373.4843139648438 C 191.5017395019531 373.6943359375 188.3287963867188 375.6707153320313 184.6548461914063 377.9591674804688 C 181.7899475097656 379.7436828613281 178.5427551269531 381.7662963867188 174.6556396484375 383.3323974609375 C 172.6084899902344 384.1572570800781 170.954833984375 385.1422729492188 169.7406005859375 386.2600708007813 C 168.657470703125 387.2571716308594 167.920654296875 388.3645324707031 167.5507202148438 389.5513000488281 C 166.7137756347656 392.2360534667969 167.879150390625 394.8313903808594 169.0041198730469 396.5358276367188 C 170.2179260253906 398.3746948242188 172.2395935058594 400.6374206542969 174.3800048828125 403.0329895019531 C 178.3418273925781 407.4671325683594 182.0839538574219 411.6553955078125 182.0839538574219 414.5447387695313 C 182.0839538574219 414.8076477050781 182.0839538574219 415.3546752929688 183.3363952636719 415.7681884765625 C 184.29443359375 416.0845031738281 185.7518005371094 416.23828125 187.7918395996094 416.23828125 C 189.2795715332031 416.23828125 190.9412231445313 416.158935546875 192.5481567382813 416.0821838378906 C 194.1788635253906 416.0043029785156 195.8650817871094 415.9237670898438 197.401123046875 415.9237670898438 C 202.1325073242188 415.9237670898438 204.5582885742188 416.6598815917969 205.2665710449219 418.310546875 C 206.0572204589844 420.1532287597656 204.1858520507813 422.1215209960938 203.5709533691406 422.768310546875 C 203.2146606445313 423.1430969238281 203.1790161132813 423.3319702148438 203.1755981445313 423.3616027832031 C 203.1913757324219 423.3927917480469 203.3252258300781 423.6154174804688 204.0217590332031 423.9073181152344 C 204.6526184082031 424.1716918945313 205.5674133300781 424.4147033691406 206.7407836914063 424.6296081542969 C 209.03662109375 425.050048828125 212.0578918457031 425.3191528320313 214.9797058105469 425.5793762207031 C 215.9439697265625 425.665283203125 216.9411010742188 425.7540893554688 217.8949584960938 425.846923828125 C 220.3130493164063 426.0822448730469 221.8395690917969 426.8843994140625 222.561767578125 428.2991333007813 C 224.0739135742188 431.2612915039063 221.330078125 435.9465637207031 218.1529846191406 441.3717041015625 C 217.6521301269531 442.2269287109375 217.1342468261719 443.1112976074219 216.6293029785156 443.9958801269531 C 215.4576721191406 446.0483703613281 215.0777587890625 447.5455322265625 215.5306396484375 448.3255004882813 C 216.0052490234375 449.1429443359375 217.5840454101563 449.5403137207031 220.3572082519531 449.5403137207031 C 221.7265930175781 449.5403137207031 223.2147827148438 449.4503784179688 224.7903442382813 449.3551330566406 C 225.3795471191406 449.3194885253906 225.9888305664063 449.2826538085938 226.5872192382813 449.2512817382813 C 226.9449157714844 449.2325134277344 227.2976379394531 449.2229919433594 227.6355895996094 449.2229614257813 C 234.0301208496094 449.2225341796875 236.0417785644531 452.6118774414063 238.1715698242188 456.2002563476563 C 238.4529571533203 456.6743774414063 238.7439117431641 457.1646118164063 239.0482940673828 457.6533203125 C 239.3671417236328 458.16552734375 240.21240234375 458.9508666992188 242.4283294677734 459.7832336425781 C 244.1710052490234 460.4378356933594 246.4607543945313 461.0079650878906 249.2339630126953 461.4778137207031 C 254.1681518554688 462.3137512207031 260.4943237304688 462.793212890625 266.5904235839844 462.793212890625 C 267.80712890625 462.793212890625 268.9952087402344 462.7735900878906 270.1217041015625 462.7348937988281 L 270.1304931640625 462.7345886230469 L 270.1392822265625 462.7344665527344 C 271.020751953125 462.7196960449219 271.9150085449219 462.7121887207031 272.7971801757813 462.7121887207031 C 278.7473754882813 462.7121276855469 284.7520751953125 463.0517883300781 290.6619262695313 463.7222900390625 C 291.8224487304688 457.7769165039063 297.3185729980469 447.4031066894531 307.02001953125 432.8515014648438 C 314.7029418945313 421.3275451660156 322.916259765625 410.3850402832031 325.8694458007813 406.5015869140625 C 324.57275390625 404.6083068847656 323.6468505859375 402.5475463867188 323.1135559082031 400.3655090332031 C 322.2479553222656 397.1352844238281 321.240966796875 394.5403442382813 320.0352172851563 392.432861328125 C 318.8614807128906 390.3812866210938 317.4826049804688 388.7265625 315.6957397460938 387.225341796875 C 312.1781616210938 384.27001953125 307.24658203125 382.1240539550781 300.4209594726563 379.1539306640625 L 300.3924560546875 379.1415100097656 L 297.676025390625 377.9594116210938 L 297.6729431152344 377.9580688476563 L 297.6698303222656 377.9566955566406 C 292.486328125 375.6591491699219 287.0585632324219 373.7135009765625 281.5364990234375 372.1735229492188 C 276.330078125 370.8518981933594 271.3861694335938 368.8456726074219 266.8402099609375 366.2093811035156 C 261.2156677246094 362.9278564453125 258.9063110351563 357.782470703125 260.231201171875 351.6041564941406 C 259.1986694335938 351.7558898925781 258.1044311523438 351.8324584960938 256.9610595703125 351.8324584960938 C 252.7315216064453 351.8324584960938 247.9011688232422 350.8211669921875 242.603271484375 348.8263244628906 C 240.6353149414063 348.0831298828125 239.0644226074219 347.7063293457031 237.9342041015625 347.7063293457031 M 237.9342193603516 346.7063293457031 C 239.1359405517578 346.7063293457031 240.7655334472656 347.0633850097656 242.9565582275391 347.8908081054688 C 248.1410369873047 349.8429565429688 252.9071807861328 350.8324890136719 256.9610595703125 350.8324890136719 C 258.6343994140625 350.8324890136719 260.1865844726563 350.6638488769531 261.5964660644531 350.32470703125 C 260.2481079101563 354.7469177246094 260.0432739257813 361.0861206054688 267.3441467285156 365.3456115722656 C 271.8074340820313 367.9339904785156 276.6780090332031 369.9095764160156 281.7935791015625 371.2070617675781 C 287.3834838867188 372.7653503417969 292.8277587890625 374.7166442871094 298.0750732421875 377.04248046875 L 300.7914428710938 378.2245788574219 C 314.7433776855469 384.2956848144531 320.5162658691406 386.7997131347656 324.0822143554688 400.1168518066406 C 324.6390380859375 402.4017639160156 325.6661071777344 404.5737915039063 327.1116027832031 406.5213012695313 C 321.6305236816406 413.7000427246094 293.1053771972656 451.6006469726563 291.4971618652344 464.826416015625 C 285.296875 464.0842590332031 279.050537109375 463.7121276855469 272.7971801757813 463.712158203125 C 271.9172668457031 463.7121887207031 271.0360717773438 463.7195434570313 270.1560668945313 463.7343139648438 C 269.019287109375 463.7733459472656 267.825439453125 463.793212890625 266.5904235839844 463.793212890625 C 255.2652435302734 463.793212890625 240.6499633789063 462.1185302734375 238.1993408203125 458.1817932128906 C 235.6054382324219 454.0166931152344 234.2511291503906 450.2225036621094 227.6356506347656 450.2229614257813 C 227.3164978027344 450.2229919433594 226.9839477539063 450.2318420410156 226.6395874023438 450.2499084472656 C 224.4935302734375 450.3624877929688 222.2929382324219 450.5403137207031 220.3572082519531 450.5403137207031 C 215.5436401367188 450.5403137207031 212.3700256347656 449.4401245117188 215.7608337402344 443.5001220703125 C 220.5151672363281 435.1712036132813 225.9589233398438 427.636474609375 217.798095703125 426.8421936035156 C 209.637939453125 426.0481567382813 199.45068359375 425.651123046875 202.84619140625 422.0793151855469 C 206.2422485351563 418.5072937011719 204.1995544433594 416.9237670898438 197.401123046875 416.9237670898438 C 194.376953125 416.9237670898438 190.8152160644531 417.23828125 187.7918395996094 417.23828125 C 184.0184326171875 417.23828125 181.0839538574219 416.7481079101563 181.0839538574219 414.5447387695313 C 181.0839538574219 410.57568359375 171.575439453125 402.24658203125 168.1695556640625 397.0867309570313 C 164.7636108398438 391.9264526367188 165.4323120117188 385.9705810546875 174.2819213867188 382.4048767089844 C 183.1318359375 378.8392639160156 188.5516662597656 372.8834533691406 194.6775512695313 372.4864196777344 C 200.803466796875 372.0891723632813 198.0855712890625 371.6982727050781 202.8414306640625 365.3501892089844 C 206.6070251464844 360.3236694335938 207.3905944824219 355.5443115234375 212.2790832519531 355.5443115234375 C 213.5643920898438 355.5443115234375 215.1338806152344 355.8748779296875 217.1155395507813 356.6182556152344 C 222.6902465820313 358.7091369628906 228.0315246582031 360.3912658691406 231.5014953613281 360.3912658691406 C 233.9566955566406 360.3912658691406 235.4754028320313 359.5485534667969 235.4754028320313 357.4122619628906 C 235.4754028320313 353.2339477539063 232.7948608398438 346.7063293457031 237.9342193603516 346.7063293457031 Z" stroke="none" fill="#30abec"/>
      </g>
      <text id="rongchang-2" data-name="rongchang" transform="translate(121.579 119.746)" fill="#fff" font-size="10" font-family="MicrosoftYaHei, Microsoft YaHei"><tspan x="0" y="0">荣昌区</tspan></text>
      <g transform="matrix(1, 0, 0, 1, -31.65, -2.45)" filter="url(#rongchang1)">
        <path id="rongchang1-3" data-name="rongchang1" d="M-3511.77-914.88h0a157.956,157.956,0,0,0-18.7-1.114c-.877,0-1.766.007-2.642.022-1.137.039-2.338.059-3.567.059a110.552,110.552,0,0,1-17.522-1.329c-6-1.016-9.755-2.5-10.867-4.282-.306-.492-.6-.982-.879-1.456l-.008-.014c-2.067-3.482-3.853-6.489-9.677-6.489-.32,0-.655.009-1,.027-.591.031-1.194.067-1.778.1h-.01c-1.521.092-3.094.187-4.495.187-3.249,0-5-.528-5.692-1.712-.66-1.137-.3-2.88,1.095-5.328.5-.869,1-1.737,1.5-2.576l.031-.054c2.065-3.526,4.016-6.856,4.556-9.359.972-.035,2-.1,3-.157h.01c.585-.035,1.191-.072,1.783-.1.34-.018.675-.027,1-.027a9.284,9.284,0,0,1,6.233,1.914,16.824,16.824,0,0,1,3.443,4.573c.283.478.576.971.888,1.472,1.112,1.785,4.871,3.266,10.87,4.282a110.616,110.616,0,0,0,17.526,1.329c1.227,0,2.425-.02,3.56-.059.878-.015,1.766-.022,2.641-.022a157.974,157.974,0,0,1,18.7,1.114c1.6-13.178,29.908-50.829,35.566-58.242l.048.013v18.924c-.082.109-8.594,11.407-17.2,24.193-5.052,7.5-9.146,14.037-12.167,19.422-3.776,6.73-5.876,11.672-6.244,14.689Zm-76.731-38.262h0c-5.825-.519-11.849-1.056-12.527-2.853-.178-.471.027-1.02.608-1.632,1.348-1.419,1.854-2.554,1.5-3.375-.514-1.2-2.786-1.781-6.946-1.781-1.51,0-3.183.08-4.8.157h-.005c-1.621.077-3.293.157-4.8.157a15.881,15.881,0,0,1-4.769-.52c-1.3-.431-1.938-1.141-1.938-2.173,0-2.508-3.787-6.746-7.449-10.845a66.1,66.1,0,0,1-5.465-6.613,10.27,10.27,0,0,1-1.919-5.284c0-.536.042-.988.042-.992v-17.729a10.731,10.731,0,0,0,1.877,5.005,66.09,66.09,0,0,0,5.461,6.608c3.666,4.1,7.453,8.342,7.453,10.849,0,1.032.634,1.743,1.939,2.174a15.883,15.883,0,0,0,4.77.521c1.511,0,3.184-.08,4.8-.157s3.294-.157,4.807-.157c4.16,0,6.432.583,6.947,1.781.352.821-.153,1.956-1.5,3.375-.581.611-.786,1.16-.608,1.632.679,1.8,6.767,2.34,12.655,2.864l.028,0c.952.085,1.937.173,2.877.264,2.052.2,3.318.825,3.873,1.912,1.263,2.475-1.353,6.943-4.383,12.116l0,0c-.5.855-1.019,1.74-1.525,2.626a14.535,14.535,0,0,0-.995,2.063Z" transform="translate(3720.02 1112)" stroke="rgba(0,0,0,0)" stroke-miterlimit="10" stroke-width="1" fill="url(#linear-gradient)"/>
      </g>
    </g>
  </g>
</svg>
