<svg xmlns="http://www.w3.org/2000/svg" xmlns:xlink="http://www.w3.org/1999/xlink" width="272.224" height="212.063" viewBox="0 0 272.224 212.063">
  <defs>
    <linearGradient id="linear-gradient" x1="0.597" y1="0.803" x2="0.582" y2="0.571" gradientUnits="objectBoundingBox">
      <stop offset="0" stop-color="#191e64"/>
      <stop offset="1" stop-color="#17448b"/>
    </linearGradient>
    <filter id="shapingba3" x="0" y="0" width="272.224" height="212.063" filterUnits="userSpaceOnUse">
      <feOffset dy="8" input="SourceAlpha"/>
      <feGaussianBlur stdDeviation="9" result="blur"/>
      <feFlood flood-color="#0f093c" flood-opacity="0.161"/>
      <feComposite operator="in" in2="blur"/>
      <feComposite in="SourceGraphic"/>
    </filter>
    <radialGradient id="radial-gradient" cx="0.483" cy="0.5" r="0.671" gradientTransform="translate(0.079) scale(0.842 1)" gradientUnits="objectBoundingBox">
      <stop offset="0" stop-color="#1fb9e6"/>
      <stop offset="1" stop-color="#0669d2"/>
    </radialGradient>
  </defs>
  <g id="shapingba" transform="translate(-1181.985 -1894.914)">
    <g transform="matrix(1, 0, 0, 1, 1181.99, 1894.91)" filter="url(#shapingba3)">
      <path id="shapingba3-2" data-name="shapingba3" d="M167.82,159.977a11.737,11.737,0,0,1-1.363-.083c-4.906-.592-5.8-7.029-5.7-17.947.036-3.716.06-6.171-.675-8.1-1.619-4.274-6.154-4.851-10.376-4.851-1.88,0-3.878.124-5.994.254l-.031,0c-2.006.123-4.281.263-6.375.263a13.415,13.415,0,0,1-5.216-.668l-.6-.3c-10.139-4.954-20.664-9.538-28.957-9.538a18.148,18.148,0,0,0-3.821.382,18.653,18.653,0,0,0-6.409,3.151,46.422,46.422,0,0,1-6.456,3.7A66.529,66.529,0,0,1,73.4,130.46a156.373,156.373,0,0,1-21.734,3.462c-9.841.953-21.386,1.436-34.315,1.436-4.515,0-9.281-.059-14.165-.175-.742-4.622-1.2-7.994-1.492-10.934-.355-3.669-.792-6.657-1.173-9.1a24.194,24.194,0,0,1-.476-5.376c.3-2.478.178-9.583.077-13.6.091.86.234,1.838.4,2.97.381,2.442.818,5.431,1.173,9.1.291,2.942.751,6.314,1.492,10.933,4.875.116,9.643.176,14.171.176,55.6,0,68.668-8.655,74.947-12.815a18.669,18.669,0,0,1,6.409-3.151,18.147,18.147,0,0,1,3.821-.382c3.758,0,8.234.943,13.684,2.884a153.511,153.511,0,0,1,15.273,6.655l.6.3a13.426,13.426,0,0,0,5.216.668c2.1,0,4.384-.141,6.4-.265h.009c2.117-.131,4.117-.254,5.994-.254a17.558,17.558,0,0,1,6.486.934,6.536,6.536,0,0,1,3.891,3.916c.735,1.932.711,4.387.675,8.1-.106,10.918.792,17.355,5.7,17.947a11.754,11.754,0,0,0,1.363.083c6.087,0,12.256-4.577,15.392-7.306,4.707-4.095,8.048-8.608,8.916-10.949a10.375,10.375,0,0,1,5.344-5.568,40.687,40.687,0,0,1,8.053-2.725c5.015-1.348,10.2-2.741,12.474-6.278a1.341,1.341,0,0,0,.19-.367l-.005-.02.023.019c.034.056.012,3.275-.011,6.684-.029,4.266-.062,9.1-.006,9.317a1.34,1.34,0,0,1-.19.367c-2.275,3.537-7.46,4.931-12.474,6.278-5.339,1.4-11.39,2.986-13.4,8.293-.868,2.341-4.209,6.854-8.916,10.949a37,37,0,0,1-7.445,5.137A17.8,17.8,0,0,1,167.82,159.977Zm25.634-68.223v0c-5.014-9.464,2.534-22.893,8.044-32.7.307-.558.6-1.082.879-1.589.917-1.651,1.708-3.076,2.225-4.193.023,1.591.207,15.554,0,16-.519,1.12-1.312,2.548-2.23,4.2-.283.509-.573,1.031-.874,1.579-2.719,4.838-6.1,10.859-8.043,16.7ZM169.5,47.944c-1.364-4.172-1.226-10.12.421-18.184a221.67,221.67,0,0,1,6.714-23.6c.492-1.475,1-3.022,1.385-4.245,0,.158-.349,15.8.025,15.922-.407,1.281-.92,2.857-1.409,4.324-2.864,8.681-5.711,17.813-7.133,25.784Z" transform="translate(27 17.09)" fill="url(#linear-gradient)"/>
    </g>
    <g id="shapingba2" transform="translate(1209.005 1723.54)" opacity="0.67" fill="url(#radial-gradient)">
      <path d="M 167.8012237548828 331.9371032714844 C 167.3668823242188 331.9361877441406 166.9283752441406 331.9094848632813 166.4977874755859 331.8576965332031 C 164.3651428222656 331.6001586914063 162.9970855712891 330.0959167480469 162.1926727294922 327.123779296875 C 161.4642791748047 324.4325561523438 161.1794281005859 320.6309814453125 161.2401123046875 314.4122314453125 C 161.2761688232422 310.6369934082031 161.2999877929688 308.1453857421875 160.5322570800781 306.1268615722656 C 158.8057250976563 301.5689086914063 154.0818634033203 300.9542846679688 149.6886749267578 300.9542846679688 C 147.7944488525391 300.9542846679688 145.7875671386719 301.0781860351563 143.662841796875 301.2093200683594 L 143.639404296875 301.2107543945313 C 141.6381683349609 301.3340148925781 139.3699798583984 301.4736938476563 137.2883148193359 301.4736938476563 C 134.8118743896484 301.4736938476563 133.1308898925781 301.2659606933594 132.2920684814453 300.8563232421875 L 131.6885375976563 300.5604858398438 C 121.4949493408203 295.57958984375 110.9055328369141 290.9706726074219 102.5117034912109 290.9706726074219 C 101.1115646362305 290.9706726074219 99.79031372070313 291.1029663085938 98.58467102050781 291.3638305664063 L 98.57192230224609 291.3665771484375 L 98.55934143066406 291.3699951171875 C 96.17345428466797 292.0181274414063 93.96401214599609 293.1033325195313 91.99250030517578 294.5953063964844 C 90.45175933837891 295.6159973144531 88.53716278076172 296.8827209472656 85.61148071289063 298.2533569335938 C 82.12581634521484 299.8862915039063 78.08500671386719 301.254638671875 73.25817108154297 302.4365844726563 C 67.20003509521484 303.9200134277344 59.91175842285156 305.0804138183594 51.59578704833984 305.885498046875 C 41.77321243286133 306.8364562988281 30.24559783935547 307.3186950683594 17.33625984191895 307.3186950683594 C 17.33310699462891 307.3186950683594 17.33160591125488 307.3186950683594 17.32845306396484 307.3186950683594 C 12.94321918487549 307.318603515625 8.323909759521484 307.262939453125 3.591641664505005 307.1531677246094 C 2.891697883605957 302.7654113769531 2.451233386993408 299.5156860351563 2.168702602386475 296.6600952148438 C 1.811924815177917 292.96923828125 1.373841404914856 289.9757080078125 0.9923692345619202 287.5343627929688 C 0.4022303223609924 283.4976196289063 0.1325636655092239 281.6530456542969 1.339980363845825 279.8541259765625 C 2.597591400146484 277.9804382324219 5.502285957336426 276.101806640625 11.28920269012451 272.3590087890625 L 13.86336898803711 270.6627502441406 C 24.0068416595459 264.0733337402344 33.71422958374023 251.3079833984375 42.7131462097168 232.7230377197266 C 49.98394012451172 217.7071685791016 54.98398971557617 202.5242919921875 57.39231872558594 194.5249176025391 C 62.02370071411133 195.6870727539063 67.63374328613281 196.2525024414063 74.51976013183594 196.2523803710938 C 87.76570129394531 196.2520904541016 103.6578140258789 194.1152648925781 119.0267028808594 192.0487976074219 L 119.0375061035156 192.0473175048828 L 126.4764785766602 191.0523223876953 C 139.6398162841797 189.3233489990234 150.5271453857422 188.9603729248047 157.3423461914063 188.9603729248047 C 166.1818695068359 188.9603729248047 173.759765625 189.5947570800781 177.3933715820313 190.6268920898438 C 177.0224609375 191.7865447998047 176.5750732421875 193.1551361083984 176.1395111083984 194.4618225097656 C 172.5691680908203 205.2831268310547 169.1450653076172 216.5211486816406 168.2697296142578 225.4121856689453 C 167.2757415771484 235.5082244873047 169.6663055419922 241.4418487548828 175.57861328125 243.55224609375 C 177.4692687988281 244.2520141601563 179.449951171875 244.6168060302734 181.4658660888672 244.6364898681641 C 188.7263336181641 244.6364898681641 194.1101379394531 239.311767578125 197.59130859375 235.136962890625 C 199.4241180419922 236.2069091796875 201.1761779785156 237.5184020996094 202.4448089599609 238.7745666503906 C 203.8449554443359 240.1609649658203 204.2994537353516 241.1532135009766 204.1287536621094 241.5215454101563 C 203.6176452636719 242.6244659423828 202.8287811279297 244.0454864501953 201.9153747558594 245.6908721923828 C 201.6340026855469 246.1977386474609 201.3430633544922 246.7218475341797 201.0406494140625 247.2716522216797 C 195.3994293212891 257.3084411621094 187.6704864501953 271.0597229003906 193.1778717041016 280.7858581542969 C 196.0886535644531 285.8368835449219 202.1595153808594 289.3024597167969 208.0305023193359 292.6539306640625 L 208.0419006347656 292.6604614257813 C 209.7353668212891 293.6281127929688 212.0546722412109 294.9533996582031 214.044921875 296.2611389160156 C 216.7153167724609 298.0157470703125 217.4404602050781 298.8670043945313 217.6304931640625 299.2322387695313 C 217.6139221191406 299.2618103027344 217.5956115722656 299.2904357910156 217.5756225585938 299.3179931640625 L 217.5673980712891 299.329345703125 L 217.5597839355469 299.3411560058594 C 215.3902282714844 302.7147827148438 210.2996215820313 304.0835266113281 205.3765869140625 305.4071655273438 C 199.9237518310547 306.8366394042969 193.7399291992188 308.4578247070313 191.6408996582031 314.0053405761719 C 190.8145294189453 316.2342834472656 187.4586486816406 320.7566833496094 182.8646697998047 324.7537841796875 C 180.4056243896484 326.8933715820313 177.9352264404297 328.5984802246094 175.5220947265625 329.82177734375 C 172.7536773681641 331.2252197265625 170.1559753417969 331.9369201660156 167.8012237548828 331.9371032714844 Z" stroke="none"/>
      <path d="M 167.8020935058594 331.4371032714844 C 172.0716094970703 331.4364929199219 177.3042297363281 328.9290771484375 182.5364837646484 324.3765869140625 C 187.0679321289063 320.4338684082031 190.3672027587891 316.0024719238281 191.1708984375 313.8346862792969 L 191.1720581054688 313.83154296875 L 191.1732635498047 313.8283996582031 C 193.3632965087891 308.040283203125 199.6779327392578 306.3842163085938 205.2503051757813 304.9233703613281 C 209.9968414306641 303.6471557617188 214.9012451171875 302.3280944824219 217.0290679931641 299.2362670898438 C 216.7234039306641 298.86376953125 215.8972778320313 298.0699768066406 213.6814575195313 296.6206970214844 C 211.7229766845703 295.3397216796875 209.4520111083984 294.0420837402344 207.7938385009766 293.0945739746094 L 207.7826538085938 293.0881652832031 C 201.8537902832031 289.7036437988281 195.7230987548828 286.2039184570313 192.7465362548828 281.0387878417969 L 192.7446441650391 281.0355224609375 L 192.7427825927734 281.0322265625 C 187.0970916748047 271.0618591308594 194.9034729003906 257.1703186035156 200.6050720214844 247.0260925292969 C 200.9070434570313 246.4770965576172 201.1974029541016 245.9540557861328 201.4782257080078 245.4482116699219 C 202.3791809082031 243.8252410888672 203.1583251953125 242.4217224121094 203.6622161865234 241.3390502929688 C 203.6621398925781 241.1349945068359 203.3432464599609 240.3129272460938 201.8577575683594 238.9017944335938 C 200.7296752929688 237.8301696777344 199.2451629638672 236.7191619873047 197.7008666992188 235.7839660644531 C 194.1483306884766 239.9826049804688 188.7448272705078 245.1365203857422 181.4707641601563 245.1365203857422 L 181.4658660888672 245.1365203857422 L 181.4609832763672 245.1364593505859 C 179.3880767822266 245.1162261962891 177.3514404296875 244.7412872314453 175.4072875976563 244.0219573974609 C 172.1459045410156 242.8566589355469 169.8722381591797 240.5177459716797 168.6497802734375 237.0702362060547 C 167.5805358886719 234.0547637939453 167.29345703125 230.225341796875 167.7721252441406 225.3631744384766 C 168.6522369384766 216.4237365722656 172.0853424072266 205.1537628173828 175.6651458740234 194.3037109375 C 176.0390167236328 193.1821594238281 176.4215393066406 192.0151062011719 176.7567596435547 190.9742279052734 C 173.0031280517578 190.0331573486328 165.7543334960938 189.4603729248047 157.3423461914063 189.4603729248047 C 150.5421142578125 189.4603729248047 139.6782379150391 189.8226013183594 126.5427856445313 191.5478973388672 L 119.104118347168 192.5428771972656 L 119.0930099487305 192.5443725585938 C 103.7079544067383 194.6130218505859 87.79909515380859 196.7520904541016 74.51978302001953 196.7523803710938 C 67.81977081298828 196.7524719238281 62.31460952758789 196.2189331054688 57.73383712768555 195.1233673095703 C 55.27128601074219 203.2486267089844 50.31333923339844 218.1741485595703 43.16317367553711 232.9409332275391 C 34.12450408935547 251.6079864501953 24.35862159729004 264.4402465820313 14.13555145263672 271.0821838378906 L 11.56792449951172 272.774169921875 L 11.56434154510498 272.7765502929688 L 11.56075763702393 272.7788696289063 C 5.831313610076904 276.4844665527344 2.955452442169189 278.3444519042969 1.755119204521179 280.1327819824219 C 0.6556724905967712 281.7708435058594 0.9159483909606934 283.55517578125 1.487160682678223 287.4622192382813 C 1.869563341140747 289.9098510742188 2.308581829071045 292.9107360839844 2.666258096694946 296.61083984375 C 2.938881158828735 299.3662719726563 3.359504222869873 302.4926147460938 4.019997119903564 306.662841796875 C 8.602748870849609 306.7662048339844 13.07576465606689 306.818603515625 17.3284797668457 306.8186950683594 L 17.32845306396484 307.8186950683594 L 17.33636856079102 306.8186950683594 C 41.17442321777344 306.8186950683594 59.94989776611328 305.1806945800781 73.14122772216797 301.9502258300781 C 83.96766662597656 299.2989196777344 88.62344360351563 296.2273559570313 91.70346832275391 294.18701171875 C 93.72303771972656 292.6611633300781 95.98545837402344 291.5510864257813 98.42828369140625 290.8874816894531 L 98.45345306396484 290.8806457519531 L 98.47895050048828 290.8751220703125 C 99.71928405761719 290.6067504882813 101.0760879516602 290.4706726074219 102.5117034912109 290.4706726074219 C 111.0072021484375 290.4706726074219 121.6605377197266 295.10400390625 131.9086151123047 300.1115112304688 L 132.511474609375 300.4070434570313 C 133.0407867431641 300.66552734375 134.2992095947266 300.9736938476563 137.2883148193359 300.9736938476563 C 139.3547515869141 300.9736938476563 141.6149597167969 300.83447265625 143.6090698242188 300.711669921875 L 143.6320343017578 300.7102661132813 C 145.764892578125 300.57861328125 147.7794799804688 300.4542846679688 149.6886749267578 300.4542846679688 C 154.2525939941406 300.4542846679688 159.1655426025391 301.1072692871094 160.9995880126953 305.9491271972656 C 161.8008728027344 308.0558166503906 161.7767028808594 310.5849304199219 161.7400970458984 314.4170837402344 C 161.6798706054688 320.5875244140625 161.9595642089844 324.3486022949219 162.6753082275391 326.9931640625 C 163.0590667724609 328.4109802246094 163.5599517822266 329.448974609375 164.2066192626953 330.1664733886719 C 164.8265380859375 330.8542785644531 165.5956726074219 331.2451171875 166.5574798583984 331.3612670898438 C 166.9685974121094 331.4107360839844 167.3873443603516 331.4362182617188 167.8020935058594 331.4371032714844 M 167.8003997802734 332.4371032714844 C 167.3450622558594 332.4361572265625 166.8901672363281 332.4084777832031 166.4380950927734 332.3541259765625 C 161.5338439941406 331.7618408203125 160.6335296630859 325.3294372558594 160.7401428222656 314.4073486328125 C 160.7756805419922 310.6877136230469 160.7993469238281 308.2355651855469 160.0649261474609 306.3046264648438 C 158.5592041015625 302.32958984375 154.6548156738281 301.4542846679688 149.6886901855469 301.4542846679688 C 147.8174133300781 301.4542846679688 145.7944946289063 301.5787048339844 143.6936492919922 301.7083740234375 C 141.7224578857422 301.8297729492188 139.3937225341797 301.9736938476563 137.2882995605469 301.9736938476563 C 135.0791320800781 301.9736938476563 133.1159057617188 301.8150939941406 132.0726470947266 301.3056030273438 L 131.4684753417969 301.0094604492188 C 121.1792221069336 295.9818115234375 110.6816329956055 291.4706726074219 102.5117111206055 291.4706726074219 C 101.1721115112305 291.4706726074219 99.89358520507813 291.5921630859375 98.69042205810547 291.8525085449219 C 96.37195587158203 292.4823303222656 94.19622802734375 293.5521240234375 92.28170013427734 295.0034790039063 C 86.20445251464844 299.0294189453125 72.94310760498047 307.8195190429688 17.32845497131348 307.8186645507813 C 12.88573455810547 307.818603515625 8.164820671081543 307.762451171875 3.163730382919312 307.6432495117188 C 2.535897016525269 303.7340393066406 2.002813577651978 300.0617370605469 1.671119213104248 296.7093200683594 C 1.327591419219971 293.1554870605469 0.912980318069458 290.2650451660156 0.4983692169189453 287.6115417480469 C -0.6862419247627258 279.5088500976563 -0.6862419247627258 279.5088500976563 11.01767444610596 271.9391784667969 L 13.58825778961182 270.2452392578125 C 36.98423004150391 255.0467071533203 52.1708984375 210.2449035644531 57.05147933959961 193.9210205078125 C 62.02038192749023 195.2300720214844 67.9560546875 195.7525024414063 74.51976013183594 195.7523651123047 C 87.73529815673828 195.7521057128906 103.4891967773438 193.6334381103516 118.9708709716797 191.5517883300781 L 126.4102020263672 190.5567321777344 C 137.8238830566406 189.0575714111328 148.5418853759766 188.4603881835938 157.3423309326172 188.4603881835938 C 167.2479705810547 188.4603881835938 174.7239532470703 189.2171783447266 178.0235290527344 190.2961273193359 C 177.6326141357422 191.5280914306641 177.1232299804688 193.091796875 176.6138458251953 194.6199340820313 C 169.3285369873047 216.7009887695313 163.2633361816406 238.6280670166016 175.7490844726563 243.0821838378906 C 177.5813140869141 243.7607421875 179.5170135498047 244.117431640625 181.4707641601563 244.1365203857422 C 188.0808715820313 244.1365203857422 193.1865081787109 239.7060394287109 197.4747924804688 234.4937896728516 C 201.5142822265625 236.7682342529297 205.2576141357422 240.274658203125 204.5824279785156 241.7317657470703 C 203.9071960449219 243.1888275146484 202.7818450927734 245.1434020996094 201.478759765625 247.5126190185547 C 195.8992614746094 257.4396362304688 188.2467041015625 271.0626220703125 193.6129455566406 280.5394897460938 C 196.4323425292969 285.431884765625 202.4264526367188 288.8790893554688 208.2783966064453 292.2196960449219 C 211.5953063964844 294.1150512695313 217.7552642822266 297.6333312988281 218.1698760986328 299.2444152832031 C 218.1255950927734 299.3756713867188 218.0616760253906 299.4994812011719 217.9803466796875 299.6116027832031 C 215.7177276611328 303.1299133300781 210.5291748046875 304.53955078125 205.5064239501953 305.8900146484375 C 199.9032592773438 307.3589172363281 194.0986480712891 308.922607421875 192.1085357666016 314.1822814941406 C 190.3079223632813 319.0391540527344 178.2367858886719 332.4370727539063 167.8003997802734 332.4371032714844 Z" stroke="none" fill="#30abec"/>
    </g>
    <text id="shapingba1" transform="translate(1298.504 1981.72)" fill="#fff" font-size="10" font-family="MicrosoftYaHei, Microsoft YaHei"><tspan x="0" y="0">沙坪坝区</tspan></text>
  </g>
</svg>
