<svg xmlns="http://www.w3.org/2000/svg" xmlns:xlink="http://www.w3.org/1999/xlink" width="327" height="258" viewBox="0 0 327 258">
  <defs>
    <linearGradient id="linear-gradient" x1="0.5" x2="0.5" y2="1" gradientUnits="objectBoundingBox">
      <stop offset="0" stop-color="#191e64"/>
      <stop offset="1" stop-color="#17448b"/>
    </linearGradient>
    <filter id="shizhu1" x="74.5" y="45.901" width="177.584" height="194.651" filterUnits="userSpaceOnUse">
      <feOffset dy="8" input="SourceAlpha"/>
      <feGaussianBlur stdDeviation="9" result="blur"/>
      <feFlood flood-opacity="0.161"/>
      <feComposite operator="in" in2="blur"/>
      <feComposite in="SourceGraphic"/>
    </filter>
    <radialGradient id="radial-gradient" cx="0.5" cy="0.5" r="0.5" gradientUnits="objectBoundingBox">
      <stop offset="0" stop-color="#1fb9e6"/>
      <stop offset="1" stop-color="#0669d2"/>
    </radialGradient>
    <clipPath id="clip-shizhu">
      <rect width="327" height="258"/>
    </clipPath>
  </defs>
  <g id="shizhu" clip-path="url(#clip-shizhu)">
    <rect width="327" height="258" fill="rgba(0,0,0,0)"/>
    <g id="shizhu-2" data-name="shizhu">
      <g transform="matrix(1, 0, 0, 1, 0, 0)" filter="url(#shizhu1)">
        <path id="shizhu1-2" data-name="shizhu1" d="M38.414,138.7h0c-1.723-.709-3.509-1.343-5.309-1.883a22.2,22.2,0,0,1-2.538-.987V119.608l.073-.05.13-.089c.641.246,1.426.513,2.335.794,1.8.54,3.587,1.174,5.31,1.883a29.392,29.392,0,0,0,2.514-5.675l.374-1.089,0-.007c1.739-5.14,2.887-8.536,6.915-9.029.224-.018.452-.027.678-.027a8.148,8.148,0,0,1,5.532,2.117c3.823,3.19,9.48,3.843,16.8,3.843,5.136,0,5.691-2.037,5.691-2.912a2.989,2.989,0,0,1,1.938-3.046,5.237,5.237,0,0,1,1.865-.34l.162,0c.015-.159.032-.354.032-.586a5.277,5.277,0,0,0-.429-1.893c-.2-.526-.353-.941-.154-1.228.245-.354,1.039-.505,2.653-.505a11.338,11.338,0,0,0,7.451-2.137c.391-.237.794-.481,1.254-.749a10.655,10.655,0,0,1,5.718-1.6,28.415,28.415,0,0,1,8.785,1.845,6.791,6.791,0,0,0,2.134.4,3.127,3.127,0,0,0,3.088-2.269A16.7,16.7,0,0,0,112.167,92c.042.3.086.595.134.906a25.238,25.238,0,0,1,.107,8.272,39.906,39.906,0,0,0-.217,5.037c-.018,4.855-.037,9.873-3.867,9.874a6.792,6.792,0,0,1-2.134-.4,28.409,28.409,0,0,0-8.785-1.846,10.654,10.654,0,0,0-5.717,1.6c-.46.268-.863.513-1.253.749a11.34,11.34,0,0,1-7.452,2.138c-1.614,0-2.407.151-2.653.505-.2.287-.043.7.153,1.228a5.276,5.276,0,0,1,.429,1.893c0,.224-.015.414-.032.586l-.162,0a5.237,5.237,0,0,0-1.865.34,2.99,2.99,0,0,0-1.938,3.046c0,.876-.555,2.912-5.691,2.912-7.317,0-12.973-.654-16.8-3.843a8.148,8.148,0,0,0-5.532-2.117c-.225,0-.453.009-.678.027-4.027.494-5.176,3.889-6.915,9.029l0,.007-.374,1.089a29.394,29.394,0,0,1-2.513,5.674Zm-6.854-19.766v0c.572-.383,1.155-.766,1.733-1.14A5.71,5.71,0,0,1,31.561,118.938Zm6.176-8.905h0c-5.331-2.5-14.26-3.754-17.761-3.754l-1.431.009c-.442.005-.818.007-1.147.007a13.677,13.677,0,0,1-3.769-.33,2.451,2.451,0,0,1-1.6-1.469,14.275,14.275,0,0,1-.842-2.823,9.943,9.943,0,0,0-5.4-7.571C3.28,92.645,3.271,91.737,3.25,89.747a13.693,13.693,0,0,0-.637-4.45C1.626,82.265.016,76.856,0,76.8V60.837l.194.067c.478,1.62,1.428,4.791,2.419,7.835a13.684,13.684,0,0,1,.637,4.449c.02,1.991.03,2.9,2.536,4.358a9.942,9.942,0,0,1,5.4,7.57,14.28,14.28,0,0,0,.843,2.824c.714,1.55,1.9,1.8,5.362,1.8.333,0,.711,0,1.156-.008l1.431-.009c4.433,0,19.472,2.15,21.982,7.147,2.1,4.168,2.291,7.234-2.739,11.5a14.9,14.9,0,0,0-1.482,1.669ZM112.583,83.11v0a25,25,0,0,0-.282-6.76,19.933,19.933,0,0,1-.307-3.09c0-2,0-2.743-.662-2.743a6.632,6.632,0,0,0-1.822.565l-.006,0a1.046,1.046,0,0,1-.351.085c-.1,0-.163-.039-.182-.115-.231-.915,5.448-6.916,10.064-9.4,1.718-.924,2.636-1.656,2.889-2.3.369,2.692,1.956,16.253-2.889,18.859a32.332,32.332,0,0,0-6.451,4.9Zm9.226-24.763a8.71,8.71,0,0,0-2.264-1.938c-.533-.378-1.134-.8-1.751-1.284-1.1-.86-1.546-1.412-1.575-1.969s.365-1.108.961-1.943a20.669,20.669,0,0,0,3.1-6,5.466,5.466,0,0,0,.251-1.169l1.281,14.3ZM86.05,19.823h0c-3.4-1.3-5.252-2.619-5.208-3.719.03-.733.892-1.351,2.562-1.838,2.61-.76,2.479-1.335,2.128-2.87a13.03,13.03,0,0,1,.355-7.527A11.6,11.6,0,0,1,87.423.3L87.75,0c-.313,2.418-.448,4.367-.557,5.933-.084,1.214-.151,2.172-.271,2.819-.415,2.857-.843,5.811.827,7.625a11.739,11.739,0,0,0-1.7,3.445Z" transform="translate(102 66.2)" stroke="rgba(0,0,0,0)" stroke-miterlimit="10" stroke-width="1" fill="url(#linear-gradient)"/>
      </g>
      <g id="thick_shizu" transform="translate(-605.541 -173.171)" opacity="0.67" fill="url(#radial-gradient)">
        <path d="M 745.736572265625 360.8878173828125 C 744.1240844726563 360.2383728027344 742.4619140625 359.6560668945313 740.789306640625 359.1549072265625 C 740.2957153320313 359.0022277832031 739.8401489257813 358.8541564941406 739.425537109375 358.7117614746094 C 741.8171997070313 357.62353515625 742.7601318359375 355.4872436523438 743.6762084960938 353.4122314453125 L 743.6787109375 353.4064636230469 L 743.6865844726563 353.3886108398438 L 743.6930541992188 353.3702392578125 C 744.3757934570313 351.4264526367188 745.552490234375 349.6062316894531 747.0966796875 348.1050720214844 C 752.3380737304688 343.6578063964844 752.1105346679688 340.3030090332031 749.9454956054688 336.0137329101563 C 749.3133544921875 334.7554931640625 747.9352416992188 333.5953369140625 745.8499755859375 332.5662536621094 C 744.1336669921875 331.7192993164063 741.9469604492188 330.959228515625 739.3504028320313 330.3071594238281 C 734.9149169921875 329.1932678222656 729.9430541992188 328.5922241210938 727.5169067382813 328.5922241210938 L 726.0835571289063 328.6013793945313 C 725.6422729492188 328.6063537597656 725.2685546875 328.6087646484375 724.938720703125 328.6087646484375 C 721.2785034179688 328.6087646484375 720.562744140625 328.2708435058594 720.0258178710938 327.109619140625 C 719.6627807617188 326.2321472167969 719.390625 325.31884765625 719.217041015625 324.3949584960938 L 719.2155151367188 324.3867797851563 L 719.2136840820313 324.3786315917969 C 718.68798828125 322.0180969238281 718.0342407226563 319.0825500488281 713.5792236328125 316.4847412109375 C 712.458740234375 315.8327026367188 711.8603515625 315.3058166503906 711.5780029296875 314.7228088378906 C 711.3087158203125 314.1668090820313 711.3009643554688 313.4935607910156 711.2913818359375 312.5627136230469 C 711.3263549804688 311.0041809082031 711.1043701171875 309.4552001953125 710.6315307617188 307.9588012695313 C 709.6481323242188 304.9400634765625 708.6922607421875 301.7504272460938 708.1961059570313 300.0696411132813 C 712.8190307617188 299.6900329589844 717.1932983398438 298.1532287597656 720.8834228515625 295.6068115234375 C 724.4994506835938 293.0638122558594 726.1001586914063 290.1379089355469 725.2787475585938 287.5767822265625 L 725.27734375 287.5724792480469 L 725.27587890625 287.5681762695313 C 724.7586059570313 286.0505981445313 723.9713134765625 284.6293334960938 722.9360961914063 283.3438720703125 C 722.4944458007813 282.7528686523438 722.1463623046875 282.2861938476563 722.1262817382813 282.057861328125 C 722.1141967773438 281.9202270507813 722.3072509765625 281.696533203125 722.771728515625 281.3099060058594 C 723.5703125 280.6452941894531 726.3031005859375 280.1241455078125 728.2985229492188 279.7435913085938 L 728.3143310546875 279.7405700683594 C 731.4970092773438 279.1393127441406 734.5040283203125 278.5712280273438 735.5673828125 276.8370971679688 C 735.9464111328125 276.2229614257813 736.342041015625 274.9695434570313 734.7243041992188 273.4887084960938 C 733.93505859375 272.7621459960938 732.9774780273438 272.0408935546875 732.0514526367188 271.3434143066406 L 731.9776000976563 271.2878112792969 C 731.5081787109375 270.9374084472656 730.8013916015625 270.4099426269531 730.2006225585938 269.9114685058594 C 729.7464599609375 269.5346374511719 729.4820556640625 269.2803649902344 729.32861328125 269.1148681640625 C 729.5088500976563 269.045166015625 729.69775390625 268.9931335449219 729.8937377929688 268.9593200683594 L 729.9122314453125 268.9561462402344 L 729.9303588867188 268.9515686035156 C 730.8499755859375 268.7210083007813 731.7321166992188 268.5184020996094 732.6660766601563 268.3039245605469 L 732.9723510742188 268.2335510253906 C 735.5330200195313 267.6471862792969 737.9505004882813 267.0935974121094 739.80615234375 266.1675415039063 C 741.9468994140625 265.0992431640625 743.1151123046875 263.6128540039063 743.377685546875 261.6233825683594 L 743.41650390625 261.3428649902344 L 743.4202270507813 261.3151550292969 C 743.7468872070313 258.85986328125 744.0554809570313 256.5407409667969 741.5054321289063 254.9311828613281 C 739.9360961914063 253.9435119628906 737.681396484375 253.4836578369141 734.4091796875 253.4836578369141 L 734.4054565429688 253.4836578369141 L 734.4016723632813 253.4837036132813 C 734.2371215820313 253.4861755371094 734.0701904296875 253.4874420166016 733.9055786132813 253.4874420166016 C 733.1083374023438 253.4874420166016 732.3071899414063 253.4582366943359 731.509033203125 253.4002838134766 C 731.5885620117188 253.3717193603516 731.6682739257813 253.3437347412109 731.7481079101563 253.3162689208984 L 731.7506713867188 253.3153839111328 L 731.7532348632813 253.3144683837891 C 734.9620361328125 252.1719512939453 738.1428833007813 250.7697448730469 741.218994140625 249.4137115478516 C 743.2879638671875 248.4998626708984 748.7269897460938 246.0974273681641 749.89794921875 245.9740753173828 C 754.3511962890625 246.8772277832031 758.9171752929688 247.4769439697266 763.4697875976563 247.7566375732422 L 763.4749755859375 247.7569580078125 L 763.480224609375 247.7571716308594 C 763.7979736328125 247.7700042724609 764.1201782226563 247.7765197753906 764.43798828125 247.7765197753906 C 767.7296142578125 247.7764892578125 771.0254516601563 247.0770568847656 773.9691772460938 245.7538757324219 C 776.3340454101563 244.6705932617188 779.2823486328125 242.7173461914063 779.9163208007813 239.5555725097656 C 780.1902465820313 238.2094879150391 782.4365234375 235.7388610839844 785.7781982421875 233.1092376708984 C 788.7401733398438 230.7783966064453 791.9763793945313 228.7881774902344 794.2576293945313 227.876220703125 C 794.2882690429688 229.0801391601563 794.1925048828125 230.2872619628906 793.9718017578125 231.4735717773438 L 793.969970703125 231.4833984375 L 793.9685668945313 231.4932861328125 C 793.559326171875 234.31640625 793.136962890625 237.2309112548828 794.6630249023438 239.2196655273438 C 793.8566284179688 240.4246368408203 793.2796630859375 241.7309722900391 792.9459228515625 243.1087493896484 C 791.7319946289063 247.1362457275391 792.2664794921875 249.4779663085938 792.5859375 250.8778839111328 C 792.7522583007813 251.6067504882813 792.8323364257813 251.9985961914063 792.6884155273438 252.2454986572266 C 792.5147094726563 252.5435333251953 791.9163208007813 252.8331756591797 790.8052368164063 253.1569671630859 C 788.8689575195313 253.7212677001953 787.9130249023438 254.4775390625 787.8827514648438 255.4690246582031 C 787.8582763671875 256.2716369628906 788.4624633789063 257.0623168945313 789.72998046875 257.8861999511719 C 790.7783203125 258.5676574707031 792.2444458007813 259.2486267089844 794.0875244140625 259.9101257324219 C 795.9369506835938 260.5739440917969 798.4509887695313 261.0599365234375 801.1126098632813 261.574462890625 C 806.0360107421875 262.5262451171875 811.6162719726563 263.60498046875 812.8777465820313 265.9620056152344 C 813.5975341796875 267.3067626953125 815.6583251953125 268.9741516113281 818.0445556640625 270.9048156738281 C 820.4742431640625 272.8706665039063 823.2281494140625 275.0987854003906 825.1607055664063 277.4513244628906 C 827.3165283203125 280.0756530761719 828.0307006835938 282.3581848144531 827.3440551757813 284.4293212890625 C 826.3431396484375 287.4483032226563 825.1220703125 289.1605224609375 824.3140258789063 290.2935485839844 C 823.0294189453125 292.0947265625 822.5653076171875 292.9718933105469 825.02783203125 294.890625 C 825.6538696289063 295.37841796875 826.2606201171875 295.8080444335938 826.7960205078125 296.1871337890625 C 828.01953125 297.0534973144531 829.0762329101563 297.8017272949219 829.0415649414063 298.3656616210938 C 829.00927734375 298.8911437988281 828.100341796875 299.6376342773438 826.3399658203125 300.5843811035156 C 824.2393188476563 301.7141418457031 821.6930541992188 303.6779479980469 819.3540649414063 305.9722595214844 C 818.3887329101563 306.9191589355469 817.5302124023438 307.8594970703125 816.9366455078125 308.6200866699219 C 816.0103149414063 309.8069763183594 815.9522705078125 310.2469177246094 816.027587890625 310.5455627441406 C 816.10302734375 310.8450012207031 816.36474609375 311.0384826660156 816.6942749023438 311.0384826660156 C 816.6943969726563 311.0384826660156 816.6945190429688 311.0384826660156 816.6946411132813 311.0384826660156 C 816.8460083007813 311.0384216308594 817.02001953125 310.9994506835938 817.2265625 310.9193115234375 L 817.2332153320313 310.9167175292969 C 817.9970703125 310.6203308105469 818.6004638671875 310.3861999511719 818.8734130859375 310.3861999511719 C 818.8855590820313 310.3861999511719 818.8948974609375 310.3867492675781 818.90185546875 310.3874206542969 C 819.0353393554688 310.6013793945313 819.0353393554688 311.5870361328125 819.0353393554688 312.6289672851563 C 819.0353393554688 313.7460327148438 819.1871337890625 314.7410278320313 819.3478393554688 315.79443359375 C 819.6503295898438 317.7774963378906 819.9932250976563 320.0251159667969 819.4541625976563 323.9227600097656 C 819.2462768554688 325.4258117675781 819.2398681640625 327.1760559082031 819.233154296875 329.0290832519531 C 819.2245483398438 331.3988037109375 819.2156372070313 333.8492126464844 818.7459106445313 335.652099609375 C 818.2503051757813 337.5541076660156 817.3621826171875 338.4023132324219 815.8661499023438 338.4023132324219 C 815.2982788085938 338.4023132324219 814.6342163085938 338.2752075195313 813.8924560546875 338.0245666503906 C 810.1143188476563 336.7477416992188 807.2719116210938 336.153076171875 804.9471435546875 336.153076171875 C 802.7686157226563 336.153076171875 800.9832763671875 336.6529541015625 798.977294921875 337.8245239257813 C 798.5133666992188 338.0952453613281 798.0895385742188 338.3517456054688 797.715576171875 338.5780639648438 C 795.37353515625 339.9954528808594 794.3046264648438 340.642333984375 790.5240478515625 340.642333984375 C 788.6549072265625 340.642333984375 787.8245849609375 340.8375549316406 787.4605712890625 341.3626403808594 C 787.1124877929688 341.8647155761719 787.3283081054688 342.4408569335938 787.5567626953125 343.0508422851563 C 787.7431640625 343.5484924316406 787.9544677734375 344.1125183105469 787.9544677734375 344.7681274414063 C 787.9544677734375 344.7992858886719 787.9541625976563 344.8297729492188 787.9534912109375 344.8597717285156 C 787.3561401367188 344.8910522460938 786.773681640625 345.0131530761719 786.218017578125 345.2239685058594 L 786.2106323242188 345.2267761230469 L 786.2033081054688 345.2297973632813 C 784.7040405273438 345.8536987304688 783.8047485351563 347.2706298828125 783.9571533203125 348.7626953125 C 783.9514770507813 349.1323852539063 783.8172607421875 349.6612548828125 783.2269897460938 350.1291809082031 C 782.3845825195313 350.796875 780.8421630859375 351.1498413085938 778.7664184570313 351.1498413085938 C 771.565185546875 351.1498413085938 766.0082397460938 350.5171203613281 762.3001098632813 347.4319763183594 C 760.77197265625 346.0068359375 758.6359252929688 345.189697265625 756.4370727539063 345.189697265625 C 756.1990966796875 345.189697265625 755.9581298828125 345.1992492675781 755.7208862304688 345.2180786132813 L 755.710205078125 345.2189331054688 L 755.6995849609375 345.2202453613281 C 753.676025390625 345.4684448242188 752.1904907226563 346.4210510253906 751.0244750976563 348.2181701660156 C 749.9822387695313 349.8245239257813 749.2355346679688 352.0322570800781 748.3709716796875 354.588623046875 L 747.9965209960938 355.6798706054688 L 747.994873046875 355.6846618652344 L 747.9933471679688 355.6894836425781 C 747.4205322265625 357.4761352539063 746.662109375 359.2228393554688 745.736572265625 360.8878173828125 Z" stroke="none"/>
        <path d="M 745.510009765625 360.2594299316406 C 746.3246459960938 358.7398071289063 746.9984741210938 357.1549377441406 747.5172119140625 355.536865234375 L 747.5203247070313 355.5271911621094 L 747.5236206054688 355.517578125 L 747.8973388671875 354.4284057617188 C 749.6907348632813 349.1257934570313 750.9865112304688 345.2945861816406 755.638671875 344.7239685058594 L 755.659912109375 344.7213745117188 L 755.6812744140625 344.7196655273438 C 755.9315795898438 344.6997680664063 756.1858520507813 344.689697265625 756.4370727539063 344.689697265625 C 758.7561645507813 344.689697265625 761.0117797851563 345.5520629882813 762.6307373046875 347.0566101074219 C 766.2236938476563 350.0381469726563 771.6807861328125 350.6498413085938 778.7664184570313 350.6498413085938 C 781.2449340820313 350.6498413085938 782.3912353515625 350.1536254882813 782.9163818359375 349.7373352050781 C 783.2616577148438 349.4636535644531 783.4432373046875 349.14208984375 783.45654296875 348.7809753417969 C 783.2975463867188 347.07958984375 784.31689453125 345.4732360839844 786.0111694335938 344.7681884765625 L 786.0258178710938 344.7620849609375 L 786.0406494140625 344.7564392089844 C 786.489501953125 344.586181640625 786.9542846679688 344.4691162109375 787.4297485351563 344.40625 C 787.373291015625 343.9863891601563 787.2290649414063 343.601318359375 787.0885620117188 343.2262268066406 C 786.8496704101563 342.5885620117188 786.5524291992188 341.7949829101563 787.0496215820313 341.0777893066406 C 787.592041015625 340.29541015625 788.7343139648438 340.142333984375 790.5240478515625 340.142333984375 C 794.1651000976563 340.142333984375 795.128662109375 339.5592041015625 797.4566650390625 338.1503295898438 C 797.8322143554688 337.9230346679688 798.2578735351563 337.6654052734375 798.72509765625 337.3927917480469 C 800.81298828125 336.1733703613281 802.6737670898438 335.653076171875 804.9471435546875 335.653076171875 C 807.3280029296875 335.653076171875 810.2213134765625 336.256103515625 814.052490234375 337.5508728027344 C 814.7426147460938 337.7840576171875 815.3528442382813 337.9023132324219 815.8661499023438 337.9023132324219 C 816.7447509765625 337.9023132324219 817.7164306640625 337.6199951171875 818.2620239257813 335.5260314941406 C 818.7158203125 333.7842407226563 818.7246704101563 331.365966796875 818.733154296875 329.0272827148438 C 818.7396240234375 327.2393188476563 818.746337890625 325.3904724121094 818.9589233398438 323.8542785644531 C 819.4879760742188 320.0286254882813 819.1509399414063 317.8191833496094 818.853515625 315.8698425292969 C 818.6898803710938 314.7971496582031 818.5353393554688 313.7839660644531 818.5353393554688 312.6289672851563 C 818.5353393554688 312.0112915039063 818.5353393554688 311.37890625 818.5064086914063 310.97705078125 C 818.21435546875 311.0723266601563 817.8099365234375 311.2292785644531 817.4141235351563 311.3828430175781 L 817.4074096679688 311.3854675292969 C 817.1422729492188 311.4883422851563 816.9091796875 311.5383911132813 816.69482421875 311.5384826660156 C 816.6946411132813 311.5384826660156 816.6945190429688 311.5384826660156 816.6943359375 311.5384826660156 C 816.1368408203125 311.5384826660156 815.6740112304688 311.1885986328125 815.542724609375 310.6677551269531 C 815.3954467773438 310.0834045410156 815.6757202148438 309.4230346679688 816.5424194335938 308.3124694824219 C 817.149169921875 307.5350341796875 818.0233764648438 306.5771789550781 819.0039672851563 305.6153259277344 C 820.1257934570313 304.514892578125 823.0632934570313 301.7789001464844 826.1031494140625 300.1440124511719 C 828.4503173828125 298.8817138671875 828.5399169921875 298.3560791015625 828.5426025390625 298.3389282226563 C 828.5424194335938 298.3373718261719 828.51806640625 298.1804504394531 828.1072387695313 297.8063049316406 C 827.7217407226563 297.4552917480469 827.1588745117188 297.0567016601563 826.507080078125 296.5951843261719 C 825.9673461914063 296.2130126953125 825.3555908203125 295.7798461914063 824.7205200195313 295.2850341796875 C 823.5833129882813 294.3989868164063 822.8151245117188 293.5997619628906 822.7620239257813 292.5791931152344 C 822.7149658203125 291.6745910644531 823.240966796875 290.93701171875 823.9069213867188 290.0032043457031 C 824.7448120117188 288.828369140625 825.8922729492188 287.2193908691406 826.8694458007813 284.27197265625 C 827.4977416992188 282.3769226074219 826.8124389648438 280.2496948242188 824.7743530273438 277.7687072753906 C 822.8740844726563 275.4554748535156 820.1412353515625 273.2443542480469 817.7301025390625 271.2935485839844 C 815.2015991210938 269.2477416992188 813.2044067382813 267.6318664550781 812.4369506835938 266.1979370117188 C 811.2877807617188 264.0507507324219 805.5933227539063 262.9499206542969 801.0177612304688 262.0653991699219 C 798.336669921875 261.547119140625 795.8042602539063 261.0575561523438 793.9185791015625 260.3807678222656 C 787.3050537109375 258.0070495605469 787.3637084960938 256.0852966308594 787.3829956054688 255.4537658691406 C 787.4390258789063 253.6172027587891 789.8673706054688 252.9095001220703 790.6653442382813 252.6769561767578 C 792.0624389648438 252.269775390625 792.24072265625 252.0207824707031 792.2553100585938 251.9960632324219 C 792.2998046875 251.8714904785156 792.1786499023438 251.3404846191406 792.0984497070313 250.9891204833984 C 791.7683715820313 249.54248046875 791.21630859375 247.1235504150391 792.4632568359375 242.9774322509766 C 792.7845458984375 241.65771484375 793.3197631835938 240.4014282226563 794.057861328125 239.233154296875 C 792.6494140625 237.1068878173828 793.06787109375 234.2211303710938 793.4736938476563 231.4215545654297 L 793.4766235351563 231.4017791748047 L 793.480224609375 231.3821258544922 C 793.649169921875 230.4742279052734 793.74267578125 229.5539398193359 793.7601928710938 228.6324462890625 C 791.585693359375 229.6201629638672 788.7304077148438 231.4223327636719 786.08740234375 233.5021667480469 C 782.444580078125 236.3687591552734 780.6090698242188 238.6587982177734 780.4065551757813 239.6538696289063 C 779.8719482421875 242.3201141357422 777.7190551757813 244.5861206054688 774.1806030273438 246.2069854736328 L 774.1773681640625 246.2084503173828 L 774.1741333007813 246.2098999023438 C 771.16650390625 247.5618591308594 767.7998046875 248.2764739990234 764.4380493164063 248.2765045166016 C 764.1132202148438 248.2765045166016 763.7841796875 248.2698516845703 763.4600219726563 248.2567443847656 L 763.4495849609375 248.2563323974609 L 763.4391479492188 248.2556915283203 C 758.8926391601563 247.9763641357422 754.3334350585938 247.3795928955078 749.8847045898438 246.4815521240234 C 749.6295776367188 246.5276794433594 748.814697265625 246.7407379150391 746.4389038085938 247.7127838134766 C 744.6539916992188 248.4430694580078 742.6304321289063 249.3368835449219 741.4207153320313 249.8712310791016 C 739.0200805664063 250.9294891357422 736.5556030273438 252.015869140625 734.0599975585938 252.987060546875 C 734.171630859375 252.9865264892578 734.2835083007813 252.9854278564453 734.3941040039063 252.9837646484375 L 734.4016723632813 252.9836578369141 L 734.4091796875 252.9836578369141 C 737.77978515625 252.9836578369141 740.1190795898438 253.4679260253906 741.7722778320313 254.5083618164063 C 744.5933837890625 256.2890014648438 744.2489624023438 258.877685546875 743.9158935546875 261.3811340332031 L 743.9125366210938 261.4061584472656 L 743.9121704101563 261.4088439941406 L 743.9118041992188 261.4115295410156 L 743.8729248046875 261.69189453125 C 743.2503051757813 266.392578125 738.3126831054688 267.5235900878906 733.0843505859375 268.7208557128906 L 732.7786254882813 268.7910766601563 C 731.9418334960938 268.9832458496094 731.146728515625 269.1658630371094 730.3305053710938 269.3672790527344 C 730.4147338867188 269.4392700195313 730.5081176757813 269.5174255371094 730.611328125 269.6021118164063 C 731.1815795898438 270.0697937011719 731.8394775390625 270.5608215332031 732.2784423828125 270.888427734375 L 732.352783203125 270.9444274902344 C 733.288330078125 271.6490783691406 734.2557373046875 272.3777160644531 735.0619506835938 273.1199340820313 C 737.015380859375 274.9081115722656 736.3632202148438 276.4996643066406 735.9935913085938 277.0984802246094 C 734.8145141601563 279.0214233398438 731.7017822265625 279.6094665527344 728.4080200195313 280.2317199707031 L 728.3917236328125 280.2348022460938 C 726.6708984375 280.5630187988281 723.7908325195313 281.1123046875 723.0916137695313 281.6942138671875 C 722.8539428710938 281.8920288085938 722.7293701171875 282.013916015625 722.6643676757813 282.0858764648438 C 722.7774658203125 282.2954711914063 723.0673828125 282.6842346191406 723.3309936523438 283.0370788574219 C 724.400390625 284.3664245605469 725.2138671875 285.8364562988281 725.7491455078125 287.4068603515625 L 725.7520751953125 287.4154663085938 L 725.7548217773438 287.4241027832031 C 726.6475830078125 290.2077331542969 724.9782104492188 293.33837890625 721.1746826171875 296.0132751464844 L 721.1710205078125 296.0158081054688 L 721.1674194335938 296.0183410644531 C 717.5684814453125 298.5018310546875 713.332275390625 300.0433349609375 708.8482666015625 300.5110168457031 C 709.373779296875 302.2799072265625 710.2293090820313 305.1097106933594 711.1055908203125 307.7996826171875 L 711.1069946289063 307.8038940429688 L 711.1083374023438 307.8081665039063 C 711.5968627929688 309.354248046875 711.82666015625 310.9546813964844 711.7914428710938 312.5652770996094 C 711.8006591796875 313.4588317871094 711.8080444335938 314.0507202148438 712.0279541015625 314.5048522949219 C 712.2605590820313 314.9850463867188 712.81640625 315.4623413085938 713.8310546875 316.0528259277344 C 718.4747924804688 318.7606811523438 719.1548461914063 321.8144226074219 719.7017211914063 324.2699279785156 L 719.7053833007813 324.2862243652344 L 719.7084350585938 324.3026428222656 C 719.8751220703125 325.1895141601563 720.1360473632813 326.06640625 720.4840698242188 326.9092712402344 C 720.8967895507813 327.7973937988281 721.3781127929688 328.1087341308594 724.938720703125 328.1087341308594 C 725.2662963867188 328.1087341308594 725.63818359375 328.1063537597656 726.0803833007813 328.1013488769531 L 727.510498046875 328.0922241210938 L 727.513671875 328.0922241210938 L 727.5169067382813 328.0922241210938 C 729.9730224609375 328.0922241210938 734.997802734375 328.6985473632813 739.47216796875 329.8222045898438 C 745.4879760742188 331.3329467773438 749.1621704101563 333.3408203125 750.391845703125 335.7883911132813 C 752.6102905273438 340.1834411621094 752.8888549804688 343.840087890625 747.43310546875 348.4753723144531 C 745.9500732421875 349.9205932617188 744.8202514648438 351.6698303222656 744.164794921875 353.5359191894531 L 744.15185546875 353.5726928710938 L 744.1361083984375 353.6083679199219 L 744.1336059570313 353.6141662597656 C 743.3169555664063 355.4640808105469 742.479736328125 357.360595703125 740.66748046875 358.5930786132813 C 740.7557373046875 358.6208801269531 740.8452758789063 358.6488342285156 740.936279296875 358.677001953125 C 742.4796142578125 359.1395263671875 744.0142822265625 359.6705627441406 745.510009765625 360.2594299316406 M 745.9552001953125 361.5167846679688 C 744.224609375 360.8037719726563 742.4524536132813 360.1752014160156 740.6458129882813 359.6338806152344 C 739.34814453125 359.2324523925781 738.494873046875 358.9200439453125 737.932861328125 358.69091796875 L 738.1075439453125 358.6465454101563 C 741.1726684570313 357.85009765625 742.1649780273438 355.5973510742188 743.2213134765625 353.2045288085938 C 743.93603515625 351.169677734375 745.1447143554688 349.3017578125 746.7603149414063 347.7347412109375 C 751.7931518554688 343.47021484375 751.6049194335938 340.4108581542969 749.4991455078125 336.239013671875 C 746.989013671875 331.2429504394531 731.9486694335938 329.0922241210938 727.5169067382813 329.0922241210938 L 726.0867309570313 329.1013488769531 C 725.6776123046875 329.10595703125 725.2960205078125 329.1087341308594 724.938720703125 329.1087341308594 C 721.3508911132813 329.1087341308594 720.2659912109375 328.8278503417969 719.5677490234375 327.3102722167969 C 719.1882934570313 326.3950805664063 718.9065551757813 325.4500427246094 718.7256469726563 324.4873046875 C 718.1958618164063 322.1084899902344 717.5947265625 319.4050903320313 713.3273315429688 316.9166870117188 C 710.8231811523438 315.4593505859375 710.8118896484375 314.5573120117188 710.7913208007813 312.5594177246094 C 710.825927734375 311.0560607910156 710.6119384765625 309.5562744140625 710.15478515625 308.1094360351563 C 709.152099609375 305.0315856933594 708.1349487304688 301.6412658691406 707.5410766601563 299.61474609375 C 712.2862548828125 299.3335266113281 716.83154296875 297.7953796386719 720.5994262695313 295.1952819824219 C 724.0205078125 292.7893676757813 725.5527954101563 290.0685424804688 724.8026123046875 287.7294921875 C 724.3042602539063 286.2674560546875 723.5401611328125 284.889404296875 722.5408935546875 283.6502990722656 C 721.4241943359375 282.1558532714844 721.2534790039063 281.9231262207031 722.4518432617188 280.9256286621094 C 723.3519287109375 280.1765441894531 726.0474853515625 279.6638793945313 728.2206420898438 279.2494201660156 C 731.2926635742188 278.6690673828125 734.1951293945313 278.1184692382813 735.14111328125 276.5757446289063 C 735.50732421875 275.9823913574219 735.6708374023438 275.0329895019531 734.38671875 273.8575439453125 C 733.59423828125 273.1279907226563 732.6367797851563 272.4103393554688 731.6767578125 271.6871643066406 C 730.583740234375 270.8713989257813 728.5535888671875 269.3519897460938 728.6353759765625 268.8995361328125 C 728.9901733398438 268.6860046386719 729.3892822265625 268.5389404296875 729.8087768554688 268.4665832519531 C 730.8331909179688 268.209716796875 731.807861328125 267.9882202148438 732.8602905273438 267.7462768554688 C 737.953369140625 266.5799865722656 742.3521118164063 265.5731201171875 742.8819580078125 261.5579528808594 L 742.9212646484375 261.2742614746094 C 743.240966796875 258.8711853027344 743.5255126953125 256.7975158691406 741.238525390625 255.35400390625 C 739.7549438476563 254.4202880859375 737.5850219726563 253.9836578369141 734.4091796875 253.9836578369141 C 734.2412109375 253.9861755371094 734.073486328125 253.9874267578125 733.9055786132813 253.9874267578125 C 732.4320068359375 253.9874267578125 730.9599609375 253.8904418945313 729.50146484375 253.6972045898438 C 730.1756591796875 253.3740386962891 730.8717651367188 253.0888671875 731.5855102539063 252.8434600830078 C 734.7724609375 251.7086944580078 737.894287109375 250.3329010009766 741.017333984375 248.9561920166016 C 743.7376098632813 247.754638671875 748.8092041015625 245.5214233398438 749.9298706054688 245.4703674316406 C 754.3948364257813 246.3791961669922 758.9320068359375 246.9769134521484 763.5004272460938 247.257568359375 C 763.813232421875 247.2702178955078 764.125732421875 247.2765045166016 764.4380493164063 247.2765045166016 C 767.6718139648438 247.2764739990234 770.8658447265625 246.6006164550781 773.76416015625 245.2978210449219 C 776.0186767578125 244.2650909423828 778.83251953125 242.4174194335938 779.4260864257813 239.457275390625 C 780.0875244140625 236.2068939208984 789.7789916992188 228.8272857666016 794.7261962890625 227.1706390380859 C 794.8213500976563 228.6396636962891 794.7333984375 230.1135559082031 794.46337890625 231.5650177001953 C 794.0286254882813 234.5640716552734 793.6406860351563 237.3990936279297 795.2911376953125 239.1902465820313 C 794.4060668945313 240.429931640625 793.7752685546875 241.8013305664063 793.4286499023438 243.2397308349609 C 790.9451293945313 251.4610748291016 795.9202880859375 252.1870574951172 790.9451293945313 253.6370086669922 C 785.9700927734375 255.0868835449219 788.868408203125 257.5057067871094 794.2564086914063 259.4395446777344 C 799.64453125 261.3734436035156 811.248046875 261.8573303222656 813.318603515625 265.72607421875 C 815.3892211914063 269.5947570800781 830.3021240234375 277.0957946777344 827.8186645507813 284.586669921875 C 825.3351440429688 292.0775451660156 821.6099243164063 291.5936584472656 825.3351440429688 294.4962158203125 C 829.060546875 297.3988342285156 831.9690551757813 298.1247863769531 826.5767822265625 301.0247192382813 C 821.5072631835938 303.7511901855469 815.3442993164063 310.5390014648438 816.6944580078125 310.5384826660156 C 816.7803344726563 310.5384521484375 816.8967895507813 310.5109252929688 817.0457153320313 310.4531555175781 C 817.9345092773438 310.1083068847656 818.5059204101563 309.8861999511719 818.8734130859375 309.8861999511719 C 819.5352783203125 309.8861999511719 819.5353393554688 310.60693359375 819.5353393554688 312.6289672851563 C 819.5353393554688 315.7737731933594 820.7852783203125 317.9477233886719 819.949462890625 323.9912719726563 C 819.2001953125 329.4071044921875 821.1243286132813 338.9023132324219 815.8661499023438 338.9023132324219 C 815.256591796875 338.9023132324219 814.55029296875 338.7746276855469 813.7323608398438 338.4982299804688 C 809.8990478515625 337.2027587890625 807.1458740234375 336.653076171875 804.9471435546875 336.653076171875 C 802.6298828125 336.653076171875 800.928466796875 337.2639770507813 799.2294311523438 338.2562866210938 C 795.9151611328125 340.1902770996094 795.076904296875 341.142333984375 790.5240478515625 341.142333984375 C 785.9713745117188 341.142333984375 788.4544677734375 342.3493347167969 788.4544677734375 344.7681274414063 C 788.4544677734375 344.9832153320313 788.440185546875 345.1685180664063 788.4224243164063 345.3540649414063 C 788.369140625 345.3524780273438 788.3159790039063 345.3516845703125 788.2628173828125 345.3516845703125 C 787.621826171875 345.3516845703125 786.9867553710938 345.4670715332031 786.3953857421875 345.6914367675781 C 785.0916748046875 346.2339477539063 784.3140869140625 347.4563903808594 784.4573364257813 348.7378845214844 C 784.4573364257813 349.6102600097656 783.9015502929688 351.6498413085938 778.7664184570313 351.6498413085938 C 771.4462280273438 351.6498413085938 765.7926635742188 350.9962158203125 761.96923828125 347.8070983886719 C 760.5182495117188 346.4485778808594 758.5166015625 345.689697265625 756.4370727539063 345.689697265625 C 756.2123413085938 345.689697265625 755.9863891601563 345.6985778808594 755.7604370117188 345.7165222167969 C 751.7312622070313 346.2107238769531 750.58251953125 349.6102600097656 748.84326171875 354.7528076171875 L 748.469482421875 355.8421325683594 C 747.8408813476563 357.8028259277344 746.9987182617188 359.7036743164063 745.9552001953125 361.5167846679688 Z" stroke="none" fill="#30abec"/>
      </g>
      <text id="shizu" transform="translate(139 124)" fill="#fff" font-size="10" font-family="MicrosoftYaHei, Microsoft YaHei"><tspan x="0" y="0">石柱土家族</tspan><tspan x="0" y="13">苗族自治县</tspan></text>
    </g>
  </g>
</svg>
