<svg xmlns="http://www.w3.org/2000/svg" xmlns:xlink="http://www.w3.org/1999/xlink" width="327" height="258" viewBox="0 0 327 258">
  <defs>
    <radialGradient id="radial-gradient" cx="0.5" cy="0.5" r="0.5" gradientUnits="objectBoundingBox">
      <stop offset="0" stop-color="#1fb9e6"/>
      <stop offset="1" stop-color="#0669d2"/>
    </radialGradient>
    <linearGradient id="linear-gradient" x1="0.5" x2="0.5" y2="1" gradientUnits="objectBoundingBox">
      <stop offset="0" stop-color="#191e64"/>
      <stop offset="1" stop-color="#17448b"/>
    </linearGradient>
    <filter id="tongliang1" x="53.548" y="51.155" width="220.72" height="182.277" filterUnits="userSpaceOnUse">
      <feOffset dy="8" input="SourceAlpha"/>
      <feGaussianBlur stdDeviation="9" result="blur"/>
      <feFlood flood-opacity="0.161"/>
      <feComposite operator="in" in2="blur"/>
      <feComposite in="SourceGraphic"/>
    </filter>
    <clipPath id="clip-tongliang">
      <rect width="327" height="258"/>
    </clipPath>
  </defs>
  <g id="tongliang" clip-path="url(#clip-tongliang)">
    <rect width="327" height="258" fill="rgba(0,0,0,0)"/>
    <g id="tongliang-2" data-name="tongliang" transform="translate(20.263 5.748)">
      <g id="thick_tongliang" transform="translate(-200.825 -228.379)" opacity="0.67" fill="url(#radial-gradient)">
        <path d="M 344.9400634765625 404.0623474121094 C 344.9397277832031 404.0623474121094 344.940185546875 404.0623474121094 344.9398498535156 404.0623474121094 C 340.3789672851563 404.0623474121094 334.816162109375 403.5469360351563 327.116943359375 402.8336181640625 L 326.656982421875 402.7899475097656 C 323.5199890136719 402.500244140625 319.9658508300781 402.1719970703125 316.0103454589844 401.8361511230469 C 307.8278503417969 401.1542053222656 303.3987731933594 400.328369140625 301.127197265625 399.7574768066406 C 309.4173583984375 394.9702453613281 317.2059631347656 389.4366149902344 324.2947692871094 383.296142578125 C 329.6917724609375 379.0428771972656 335.5441284179688 375.1916198730469 341.6897888183594 371.8490295410156 L 341.69580078125 371.8457641601563 L 341.7017517089844 371.8423156738281 C 346.0588989257813 369.3152770996094 349.8218994140625 367.1328430175781 352.4857177734375 365.0050354003906 C 355.5503234863281 362.5570678710938 356.7463073730469 360.4542846679688 356.2494812011719 358.3874206542969 C 355.728271484375 356.2249145507813 353.3796997070313 354.4587707519531 349.2689208984375 353.1377563476563 C 339.2171630859375 349.9113159179688 329.7894592285156 349.5173950195313 322.2141723632813 349.2008666992188 L 322.2048645019531 349.2004699707031 L 322.1914672851563 349.2002563476563 C 318.3844299316406 349.1830139160156 314.5646057128906 348.82470703125 310.8368835449219 348.1351623535156 C 308.1983337402344 347.2935791015625 305.8489074707031 345.8389282226563 304.0411071777344 343.9272155761719 L 304.0277099609375 343.9130249023438 L 304.0132141113281 343.89990234375 L 303.979248046875 343.8692016601563 C 302.4352111816406 342.47265625 300.6851196289063 340.8897399902344 297.6249084472656 340.8897399902344 C 297.3686828613281 340.8897399902344 297.1045227050781 340.9012756347656 296.8370361328125 340.9241333007813 L 296.3058776855469 340.4709167480469 L 296.1183471679688 341.0110778808594 C 293.5999450683594 341.396728515625 291.6691589355469 343.2848510742188 291.4589538574219 345.6107177734375 C 290.5564575195313 349.2503662109375 288.1312866210938 351.4371643066406 286.1172180175781 351.9949035644531 C 285.5662536621094 352.114013671875 284.9997253417969 352.1744079589844 284.4330749511719 352.1744079589844 C 283.2879028320313 352.1744079589844 282.1458435058594 351.9249267578125 281.1304321289063 351.4530334472656 L 281.1054077148438 351.4413757324219 L 281.0792236328125 351.4325561523438 C 277.9485168457031 350.3786315917969 274.7117309570313 349.4875793457031 271.4591369628906 348.7842712402344 C 265.9779663085938 347.4874572753906 262.5008544921875 346.4848327636719 262.1022338867188 345.4953918457031 C 261.9844055175781 345.2028198242188 262.1238403320313 344.7925720214844 262.5836181640625 344.0793151855469 L 262.6396179199219 343.9906005859375 C 267.3773498535156 342.341064453125 271.3017578125 339.2251281738281 273.7056579589844 335.2002563476563 C 274.2308654785156 334.4540405273438 274.7147827148438 333.7748718261719 275.3047790527344 333.032958984375 C 275.9507446289063 332.2212219238281 276.56201171875 331.3043212890625 277.1326904296875 330.4347229003906 C 278.3532409667969 328.589599609375 279.4810180664063 326.971923828125 280.9142761230469 325.876708984375 C 282.3789978027344 324.7574768066406 284.1336975097656 324.2361755371094 286.4363403320313 324.2361755371094 C 287.7626953125 324.2361755371094 289.2735900878906 324.4040222167969 291.0550842285156 324.7492370605469 C 295.20849609375 325.6053466796875 299.2491760253906 326.8992614746094 303.0642395019531 328.5950317382813 L 303.0689697265625 328.5971374511719 L 303.0737915039063 328.5991516113281 C 305.6744689941406 329.6908264160156 308.3636779785156 330.8196716308594 311.2060241699219 330.8196411132813 C 311.9923706054688 330.8196411132813 312.7757263183594 330.7324523925781 313.5343017578125 330.5604248046875 C 317.2310485839844 329.7335815429688 318.6361694335938 327.2860717773438 319.603759765625 324.764404296875 C 321.8126525878906 318.9609375 323.5350646972656 312.9573669433594 321.2046813964844 308.3552856445313 C 319.708740234375 305.4010009765625 316.7724609375 303.3543701171875 312.2280578613281 302.098388671875 C 307.0968627929688 300.6798400878906 304.5546569824219 299.765380859375 303.4533996582031 298.9419860839844 C 302.5325317382813 298.2535095214844 302.6640930175781 297.6771545410156 302.9523315429688 296.414306640625 C 304.0991516113281 291.4049682617188 308.868408203125 284.7145080566406 310.9898681640625 283.1490173339844 C 312.2475280761719 283.3021240234375 314.4896545410156 283.7064208984375 316.1485900878906 284.0055541992188 L 316.1844482421875 284.0119934082031 C 321.2491149902344 284.921630859375 327.5518798828125 286.0536193847656 333.3629760742188 286.0535278320313 C 334.0027770996094 286.0534973144531 334.6282653808594 286.0392761230469 335.2283630371094 286.0111389160156 C 335.6462707519531 287.9128112792969 336.7218933105469 289.4436340332031 338.505615234375 290.6801452636719 C 340.8225708007813 292.2863159179688 344.312744140625 293.3978881835938 349.1738891601563 294.0777282714844 C 347.9535522460938 295.2767028808594 347.0950012207031 296.728515625 346.6680603027344 298.3287658691406 L 346.6637573242188 298.3449096679688 L 346.6605529785156 298.3612976074219 C 346.2203369140625 300.6028137207031 347.596435546875 302.8247375488281 349.9342651367188 303.6521606445313 C 351.6641540527344 304.4167175292969 353.8606872558594 304.7884521484375 356.6481018066406 304.7884521484375 C 360.9088439941406 304.7884216308594 366.7067565917969 303.8925476074219 374.3732299804688 302.0496215820313 L 374.3778381347656 302.0485229492188 L 374.3823852539063 302.0473327636719 C 375.0707702636719 301.8680419921875 375.7777404785156 301.7398681640625 376.4896850585938 301.6649780273438 C 376.5219116210938 302.2844543457031 376.3220825195313 303.6103210449219 374.9020690917969 306.0988159179688 C 372.9207763671875 309.5702514648438 372.9706726074219 312.361328125 375.0545959472656 314.6315307617188 C 377.5213623046875 317.328369140625 382.1788940429688 318.3367309570313 385.4675903320313 318.8605346679688 C 387.3431396484375 319.162353515625 390.2074584960938 319.4992980957031 394.0491333007813 319.9423828125 L 394.1599426269531 319.955322265625 C 402.7822570800781 320.9611511230469 414.5908813476563 322.3386840820313 422.4794616699219 324.3151550292969 C 424.3929138183594 324.7917175292969 425.4420471191406 325.3650207519531 425.8818054199219 326.1741638183594 C 426.3069458007813 326.9563293457031 426.2287902832031 328.0492858886719 426.0682067871094 329.5058288574219 C 425.7155456542969 331.0278015136719 425.8702087402344 332.631591796875 426.5016174316406 334.0760192871094 C 420.451171875 337.3277587890625 406.2803039550781 345.4017333984375 395.970947265625 354.8544921875 C 389.1903381347656 361.0743408203125 386.0083618164063 364.30322265625 386.1222534179688 367.0310974121094 C 386.1788024902344 368.3851623535156 386.9964294433594 369.5772705078125 388.8562316894531 371.0171813964844 L 388.8607788085938 371.0206909179688 L 388.8653869628906 371.0241088867188 C 389.3681335449219 371.3952331542969 389.84423828125 371.8010864257813 390.2805480957031 372.2303466796875 C 390.6158142089844 372.5705871582031 390.7694091796875 372.8136596679688 390.8273315429688 372.936279296875 C 390.6383972167969 373.1060180664063 389.958251953125 373.5487365722656 387.5396423339844 374.3838806152344 C 385.7459716796875 375.0032348632813 383.6675109863281 375.6118469238281 382.1498718261719 376.0562133789063 L 382.062255859375 376.0818481445313 C 370.6729125976563 379.4010009765625 360.9262390136719 391.4278564453125 358.966552734375 400.5809631347656 L 358.7968444824219 401.29248046875 C 354.4629516601563 403.2836608886719 350.5526733398438 404.0623474121094 344.9400634765625 404.0623474121094 Z" stroke="none"/>
        <path d="M 344.9400634765625 403.5623474121094 C 350.3783264160156 403.5623474121094 354.1913757324219 402.82275390625 358.3671875 400.9386901855469 L 358.4790954589844 400.4695129394531 C 360.4723205566406 391.1763000488281 370.3643798828125 378.9701232910156 381.9217529296875 375.6020202636719 L 382.0097045898438 375.5762634277344 C 383.4555053710938 375.1528930664063 385.4356384277344 374.5730895996094 387.1714782714844 373.9815673828125 C 388.8652648925781 373.4043579101563 389.708984375 373.023681640625 390.1249389648438 372.7984924316406 C 390.0697021484375 372.7341003417969 390.0040588378906 372.6622619628906 389.9266052246094 372.5835571289063 C 389.5079040527344 372.1719055175781 389.0509948730469 371.7826232910156 388.5684204101563 371.4263305664063 L 388.5592041015625 371.4195251464844 L 388.5501403808594 371.4125366210938 C 387.147216796875 370.3263549804688 385.7023315429688 368.9588623046875 385.6226806640625 367.0519714355469 C 385.4994812011719 364.1015319824219 388.5783081054688 360.957275390625 395.6330261230469 354.4859619140625 C 405.7654418945313 345.1954040527344 419.5999755859375 337.2384948730469 425.8709106445313 333.8479919433594 C 425.3468017578125 332.4294738769531 425.2400207519531 330.8912658691406 425.5744323730469 329.422119140625 C 425.7228393554688 328.0713500976563 425.7959289550781 327.0631713867188 425.4425048828125 326.4129333496094 C 425.2146301269531 325.99365234375 424.6470642089844 325.3703308105469 422.3579406738281 324.8001708984375 C 414.5010375976563 322.8316345214844 402.7113342285156 321.456298828125 394.1028747558594 320.4520568847656 L 393.9918518066406 320.4391174316406 C 390.1439819335938 319.9953308105469 387.2744445800781 319.65771484375 385.3889465332031 319.3543090820313 C 382.0262451171875 318.8187255859375 377.2580871582031 317.7813720703125 374.686279296875 314.9696350097656 C 372.4674987792969 312.5525512695313 372.3939819335938 309.4845886230469 374.4678039550781 305.8509826660156 C 375.4955444335938 304.0499267578125 375.8445129394531 302.9062194824219 375.9490356445313 302.237548828125 C 375.4628295898438 302.3099365234375 374.9810791015625 302.4080810546875 374.5084228515625 302.5311889648438 L 374.4992980957031 302.5335693359375 L 374.4901123046875 302.5357666015625 C 366.7848510742188 304.3880004882813 360.9486999511719 305.2884216308594 356.6480712890625 305.2884216308594 C 353.798828125 305.2884521484375 351.54150390625 304.9052124023438 349.7493896484375 304.1170959472656 C 347.1867065429688 303.2010803222656 345.6826171875 300.7464294433594 346.1698913574219 298.2649536132813 L 346.1763305664063 298.2321472167969 L 346.1849670410156 298.1998596191406 C 346.5535583496094 296.8182678222656 347.226318359375 295.5425109863281 348.1627807617188 294.43310546875 C 343.7081298828125 293.7323608398438 340.4493103027344 292.6359558105469 338.2207641601563 291.091064453125 C 336.4560546875 289.8677368164063 335.34375 288.36865234375 334.8404541015625 286.527587890625 C 334.3599853515625 286.5448303222656 333.8658142089844 286.5535278320313 333.3630065917969 286.5535278320313 C 327.507568359375 286.5535888671875 321.1803894042969 285.4172668457031 316.095703125 284.5040588378906 L 316.0612487792969 284.4978332519531 C 314.5815734863281 284.2310180664063 312.4192199707031 283.8411254882813 311.1334533691406 283.6713562011719 C 310.2581787109375 284.385986328125 308.7422485351563 286.1116638183594 307.1368103027344 288.583984375 C 305.2925720214844 291.4240417480469 303.9452819824219 294.317626953125 303.4397888183594 296.5255432128906 C 303.3149719238281 297.0724182128906 303.2071838378906 297.5447692871094 303.2466735839844 297.8550720214844 C 303.2618103027344 297.9740600585938 303.2900085449219 298.1955261230469 303.7528076171875 298.5415649414063 C 304.8004760742188 299.3248901367188 307.2945251464844 300.2157592773438 312.3612670898438 301.616455078125 C 316.98388671875 302.89404296875 320.1093139648438 305.0853271484375 321.6507568359375 308.12939453125 C 324.0688781738281 312.9047546386719 322.3207702636719 319.0315246582031 320.070556640625 324.9435119628906 C 319.1018676757813 327.4681396484375 317.58056640625 330.1677856445313 313.6448669433594 331.0480651855469 C 312.8500671386719 331.228271484375 312.029541015625 331.3196411132813 311.2060241699219 331.3196411132813 C 308.2630310058594 331.3196716308594 305.5265808105469 330.1710205078125 302.8802490234375 329.0601806640625 L 302.8706359863281 329.05615234375 L 302.8611145019531 329.0519409179688 C 299.0791931152344 327.3708801269531 295.0738525390625 326.0881652832031 290.9561157226563 325.2393798828125 C 289.2080078125 324.9007873535156 287.7294921875 324.7361755371094 286.4363403320313 324.7361755371094 C 284.2191467285156 324.7361755371094 282.6097106933594 325.2104797363281 281.2178955078125 326.2739868164063 C 279.8465270996094 327.3218994140625 278.7448425292969 328.9039306640625 277.5506896972656 330.7091064453125 C 276.9736633300781 331.5882873535156 276.3551635742188 332.5159912109375 275.6961364746094 333.3441162109375 C 275.11865234375 334.0703430175781 274.6418151855469 334.7390441894531 274.1253662109375 335.4726257324219 C 271.6885986328125 339.54345703125 267.7372131347656 342.7041931152344 262.9690551757813 344.4046325683594 C 262.5133361816406 345.1231689453125 262.5591125488281 345.2913818359375 262.5660400390625 345.3085632324219 C 262.5937194824219 345.3772888183594 262.8155822753906 345.7507629394531 264.4690856933594 346.3555908203125 C 265.8660278320313 346.8665771484375 268.0563659667969 347.46533203125 271.5697631835938 348.296630859375 C 274.8388061523438 349.0036926269531 278.0919494628906 349.8993225097656 281.23876953125 350.9586791992188 L 281.2911071777344 350.976318359375 L 281.3411865234375 350.9995727539063 C 282.291015625 351.4410400390625 283.3601989746094 351.6743774414063 284.43310546875 351.6743774414063 C 284.9593811035156 351.6743774414063 285.4855041503906 351.6188354492188 285.9973449707031 351.50927734375 C 286.9590454101563 351.2393493652344 287.9583435058594 350.5758666992188 288.8139343261719 349.6385498046875 C 289.8225402832031 348.5335693359375 290.5653381347656 347.1128845214844 290.9647521972656 345.5260314941406 C 291.2044372558594 343.0824279785156 293.1593933105469 341.0877380371094 295.7422180175781 340.5699157714844 L 296.0735168457031 339.6155090332031 L 297.0049438476563 340.41015625 C 297.2147827148438 340.3965759277344 297.4220886230469 340.3897399902344 297.6248779296875 340.3897399902344 C 300.8777465820313 340.3897399902344 302.783447265625 342.1134643554688 304.3147277832031 343.4984741210938 L 304.3485717773438 343.5290832519531 L 304.3775634765625 343.5552978515625 L 304.4044189453125 343.5836791992188 C 306.1474609375 345.4269714355469 308.412841796875 346.8319091796875 310.9590759277344 347.6492614746094 C 314.647705078125 348.3296508789063 318.427001953125 348.6832275390625 322.1936950683594 348.7002563476563 L 322.2161865234375 348.7005004882813 L 322.2347717285156 348.7012939453125 C 329.8402709960938 349.0190734863281 339.3054809570313 349.41455078125 349.421875 352.6617431640625 C 351.4833984375 353.32421875 353.1340942382813 354.1053771972656 354.3280944824219 354.9835205078125 C 355.6308288574219 355.941650390625 356.4408264160156 357.04736328125 356.7356567382813 358.2705688476563 C 357.4549560546875 361.2630920410156 354.8327331542969 363.7702026367188 352.7977905273438 365.3956909179688 C 350.1049194335938 367.5466613769531 346.3270263671875 369.7377624511719 341.9525756835938 372.2748413085938 L 341.9407348632813 372.2817077636719 L 341.9286804199219 372.2882690429688 C 335.8114624023438 375.6153869628906 329.9856262207031 379.4488220214844 324.6134948730469 383.6816101074219 C 317.8151245117188 389.5694274902344 310.3739929199219 394.9021301269531 302.467041015625 399.55517578125 C 304.9625244140625 400.0909118652344 309.1683044433594 400.7641906738281 316.0526428222656 401.3379516601563 C 320.0092468261719 401.6738891601563 323.5647888183594 402.0022583007813 326.7042846679688 402.2922058105469 L 327.1630859375 402.3357543945313 C 334.8489074707031 403.0478515625 340.4020690917969 403.5623474121094 344.9398193359375 403.5623474121094 L 344.9400634765625 403.5623474121094 M 344.9398193359375 404.5623474121094 C 340.3577880859375 404.5623474121094 334.7658081054688 404.04443359375 327.0708312988281 403.3314819335938 L 326.6097717285156 403.2877197265625 C 323.3925476074219 402.9906005859375 319.8663024902344 402.6653442382813 315.9680480957031 402.3343505859375 C 306.0614929199219 401.5087280273438 301.6668090820313 400.4845581054688 299.8383483886719 399.9189453125 C 308.5105285644531 395.0012817382813 316.5985412597656 389.30224609375 323.9761657714844 382.91064453125 C 329.4130554199219 378.6250610351563 335.2605895996094 374.7766723632813 341.4508972167969 371.4097900390625 C 349.9908142089844 366.4568481445313 356.7342224121094 362.5433959960938 355.7633361816406 358.5042724609375 C 355.2851257324219 356.5202026367188 353.0500793457031 354.8780517578125 349.1159362792969 353.61376953125 C 339.1269226074219 350.407470703125 329.7413024902344 350.0158081054688 322.1891784667969 349.7002563476563 C 318.3338928222656 349.6828002929688 314.4900207519531 349.3212890625 310.7152709960938 348.6211547851563 C 307.9808349609375 347.7544555664063 305.5526123046875 346.2533569335938 303.6778259277344 344.270751953125 C 302.180419921875 342.9165344238281 300.5143737792969 341.3897705078125 297.6248779296875 341.3897705078125 C 297.3218994140625 341.3897705078125 297.0049743652344 341.4065856933594 296.6738586425781 341.442138671875 L 296.5381469726563 341.3263549804688 L 296.4889831542969 341.4679565429688 C 294.0393981933594 341.7138061523438 292.1332702636719 343.489501953125 291.9537963867188 345.6923217773438 C 291.0095520019531 349.5546875 288.4002990722656 351.8882446289063 286.2366027832031 352.4806518554688 C 285.6417236328125 352.6102905273438 285.0364685058594 352.6743774414063 284.43310546875 352.6743774414063 C 283.2189331054688 352.6743774414063 282.0131530761719 352.4146118164063 280.9197082519531 351.9064331054688 C 277.792724609375 350.853759765625 274.5963439941406 349.9739990234375 271.3489379882813 349.27197265625 C 261.3396606445313 346.9041137695313 260.6719360351563 346.1220703125 262.1633605957031 343.8084106445313 L 262.3106994628906 343.574951171875 C 267.0165100097656 341.9774780273438 270.916015625 338.9051513671875 273.2859497070313 334.9278564453125 C 273.7846069335938 334.2192993164063 274.2948913574219 333.4995727539063 274.9134216308594 332.7217407226563 C 275.532470703125 331.94384765625 276.1178588867188 331.0697631835938 276.7146606445313 330.160400390625 C 279.3057861328125 326.243408203125 281.2724609375 323.7361755371094 286.4363403320313 323.7361755371094 C 287.7720336914063 323.7361755371094 289.3222045898438 323.904052734375 291.1517639160156 324.2586669921875 C 295.3456726074219 325.1227416992188 299.4123229980469 326.4246215820313 303.2673034667969 328.1381225585938 C 305.9266662597656 329.2544250488281 308.4852600097656 330.3196716308594 311.2060241699219 330.3196411132813 C 311.9320373535156 330.3196411132813 312.6696472167969 330.2437744140625 313.4237365722656 330.0728149414063 C 316.9013366699219 329.2949829101563 318.2192687988281 326.9768676757813 319.1369323730469 324.5852661132813 C 322.4782409667969 315.806640625 324.9695739746094 306.1386108398438 312.0948791503906 302.580322265625 C 301.6842346191406 299.7022705078125 301.8688049316406 298.91455078125 302.4656372070313 296.2996215820313 C 303.6653137207031 291.0595703125 308.6882019042969 284.0686645507813 310.8587341308594 282.6304626464844 C 312.0960998535156 282.7661743164063 314.5476379394531 283.2088012695313 316.2731628417969 283.5199279785156 C 321.2585754394531 284.4153137207031 327.6181640625 285.5535888671875 333.3629760742188 285.5535278320313 C 334.1336669921875 285.5534973144531 334.8938598632813 285.5330200195313 335.6376037597656 285.4886779785156 C 336.1863098144531 288.8717346191406 338.9410095214844 292.1529541015625 349.3042297363281 293.591064453125 C 349.6768493652344 293.6448669433594 350.0096740722656 293.6943664550781 350.3082580566406 293.7424926757813 C 348.7401428222656 294.9863891601563 347.6380310058594 296.6327514648438 347.1511535644531 298.4576416015625 C 346.7566833496094 300.4663696289063 347.9986267089844 302.4453125 350.1187438964844 303.18701171875 C 351.7646179199219 303.9185485839844 353.9053039550781 304.2884521484375 356.6481018066406 304.2884216308594 C 360.92138671875 304.2884216308594 366.656005859375 303.3905029296875 374.2563781738281 301.5634765625 C 375.1188049316406 301.3388671875 376.0040588378906 301.1923828125 376.8985900878906 301.12646484375 C 377.0722351074219 301.6314697265625 377.1973571777344 303.0853271484375 375.3363342285156 306.3466186523438 C 373.4750061035156 309.60791015625 373.5081481933594 312.2074584960938 375.4229431152344 314.2933959960938 C 377.7876892089844 316.8787231445313 382.3403015136719 317.8561401367188 385.5462341308594 318.3667602539063 C 387.4169006347656 318.6677856445313 390.3177795410156 319.0087280273438 394.1064147949219 319.4456787109375 C 402.7762756347656 320.4570922851563 414.6469421386719 321.8372802734375 422.6009826660156 323.8301391601563 C 426.8932800292969 324.8992309570313 426.9087219238281 326.4549560546875 426.5619201660156 329.5905151367188 C 426.1876525878906 331.1741333007813 426.3970642089844 332.8236083984375 427.1581726074219 334.2915649414063 C 421.0650329589844 337.5443725585938 406.6987609863281 345.6964111328125 396.3088684082031 355.2230224609375 C 386.1191101074219 364.5701293945313 384.3779602050781 366.9176025390625 389.1623229980469 370.621826171875 C 389.6855163574219 371.008056640625 390.1774597167969 371.42724609375 390.6336364746094 371.8763427734375 C 391.1751403808594 372.425048828125 391.4356384277344 372.8974609375 391.3330383300781 373.10107421875 C 390.8451843261719 374.0387573242188 385.2256164550781 375.676513671875 382.2027893066406 376.5617065429688 C 370.9776306152344 379.8330078125 361.3802795410156 391.6834106445313 359.4543762207031 400.6907958984375 L 359.2269592285156 401.6442260742188 C 354.6413879394531 403.786865234375 350.5467224121094 404.5623474121094 344.9398193359375 404.5623474121094 Z" stroke="none" fill="#30abec"/>
      </g>
      <text id="tongliang-3" data-name="tongliang" transform="translate(143.579 108.746)" fill="#fff" font-size="10" font-family="MicrosoftYaHei, Microsoft YaHei"><tspan x="0" y="0">铜梁区</tspan></text>
      <g transform="matrix(1, 0, 0, 1, -20.26, -5.75)" filter="url(#tongliang1)">
        <path id="tongliang1-2" data-name="tongliang1" d="M-1965.622-914.068c-4.583,0-10.154-.516-17.865-1.231l-.466-.045c-2.965-.274-6.656-.615-10.642-.953a109.108,109.108,0,0,1-16.13-2.416v-15.915c.007,0,.286.055.787.141,2.26.6,6.756,1.474,15.343,2.189,3.861.328,7.414.656,10.549.945h.011l.082.008.461.043.016,0c7.708.714,13.276,1.23,17.854,1.23a30.976,30.976,0,0,0,14.287-2.918l.227-.954c1.927-9.012,11.528-20.859,22.748-24.129l.074-.022c3-.877,8.572-2.508,9.056-3.439.1-.208-.17-.688-.7-1.225a13.721,13.721,0,0,0-1.472-1.255c-1.731-1.34-2.491-2.42-2.54-3.612-.105-2.518,3.023-5.674,9.687-11.787,10.443-9.576,24.935-17.766,30.681-20.842l.168-.014c-.008.143-.752,14.475,0,15.924-5.771,3.081-20.328,11.284-30.849,20.931a94.345,94.345,0,0,0-7.413,7.286c-1.624,1.9-2.325,3.29-2.275,4.5.05,1.191.81,2.271,2.54,3.612a13.724,13.724,0,0,1,1.472,1.255c.529.536.8,1.017.7,1.225-.482.927-6.041,2.555-9.027,3.43l-.1.03c-11.221,3.27-20.821,15.117-22.748,24.129l-.227.953A30.976,30.976,0,0,1-1965.622-914.068Zm1.112-51.852h0c-8.841-2.383-17.171-2.731-23.863-3.01a64.728,64.728,0,0,1-11.473-1.079,16.559,16.559,0,0,1-7.038-4.351l-.034-.03c-1.477-1.336-3.152-2.851-6.02-2.851a8.952,8.952,0,0,0-.95.052l-.136-.115-.049.141a4.851,4.851,0,0,0-4.535,4.225c-.946,3.867-3.554,6.2-5.718,6.788a8.481,8.481,0,0,1-1.8.194,8.394,8.394,0,0,1-3.514-.768,89.3,89.3,0,0,0-9.571-2.634c-5.114-1.211-7.7-1.986-8.634-2.593-1.355-.847-1.093-14.218-1.026-16.889.55,1.036,2.9,1.882,9.66,3.482a89.244,89.244,0,0,1,9.571,2.634,8.382,8.382,0,0,0,3.513.768,8.489,8.489,0,0,0,1.8-.194c2.164-.592,4.771-2.921,5.718-6.788a4.852,4.852,0,0,1,4.535-4.225l.049-.141.136.115a8.946,8.946,0,0,1,.95-.052c2.868,0,4.542,1.514,6.019,2.85l.034.031a16.559,16.559,0,0,0,7.038,4.351,64.644,64.644,0,0,0,11.473,1.079h.008c7.545.315,16.934.708,26.919,3.913,3.934,1.264,6.17,2.91,6.647,4.891.763,3.176-3.15,6.26-9.711,10.206Zm-26.323-45.72h0c-1.59-1.965-4.158-3.449-7.632-4.409-5.347-1.478-8-2.431-8.871-3.186-1.22-1.017-.763-3.074-.759-3.094v-13.688c.672,1.162,3.1,2.164,9.63,3.969,4.363,1.206,7.184,3.144,8.626,5.927,2.193,4.233.729,9.7-.992,14.481Zm57.17-7.446h0a8.161,8.161,0,0,1-1.474-1.25c-1.917-2.089-1.946-4.689-.086-7.947a13.193,13.193,0,0,0,1.563-3.731v12.929Zm-27.26-12.552h0a4.15,4.15,0,0,1-2.487-4.534,8.946,8.946,0,0,1,2.96-4.554c-.042.815-.259,4.976-.471,9.087Z" transform="translate(2130 1112)" stroke="rgba(0,0,0,0)" stroke-miterlimit="10" stroke-width="1" fill="url(#linear-gradient)"/>
      </g>
    </g>
  </g>
</svg>
