<svg xmlns="http://www.w3.org/2000/svg" xmlns:xlink="http://www.w3.org/1999/xlink" width="327" height="258" viewBox="0 0 327 258">
  <defs>
    <radialGradient id="radial-gradient" cx="0.5" cy="0.5" r="0.5" gradientUnits="objectBoundingBox">
      <stop offset="0" stop-color="#1fb9e6"/>
      <stop offset="1" stop-color="#0669d2"/>
    </radialGradient>
    <linearGradient id="linear-gradient" x1="0.5" x2="0.5" y2="1" gradientUnits="objectBoundingBox">
      <stop offset="0" stop-color="#191e64"/>
      <stop offset="1" stop-color="#17448b"/>
    </linearGradient>
    <filter id="tongnan1" x="49.497" y="47.214" width="227.542" height="190.464" filterUnits="userSpaceOnUse">
      <feOffset dy="8" input="SourceAlpha"/>
      <feGaussianBlur stdDeviation="9" result="blur"/>
      <feFlood flood-opacity="0.161"/>
      <feComposite operator="in" in2="blur"/>
      <feComposite in="SourceGraphic"/>
    </filter>
    <clipPath id="clip-tongnan">
      <rect width="327" height="258"/>
    </clipPath>
  </defs>
  <g id="tongnan" clip-path="url(#clip-tongnan)">
    <rect width="327" height="258" fill="rgba(0,0,0,0)"/>
    <g id="tongnan-2" data-name="tongnan" transform="translate(-3.036 5.37)">
      <g id="thick_tongnan" transform="translate(-136.327 -198.767)" opacity="0.67" fill="url(#radial-gradient)">
        <path d="M 287.7985534667969 375.0753479003906 C 287.4229736328125 375.0753479003906 287.1713562011719 375.0437622070313 287.0462646484375 375.0109558105469 C 286.976806640625 374.9679870605469 286.9266357421875 374.9085998535156 286.9048767089844 374.8431396484375 L 286.6267700195313 373.2420959472656 L 286.5519409179688 372.8111267089844 L 286.1148681640625 372.8280334472656 L 282.6266174316406 372.9628295898438 C 284.6100158691406 369.815673828125 287.5776977539063 366.6494445800781 290.2198486328125 363.8306274414063 C 291.465576171875 362.5015869140625 292.6422119140625 361.2462463378906 293.6498718261719 360.0686340332031 C 294.7834167480469 358.7484436035156 295.5453796386719 357.677001953125 295.9787292480469 356.7937622070313 C 296.4806213378906 355.7708129882813 296.5828552246094 354.9243774414063 296.2912902832031 354.2060241699219 C 295.6556091308594 352.639892578125 293.3886413574219 351.8739929199219 287.9269714355469 351.380126953125 C 285.2740173339844 351.1403198242188 283.0233154296875 350.5940551757813 280.8438720703125 349.6610412597656 C 278.8442687988281 348.8049926757813 277.072509765625 347.7075500488281 275.02099609375 346.4368591308594 C 273.0319213867188 345.204833984375 270.7774658203125 343.8084106445313 267.8778381347656 342.3784484863281 C 261.5588684082031 339.282470703125 255.4569702148438 335.7209167480469 249.7404327392578 331.7920837402344 L 249.7348327636719 331.7882385253906 L 249.7291259765625 331.7845153808594 C 248.1793212890625 330.7802429199219 246.3657684326172 330.3124694824219 244.0218353271484 330.3124694824219 C 242.7012023925781 330.3124694824219 241.4000244140625 330.4577331542969 240.1416931152344 330.5982055664063 C 239.0239715576172 330.7229919433594 237.96826171875 330.8408203125 237.0189514160156 330.8408203125 C 234.7852020263672 330.8408203125 233.6419677734375 330.1630859375 233.0730133056641 328.5014953613281 C 232.5998077392578 327.1199951171875 232.3192749023438 325.9544677734375 232.0717620849609 324.9261169433594 C 231.6994018554688 323.3791198730469 231.4303588867188 322.2613830566406 230.7417449951172 321.46533203125 C 230.0064544677734 320.6153259277344 228.898193359375 320.2526550292969 227.0359802246094 320.2526550292969 C 226.6734313964844 320.2526550292969 226.2687683105469 320.2668151855469 225.833251953125 320.2947387695313 C 225.6294097900391 320.3080139160156 225.4237213134766 320.3216857910156 225.2164459228516 320.33544921875 C 223.7904815673828 320.4302368164063 222.3159484863281 320.5282287597656 220.9808044433594 320.5282287597656 C 220.9806365966797 320.5282287597656 220.9804992675781 320.5282287597656 220.9803314208984 320.5282287597656 C 217.9461975097656 320.5281677246094 217.0945892333984 319.9786071777344 216.9144287109375 319.5176086425781 C 216.7310180664063 319.0482177734375 216.9017181396484 317.819580078125 220.1055145263672 314.8643798828125 C 221.2906036376953 313.771240234375 222.239990234375 312.8564453125 223.0776062011719 312.0492858886719 C 225.7638854980469 309.4607849121094 226.7690124511719 308.4922180175781 228.5364685058594 308.4922180175781 C 229.7032928466797 308.4922180175781 231.2424926757813 308.8815307617188 233.7925415039063 309.5265197753906 C 234.2183837890625 309.6342468261719 234.6713409423828 309.7488098144531 235.154296875 309.8695373535156 C 238.0529479980469 310.5942077636719 242.0146942138672 310.9932556152344 246.3097229003906 310.9931640625 C 250.0139312744141 310.9930725097656 253.67724609375 310.6960144042969 256.6248168945313 310.1566772460938 C 259.9418029785156 309.5497131347656 262.0726623535156 308.708251953125 262.9581909179688 307.6556396484375 C 263.3456420898438 307.195068359375 263.50244140625 306.6751403808594 263.4115905761719 306.1520080566406 C 262.8567504882813 302.9599304199219 261.7090759277344 302.740966796875 259.1945495605469 302.2611999511719 C 258.2615661621094 302.0831909179688 257.1004333496094 301.8616333007813 255.6408538818359 301.4345703125 C 253.5997009277344 300.8373413085938 251.1777648925781 299.59033203125 249.1622161865234 298.098876953125 C 246.8973083496094 296.4228820800781 245.4157409667969 294.6434020996094 244.9904479980469 293.0882873535156 C 244.67626953125 291.9395141601563 244.9290161132813 290.9477844238281 245.7631530761719 290.0564270019531 C 246.1882934570313 289.6020202636719 246.5338897705078 289.2143249511719 246.8387756347656 288.8722534179688 C 247.8615875244141 287.7247619628906 248.1814575195313 287.3939208984375 248.7426147460938 287.3939208984375 C 249.2699737548828 287.3939208984375 250.0905609130859 287.6749267578125 251.4500579833984 288.1404724121094 C 252.933837890625 288.6485595703125 254.9659576416016 289.3444519042969 258.0716857910156 290.1969299316406 C 265.3034362792969 292.1818542480469 274.9679870605469 294.3026733398438 280.4047546386719 294.3023071289063 C 282.752197265625 294.3021545410156 284.1811218261719 293.9110717773438 284.773193359375 293.106689453125 C 284.9955444335938 292.8046264648438 285.2115783691406 292.2869567871094 284.9779357910156 291.5363464355469 C 284.4773254394531 289.9271545410156 284.0556030273438 289.0895385742188 283.7476806640625 288.4779052734375 C 283.2208557128906 287.4315185546875 282.9804077148438 286.9539184570313 282.9804077148438 283.8150024414063 C 282.9804077148438 281.1952209472656 284.211669921875 276.5246276855469 285.9746704101563 272.4569702148438 C 288.0714111328125 267.6192321777344 290.5357360839844 264.4771728515625 292.7357482910156 263.8365173339844 C 294.234375 263.4002380371094 295.9226684570313 261.8217163085938 298.0600891113281 259.8232421875 C 300.4225463867188 257.6144104003906 303.3627014160156 254.8654174804688 307.0977783203125 252.6863708496094 C 311.4678649902344 250.1368713378906 315.9924621582031 248.8975219726563 320.9302368164063 248.8975219726563 C 324.0824890136719 248.8975219726563 327.4311828613281 249.4229583740234 330.88330078125 250.4592742919922 C 351.4422607421875 256.6312255859375 371.4048767089844 260.3159790039063 384.2833251953125 260.3159790039063 C 385.4413146972656 260.3159790039063 386.6300354003906 260.3551330566406 387.8979187011719 260.4353637695313 C 386.6262817382813 263.0901184082031 385.0756530761719 265.6471862792969 383.2831726074219 268.0441589355469 L 383.2789611816406 268.0498046875 L 383.2748718261719 268.0555725097656 C 381.75634765625 270.2103271484375 380.8836669921875 271.8560791015625 381.2245788574219 273.4005737304688 C 381.4878540039063 274.5933837890625 382.4316101074219 275.6011352539063 384.2846374511719 276.6680603027344 L 384.2951049804688 276.6741027832031 L 384.3058471679688 276.6796264648438 C 385.2981872558594 277.1888732910156 386.1489868164063 277.9121398925781 386.7662658691406 278.7712097167969 L 386.7679138183594 278.7734985351563 L 386.7695617675781 278.7757568359375 C 387.5119934082031 279.7849731445313 387.7625732421875 280.3474426269531 387.6632690429688 280.7819213867188 C 387.4470825195313 281.7278442382813 385.3662109375 282.8707275390625 381.7068481445313 284.8093566894531 C 378.9281005859375 286.2837829589844 377.50048828125 287.6554260253906 377.2138061523438 289.1261596679688 C 376.9417724609375 290.521728515625 377.7700805664063 291.7463073730469 378.7057495117188 292.8617553710938 L 378.71630859375 292.8743591308594 L 378.7276916503906 292.8861999511719 C 379.7954406738281 294.0013732910156 380.4223022460938 295.362060546875 380.5404357910156 296.8211669921875 L 380.540771484375 296.8251037597656 L 380.5411682128906 296.8290405273438 C 380.9306640625 300.846923828125 380.8185424804688 304.9096984863281 380.2078247070313 308.9045104980469 L 380.2063293457031 308.9144592285156 L 380.2051696777344 308.9244689941406 L 380.0802917480469 310.0404663085938 C 379.4362487792969 310.1101379394531 378.7049255371094 310.1453857421875 377.9000549316406 310.1453857421875 C 373.2884826660156 310.1453857421875 366.9928894042969 309.010009765625 362.3960266113281 308.1809692382813 L 362.384521484375 308.1788940429688 C 359.4195556640625 307.5386352539063 356.3724975585938 307.129638671875 353.3282775878906 306.96337890625 L 353.3146667480469 306.9626159667969 L 353.301025390625 306.9626159667969 C 341.5405883789063 306.9626159667969 335.5441284179688 326.3600158691406 335.495361328125 326.5559387207031 L 335.4942016601563 326.5606079101563 L 335.4931030273438 326.5652770996094 C 334.6968688964844 330.0478820800781 335.7885131835938 332.6374206542969 338.9286193847656 334.7148132324219 C 341.8657836914063 336.6578979492188 346.422607421875 338.0099487304688 351.2282409667969 339.3369445800781 C 353.3732604980469 339.9299621582031 354.7098693847656 340.8733520507813 355.4345397949219 342.3057556152344 C 356.7322998046875 344.8710632324219 356.1110229492188 349.1612854003906 353.4200744628906 356.2165832519531 L 353.4188232421875 356.2198791503906 L 353.4176025390625 356.2232360839844 C 353.2891235351563 356.5750732421875 353.140869140625 356.9232788085938 352.9750671386719 357.2629089355469 C 352.3636779785156 357.0217590332031 351.7409057617188 356.7637023925781 351.2891845703125 356.5737915039063 C 346.3902893066406 354.4000854492188 341.2016906738281 352.7568969726563 335.8665771484375 351.6895446777344 C 332.8765563964844 351.1098022460938 330.0775146484375 350.8161315917969 327.5443725585938 350.8161315917969 C 315.5583801269531 350.8161315917969 311.216552734375 357.3877868652344 308.6223449707031 361.314208984375 L 308.4850463867188 361.5203247070313 C 307.9701232910156 362.2936096191406 307.4837341308594 363.0239868164063 306.9652099609375 363.6732177734375 C 306.2059936523438 364.6220397949219 305.5633850097656 365.5386962890625 304.9963989257813 366.3474731445313 L 304.9916381835938 366.3542785644531 C 303.7515563964844 368.1213684082031 302.7720336914063 369.5171203613281 301.065185546875 370.7727661132813 C 299.1934204101563 372.1497802734375 296.6228942871094 373.2236938476563 292.7305297851563 374.2548522949219 C 290.0313110351563 374.96875 288.4818725585938 375.0753479003906 287.7985534667969 375.0753479003906 Z" stroke="none"/>
        <path d="M 287.7985534667969 374.5753479003906 C 288.4576110839844 374.5753479003906 289.9581604003906 374.4709167480469 292.6025085449219 373.7715148925781 C 296.3796691894531 372.7709045410156 298.9745788574219 371.6900329589844 300.7688903808594 370.3699951171875 C 302.4097900390625 369.1628723144531 303.3685302734375 367.7967224121094 304.5823669433594 366.0670776367188 L 304.5869750976563 366.0604858398438 C 305.1582336425781 365.24560546875 305.8056640625 364.322021484375 306.5745239257813 363.3612060546875 C 307.0795288085938 362.7288513183594 307.5600891113281 362.0072021484375 308.0688781738281 361.2431945800781 L 308.2052001953125 361.03857421875 C 310.8547973632813 357.0282287597656 315.2894287109375 350.3161315917969 327.5443725585938 350.3161315917969 C 330.1094360351563 350.3161315917969 332.9404602050781 350.6128540039063 335.9588623046875 351.1981506347656 L 335.9617614746094 351.1986999511719 L 335.9646911621094 351.1992797851563 C 341.3337707519531 352.2734069824219 346.5561828613281 353.9271545410156 351.4869995117188 356.1145629882813 C 351.8273315429688 356.2576293945313 352.2645263671875 356.4392395019531 352.7197570800781 356.6227722167969 C 352.8017272949219 356.4341125488281 352.8779296875 356.2434692382813 352.9479370117188 356.0517272949219 L 352.9503784179688 356.0450134277344 L 352.9529418945313 356.0383911132813 C 354.300048828125 352.5064086914063 355.1097412109375 349.709716796875 355.4283142089844 347.4885559082031 C 355.7356262207031 345.3455810546875 355.5917358398438 343.7241516113281 354.9883728027344 342.5314636230469 C 354.3318176269531 341.233642578125 353.0946350097656 340.3716735839844 351.0951538085938 339.8189392089844 C 342.2417297363281 337.3741760253906 333.0868530273438 334.84619140625 335.0057067871094 326.453857421875 L 335.0078430175781 326.4444885253906 L 335.0101623535156 326.4351501464844 C 335.0206909179688 326.3928527832031 336.54150390625 321.4201049804688 339.5441589355469 316.478515625 C 343.5255737304688 309.9260559082031 348.2826232910156 306.4626159667969 353.301025390625 306.4626159667969 L 353.3283081054688 306.4626159667969 L 353.3555603027344 306.4640808105469 C 356.4230041503906 306.6316528320313 359.4934387207031 307.0435791015625 362.4813232421875 307.6882934570313 L 362.484619140625 307.6889038085938 C 367.0629272460938 308.5145568847656 373.3331909179688 309.6453857421875 377.9000549316406 309.6453857421875 C 378.5251159667969 309.6453857421875 379.1034851074219 309.623779296875 379.6286010742188 309.5809631347656 L 379.7082824707031 308.8688659667969 L 379.7105102539063 308.8488464355469 L 379.7135620117188 308.8289489746094 C 380.3180236816406 304.8750610351563 380.4290161132813 300.8539428710938 380.0434875488281 296.8772888183594 L 380.042724609375 296.8694152832031 L 380.0420837402344 296.8615112304688 C 379.9333190917969 295.5182495117188 379.3539123535156 294.2632141113281 378.3665466308594 293.2319946289063 L 378.3437805175781 293.208251953125 L 378.3226623535156 293.1830749511719 C 377.307373046875 291.9726867675781 376.410888671875 290.6318969726563 376.7230224609375 289.030517578125 C 377.0408325195313 287.3999938964844 378.5499267578125 285.9183959960938 381.4727783203125 284.3675231933594 C 384.3152770996094 282.8616638183594 387.0001525878906 281.4393005371094 387.1758422851563 280.6705627441406 C 387.2537841796875 280.3294372558594 386.75146484375 279.5948791503906 386.3668212890625 279.0720520019531 L 386.3634643554688 279.0675354003906 L 386.3601989746094 279.06298828125 C 385.7890014648438 278.2680053710938 384.9996643066406 277.59765625 384.0775756835938 277.1244506835938 L 384.0560913085938 277.1134338378906 L 384.03515625 277.1013793945313 C 382.0498962402344 275.9583129882813 381.0325012207031 274.8501586914063 380.736328125 273.5083312988281 C 380.3558044433594 271.784423828125 381.2691650390625 270.0336303710938 382.8661804199219 267.7675170898438 L 382.8742980957031 267.7560119628906 L 382.8827514648438 267.7447204589844 C 384.504150390625 265.5765380859375 385.9253234863281 263.2761840820313 387.1180419921875 260.891357421875 C 386.1369934082031 260.8407897949219 385.2002868652344 260.8159790039063 384.2833251953125 260.8159790039063 C 371.35888671875 260.8159790039063 351.342529296875 257.1233520507813 330.7395324707031 250.9381561279297 C 327.3341369628906 249.9158630371094 324.0338134765625 249.3975219726563 320.9302368164063 249.3975219726563 C 316.0834655761719 249.3975219726563 311.6412353515625 250.6145782470703 307.3497619628906 253.1182250976563 C 303.6631774902344 255.2689971923828 300.7457580566406 257.9967346191406 298.4015808105469 260.1884765625 C 296.2154541015625 262.2324829101563 294.4887084960938 263.8469543457031 292.8755493164063 264.3165588378906 C 291.8377075195313 264.6188049316406 290.6838073730469 265.5809936523438 289.5386657714844 267.0991516113281 C 288.4669494628906 268.5198974609375 287.3931884765625 270.4413757324219 286.4334411621094 272.6557922363281 C 284.7223510742188 276.603759765625 283.4804077148438 281.296875 283.4804077148438 283.8150024414063 C 283.4804077148438 286.8351440429688 283.7041015625 287.2795104980469 284.1942749023438 288.2530822753906 C 284.510009765625 288.8802490234375 284.9424743652344 289.7391967773438 285.4553527832031 291.3877563476563 C 285.7510681152344 292.337890625 285.4665832519531 293.0081176757813 285.1758728027344 293.4031066894531 C 284.4733581542969 294.3575439453125 282.9573059082031 294.8021545410156 280.40478515625 294.8023071289063 C 273.5002136230469 294.8027648925781 261.4638671875 291.646484375 257.9393310546875 290.6791076660156 C 254.8186798095703 289.8225402832031 252.6940460205078 289.094970703125 251.2881317138672 288.613525390625 C 250.0227203369141 288.1802062988281 249.1867523193359 287.8939208984375 248.7426147460938 287.8939208984375 C 248.4117889404297 287.8939208984375 248.1741485595703 288.1255187988281 247.2120666503906 289.2049255371094 C 246.9052734375 289.5491027832031 246.5575408935547 289.9392395019531 246.1282196044922 290.3980407714844 C 245.4127655029297 291.16259765625 245.2044982910156 291.9755249023438 245.4727478027344 292.9563903808594 C 245.8685607910156 294.40380859375 247.2845001220703 296.0873718261719 249.4596557617188 297.6969299316406 C 251.4303894042969 299.1552429199219 253.7936096191406 300.3731079101563 255.7812652587891 300.9546813964844 C 257.2177734375 301.375 258.3657836914063 301.5940551757813 259.2882385253906 301.7700500488281 C 262.0632629394531 302.2995300292969 263.3149719238281 302.6764526367188 263.9042053222656 306.0664672851563 C 263.9857177734375 306.5358581542969 263.9541625976563 307.2484436035156 263.3408203125 307.9775390625 C 262.3784484863281 309.1214294433594 260.149169921875 310.0200805664063 256.7148132324219 310.6484985351563 C 253.7384490966797 311.193115234375 250.0431823730469 311.4930725097656 246.3097229003906 311.4931640625 C 241.9749908447266 311.4932250976563 237.9701843261719 311.0888977050781 235.0330200195313 310.3546142578125 C 234.5494995117188 310.2337341308594 234.0959930419922 310.1190185546875 233.6696319580078 310.0111999511719 C 231.1573638916016 309.3757629394531 229.6409759521484 308.9922180175781 228.5364685058594 308.9922180175781 C 227.0327911376953 308.9922180175781 226.2354736328125 309.7007141113281 223.4244995117188 312.4093933105469 C 222.5850372314453 313.21826171875 221.6336059570313 314.1351013183594 220.4445343017578 315.2319030761719 C 217.0523376464844 318.3609008789063 217.3651580810547 319.2972717285156 217.380126953125 319.3356323242188 C 217.4260864257813 319.4531860351563 217.6849212646484 319.6421203613281 218.2632446289063 319.7876586914063 C 218.9063568115234 319.9494934082031 219.7951354980469 320.0281982421875 220.9807281494141 320.0282287597656 C 222.2991790771484 320.0282287597656 223.7652435302734 319.9307861328125 225.1830596923828 319.8365783691406 C 225.3906555175781 319.8227844238281 225.5966339111328 319.80908203125 225.8012390136719 319.7957763671875 C 226.2474060058594 319.7671508789063 226.662841796875 319.7526550292969 227.0359802246094 319.7526550292969 C 229.0584106445313 319.7526550292969 230.2797698974609 320.1670227050781 231.1198883056641 321.1382141113281 C 231.8880462646484 322.0262145996094 232.1836395263672 323.2543029785156 232.5578765869141 324.8091125488281 C 232.8028106689453 325.8267517089844 233.0804443359375 326.9801940917969 233.5460357666016 328.3395385742188 C 234.0456085205078 329.7984008789063 234.9868621826172 330.3408203125 237.0189514160156 330.3408203125 C 237.9404449462891 330.3408203125 238.9827270507813 330.2244873046875 240.0862274169922 330.1012878417969 C 241.358154296875 329.9592895507813 242.6733856201172 329.8124694824219 244.0218353271484 329.8124694824219 C 246.4666290283203 329.8124694824219 248.3665618896484 330.3057861328125 250.0010375976563 331.3649291992188 L 250.0124206542969 331.372314453125 L 250.0236358642578 331.3800048828125 C 255.7200927734375 335.2950439453125 261.8007507324219 338.8442077636719 268.0989685058594 341.9299926757813 C 271.0202331542969 343.3706359863281 273.2855834960938 344.7738037109375 275.2842712402344 346.0117797851563 C 279.3705139160156 348.5427856445313 282.3229064941406 350.3714904785156 287.9720153808594 350.8821716308594 C 292.7849731445313 351.3173522949219 295.9329833984375 351.9937438964844 296.7545776367188 354.0179748535156 C 297.5302124023438 355.9289245605469 295.9028015136719 358.2122192382813 294.0297546386719 360.3937377929688 C 293.0147399902344 361.5799255371094 291.8343505859375 362.8392639160156 290.5846252441406 364.1725463867188 C 288.1842041015625 366.7335205078125 285.5134582519531 369.5828552246094 283.5769348144531 372.4257507324219 L 286.0955505371094 372.3283996582031 L 286.9696655273438 372.2946472167969 L 287.1194152832031 373.1565246582031 L 287.3626098632813 374.5565795898438 C 287.4622802734375 374.5666809082031 287.6043701171875 374.5753479003906 287.7985534667969 374.5753479003906 M 287.7985534667969 375.5753479003906 C 287.3330078125 375.5753479003906 287.0222778320313 375.5317077636719 286.8512573242188 375.4743957519531 C 286.6322021484375 375.3631286621094 286.4746704101563 375.1750793457031 286.4169311523438 374.9555358886719 L 286.1341552734375 373.3276672363281 L 281.719482421875 373.4982604980469 C 284.5545043945313 368.5789489746094 289.9139404296875 363.6656188964844 293.2699584960938 359.7435607910156 C 297.9976196289063 354.2374572753906 296.6419067382813 352.6701965332031 287.8819580078125 351.8780822753906 C 279.12158203125 351.0862121582031 276.4237670898438 347.1504211425781 267.6566772460938 342.8268737792969 C 261.2947387695313 339.7098693847656 255.2103424072266 336.1581115722656 249.4572296142578 332.2041320800781 C 247.7840881347656 331.1199340820313 245.9066009521484 330.8125 244.0218353271484 330.8125 C 241.5513916015625 330.8125 239.0687866210938 331.3408203125 237.0189514160156 331.3408203125 C 234.9576873779297 331.3408203125 233.3338012695313 330.8064880371094 232.5999755859375 328.6634826660156 C 230.7207946777344 323.1770935058594 231.7620697021484 320.7526550292969 227.0359802246094 320.7526550292969 C 226.6798858642578 320.7526550292969 226.2905426025391 320.7664489746094 225.8652496337891 320.7937316894531 C 224.2680358886719 320.897705078125 222.5292053222656 321.0282592773438 220.9803161621094 321.0282287597656 C 216.6412506103516 321.0281372070313 213.7971343994141 320.0030822753906 219.7665252685547 314.4968566894531 C 224.9527740478516 309.7130126953125 225.9866485595703 307.9922180175781 228.5364685058594 307.9922180175781 C 229.9691467285156 307.9922180175781 231.880615234375 308.5357055664063 235.2755584716797 309.3844909667969 C 238.3013458251953 310.1409301757813 242.2972717285156 310.4932556152344 246.3097076416016 310.4931640625 C 254.8119659423828 310.4929809570313 263.3831787109375 308.9104614257813 262.9189453125 306.2375793457031 C 262.2351684570313 302.3036193847656 260.8878784179688 303.4907531738281 255.5004577636719 301.9144592285156 C 250.1126251220703 300.3379821777344 241.3466033935547 294.0442810058594 245.3980712890625 289.7147827148438 C 247.2662506103516 287.7181701660156 247.6966400146484 286.8939208984375 248.7426147460938 286.8939208984375 C 249.9646911621094 286.8939208984375 252.0270385742188 288.0192565917969 258.2040405273438 289.7147827148438 C 265.6460266113281 291.7573852539063 275.0729675292969 293.8026428222656 280.4047241210938 293.8023071289063 C 283.2869262695313 293.8021545410156 284.9733581542969 293.2041931152344 284.5005493164063 291.6849060058594 C 283.1536254882813 287.3556518554688 282.4804077148438 288.9258728027344 282.4804077148438 283.8150024414063 C 282.4804077148438 278.7043151855469 287.2031860351563 264.9268798828125 292.595947265625 263.3564453125 C 297.1437072753906 262.0325317382813 304.5686340332031 248.3975219726563 320.9302368164063 248.3975219726563 C 323.9727783203125 248.3975219726563 327.3277587890625 248.869873046875 331.0270385742188 249.9803924560547 C 354.6192016601563 257.0629272460938 373.4953002929688 259.8159790039063 384.2833251953125 259.8159790039063 C 385.7985229492188 259.8159790039063 387.2478637695313 259.8823547363281 388.6605834960938 259.9864807128906 L 388.6488037109375 260.0122375488281 C 387.3073120117188 262.9303588867188 385.6443481445313 265.7215881347656 383.68359375 268.3435974121094 C 381.0672607421875 272.0560607910156 380.60400390625 273.9718627929688 384.5341186523438 276.2347717285156 C 385.6016845703125 276.7826232910156 386.5061645507813 277.5523681640625 387.1723022460938 278.4794616699219 C 389.2097778320313 281.2490234375 388.5073852539063 281.7724609375 381.94091796875 285.2511901855469 C 376.2066040039063 288.2937927246094 377.3173217773438 290.4284973144531 379.0888061523438 292.5404052734375 C 380.228515625 293.7306823730469 380.9121704101563 295.2168884277344 381.038818359375 296.7807922363281 C 381.4329223632813 300.8459777832031 381.320068359375 304.9376525878906 380.7020874023438 308.9800720214844 L 380.5332641601563 310.4886169433594 C 379.7445678710938 310.5973205566406 378.8575134277344 310.6453857421875 377.9000549316406 310.6453857421875 C 373.2370910644531 310.6453857421875 366.9163513183594 309.5042724609375 362.287353515625 308.6694641113281 C 359.337158203125 308.0318908691406 356.330078125 307.6280822753906 353.301025390625 307.4626159667969 C 341.9412231445313 307.4626159667969 336.0282592773438 326.4850158691406 335.9805297851563 326.6767272949219 C 334.3946533203125 333.6128845214844 341.0367431640625 336.0039978027344 351.361328125 338.8550109863281 C 357.4344482421875 340.5339660644531 358.1231079101563 345.2889099121094 353.8872680664063 356.3947448730469 C 353.7001953125 356.9070129394531 353.475341796875 357.4073791503906 353.2138061523438 357.8924255371094 C 352.4205932617188 357.5880432128906 351.5465087890625 357.2243957519531 351.0903930664063 357.0326232910156 C 346.2188720703125 354.8706970214844 341.074462890625 353.2413635253906 335.7684936523438 352.1798400878906 C 332.6722106933594 351.5794982910156 329.9490051269531 351.3161315917969 327.5443420410156 351.3161315917969 C 315.8279418945313 351.3161315917969 311.6939697265625 357.5721740722656 309.03955078125 361.5898132324219 C 308.4721069335938 362.4407653808594 307.9351806640625 363.2599182128906 307.3558959960938 363.9852600097656 C 306.6217041015625 364.9028015136719 306.002197265625 365.7837829589844 305.4058227539063 366.6344909667969 C 302.927490234375 370.1659851074219 301.2910766601563 372.5042419433594 292.8585815429688 374.7381896972656 C 290.4077758789063 375.3863525390625 288.7675476074219 375.5753479003906 287.7985534667969 375.5753479003906 Z" stroke="none" fill="#30abec"/>
      </g>
      <text id="tongnanqu" transform="translate(156.579 113.746)" fill="#fff" font-size="10" font-family="MicrosoftYaHei, Microsoft YaHei"><tspan x="0" y="0">潼南区</tspan></text>
      <g transform="matrix(1, 0, 0, 1, 3.04, -5.37)" filter="url(#tongnan1)">
        <path id="tongnan1-2" data-name="tongnan1" d="M-2771.566-904.822a3.351,3.351,0,0,1-.947-.1.829.829,0,0,1-.434-.519l-.284-1.627-4.414.17v-20l4.414-.17.284,1.628a.83.83,0,0,0,.434.519,3.342,3.342,0,0,0,.947.1,20.666,20.666,0,0,0,5.061-.837c8.428-2.232,10.065-4.565,12.542-8.1l0-.007c.531-.757,1.19-1.7,1.95-2.65.539-.674,1.036-1.422,1.563-2.215l.12-.181a23.915,23.915,0,0,1,5.854-6.643c3.345-2.443,7.483-3.63,12.65-3.63a43.636,43.636,0,0,1,8.224.864,73.245,73.245,0,0,1,15.322,4.853c.812.341,1.546.638,2.124.859a11.549,11.549,0,0,0,.673-1.5,40.719,40.719,0,0,0,2.587-9.2c.347,5.833.785,20.353-2.587,29.2a11.527,11.527,0,0,1-.673,1.5c-.594-.228-1.328-.525-2.124-.859a73.3,73.3,0,0,0-15.322-4.853,43.631,43.631,0,0,0-8.224-.864c-11.717,0-15.8,6.182-18.5,10.273l-.129.194c-.524.788-1.02,1.531-1.555,2.2-.753.943-1.389,1.849-1.95,2.65l0,.006c-2.478,3.532-4.115,5.865-12.542,8.1A20.659,20.659,0,0,1-2771.566-904.822Zm-4.492-24.5h0a.675.675,0,0,0-.1-.038,34.974,34.974,0,0,1-8.555-4.243c-1.958-1.206-4.176-2.573-7-3.963a144.409,144.409,0,0,1-18.2-10.623,9.6,9.6,0,0,0-5.437-1.392,32.969,32.969,0,0,0-3.658.264l-.165.018a29.66,29.66,0,0,1-3.179.246c-2.455,0-3.776-.8-4.418-2.676-.48-1.4-.763-2.577-1.013-3.615v0c-.709-2.946-1.033-4.291-4.549-4.291-.353,0-.747.014-1.172.041l-.719.047c-1.531.1-3.114.207-4.511.207-2.435,0-3.706-.327-4-1.029-.557-1.144-.065-18.08-.007-20.008.552.693,1.934,1.016,4.35,1.016,1.354,0,2.838-.1,4.275-.194l.612-.04c.425-.027.818-.041,1.17-.041,3.518,0,3.842,1.345,4.551,4.291.25,1.039.533,2.216,1.014,3.62.642,1.876,1.963,2.676,4.418,2.676a29.67,29.67,0,0,0,3.178-.246l.165-.018a32.961,32.961,0,0,1,3.658-.264,9.6,9.6,0,0,1,5.437,1.392,144.524,144.524,0,0,0,18.2,10.623,80.114,80.114,0,0,1,7.1,4.034c4.047,2.506,7.242,4.485,13.126,5.017,5.106.462,7.408,1.19,7.946,2.516.458,1.128-.307,2.728-2.558,5.349-1,1.172-2.175,2.422-3.416,3.746a82.513,82.513,0,0,0-6.548,7.581ZM-2718-964.9h0a10.981,10.981,0,0,1-4.636-3.553,6.474,6.474,0,0,1-.746-5.265,48.438,48.438,0,0,1,4.418-9.679,26.027,26.027,0,0,1,5.41-6.56,11.652,11.652,0,0,1,7.492-2.975,57.585,57.585,0,0,1,8.987,1.207l.019,0c4.615.832,10.937,1.972,15.593,1.972a19.6,19.6,0,0,0,2.633-.157l.168-1.5c.183,6.279.424,17.226,0,19.991l-.169,1.509a19.589,19.589,0,0,1-2.632.157c-4.652,0-10.969-1.139-15.582-1.971l-.032-.006a57.581,57.581,0,0,0-8.987-1.207c-4.308,0-8.324,2.7-11.937,8.032Zm-95.053-25h0l-.546,0c-.237-.488-.365-.775-.365-.777l-1.07-17.614.034.017c-.03,1.781,1.346,3.877,3.875,5.9a22.8,22.8,0,0,0,7.263,3.9,35.97,35.97,0,0,0,3.6.838c2.486.474,3.323.634,3.818,3.485a1.314,1.314,0,0,1-.344,1.1c-.8.948-2.886,1.754-6.041,2.331A59.065,59.065,0,0,1-2813.054-989.9Zm134.784-4.811v0a49.375,49.375,0,0,0-.055-8.9,6.991,6.991,0,0,0-1.949-4.24c-.99-1.18-1.6-2.2-1.385-3.319.252-1.293,1.638-2.592,4.237-3.97,4.006-2.123,5.944-3.2,6.209-4.358.157-.688-.258-1.434-.979-2.414a7.415,7.415,0,0,0-2.638-2.245c-1.7-.977-2.594-1.912-2.821-2.942-.3-1.365.531-2.905,1.971-4.948a46.256,46.256,0,0,0,4.711-7.788l.255-.122c-.013.18-1.285,18.119-.126,19.472a.2.2,0,0,0,.137.081l-.011.026a46.186,46.186,0,0,1-4.965,8.331c-1.44,2.043-2.272,3.584-1.971,4.949.23,1.044,1.1,1.951,2.821,2.942a7.41,7.41,0,0,1,2.638,2.245c.721.98,1.136,1.725.979,2.414-.266,1.164-2.2,2.236-6.209,4.358-.307.163-.592.308-.846.431Z" transform="translate(2920 1107)" stroke="rgba(0,0,0,0)" stroke-miterlimit="10" stroke-width="1" fill="url(#linear-gradient)"/>
      </g>
    </g>
  </g>
</svg>
