<svg xmlns="http://www.w3.org/2000/svg" xmlns:xlink="http://www.w3.org/1999/xlink" width="327" height="258" viewBox="0 0 327 258">
  <defs>
    <radialGradient id="radial-gradient" cx="0.5" cy="0.5" r="0.5" gradientUnits="objectBoundingBox">
      <stop offset="0" stop-color="#1fb9e6"/>
      <stop offset="1" stop-color="#0669d2"/>
    </radialGradient>
    <linearGradient id="linear-gradient" x1="0.5" x2="0.5" y2="1" gradientUnits="objectBoundingBox">
      <stop offset="0" stop-color="#191e64"/>
      <stop offset="1" stop-color="#17448b"/>
    </linearGradient>
    <filter id="xiushan1" x="58.5" y="65.091" width="210.734" height="168.968" filterUnits="userSpaceOnUse">
      <feOffset dy="8" input="SourceAlpha"/>
      <feGaussianBlur stdDeviation="9" result="blur"/>
      <feFlood flood-opacity="0.161"/>
      <feComposite operator="in" in2="blur"/>
      <feComposite in="SourceGraphic"/>
    </filter>
    <clipPath id="clip-tujiazu">
      <rect width="327" height="258"/>
    </clipPath>
  </defs>
  <g id="tujiazu" clip-path="url(#clip-tujiazu)">
    <rect width="327" height="258" fill="rgba(0,0,0,0)"/>
    <g id="xiushan" transform="translate(-0.45 7.071)">
      <g id="thick_xiushan" transform="translate(-765.518 -406.908)" opacity="0.67" fill="url(#radial-gradient)">
        <path d="M 926.5839233398438 580.8958129882813 C 925.8291015625 580.8958129882813 924.9760131835938 580.8409423828125 924.0484008789063 580.7327270507813 C 920.1776123046875 580.2813110351563 916.1749877929688 579.814453125 913.1266479492188 579.2462768554688 C 911.5081787109375 578.9446411132813 910.289306640625 578.6409912109375 909.400390625 578.3180541992188 C 908.2073364257813 577.8846435546875 907.9476928710938 577.5303955078125 907.8914184570313 577.398193359375 C 907.8721313476563 577.3528442382813 907.826904296875 577.2466430664063 908.0029296875 577.0150146484375 C 908.7766723632813 575.9968872070313 908.9917602539063 575.0107421875 908.6085815429688 574.23828125 C 908.39111328125 573.7997436523438 907.7737426757813 573.064208984375 906.0826416015625 573.064208984375 C 905.0589599609375 573.064208984375 903.825439453125 573.3295288085938 902.4163818359375 573.8527221679688 C 899.5125732421875 574.93115234375 894.4306640625 576.091796875 890.1347045898438 576.091796875 C 887.6680297851563 576.091796875 885.7730102539063 575.7033081054688 884.6546020507813 574.9683837890625 C 882.1309204101563 573.3099975585938 879.5213012695313 571.59521484375 876.4179077148438 571.59521484375 C 874.9012451171875 571.59521484375 873.4088134765625 571.9956665039063 871.85546875 572.8195190429688 C 868.4058837890625 574.6487426757813 865.1612548828125 575.6561279296875 862.7192993164063 575.6561279296875 C 860.5110473632813 575.6561279296875 858.9061279296875 574.852783203125 857.9490966796875 573.2684326171875 C 857.445556640625 572.4348754882813 856.8651733398438 571.5919799804688 856.3038940429688 570.7767944335938 C 854.79736328125 568.5889282226563 853.239501953125 566.3265380859375 853.7902221679688 564.9791870117188 C 854.0922241210938 564.240234375 855.0735473632813 563.7047119140625 856.70703125 563.3875122070313 C 857.177978515625 563.2960815429688 857.6553955078125 563.20458984375 858.135009765625 563.1127319335938 C 864.9625244140625 561.8047485351563 869.1422119140625 560.8787231445313 869.6148681640625 559.0516967773438 C 869.7764892578125 558.4270629882813 869.4921264648438 557.8045043945313 868.7696533203125 557.201416015625 C 868.2503662109375 556.767822265625 867.7250366210938 556.35986328125 867.217041015625 555.9653930664063 C 865.7886352539063 554.8560180664063 864.3115844726563 553.7089233398438 864.401611328125 552.9426879882813 C 864.4491577148438 552.5380249023438 864.9766845703125 552.0960083007813 865.9271240234375 551.6643676757813 C 867.8604125976563 550.7861938476563 868.5573120117188 550.3587036132813 868.6161499023438 549.70849609375 C 868.6709594726563 549.1018676757813 868.134033203125 548.7291870117188 867.3212890625 548.1651000976563 C 866.841064453125 547.831787109375 866.2434692382813 547.4170532226563 865.5950317382813 546.848876953125 C 864.4005126953125 545.8023071289063 863.6910400390625 545.0807495117188 863.5990600585938 544.489501953125 C 863.5159912109375 543.9552001953125 863.9226684570313 543.3037719726563 864.75341796875 542.21337890625 C 865.51171875 541.2179565429688 866.185546875 540.13623046875 865.983154296875 538.9708862304688 C 865.774658203125 537.7703857421875 864.72314453125 536.6531982421875 862.3536987304688 535.1148071289063 C 861.0807495117188 534.2887573242188 859.4865112304688 532.9078369140625 857.7986450195313 531.44580078125 C 856.3199462890625 530.1649780273438 854.8020629882813 528.8502197265625 853.4031982421875 527.8280639648438 L 853.8718872070313 527.7867431640625 L 854.5996704101563 527.72265625 L 854.2763671875 527.0674438476563 L 853.8104248046875 526.1231689453125 C 853.9507446289063 525.700439453125 854.7804565429688 524.2960815429688 857.2022094726563 521.3470458984375 C 859.5272216796875 518.5157470703125 862.4448852539063 515.3203125 865.4175415039063 512.349365234375 C 866.6426391601563 511.1239929199219 872.1931762695313 508.2931213378906 879.3614501953125 505.6766052246094 C 884.3792724609375 503.8450622558594 894.1310424804688 500.7091979980469 903.0645751953125 500.2861022949219 C 915.6419067382813 499.6921081542969 919.4795532226563 493.9813232421875 922.0189819335938 490.2023620605469 L 922.0270385742188 490.1903991699219 L 922.0343627929688 490.177978515625 C 922.5526733398438 489.3014221191406 923.177001953125 488.4730834960938 923.8916625976563 487.7133178710938 C 927.2767944335938 487.531494140625 932.9992065429688 486.4703979492188 938.3219604492188 484.0400390625 C 942.5009155273438 482.1319274902344 947.6609497070313 478.7813415527344 948.5115356445313 473.6549377441406 C 948.6394653320313 472.8826599121094 949.4513549804688 471.5948181152344 952.5929565429688 469.8442077636719 C 954.8409423828125 468.5915832519531 957.9741821289063 467.2705993652344 961.9056396484375 465.9179077148438 C 968.4916381835938 463.6519165039063 976.3320922851563 461.6506652832031 981.7376098632813 460.4727783203125 C 981.3367919921875 464.6297607421875 981.9902954101563 468.8648681640625 983.6400756835938 472.7662963867188 L 983.6444091796875 472.7765197753906 L 983.649169921875 472.7865600585938 C 986.0593872070313 477.8478393554688 987.7305908203125 478.6620178222656 994.4602661132813 480.2322387695313 C 997.1995239257813 480.8715209960938 999.2889404296875 481.5331420898438 1000.847900390625 482.2549133300781 C 1002.712158203125 483.1180419921875 1003.778442382813 484.0534362792969 1004.017028808594 485.0350952148438 C 1004.270629882813 486.07861328125 1003.587707519531 487.2998046875 1001.987182617188 488.6647033691406 L 1001.982788085938 488.66845703125 L 1001.978454589844 488.6723022460938 C 997.1576538085938 492.9803771972656 991.0980224609375 495.9714660644531 984.4547119140625 497.3222045898438 L 984.4476928710938 497.3236083984375 L 984.4407348632813 497.3252563476563 C 977.5074462890625 498.9424133300781 973.584716796875 500.0830688476563 973.584716796875 504.7170715332031 C 973.584716796875 505.7321166992188 973.7069702148438 506.3874206542969 973.9810180664063 506.841796875 C 974.2841186523438 507.3442993164063 974.760009765625 507.5885620117188 975.4358520507813 507.5885620117188 C 976.0394287109375 507.5885620117188 976.7815551757813 507.3961791992188 977.7211303710938 507.1526184082031 C 978.9285278320313 506.839599609375 980.43115234375 506.4500732421875 982.3253173828125 506.2796325683594 C 982.7615966796875 506.2403564453125 983.1852416992188 506.220458984375 983.58447265625 506.220458984375 C 985.414306640625 506.220458984375 986.4959716796875 506.6207885742188 987.4502563476563 506.9739990234375 C 988.1367797851563 507.2281188964844 988.729736328125 507.4475402832031 989.4318237304688 507.4475402832031 C 990.2510986328125 507.447509765625 991.0781860351563 507.1446838378906 992.1134643554688 506.465576171875 C 994.25732421875 505.0595092773438 995.3355712890625 504.6529235839844 996.920654296875 504.6529235839844 C 997.9694213867188 504.6529235839844 999.2822875976563 504.8452453613281 1001.099365234375 505.1114196777344 C 1001.320373535156 505.143798828125 1001.549377441406 505.1773376464844 1001.786926269531 505.2118835449219 C 1003.271423339844 505.4287109375 1004.544921875 505.8422546386719 1005.469299316406 506.4077453613281 C 1006.287292480469 506.9081115722656 1006.804443359375 507.5054626464844 1006.964721679688 508.1351928710938 C 1007.181396484375 508.9864196777344 1006.714538574219 509.8948974609375 1005.650207519531 510.6932373046875 C 1004.779907226563 511.3459777832031 1003.783569335938 511.9713134765625 1002.728759765625 512.6333618164063 C 999.9547119140625 514.37451171875 997.086181640625 516.1749267578125 996.3731079101563 518.6575317382813 C 996.1089477539063 519.5773315429688 995.3173828125 521.9317016601563 993.6769409179688 523.9232788085938 C 992.1063232421875 525.8300170898438 990.263916015625 526.7968139648438 988.200927734375 526.7968139648438 C 983.2369384765625 526.7968139648438 977.1792602539063 529.38671875 973.7609252929688 531.945068359375 C 972.3729248046875 532.9840087890625 971.9913940429688 534.3138427734375 971.6224365234375 535.5999755859375 C 971.0723266601563 537.5173950195313 970.5035400390625 539.5000610351563 966.5798950195313 541.181640625 C 962.771728515625 542.813720703125 960.884521484375 544.2749633789063 960.4607543945313 545.9196166992188 C 960.0791015625 547.40087890625 960.9407958984375 548.7734985351563 961.8341064453125 549.9208374023438 L 961.8374633789063 549.9251098632813 C 963.00390625 551.4232177734375 963.4007568359375 551.980712890625 963.272705078125 552.7550048828125 C 963.1197509765625 553.6796875 962.1721801757813 555.06005859375 960.4520263671875 557.5659790039063 C 959.2542724609375 559.3110961914063 957.9197387695313 560.8679809570313 956.629150390625 562.3737182617188 C 953.9929809570313 565.44921875 951.71630859375 568.1053466796875 951.71630859375 571.1288452148438 C 951.71630859375 571.424560546875 951.718505859375 571.7125854492188 951.7206420898438 571.9916381835938 C 951.7333374023438 573.650390625 951.7443237304688 575.0829467773438 951.2313232421875 575.5997924804688 C 951.1255493164063 575.7063598632813 950.9329833984375 575.8480224609375 950.4840698242188 575.8480224609375 C 950.4839477539063 575.8480224609375 950.48388671875 575.8480224609375 950.4837646484375 575.8480224609375 C 949.7335205078125 575.847900390625 948.5873413085938 575.462158203125 946.979736328125 574.668701171875 C 944.1343383789063 573.2645263671875 940.646728515625 572.4262084960938 937.6503295898438 572.4262084960938 C 934.4122924804688 572.4262084960938 932.4072875976563 573.3790283203125 932.1493530273438 575.0403442382813 C 932.0909423828125 575.4166259765625 932.0538940429688 575.8160400390625 932.0181274414063 576.2023315429688 C 931.7943115234375 578.615966796875 931.5829467773438 580.8958129882813 926.5839233398438 580.8958129882813 Z" stroke="none"/>
        <path d="M 981.1834716796875 461.1066284179688 C 975.8272705078125 462.296630859375 968.3706665039063 464.2222900390625 962.0682983398438 466.3906860351563 C 958.1646728515625 467.7337646484375 955.05859375 469.0426635742188 952.8363647460938 470.281005859375 C 949.7122802734375 472.0217895507813 949.0948486328125 473.1931762695313 949.0048217773438 473.73681640625 C 948.3030395507813 477.9661865234375 944.6807861328125 481.6862182617188 938.5296630859375 484.494873046875 C 933.2485961914063 486.9061889648438 927.5742797851563 487.98583984375 924.1214599609375 488.2008056640625 C 923.4879150390625 488.8937377929688 922.931640625 489.6428833007813 922.4647827148438 490.4324340820313 L 922.4500732421875 490.457275390625 L 922.4340209960938 490.481201171875 C 919.8387451171875 494.34326171875 915.9168090820313 500.1796264648438 903.0881958007813 500.7855224609375 C 894.220947265625 501.2055053710938 884.52392578125 504.324462890625 879.5328369140625 506.1463012695313 C 871.7915649414063 508.9719848632813 866.7446899414063 511.7291259765625 865.77099609375 512.7030639648438 C 862.8881225585938 515.584228515625 860.0399780273438 518.6966552734375 857.751220703125 521.4669189453125 C 855.5527954101563 524.1279296875 854.6292114257813 525.555908203125 854.36083984375 526.108642578125 L 854.7247924804688 526.84619140625 L 855.3713989257813 528.1566162109375 L 854.7325439453125 528.212890625 C 855.8427124023438 529.0901489257813 856.9957885742188 530.0889282226563 858.1260375976563 531.0679321289063 C 859.8004760742188 532.518310546875 861.3819580078125 533.88818359375 862.6259765625 534.6954345703125 C 865.1254272460938 536.3182373046875 866.2407836914063 537.5321044921875 866.4757690429688 538.8853149414063 C 866.7109985351563 540.2396240234375 865.9781494140625 541.4307861328125 865.1511840820313 542.516357421875 C 864.4574584960938 543.4267578125 864.03857421875 544.0615844726563 864.0931396484375 544.4127197265625 C 864.1652221679688 544.8761596679688 865.0159301757813 545.6766967773438 865.924560546875 546.4727783203125 C 866.5516967773438 547.0223388671875 867.1365356445313 547.42822265625 867.6063842773438 547.75439453125 C 868.4589233398438 548.3460693359375 869.1951293945313 548.8570556640625 869.1140747070313 549.7535400390625 C 869.0280151367188 550.7052001953125 868.0947875976563 551.2289428710938 866.1339111328125 552.1195678710938 C 865.1527709960938 552.565185546875 864.9092407226563 552.9069213867188 864.898193359375 553.0009765625 C 864.8970947265625 553.010498046875 864.8775634765625 553.2391357421875 865.4461059570313 553.826904296875 C 865.9520874023438 554.349853515625 866.7155151367188 554.9427490234375 867.5237426757813 555.5704345703125 C 868.03515625 555.9676513671875 868.56396484375 556.3782958984375 869.090087890625 556.8175659179688 C 870.1907348632813 557.7363891601563 870.2462158203125 558.6077880859375 870.0989379882813 559.1768798828125 C 869.7991943359375 560.3355102539063 868.4688110351563 561.17431640625 865.6504516601563 561.9816284179688 C 863.5381469726563 562.5867309570313 860.839111328125 563.103759765625 858.22900390625 563.603759765625 C 857.7498168945313 563.695556640625 857.2728881835938 563.7869873046875 856.8023681640625 563.8782958984375 C 855.8003540039063 564.0728759765625 854.544677734375 564.4546508789063 854.2530517578125 565.1683349609375 C 853.8045654296875 566.2655639648438 855.3511962890625 568.5115966796875 856.7156982421875 570.4932861328125 C 857.2811279296875 571.314453125 857.8658447265625 572.16357421875 858.3770751953125 573.0099487304688 C 859.2493896484375 574.4541015625 860.6697387695313 575.1561279296875 862.7192993164063 575.1561279296875 C 865.0810546875 575.1561279296875 868.2424926757813 574.16943359375 871.6211547851563 572.3778076171875 C 873.24853515625 571.5147705078125 874.8175048828125 571.09521484375 876.4179077148438 571.09521484375 C 879.6708374023438 571.09521484375 882.3440551757813 572.851806640625 884.92919921875 574.550537109375 C 885.9658203125 575.231689453125 887.765869140625 575.591796875 890.134765625 575.591796875 C 894.368896484375 575.591796875 899.3790283203125 574.4473876953125 902.2423095703125 573.384033203125 C 903.707275390625 572.8400268554688 904.9993286132813 572.564208984375 906.0826416015625 572.564208984375 C 908.0435180664063 572.5641479492188 908.7875366210938 573.4737548828125 909.0565185546875 574.0159912109375 C 909.32763671875 574.5626220703125 909.603759765625 575.7096557617188 908.4308471679688 577.2779541015625 C 908.5714721679688 577.3978271484375 908.9237060546875 577.6289672851563 909.7584228515625 577.9140625 C 910.6469116210938 578.217529296875 911.8468017578125 578.5050659179688 913.4266357421875 578.7931518554688 C 916.429443359375 579.3407592773438 920.3320922851563 579.7958984375 924.1063232421875 580.236083984375 C 925.0148315429688 580.342041015625 925.8484497070313 580.3958129882813 926.5839233398438 580.3958129882813 C 928.6921997070313 580.3958129882813 930.0466918945313 579.9761962890625 930.7249145507813 579.113037109375 C 931.3157958984375 578.361083984375 931.4151000976563 577.2900390625 931.5202026367188 576.1561279296875 C 931.5567626953125 575.7623291015625 931.594482421875 575.3551025390625 931.6552734375 574.963623046875 C 931.9549560546875 573.033447265625 934.1400146484375 571.9263916015625 937.6502685546875 571.9262084960938 C 940.719482421875 571.926025390625 944.289794921875 572.7836303710938 947.2009887695313 574.2203369140625 C 948.7171020507813 574.9686279296875 949.821533203125 575.3480224609375 950.4837036132813 575.3480224609375 C 950.776611328125 575.3480224609375 950.8517456054688 575.2723388671875 950.8764038085938 575.2474365234375 C 951.2427368164063 574.8783569335938 951.2310180664063 573.3467407226563 951.2206420898438 571.9954833984375 C 951.218505859375 571.7152099609375 951.21630859375 571.4259033203125 951.21630859375 571.1288452148438 C 951.21630859375 567.92041015625 953.5487670898438 565.19921875 956.24951171875 562.0482788085938 C 957.5315551757813 560.5526123046875 958.857177734375 559.0059814453125 960.039794921875 557.282958984375 C 961.6641845703125 554.9166870117188 962.6445922851563 553.4884033203125 962.7793579101563 552.6734008789063 C 962.8737182617188 552.1029052734375 962.5333251953125 551.6326904296875 961.4429321289063 550.2322387695313 L 961.4395751953125 550.22802734375 C 960.5281982421875 549.0574951171875 959.538330078125 547.4957275390625 959.9765625 545.7948608398438 C 960.2212524414063 544.8450927734375 960.8724975585938 543.9740600585938 961.9674682617188 543.132080078125 C 962.9906616210938 542.34521484375 964.4349975585938 541.556884765625 966.3829345703125 540.7220458984375 C 970.08837890625 539.134033203125 970.60009765625 537.3504028320313 971.141845703125 535.4620361328125 C 971.515380859375 534.16015625 971.938720703125 532.6844482421875 973.4613647460938 531.5447998046875 C 976.94580078125 528.9368896484375 983.1276245117188 526.2968139648438 988.200927734375 526.2968139648438 C 990.1073608398438 526.2968139648438 991.8199462890625 525.3912963867188 993.291015625 523.6054077148438 C 994.8718872070313 521.6860961914063 995.636962890625 519.4093627929688 995.8925170898438 518.51953125 C 996.6583862304688 515.8530883789063 999.6092529296875 514.0009765625 1002.463012695313 512.2098388671875 C 1003.5087890625 511.553466796875 1004.496520996094 510.9335327148438 1005.350158691406 510.2932739257813 C 1005.866943359375 509.9056396484375 1006.700927734375 509.1258544921875 1006.480163574219 508.258544921875 C 1006.253845214844 507.369384765625 1004.869873046875 506.16748046875 1001.715026855469 505.7066650390625 C 1001.4775390625 505.672119140625 1001.248657226563 505.6386108398438 1001.027770996094 505.6062622070313 C 999.231201171875 505.3430786132813 997.93310546875 505.1530151367188 996.9200439453125 505.1529541015625 C 995.4512329101563 505.1529541015625 994.4345703125 505.5411376953125 992.3876953125 506.8836669921875 C 991.2659912109375 507.619384765625 990.3543701171875 507.947509765625 989.4317626953125 507.947509765625 C 988.64013671875 507.947509765625 987.9779052734375 507.702392578125 987.27685546875 507.44287109375 C 986.362060546875 507.104248046875 985.3251342773438 506.720458984375 983.5844116210938 506.720458984375 C 983.2000122070313 506.720458984375 982.79150390625 506.7396850585938 982.3701171875 506.777587890625 C 980.516845703125 506.9443359375 979.0362548828125 507.3281860351563 977.8466186523438 507.6365966796875 C 976.87255859375 507.8890991210938 976.1031494140625 508.0885620117188 975.4358520507813 508.0885620117188 C 973.084716796875 508.0885620117188 973.084716796875 505.63916015625 973.084716796875 504.717041015625 C 973.084716796875 502.3130493164063 974.0956420898438 500.6226196289063 976.2662353515625 499.3971557617188 C 978.1635131835938 498.325927734375 980.9203491210938 497.6329345703125 984.3271484375 496.8382568359375 L 984.341064453125 496.8350219726563 L 984.3551025390625 496.8321533203125 C 990.9115600585938 495.4992065429688 996.890380859375 492.5486450195313 1001.645324707031 488.2994995117188 L 1001.653930664063 488.2918090820313 L 1001.662780761719 488.2842407226563 C 1002.656372070313 487.4369506835938 1003.787048339844 486.2059326171875 1003.531127929688 485.1531372070313 C 1003.333190917969 484.338623046875 1002.332702636719 483.4932861328125 1000.637817382813 482.7086181640625 C 999.1101684570313 482.0013427734375 997.0523071289063 481.3505859375 994.3466186523438 480.7191772460938 C 987.4240112304688 479.10400390625 985.7025146484375 478.2614135742188 983.19775390625 473.00146484375 L 983.1881713867188 472.9814453125 L 983.1795654296875 472.9609985351563 C 981.5875854492188 469.1962890625 980.9055786132813 465.1258544921875 981.1834716796875 461.1066284179688 M 982.3109130859375 459.837646484375 C 981.7713623046875 464.1495361328125 982.3848876953125 468.51416015625 984.1005859375 472.571533203125 C 986.378173828125 477.3543701171875 987.7459716796875 478.1522216796875 994.5738525390625 479.745361328125 C 1001.401733398438 481.3387451171875 1008.231811523438 483.9964599609375 1002.311645507813 489.045166015625 C 997.43115234375 493.406494140625 991.2764892578125 496.4454345703125 984.5543212890625 497.8121337890625 C 977.7232666015625 499.405517578125 974.084716796875 500.4659423828125 974.084716796875 504.717041015625 C 974.084716796875 506.5323486328125 974.49951171875 507.0885620117188 975.4358520507813 507.0885620117188 C 976.6923828125 507.0885620117188 978.8880004882813 506.0868530273438 982.280517578125 505.7816162109375 C 982.7509765625 505.7392578125 983.1839599609375 505.720458984375 983.5844116210938 505.720458984375 C 986.816162109375 505.720458984375 987.9228515625 506.947509765625 989.4317626953125 506.947509765625 C 990.0885620117188 506.947509765625 990.8216552734375 506.7149658203125 991.8392333984375 506.0474853515625 C 993.9859619140625 504.6395263671875 995.1827392578125 504.15283203125 996.920654296875 504.1529541015625 C 998.1339721679688 504.1530151367188 999.6113891601563 504.3903198242188 1001.85888671875 504.717041015625 C 1007.319091796875 505.5146484375 1009.1337890625 508.705322265625 1005.9501953125 511.09326171875 C 1002.766479492188 513.4810180664063 997.7689208984375 515.6090698242188 996.8536376953125 518.7955932617188 C 995.9384765625 521.982177734375 993.2109375 527.2968139648438 988.200927734375 527.2968139648438 C 983.19140625 527.2968139648438 977.2508544921875 529.9576416015625 974.060546875 532.3453979492188 C 970.8702392578125 534.7333374023438 973.5987548828125 538.717529296875 966.77685546875 541.6412353515625 C 959.9547119140625 544.56494140625 959.9547119140625 546.693115234375 962.2286376953125 549.6136474609375 C 964.502685546875 552.5343017578125 964.5096435546875 552.5383911132813 960.8642578125 557.8489379882813 C 957.21923828125 563.1595458984375 952.21630859375 566.8746948242188 952.21630859375 571.1288452148438 C 952.21630859375 574.1392822265625 952.4459228515625 576.3480224609375 950.4837036132813 576.3480224609375 C 949.6730346679688 576.3480224609375 948.4879150390625 575.970703125 946.7584228515625 575.1170654296875 C 943.79931640625 573.65673828125 940.3833618164063 572.926025390625 937.6503295898438 572.9262084960938 C 934.9193115234375 572.9263305664063 932.8702392578125 573.65625 932.6434326171875 575.1170654296875 C 932.23828125 577.72705078125 932.9144287109375 581.3958129882813 926.5839233398438 581.3958129882813 C 925.824951171875 581.3958129882813 924.9647827148438 581.343017578125 923.990478515625 581.2293701171875 C 914.8897705078125 580.16796875 905.7877197265625 579.103515625 907.6048583984375 576.7124633789063 C 908.9046020507813 575.0022583007813 908.341064453125 573.5641479492188 906.0826416015625 573.564208984375 C 905.18359375 573.564208984375 904.0159301757813 573.7921142578125 902.5904541015625 574.3214721679688 C 899.388916015625 575.5104370117188 894.3230590820313 576.591796875 890.134765625 576.591796875 C 887.77392578125 576.591796875 885.6914672851563 576.248046875 884.3800048828125 575.38623046875 C 881.8759155273438 573.74072265625 879.3701171875 572.09521484375 876.4179077148438 572.09521484375 C 875.08056640625 572.09521484375 873.651611328125 572.432861328125 872.0897216796875 573.26123046875 C 869.193115234375 574.7972412109375 865.6883544921875 576.1561279296875 862.7192993164063 576.1561279296875 C 860.5532836914063 576.1561279296875 858.6722412109375 575.4326782226563 857.5211181640625 573.5269775390625 C 854.7921142578125 569.009033203125 849.77685546875 564.2239990234375 856.6116943359375 562.8966674804688 C 863.446533203125 561.5693969726563 871.633056640625 560.2431640625 868.44921875 557.585205078125 C 865.2655029296875 554.9271850585938 861.6270751953125 553.0682373046875 865.7203369140625 551.2091064453125 C 869.8134765625 549.3499755859375 867.994140625 549.6158447265625 865.2655029296875 547.2249145507813 C 862.5364990234375 544.8338623046875 862.5364990234375 544.2980346679688 864.355712890625 541.9103393554688 C 866.175048828125 539.522216796875 866.175048828125 538.1920166015625 862.0814208984375 535.5341796875 C 859.3233642578125 533.7443237304688 855.1173095703125 529.4309692382813 851.9678955078125 527.4525756835938 L 853.8280029296875 527.2886962890625 L 853.2890625 526.1964721679688 C 853.324462890625 525.0586547851563 858.583251953125 518.4727783203125 865.0640869140625 511.9957275390625 C 867.62353515625 509.4356689453125 887.5147705078125 500.52197265625 903.0408935546875 499.78662109375 C 915.3626708984375 499.2047119140625 919.114990234375 493.62744140625 921.60400390625 489.9234619140625 C 922.17578125 488.95654296875 922.8681640625 488.0509033203125 923.6676025390625 487.2237548828125 C 931.190185546875 486.888671875 946.5526123046875 482.40625 948.018310546875 473.5731201171875 C 948.92919921875 468.072998046875 972.275634765625 461.97705078125 982.3109130859375 459.837646484375 Z" stroke="none" fill="#30abec"/>
      </g>
      <text id="xiushan-2" data-name="xiushan" transform="translate(134.579 119.746)" fill="#fff" font-size="10" font-family="MicrosoftYaHei, Microsoft YaHei"><tspan x="0" y="0">秀山土家族</tspan><tspan x="0" y="13">苗族自治县</tspan></text>
      <g transform="matrix(1, 0, 0, 1, 0.45, -7.07)" filter="url(#xiushan1)">
        <path id="xiushan1-2" data-name="xiushan1" d="M-3165.384-565.441a22.884,22.884,0,0,1-2.593-.168c-7.766-.905-15.8-1.842-16.559-3.635a.852.852,0,0,1,.174-.881,2.211,2.211,0,0,0,.555-2.252,2.159,2.159,0,0,0-2.078-.9,10.384,10.384,0,0,0-3.492.757,39.6,39.6,0,0,1-12.455,2.27c-2.6,0-4.538-.406-5.755-1.206-2.462-1.618-5.008-3.291-7.962-3.291a9.111,9.111,0,0,0-4.329,1.166c-2.49,1.32-6.136,2.895-9.37,2.895a5.624,5.624,0,0,1-5.2-2.629c-.533-.882-1.152-1.774-1.751-2.636-1.256-1.808-2.443-3.516-2.54-4.734-.141-1.439-.013-13.263.03-16.853a16.271,16.271,0,0,0,2.632,4.755c.557.809,1.133,1.645,1.63,2.468a5.625,5.625,0,0,0,5.2,2.629c3.233,0,6.879-1.574,9.37-2.895a9.11,9.11,0,0,1,4.328-1.166c2.954,0,5.5,1.673,7.963,3.291,1.218.8,3.154,1.206,5.755,1.206a39.6,39.6,0,0,0,12.455-2.27,10.385,10.385,0,0,1,3.492-.757,2.16,2.16,0,0,1,2.078.9,2.213,2.213,0,0,1-.556,2.252.852.852,0,0,0-.174.881c.763,1.793,8.793,2.729,16.559,3.635a22.734,22.734,0,0,0,2.595.167c5.453,0,5.707-2.734,5.93-5.147v-.007c.037-.393.071-.765.127-1.124.213-1.372,2.086-2.191,5.008-2.191a21.642,21.642,0,0,1,9.107,2.191,9.565,9.565,0,0,0,3.726,1.231,1.471,1.471,0,0,0,1.1-.4c.659-.665.648-2.12.635-3.963,0-.262,0-.557,0-.86,0-2.839,2.221-5.43,4.792-8.43a57.177,57.177,0,0,0,3.855-4.85c3.644-5.308,3.644-5.308,1.367-8.232-1.162-1.493-1.547-2.561-1.287-3.573.376-1.46,2.229-2.859,5.832-4.4,4.142-1.776,4.771-3.969,5.327-5.9a5.646,5.646,0,0,1,1.957-3.392c3.353-2.509,9.287-5.049,14.141-5.049,4.584,0,7.526-4.579,8.653-8.5.66-2.3,3.445-4.047,6.139-5.738,1.064-.668,2.069-1.3,2.958-1.965a4.625,4.625,0,0,0,1.141-1.181c.5,4.833,1.4,16.279-1.141,18.181-.885.664-1.888,1.294-2.95,1.96l0,0c-2.7,1.692-5.481,3.441-6.141,5.74a15.863,15.863,0,0,1-2.791,5.445,7.467,7.467,0,0,1-5.862,3.055c-4.854,0-10.788,2.54-14.141,5.049a5.645,5.645,0,0,0-1.957,3.391c-.555,1.936-1.185,4.129-5.327,5.9-3.6,1.544-5.455,2.943-5.832,4.4-.26,1.012.124,2.079,1.284,3.569,2.279,2.927,2.279,2.927-1.365,8.235a57.128,57.128,0,0,1-3.856,4.851c-2.572,3-4.792,5.591-4.792,8.43,0,.3,0,.6,0,.857.014,1.845.025,3.3-.635,3.965a1.471,1.471,0,0,1-1.1.4,9.564,9.564,0,0,1-3.725-1.231,21.644,21.644,0,0,0-9.108-2.191c-2.922,0-4.794.819-5.007,2.191-.055.358-.09.729-.126,1.121v.009c-.224,2.413-.478,5.148-5.931,5.148h0Zm-63.474-36.8h0c-.126-.724.3-1.441,1.246-2.682s1.272-2.065,1.135-2.854c-.18-1.034-1.2-2.087-3.409-3.522a48.486,48.486,0,0,1-4.611-3.711,50.988,50.988,0,0,0-5.5-4.371v-17a51.034,51.034,0,0,1,5.5,4.372,48.51,48.51,0,0,0,4.61,3.711c2.21,1.435,3.23,2.488,3.409,3.522.137.789-.192,1.616-1.135,2.854-1.778,2.334-1.862,2.886.91,5.315a18.813,18.813,0,0,0,1.77,1.35c.693.481,1.111.771,1.083,1.088-.032.36-.615.736-2.4,1.546-1.151.522-1.744,1.07-1.815,1.675-.123,1.047,1.327,2.173,3.007,3.477.5.39,1.022.794,1.537,1.224.555.463.785.909.685,1.326-.23.958-2.088,1.785-6.024,2.681Zm112.326-54.5c-.985,0-1.351-.643-1.351-2.371a4.68,4.68,0,0,1,2.673-4.449c1.781-1.006,4.469-1.679,7.8-2.455a37.957,37.957,0,0,0,17.758-8.767,6.247,6.247,0,0,0,2.173-2.924c.673,3.176,2.569,13.924-1.193,18.879a14.048,14.048,0,0,0-1.434-.284l-.689-.1a32.17,32.17,0,0,0-4.249-.464c-1.681,0-2.868.443-5.082,1.894a4.419,4.419,0,0,1-2.408.9,5.193,5.193,0,0,1-1.808-.443c-.163-.06-.31-.115-.469-.171a10.121,10.121,0,0,0-3.568-.613c-.414,0-.853.021-1.3.061a27.51,27.51,0,0,0-4.685.887A9.886,9.886,0,0,1-3116.532-656.749Z" transform="translate(3326 764)" stroke="rgba(0,0,0,0)" stroke-miterlimit="10" stroke-width="1" fill="url(#linear-gradient)"/>
      </g>
    </g>
  </g>
</svg>
