<svg xmlns="http://www.w3.org/2000/svg" xmlns:xlink="http://www.w3.org/1999/xlink" width="327" height="258" viewBox="0 0 327 258">
  <defs>
    <radialGradient id="radial-gradient" cx="0.5" cy="0.5" r="0.5" gradientUnits="objectBoundingBox">
      <stop offset="0" stop-color="#1fb9e6"/>
      <stop offset="1" stop-color="#0669d2"/>
    </radialGradient>
    <linearGradient id="linear-gradient" x1="0.5" x2="0.521" y2="1.216" gradientUnits="objectBoundingBox">
      <stop offset="0" stop-color="#191e64"/>
      <stop offset="1" stop-color="#17448b"/>
    </linearGradient>
    <filter id="wansheng1" x="60.565" y="29.687" width="205.466" height="215.987" filterUnits="userSpaceOnUse">
      <feOffset dy="8" input="SourceAlpha"/>
      <feGaussianBlur stdDeviation="9" result="blur"/>
      <feFlood flood-opacity="0.161"/>
      <feComposite operator="in" in2="blur"/>
      <feComposite in="SourceGraphic"/>
    </filter>
    <clipPath id="clip-wansheng">
      <rect width="327" height="258"/>
    </clipPath>
  </defs>
  <g id="wansheng" clip-path="url(#clip-wansheng)">
    <rect width="327" height="258" fill="rgba(0,0,0,0)"/>
    <g id="wansheng-2" data-name="wansheng" transform="translate(0.317 -8)">
      <g id="thick_wansheng" transform="translate(-369.204 -362.918)" opacity="0.67" fill="url(#radial-gradient)">
        <path d="M 503.5665283203125 563.1318359375 C 500.873291015625 561.8743896484375 498.6391906738281 560.5157470703125 496.9190368652344 559.0885620117188 C 494.3506774902344 556.9576416015625 493.0484008789063 554.7565307617188 493.0484008789063 552.54638671875 C 493.0484008789063 551.19580078125 492.7635498046875 547.8029174804688 492.1381530761719 543.5453491210938 C 491.5947265625 539.845703125 490.600830078125 534.1936645507813 488.9519348144531 528.27734375 C 487.2203674316406 522.0643310546875 485.1409912109375 516.8828125 482.7715454101563 512.8766479492188 C 479.8456726074219 507.9296264648438 476.4670104980469 504.7774047851563 472.7294311523438 503.5076293945313 C 468.5138244628906 502.0669555664063 464.5851135253906 500.3009643554688 461.6678466796875 498.5352478027344 C 458.6288146972656 496.6958312988281 457.7607727050781 495.5035095214844 457.7063598632813 495.072509765625 C 457.8668212890625 494.907958984375 458.5283508300781 494.551025390625 459.8011474609375 494.1787109375 C 466.7806396484375 492.1422424316406 479.2229919433594 485.3954772949219 490.7620239257813 477.3902893066406 C 496.8542785644531 473.1637878417969 511.0242309570313 462.72509765625 511.0242309570313 457.0903930664063 C 511.0242309570313 452.8113708496094 507.1527709960938 450.6103210449219 504.5909729003906 449.1538696289063 L 504.5777282714844 449.1463317871094 L 504.565185546875 449.1391906738281 C 503.2318115234375 448.3780212402344 502.3508911132813 447.8751525878906 502.1693115234375 447.1483459472656 C 502.0005187988281 446.4727783203125 502.376708984375 445.4551086425781 503.3890686035156 443.8486328125 C 504.8694458007813 441.587158203125 506.5189208984375 439.3816528320313 508.2915649414063 437.2936706542969 L 508.2943115234375 437.2904357910156 L 508.2969665527344 437.2871704101563 C 512.58837890625 432.0556945800781 516.65087890625 427.1028137207031 510.1186218261719 420.7212524414063 C 512.9556274414063 420.5201110839844 515.824462890625 420.4183044433594 518.6635131835938 420.4183044433594 C 520.485107421875 420.4183044433594 522.3311767578125 420.4602966308594 524.1505737304688 420.5430603027344 L 524.1567993164063 420.5433349609375 L 524.1630859375 420.5434875488281 L 526.0321044921875 420.5815734863281 C 528.8935546875 422.3952331542969 532.2530517578125 423.3530883789063 535.7576904296875 423.35302734375 C 535.9894409179688 423.35302734375 536.2242431640625 423.3486633300781 536.4556884765625 423.3400573730469 C 542.4263305664063 423.3401184082031 546.9815063476563 423.4196472167969 551.2330932617188 424.4427795410156 C 553.397705078125 424.9636535644531 555.4404907226563 425.7235107421875 557.4783935546875 426.7658081054688 C 559.6058349609375 427.8539123535156 561.80322265625 429.2860717773438 564.1962280273438 431.1441040039063 C 565.970458984375 432.5298461914063 567.6245727539063 433.7586975097656 568.9536743164063 434.74609375 C 573.6520385742188 438.2537536621094 576.0108032226563 440.0147399902344 576.225341796875 441.6517028808594 C 576.3358764648438 442.4949951171875 575.8922729492188 443.4572143554688 574.6942749023438 444.972900390625 C 571.4894409179688 449.0211486816406 570.3612670898438 451.7089233398438 570.922119140625 453.9598693847656 C 571.3129272460938 455.5283508300781 572.496337890625 456.8614807128906 574.7592163085938 458.2825012207031 C 576.8994140625 459.6264038085938 579.9833984375 461.0106506347656 583.2218017578125 462.4288024902344 C 583.9212646484375 462.7335205078125 584.5822143554688 463.0142211914063 585.2213745117188 463.28564453125 C 585.5357666015625 463.419189453125 585.843017578125 463.5496520996094 586.1435546875 463.67822265625 C 589.8548583984375 465.2489013671875 591.898193359375 466.1136474609375 593.078857421875 468.2638244628906 C 594.2138061523438 470.33056640625 594.6160278320313 473.6819152832031 594.6160278320313 481.0707702636719 C 594.6160278320313 488.6318054199219 596.5431518554688 496.539794921875 600.3438110351563 504.5751037597656 C 603.21142578125 510.6376037597656 606.1136474609375 514.52001953125 606.4351806640625 514.9427490234375 L 606.4375610351563 514.9459228515625 L 606.4400634765625 514.9490966796875 L 606.4607543945313 514.9754638671875 C 605.6817626953125 515.365234375 604.6270141601563 515.5488891601563 603.1983642578125 515.5488891601563 C 603.1981811523438 515.5488891601563 603.197998046875 515.5488891601563 603.1978149414063 515.5488891601563 C 601.3744506835938 515.5488891601563 599.1087036132813 515.2509765625 596.4851684570313 514.9060668945313 C 593.5218505859375 514.5165405273438 590.1631469726563 514.0750122070313 586.3668212890625 513.90576171875 C 584.64892578125 513.82861328125 583.1004638671875 513.7298583984375 581.6029663085938 513.63427734375 C 579.3142700195313 513.4882202148438 577.3377075195313 513.3621215820313 575.4769897460938 513.3621215820313 C 570.73486328125 513.3621215820313 566.7866821289063 514.147705078125 561.763427734375 518.0584106445313 C 560.1107177734375 519.344970703125 558.7129516601563 520.3251342773438 557.58984375 521.1127319335938 C 553.3406372070313 524.0924682617188 552.1986083984375 524.8933715820313 552.9102783203125 531.1611328125 C 553.0309448242188 532.2232666015625 553.2158203125 533.3735961914063 553.4115600585938 534.5914306640625 C 554.0960693359375 538.8501586914063 554.8718872070313 543.6770629882813 552.9996337890625 545.8742065429688 C 552.2847290039063 546.7131958007813 551.2208862304688 547.1210327148438 549.7471923828125 547.1210327148438 C 548.2476196289063 547.1210327148438 546.3248291015625 546.6821899414063 544.0321655273438 545.8168334960938 C 539.2131958007813 543.9940185546875 537.9785766601563 542.2919311523438 537.7915649414063 541.1851196289063 C 537.5958251953125 540.0267944335938 538.4695434570313 539.07568359375 539.03466796875 538.5946044921875 C 539.9420776367188 538.08740234375 540.2503051757813 537.8843383789063 540.1421508789063 537.4684448242188 C 540.0842895507813 537.2459106445313 539.8819580078125 537.0905151367188 539.6502075195313 537.0905151367188 C 539.3173217773438 537.0905151367188 538.6985473632813 537.57421875 538.4644775390625 537.7677612304688 C 538.2531127929688 537.8856201171875 538.0111083984375 538.012939453125 537.70947265625 538.171630859375 L 537.5565185546875 538.2521362304688 C 536.362060546875 538.8616333007813 534.6260375976563 539.6788330078125 532.6161499023438 540.625 C 527.7549438476563 542.9133911132813 521.0973510742188 546.0474243164063 515.4722900390625 549.345947265625 C 508.6533508300781 553.3446044921875 505.0146179199219 556.6072998046875 504.3485717773438 559.3199462890625 C 504.0247802734375 560.5706176757813 503.7623901367188 561.8499145507813 503.5665283203125 563.1318359375 Z" stroke="none"/>
        <path d="M 518.663330078125 420.9183349609375 C 516.1925659179688 420.9183349609375 513.6990966796875 420.9957275390625 511.2239379882813 421.14892578125 C 513.6181640625 423.7928466796875 514.4740600585938 426.4501953125 513.837646484375 429.2257690429688 C 513.1708374023438 432.1339721679688 510.9912109375 434.7910766601563 508.6835327148438 437.604248046875 L 508.67822265625 437.6107788085938 L 508.6727294921875 437.6171875 C 506.9139404296875 439.6889038085938 505.2776489257813 441.8766479492188 503.8091430664063 444.119873046875 C 502.9154052734375 445.5388793945313 502.5269165039063 446.5169677734375 502.6544189453125 447.0271606445313 C 502.7842407226563 447.5468139648438 503.63525390625 448.0325927734375 504.8131713867188 448.7049560546875 L 504.8248901367188 448.711669921875 L 504.8379516601563 448.7191162109375 C 507.3387451171875 450.140869140625 511.5242309570313 452.5204467773438 511.5242309570313 457.0903930664063 C 511.5242309570313 459.3911743164063 509.4844360351563 462.4668579101563 505.2883911132813 466.4932861328125 C 501.7741088867188 469.8654174804688 496.8495483398438 473.7756042480469 491.0469970703125 477.8010864257813 C 479.4679565429688 485.8340454101563 466.9674072265625 492.6086120605469 459.9415283203125 494.6585998535156 C 459.2039184570313 494.8743591308594 458.652587890625 495.0976257324219 458.3358764648438 495.259033203125 C 458.4640502929688 495.4497985839844 458.7120361328125 495.7498779296875 459.1884765625 496.1697082519531 C 459.9137573242188 496.8086853027344 460.9644165039063 497.5408020019531 462.2269287109375 498.2869873046875 C 465.0803833007813 499.9734497070313 468.8679809570313 501.6596069335938 472.8902587890625 503.0342102050781 C 476.744140625 504.343505859375 480.2135009765625 507.5693359375 483.2019653320313 512.6220703125 C 485.5936279296875 516.6658935546875 487.6903076171875 521.887939453125 489.43359375 528.14306640625 C 492.535400390625 539.2725830078125 493.5484008789063 550.0758666992188 493.5484008789063 552.54638671875 C 493.5484008789063 556.9119873046875 499.1244506835938 560.4197998046875 503.1795043945313 562.3929443359375 C 503.3627319335938 561.3187255859375 503.591552734375 560.24951171875 503.8630981445313 559.2000732421875 C 504.255859375 557.601318359375 505.5432739257813 555.8941650390625 507.798828125 553.981201171875 C 509.612060546875 552.443359375 512.1087036132813 550.73876953125 515.2193603515625 548.9146728515625 C 520.8638916015625 545.6046142578125 527.5333862304688 542.465087890625 532.4031372070313 540.172607421875 C 534.4078369140625 539.2289428710938 536.1395263671875 538.413818359375 537.3267822265625 537.8079833984375 L 537.4766845703125 537.7291259765625 C 537.7557373046875 537.5823364257813 537.983154296875 537.4627075195313 538.1798706054688 537.3538818359375 C 538.4757080078125 537.108642578125 539.13671875 536.5908203125 539.6498413085938 536.5905151367188 C 540.1093139648438 536.59033203125 540.5106811523438 536.8995361328125 540.6259765625 537.3423461914063 C 540.832275390625 538.1348876953125 540.2077026367188 538.51171875 539.3223876953125 539.006591796875 C 538.8395385742188 539.4259033203125 538.1336059570313 540.2083740234375 538.2845458984375 541.101806640625 C 538.4198608398438 541.9022827148438 539.3694458007813 543.5185546875 544.208740234375 545.3489990234375 C 546.4447631835938 546.1929931640625 548.3081665039063 546.6209716796875 549.7471923828125 546.6209716796875 C 551.0654907226563 546.6209716796875 552.0049438476563 546.2706298828125 552.6190185546875 545.5499267578125 C 553.35693359375 544.6840209960938 553.698974609375 543.23583984375 553.664794921875 541.12255859375 C 553.6324462890625 539.1162109375 553.2691650390625 536.8563232421875 552.9179077148438 534.6707763671875 C 552.7212524414063 533.4470825195313 552.5354614257813 532.291259765625 552.4134521484375 531.217529296875 C 551.6956176757813 524.895263671875 552.7443237304688 523.8999633789063 557.3027954101563 520.703369140625 C 558.4213256835938 519.9189453125 559.8134155273438 518.9427490234375 561.456298828125 517.663818359375 C 566.5922241210938 513.6654663085938 570.6287841796875 512.8621826171875 575.4769287109375 512.862060546875 C 577.3536376953125 512.862060546875 579.337646484375 512.9886474609375 581.6348876953125 513.13525390625 C 583.1300659179688 513.230712890625 584.6760864257813 513.329345703125 586.3890380859375 513.40625 C 590.206787109375 513.576416015625 593.57666015625 514.0194702148438 596.5498657226563 514.410400390625 C 599.1561889648438 514.7529907226563 601.4071044921875 515.0489501953125 603.1978149414063 515.0489501953125 C 604.221923828125 515.0489501953125 605.033935546875 514.9532470703125 605.67431640625 514.7529296875 C 604.744140625 513.4617919921875 602.3031005859375 509.8867492675781 599.891845703125 504.7888793945313 C 596.059326171875 496.6862487792969 594.1160278320313 488.7063293457031 594.1160278320313 481.0707702636719 C 594.1160278320313 473.776611328125 593.72998046875 470.4882202148438 592.640625 468.5045166015625 C 591.54345703125 466.5064697265625 589.556884765625 465.6657104492188 585.9468994140625 464.137939453125 C 585.6474609375 464.0098266601563 585.3413696289063 463.8798217773438 585.0281982421875 463.746826171875 C 584.3872680664063 463.474609375 583.7244873046875 463.1931762695313 583.021240234375 462.8867797851563 C 575.7904052734375 459.7202758789063 571.3140869140625 457.6008911132813 570.4369506835938 454.080810546875 C 569.8344116210938 451.6626586914063 570.990478515625 448.8458862304688 574.302001953125 444.6629028320313 C 575.406982421875 443.2648315429688 575.820556640625 442.4112548828125 575.7296142578125 441.7166748046875 C 575.54248046875 440.2891235351563 573.0955810546875 438.4623413085938 568.655517578125 435.1474609375 C 567.3252563476563 434.1592407226563 565.6697998046875 432.9293823242188 563.8895263671875 431.5390625 C 559.263427734375 427.9470825195313 555.443359375 425.9701538085938 551.1161499023438 424.9288330078125 C 546.9203491210938 423.919189453125 542.3963623046875 423.8402099609375 536.4652709960938 423.8400268554688 C 536.2304077148438 423.8486328125 535.9923706054688 423.8529663085938 535.7575073242188 423.8529663085938 C 532.2061767578125 423.8529663085938 528.7988891601563 422.8947143554688 525.8834228515625 421.0786743164063 L 524.1528930664063 421.0433959960938 L 524.140380859375 421.0430908203125 L 524.1278686523438 421.0425415039063 C 522.315673828125 420.9601440429688 520.4771728515625 420.9183349609375 518.663330078125 420.9183349609375 M 518.663330078125 419.9183349609375 C 520.5003662109375 419.9183349609375 522.337646484375 419.9600830078125 524.1732788085938 420.0435791015625 L 526.1829833984375 420.0845336914063 C 528.976318359375 421.8873901367188 532.3267822265625 422.85302734375 535.7575073242188 422.85302734375 C 535.9866943359375 422.85302734375 536.2167358398438 422.8486938476563 536.4464721679688 422.8400268554688 C 548.5277099609375 422.8400268554688 554.756103515625 423.1812133789063 564.5028686523438 430.7492065429688 C 566.2196655273438 432.0900268554688 567.807373046875 433.2716674804688 569.2518310546875 434.3447265625 C 576.9712524414063 440.1078491210938 578.35498046875 441.1477661132813 575.0865478515625 445.282958984375 C 567.7681274414063 454.5274047851563 571.2678833007813 456.6481323242188 583.42236328125 461.9707641601563 C 584.4644165039063 462.4247436523438 585.4327392578125 462.830322265625 586.3402099609375 463.218505859375 C 593.777587890625 466.3660888671875 595.1160278320313 466.9324340820313 595.1160278320313 481.0707702636719 C 595.1160278320313 499.0466003417969 606.3564453125 514.0132446289063 606.8331298828125 514.6400756835938 L 607.2036743164063 515.1113891601563 C 606.2386474609375 515.7998046875 604.892578125 516.0489501953125 603.19775390625 516.0489501953125 C 599.2931518554688 516.0489501953125 593.5394287109375 514.7259521484375 586.3445434570313 514.4052734375 C 581.9783935546875 514.209228515625 578.5241088867188 513.862060546875 575.4769897460938 513.862060546875 C 570.652099609375 513.8621826171875 566.8489990234375 514.73291015625 562.070556640625 518.4529418945313 C 554.2733764648438 524.522705078125 552.545166015625 523.5134887695313 553.4071044921875 531.104736328125 C 554.125732421875 537.4302978515625 557.260009765625 547.6209716796875 549.7471923828125 547.6209716796875 C 548.2444458007813 547.6209716796875 546.3148193359375 547.212890625 543.8555908203125 546.2846069335938 C 534.8789672851563 542.88916015625 537.1549072265625 539.5144653320313 538.7490234375 538.1814575195313 C 539.4786376953125 537.7742919921875 539.7066040039063 537.5904541015625 539.6502075195313 537.5905151367188 C 539.5894165039063 537.590576171875 539.1983642578125 537.8040771484375 538.7490234375 538.1814575195313 C 538.4868774414063 538.3289184570313 538.1814575195313 538.4880981445313 537.7875366210938 538.695556640625 C 530.848876953125 542.2371215820313 506.5655517578125 552.3543701171875 504.8331909179688 559.4429931640625 C 504.4554443359375 560.9017333984375 504.16650390625 562.378173828125 503.9662475585938 563.8650512695313 C 499.546142578125 561.8760986328125 492.5484008789063 557.915771484375 492.5484008789063 552.54638671875 C 492.5484008789063 547.584716796875 488.3333740234375 509.3369445800781 472.568603515625 503.9810485839844 C 463.398681640625 500.8472595214844 457.1006469726563 496.7319030761719 457.2049560546875 494.9853820800781 C 457.2344360351563 494.4751281738281 458.930908203125 493.9123229980469 459.6607666015625 493.6988220214844 C 474.0194702148438 489.50927734375 510.5242309570313 465.5062255859375 510.5242309570313 457.0903930664063 C 510.5242309570313 453.0951538085938 506.7947387695313 450.98193359375 504.3306274414063 449.5809936523438 C 501.668701171875 448.0614624023438 500.542236328125 447.4271240234375 502.9678344726563 443.5792236328125 C 504.46630859375 441.2896118164063 506.1166381835938 439.0829467773438 507.910400390625 436.9700317382813 C 512.402099609375 431.494384765625 516.2835083007813 426.7518920898438 508.9363403320313 420.309326171875 C 512.171630859375 420.0486450195313 515.4171142578125 419.9183349609375 518.663330078125 419.9183349609375 Z" stroke="none" fill="#30abec"/>
      </g>
      <text id="wansheng-3" data-name="wansheng" transform="translate(164 127)" fill="#fff" font-size="10" font-family="MicrosoftYaHei, Microsoft YaHei"><tspan x="-10" y="0">万盛</tspan><tspan x="-15" y="13">经开区</tspan></text>
      <g transform="matrix(1, 0, 0, 1, -0.32, 8)" filter="url(#wansheng1)">
        <path id="wansheng1-2" data-name="wansheng1" d="M-17.238-891.053h0a32.434,32.434,0,0,1-7.365-4.391c-2.688-2.23-4.051-4.561-4.051-6.927,0-4.962-4.219-43.211-19.98-48.566-9.183-3.138-15.468-7.26-15.364-9,.006-.1-.02-.847-.06-1.973-.156-4.391-.521-14.674.06-14.844l.01,0c.152.925,1.779,2.368,4.464,3.96a60.556,60.556,0,0,0,10.889,4.856c15.761,5.354,19.98,43.6,19.98,48.566,0,2.366,1.363,4.7,4.051,6.927a32.439,32.439,0,0,0,7.366,4.392,37.877,37.877,0,0,1,.868-4.422c.334-1.369,1.55-2.95,3.612-4.7a52.9,52.9,0,0,1,7.28-4.967c5.606-3.288,12.252-6.416,17.1-8.7,2.016-.949,3.756-1.768,4.957-2.381l.222-.117c.3-.157.53-.279.739-.4a3.475,3.475,0,0,0-1.45,3.086c.3,1.8,2.51,3.485,6.557,5.016a17.509,17.509,0,0,0,5.892,1.337,4.61,4.61,0,0,0,3.5-1.274c.032.5.084,1.078.161,1.757.119,1.05.3,2.194.5,3.4.7,4.368,1.5,9.317-.526,11.69a4.527,4.527,0,0,1-3.632,1.422,17.5,17.5,0,0,1-5.892-1.336c-4.047-1.531-6.253-3.218-6.557-5.016a3.482,3.482,0,0,1,1.45-3.088c-.215.121-.454.247-.756.406l-.206.109c-1.2.613-2.938,1.431-4.951,2.378l-.007,0c-4.854,2.285-11.5,5.413-17.1,8.7a52.9,52.9,0,0,0-7.28,4.966c-2.062,1.749-3.278,3.33-3.612,4.7a37.921,37.921,0,0,0-.867,4.421Zm35.684-26.275a3.275,3.275,0,0,0-.9.59,3.694,3.694,0,0,0,.909-.587S18.451-917.328,18.446-917.328Zm15.013-13.566v0a49.046,49.046,0,0,0-.757-6.51c-.195-1.213-.379-2.357-.5-3.407-.357-3.14-.253-4.689.4-5.921.675-1.279,1.954-2.176,4.073-3.663,1.127-.791,2.531-1.774,4.193-3.069a19.521,19.521,0,0,1,13.405-4.591c1.845,0,3.814.126,6.093.271,1.5.1,3.052.195,4.775.272,3.775.168,7.121.608,10.074,1a56.618,56.618,0,0,0,6.779.647,6.982,6.982,0,0,0,3.891-.858l.116.1c-.007.16-.665,15.96,0,16.818a6.773,6.773,0,0,1-4.007.938,56.607,56.607,0,0,1-6.777-.647c-2.955-.388-6.3-.828-10.076-1-1.725-.077-3.274-.176-4.773-.272h-.005c-2.279-.145-4.247-.271-6.09-.271a19.522,19.522,0,0,0-13.405,4.591c-1.662,1.294-3.066,2.278-4.193,3.069a22.9,22.9,0,0,0-3.213,2.5Zm-15.9-2.848v0a3.253,3.253,0,0,1,.893-.584s.007,0,.008,0A3.668,3.668,0,0,1,17.555-933.742Zm-34.8-71.806h0c-1.58-.908-2.538-1.522-2.329-2.658.123-.811.158-11.544.167-16.121.36.75,1.265,1.267,2.517,1.983l.013.007.012.007c2.462,1.4,6.182,3.513,6.182,7.5a7.626,7.626,0,0,1-1.776,4.069,37.9,37.9,0,0,1-4.785,5.211Zm72.743-7.544h0c-3.362-1.8-4.957-3.334-5.333-5.141-.428-2.059.683-4.572,3.715-8.4a7.276,7.276,0,0,0,1.594-2.811c0,.587-.109,14.4.006,15.911a3.806,3.806,0,0,1,.02.443Zm-68.385-22.356v0l.633-16.112.069.03c3.224,2.855,4.459,5.525,3.887,8.4-.5,2.532-2.375,4.976-4.587,7.68Z" transform="translate(152.32 1101)" stroke="rgba(0,0,0,0)" stroke-miterlimit="10" stroke-width="1" fill="url(#linear-gradient)"/>
      </g>
    </g>
  </g>
</svg>
