<svg xmlns="http://www.w3.org/2000/svg" xmlns:xlink="http://www.w3.org/1999/xlink" width="255.12" height="128.761" viewBox="0 0 255.12 128.761">
  <defs>
    <radialGradient id="radial-gradient" cx="0.483" cy="0.5" r="1.294" gradientTransform="translate(0.297 0.161) scale(0.386 0.677)" gradientUnits="objectBoundingBox">
      <stop offset="0" stop-color="#1fb9e6"/>
      <stop offset="1" stop-color="#0669d2"/>
    </radialGradient>
    <linearGradient id="linear-gradient" x1="0.305" y1="0.886" x2="0.674" y2="0.179" gradientUnits="objectBoundingBox">
      <stop offset="0" stop-color="#191e64"/>
      <stop offset="1" stop-color="#17448b"/>
    </linearGradient>
    <filter id="thick_2" x="0" y="1.191" width="95.037" height="87.962" filterUnits="userSpaceOnUse">
      <feOffset dy="8" input="SourceAlpha"/>
      <feGaussianBlur stdDeviation="9" result="blur"/>
      <feFlood flood-color="#0f093c" flood-opacity="0.161"/>
      <feComposite operator="in" in2="blur"/>
      <feComposite in="SourceGraphic"/>
    </filter>
    <linearGradient id="linear-gradient-2" x1="0.531" y1="1.03" x2="0.536" y2="0.228" xlink:href="#linear-gradient"/>
    <filter id="thick_1" x="28.699" y="31.46" width="226.421" height="97.3" filterUnits="userSpaceOnUse">
      <feOffset dy="8" input="SourceAlpha"/>
      <feGaussianBlur stdDeviation="9" result="blur-2"/>
      <feFlood flood-color="#0f093c" flood-opacity="0.161"/>
      <feComposite operator="in" in2="blur-2"/>
      <feComposite in="SourceGraphic"/>
    </filter>
  </defs>
  <g id="wanzhou" transform="translate(-27.329 -74.543)">
    <g id="Op_component_3" data-name="Op component 3" transform="translate(-629 -90)" opacity="0.67" fill="url(#radial-gradient)">
      <path d="M 756.687255859375 241.3041229248047 C 756.646240234375 241.3041229248047 756.6051025390625 241.3039093017578 756.5640869140625 241.3034820556641 C 755.3971557617188 241.2176971435547 753.7086791992188 241.0788269042969 751.9247436523438 240.8828430175781 C 753.1939697265625 238.6888732910156 754.0062255859375 235.7936706542969 751.3286743164063 232.1455535888672 C 749.7592163085938 230.0057678222656 747.0286254882813 228.3854217529297 744.387939453125 226.8184051513672 C 741.7332153320313 225.2436218261719 738.9881591796875 223.6152801513672 737.9185180664063 221.6210784912109 C 735.8116455078125 217.6938934326172 732.2171630859375 217.2397308349609 729.6967163085938 217.2397308349609 C 728.6829833984375 217.2397308349609 727.6854858398438 217.3225555419922 726.8054809570313 217.3956298828125 L 726.7958984375 217.3964233398438 C 725.6546630859375 217.489501953125 724.4622802734375 217.522705078125 723.1998901367188 217.5578765869141 L 723.1200561523438 217.5601043701172 L 721.2960205078125 217.6178436279297 C 720.1873168945313 217.6596832275391 719.2863159179688 217.6874694824219 718.4834594726563 217.6874694824219 C 718.4830932617188 217.6874694824219 718.4827880859375 217.6874694824219 718.4823608398438 217.6874694824219 C 715.264404296875 217.6873931884766 713.9580078125 217.206298828125 713.3051147460938 215.7807922363281 C 712.8159790039063 214.7117004394531 712.7589721679688 213.8090057373047 713.1309204101563 213.0212554931641 C 713.7330932617188 211.74609375 715.5095825195313 210.7092437744141 718.4111328125 209.9394683837891 C 719.0455322265625 209.7702484130859 719.5711669921875 209.6414794921875 720.1277465820313 209.505126953125 L 720.4281005859375 209.4314422607422 C 723.5062866210938 208.6809997558594 724.889892578125 208.0420684814453 724.27685546875 205.4358215332031 C 724.2020874023438 205.1104736328125 724.1224365234375 204.7524719238281 724.0499267578125 204.299072265625 C 723.7913208007813 202.6496276855469 722.7136840820313 201.5844268798828 720.7556762695313 201.0440673828125 C 719.1051025390625 200.5885467529297 716.9706420898438 200.5308990478516 714.7108764648438 200.4698791503906 L 714.6578369140625 200.4684295654297 C 712.0648193359375 200.396728515625 708.5136108398438 200.2985229492188 703.7454223632813 199.8047485351563 C 701.1441040039063 199.5331726074219 698.5621337890625 198.6436309814453 696.0718383789063 197.1608428955078 C 694.0625 195.9645233154297 692.1067504882813 194.381103515625 690.2587890625 192.4545745849609 C 687.0296020507813 189.0879516601563 685.2570190429688 185.8454284667969 685.239990234375 185.8136291503906 L 684.8829956054688 185.1323699951172 C 689.0191650390625 182.1495666503906 692.18212890625 180.5438537597656 694.7909545898438 180.0956726074219 C 695.0581665039063 180.0508117675781 695.321533203125 180.0043182373047 695.5900268554688 179.9546203613281 L 697.6390380859375 181.1559295654297 L 697.8885498046875 181.3022308349609 L 698.1397705078125 181.1588287353516 L 699.2320556640625 180.5353240966797 C 699.4950561523438 180.3865814208984 700.9273681640625 179.6396789550781 703.13720703125 179.6396789550781 C 704.6402587890625 179.6396789550781 706.1752319335938 179.9864807128906 707.6994018554688 180.6704711914063 C 709.181640625 181.3337707519531 710.7838134765625 181.669921875 712.4617309570313 181.6698303222656 C 715.4682006835938 181.6696472167969 718.066162109375 180.6267242431641 719.7852783203125 179.9365997314453 L 719.7984619140625 179.9313049316406 C 719.9002075195313 179.8902587890625 719.998779296875 179.8507995605469 720.093994140625 179.8130493164063 C 720.1067504882813 179.9140014648438 720.1165771484375 180.0150756835938 720.1234741210938 180.1159515380859 C 720.3821411132813 183.4604034423828 721.907958984375 185.8066558837891 724.7883911132813 187.2933044433594 C 727.0975341796875 188.4847564697266 730.06396484375 189.0396270751953 734.1240844726563 189.0395812988281 C 734.9517211914063 189.0395812988281 735.857666015625 189.016845703125 736.8937377929688 188.9700927734375 C 740.449462890625 188.8107452392578 747.9864501953125 186.936767578125 756.0949096679688 184.1958770751953 C 764.6610107421875 181.3002777099609 771.2268676757813 178.3473205566406 773.6585083007813 176.2967224121094 C 776.2908325195313 174.0785827636719 776.4868774414063 172.5908966064453 776.4962158203125 171.6480560302734 C 776.8333740234375 171.5540008544922 777.1767578125 171.4744567871094 777.521484375 171.41064453125 L 777.52880859375 171.4092712402344 L 777.5361328125 171.4076995849609 C 780.3673095703125 170.7955474853516 783.0433959960938 169.5841522216797 785.2750854492188 167.9044952392578 L 785.27880859375 167.9017028808594 L 785.282470703125 167.8988189697266 C 786.4557495117188 166.9810638427734 787.8007202148438 166.2906494140625 789.2798461914063 165.8466796875 C 790.22802734375 165.6002960205078 791.2667236328125 165.3741455078125 792.37646484375 165.1722869873047 C 792.284912109375 165.7019500732422 792.302734375 166.2445678710938 792.4317626953125 166.7744750976563 C 792.718505859375 168.0796661376953 793.8157958984375 169.1397247314453 795.2307739257813 169.4789276123047 C 795.8081665039063 169.6412658691406 796.3965454101563 169.7201995849609 797.0292358398438 169.7201995849609 C 798.6422119140625 169.7201690673828 800.2020874023438 169.2060241699219 801.8536376953125 168.6616668701172 C 802.6730346679688 168.3936462402344 803.6942138671875 168.0596313476563 804.7213745117188 167.8094024658203 L 806.1592407226563 167.4438781738281 L 806.3056640625 167.4062194824219 C 806.5040283203125 167.3551788330078 806.7432250976563 167.2936248779297 806.9873657226563 167.2327270507813 C 806.9874267578125 167.4237518310547 806.9766235351563 167.6147766113281 806.9550170898438 167.8044738769531 L 806.954345703125 167.8103179931641 L 806.9537963867188 167.8161926269531 C 806.5873413085938 171.8811492919922 807.4249877929688 172.7870941162109 811.1672973632813 174.8961791992188 L 811.2542724609375 174.9450225830078 C 811.6615600585938 175.1736755371094 812.1231689453125 175.4328308105469 812.6314086914063 175.7304534912109 C 813.424072265625 176.1965484619141 814.0469970703125 176.6118621826172 814.569091796875 176.9654388427734 C 815.7738647460938 177.9610595703125 817.3330688476563 178.5707702636719 818.9629516601563 178.6831207275391 L 818.9710083007813 178.6836700439453 L 818.9791259765625 178.6839752197266 C 819.065673828125 178.6871185302734 819.153076171875 178.688720703125 819.2388916015625 178.688720703125 C 821.2233276367188 178.6886291503906 822.9625244140625 177.8304748535156 825.2030029296875 176.6181488037109 L 825.5023193359375 176.4547576904297 L 825.4993896484375 176.8446960449219 L 825.4993286132813 176.8533782958984 C 825.489501953125 178.3436737060547 825.4817504882813 179.5208282470703 827.8363037109375 180.1210021972656 C 828.3359985351563 180.2458801269531 829.0904541015625 180.7474517822266 830.0810546875 181.6123504638672 C 831.184814453125 182.5827789306641 832.28173828125 183.6694793701172 833.4017944335938 184.7904968261719 C 836.6070556640625 187.9959716796875 839.9213256835938 191.3104553222656 844.7291870117188 192.6165924072266 C 846.8014526367188 193.1825561523438 847.4370727539063 195.0367736816406 848.1046142578125 197.0037231445313 C 848.4859619140625 198.5369873046875 849.2554931640625 200.0002593994141 850.3310546875 201.23681640625 L 850.3423461914063 201.2498016357422 L 850.3544921875 201.2619476318359 C 852.251708984375 203.1623229980469 859.009033203125 208.5870056152344 864.969482421875 208.5864715576172 C 865.2459106445313 208.5864715576172 865.5208740234375 208.5747985839844 865.7867431640625 208.5518493652344 C 866.7124633789063 208.4683532714844 867.9133911132813 208.2888946533203 869.184814453125 208.0988922119141 L 869.2322998046875 208.0918273925781 C 870.9638061523438 207.8337707519531 874.186767578125 207.3534240722656 876.2056884765625 207.3534240722656 C 876.9010009765625 207.3534240722656 877.2841796875 207.4098358154297 877.4942016601563 207.4677734375 C 877.6549682617188 208.0289764404297 877.8403930664063 208.5300445556641 878.0049438476563 208.9748992919922 L 878.0487670898438 209.0934448242188 L 878.0520629882813 209.1023712158203 C 878.2803344726563 209.7155914306641 878.4959106445313 210.2948303222656 878.437255859375 210.4490509033203 C 878.3809814453125 210.5968627929688 877.7504272460938 210.8539733886719 877.3212280273438 211.0277557373047 C 877.1067504882813 211.0948944091797 876.8971557617188 211.1787567138672 876.6980590820313 211.2771759033203 C 875.7061767578125 211.7669219970703 874.9730834960938 212.6175689697266 874.6871337890625 213.6109008789063 C 874.4192504882813 214.5412445068359 874.552734375 215.5155334472656 875.0628662109375 216.3571014404297 C 876.0518188476563 218.3547058105469 878.662109375 220.6316833496094 882.4315185546875 221.6080474853516 C 881.0379638671875 222.4775390625 879.7763671875 223.5023040771484 878.6693115234375 224.6652526855469 L 878.6505737304688 224.6849517822266 L 878.6340942382813 224.70654296875 C 877.1708374023438 226.6227264404297 872.1874389648438 231.1167297363281 868.4354858398438 232.7097778320313 C 867.9791870117188 232.9035034179688 867.5365600585938 233.0974731445313 867.1085205078125 233.2850799560547 C 864.8684692382813 234.2667999267578 862.933837890625 235.1146240234375 860.8721313476563 235.1146240234375 C 859.9324340820313 235.1146240234375 859.0084838867188 234.9411468505859 858.0475463867188 234.5842742919922 C 855.6572265625 233.6966705322266 854.4463500976563 233.27001953125 853.052001953125 233.27001953125 C 852.0018920898438 233.27001953125 850.9083862304688 233.5279541015625 849.4843139648438 233.9440765380859 C 848.40576171875 234.2592926025391 847.24365234375 234.4259033203125 846.12353515625 234.4259033203125 C 844.7523193359375 234.4259033203125 843.5717163085938 234.175048828125 842.709228515625 233.7004547119141 C 841.7774658203125 233.1876983642578 841.2549438476563 232.4290008544922 841.1561889648438 231.4454498291016 C 840.9424438476563 229.3187713623047 837.9092407226563 227.4893035888672 836.6151123046875 226.8014526367188 C 834.0911865234375 225.4599914550781 831.1746826171875 224.6266784667969 829.0036010742188 224.6266784667969 C 827.7211303710938 224.6266784667969 826.71435546875 224.9038543701172 826.0112915039063 225.4504699707031 C 825.2933349609375 226.0087432861328 824.987060546875 226.6752471923828 825.10107421875 227.4314422607422 C 825.1934204101563 228.0438232421875 825.5465087890625 228.6246795654297 825.887939453125 229.1864013671875 C 826.3466796875 229.9410552978516 826.7799682617188 230.6538543701172 826.5402221679688 231.3105773925781 C 826.23828125 232.1378784179688 824.9022827148438 232.9555053710938 822.5693359375 233.74072265625 C 818.9805908203125 234.9486541748047 816.4569702148438 236.3634185791016 814.42919921875 237.5001983642578 C 812.394287109375 238.6409759521484 810.9240112304688 239.4651947021484 809.4644165039063 239.4651947021484 C 808.620361328125 239.4651947021484 807.792724609375 239.1920166015625 806.8598022460938 238.6054992675781 C 803.0518798828125 236.2113494873047 797.2516479492188 235.952880859375 794.9346923828125 235.952880859375 C 792.9067993164063 235.952880859375 790.9722900390625 236.1333770751953 789.6265869140625 236.4480895996094 C 789.3736572265625 236.5043334960938 789.1143798828125 236.5389556884766 788.853271484375 236.5514221191406 L 788.0379638671875 235.9400024414063 C 787.9820556640625 235.89794921875 787.7029418945313 235.6156311035156 787.739501953125 234.2102966308594 C 787.7642822265625 233.2584533691406 787.9234619140625 232.1479949951172 788.0396728515625 231.3371734619141 L 788.0421142578125 231.3200225830078 C 788.2777099609375 229.7068176269531 788.5003662109375 228.1818237304688 788.2478637695313 226.9011535644531 C 787.94970703125 225.3891296386719 787.021484375 224.4253234863281 785.4100341796875 223.9546508789063 L 785.3992919921875 223.9514923095703 L 785.3883666992188 223.9488525390625 C 784.7617797851563 223.7960205078125 784.114990234375 223.7185516357422 783.4659423828125 223.7185516357422 C 782.4995727539063 223.7185516357422 781.556640625 223.8866577148438 780.6630249023438 224.21826171875 C 777.9194946289063 225.0835571289063 774.1295166015625 227.2670440673828 770.7676391601563 229.9194946289063 C 769.0571899414063 231.2689971923828 765.0274658203125 234.6923675537109 764.4639892578125 237.3935241699219 C 764.0706176757813 238.6672668457031 763.05908203125 239.6938934326172 761.6854858398438 240.2122955322266 L 761.6687622070313 240.2186279296875 L 761.6524658203125 240.2261199951172 C 760.1243896484375 240.9313507080078 758.407470703125 241.3041229248047 756.687255859375 241.3041229248047 Z" stroke="none"/>
      <path d="M 791.8193359375 165.7861633300781 C 790.966796875 165.9528961181641 790.161865234375 166.1343078613281 789.414306640625 166.3283386230469 C 787.9985961914063 166.7544403076172 786.7122192382813 167.4152526855469 785.5905151367188 168.2926635742188 L 785.583251953125 168.2984008789063 L 785.5758056640625 168.3040008544922 C 783.2866821289063 170.0268402099609 780.5431518554688 171.2690734863281 777.641845703125 171.8964233398438 L 777.627197265625 171.8995819091797 L 777.6124877929688 171.9022827148438 C 777.4006958007813 171.9414825439453 777.189453125 171.9868927001953 776.9799194335938 172.0382080078125 C 776.899169921875 173.0541076660156 776.4430541992188 174.6041259765625 773.9808349609375 176.6789703369141 C 771.5038452148438 178.767822265625 764.8773803710938 181.7549438476563 756.2550048828125 184.6695556640625 C 748.1058349609375 187.4241790771484 740.5148315429688 189.3083190917969 736.9163208007813 189.4695739746094 C 735.8726196289063 189.5166778564453 734.9592895507813 189.5395812988281 734.1241455078125 189.5395812988281 C 729.9811401367188 189.5395812988281 726.9417724609375 188.9670257568359 724.55908203125 187.7376251220703 C 721.6608276367188 186.2417907714844 720.0137329101563 183.8167572021484 719.6591796875 180.5257263183594 C 717.9871826171875 181.1926422119141 715.3764038085938 182.1698455810547 712.4617309570313 182.1698455810547 C 710.7127685546875 182.1698455810547 709.0419311523438 181.8190002441406 707.4946899414063 181.1266326904297 C 706.0353393554688 180.4717407226563 704.5692749023438 180.1396789550781 703.1372680664063 180.1396789550781 C 701.0084228515625 180.1396789550781 699.6270751953125 180.8863372802734 699.4799194335938 180.9695739746094 L 698.3876342773438 181.5930786132813 L 697.8851928710938 181.8798675537109 L 697.3861694335938 181.5872955322266 L 695.497314453125 180.4799194335938 C 695.2890014648438 180.5176849365234 695.0830078125 180.5536346435547 694.8756103515625 180.5884399414063 C 692.453369140625 181.0045776367188 689.38720703125 182.5442962646484 685.5280151367188 185.2860260009766 L 685.6812133789063 185.5784301757813 C 685.7255859375 185.6600036621094 687.4531860351563 188.8149719238281 690.646484375 192.1364135742188 C 692.4612426757813 194.0239410400391 694.3789672851563 195.5736236572266 696.346435546875 196.7424468994141 C 698.7681884765625 198.1811370849609 701.275146484375 199.0441589355469 703.7969360351563 199.3074188232422 C 708.5469360351563 199.7992858886719 712.0874633789063 199.8971557617188 714.6726684570313 199.9686279296875 L 714.724365234375 199.9700469970703 C 719.4513549804688 200.0977020263672 723.9161987304688 200.2183074951172 724.543701171875 204.2201843261719 C 724.61328125 204.655517578125 724.6904907226563 205.0032501220703 724.763671875 205.3219757080078 C 724.9935302734375 206.2996063232422 725.1235961914063 207.5429992675781 724.08203125 208.4892425537109 C 723.3697509765625 209.1362915039063 722.2459716796875 209.5028991699219 720.5474243164063 209.9170227050781 L 720.2501220703125 209.9899139404297 C 719.695068359375 210.1259002685547 719.1707763671875 210.2543334960938 718.539306640625 210.4227600097656 C 715.8256225585938 211.1427154541016 714.11181640625 212.1150817871094 713.5830688476563 213.2347564697266 C 713.27783203125 213.8810729980469 713.335693359375 214.6458892822266 713.7597045898438 215.5726013183594 C 714.0481567382813 216.2024536132813 714.4684448242188 216.5755310058594 715.1651000976563 216.8200988769531 C 715.8887939453125 217.0741882324219 716.911865234375 217.1874694824219 718.4823608398438 217.1874694824219 C 719.2786254882813 217.1874694824219 720.1742553710938 217.1598205566406 721.2741088867188 217.1183166503906 L 721.2771606445313 217.1182098388672 L 721.2801513671875 217.1181030273438 L 723.1060791015625 217.0602874755859 L 723.18701171875 217.0580291748047 C 724.4421997070313 217.0230560302734 725.627685546875 216.9900207519531 726.7545166015625 216.8981323242188 L 726.7640991210938 216.8973388671875 C 727.6538696289063 216.8234710693359 728.6622924804688 216.7397613525391 729.6967163085938 216.7397308349609 C 732.3455810546875 216.7397155761719 736.12548828125 217.2211761474609 738.359130859375 221.3847351074219 C 739.3629760742188 223.2562866210938 742.0471801757813 224.8485260009766 744.6431274414063 226.3884124755859 C 747.326904296875 227.9810028076172 750.10205078125 229.6278076171875 751.7317504882813 231.8497161865234 C 754.316162109375 235.3708953857422 753.779541015625 238.3023376464844 752.7145385742188 240.4640502929688 C 754.2064819335938 240.6177368164063 755.5855102539063 240.7301025390625 756.5850830078125 240.8036651611328 C 756.619140625 240.803955078125 756.6532592773438 240.8041076660156 756.687255859375 240.8041076660156 C 758.335693359375 240.8041076660156 759.9801635742188 240.447265625 761.4429321289063 239.7721252441406 L 761.4754028320313 239.7571563720703 L 761.5089111328125 239.7445220947266 C 762.729248046875 239.2839508056641 763.6276245117188 238.3822937011719 763.9797973632813 237.2668151855469 C 764.572509765625 234.5133666992188 768.2869873046875 231.2397918701172 770.4579467773438 229.5269470214844 C 773.8592529296875 226.8433837890625 777.7041625976563 224.6300811767578 780.5006713867188 223.7451934814453 C 781.4467163085938 223.3957214355469 782.4442138671875 223.2185516357422 783.4658813476563 223.2185516357422 C 784.1547241210938 223.2185211181641 784.8414306640625 223.30078125 785.5068359375 223.4630737304688 L 785.5286865234375 223.4683990478516 L 785.55029296875 223.4747161865234 C 787.3328247070313 223.9953460693359 788.4054565429688 225.1156311035156 788.7384033203125 226.8044128417969 C 789.007568359375 228.1692352294922 788.77880859375 229.7354431152344 788.5370483398438 231.3909759521484 L 788.5346069335938 231.4082336425781 C 788.424560546875 232.1759185791016 788.28759765625 233.1312866210938 788.2474365234375 234.0014190673828 C 788.1957397460938 235.1201171875 788.3375854492188 235.4888916015625 788.37841796875 235.5703277587891 L 789.0045166015625 236.0398864746094 C 789.1768188476563 236.0242462158203 789.34765625 235.9977722167969 789.5152587890625 235.9606323242188 C 790.8963012695313 235.6379699707031 792.87109375 235.4529266357422 794.9346313476563 235.4528656005859 C 797.2948608398438 235.4528198242188 803.2075805664063 235.7186279296875 807.1259765625 238.1822052001953 C 807.9756469726563 238.7164001464844 808.7186889648438 238.9652099609375 809.4644775390625 238.9652099609375 C 810.7933959960938 238.9652099609375 812.2158813476563 238.1677551269531 814.1846923828125 237.0640716552734 C 816.2305908203125 235.9170989990234 818.77685546875 234.4896850585938 822.4098510742188 233.266845703125 C 825.270751953125 232.3039245605469 825.931396484375 231.5204772949219 826.070556640625 231.13916015625 C 826.2169189453125 230.7381896972656 825.924072265625 230.2084655761719 825.460693359375 229.4461059570313 C 824.8121337890625 228.3792114257813 823.7266845703125 226.5935211181641 825.7044067382813 225.0557403564453 C 826.4971923828125 224.4393463134766 827.607177734375 224.1267547607422 829.0035400390625 224.1266784667969 C 831.2514038085938 224.1265563964844 834.2579345703125 224.9822387695313 836.8497314453125 226.3598480224609 C 838.54541015625 227.2611236572266 841.4243774414063 229.1137847900391 841.6536865234375 231.3954925537109 C 841.8829956054688 233.6793365478516 844.85595703125 233.9259185791016 846.1234741210938 233.9259185791016 C 847.1814575195313 233.9259185791016 848.3251953125 233.7619171142578 849.3440551757813 233.4641265869141 C 850.810302734375 233.0356903076172 851.9419555664063 232.7701263427734 853.0518798828125 232.77001953125 C 854.5289306640625 232.7699432373047 855.84033203125 233.2313385009766 858.2216186523438 234.1155548095703 C 859.1259155273438 234.4513702392578 859.992919921875 234.6146240234375 860.8721313476563 234.6146240234375 C 862.8291625976563 234.6146240234375 864.7192993164063 233.7862396240234 866.907958984375 232.8270568847656 C 867.3372802734375 232.638916015625 867.7811889648438 232.4443664550781 868.2401123046875 232.2495269775391 C 871.91650390625 230.6885528564453 876.8017578125 226.2822113037109 878.2366943359375 224.4031066894531 L 878.2697143554688 224.3598937988281 L 878.3071899414063 224.3205261230469 C 879.1991577148438 223.3834991455078 880.1886596679688 222.5339965820313 881.2644653320313 221.7806091308594 C 877.9116821289063 220.6439514160156 875.5762939453125 218.5036468505859 874.6241455078125 216.5978393554688 C 874.0499877929688 215.6397705078125 873.901611328125 214.5319061279297 874.2066650390625 213.4725189208984 C 874.531494140625 212.3443450927734 875.3590087890625 211.3807067871094 876.4765014648438 210.8289489746094 C 876.6926879882813 210.7220764160156 876.9197387695313 210.630615234375 877.1521606445313 210.5567779541016 C 877.375244140625 210.4664001464844 877.7139892578125 210.3279571533203 877.9136962890625 210.2237701416016 C 877.8533935546875 210.0019989013672 877.7167358398438 209.6347808837891 877.58349609375 209.2768096923828 L 877.5797119140625 209.2666320800781 L 877.5360717773438 209.1486053466797 C 877.3972778320313 208.7735137939453 877.2440795898438 208.3592987060547 877.1016235351563 207.9005584716797 C 876.9127807617188 207.8752899169922 876.62744140625 207.8534240722656 876.2056884765625 207.8534240722656 C 874.2240600585938 207.8534240722656 871.0252075195313 208.3301544189453 869.3067016601563 208.5862579345703 L 869.2586669921875 208.5934143066406 C 867.9795532226563 208.7845458984375 866.7713623046875 208.9650726318359 865.8297729492188 209.0499725341797 C 865.5494995117188 209.0741882324219 865.260009765625 209.0864715576172 864.9694213867188 209.0864715576172 C 858.8086547851563 209.0864715576172 852.0752563476563 203.6933135986328 850.0006103515625 201.615234375 L 849.976318359375 201.5909271240234 L 849.9537963867188 201.5649719238281 C 848.8314819335938 200.2746734619141 848.0267333984375 198.7473754882813 847.6246337890625 197.1453857421875 C 846.8735961914063 194.9359741210938 846.287841796875 193.5605621337891 844.59814453125 193.0991363525391 C 839.6618041992188 191.7580718994141 836.2997436523438 188.3957824707031 833.0480346679688 185.1438903808594 C 831.9341430664063 184.0290222167969 830.8436889648438 182.9486236572266 829.752197265625 181.9889678955078 C 828.8480834960938 181.1995544433594 828.1254272460938 180.7086639404297 827.7127685546875 180.6055297851563 C 825.248779296875 179.9774322509766 825.0140991210938 178.6521453857422 824.9990234375 177.2956237792969 C 822.9013671875 178.4163055419922 821.2045288085938 179.1887054443359 819.2388916015625 179.1887054443359 C 819.1472778320313 179.1887054443359 819.0537719726563 179.1869964599609 818.9609985351563 179.1836242675781 L 818.9447631835938 179.1830444335938 L 818.9285278320313 179.1819152832031 C 817.2037963867188 179.0630340576172 815.5514526367188 178.4188079833984 814.2694091796875 177.3663635253906 C 813.7577514648438 177.0199737548828 813.1484375 176.6145172119141 812.3787231445313 176.1619262695313 C 811.8733520507813 175.865966796875 811.4130859375 175.6075744628906 811.0069580078125 175.3795776367188 L 810.9218139648438 175.331787109375 C 808.8738403320313 174.1775817871094 807.779296875 173.4388885498047 807.0982666015625 172.3626861572266 C 806.3436889648438 171.1702880859375 806.2837524414063 169.7613983154297 806.4456176757813 167.8865203857422 C 806.4400024414063 167.8879699707031 806.4343872070313 167.889404296875 806.4288330078125 167.8908386230469 L 806.2824096679688 167.9284973144531 L 804.8494262695313 168.2927856445313 L 804.8446044921875 168.2940063476563 L 804.8397216796875 168.2951812744141 C 803.83154296875 168.5408172607422 802.8204345703125 168.8715209960938 802.0101318359375 169.1365203857422 C 800.393798828125 169.6692810058594 798.722412109375 170.22021484375 797.0292358398438 170.22021484375 C 796.353515625 170.22021484375 795.7236328125 170.1360015869141 795.1045532226563 169.9628295898438 C 793.5110473632813 169.5771331787109 792.2732543945313 168.3726654052734 791.9445190429688 166.886962890625 C 791.8564453125 166.5230560302734 791.8148803710938 166.1539764404297 791.8193359375 165.7861633300781 M 793.0728759765625 164.5433959960938 C 792.79931640625 165.2222137451172 792.74609375 165.9566802978516 792.9188842773438 166.6616058349609 C 793.1651000976563 167.7937164306641 794.1119995117188 168.6999969482422 795.3565063476563 168.9948883056641 C 795.9149169921875 169.1528930664063 796.471435546875 169.2201995849609 797.0292358398438 169.2201995849609 C 798.55615234375 169.2201995849609 800.092041015625 168.7158355712891 801.6970825195313 168.1867828369141 C 802.5748291015625 167.8997039794922 803.5723266601563 167.57470703125 804.60302734375 167.3236083984375 L 806.0360107421875 166.9593200683594 C 806.4111938476563 166.8629913330078 806.974609375 166.7162170410156 807.4517822265625 166.6063995361328 C 807.4993286132813 167.0234985351563 807.4993286132813 167.4440002441406 807.4517822265625 167.8610992431641 C 807.107177734375 171.6836090087891 807.7866821289063 172.4169921875 811.4127807617188 174.4606018066406 C 811.8497924804688 174.7059936523438 812.3361206054688 174.9781036376953 812.8840942382813 175.2989959716797 C 813.7055053710938 175.7819976806641 814.3403930664063 176.2064971923828 814.86962890625 176.5651092529297 C 816.0015869140625 177.5074005126953 817.4567260742188 178.0781097412109 818.997314453125 178.1842956542969 C 819.0784301757813 178.1872406005859 819.1587524414063 178.1887054443359 819.2388916015625 178.1887054443359 C 821.0731201171875 178.1887054443359 822.6705932617188 177.4199523925781 824.9650268554688 176.1783905029297 L 826.0056762695313 175.6103210449219 L 826.0056762695313 175.9963073730469 L 825.9993896484375 176.848388671875 C 825.9896850585938 178.3182830810547 825.9805908203125 179.1320037841797 827.9597778320313 179.6365051269531 C 828.1782836914063 179.6911010742188 828.8339233398438 179.8596801757813 830.409912109375 181.2357025146484 C 831.551513671875 182.2393951416016 832.6757202148438 183.3563995361328 833.7554931640625 184.4371032714844 C 836.9133911132813 187.59521484375 840.1821899414063 190.8632049560547 844.8602905273438 192.1341094970703 C 847.1934814453125 192.7712860107422 847.9017944335938 194.85009765625 848.5848999023438 196.8632049560547 C 848.9478149414063 198.3365020751953 849.6732788085938 199.7187042236328 850.7083129882813 200.9087066650391 C 852.6338500976563 202.8374328613281 859.2041625976563 208.0864715576172 864.9694213867188 208.0864715576172 C 865.2290649414063 208.0864715576172 865.4878540039063 208.0757751464844 865.7437133789063 208.0536804199219 C 866.6240234375 207.9743194580078 867.7631225585938 207.8057861328125 869.1109008789063 207.6044006347656 C 870.8923950195313 207.3389129638672 874.1312866210938 206.8534088134766 876.2056884765625 206.8534088134766 C 876.8839111328125 206.8534088134766 877.4380493164063 206.9053649902344 877.7755126953125 207.0338897705078 C 877.8408203125 207.0588073730469 877.9052734375 207.0836791992188 877.9481201171875 207.2353210449219 C 878.1235961914063 207.8668212890625 878.3306274414063 208.4131774902344 878.517822265625 208.9203186035156 C 879.1912841796875 210.7295989990234 879.2197875976563 210.7985992431641 877.4896240234375 211.4989929199219 C 877.2927856445313 211.5594940185547 877.1019287109375 211.6352844238281 876.919677734375 211.7253875732422 C 875.1748046875 212.5868988037109 874.539794921875 214.5525970458984 875.5014038085938 216.1158905029297 C 876.6093139648438 218.3777160644531 879.7150268554688 220.7077026367188 883.8060302734375 221.3889007568359 C 882.0062255859375 222.3562164306641 880.3934936523438 223.5791778564453 879.031494140625 225.0099945068359 C 877.593505859375 226.8930969238281 872.572998046875 231.4962158203125 868.6309204101563 233.1699981689453 C 865.7517700195313 234.3923950195313 863.44384765625 235.6146240234375 860.8721313476563 235.6146240234375 C 859.922607421875 235.6146240234375 858.936767578125 235.4478759765625 857.8734741210938 235.0529937744141 C 855.5714111328125 234.1982116699219 854.368408203125 233.7699432373047 853.0519409179688 233.7700347900391 C 852.1134033203125 233.7700958251953 851.1170043945313 233.9878692626953 849.6245727539063 234.4239959716797 C 848.533203125 234.7429656982422 847.3091430664063 234.9259185791016 846.1234741210938 234.9259185791016 C 843.4138793945313 234.9259185791016 840.9071044921875 233.9696502685547 840.65869140625 231.4953918457031 C 840.3724365234375 228.6471862792969 833.4212646484375 225.1264190673828 829.0036010742188 225.1266784667969 C 827.9046020507813 225.1267395019531 826.9619140625 225.3447265625 826.3181762695313 225.84521484375 C 823.0872192382813 228.3574981689453 832.0496826171875 231.077392578125 822.7288208007813 234.214599609375 C 815.50048828125 236.6476135253906 812.5845336914063 239.9651947021484 809.4644775390625 239.9651947021484 C 808.561279296875 239.9651947021484 807.6405029296875 239.6869506835938 806.5936889648438 239.0287933349609 C 803.5551147460938 237.1183319091797 798.8417358398438 236.4527587890625 794.9346313476563 236.4528656005859 C 792.845703125 236.4529113769531 790.986572265625 236.6432647705078 789.7385864257813 236.9353942871094 C 789.38720703125 237.0137939453125 789.026123046875 237.0543975830078 788.6640014648438 237.0566101074219 L 788.6828002929688 237.0485992431641 L 787.7379760742188 236.3399963378906 C 786.9041748046875 235.7133941650391 787.3073120117188 232.9228210449219 787.5471801757813 231.2490997314453 C 788.009521484375 228.0829925537109 788.404296875 225.35009765625 785.2698974609375 224.4346008300781 C 784.6779174804688 224.2902374267578 784.0714111328125 224.2185211181641 783.4659423828125 224.2185363769531 C 782.5654296875 224.2185668945313 781.6675415039063 224.3772277832031 780.8251953125 224.6913909912109 C 775.2200927734375 226.4532928466797 765.7280883789063 233.6426086425781 764.9490966796875 237.5171051025391 C 764.5180053710938 238.9407958984375 763.3795166015625 240.1073913574219 761.8619995117188 240.6800994873047 C 760.260986328125 241.4190368652344 758.4868774414063 241.8041076660156 756.687255859375 241.8041076660156 C 756.6393432617188 241.8041076660156 756.5912475585938 241.8038330078125 756.5432739257813 241.8032836914063 C 755.3400268554688 241.7149963378906 753.2352294921875 241.5440979003906 751.0861206054688 241.2906036376953 C 752.7050170898438 238.8065032958984 753.5325927734375 235.9933929443359 750.9255981445313 232.4413909912109 C 749.4166259765625 230.3841094970703 746.7399291992188 228.7955017089844 744.1328125 227.2483978271484 C 741.4185180664063 225.6383209228516 738.6110229492188 223.9700012207031 737.4779052734375 221.8573913574219 C 735.6289672851563 218.4110412597656 732.564697265625 217.7397003173828 729.6967163085938 217.73974609375 C 728.7001953125 217.73974609375 727.7271118164063 217.8208312988281 726.8372802734375 217.8947143554688 C 725.6577758789063 217.9908905029297 724.4326171875 218.023681640625 723.1339721679688 218.0598907470703 L 721.3118286132813 218.1175994873047 C 720.2652587890625 218.1570892333984 719.324951171875 218.1874847412109 718.4823608398438 218.1874847412109 C 715.437255859375 218.1874847412109 713.6754150390625 217.7901153564453 712.8505249023438 215.9889984130859 C 711.4525146484375 212.9336090087891 713.2319946289063 210.7962036132813 718.2828979492188 209.4562072753906 C 719.0379028320313 209.2548217773438 719.6558227539063 209.1063995361328 720.3087158203125 208.9459228515625 C 723.4420776367188 208.1819915771484 724.2839965820313 207.6501007080078 723.7901000976563 205.55029296875 C 723.7191162109375 205.2413940429688 723.6331787109375 204.8594970703125 723.5562133789063 204.3780059814453 C 723.0573120117188 201.1959991455078 719.1851806640625 201.0908966064453 714.6973876953125 200.9696807861328 C 712.090576171875 200.8975982666016 708.513671875 200.8011779785156 703.6939086914063 200.3021087646484 C 691.9354248046875 199.0744934082031 684.8660888671875 186.1775054931641 684.7979736328125 186.0472869873047 L 684.3455810546875 185.1840057373047 L 683.843994140625 185.2722930908203 C 687.4945068359375 182.5716094970703 691.36669921875 180.1766052246094 694.706298828125 179.6028900146484 C 695.0689086914063 179.5419921875 695.3895263671875 179.4839935302734 695.6817016601563 179.4288177490234 L 697.8919067382813 180.724609375 L 698.9841918945313 180.1011047363281 C 699.2353515625 179.9590301513672 700.7713623046875 179.1396636962891 703.1372680664063 179.1396636962891 C 704.4849853515625 179.1396636962891 706.1022338867188 179.4056854248047 707.9041137695313 180.2142944335938 C 709.45947265625 180.9103088378906 711.0026245117188 181.1698303222656 712.4617309570313 181.1698303222656 C 715.3793334960938 181.1698303222656 717.9585571289063 180.1311187744141 719.6121826171875 179.46728515625 C 719.830810546875 179.3791046142578 720.1567993164063 179.2490997314453 720.4771118164063 179.1278991699219 C 720.5518188476563 179.4423217773438 720.6004028320313 179.7611083984375 720.622314453125 180.0818939208984 C 720.8660888671875 183.2335968017578 722.3034057617188 185.4481048583984 725.0177001953125 186.8489990234375 C 727.6416625976563 188.202880859375 730.931884765625 188.5395812988281 734.1241455078125 188.5395812988281 C 735.0543212890625 188.5395812988281 735.9766235351563 188.5109710693359 736.8712158203125 188.4706115722656 C 744.3203125 188.1367950439453 768.103271484375 180.327392578125 773.336181640625 175.9145050048828 C 776.0147094726563 173.6573944091797 776.0020141601563 172.2597045898438 775.9959106445313 171.4212951660156 C 775.9959106445313 171.352294921875 775.9904174804688 171.2912139892578 775.9437255859375 171.2912139892578 C 776.4293212890625 171.1367034912109 776.9259033203125 171.0123901367188 777.4304809570313 170.9190063476563 C 780.2058715820313 170.3188934326172 782.7883911132813 169.1502838134766 784.9744262695313 167.5050048828125 C 786.1932983398438 166.5516052246094 787.610595703125 165.8244934082031 789.14501953125 165.3650970458984 C 790.4901733398438 165.0151824951172 791.8513793945313 164.7471771240234 793.0728759765625 164.5433959960938 Z" stroke="none" fill="#30abec"/>
    </g>
    <g transform="matrix(1, 0, 0, 1, 27.33, 74.54)" filter="url(#thick_2)">
      <path id="thick_2-2" data-name="thick_2" d="M-38.835,51.653h0a10.457,10.457,0,0,1-1.114-.063l.416-.015,1.823-.058.127,0,.235-.007A7.173,7.173,0,0,1-38.835,51.653Zm-8.524-1.262h0c-2.565-.077-5.735-.213-9.789-.633a19.3,19.3,0,0,1-7.9-2.727,28.522,28.522,0,0,1-5.928-4.812A35.474,35.474,0,0,1-76.046,35.5l-.452-.863-.5.088c0-.006,0-.114.04-1.578.1-3.932.349-14.377.462-14.46h.005l.022,0,.425.811c.068.13,7.139,13.028,18.9,14.255,4.787.5,8.349.594,10.95.665h.053c4.486.121,8.36.226,8.859,3.408.077.479.161.856.234,1.173.492,2.092-.345,2.631-3.481,3.4l-.254.062c-.574.14-1.116.273-1.772.448-3.093.821-4.926,1.917-5.6,3.352a3.676,3.676,0,0,0,.171,3.181,3.308,3.308,0,0,0,.633.944Z" transform="translate(104.52 2)" stroke="rgba(0,0,0,0)" stroke-width="1" fill="url(#linear-gradient)"/>
    </g>
    <text id="wanzhouqu" transform="translate(158.579 117.746)" fill="#fff" font-size="10" font-family="MicrosoftYaHei, Microsoft YaHei"><tspan x="-15" y="0">万州区</tspan></text>
    <g transform="matrix(1, 0, 0, 1, 27.33, 74.54)" filter="url(#thick_1)">
      <path id="thick_1-2" data-name="thick_1" d="M-4.159,91.261H-4.3c-1.1-.08-3.261-.254-5.457-.513,1.387-2.128,2.623-5.056-.16-8.849-1.51-2.058-4.2-3.652-6.793-5.193-2.713-1.609-5.519-3.274-6.655-5.391-1.981-3.691-5.389-4.118-7.781-4.118-.994,0-1.981.082-2.852.155h-.008c-1.152.094-2.347.127-3.613.162l-.091,0-1.823.058c-.543.021-1.059.031-1.533.031-4.2,0-6.363-.819-7.242-2.738-.021-.9-.006-12.678,0-16.266v-.008a5.651,5.651,0,0,0,.314.854c.842,1.839,2.7,2.2,5.632,2.2.811,0,1.717-.028,2.829-.07l1.823-.058.139,0c1.248-.035,2.427-.069,3.565-.162H-34c.87-.072,1.856-.154,2.848-.154a10.474,10.474,0,0,1,4.273.766,7.21,7.21,0,0,1,3.509,3.351c1.136,2.117,3.941,3.782,6.655,5.391,2.6,1.541,5.284,3.135,6.793,5.193a7.351,7.351,0,0,1,1.665,4.825,8.17,8.17,0,0,1-1.5,4.024c2.191.259,4.359.433,5.457.513h.147a12.418,12.418,0,0,0,5.172-1.124A4.969,4.969,0,0,0,4.1,70.974C4.885,67.1,14.377,59.91,19.981,58.148a7.53,7.53,0,0,1,2.64-.473,7.626,7.626,0,0,1,1.8.216c3.139.916,2.739,3.649,2.277,6.814l0,.022c-.238,1.663-.636,4.446.194,5.07l.945.708-.019.008a5.068,5.068,0,0,0,1.075-.122,24.506,24.506,0,0,1,5.2-.482c2.274,0,7.962.251,11.66,2.576a5.287,5.287,0,0,0,2.871.937c1.59,0,3.108-.851,5.209-2.029a44.452,44.452,0,0,1,8.055-3.722c2.519-.848,3.919-1.742,4.281-2.733a3.036,3.036,0,0,0-.695-2.555c-.654-1.075-1.271-2.091,0-3.081a4.327,4.327,0,0,1,2.685-.718A17.136,17.136,0,0,1,75.536,60.7c2.548,1.354,4.147,2.944,4.278,4.252.216,2.148,2.259,3.43,5.465,3.43a12.656,12.656,0,0,0,3.5-.5,12.494,12.494,0,0,1,3.427-.654c1.309,0,2.489.416,4.822,1.283a8.488,8.488,0,0,0,3,.562c2.166,0,4.144-.867,6.435-1.871.426-.187.867-.38,1.323-.574,3.993-1.7,8.965-6.28,10.4-8.16a18.976,18.976,0,0,1,4.692-3.577.1.1,0,0,1,.018.021c.005.159.171,15.919.065,15.934a18.99,18.99,0,0,0-4.775,3.622c-1.435,1.88-6.408,6.465-10.4,8.159-.454.193-.895.386-1.321.573-2.292,1-4.271,1.872-6.437,1.872a8.488,8.488,0,0,1-3-.562c-2.334-.867-3.514-1.283-4.822-1.283a12.482,12.482,0,0,0-3.427.654,12.656,12.656,0,0,1-3.5.5,7.672,7.672,0,0,1-3.655-.787,3.274,3.274,0,0,1-1.809-2.643c-.131-1.309-1.731-2.9-4.278-4.253a17.134,17.134,0,0,0-7.377-2.116,4.326,4.326,0,0,0-2.686.719c-1.274.99-.657,2.006,0,3.081a3.036,3.036,0,0,1,.695,2.555c-.362.991-1.762,1.885-4.281,2.733a44.454,44.454,0,0,0-8.055,3.722c-2.1,1.178-3.62,2.029-5.21,2.029a5.287,5.287,0,0,1-2.871-.937c-3.7-2.325-9.385-2.576-11.659-2.576a24.487,24.487,0,0,0-5.2.483,5.121,5.121,0,0,1-1.075.122l.019-.008-.945-.708c-.83-.625-.432-3.407-.194-5.069l0-.022c.462-3.164.862-5.9-2.277-6.815a7.617,7.617,0,0,0-1.8-.216,7.536,7.536,0,0,0-2.642.473c-5.6,1.761-15.1,8.947-15.876,12.825a4.97,4.97,0,0,1-3.087,3.164A12.431,12.431,0,0,1-4.159,91.261Z" transform="translate(104.52 2)" stroke="rgba(0,0,0,0)" stroke-width="1" fill="url(#linear-gradient-2)"/>
    </g>
  </g>
</svg>
