<svg xmlns="http://www.w3.org/2000/svg" xmlns:xlink="http://www.w3.org/1999/xlink" width="218.975" height="145.294" viewBox="0 0 218.975 145.294">
  <defs>
    <linearGradient id="linear-gradient" x1="0.484" y1="1.132" x2="0.476" y2="0.394" gradientUnits="objectBoundingBox">
      <stop offset="0" stop-color="#191e64"/>
      <stop offset="1" stop-color="#17448b"/>
    </linearGradient>
    <filter id="thick_1" x="0" y="0" width="218.975" height="145.294" filterUnits="userSpaceOnUse">
      <feOffset dy="8" input="SourceAlpha"/>
      <feGaussianBlur stdDeviation="9" result="blur"/>
      <feFlood flood-color="#0f093c" flood-opacity="0.161"/>
      <feComposite operator="in" in2="blur"/>
      <feComposite in="SourceGraphic"/>
    </filter>
    <radialGradient id="radial-gradient" cx="0.5" cy="0.5" r="0.5" gradientUnits="objectBoundingBox">
      <stop offset="0" stop-color="#1fb9e6"/>
      <stop offset="1" stop-color="#0669d2"/>
    </radialGradient>
  </defs>
  <g id="wulong" transform="translate(-54.573 -64.959)">
    <g transform="matrix(1, 0, 0, 1, 54.57, 64.96)" filter="url(#thick_1)">
      <path id="thick_1-2" data-name="thick_1" d="M-750.216,111.085a5.331,5.331,0,0,1-2.87-1.1c-.618-.405-1.217-.79-1.8-1.161a38.8,38.8,0,0,1-5.377-3.861,3.921,3.921,0,0,0-2.695-.911c-1.715,0-3.331.752-3.759,1.75a7.444,7.444,0,0,1-1.766,2.7,6.745,6.745,0,0,1-4.693,1.562,13.215,13.215,0,0,1-1.43-.082,24.676,24.676,0,0,0-2.708-.157c-.539,0-.975.02-1.331.04l-.221.012c-.264.015-.472.027-.648.027-.445,0-.629-.082-.727-.326a4.981,4.981,0,0,1-.1-1.478c0-1.595-.5-2.246-1.737-2.246a11.366,11.366,0,0,0-1.874.241h-.006c-.22.039-.448.08-.681.119a16.277,16.277,0,0,0-2.1.591,14.752,14.752,0,0,1-4.3.941,3.526,3.526,0,0,1-3.275-1.741,14.136,14.136,0,0,1-1.341-3.246c-.489-1.566-.842-2.7-2.148-2.7a4.921,4.921,0,0,0-1.885.5c-.528.231-1.091.486-1.688.756-3.633,1.645-8.153,3.691-11.951,3.692a8.244,8.244,0,0,1-2.138-.262,14.245,14.245,0,0,1-4.719-1.97,4.724,4.724,0,0,1-1.37-2.111c-1.19-2.784-1.689-14.173-.822-18.747q.022-.112.046-.224a15.5,15.5,0,0,0,.776,3.639l.375.871c.008.016.813,1.668,5.713,3.209a8.246,8.246,0,0,0,2.14.262c3.8,0,8.317-2.046,11.948-3.69.6-.271,1.162-.526,1.69-.757a4.921,4.921,0,0,1,1.885-.5c1.306,0,1.659,1.131,2.148,2.7a14.126,14.126,0,0,0,1.341,3.246,3.526,3.526,0,0,0,3.275,1.741,14.748,14.748,0,0,0,4.305-.941,16.288,16.288,0,0,1,2.1-.591c.237-.04.465-.08.685-.12a11.375,11.375,0,0,1,1.875-.241c1.235,0,1.738.651,1.738,2.246,0,1.529,0,1.8.83,1.8.176,0,.384-.012.647-.027h.013l.209-.012c.356-.02.792-.04,1.331-.04a24.674,24.674,0,0,1,2.708.157,13.209,13.209,0,0,0,1.43.082c4.628,0,5.865-2.881,6.459-4.265.428-1,2.044-1.75,3.759-1.75a3.919,3.919,0,0,1,2.694.911,38.8,38.8,0,0,0,5.377,3.861l0,0c.578.371,1.176.755,1.791,1.158,1.542,1.011,2.237,1.423,2.916,1.423a3.576,3.576,0,0,0,1.17-.271,66.7,66.7,0,0,0,9.9-4.325c3.588-2.015,5.619-3.93,6.034-5.694,1.52-6.421,6.476-13.088,12.139-13.129l0,0h0c0-.01.048-.033.168-.088a14.794,14.794,0,0,0,1.856-1.014c2.79-1.763,6.572-5.2,8.283-8.574a93.118,93.118,0,0,0,.823,11.759c.523,3.842-4.952,9.523-9.105,12.147a14.87,14.87,0,0,1-1.852,1.012c-.116.053-.174.08-.173.09s0,0,.005,0c-5.663.04-10.619,6.706-12.139,13.128-.789,3.345-10.689,7.662-14.909,9.363A5.971,5.971,0,0,1-750.216,111.085ZM-822.7,77.408h0c-.126-.03-.255-.057-.391-.087a3.233,3.233,0,0,1-2.358-1.269,7.414,7.414,0,0,1-.871-4.779l0-.021a3.049,3.049,0,0,0-2.339-3.042,7.018,7.018,0,0,0-2.269-.346,15.454,15.454,0,0,0-4.69.874,6.433,6.433,0,0,1-1.913.448c-.832,0-1.651-.407-3.84-1.493l-.022-.011-1.173-.582a46.928,46.928,0,0,0-6.16-2.544,15.573,15.573,0,0,1-4.148-1.937c-1.867-1.221-2.531-1.608-3.064-1.919s-.915-.535-2.059-1.307a1.528,1.528,0,0,1,.254-.212V44.23c.959.643,1.338.867,1.805,1.136.54.316,1.212.709,3.064,1.92a15.571,15.571,0,0,0,4.148,1.936,46.933,46.933,0,0,1,6.16,2.545l1.173.581.021.01c2.19,1.088,3.009,1.495,3.841,1.495a6.432,6.432,0,0,0,1.913-.448,15.436,15.436,0,0,1,4.689-.874,7.022,7.022,0,0,1,2.27.346,3.049,3.049,0,0,1,2.339,3.042,4.6,4.6,0,0,1-1.063,2.468,5.816,5.816,0,0,0-.517.841,7.822,7.822,0,0,0,1.029.193c3.249.438,4.8.988,5.359,1.9.364.594.333,1.346-.105,2.6a17.5,17.5,0,0,0-.76,2.68,53.221,53.221,0,0,0-.324,10.812Zm112.557-20.935h0c-.55-5.414-1.116-15.122,1.276-19.307,2.032-3.557,10.346-12.6,13.827-16.317l.216-.017V35.854l.076.016-.025.027,0,0-.047.05v.307l-.451.175C-698.7,40.1-706.872,49-708.872,52.5A12.493,12.493,0,0,0-710.147,56.473ZM-791.33,39.185V33.332h.087c.265.332.649.753.989,1.124.78.848,1.275,1.575,1.155,2.368s-.848,1.555-2.229,2.359Z" transform="translate(885.76 -1.29)" stroke="rgba(0,0,0,0)" stroke-width="1" fill="url(#linear-gradient)"/>
    </g>
    <g id="thick_wuling" transform="translate(-471 -266)" opacity="0.67" fill="url(#radial-gradient)">
      <path d="M 661.159423828125 425.2437133789063 C 661.1593627929688 425.2437133789063 661.1593627929688 425.2437133789063 661.1593017578125 425.2437133789063 C 660.647705078125 425.24365234375 660.051025390625 424.9089660644531 658.5178833007813 423.9031372070313 C 657.8983764648438 423.4968872070313 657.2974853515625 423.1109619140625 656.7163696289063 422.7377319335938 C 654.6101684570313 421.3850402832031 652.791259765625 420.216796875 651.4129638671875 418.9333801269531 C 650.6891479492188 418.2593688964844 649.611083984375 417.88818359375 648.3773193359375 417.88818359375 C 646.7186279296875 417.88818359375 644.7368774414063 418.5931701660156 644.1585083007813 419.9405517578125 C 643.5642700195313 421.325439453125 642.4581909179688 423.903076171875 638.1588134765625 423.903076171875 C 637.7244873046875 423.903076171875 637.2618408203125 423.8765258789063 636.7837524414063 423.8241882324219 C 635.8050537109375 423.7169799804688 634.9019775390625 423.6648864746094 634.0230102539063 423.6648864746094 C 633.364013671875 423.6648864746094 632.8530883789063 423.6940307617188 632.4425659179688 423.7174072265625 C 632.1860961914063 423.7320251464844 631.9835205078125 423.7435913085938 631.8214111328125 423.7435913085938 C 631.6616821289063 423.7435913085938 631.5877685546875 423.7313842773438 631.5560302734375 423.7232055664063 C 631.4923095703125 423.56640625 631.4923095703125 423.017578125 631.4923095703125 422.4381103515625 C 631.4923095703125 420.5652160644531 630.7813110351563 419.6929016113281 629.2547607421875 419.6929016113281 C 628.6782836914063 419.6929016113281 628.035888671875 419.8081970214844 627.2920532226563 419.9417114257813 C 627.07177734375 419.9812316894531 626.8440551757813 420.0220947265625 626.611572265625 420.0609436035156 C 625.9876098632813 420.1651916503906 625.233642578125 420.4100036621094 624.4354248046875 420.6692199707031 C 623.1124877929688 421.0987548828125 621.6130981445313 421.5856323242188 620.2852172851563 421.5856323242188 C 618.9609375 421.5856323242188 618.0562744140625 421.1092224121094 617.4382934570313 420.0863342285156 C 616.7913818359375 419.015625 616.448974609375 417.918212890625 616.1468505859375 416.9500427246094 C 615.8927612304688 416.1358642578125 615.67333984375 415.4327392578125 615.3223876953125 414.8946228027344 C 614.8866577148438 414.2265930175781 614.297607421875 413.90185546875 613.5214233398438 413.90185546875 C 612.9552001953125 413.90185546875 612.273193359375 414.0798645019531 611.4365234375 414.4460754394531 C 610.90576171875 414.6783142089844 610.340576171875 414.9342651367188 609.7422485351563 415.2052307128906 C 606.154541015625 416.8299865722656 601.6895751953125 418.8519897460938 597.99853515625 418.8519897460938 C 597.2727661132813 418.8519897460938 596.6005249023438 418.7705688476563 596.0001831054688 418.6099243164063 C 591.5679931640625 417.1943664550781 590.6638793945313 415.7782287597656 590.6000366210938 415.6691589355469 L 590.6055297851563 415.6827087402344 L 590.601806640625 415.6739501953125 L 590.5997924804688 415.6687622070313 C 590.5994262695313 415.6681823730469 590.59912109375 415.6676635742188 590.598876953125 415.6671752929688 L 590.2304077148438 414.811279296875 C 589.7020874023438 413.5755310058594 589.2639770507813 410.3076171875 589.0875854492188 406.2840270996094 C 588.9103393554688 402.2404174804688 589.0455322265625 398.4358825683594 589.4403076171875 396.3551330566406 C 589.6141967773438 395.4794616699219 589.8626098632813 394.6034545898438 590.1779174804688 393.7555847167969 L 590.1795654296875 393.751220703125 L 590.1810913085938 393.7468566894531 C 590.5253295898438 392.7657470703125 590.8016357421875 391.6394348144531 590.2410888671875 390.7244262695313 C 589.5873413085938 389.6572570800781 587.9839477539063 389.0595703125 584.5221557617188 388.5925903320313 L 584.518310546875 388.5920715332031 L 584.5145263671875 388.5916137695313 C 584.412109375 388.5794067382813 584.3097534179688 388.5650024414063 584.207763671875 388.5484924316406 C 584.249755859375 388.4858703613281 584.2930908203125 388.4239807128906 584.3377685546875 388.3629760742188 C 584.9966430664063 387.5691833496094 585.3995971679688 386.6275634765625 585.5032348632813 385.6388549804688 L 585.5043334960938 385.6283264160156 L 585.5050048828125 385.6177673339844 C 585.60498046875 384.0120239257813 584.5000610351563 382.5539245605469 582.8167724609375 382.0676879882813 C 582.0958862304688 381.8226928710938 581.281982421875 381.698486328125 580.3973388671875 381.698486328125 C 579.0064697265625 381.698486328125 577.422119140625 381.9921569824219 575.5535888671875 382.5962524414063 C 574.7384033203125 382.86083984375 574.2466430664063 383.0204467773438 573.7945556640625 383.0204467773438 C 573.0796508789063 383.0204467773438 572.2288208007813 382.5979614257813 570.1732788085938 381.5772094726563 L 570.1554565429688 381.568359375 L 568.9832153320313 380.9865112304688 C 566.9910278320313 379.9908447265625 564.896484375 379.1254272460938 562.759033203125 378.4149475097656 L 562.7520141601563 378.41259765625 L 562.7449340820313 378.4104919433594 C 561.3011474609375 377.9774780273438 559.949951171875 377.3469848632813 558.7288818359375 376.5365905761719 C 556.8590698242188 375.3133850097656 556.18408203125 374.9190673828125 555.6417846679688 374.6022644042969 C 555.2330322265625 374.3672180175781 554.9017333984375 374.1715393066406 554.2101440429688 373.7143249511719 C 554.6281127929688 373.4808044433594 555.3682861328125 373.1249389648438 556.6785888671875 372.5981750488281 C 558.0828247070313 372.0336303710938 559.6605224609375 371.4627990722656 561.1563110351563 370.9300231933594 C 562.1700439453125 370.5667114257813 563.25 370.1772766113281 564.2852172851563 369.7886047363281 C 568.4852294921875 368.2120666503906 569.3675537109375 365.9177551269531 569.8946533203125 364.5469665527344 C 569.9710083007813 364.3470153808594 570.1993408203125 363.7491760253906 570.30908203125 363.6430969238281 C 570.3461303710938 363.6341857910156 570.4423217773438 363.6295166015625 570.520751953125 363.625732421875 C 576.6854248046875 363.2962341308594 578.3076782226563 361.2121887207031 579.6758422851563 359.3382568359375 C 581.5740966796875 359.7712097167969 583.2528686523438 360.6923828125 584.5465087890625 362.0141296386719 C 586.0939331054688 363.5984191894531 588.2310180664063 364.5806579589844 590.5635986328125 364.7796630859375 C 590.9354248046875 364.8150939941406 591.3154296875 364.8330688476563 591.693115234375 364.8330688476563 C 594.0634765625 364.8330688476563 596.5697631835938 364.1422424316406 599.3551635742188 362.7211608886719 L 599.37646484375 362.7102966308594 L 599.3966674804688 362.6974182128906 C 599.4253540039063 362.6791076660156 599.4623413085938 362.6690368652344 599.5007934570313 362.6690368652344 C 599.5143432617188 362.6690368652344 599.5278930664063 362.6703186035156 599.541015625 362.6728515625 L 599.5518798828125 362.6749572753906 L 599.5628662109375 362.6765747070313 C 600.80224609375 362.85888671875 603.655029296875 364.7154541015625 605.849609375 368.1222534179688 C 606.8975219726563 370.0624389648438 608.921630859375 371.4705810546875 611.2684936523438 371.8907775878906 L 611.2766723632813 371.8922424316406 L 611.2849731445313 371.8934326171875 C 611.6802368164063 371.9507141113281 612.0840454101563 371.979736328125 612.4851684570313 371.9797058105469 C 615.0773315429688 371.9796142578125 617.3558349609375 370.8016357421875 619.5593872070313 369.6624755859375 L 619.6041259765625 369.6393432617188 C 621.5426025390625 368.6328125 622.5316162109375 367.6722717285156 622.7173461914063 366.6161499023438 C 622.9144287109375 365.4953002929688 622.163330078125 364.5671081542969 621.4439086914063 363.7850646972656 C 621.2219848632813 363.5422668457031 620.9799194335938 363.2773742675781 620.767578125 363.0329895019531 C 621.0891723632813 362.82421875 621.8141479492188 362.4411315917969 623.4410400390625 361.805419921875 C 625.2669677734375 361.0919799804688 627.9150390625 360.1811218261719 631.311767578125 359.0981750488281 L 631.3316650390625 359.0918273925781 C 633.6237182617188 358.3601684570313 635.6032104492188 357.728271484375 636.9319458007813 357.1874084472656 C 640.0855102539063 355.8976745605469 643.71337890625 352.8544311523438 646.2601318359375 350.4646301269531 C 647.4840087890625 350.6069641113281 648.7271118164063 350.6791076660156 649.958740234375 350.6790771484375 C 650.1806030273438 350.6790771484375 650.405517578125 350.6767272949219 650.6272583007813 350.6720886230469 C 656.1364135742188 350.6723022460938 656.5319213867188 351.0063171386719 658.1843872070313 352.4102172851563 C 658.9942626953125 353.1157836914063 659.8619995117188 353.7817993164063 660.7634887695313 354.3898620605469 C 664.4769287109375 356.8702087402344 667.3511352539063 358.0248413085938 669.8106689453125 358.0247192382813 C 670.3497924804688 358.0246887207031 670.881591796875 357.9683837890625 671.3914184570313 357.8573303222656 C 673.6736450195313 357.4001159667969 675.193603515625 355.4731140136719 674.9379272460938 353.3670349121094 C 674.9042358398438 352.1797485351563 674.7993774414063 350.980712890625 674.6261596679688 349.8023986816406 C 674.4695434570313 348.5627136230469 674.2750854492188 347.0212097167969 674.3161010742188 345.7391052246094 C 674.3587036132813 344.4085388183594 674.6430053710938 343.5798034667969 675.1610107421875 343.2756958007813 L 675.1641235351563 343.2739868164063 C 675.2224731445313 343.2420654296875 675.3589477539063 343.1673278808594 675.8726806640625 343.1673278808594 C 675.939453125 343.1673278808594 676.0108642578125 343.1686401367188 676.0850219726563 343.1712646484375 C 681.0745239257813 343.4147033691406 687.7468872070313 343.952392578125 688.1029052734375 345.8023681640625 C 688.3318481445313 347.0044860839844 689.0992431640625 348.1288452148438 690.322021484375 349.0529174804688 C 691.5020141601563 349.9447021484375 693.0490112304688 350.6055603027344 694.7962646484375 350.96435546875 C 695.6959228515625 351.1673278808594 696.6221923828125 351.2702331542969 697.5492553710938 351.2702026367188 C 699.5817260742188 351.2701721191406 701.5797729492188 350.7769470214844 703.3273315429688 349.8437805175781 L 703.3356323242188 349.8393249511719 L 703.34375 349.8345642089844 C 704.0263671875 349.4363403320313 705.1021118164063 349.2344055175781 706.5411376953125 349.2344055175781 C 709.068115234375 349.2344055175781 712.361083984375 349.8419189453125 715.6034545898438 350.512939453125 C 711.7576293945313 354.6338500976563 704.0086059570313 363.110595703125 702.0235595703125 366.5858764648438 C 700.6647338867188 368.9627380371094 700.0614624023438 373.268310546875 700.2305297851563 379.3827819824219 C 700.3604125976563 384.0804138183594 700.9193115234375 388.3350219726563 701.0300903320313 389.1402587890625 C 701.2450561523438 390.7174987792969 700.289794921875 392.8997802734375 698.3402709960938 395.2844543457031 C 696.6421508789063 397.361572265625 694.3292846679688 399.42236328125 692.1533813476563 400.7970886230469 C 691.24169921875 401.3732299804688 690.6456909179688 401.6463623046875 690.3592529296875 401.7776184082031 C 690.3262329101563 401.7927856445313 690.290283203125 401.8092346191406 690.2535400390625 401.8278503417969 C 687.5056762695313 401.8975219726563 684.7930297851563 403.3948974609375 682.3993530273438 406.1659240722656 C 680.252197265625 408.6515502929688 678.5668334960938 411.9951171875 677.7753295898438 415.33935546875 C 677.3983154296875 416.9386901855469 675.3954467773438 418.7964172363281 671.9830322265625 420.7120666503906 C 668.48193359375 422.6775207519531 664.3287353515625 424.2427978515625 662.1646728515625 425.0009460449219 C 661.7158203125 425.1583862304688 661.4227294921875 425.2437133789063 661.159423828125 425.2437133789063 Z" stroke="none"/>
      <path d="M 661.1593627929688 425.7437133789063 L 661.1593627929688 424.7437133789063 C 661.3501586914063 424.7437133789063 661.6116943359375 424.6650695800781 661.9993286132813 424.5290222167969 C 664.1480102539063 423.7763366699219 668.2703857421875 422.222900390625 671.73828125 420.2760620117188 C 674.9783935546875 418.4571228027344 676.9495239257813 416.6632995605469 677.2887573242188 415.2241821289063 C 678.09814453125 411.8042907714844 679.822998046875 408.383544921875 682.02099609375 405.8390808105469 C 684.4783935546875 402.9942626953125 687.2777709960938 401.4403381347656 690.1326904296875 401.3314514160156 C 690.138671875 401.3287048339844 690.1447143554688 401.325927734375 690.1510009765625 401.3230590820313 C 690.427490234375 401.1963500976563 691.0029296875 400.9326477050781 691.8862915039063 400.3743591308594 C 694.0192260742188 399.0268249511719 696.2872314453125 397.0057373046875 697.9531860351563 394.9679870605469 C 699.8139038085938 392.6919250488281 700.7306518554688 390.6460266113281 700.5347290039063 389.2083435058594 C 700.4234008789063 388.3986511230469 699.861328125 384.1201782226563 699.730712890625 379.3966064453125 C 699.5590209960938 373.1890869140625 700.1844482421875 368.7953796386719 701.58935546875 366.3379211425781 C 703.4989624023438 362.9947509765625 710.6150512695313 355.14599609375 714.6304321289063 350.8241882324219 C 711.702880859375 350.2330017089844 708.7987670898438 349.7344055175781 706.5411376953125 349.7344055175781 C 705.1917724609375 349.7344055175781 704.2008666992188 349.9134216308594 703.5957641601563 350.2664489746094 L 703.5794677734375 350.2759399414063 L 703.5628662109375 350.2848205566406 C 701.7431030273438 351.2565307617188 699.6636352539063 351.7701721191406 697.5492553710938 351.7702026367188 C 696.5867309570313 351.7702331542969 695.6249389648438 351.6635131835938 694.6904296875 351.4530639648438 C 690.8251953125 350.6579895019531 688.1131591796875 348.5289001464844 687.6118774414063 345.8968811035156 C 687.5814208984375 345.7386474609375 687.3168334960938 345.1821899414063 685.1903686523438 344.6650695800781 C 683.290771484375 344.203125 680.3055419921875 343.8778686523438 676.06396484375 343.6708374023438 C 675.9971313476563 343.6684875488281 675.9328002929688 343.6673278808594 675.8726806640625 343.6673278808594 C 675.5595703125 343.6673278808594 675.4375610351563 343.6994323730469 675.4166870117188 343.7057495117188 C 675.4142456054688 343.7070617675781 675.4119262695313 343.7083129882813 675.40966796875 343.7095642089844 C 675.2422485351563 343.8111572265625 674.8652954101563 344.2111511230469 674.8158569335938 345.755126953125 C 674.776123046875 346.996337890625 674.9593505859375 348.45068359375 675.1216430664063 349.735107421875 C 675.296142578125 350.9234313964844 675.4021606445313 352.1326599121094 675.4370727539063 353.3301696777344 C 675.7105102539063 355.6878051757813 674.0252075195313 357.837158203125 671.4948120117188 358.3465270996094 C 670.9510498046875 358.4647521972656 670.3844604492188 358.5246887207031 669.8106689453125 358.5247192382813 C 667.2476806640625 358.5248107910156 664.2852172851563 357.3434448242188 660.4839477539063 354.8043823242188 C 659.5665893554688 354.1856689453125 658.6834716796875 353.5079345703125 657.859130859375 352.7899475097656 C 657.0367431640625 352.0912780761719 656.6226196289063 351.740234375 655.7949829101563 351.5171813964844 C 654.8746948242188 351.2691345214844 653.4267578125 351.1723327636719 650.6317138671875 351.1720886230469 C 650.4081420898438 351.1767272949219 650.1817016601563 351.1790771484375 649.958740234375 351.1790771484375 C 648.7852783203125 351.1791076660156 647.6016235351563 351.1146240234375 646.4332275390625 350.9872741699219 C 643.8651733398438 353.3809509277344 640.275146484375 356.3603515625 637.1204223632813 357.6505126953125 C 635.7737426757813 358.1986999511719 633.78564453125 358.8333129882813 631.4837036132813 359.5681457519531 L 631.4636840820313 359.5745239257813 C 628.2161254882813 360.6099243164063 625.65478515625 361.4874877929688 623.8506469726563 362.1828308105469 C 622.697265625 362.6273498535156 621.9882202148438 362.9454956054688 621.5543823242188 363.1641540527344 C 621.6412963867188 363.2598876953125 621.7280883789063 363.3548583984375 621.8118896484375 363.4465637207031 C 622.3900146484375 364.0749816894531 623.4661254882813 365.2447204589844 623.2097778320313 366.7027282714844 C 622.994873046875 367.9248962402344 621.922607421875 368.9989013671875 619.833740234375 370.08349609375 L 619.7891235351563 370.1065673828125 C 617.532470703125 371.2732238769531 615.198974609375 372.4796142578125 612.4851684570313 372.4797058105469 C 612.0601196289063 372.479736328125 611.6322021484375 372.4489440917969 611.2132568359375 372.3882751464844 L 611.19677734375 372.3858642578125 L 611.1803588867188 372.3829650878906 C 608.6918334960938 371.9373779296875 606.5414428710938 370.44140625 605.4191284179688 368.3773803710938 C 603.2784423828125 365.0621032714844 600.5925903320313 363.3853759765625 599.5521850585938 363.1819458007813 C 596.706787109375 364.6293334960938 594.1356201171875 365.3330688476563 591.693115234375 365.3330688476563 C 591.2999877929688 365.3330688476563 590.9044799804688 365.3143615722656 590.5173950195313 365.2775268554688 C 588.0667114257813 365.0676574707031 585.8192749023438 364.0327758789063 584.1891479492188 362.3638610839844 C 583.052978515625 361.2030029296875 581.5407104492188 360.3428039550781 579.8804931640625 359.9039611816406 C 578.5376586914063 361.7125549316406 576.6527099609375 363.7850341796875 570.6084594726563 364.1216735839844 C 570.5552368164063 364.23681640625 570.476806640625 364.4240417480469 570.361328125 364.7264404296875 C 569.8040771484375 366.1756286621094 568.8712768554688 368.6011962890625 564.4609985351563 370.2566833496094 C 563.422607421875 370.6465148925781 562.340576171875 371.0367431640625 561.3240966796875 371.4010314941406 C 559.8633422851563 371.9213562011719 558.3212280273438 372.47900390625 556.9405517578125 373.0318298339844 C 556.1878051757813 373.3331909179688 555.6295776367188 373.5753784179688 555.2161254882813 373.767578125 C 555.4669189453125 373.92333984375 555.666015625 374.0394287109375 555.8880615234375 374.1671142578125 L 555.8910522460938 374.1687927246094 L 555.8939819335938 374.1705322265625 C 556.4412231445313 374.4902038574219 557.1221923828125 374.8880310058594 558.9998168945313 376.1163330078125 L 559.0026245117188 376.1181640625 L 559.00537109375 376.1199951171875 C 560.1854248046875 376.9031677246094 561.491943359375 377.5126953125 562.8886108398438 377.9315490722656 L 562.9027099609375 377.9358215332031 L 562.916748046875 377.9404602050781 C 565.07666015625 378.658447265625 567.193359375 379.5329895019531 569.2055053710938 380.5386657714844 L 570.3778686523438 381.1205444335938 L 570.395751953125 381.1294555664063 C 572.376953125 382.1132507324219 573.1969604492188 382.5204467773438 573.7945556640625 382.5204467773438 C 574.1675415039063 382.5204467773438 574.6309814453125 382.3700256347656 575.3997802734375 382.1204833984375 C 577.3187255859375 381.5000915527344 578.9534912109375 381.198486328125 580.3973388671875 381.198486328125 C 581.3323974609375 381.198486328125 582.1966552734375 381.3304138183594 582.9667358398438 381.5906066894531 C 584.8706665039063 382.1455993652344 586.1185302734375 383.8108215332031 586.0040283203125 385.6488342285156 L 586.0027465820313 385.6699523925781 L 586.0005493164063 385.6910095214844 C 585.9081420898438 386.57177734375 585.6007080078125 387.4175720214844 585.1033325195313 388.1695556640625 C 588.3829956054688 388.6524658203125 589.96044921875 389.30908203125 590.66748046875 390.4632263183594 C 591.3373413085938 391.5567321777344 591.0360107421875 392.8204345703125 590.6528930664063 393.9123840332031 L 590.6498413085938 393.9211730957031 L 590.6466064453125 393.9298706054688 C 590.3411254882813 394.751220703125 590.100341796875 395.5996398925781 589.930908203125 396.4517517089844 C 589.5432739257813 398.4980773925781 589.4115600585938 402.2565002441406 589.587158203125 406.2621154785156 C 589.7584228515625 410.1695251464844 590.1915893554688 413.4485473632813 590.689697265625 414.6135864257813 L 591.0431518554688 415.4347534179688 C 591.0451049804688 415.4375915527344 591.04736328125 415.4407958984375 591.0499267578125 415.4443664550781 L 591.0578002929688 415.4687805175781 L 591.0648193359375 415.4850158691406 L 591.0509643554688 415.4458923339844 C 591.18896484375 415.6383666992188 592.19677734375 416.8684692382813 596.1407470703125 418.1299133300781 C 596.6961059570313 418.2772827148438 597.3209838867188 418.3519897460938 597.99853515625 418.3519897460938 C 601.5816040039063 418.3519897460938 605.9920654296875 416.3546752929688 609.5359497070313 414.7497863769531 C 610.1358032226563 414.4781188964844 610.702392578125 414.2215270996094 611.236083984375 413.9880065917969 C 612.1372680664063 413.5935668945313 612.8848266601563 413.40185546875 613.5214233398438 413.40185546875 C 614.466552734375 413.40185546875 615.21337890625 413.8121948242188 615.7412109375 414.6214599609375 C 616.1300048828125 415.2176513671875 616.3590087890625 415.9514465332031 616.6241455078125 416.8010864257813 C 616.9177856445313 417.7422180175781 617.2506713867188 418.8088684082031 617.8662109375 419.8277893066406 C 618.391845703125 420.6976928710938 619.1378784179688 421.0856323242188 620.2852172851563 421.0856323242188 C 621.533935546875 421.0856323242188 622.9933471679688 420.6117553710938 624.281005859375 420.1936645507813 C 625.097412109375 419.9285583496094 625.8685302734375 419.6781616210938 626.5291748046875 419.5677795410156 C 626.7586669921875 419.5294189453125 626.9849243164063 419.4888305664063 627.2037353515625 419.4495544433594 C 627.9391479492188 419.3175659179688 628.6337890625 419.1929016113281 629.2547607421875 419.1929016113281 C 630.1441650390625 419.1929016113281 630.8059692382813 419.4527893066406 631.2779541015625 419.9873962402344 C 631.7653198242188 420.5394287109375 631.9923095703125 421.3181762695313 631.9923095703125 422.4381103515625 C 631.9923095703125 422.7259521484375 631.9923095703125 423.0196228027344 632.0003051757813 423.2395629882813 C 632.1201782226563 423.2349853515625 632.2604370117188 423.2269897460938 632.4141235351563 423.2182312011719 C 632.8309936523438 423.1944580078125 633.3497924804688 423.1648864746094 634.0230102539063 423.1648864746094 C 634.92041015625 423.1648864746094 635.8412475585938 423.2179870605469 636.8381958007813 423.3271484375 C 637.2982788085938 423.3775329589844 637.7426147460938 423.403076171875 638.1588134765625 423.403076171875 C 642.1287231445313 423.403076171875 643.1116943359375 421.1122131347656 643.6990966796875 419.7433471679688 C 644.0128784179688 419.0122375488281 644.6827392578125 418.397216796875 645.6361083984375 417.9647216796875 C 646.4556884765625 417.5929260253906 647.42919921875 417.38818359375 648.3773193359375 417.38818359375 C 649.7379760742188 417.38818359375 650.9370727539063 417.8070068359375 651.7537231445313 418.5674438476563 C 653.0991821289063 419.8203430175781 654.900634765625 420.9773254394531 656.986572265625 422.3170471191406 C 657.5686645507813 422.6908874511719 658.1705932617188 423.0774841308594 658.7921142578125 423.4850769042969 C 660.14501953125 424.3726501464844 660.7730102539063 424.74365234375 661.1593627929688 424.7437133789063 L 661.1593627929688 425.7437133789063 M 661.1592407226563 425.7437133789063 C 660.4937744140625 425.74365234375 659.830078125 425.3619689941406 658.2435913085938 424.3211975097656 C 655.3709106445313 422.4372863769531 652.86962890625 420.9729919433594 651.0722045898438 419.2992858886719 C 650.3863525390625 418.66064453125 649.388916015625 418.38818359375 648.3773193359375 418.38818359375 C 646.7378540039063 418.38818359375 645.0616455078125 419.104248046875 644.6179809570313 420.1377868652344 C 643.9644775390625 421.6607055664063 642.715576171875 424.403076171875 638.1588134765625 424.403076171875 C 637.7147216796875 424.403076171875 637.23876953125 424.3769836425781 636.7293090820313 424.3211975097656 C 635.6298217773438 424.2008056640625 634.7413940429688 424.1648864746094 634.02294921875 424.1648864746094 C 632.959716796875 424.1648864746094 632.2694091796875 424.2435913085938 631.8214111328125 424.2435913085938 C 630.9926147460938 424.2435913085938 630.9923095703125 423.9739685058594 630.9923095703125 422.4381103515625 C 630.9923095703125 420.6613159179688 630.3341064453125 420.1929321289063 629.2547607421875 420.1929321289063 C 628.55615234375 420.1929321289063 627.6809692382813 420.3892822265625 626.6939086914063 420.5541076660156 C 625.1068115234375 420.8193664550781 622.5184326171875 422.0856323242188 620.2852172851563 422.0856323242188 C 618.9832763671875 422.0856323242188 617.8019409179688 421.6551208496094 617.0103149414063 420.3449096679688 C 615.2569580078125 417.4426879882813 615.6519775390625 414.40185546875 613.5214233398438 414.40185546875 C 613.0401611328125 414.40185546875 612.4298706054688 414.5570983886719 611.6370239257813 414.9041137695313 C 607.9552001953125 416.5151977539063 602.433349609375 419.3519897460938 597.99853515625 419.3519897460938 C 597.25 419.3519897460938 596.5317993164063 419.2710571289063 595.8593139648438 419.0898132324219 C 590.875 417.5 590.1463012695313 415.8804016113281 590.1463012695313 415.8804016113281 L 589.7711791992188 415.0090026855469 C 588.5802001953125 412.223388671875 588.081298828125 400.8353881835938 588.9490966796875 396.2619018554688 C 589.1295166015625 395.3530883789063 589.3836059570313 394.4570922851563 589.7092895507813 393.581298828125 C 590.6453247070313 390.9135131835938 589.9923095703125 389.8349914550781 584.455322265625 389.0881042480469 C 584.10791015625 389.0466918945313 583.7639770507813 388.9822998046875 583.4273071289063 388.8955993652344 C 583.573974609375 388.6033020019531 583.746826171875 388.3221130371094 583.9439086914063 388.0545959472656 C 584.5446166992188 387.3351135253906 584.9121704101563 386.4812927246094 585.0059814453125 385.5867004394531 C 585.0914916992188 384.2135009765625 584.1295166015625 382.96240234375 582.6669921875 382.5448913574219 C 581.9928588867188 382.3141784667969 581.2389526367188 382.198486328125 580.3973388671875 382.198486328125 C 579.0643920898438 382.198486328125 577.5114135742188 382.48876953125 575.7073974609375 383.0719909667969 C 574.8491821289063 383.3505859375 574.3244018554688 383.5204467773438 573.7945556640625 383.5204467773438 C 572.9600830078125 383.5204467773438 572.1132202148438 383.0987854003906 569.93310546875 382.0162048339844 L 568.7609252929688 381.4343872070313 C 566.7833251953125 380.4460144042969 564.7243041992188 379.5950927734375 562.601318359375 378.889404296875 C 561.113525390625 378.4432067871094 559.7130737304688 377.7898864746094 558.452392578125 376.9531860351563 C 556.6361083984375 375.7650146484375 555.9555053710938 375.3645935058594 555.3895874023438 375.0339965820313 C 554.8817749023438 374.7420043945313 554.4816284179688 374.5044860839844 553.3297119140625 373.7269897460938 C 554.0291137695313 372.9543151855469 558.5103759765625 371.3417053222656 560.988525390625 370.4590148925781 C 562.040771484375 370.0819091796875 563.0964965820313 369.7008056640625 564.1094970703125 369.3204956054688 C 568.0980834960938 367.8233032226563 568.8988037109375 365.7435913085938 569.427978515625 364.3674926757813 C 569.8903198242188 363.1567993164063 569.985107421875 363.1510925292969 570.4965209960938 363.1263122558594 C 576.532470703125 362.8037109375 578.0244140625 360.7544860839844 579.3453979492188 358.9428100585938 L 579.4652709960938 358.7822875976563 C 581.5744018554688 359.19970703125 583.4797973632813 360.2094116210938 584.90380859375 361.6643981933594 C 586.3621826171875 363.1575012207031 588.4031982421875 364.0939025878906 590.6076049804688 364.2815856933594 C 590.9661254882813 364.3158569335938 591.3278198242188 364.3330688476563 591.693115234375 364.3330688476563 C 593.9868774414063 364.3330688476563 596.4241333007813 363.6552124023438 599.1279296875 362.2757873535156 C 599.2376708984375 362.2058410644531 599.3682250976563 362.1690368652344 599.5007934570313 362.1690368652344 C 599.5457153320313 362.1690368652344 599.5909423828125 362.1732788085938 599.6356201171875 362.181884765625 C 601.0050048828125 362.38330078125 603.9754028320313 364.2809143066406 606.2807006835938 367.8681945800781 C 607.2595825195313 369.694091796875 609.1392822265625 371.0015869140625 611.3566284179688 371.3985900878906 C 611.7390747070313 371.4540100097656 612.1148071289063 371.479736328125 612.4851684570313 371.4797058105469 C 614.9727783203125 371.4795837402344 617.201904296875 370.3182983398438 619.37451171875 369.1951904296875 C 623.3533935546875 367.1292114257813 622.46142578125 365.6296081542969 621.075927734375 364.1235961914063 C 620.7158813476563 363.7296142578125 620.3433227539063 363.3211975097656 620.0819702148438 362.9930114746094 C 620.413330078125 362.3279113769531 624.1359252929688 360.8612060546875 631.159912109375 358.6217956542969 C 633.4498291015625 357.8908081054688 635.4288940429688 357.2593994140625 636.743408203125 356.7243041992188 C 639.9531860351563 355.4115905761719 643.7520141601563 352.1467895507813 646.0875854492188 349.9403076171875 C 647.370849609375 350.0992736816406 648.6638793945313 350.1790771484375 649.9586791992188 350.1790771484375 C 650.1796264648438 350.1790771484375 650.40087890625 350.1767578125 650.621826171875 350.1720886230469 C 656.319091796875 350.1720886230469 656.7841186523438 350.5645141601563 658.510498046875 352.0311889648438 C 659.3082885742188 352.7264099121094 660.1541748046875 353.3757934570313 661.0430908203125 353.9753112792969 C 664.6569213867188 356.38916015625 667.4409790039063 357.5248107910156 669.8106689453125 357.5247192382813 C 670.321533203125 357.5247192382813 670.8134765625 357.4718933105469 671.2899780273438 357.3677062988281 C 673.3167114257813 356.9631042480469 674.6755981445313 355.2529907226563 674.4387817382813 353.4049072265625 C 674.4061889648438 352.2225036621094 674.3032836914063 351.0422973632813 674.1306762695313 349.8696899414063 C 673.8038940429688 347.2828979492188 673.3577880859375 343.7420959472656 674.915283203125 342.8402099609375 C 675.0202026367188 342.7830505371094 675.213134765625 342.6673278808594 675.8726806640625 342.6673278808594 C 675.94482421875 342.6673278808594 676.0225219726563 342.668701171875 676.1063232421875 342.6716918945313 C 684.6453247070313 343.0881958007813 688.2589721679688 343.9675903320313 688.5938720703125 345.7078857421875 C 689.0128784179688 347.9078979492188 691.4846801757813 349.7750854492188 694.9013061523438 350.4754943847656 C 695.7744140625 350.6728515625 696.6636352539063 350.7702331542969 697.5492553710938 350.7702026367188 C 699.4843139648438 350.7701721191406 701.401611328125 350.3052368164063 703.091796875 349.4027099609375 C 703.91015625 348.9252624511719 705.1074829101563 348.7344055175781 706.5411376953125 348.7344055175781 C 709.3404541015625 348.7344055175781 713.0403442382813 349.4621887207031 716.5759887695313 350.2051086425781 C 713.310791015625 353.6881103515625 704.5479736328125 363.1744079589844 702.4577026367188 366.8338928222656 C 699.3280029296875 372.3084106445313 701.2918090820313 387.3735046386719 701.525390625 389.0721130371094 C 702.048583984375 392.9106140136719 696.5758056640625 398.5945129394531 692.42041015625 401.2197875976563 C 691.0377807617188 402.0935974121094 690.326904296875 402.3062133789063 690.401123046875 402.3255004882813 C 684.735107421875 402.3663024902344 679.7844848632813 409.0210876464844 678.2619018554688 415.4544982910156 C 677.3292236328125 419.4110412597656 668.414306640625 423.3413391113281 662.3299560546875 425.4728088378906 C 661.852294921875 425.640380859375 661.5055541992188 425.7437133789063 661.1592407226563 425.7437133789063 Z" stroke="none" fill="#30abec"/>
    </g>
    <text id="wulong-2" data-name="wulong" transform="translate(176.579 128.746)" fill="#fff" font-size="10" font-family="MicrosoftYaHei, Microsoft YaHei"><tspan x="-15" y="0">武隆区</tspan></text>
  </g>
</svg>
