<svg xmlns="http://www.w3.org/2000/svg" xmlns:xlink="http://www.w3.org/1999/xlink" width="180.641" height="151.162" viewBox="0 0 180.641 151.162">
  <defs>
    <radialGradient id="radial-gradient" cx="0.544" cy="0.538" r="0.631" gradientTransform="translate(0.113 -0.209) scale(0.792 1.388)" gradientUnits="objectBoundingBox">
      <stop offset="0" stop-color="#1fb9e6"/>
      <stop offset="1" stop-color="#0669d2"/>
    </radialGradient>
    <linearGradient id="linear-gradient" x1="0.556" y1="1" x2="0.452" y2="0.37" gradientUnits="objectBoundingBox">
      <stop offset="0" stop-color="#191e64"/>
      <stop offset="0.965" stop-color="#17438a"/>
      <stop offset="1" stop-color="#17448b"/>
    </linearGradient>
    <filter id="thick_2" x="109.192" y="22.725" width="71.45" height="76.864" filterUnits="userSpaceOnUse">
      <feOffset dy="8" input="SourceAlpha"/>
      <feGaussianBlur stdDeviation="9" result="blur"/>
      <feFlood flood-color="#0f093c" flood-opacity="0.169"/>
      <feComposite operator="in" in2="blur"/>
      <feComposite in="SourceGraphic"/>
    </filter>
    <linearGradient id="linear-gradient-2" x1="0.306" y1="0.734" x2="0.369" y2="0.247" xlink:href="#linear-gradient"/>
    <filter id="thick_1" x="0" y="14.064" width="96.282" height="76.941" filterUnits="userSpaceOnUse">
      <feOffset dy="8" input="SourceAlpha"/>
      <feGaussianBlur stdDeviation="9" result="blur-2"/>
      <feFlood flood-opacity="0.161"/>
      <feComposite operator="in" in2="blur-2"/>
      <feComposite in="SourceGraphic"/>
    </filter>
    <linearGradient id="linear-gradient-3" x1="0.479" y1="0.923" x2="0.456" y2="0.259" gradientUnits="objectBoundingBox">
      <stop offset="0" stop-color="#191e64"/>
      <stop offset="0.877" stop-color="#17438a"/>
      <stop offset="1" stop-color="#17448b"/>
    </linearGradient>
    <filter id="thick_3" x="1.277" y="49.433" width="172.81" height="101.729" filterUnits="userSpaceOnUse">
      <feOffset dy="8" input="SourceAlpha"/>
      <feGaussianBlur stdDeviation="9" result="blur-3"/>
      <feFlood flood-opacity="0.161"/>
      <feComposite operator="in" in2="blur-3"/>
      <feComposite in="SourceGraphic"/>
    </filter>
    <linearGradient id="linear-gradient-4" x1="0.097" y1="0.645" x2="0.957" y2="0.231" gradientUnits="objectBoundingBox">
      <stop offset="0" stop-color="#191e64"/>
      <stop offset="1" stop-color="#17448b"/>
    </linearGradient>
  </defs>
  <g id="wushan" transform="translate(-30.065 -25.392)">
    <g id="Op_component_22" data-name="Op component 22" transform="translate(-957 -72)" opacity="0.67" fill="url(#radial-gradient)">
      <path d="M 1035.555786132813 196.27880859375 C 1035.374267578125 196.1784362792969 1035.183471679688 196.0742797851563 1034.985229492188 195.9673461914063 L 1034.957885742188 195.9523773193359 C 1033.841552734375 195.3404541015625 1031.5185546875 194.0671081542969 1029.524169921875 192.7149047851563 C 1026.347900390625 190.5613708496094 1026.005004882813 189.573486328125 1026.005004882813 189.2487030029297 C 1026.005004882813 185.6726837158203 1025.444213867188 183.0013122558594 1018.186950683594 181.1885986328125 L 1018.17919921875 181.1866455078125 L 1018.171325683594 181.1849670410156 C 1017.8720703125 181.1203460693359 1017.577087402344 181.0408782958984 1017.2880859375 180.9471130371094 C 1017.953918457031 180.6816558837891 1018.647888183594 180.4751434326172 1019.362182617188 180.3303375244141 L 1019.373046875 180.3281402587891 L 1019.3837890625 180.3254547119141 C 1021.196228027344 179.8735961914063 1023.370971679688 179.1772003173828 1024.106323242188 177.7911376953125 C 1024.488159179688 177.0738372802734 1024.43994140625 176.3214416503906 1023.962768554688 175.555419921875 C 1023.587951660156 174.9537048339844 1022.99560546875 174.4071655273438 1022.422790527344 173.8786163330078 L 1022.418579101563 173.8747406005859 L 1022.415161132813 173.87158203125 L 1022.411743164063 173.8685150146484 C 1021.999389648438 173.5019683837891 1021.607177734375 173.1089172363281 1021.245971679688 172.7002868652344 C 1020.756958007813 172.127685546875 1021.861694335938 170.2371063232422 1022.593017578125 168.985595703125 C 1023.488159179688 167.4568939208984 1024.41357421875 165.8766174316406 1024.41357421875 164.3531951904297 C 1024.41357421875 163.1666107177734 1025.170288085938 162.200439453125 1026.727294921875 161.3994445800781 C 1028.390014648438 160.5439910888672 1030.975463867188 159.8982391357422 1034.411743164063 159.4801330566406 C 1039.345581054688 158.8812103271484 1044.755859375 156.9412536621094 1049.2548828125 154.1577301025391 C 1053.373168945313 151.6098327636719 1056.065307617188 148.7718200683594 1056.280639648438 146.7512054443359 C 1056.651000976563 143.3028717041016 1055.434692382813 141.0269012451172 1052.665283203125 139.9869232177734 C 1051.686645507813 139.6173248291016 1050.578125 139.4297485351563 1049.371459960938 139.4297485351563 C 1047.910034179688 139.4297485351563 1046.271362304688 139.7048034667969 1044.500854492188 140.2472381591797 C 1043.24755859375 140.6298675537109 1042.590087890625 140.7721862792969 1042.075317382813 140.7721862792969 C 1041.573120117188 140.7721862792969 1041.154174804688 140.6293029785156 1040.460083007813 140.3925628662109 C 1037.594970703125 139.3923950195313 1034.580322265625 138.8846893310547 1031.503173828125 138.8846893310547 C 1031.182983398438 138.8846893310547 1030.8583984375 138.890380859375 1030.538330078125 138.9015960693359 L 1028.734375 138.9015960693359 L 1028.286254882813 138.9015960693359 C 1028.338012695313 138.7825469970703 1028.385131835938 138.6619110107422 1028.427490234375 138.5399322509766 C 1028.995361328125 136.9765625 1028.3486328125 135.2437591552734 1026.853271484375 134.3185729980469 C 1024.859008789063 132.9063110351563 1021.122253417969 132.1287994384766 1016.327575683594 132.1287994384766 C 1015.732299804688 132.1287994384766 1015.443969726563 132.0558776855469 1015.306945800781 131.9947052001953 C 1015.221374511719 131.9565124511719 1015.207092285156 131.9336242675781 1015.175964355469 131.8834533691406 L 1015.174255371094 131.8807067871094 L 1015.172485351563 131.8779754638672 C 1015.095520019531 131.7576751708984 1015.088806152344 131.5516510009766 1015.153991699219 131.312744140625 C 1015.242919921875 130.9871063232422 1015.696411132813 129.841796875 1017.799865722656 128.7765655517578 C 1021.088928222656 127.1140518188477 1026.358642578125 126.3698196411133 1030.1220703125 126.3698196411133 C 1031.724487304688 126.3698196411133 1033.120361328125 126.4970779418945 1034.16015625 126.737907409668 C 1035.1318359375 127.0198135375977 1036.141845703125 127.1627349853516 1037.162475585938 127.1627044677734 C 1038.316284179688 127.1626815795898 1039.450317382813 126.981315612793 1040.533325195313 126.6236877441406 L 1040.546508789063 126.6193008422852 L 1040.5595703125 126.6141662597656 C 1044.046630859375 125.2418975830078 1044.046630859375 121.7795181274414 1044.046630859375 119.9194030761719 C 1044.046630859375 119.6023864746094 1044.074951171875 119.4118194580078 1044.65625 119.1816329956055 C 1045.380493164063 118.894889831543 1046.7490234375 118.6666488647461 1048.72216796875 118.3915939331055 C 1051.2958984375 118.1288681030273 1053.822998046875 117.5646438598633 1056.233764648438 116.7145538330078 L 1056.243896484375 116.7109832763672 L 1056.253784179688 116.7070007324219 C 1058.5380859375 115.7898788452148 1062.722290039063 115.5653533935547 1067.153076171875 115.3280334472656 C 1071.388305664063 115.2140426635742 1075.639770507813 114.764045715332 1079.788940429688 113.9905319213867 L 1079.796630859375 113.9890975952148 L 1079.804321289063 113.987419128418 C 1088.188598632813 112.150276184082 1093.092163085938 101.1547698974609 1094.338989257813 97.99918365478516 C 1095.855834960938 98.44528198242188 1097.360229492188 98.96497344970703 1098.8173828125 99.54648590087891 C 1101.0947265625 100.4765319824219 1102.6943359375 101.4187698364258 1104.105712890625 102.2500991821289 C 1107.130615234375 104.0319213867188 1109.519897460938 105.4393005371094 1116.214965820313 105.4393005371094 C 1120.505737304688 105.4393005371094 1122.802612304688 105.6815338134766 1124.14306640625 106.2753677368164 C 1125.37060546875 106.8191833496094 1125.7734375 107.6640548706055 1126.440795898438 109.0637817382813 C 1126.57861328125 109.3527297973633 1126.721069335938 109.651481628418 1126.883911132813 109.974983215332 C 1128.66015625 113.6250305175781 1129.606811523438 117.4937210083008 1129.69775390625 121.4735565185547 C 1129.699096679688 125.4969711303711 1131.0439453125 128.63037109375 1133.808959960938 131.0519561767578 C 1134.046508789063 131.2593994140625 1134.306518554688 131.4810791015625 1134.581787109375 131.7158050537109 C 1136.711669921875 133.53173828125 1139.930541992188 136.2760009765625 1139.793334960938 138.5998077392578 C 1139.741455078125 139.4784698486328 1139.209106445313 140.2436828613281 1138.166015625 140.9391784667969 C 1136.347534179688 142.1516418457031 1133.628784179688 143.2655029296875 1130.999633789063 144.3426666259766 C 1127.020629882813 145.9728546142578 1123.584228515625 147.3807220458984 1122.887329101563 149.1430358886719 C 1122.699584960938 149.6176300048828 1122.712158203125 150.0938110351563 1122.924560546875 150.5583801269531 C 1123.239990234375 151.2481994628906 1123.622314453125 152.1752471923828 1124.06494140625 153.2486877441406 C 1126.095581054688 158.1722564697266 1127.914916992188 162.3153686523438 1129.617919921875 163.1457214355469 C 1130.422729492188 163.5380859375 1132.560424804688 164.5802612304688 1132.686279296875 165.7024078369141 C 1132.74169921875 166.1965789794922 1132.40087890625 166.7437133789063 1131.673217773438 167.3285827636719 C 1128.551513671875 169.8378295898438 1128.277587890625 174.3538360595703 1128.991455078125 177.4586486816406 C 1129.551025390625 179.8908233642578 1128.219848632813 181.4855346679688 1126.014526367188 184.1275787353516 C 1125.622680664063 184.5969696044922 1125.217529296875 185.0823516845703 1124.790893554688 185.6115417480469 C 1122.812377929688 188.0648498535156 1118.578125 189.3887329101563 1115.5986328125 189.3887329101563 C 1115.598510742188 189.3887329101563 1115.5986328125 189.3887329101563 1115.598510742188 189.3887329101563 C 1114.271240234375 189.3887023925781 1113.1962890625 189.1310272216797 1112.571533203125 188.6632080078125 C 1108.823608398438 185.8562774658203 1106.674072265625 183.2560882568359 1106.674072265625 181.529296875 C 1106.674072265625 180.40380859375 1106.183349609375 179.1119079589844 1105.361328125 178.0734405517578 C 1104.424072265625 176.8892974853516 1103.2255859375 176.2371673583984 1101.986694335938 176.2371673583984 C 1101.247314453125 176.2371673583984 1100.514282226563 176.4689483642578 1099.808227539063 176.9260864257813 C 1098.548828125 177.7414398193359 1097.095581054688 178.1050567626953 1095.09619140625 178.1050567626953 C 1093.766845703125 178.1050567626953 1092.277465820313 177.9453277587891 1090.700561523438 177.7762451171875 C 1089.702880859375 177.6692657470703 1088.671142578125 177.5586395263672 1087.566528320313 177.4730987548828 C 1087.05322265625 177.433349609375 1086.481079101563 177.4132080078125 1085.865966796875 177.4132080078125 C 1079.968505859375 177.4132080078125 1070.888305664063 179.1944732666016 1065.857543945313 180.8448181152344 C 1064.834838867188 181.1802978515625 1063.475219726563 181.6007537841797 1061.901000976563 182.0875701904297 C 1058.228759765625 183.22314453125 1053.65869140625 184.6364135742188 1049.766235351563 186.0745086669922 C 1043.487915039063 188.3940582275391 1042.27099609375 189.5939025878906 1041.901733398438 190.2946319580078 C 1041.293090820313 191.4484252929688 1039.77587890625 192.6705169677734 1038.308715820313 193.8523864746094 C 1037.320678710938 194.6482543945313 1036.302856445313 195.4680786132813 1035.555786132813 196.27880859375 Z" stroke="none"/>
      <path d="M 1094.632446289063 98.60877990722656 C 1093.125732421875 102.2809600830078 1088.187744140625 112.6623077392578 1079.911254882813 114.4758148193359 L 1079.89599609375 114.4791717529297 L 1079.880493164063 114.4820556640625 C 1075.707763671875 115.2599945068359 1071.432739257813 115.7127075195313 1067.173217773438 115.8276672363281 C 1062.97998046875 116.0522613525391 1058.646362304688 116.2851715087891 1056.440063476563 117.1710052490234 L 1056.420288085938 117.1789703369141 L 1056.400024414063 117.1860809326172 C 1053.954956054688 118.0482940673828 1051.392211914063 118.6208648681641 1048.782470703125 118.8880462646484 C 1047.135986328125 119.11767578125 1046.14990234375 119.2857360839844 1045.486938476563 119.4496154785156 C 1044.80029296875 119.6193695068359 1044.602172851563 119.7536773681641 1044.554931640625 119.7941436767578 C 1044.551391601563 119.8130493164063 1044.546630859375 119.8515472412109 1044.546630859375 119.9194030761719 C 1044.546630859375 121.8985290527344 1044.546630859375 125.5824737548828 1040.74267578125 127.0794372558594 L 1040.716674804688 127.0896911621094 L 1040.690063476563 127.0984497070313 C 1039.556396484375 127.4728698730469 1038.369506835938 127.6627044677734 1037.162475585938 127.6627044677734 C 1036.099243164063 127.6627044677734 1035.046875 127.5144500732422 1034.0341796875 127.2219848632813 C 1033.0322265625 126.9915618896484 1031.680297851563 126.8698120117188 1030.1220703125 126.8698120117188 C 1026.41796875 126.8698120117188 1021.240966796875 127.5974273681641 1018.025756835938 129.2226409912109 C 1016.166870117188 130.1640014648438 1015.64111328125 131.2169036865234 1015.609130859375 131.5687408447266 C 1015.72119140625 131.5953369140625 1015.939331054688 131.6287994384766 1016.32763671875 131.6287994384766 C 1019.788330078125 131.6287994384766 1024.465698242188 132.0238647460938 1027.129760742188 133.9016723632813 C 1028.722412109375 134.8944549560547 1029.458984375 136.703125 1028.995483398438 138.4015960693359 L 1030.529663085938 138.4015960693359 C 1030.852661132813 138.3903656005859 1031.180053710938 138.3846893310547 1031.503173828125 138.3846893310547 C 1034.634887695313 138.3846588134766 1037.703735351563 138.9013366699219 1040.624267578125 139.9202575683594 C 1041.339721679688 140.164306640625 1041.673461914063 140.2721862792969 1042.075317382813 140.2721862792969 C 1042.529663085938 140.2721862792969 1043.1689453125 140.1310729980469 1044.354370117188 139.7691650390625 C 1046.172119140625 139.2122344970703 1047.860107421875 138.9297943115234 1049.371459960938 138.9297485351563 C 1050.638549804688 138.9297180175781 1051.806518554688 139.1281280517578 1052.841064453125 139.5188293457031 C 1055.851196289063 140.6492156982422 1057.175659179688 143.1006317138672 1056.77783203125 146.8041839599609 C 1056.54296875 149.0078277587891 1053.828979492188 151.9157867431641 1049.517944335938 154.5829315185547 C 1044.959350585938 157.4032440185547 1039.475341796875 159.369140625 1034.472045898438 159.9764862060547 C 1031.0947265625 160.3874053955078 1028.56591796875 161.0157470703125 1026.9560546875 161.8440551757813 C 1024.91357421875 162.8948516845703 1024.91357421875 163.9925079345703 1024.91357421875 164.3531951904297 C 1024.91357421875 166.0117950439453 1023.953369140625 167.6517639160156 1023.024780273438 169.2379455566406 C 1022.609008789063 169.9493103027344 1022.17919921875 170.6848754882813 1021.902465820313 171.3326721191406 C 1021.589477539063 172.0649566650391 1021.625732421875 172.3379516601563 1021.636962890625 172.3876495361328 C 1021.980346679688 172.774658203125 1022.352661132813 173.1470184326172 1022.743896484375 173.4947357177734 L 1022.750854492188 173.5009460449219 L 1022.757690429688 173.5072937011719 L 1022.762084960938 173.5112609863281 C 1023.947509765625 174.6051635742188 1025.571044921875 176.1033020019531 1024.547973632813 178.0254821777344 C 1023.724853515625 179.5770263671875 1021.53662109375 180.3040466308594 1019.504760742188 180.8106079101563 L 1019.483276367188 180.8159484863281 L 1019.461547851563 180.8203430175781 C 1019.332153320313 180.8465881347656 1019.203491210938 180.8749237060547 1019.075561523438 180.9053497314453 C 1025.942749023438 182.8074951171875 1026.505004882813 185.6951446533203 1026.505004882813 189.24755859375 C 1026.50537109375 189.2560424804688 1026.582153320313 190.1229705810547 1029.846923828125 192.3296356201172 C 1031.81201171875 193.6578063964844 1034.099243164063 194.9114990234375 1035.198364257813 195.5140075683594 L 1035.2255859375 195.5288696289063 C 1035.304809570313 195.5716552734375 1035.382934570313 195.6139831542969 1035.459716796875 195.6558227539063 C 1036.193603515625 194.9140625 1037.106201171875 194.1789855957031 1037.994995117188 193.4629974365234 C 1039.422729492188 192.31298828125 1040.899047851563 191.1238098144531 1041.459350585938 190.0615234375 C 1041.928833007813 189.1705322265625 1043.262329101563 187.9443359375 1049.593017578125 185.6054382324219 C 1053.498168945313 184.1626586914063 1058.075561523438 182.7471923828125 1061.75341796875 181.6098175048828 C 1063.325439453125 181.1237030029297 1064.68310546875 180.703857421875 1065.70166015625 180.3697204589844 C 1070.7685546875 178.7075500488281 1079.918579101563 176.9133911132813 1085.865966796875 176.9132080078125 C 1086.493774414063 176.9131774902344 1087.078857421875 176.933837890625 1087.605102539063 176.9745788574219 C 1088.717163085938 177.0606994628906 1089.752563476563 177.1717376708984 1090.75390625 177.2790985107422 C 1092.317138671875 177.4467163085938 1093.793579101563 177.6050415039063 1095.09619140625 177.6050415039063 C 1096.993408203125 177.6050415039063 1098.36279296875 177.2662048339844 1099.536499023438 176.5063781738281 C 1100.32470703125 175.9960479736328 1101.149047851563 175.7372741699219 1101.986572265625 175.7371673583984 C 1103.381469726563 175.7369842529297 1104.71923828125 176.4564514160156 1105.75341796875 177.7630157470703 C 1106.642944335938 178.8869171142578 1107.174072265625 180.2948608398438 1107.174072265625 181.529296875 C 1107.174072265625 183.0740356445313 1109.303833007813 185.59130859375 1112.871337890625 188.2629852294922 C 1113.40234375 188.66064453125 1114.396362304688 188.8887329101563 1115.598388671875 188.8887329101563 C 1117.120727539063 188.8887329101563 1118.904418945313 188.5327758789063 1120.4921875 187.9121704101563 C 1122.188232421875 187.2492065429688 1123.57666015625 186.3207092285156 1124.401611328125 185.2976531982422 C 1124.8310546875 184.7651824951172 1125.237548828125 184.2781677246094 1125.630737304688 183.8071594238281 C 1126.728271484375 182.4922180175781 1127.59521484375 181.4535827636719 1128.113525390625 180.4442443847656 C 1128.622680664063 179.452880859375 1128.739501953125 178.5935363769531 1128.504150390625 177.5706787109375 C 1127.7578125 174.3250122070313 1128.057983398438 169.5930480957031 1131.359985351563 166.9388732910156 C 1131.928955078125 166.4815521240234 1132.223510742188 166.0622253417969 1132.189331054688 165.7581329345703 C 1132.15869140625 165.4843444824219 1131.873779296875 165.1273345947266 1131.387329101563 164.7528381347656 C 1130.796142578125 164.2977905273438 1130.014038085938 163.8951110839844 1129.398803710938 163.5951538085938 C 1127.53466796875 162.6862487792969 1125.74658203125 158.6376342773438 1123.602783203125 153.4393157958984 C 1123.161987304688 152.3705749511719 1122.781372070313 151.4475555419922 1122.469848632813 150.7662658691406 C 1122.202514648438 150.1815185546875 1122.18603515625 149.556640625 1122.42236328125 148.9591522216797 C 1123.197631835938 146.998779296875 1126.725341796875 145.5534973144531 1130.81005859375 143.8800048828125 C 1133.41650390625 142.8121337890625 1136.111694335938 141.7079162597656 1137.888671875 140.5231781005859 C 1138.79248046875 139.9205780029297 1139.252197265625 139.2817993164063 1139.294189453125 138.5703277587891 C 1139.416748046875 136.4949951171875 1136.18701171875 133.7414703369141 1134.25732421875 132.0962829589844 C 1133.98095703125 131.8605651855469 1133.7197265625 131.637939453125 1133.479614257813 131.4281005859375 C 1130.600952148438 128.9071350097656 1129.200317382813 125.6531829833984 1129.19775390625 121.4798431396484 C 1129.10791015625 117.5756530761719 1128.178588867188 113.7796630859375 1126.43603515625 110.1974639892578 C 1126.271362304688 109.8700866699219 1126.128051757813 109.5696258544922 1125.989501953125 109.2789916992188 C 1125.284912109375 107.8011169433594 1124.958374023438 107.1833953857422 1123.940551757813 106.7325134277344 C 1122.685546875 106.176513671875 1120.375122070313 105.9393005371094 1116.214965820313 105.9393005371094 C 1109.383666992188 105.9393005371094 1106.942504882813 104.5013885498047 1103.851928710938 102.6809234619141 C 1102.4560546875 101.8587493896484 1100.874389648438 100.9270172119141 1098.629272460938 100.0097351074219 C 1097.32666015625 99.49003601074219 1095.98583984375 99.02012634277344 1094.632446289063 98.60877990722656 M 1094.037841796875 97.3916015625 C 1095.7265625 97.8717041015625 1097.384155273438 98.43620300292969 1099.002685546875 99.08207702636719 C 1106.174072265625 102.0108032226563 1106.530639648438 104.9393005371094 1116.214965820313 104.9393005371094 C 1125.899291992188 104.9393005371094 1125.541259765625 106.1958770751953 1127.332153320313 109.7534942626953 C 1129.132934570313 113.4530029296875 1130.1064453125 117.4328918457031 1130.19775390625 121.4680023193359 C 1130.19775390625 125.0256042480469 1131.272583007813 128.1660003662109 1134.138427734375 130.6757965087891 C 1137.010375976563 133.1847991943359 1143.463745117188 138.0079040527344 1138.443359375 141.3551940917969 C 1133.4228515625 144.7026062011719 1121.944702148438 147.21240234375 1123.379272460938 150.3504943847656 C 1124.814086914063 153.4884033203125 1127.687866210938 161.6484069824219 1129.837036132813 162.6963043212891 C 1131.986450195313 163.7442016601563 1134.852416992188 165.4147033691406 1131.986450195313 167.7182922363281 C 1129.12060546875 170.0219116210938 1128.757202148438 174.2086029052734 1129.478759765625 177.3466033935547 C 1130.20068359375 180.4846038818359 1128.048461914063 182.3684997558594 1125.180053710938 185.9253997802734 C 1123.166137695313 188.4226531982422 1118.857666015625 189.8887329101563 1115.598388671875 189.8887329101563 C 1114.215454101563 189.8887329101563 1113.021240234375 189.6246643066406 1112.271850585938 189.0634002685547 C 1109.75634765625 187.1795043945313 1106.174072265625 184.0390014648438 1106.174072265625 181.529296875 C 1106.174072265625 179.5306854248047 1104.357177734375 176.7368621826172 1101.986694335938 176.7371520996094 C 1101.38037109375 176.7372436523438 1100.737548828125 176.9201049804688 1100.079956054688 177.3457946777344 C 1098.59375 178.3079223632813 1096.956176757813 178.6050415039063 1095.09619140625 178.6050415039063 C 1092.915649414063 178.6050415039063 1090.429809570313 178.1963195800781 1087.527954101563 177.9716033935547 C 1087.016357421875 177.9319915771484 1086.460083007813 177.9131774902344 1085.865966796875 177.9132080078125 C 1080.215454101563 177.9133758544922 1071.207397460938 179.6159820556641 1066.013427734375 181.3199005126953 C 1060.272827148438 183.2030944824219 1043.77685546875 187.8085021972656 1042.344116210938 190.5276794433594 C 1041.2021484375 192.6925048828125 1037.37646484375 194.8549041748047 1035.664916992188 196.9122009277344 C 1035.40966796875 196.7684020996094 1035.106323242188 196.6007995605469 1034.747802734375 196.4073791503906 C 1032.46435546875 195.1557006835938 1025.505004882813 191.3502044677734 1025.505004882813 189.2487030029297 C 1025.505004882813 185.7962036132813 1024.98828125 183.4028015136719 1018.065795898438 181.6737060546875 C 1017.3525390625 181.5196990966797 1016.663818359375 181.2863006591797 1016.015625 180.9789123535156 C 1017.028076171875 180.4552001953125 1018.123046875 180.0714111328125 1019.262817382813 179.8403015136719 C 1020.97802734375 179.4127044677734 1023.02392578125 178.764404296875 1023.664672851563 177.5567932128906 C 1024.326538085938 176.3132019042969 1023.19091796875 175.2677001953125 1022.07958984375 174.2422027587891 C 1021.6494140625 173.8598937988281 1021.245361328125 173.4548034667969 1020.869384765625 173.0292053222656 C 1020.142333984375 172.1882019042969 1021.21435546875 170.35400390625 1022.161865234375 168.7324981689453 C 1023.02392578125 167.2601013183594 1023.91357421875 165.7373046875 1023.91357421875 164.3531951904297 C 1023.91357421875 161.5955047607422 1027.327514648438 159.8383941650391 1034.351318359375 158.9837951660156 C 1045.21044921875 157.6656036376953 1055.389526367188 150.393798828125 1055.783447265625 146.6981964111328 C 1056.130859375 143.4638061523438 1055.053344726563 141.4178009033203 1052.489501953125 140.4550018310547 C 1051.562866210938 140.1050415039063 1050.52197265625 139.9297027587891 1049.371459960938 139.9297485351563 C 1047.958129882813 139.9298095703125 1046.379638671875 140.1945343017578 1044.647338867188 140.7252960205078 C 1043.38427734375 141.1108856201172 1042.667114257813 141.2721862792969 1042.075317382813 141.2721862792969 C 1041.494750976563 141.2721862792969 1041.034912109375 141.1168823242188 1040.298706054688 140.8657989501953 C 1037.492065429688 139.8860626220703 1034.509521484375 139.3846435546875 1031.503173828125 139.3846893310547 C 1031.184814453125 139.3846893310547 1030.86572265625 139.3903198242188 1030.546997070313 139.4015960693359 L 1028.734375 139.4015960693359 C 1028.281860351563 139.4015960693359 1027.851440429688 139.4015960693359 1027.451049804688 139.4015960693359 C 1027.662353515625 139.0769958496094 1027.831909179688 138.7317962646484 1027.956176757813 138.372802734375 C 1028.449462890625 137.0205993652344 1027.887817382813 135.5388946533203 1026.5771484375 134.7357025146484 C 1024.66845703125 133.3757019042969 1021.02734375 132.6287994384766 1016.32763671875 132.6287994384766 C 1015.059326171875 132.6287994384766 1014.85595703125 132.3159027099609 1014.751220703125 132.1473999023438 C 1014.267822265625 131.3916015625 1014.97705078125 129.6455993652344 1017.573974609375 128.3305053710938 C 1020.796997070313 126.7013854980469 1025.997680664063 125.8698120117188 1030.1220703125 125.8698120117188 C 1031.735961914063 125.8698120117188 1033.185546875 125.9972229003906 1034.286743164063 126.2539978027344 C 1035.222045898438 126.5267028808594 1036.192504882813 126.6627044677734 1037.162475585938 126.6627044677734 C 1038.251708984375 126.6627044677734 1039.340209960938 126.4911193847656 1040.37646484375 126.1488952636719 C 1043.304077148438 124.9967956542969 1043.546630859375 122.3265075683594 1043.546630859375 119.9194030761719 C 1043.546630859375 118.8049011230469 1044.309692382813 118.5016021728516 1048.662353515625 117.8951110839844 C 1051.200561523438 117.6367034912109 1053.690185546875 117.081298828125 1056.067504882813 116.2429962158203 C 1058.41552734375 115.3002777099609 1062.63916015625 115.069091796875 1067.1328125 114.8283996582031 C 1071.356079101563 114.7151031494141 1075.560546875 114.2702026367188 1079.697265625 113.4989776611328 C 1088.328735351563 111.6076965332031 1093.259521484375 99.45449829101563 1094.037841796875 97.3916015625 Z" stroke="none" fill="#30abec"/>
    </g>
    <text id="wushanxian" transform="translate(113.579 79.746)" fill="#fff" font-size="10" font-family="MicrosoftYaHei, Microsoft YaHei"><tspan x="0" y="0">巫山县</tspan></text>
    <g transform="matrix(1, 0, 0, 1, 30.06, 25.39)" filter="url(#thick_2)">
      <path id="thick_2-2" data-name="thick_2" d="M1140.7,142.819a57.421,57.421,0,0,1-.052,1.977,2.909,2.909,0,0,1-.016.41,2.943,2.943,0,0,1-.01.482,3.028,3.028,0,0,1,0,.4,2.978,2.978,0,0,1,0,.533,2.887,2.887,0,0,1-.036.738c0,.088-.006.176-.015.263a2.924,2.924,0,0,1-.027.556c0,.07,0,.139,0,.208a3.025,3.025,0,0,1,.012.662,448.123,448.123,0,0,0-.016.959,2.934,2.934,0,0,1-.028.667,2.807,2.807,0,0,1-.056.587,3.06,3.06,0,0,1,.016.641,2.95,2.95,0,0,1-.018.564,2.868,2.868,0,0,1-.065.759c0,.038,0,.075-.007.113a3,3,0,0,1,0,.346,2.928,2.928,0,0,1-.025.884,3.517,3.517,0,0,1-1.865,2.892c-2.273,1.515-5.857,2.858-8.976,4.165-.017-.1-.554.44-.576.343s-.3-.328-.421-.6c-1.759-2.333-3.945-8.409-5.137-11.017-1.435-3.138,10.044-5.648,15.064-9a3.8,3.8,0,0,0,1.756-2.239,1,1,0,0,1,.13.592C1140.36,139.942,1140.724,142.588,1140.7,142.819Z" transform="translate(-987.06 -97.39)" fill="url(#linear-gradient)"/>
    </g>
    <g transform="matrix(1, 0, 0, 1, 30.06, 25.39)" filter="url(#thick_1)">
      <path id="thick_1-2" data-name="thick_1" d="M27.084,55.5h0c-3.161-1.1-7.48-1.376-10.633-1.579-2.206-.142-3.948-.254-4.483-.582C10.06,51.985,6.42,51.237,1.718,51.237c-1.277,0-1.472-.313-1.577-.482.121-.077.066-5.228.017-9.772C.125,37.929.1,35.294.128,34.734l.014.022c.105.168.3.481,1.577.481,4.7,0,8.342.748,10.249,2.107a3.049,3.049,0,0,1,1.38,3.638,4.756,4.756,0,0,1-.506,1.029h3.1c.317-.011.639-.017.957-.017a26.61,26.61,0,0,1,8.795,1.481,5.309,5.309,0,0,0,1.777.406,9.282,9.282,0,0,0,2.572-.546,16.343,16.343,0,0,1,4.725-.8,8.817,8.817,0,0,1,3.118.525c2.564.963,3.642,3.006,3.294,6.243-.14,1.311-1.538,3.12-3.837,4.963C36.048,54.471,27.11,55.5,27.084,55.5Z" transform="translate(27.54)" stroke="rgba(0,0,0,0)" stroke-width="1" fill="url(#linear-gradient-2)"/>
    </g>
    <g transform="matrix(1, 0, 0, 1, 30.06, 25.39)" filter="url(#thick_3)">
      <path id="thick_3-2" data-name="thick_3" d="M21.055,115.52h0c-.271-.153-.579-.322-.916-.5L20.116,115c-2.28-1.249-9.22-5.051-9.22-7.146,0-3.453-.518-5.846-7.439-7.574a9.531,9.531,0,0,1-2.05-.695c-.037-.312,0-4.524.036-8.6.033-3.764.065-7.318.033-7.35a.021.021,0,0,1,.01,0l.019,0a9.491,9.491,0,0,0,1.953.65C10.378,86.011,10.9,88.4,10.9,91.857c0,2.092,6.933,5.893,9.211,7.142l.032.017c.377.2.688.376.917.5a21.613,21.613,0,0,1,2.957-2.67,14.819,14.819,0,0,0,3.722-3.714c1.177-2.234,12.328-5.682,19.708-7.964,1.576-.487,2.936-.908,3.962-1.244a77.154,77.154,0,0,1,19.854-3.407c.6,0,1.16.02,1.661.058,1.1.085,2.125.2,3.118.3a43.417,43.417,0,0,0,4.45.332,8.7,8.7,0,0,0,4.984-1.259,3.491,3.491,0,0,1,1.907-.608c2.429,0,4.187,2.862,4.187,4.792,0,2.581,3.821,5.828,6.1,7.535a5.631,5.631,0,0,0,3.326.825c3.1,0,7.506-1.389,9.582-3.963.423-.525.827-1.008,1.217-1.475,2.228-2.668,3.7-4.429,3.082-7.1a12.264,12.264,0,0,1-.091-5.127,7.64,7.64,0,0,1,2.6-4.5,2.685,2.685,0,0,0,1.2-1.854c.006.1.022.283.043.543,1.055,12.63-.1,16.385-1.248,17.311-2.941,2.363-3.189,6.664-2.508,9.628.616,2.674-.854,4.435-3.08,7.1-.391.468-.794.952-1.218,1.477-2.076,2.574-6.485,3.963-9.581,3.963a5.63,5.63,0,0,1-3.327-.826c-2.278-1.706-6.1-4.952-6.1-7.534,0-1.93-1.758-4.792-4.187-4.792a3.491,3.491,0,0,0-1.907.609,8.7,8.7,0,0,1-4.984,1.259,43.409,43.409,0,0,1-4.45-.332c-.994-.107-2.022-.217-3.119-.3-.5-.039-1.059-.058-1.66-.058A77.191,77.191,0,0,0,51.4,99.928c-1.028.337-2.391.759-3.97,1.247-7.378,2.282-18.523,5.729-19.7,7.961a14.81,14.81,0,0,1-3.721,3.714,21.6,21.6,0,0,0-2.957,2.67Z" transform="translate(27.54)" stroke="rgba(0,0,0,0)" stroke-width="1" fill="url(#linear-gradient-3)"/>
    </g>
    <path id="thick_4" d="M-1645.609-274.056h0v-6.159a14.176,14.176,0,0,0,1.08,1.067l.006.006c1.1,1.017,2.239,2.068,1.578,3.309a4.552,4.552,0,0,1-2.664,1.778Z" transform="translate(1709.61 381.392)" fill="url(#linear-gradient-4)"/>
  </g>
</svg>
