<svg xmlns="http://www.w3.org/2000/svg" xmlns:xlink="http://www.w3.org/1999/xlink" width="302.378" height="122.5" viewBox="0 0 302.378 122.5">
  <defs>
    <radialGradient id="radial-gradient" cx="0.483" cy="0.5" r="1.768" gradientTransform="translate(0.347 0.252) scale(0.283 0.496)" gradientUnits="objectBoundingBox">
      <stop offset="0" stop-color="#1fb9e6"/>
      <stop offset="1" stop-color="#0669d2"/>
    </radialGradient>
    <linearGradient id="linear-gradient" x1="0.604" y1="0.923" x2="0.604" y2="0.469" gradientUnits="objectBoundingBox">
      <stop offset="0" stop-color="#191e64"/>
      <stop offset="1" stop-color="#17448b"/>
    </linearGradient>
    <filter id="thick" x="0" y="10.018" width="302.378" height="112.482" filterUnits="userSpaceOnUse">
      <feOffset dy="8" input="SourceAlpha"/>
      <feGaussianBlur stdDeviation="9" result="blur"/>
      <feFlood flood-color="#0f093c" flood-opacity="0.161"/>
      <feComposite operator="in" in2="blur"/>
      <feComposite in="SourceGraphic"/>
    </filter>
  </defs>
  <g id="wuxi" transform="translate(-12.065 -62.873)">
    <g id="Op_component_13" data-name="Op component 13" transform="translate(-805 1)" opacity="0.67" fill="url(#radial-gradient)">
      <path d="M 985.2354125976563 131.3727416992188 C 982.406005859375 131.3727416992188 980.7763671875 130.1761627197266 980.6079711914063 129.8645324707031 L 980.605224609375 129.8575592041016 L 980.5995483398438 129.8451232910156 C 979.3228149414063 127.0556259155273 976.455810546875 125.185905456543 973.1173706054688 124.9655914306641 L 973.1106567382813 124.9651260375977 L 973.1038818359375 124.9648742675781 L 972.463623046875 124.9399642944336 L 972.458251953125 124.9397506713867 L 972.4529418945313 124.9396514892578 C 972.4238891601563 124.9391555786133 972.3955078125 124.9388732910156 972.36865234375 124.9388732910156 C 972.3618774414063 124.9388732910156 972.35498046875 124.9388732910156 972.347900390625 124.9388885498047 C 972.1685791015625 124.7351913452148 971.7262573242188 124.0976104736328 970.823486328125 122.134407043457 C 969.1841430664063 118.5673751831055 967.1890258789063 117.8301239013672 964.3323974609375 117.1124649047852 L 964.3256225585938 117.1107788085938 L 964.31884765625 117.109245300293 C 963.2251586914063 116.8667449951172 962.1661987304688 116.5043106079102 961.1713256835938 116.0320281982422 C 959.351318359375 115.147590637207 955.362060546875 114.5399017333984 948.6209106445313 114.1216583251953 C 942.9114990234375 113.7673721313477 935.26513671875 113.537467956543 923.053466796875 113.3528747558594 C 920.767822265625 113.3202209472656 918.7673950195313 113.2902145385742 917.4298095703125 113.2535018920898 C 914.3966674804688 113.1731567382813 910.9000244140625 112.7889785766602 907.197998046875 112.3821411132813 C 901.0144653320313 111.6018829345703 894.7141723632813 111.1688613891602 888.47119140625 111.0950317382813 L 888.46826171875 111.0950012207031 L 888.4652709960938 111.0950012207031 C 884.6062622070313 111.0950012207031 881.9542236328125 111.6384048461914 880.3575439453125 112.7563095092773 C 878.9379272460938 113.7502136230469 878.6766967773438 115.0042190551758 878.5205688476563 115.7534332275391 C 878.4661254882813 116.0079116821289 878.4039916992188 116.2982788085938 878.3557739257813 116.3713607788086 C 878.2549438476563 116.4199676513672 877.8583984375 116.4306640625 877.4390869140625 116.4420013427734 C 877.0414428710938 116.4525604248047 876.6552734375 116.4579086303711 876.2915649414063 116.4579086303711 C 873.087646484375 116.4579086303711 872.1026000976563 116.0429382324219 871.8770141601563 115.9157485961914 L 871.8734741210938 115.9137802124023 L 871.869873046875 115.9118423461914 C 871.7332763671875 115.8377151489258 871.5046997070313 115.7136840820313 871.5046997070313 115.0579071044922 C 871.5046997070313 113.5118255615234 871.5043334960938 109.9938278198242 864.7122192382813 109.50244140625 L 865.171875 109.0802154541016 C 865.7589111328125 108.5305633544922 866.0634155273438 107.9580612182617 866.0805053710938 107.3754043579102 C 866.0952758789063 106.8735885620117 865.893798828125 106.3880004882813 865.4979858398438 105.9711227416992 C 864.1028442382813 104.5099029541016 860.8052368164063 104.2106857299805 856.2827758789063 104.2106857299805 C 854.1099243164063 104.2106857299805 848.442138671875 101.9414978027344 845.8265991210938 100.0244064331055 C 845.3043212890625 99.64231109619141 845.0923461914063 99.27737426757813 845.0680541992188 99.06318664550781 C 845.0579223632813 98.97412109375 845.0767211914063 98.90937042236328 845.1309204101563 98.84668731689453 C 845.3515625 98.5872802734375 846.39599609375 98.15346527099609 848.9279174804688 98.15346527099609 C 849.0952758789063 98.15346527099609 849.2679443359375 98.15550231933594 849.4410400390625 98.15946960449219 L 849.8521728515625 98.16512298583984 L 849.8555908203125 98.16518402099609 L 849.8590087890625 98.16518402099609 C 860.4238891601563 98.16518402099609 864.5130004882813 90.05552673339844 864.9445190429688 89.13084411621094 L 864.9509887695313 89.11699676513672 L 864.95654296875 89.102783203125 C 865.1346435546875 88.65115356445313 865.5180053710938 88.28386688232422 866.0151977539063 88.08518218994141 C 866.294921875 88.09176635742188 866.5689697265625 88.16007232666016 866.8104248046875 88.28371429443359 L 866.8250732421875 88.29121398925781 L 866.8401489257813 88.29775238037109 C 868.0095825195313 88.80258941650391 869.184814453125 89.05853271484375 870.333251953125 89.05846405029297 C 873.1524047851563 89.05828094482422 875.4496459960938 87.55443572998047 877.4764404296875 86.22765350341797 L 877.4847412109375 86.22225189208984 L 877.54296875 86.18399810791016 C 878.2423095703125 85.72488403320313 879.034912109375 85.20459747314453 879.9216918945313 84.66822052001953 C 882.3286743164063 83.28658294677734 884.0782470703125 81.09637451171875 884.7771606445313 78.61044311523438 C 886.2113647460938 78.73440551757813 887.6643676757813 78.79718780517578 889.1024780273438 78.79718780517578 C 890.9091796875 78.79715728759766 892.7344360351563 78.69821929931641 894.5278930664063 78.50306701660156 C 898.2742919921875 78.21934509277344 901.916748046875 77.09195709228516 905.06201171875 75.24259185791016 L 905.06689453125 75.23971557617188 L 905.0717163085938 75.23674774169922 C 906.9078979492188 74.10025024414063 909.0494995117188 73.36540222167969 911.265625 73.1114501953125 C 914.4912719726563 72.82955169677734 919.3535766601563 72.49384307861328 924.214599609375 72.49384307861328 C 927.92822265625 72.49384307861328 931.08740234375 72.69027709960938 933.6044311523438 73.07768249511719 C 935.3756713867188 73.35002899169922 937.3595581054688 73.48809051513672 939.5010375976563 73.48809051513672 C 948.9901123046875 73.48809051513672 959.3121337890625 70.85787200927734 967.1126098632813 66.45227813720703 L 968.2182006835938 65.82618713378906 L 968.6002197265625 65.60981750488281 C 974.779296875 65.56230163574219 980.2521362304688 64.90032958984375 983.3408813476563 63.8185920715332 C 984.82958984375 63.29718780517578 986.3008422851563 63.05434417724609 987.970947265625 63.05434417724609 C 989.3876342773438 63.05434417724609 990.8226318359375 63.22753143310547 992.3419189453125 63.41087341308594 C 994.0928344726563 63.62215423583984 996.0773315429688 63.86165618896484 998.337646484375 63.86162185668945 C 998.667724609375 63.86162185668945 999.0011596679688 63.85652923583984 999.3286743164063 63.846435546875 C 1001.701721191406 63.77346801757813 1004.12548828125 63.40559387207031 1006.469421386719 63.04984283447266 C 1008.763061523438 62.70168685913086 1010.929504394531 62.37287521362305 1012.757385253906 62.37287521362305 C 1014.505187988281 62.37287521362305 1015.755187988281 62.68428039550781 1016.578857421875 63.32487487792969 C 1017.9736328125 64.40987396240234 1018.742797851563 64.86343383789063 1019.895629882813 64.86337280273438 C 1020.415771484375 64.86334228515625 1020.986755371094 64.77334594726563 1021.777099609375 64.64881134033203 C 1022.981811523438 64.45893859863281 1024.631713867188 64.19893646240234 1027.3095703125 64.05537414550781 C 1027.99658203125 64.01856231689453 1028.69921875 63.99990463256836 1029.398071289063 63.99990463256836 C 1033.545532226563 63.99990463256836 1037.349731445313 64.63184356689453 1040.10986328125 65.77931213378906 C 1043.403076171875 67.14837646484375 1045.07275390625 69.14659118652344 1045.07275390625 71.71849822998047 C 1045.07275390625 74.19228363037109 1044.200561523438 76.73006439208984 1043.431030273438 78.96909332275391 C 1042.535400390625 81.57515716552734 1041.761840820313 83.82584381103516 1042.648559570313 85.28071594238281 C 1043.100952148438 86.02303314208984 1043.916625976563 86.47093963623047 1045.142333984375 86.65006256103516 C 1045.87890625 86.75768280029297 1046.637939453125 86.80999755859375 1047.462890625 86.80996704101563 C 1049.255126953125 86.80987548828125 1051.071533203125 86.55418395996094 1052.828002929688 86.30690765380859 C 1054.594604492188 86.05821990966797 1056.421264648438 85.80106353759766 1058.233520507813 85.80106353759766 C 1059.843994140625 85.80106353759766 1061.28515625 86.00468444824219 1062.639038085938 86.42356109619141 C 1064.5732421875 87.02202606201172 1066.413208007813 87.79721832275391 1068.192504882813 88.546875 C 1071.59375 89.97984313964844 1074.806396484375 91.33334350585938 1078.285400390625 91.33312225341797 C 1078.75732421875 91.33309173583984 1079.230712890625 91.3074951171875 1079.692626953125 91.25702667236328 C 1081.157348632813 91.09709167480469 1082.89599609375 91.00899505615234 1084.588500976563 91.00899505615234 C 1086.539794921875 91.00899505615234 1088.241821289063 91.12274932861328 1089.510375976563 91.33796691894531 C 1091.414672851563 91.66099548339844 1091.582397460938 92.09309387207031 1091.583618164063 92.09737396240234 C 1091.584350585938 92.10015106201172 1091.591064453125 92.41524505615234 1090.504150390625 93.04990386962891 C 1089.0126953125 93.91974639892578 1088.41015625 94.55224609375 1088.424438476563 95.23287200927734 C 1088.434204101563 95.69084930419922 1088.740844726563 96.01183319091797 1089.019653320313 96.21491241455078 L 1088.92041015625 96.48659515380859 C 1087.868530273438 99.35715484619141 1086.1396484375 102.5779342651367 1084.2958984375 105.1018447875977 C 1082.068481445313 108.1509017944336 1079.858032226563 109.9904556274414 1077.903076171875 110.4224166870117 C 1074.207641601563 111.088493347168 1070.423217773438 111.4759902954102 1066.655151367188 111.5740585327148 L 1066.648193359375 111.5742492675781 L 1066.641235351563 111.5746231079102 L 1066.635009765625 111.5749664306641 C 1061.487548828125 111.852653503418 1056.625 112.1149673461914 1053.157958984375 113.5044097900391 C 1051.329833984375 114.1136016845703 1049.419677734375 114.5187377929688 1047.47998046875 114.7086868286133 L 1047.4697265625 114.7096862792969 L 1047.459594726563 114.7111206054688 C 1043.561401367188 115.255126953125 1038.22265625 116.0001525878906 1038.22265625 119.9659042358398 C 1038.22265625 122.6013107299805 1037.667236328125 123.2490081787109 1037.520385742188 123.3739929199219 C 1037.443725585938 123.3791885375977 1037.366455078125 123.3818130493164 1037.289794921875 123.3818130493164 C 1036.928588867188 123.3818130493164 1036.573852539063 123.3253402709961 1036.235229492188 123.2139358520508 L 1036.214233398438 123.20703125 L 1036.192626953125 123.2019653320313 C 1034.457885742188 122.7973098754883 1032.395874023438 122.5920944213867 1030.063842773438 122.5920944213867 C 1024.274047851563 122.5920944213867 1018.041870117188 123.8554077148438 1014.186889648438 125.8104705810547 C 1011.807189941406 127.0165634155273 1010.135620117188 128.6363220214844 1009.533935546875 130.3017120361328 C 1002.226318359375 130.5442199707031 989.8469848632813 130.9888458251953 986.1882934570313 131.3285675048828 C 985.8687133789063 131.3578491210938 985.5479125976563 131.3727416992188 985.2354125976563 131.3727416992188 Z" stroke="none"/>
      <path d="M 1012.757385253906 62.87284851074219 C 1010.96728515625 62.87284851074219 1008.818908691406 63.19892883300781 1006.54443359375 63.54415893554688 C 1004.185913085938 63.90213012695313 1001.747131347656 64.27230834960938 999.343994140625 64.34622192382813 C 999.0110473632813 64.35643005371094 998.6724853515625 64.36161804199219 998.337646484375 64.36161804199219 C 996.0473022460938 64.36161804199219 994.0469970703125 64.12025451660156 992.2821655273438 63.90724182128906 C 990.7781372070313 63.72578430175781 989.3576049804688 63.55433654785156 987.970947265625 63.55433654785156 C 986.3588256835938 63.55433654785156 984.9400634765625 63.78825378417969 983.506103515625 64.29046630859375 C 980.390380859375 65.38168334960938 974.9124755859375 66.05232238769531 968.7339477539063 66.10870361328125 L 968.464599609375 66.26124572753906 L 967.3585205078125 66.88762664794922 C 959.4863891601563 71.33371734619141 949.0723266601563 73.98809051513672 939.5009765625 73.98809051513672 C 937.334228515625 73.98809051513672 935.3248291015625 73.84806060791016 933.5283813476563 73.57187652587891 C 931.0364379882813 73.18830871582031 927.90283203125 72.99384307861328 924.214599609375 72.99384307861328 C 919.3748779296875 72.99384307861328 914.5311279296875 73.32809448242188 911.3154296875 73.6090087890625 C 909.1746826171875 73.85541534423828 907.1068115234375 74.56517791748047 905.3348388671875 75.66190338134766 L 905.3251953125 75.66787719726563 L 905.3154296875 75.67362213134766 C 902.1072998046875 77.55995941162109 898.3935546875 78.7103271484375 894.5748291015625 79.00092315673828 C 892.7657470703125 79.19751739501953 890.9246826171875 79.29718780517578 889.1024169921875 79.29718780517578 C 887.7847900390625 79.29718780517578 886.4549560546875 79.24501800537109 885.137939453125 79.14185333251953 C 884.3363037109375 81.58712768554688 882.5648193359375 83.72611999511719 880.175048828125 85.09933471679688 C 879.298095703125 85.62987518310547 878.511474609375 86.14633178710938 877.817138671875 86.60218811035156 L 877.7586669921875 86.64059448242188 L 877.74951171875 86.64656066894531 C 875.6644287109375 88.01146697998047 873.301025390625 89.55846405029297 870.333251953125 89.55846405029297 C 869.1162109375 89.55846405029297 867.874267578125 89.28874969482422 866.6419677734375 88.75678253173828 L 866.61181640625 88.74378204345703 L 866.5826416015625 88.72881317138672 C 866.4368896484375 88.65420532226563 866.27392578125 88.607421875 866.105224609375 88.59113311767578 C 865.78271484375 88.74427032470703 865.5379638671875 88.99124145507813 865.421875 89.28596496582031 L 865.41064453125 89.31449890136719 L 865.397705078125 89.34230804443359 C 864.9522705078125 90.29656219482422 860.7327880859375 98.66518402099609 849.8590087890625 98.66518402099609 L 849.8521728515625 98.66518402099609 L 849.84521484375 98.66509246826172 L 849.438720703125 98.65950012207031 L 849.4342041015625 98.65943908691406 L 849.4295654296875 98.65933990478516 C 849.2601318359375 98.65543365478516 849.09130859375 98.65346527099609 848.927978515625 98.65346527099609 C 846.91455078125 98.65346527099609 845.93603515625 98.94257354736328 845.61181640625 99.10907745361328 C 845.6798095703125 99.22267150878906 845.8299560546875 99.40733337402344 846.1221923828125 99.62112426757813 C 847.3411865234375 100.5146560668945 849.33154296875 101.5505905151367 851.4462890625 102.3922805786133 C 853.4896240234375 103.2054977416992 855.3427734375 103.7106857299805 856.28271484375 103.7106857299805 C 860.9334716796875 103.7106857299805 864.341796875 104.0361862182617 865.860595703125 105.6268768310547 C 866.35009765625 106.1425628662109 866.5989990234375 106.7522811889648 866.580322265625 107.3901519775391 C 866.562744140625 107.9883804321289 866.313232421875 108.5657043457031 865.837646484375 109.1111145019531 C 868.1636962890625 109.4151840209961 869.8065185546875 110.1385955810547 870.828369140625 111.3015899658203 C 872.004638671875 112.6404342651367 872.004638671875 114.2130279541016 872.004638671875 115.0579071044922 C 872.004638671875 115.3559341430664 872.065185546875 115.4446868896484 872.0655517578125 115.4451217651367 C 872.065673828125 115.4452209472656 872.074462890625 115.4539642333984 872.1083984375 115.4724044799805 L 872.115478515625 115.4762191772461 L 872.1224365234375 115.4801864624023 C 872.2640380859375 115.5599365234375 873.130126953125 115.9579086303711 876.2916259765625 115.9579086303711 C 876.65087890625 115.9579086303711 877.0325927734375 115.9526214599609 877.4256591796875 115.9421844482422 C 877.6214599609375 115.9368896484375 877.8214111328125 115.9314880371094 877.9715576171875 115.9226989746094 C 877.9910888671875 115.8378601074219 878.011962890625 115.7404861450195 878.0316162109375 115.6485366821289 C 878.202880859375 114.8264312744141 878.49072265625 113.4529342651367 880.07080078125 112.3467178344727 C 881.75439453125 111.1679992675781 884.500244140625 110.5950012207031 888.46533203125 110.5950012207031 L 888.47119140625 110.5950012207031 L 888.4771728515625 110.5950622558594 C 894.7374267578125 110.6691207885742 901.05517578125 111.1032257080078 907.2552490234375 111.8854064941406 C 910.9462890625 112.2910079956055 914.432373046875 112.6739196777344 917.4435424804688 112.7536849975586 C 918.778076171875 112.7903137207031 920.7767944335938 112.8203125 923.06103515625 112.8529357910156 C 944.9536743164063 113.1838760375977 957.547119140625 113.7169570922852 961.3916625976563 115.5831527709961 C 962.3509521484375 116.0379867553711 963.3721923828125 116.38720703125 964.4270629882813 116.6211242675781 L 964.440673828125 116.624153137207 L 964.4542236328125 116.6275329589844 C 967.3593139648438 117.357307434082 969.5492553710938 118.1645584106445 971.2777709960938 121.9254989624023 C 971.9923095703125 123.479377746582 972.400390625 124.1581649780273 972.6008911132813 124.4449234008789 L 973.1233520507813 124.4652481079102 L 973.1368408203125 124.4657821655273 L 973.1503295898438 124.4666519165039 C 976.6611328125 124.698356628418 979.681640625 126.6675796508789 981.0411987304688 129.6087951660156 C 981.2564086914063 129.8493194580078 982.6657104492188 130.8727416992188 985.2354736328125 130.8727416992188 C 985.5326538085938 130.8727416992188 985.8380737304688 130.8585662841797 986.1420288085938 130.8306884765625 C 989.7586059570313 130.4949035644531 1001.841247558594 130.0577697753906 1009.191528320313 129.8127746582031 C 1009.923400878906 128.1424560546875 1011.617980957031 126.5518798828125 1013.960693359375 125.3645324707031 C 1017.880310058594 123.3767166137695 1024.201171875 122.0921859741211 1030.063842773438 122.0920944213867 C 1032.433837890625 122.0920639038086 1034.534057617188 122.3016586303711 1036.30615234375 122.7150573730469 L 1036.349365234375 122.7251205444336 L 1036.391479492188 122.7389984130859 C 1036.674560546875 122.8321151733398 1036.971313476563 122.8801422119141 1037.273803710938 122.8817672729492 C 1037.421142578125 122.625617980957 1037.72265625 121.8688278198242 1037.72265625 119.9659042358398 C 1037.72265625 117.9716262817383 1038.948608398438 116.4778747558594 1041.366455078125 115.526123046875 C 1043.21435546875 114.7986526489258 1045.529907226563 114.4755325317383 1047.390380859375 114.2159042358398 L 1047.410888671875 114.2130584716797 L 1047.43115234375 114.2110595703125 C 1049.3291015625 114.0252227783203 1051.197998046875 113.6294021606445 1052.986572265625 113.0344696044922 C 1056.529052734375 111.6194839477539 1061.425415039063 111.3552627563477 1066.608154296875 111.07568359375 L 1066.6142578125 111.0753402709961 L 1066.628295898438 111.074592590332 L 1066.64208984375 111.0742492675781 C 1070.381713867188 110.9769134521484 1074.137329101563 110.5926361083984 1077.804809570313 109.9320602416992 C 1079.611083984375 109.5280914306641 1081.772094726563 107.7089233398438 1083.89208984375 104.8069076538086 C 1085.698974609375 102.333625793457 1087.3935546875 99.18192291259766 1088.431884765625 96.36611175537109 C 1088.103515625 96.03885650634766 1087.933349609375 95.66335296630859 1087.924560546875 95.243408203125 C 1087.9013671875 94.14268493652344 1089.02978515625 93.33100128173828 1090.252075195313 92.61815643310547 C 1090.54345703125 92.44798278808594 1090.73876953125 92.30951690673828 1090.868408203125 92.20408630371094 C 1090.574584960938 92.08071136474609 1090.021484375 91.91006469726563 1089.021484375 91.76796722412109 C 1087.829223632813 91.59856414794922 1086.29638671875 91.50899505615234 1084.58837890625 91.50899505615234 C 1082.913696289063 91.50899505615234 1081.194213867188 91.59603118896484 1079.746826171875 91.75408935546875 C 1079.266723632813 91.80652618408203 1078.77490234375 91.83312225341797 1078.285400390625 91.83312225341797 C 1074.705322265625 91.83312225341797 1071.447509765625 90.46065521240234 1067.99853515625 89.00759124755859 C 1066.230224609375 88.26265716552734 1064.40185546875 87.49237060546875 1062.491333007813 86.90121459960938 C 1061.18603515625 86.49737548828125 1059.793212890625 86.30106353759766 1058.233520507813 86.30106353759766 C 1056.456420898438 86.30106353759766 1054.6474609375 86.55574798583984 1052.898193359375 86.80203247070313 C 1051.12451171875 87.05175018310547 1049.290283203125 87.30996704101563 1047.462890625 87.30996704101563 C 1046.613037109375 87.30996704101563 1045.830322265625 87.25593566894531 1045.070068359375 87.14481353759766 C 1043.707153320313 86.94565582275391 1042.748779296875 86.40602874755859 1042.221557617188 85.54093933105469 C 1041.212646484375 83.885498046875 1042.021606445313 81.53184509277344 1042.958251953125 78.80659484863281 C 1043.714965820313 76.60456085205078 1044.57275390625 74.10874938964844 1044.57275390625 71.71849822998047 C 1044.57275390625 69.36796569824219 1043.006591796875 67.52506256103516 1039.91796875 66.24099731445313 C 1037.21728515625 65.11824798583984 1033.481201171875 64.49990844726563 1029.39794921875 64.49990844726563 C 1028.707763671875 64.49990844726563 1028.01416015625 64.518310546875 1027.33642578125 64.55465698242188 C 1024.684326171875 64.69684600830078 1023.049194335938 64.95452880859375 1021.855224609375 65.14268493652344 C 1021.042297363281 65.27081298828125 1020.454956054688 65.36337280273438 1019.895568847656 65.36337280273438 C 1018.603149414063 65.36337280273438 1017.733154296875 64.85624694824219 1016.271850585938 63.71952819824219 C 1015.539306640625 63.14981079101563 1014.389770507813 62.87284851074219 1012.757385253906 62.87284851074219 M 1012.757385253906 61.87284851074219 C 1014.451354980469 61.87284851074219 1015.878723144531 62.14691162109375 1016.885803222656 62.93019104003906 C 1018.291870117188 64.02394104003906 1018.948486328125 64.36337280273438 1019.895568847656 64.36337280273438 C 1021.121154785156 64.36337280273438 1022.832946777344 63.79464721679688 1027.282836914063 63.55609130859375 C 1027.971923828125 63.5191650390625 1028.67919921875 63.49989318847656 1029.39794921875 63.49989318847656 C 1036.908447265625 63.49989318847656 1045.57275390625 65.60762023925781 1045.57275390625 71.71849822998047 C 1045.57275390625 78.4141845703125 1039.4765625 85.31681060791016 1045.214599609375 86.15531158447266 C 1045.963989257813 86.26483154296875 1046.712646484375 86.30996704101563 1047.462890625 86.30996704101563 C 1051.007080078125 86.30996704101563 1054.569702148438 85.30104827880859 1058.233520507813 85.30104827880859 C 1059.732177734375 85.30104827880859 1061.248779296875 85.47003936767578 1062.786865234375 85.94590759277344 C 1068.397827148438 87.68199920654297 1073.097045898438 90.83312225341797 1078.285400390625 90.83312225341797 C 1078.732177734375 90.83312225341797 1079.183349609375 90.80968475341797 1079.638305664063 90.76000213623047 C 1081.09716796875 90.60066986083984 1082.857177734375 90.50899505615234 1084.58837890625 90.50899505615234 C 1089.666015625 90.50899505615234 1094.496337890625 91.29768371582031 1090.75634765625 93.481689453125 C 1088.614379882813 94.73090362548828 1088.506713867188 95.4088134765625 1089.6298828125 96.00190734863281 L 1089.390014648438 96.65821838378906 C 1087.44482421875 101.9665908813477 1082.623779296875 109.9011840820313 1078.001098632813 110.9128112792969 C 1074.266845703125 111.5864028930664 1070.475463867188 111.9748077392578 1066.668212890625 112.0739059448242 C 1061.5517578125 112.3499069213867 1056.723022460938 112.6099014282227 1053.33056640625 113.9739074707031 C 1051.4609375 114.5981826782227 1049.512084960938 115.012092590332 1047.528686523438 115.2063140869141 C 1043.81396484375 115.7246856689453 1038.72265625 116.4355926513672 1038.72265625 119.9659042358398 C 1038.72265625 123.2813110351563 1037.85205078125 123.7939987182617 1037.673095703125 123.8629989624023 C 1037.54541015625 123.8755645751953 1037.41748046875 123.8818130493164 1037.289794921875 123.8818130493164 C 1036.877685546875 123.8818130493164 1036.467651367188 123.8167724609375 1036.078979492188 123.6889038085938 C 1034.338745117188 123.2829360961914 1032.265869140625 123.0920639038086 1030.063842773438 123.0921020507813 C 1024.593017578125 123.0921936035156 1018.328491210938 124.2706680297852 1014.413024902344 126.2564010620117 C 1011.981628417969 127.4886856079102 1010.338195800781 129.1658020019531 1009.904113769531 130.7896881103516 C 1003.151489257813 131.0128173828125 990.0023193359375 131.4765930175781 986.2344970703125 131.8264007568359 C 985.8886108398438 131.8581237792969 985.555419921875 131.8727416992188 985.2354736328125 131.8727416992188 C 982.1883544921875 131.8727416992188 980.3392944335938 130.5476684570313 980.1448974609375 130.05322265625 C 978.9525756835938 127.4480895996094 976.2183837890625 125.6713104248047 973.08447265625 125.4645004272461 L 972.4442138671875 125.4395904541016 C 972.4180908203125 125.4391326904297 972.392578125 125.438850402832 972.368408203125 125.438850402832 C 972.2666015625 125.438850402832 972.189208984375 125.4439086914063 972.1939697265625 125.4620895385742 C 971.8468017578125 125.2664031982422 971.2315063476563 124.2184066772461 970.3692016601563 122.3433074951172 C 968.81787109375 118.9677810668945 967.0081787109375 118.3001861572266 964.2105712890625 117.5974044799805 C 963.0791015625 117.3464965820313 961.9865112304688 116.9724960327148 960.9569091796875 116.4837188720703 C 957.29150390625 114.7024993896484 944.2808227539063 114.1738128662109 923.0458984375 113.8528137207031 C 920.685302734375 113.819091796875 918.7310791015625 113.7894058227539 917.4160766601563 113.7533111572266 C 914.3878173828125 113.673095703125 910.90673828125 113.2926864624023 907.13916015625 112.8786849975586 C 900.951171875 112.0976867675781 894.7138671875 111.6689071655273 888.46533203125 111.5950012207031 C 879.905517578125 111.5950012207031 879.32080078125 114.3639068603516 879.010009765625 115.8554077148438 C 878.7852783203125 116.9058074951172 878.7852783203125 116.9058074951172 877.45263671875 116.9418106079102 C 877.0382080078125 116.9528121948242 876.6519775390625 116.9579010009766 876.2916259765625 116.9579010009766 C 873.2314453125 116.9579010009766 872.0555419921875 116.5903549194336 871.6314697265625 116.3513107299805 C 871.337158203125 116.1915893554688 871.004638671875 115.8964080810547 871.004638671875 115.0579071044922 C 871.004638671875 113.4499969482422 871.004638671875 110.1114044189453 863.58447265625 109.9509048461914 L 863.5098876953125 109.9509048461914 C 863.79296875 109.663688659668 864.1405029296875 109.3490905761719 864.3408203125 109.1645889282227 L 864.8336181640625 108.7119979858398 C 866.02197265625 107.5991897583008 865.532958984375 106.7341842651367 865.1353759765625 106.3154067993164 C 863.7900390625 104.9064025878906 860.08349609375 104.7106857299805 856.28271484375 104.7106857299805 C 853.99853515625 104.7106857299805 848.2677001953125 102.43359375 845.531005859375 100.4276885986328 C 844.641845703125 99.77709197998047 844.328125 99.01068878173828 844.752685546875 98.51968383789063 C 845.2196044921875 97.97063446044922 846.7830810546875 97.65348052978516 848.927978515625 97.65348052978516 C 849.09912109375 97.65348052978516 849.274169921875 97.65550994873047 849.4525146484375 97.65959167480469 L 849.8590087890625 97.66518402099609 C 860.103271484375 97.66518402099609 864.0731201171875 89.81581115722656 864.491455078125 88.91940307617188 C 864.7314453125 88.31031036376953 865.254150390625 87.82390594482422 865.92431640625 87.58509063720703 C 865.939697265625 87.58479309082031 865.955078125 87.58464813232422 865.970458984375 87.58464813232422 C 866.3446044921875 87.58464813232422 866.712890625 87.67205047607422 867.038330078125 87.83868408203125 C 868.2176513671875 88.34782409667969 869.3101806640625 88.55845642089844 870.333251953125 88.55845642089844 C 873.0069580078125 88.55845642089844 875.202880859375 87.11837768554688 877.2109375 85.80390167236328 C 877.9368896484375 85.32730865478516 878.746337890625 84.79459381103516 879.667236328125 84.23780822753906 C 882.107666015625 82.83890533447266 883.813720703125 80.61621856689453 884.3983154296875 78.07399749755859 C 885.9622802734375 78.22281646728516 887.5322265625 78.29717254638672 889.1024169921875 78.29717254638672 C 890.899169921875 78.29717254638672 892.6959228515625 78.19976806640625 894.482177734375 78.00508880615234 C 898.16748046875 77.72721862792969 901.716796875 76.62950134277344 904.80859375 74.81159210205078 C 906.717041015625 73.63040161132813 908.913818359375 72.87680816650391 911.21484375 72.61399841308594 C 914.431640625 72.33271026611328 919.3148193359375 71.99382781982422 924.214599609375 71.99382781982422 C 927.5332641601563 71.99382781982422 930.8597412109375 72.14933013916016 933.6804809570313 72.58349609375 C 935.39453125 72.84703826904297 937.3603515625 72.98809814453125 939.5009765625 72.98809814453125 C 947.5467529296875 72.98809814453125 958.0536499023438 70.99440765380859 966.86669921875 66.01690673828125 L 967.9718017578125 65.39109039306641 L 967.5180053710938 65.11180877685547 C 967.6408081054688 65.1123046875 967.7630615234375 65.112548828125 967.8857421875 65.112548828125 C 973.94775390625 65.112548828125 979.856689453125 64.50906372070313 983.1755981445313 63.3466796875 C 984.871337890625 62.75279235839844 986.4246215820313 62.55435180664063 987.970947265625 62.55435180664063 C 991.0889282226563 62.55435180664063 994.1768188476563 63.36163330078125 998.3375854492188 63.36163330078125 C 998.6563110351563 63.36163330078125 998.9815673828125 63.35688781738281 999.3132934570313 63.3466796875 C 1003.998291015625 63.20259094238281 1009.025329589844 61.87284851074219 1012.757385253906 61.87284851074219 Z" stroke="none" fill="#30abec"/>
    </g>
    <g transform="matrix(1, 0, 0, 1, 12.06, 62.87)" filter="url(#thick)">
      <path id="thick-2" data-name="thick" d="M-5.33,133c-3.031,0-4.894-1.318-5.09-1.819a8.225,8.225,0,0,0-7.061-4.589l-.641-.024H-18.2c-.105,0-.161.006-.171.018a.006.006,0,0,0,0,.005c-.351-.2-.964-1.248-1.824-3.119-1.55-3.372-3.361-4.043-6.159-4.746a15.359,15.359,0,0,1-3.253-1.113c-3.656-1.777-16.669-2.31-37.912-2.632-2.19-.031-4.269-.062-5.63-.1-3.051-.081-6.561-.466-10.277-.875a165.251,165.251,0,0,0-18.674-1.283c-8.568,0-9.145,2.772-9.454,4.261-.225,1.05-.225,1.05-1.558,1.086-.4.011-.791.016-1.16.016-3.117,0-4.258-.38-4.662-.606-.292-.159-.626-.449-.626-1.294,0-1.606,0-4.946-7.421-5.107h-.075c.242-.246.527-.507.735-.7l.1-.088.493-.453a2,2,0,0,0,.747-1.351,1.477,1.477,0,0,0-.445-1.045c-1.346-1.41-5.05-1.6-8.852-1.6-2.293,0-8.021-2.282-10.751-4.283a2.132,2.132,0,0,1-.96-1.309.752.752,0,0,1,.182-.6c-.257-.553-.12-8.6-.038-13.4v-.008c.018-1.034.033-1.927.039-2.489a2.879,2.879,0,0,0,.777.806c2.73,2,8.457,4.283,10.751,4.283,3.8,0,7.506.194,8.852,1.6a1.477,1.477,0,0,1,.445,1.045,2,2,0,0,1-.747,1.352l-.493.452-.094.087c-.209.192-.494.454-.737.7h.075c7.42.16,7.42,3.5,7.42,5.107,0,.844.335,1.135.626,1.293.4.227,1.542.606,4.66.606.369,0,.76-.005,1.161-.016,1.333-.036,1.333-.036,1.558-1.086.31-1.489.887-4.261,9.454-4.261a165.274,165.274,0,0,1,18.674,1.283c3.718.409,7.227.794,10.277.875,1.316.036,3.245.065,5.63.1,21.241.32,34.254.854,37.912,2.631a15.357,15.357,0,0,0,3.253,1.113c2.8.7,4.608,1.373,6.159,4.746.861,1.872,1.474,2.922,1.824,3.119v-.005c.01-.012.067-.018.171-.018h.078l.641.024a8.9,8.9,0,0,1,4.258,1.4,7.611,7.611,0,0,1,2.8,3.194c.2.5,2.058,1.819,5.09,1.82.322,0,.658-.016,1-.047,3.713-.344,16.423-.8,23.669-1.037.442-1.652,2.086-3.3,4.509-4.533,3.79-1.922,9.933-3.164,15.65-3.164a27.236,27.236,0,0,1,6.016.6,3.862,3.862,0,0,0,1.21.193c.128,0,.257-.006.384-.019.175-.068,1.049-.574,1.049-3.9,0-3.531,5.089-4.241,8.806-4.76a26.432,26.432,0,0,0,5.8-1.232c3.39-1.363,8.218-1.623,13.329-1.9H76.1A75.081,75.081,0,0,0,87.436,95.04c4.624-1.012,9.443-8.945,11.389-14.255l.24-.656c-.475-.251-.7-.5-.706-.78-.01-.453.572-1.006,1.832-1.74a3.687,3.687,0,0,0,1.177-.951c0,.582-.011,1.631-.019,2.959v.017c-.029,4.833-.077,12.923-.141,13.8a3.094,3.094,0,0,1-1.016,1.173c-1.259.734-1.841,1.287-1.832,1.74.006.281.23.529.706.78l-.24.656c-1.945,5.31-6.765,13.243-11.389,14.255A75.08,75.08,0,0,1,76.1,113.2h-.021c-5.106.276-9.93.536-13.317,1.9a26.434,26.434,0,0,1-5.8,1.232c-3.716.519-8.806,1.229-8.806,4.76,0,3.323-.874,3.829-1.049,3.9-.127.013-.256.019-.384.019a3.842,3.842,0,0,1-1.21-.193,27.242,27.242,0,0,0-6.014-.6c-5.718,0-11.862,1.242-15.653,3.164-2.423,1.228-4.066,2.88-4.509,4.533-7.246.24-19.954.692-23.669,1.037C-4.666,132.984-5,133-5.33,133Z" transform="translate(173.5 -46)" stroke="rgba(0,0,0,0)" stroke-width="1" fill="url(#linear-gradient)"/>
    </g>
    <text id="wuxixian" transform="translate(171.579 98.746)" fill="#fff" font-size="10" font-family="MicrosoftYaHei, Microsoft YaHei"><tspan x="-15" y="0">巫溪县</tspan></text>
  </g>
</svg>
