<svg xmlns="http://www.w3.org/2000/svg" xmlns:xlink="http://www.w3.org/1999/xlink" width="327" height="258" viewBox="0 0 327 258">
  <defs>
    <radialGradient id="radial-gradient" cx="0.5" cy="0.5" r="0.5" gradientUnits="objectBoundingBox">
      <stop offset="0" stop-color="#1fb9e6"/>
      <stop offset="1" stop-color="#0669d2"/>
    </radialGradient>
    <linearGradient id="linear-gradient" x1="0.5" x2="0.5" y2="1" gradientUnits="objectBoundingBox">
      <stop offset="0" stop-color="#191e64"/>
      <stop offset="1" stop-color="#17448b"/>
    </linearGradient>
    <filter id="yongchuan1" x="72.499" y="25.141" width="182.967" height="228.34" filterUnits="userSpaceOnUse">
      <feOffset dy="8" input="SourceAlpha"/>
      <feGaussianBlur stdDeviation="9" result="blur"/>
      <feFlood flood-opacity="0.161"/>
      <feComposite operator="in" in2="blur"/>
      <feComposite in="SourceGraphic"/>
    </filter>
    <clipPath id="clip-yongchuan">
      <rect width="327" height="258"/>
    </clipPath>
  </defs>
  <g id="yongchuan" clip-path="url(#clip-yongchuan)">
    <rect width="327" height="258" fill="rgba(0,0,0,0)"/>
    <g id="yongchuan-2" data-name="yongchuan" transform="translate(7.466 17.77)">
      <g id="thick_yuchuan" transform="translate(-144.525 -328.821)" opacity="0.67" fill="url(#radial-gradient)">
        <path d="M 284.620361328125 511.1851196289063 C 282.8837280273438 510.7471008300781 281.029052734375 510.1529846191406 279.597900390625 509.0564880371094 C 277.8590393066406 507.7242736816406 276.9158325195313 505.7640075683594 276.71435546875 503.0636291503906 C 276.5670776367188 501.0848999023438 276.6089782714844 499.366455078125 276.6459350585938 497.8502502441406 C 276.7543334960938 493.4050598144531 276.825927734375 490.4684143066406 271.7844543457031 488.0582275390625 C 269.7207336425781 487.071533203125 268.5614929199219 486.0872192382813 268.1363220214844 484.9605712890625 C 267.7529602050781 483.9447631835938 267.9639587402344 482.8170166015625 268.208251953125 481.5111694335938 C 268.384033203125 480.5715942382813 268.5832824707031 479.5066528320313 268.5832824707031 478.3311157226563 C 268.5832824707031 476.0487976074219 267.0393676757813 473.9902954101563 265.5462951660156 471.9995727539063 C 263.9770812988281 469.9073791503906 262.4949340820313 467.9312133789063 262.7703857421875 465.8396911621094 C 263.3294372558594 461.5990295410156 262.7767944335938 460.8319396972656 260.4508972167969 457.6033935546875 C 260.2419738769531 457.3134155273438 260.0177917480469 457.0022277832031 259.7777099609375 456.6654357910156 C 259.2818298339844 455.969970703125 258.8124694824219 455.3558959960938 258.3585815429688 454.7620239257813 C 256.1884765625 451.9228210449219 254.8786010742188 450.2091064453125 255.7920074462891 446.2095336914063 C 256.1016845703125 444.852783203125 256.638916015625 443.3258361816406 257.1129150390625 441.9786376953125 C 258.0850524902344 439.2155151367188 258.6073913574219 437.6130676269531 258.0387573242188 436.8102111816406 C 257.8983764648438 436.6119995117188 257.6273803710938 436.375732421875 257.1336975097656 436.375732421875 C 256.5313720703125 436.375732421875 255.6797332763672 436.7425231933594 254.4534606933594 437.5300903320313 C 252.4706420898438 438.8034057617188 250.85888671875 440.3337707519531 249.4368438720703 441.6839599609375 C 246.9677429199219 444.0283508300781 244.8353729248047 446.0530090332031 241.6318206787109 446.0530090332031 C 241.1929931640625 446.0530090332031 240.7325439453125 446.0150756835938 240.2632598876953 445.9402770996094 C 239.4700927734375 445.8153686523438 238.550537109375 445.6763916015625 237.580322265625 445.5347290039063 C 237.8653869628906 442.3545227050781 241.0036010742188 435.9086303710938 246.6978302001953 426.8193664550781 C 251.5981140136719 418.9974060058594 258.3426513671875 409.3065795898438 265.7086486816406 399.502685546875 C 266.4927368164063 399.7088317871094 267.2995300292969 399.8520202636719 268.1119384765625 399.9289855957031 C 268.6559143066406 399.9848327636719 269.2164611816406 400.0133056640625 269.7741394042969 400.0132751464844 C 278.8934020996094 400.0125732421875 286.0222778320313 392.882568359375 287.9899597167969 390.6973266601563 C 291.513916015625 386.792236328125 292.2078552246094 380.228271484375 292.9425048828125 373.2789306640625 C 293.7081909179688 366.0578308105469 294.6607360839844 357.0744323730469 299.5774841308594 354.744873046875 C 301.6920471191406 353.7424621582031 303.8761901855469 352.7070617675781 306.08642578125 351.6068420410156 C 309.5205383300781 353.2018432617188 315.7659301757813 354.3336486816406 325.6895446777344 355.1621398925781 C 329.2941589355469 355.4618225097656 332.5104064941406 355.7581787109375 335.7610168457031 356.0606994628906 L 335.8221435546875 356.0663757324219 C 342.8512268066406 356.7169189453125 348.4032287597656 357.2307739257813 353.4574890136719 357.230712890625 C 357.58447265625 357.2306518554688 361.0577697753906 356.8753356933594 364.3013000488281 356.116943359375 C 360.0792846679688 370.4516296386719 351.6800231933594 395.5225830078125 348.5391845703125 402.4795532226563 C 344.6266784667969 411.1515197753906 338.9686584472656 420.5685729980469 333.4039001464844 427.6702575683594 C 330.2036743164063 431.7543334960938 327.1101989746094 434.9988098144531 324.2093505859375 437.3135070800781 C 321.0152893066406 439.8621826171875 318.1114196777344 441.2337951660156 315.578369140625 441.3901977539063 L 315.5674743652344 441.3908386230469 C 307.1381530761719 441.9072875976563 304.5941467285156 442.0631713867188 303.2951965332031 443.9981689453125 C 302.944091796875 444.5185852050781 302.818603515625 445.0542907714844 302.9228820800781 445.5894775390625 C 303.141845703125 446.7134704589844 304.3102722167969 447.4999694824219 305.1634216308594 448.0741882324219 L 305.1824035644531 448.0869750976563 L 305.2024536132813 448.0979614257813 C 306.6766052246094 448.9052734375 307.7645568847656 450.1599426269531 308.2674865722656 451.6320495605469 C 308.5959167480469 452.8699340820313 308.9568176269531 453.8457946777344 309.2470703125 454.630615234375 L 309.2751159667969 454.7064514160156 C 309.3776550292969 454.9766540527344 309.4563903808594 455.1871643066406 309.5148010253906 455.3458251953125 C 308.2553100585938 455.8958129882813 306.9441223144531 456.3640747070313 305.6105651855469 456.7398681640625 L 305.5999450683594 456.7428588867188 L 305.5894775390625 456.7463073730469 L 302.830078125 457.6569519042969 C 294.7911376953125 460.3386535644531 293.9418334960938 464.4223327636719 293.3798217773438 467.1246337890625 C 293.134765625 468.3013000488281 292.9390563964844 469.1142883300781 292.4678344726563 469.6826171875 C 291.9915161132813 470.257080078125 291.1759033203125 470.6396484375 289.7406005859375 470.9618530273438 C 287.3013610839844 471.5089111328125 285.3601989746094 472.9218139648438 283.9712219238281 475.1613464355469 C 279.2347106933594 482.7982177734375 281.6507263183594 498.7962341308594 284.620361328125 511.1851196289063 Z" stroke="none"/>
        <path d="M 283.9410400390625 510.4873657226563 C 281.0411376953125 498.1254577636719 278.8241271972656 482.5115356445313 283.5462951660156 474.8977966308594 C 285.0087280273438 472.5399169921875 287.0559997558594 471.0514831542969 289.6310729980469 470.4739990234375 C 290.94970703125 470.177978515625 291.6829528808594 469.8458557128906 292.0829467773438 469.3634948730469 C 292.4803771972656 468.8841247558594 292.6605529785156 468.1259155273438 292.8902893066406 467.0228576660156 C 293.4400024414063 464.3794860839844 294.360107421875 459.955322265625 302.6734008789063 457.1821594238281 L 305.4328002929688 456.2715148925781 L 305.4537353515625 456.2645874023438 L 305.4749450683594 456.2586059570313 C 306.6336059570313 455.9320983886719 307.7750549316406 455.5346374511719 308.87939453125 455.0735168457031 C 308.8574829101563 455.015380859375 308.8340759277344 454.9535827636719 308.8091735839844 454.8879089355469 L 308.8076477050781 454.8838806152344 L 308.80615234375 454.8798217773438 L 308.7781677246094 454.8041687011719 C 308.4855651855469 454.0130615234375 308.1220703125 453.0302429199219 307.788818359375 451.7776184082031 C 307.3239135742188 450.4308776855469 306.3212280273438 449.2807312011719 304.9623107910156 448.5365295410156 L 304.9221496582031 448.5145568847656 L 304.8842163085938 448.4889831542969 C 303.95849609375 447.8658752441406 302.690673828125 447.0124816894531 302.4320678710938 445.68505859375 C 302.3423156738281 445.2243347167969 302.347412109375 444.5089721679688 302.8800659179688 443.719482421875 C 304.3168334960938 441.5791931152344 306.9180908203125 441.4198303222656 315.537109375 440.8917541503906 L 315.5475463867188 440.89111328125 C 317.9759826660156 440.7411804199219 320.7853393554688 439.406005859375 323.8974914550781 436.9226684570313 C 326.7680358886719 434.6321716308594 329.8340454101563 431.4154357910156 333.0103149414063 427.3618774414063 C 338.5516967773438 420.2900085449219 344.1864929199219 410.911376953125 348.08349609375 402.2738342285156 C 351.1586303710938 395.4623107910156 359.2926940917969 371.2243041992188 363.5810546875 356.7890014648438 C 360.5379333496094 357.4291381835938 357.2730102539063 357.7306518554688 353.4574584960938 357.730712890625 C 348.3800659179688 357.7307739257813 342.8178405761719 357.2160034179688 335.77587890625 356.564208984375 L 335.7146911621094 356.5585632324219 C 332.4662475585938 356.2562255859375 329.2519836425781 355.9600219726563 325.6479187011719 355.6604309082031 C 315.8731384277344 354.8442993164063 309.6294555664063 353.7283325195313 306.0962219238281 352.1603088378906 C 303.9544067382813 353.2232971191406 301.8404235839844 354.2254638671875 299.7915649414063 355.1967468261719 C 297.7693481445313 356.1548461914063 296.2740783691406 358.4437561035156 295.2202758789063 362.1942443847656 C 294.2572326660156 365.6217346191406 293.8230895996094 369.71630859375 293.4397583007813 373.3315124511719 C 292.6962890625 380.364013671875 291.9940490722656 387.0065002441406 288.3615417480469 391.0318603515625 C 286.35888671875 393.2559204101563 279.0999450683594 400.5125427246094 269.7741088867188 400.5132751464844 C 269.2010498046875 400.5132751464844 268.6250610351563 400.4841003417969 268.0620727539063 400.426513671875 C 267.3363647460938 400.3576354980469 266.6148681640625 400.2375793457031 265.9090270996094 400.0685119628906 C 258.629150390625 409.7705993652344 251.9702911376953 419.3451232910156 247.1215362548828 427.0848083496094 C 244.2769927978516 431.6253662109375 242.0605010986328 435.5211791992188 240.5336608886719 438.6640625 C 238.9528198242188 441.9180603027344 238.3379974365234 443.90771484375 238.1397552490234 445.1115112304688 C 238.9319610595703 445.2284851074219 239.6803894042969 445.3423156738281 240.3419799804688 445.4465026855469 C 240.7853546142578 445.5171813964844 241.2193145751953 445.5530090332031 241.6318054199219 445.5530090332031 C 244.6357879638672 445.5530090332031 246.6025390625 443.6856079101563 249.0925445556641 441.3213806152344 C 250.5306701660156 439.9559020996094 252.1606597900391 438.4082336425781 254.1832733154297 437.109375 C 255.5117034912109 436.2561950683594 256.421630859375 435.875732421875 257.1336975097656 435.875732421875 C 257.6856384277344 435.875732421875 258.1519470214844 436.10498046875 258.44677734375 436.521240234375 C 259.1593627929688 437.52734375 258.6411743164063 439.141357421875 257.5845336914063 442.1445922851563 C 257.0920715332031 443.5444030761719 256.5827941894531 444.9918518066406 256.2794189453125 446.3208618164063 C 255.4182739257813 450.0917663574219 256.603759765625 451.6427612304688 258.7557983398438 454.4584045410156 C 259.2122192382813 455.0554809570313 259.6841125488281 455.6729431152344 260.1848449707031 456.3752136230469 C 260.4244079589844 456.7112426757813 260.6481018066406 457.0217590332031 260.8565673828125 457.3111267089844 C 263.3279418945313 460.7416076660156 263.8313598632813 461.6171875 263.26611328125 465.9049682617188 C 263.0172729492188 467.7943420410156 264.4400024414063 469.6912536621094 265.9462585449219 471.6995544433594 C 267.488525390625 473.7558288574219 269.0832824707031 475.8821105957031 269.0832824707031 478.3311157226563 C 269.0832824707031 479.5530090332031 268.8795166015625 480.6421813964844 268.6997375488281 481.6031494140625 C 268.4597473144531 482.8859252929688 268.2701721191406 483.899169921875 268.6041259765625 484.7840270996094 C 268.9809265136719 485.7825012207031 270.0600280761719 486.6795654296875 272.0000915527344 487.6071472167969 C 277.3336486816406 490.1569519042969 277.2548522949219 493.3890380859375 277.1457824707031 497.8623962402344 C 277.1091003417969 499.3670349121094 277.0675048828125 501.0724182128906 277.2129516601563 503.0263977050781 C 277.4058837890625 505.6118774414063 278.2603149414063 507.40185546875 279.9020080566406 508.6596069335938 C 281.0478210449219 509.5375061035156 282.5023193359375 510.0828552246094 283.9410400390625 510.4873657226563 M 285.2993774414063 511.86474609375 C 280.9270324707031 510.8331298828125 276.684814453125 509.387451171875 276.2157287597656 503.100830078125 C 275.6348571777344 495.2969360351563 277.9585876464844 491.5640869140625 271.5687866210938 488.5093383789063 C 265.17919921875 485.454345703125 268.0832824707031 482.7403564453125 268.0832824707031 478.3311157226563 C 268.0832824707031 473.921630859375 261.6939697265625 470.18359375 262.274658203125 465.7744140625 C 262.85595703125 461.3650512695313 262.274658203125 461.0293579101563 259.3705749511719 456.9556884765625 C 256.4660339355469 452.8820190429688 254.1425018310547 451.1866455078125 255.3045349121094 446.0982055664063 C 256.2328796386719 442.0311889648438 259.0205383300781 436.875732421875 257.1336975097656 436.875732421875 C 256.6598205566406 436.875732421875 255.8908233642578 437.2012023925781 254.7236633300781 437.9508056640625 C 249.3693542480469 441.38916015625 246.9733123779297 446.5530090332031 241.6318054199219 446.5530090332031 C 241.172607421875 446.5530090332031 240.6910095214844 446.5147705078125 240.1845397949219 446.4340209960938 C 239.2752075195313 446.2908325195313 238.2020416259766 446.1294555664063 237.0590209960938 445.9642333984375 C 237.0899810791016 439.1087646484375 252.1168518066406 416.73681640625 265.5133972167969 398.9302978515625 C 266.3736267089844 399.17822265625 267.2604675292969 399.3460693359375 268.1591186523438 399.4312133789063 C 268.6992492675781 399.4866333007813 269.237060546875 399.5133056640625 269.7740783691406 399.5132446289063 C 276.8281860351563 399.5127258300781 283.5281677246094 394.9051818847656 287.618408203125 390.3627319335938 C 291.0325927734375 386.5792846679688 291.7191772460938 380.0946655273438 292.4452819824219 373.2263793945313 C 293.2237854003906 365.88427734375 294.1923828125 356.7430419921875 299.3634033203125 354.2930297851563 C 301.6084289550781 353.228759765625 303.8246459960938 352.1775512695313 306.0813598632813 351.0506591796875 C 309.4347229003906 352.6876831054688 315.7106628417969 353.8272705078125 325.7311401367188 354.6638793945313 C 329.4399719238281 354.9722290039063 332.7742614746094 355.2805786132813 335.807373046875 355.5628662109375 C 342.7394714355469 356.2044372558594 348.4114990234375 356.7307739257813 353.4574279785156 356.730712890625 C 357.6219177246094 356.7306518554688 361.3603210449219 356.3720092773438 365.0255126953125 355.4237060546875 C 360.9580078125 369.37109375 352.2490539550781 395.477294921875 348.9949035644531 402.685302734375 C 341.8370056152344 418.550537109375 326.7548522949219 441.2010498046875 315.6091918945313 441.8892211914063 C 307.3696899414063 442.39404296875 304.8720092773438 442.5463256835938 303.7103271484375 444.27685546875 C 302.6833801269531 445.7990112304688 304.3389892578125 446.9165649414063 305.442626953125 447.659423828125 C 307.0306091308594 448.529052734375 308.2062377929688 449.8914794921875 308.7463684082031 451.4873046875 C 309.0802612304688 452.7493286132813 309.4449768066406 453.7239379882813 309.7441101074219 454.5330810546875 C 309.92236328125 455.0028076171875 310.1225891113281 455.5400390625 310.1375427246094 455.6156005859375 C 308.7256469726563 456.2582397460938 307.2566528320313 456.7954711914063 305.7461853027344 457.2211303710938 L 302.9867858886719 458.1317749023438 C 295.2207641601563 460.722412109375 294.4075622558594 464.6384887695313 293.8690490722656 467.227783203125 C 293.3529052734375 469.7062377929688 293.0146179199219 470.7393188476563 289.8501281738281 471.44970703125 C 278.0268249511719 474.101318359375 281.7296752929688 497.26953125 285.2993774414063 511.86474609375 Z" stroke="none" fill="#30abec"/>
      </g>
      <text id="yongchuanqu" transform="translate(137.579 90.746)" fill="#fff" font-size="10" font-family="MicrosoftYaHei, Microsoft YaHei"><tspan x="0" y="0">永川区</tspan></text>
      <g transform="matrix(1, 0, 0, 1, -7.47, -17.77)" filter="url(#yongchuan1)">
        <path id="yongchuan1-2" data-name="yongchuan1" d="M-2397.759-874.186h0a15.8,15.8,0,0,1-6-2.411,8.265,8.265,0,0,1-3.078-6.352,51.131,51.131,0,0,1-.07-5.263c.107-4.4.172-7.058-4.578-9.328-2.187-1.046-3.426-2.118-3.9-3.372a6.814,6.814,0,0,1,.048-3.717,16.239,16.239,0,0,0,.367-3.088c0-2.116-1.493-4.106-2.937-6.031-1.561-2.081-3.174-4.232-2.872-6.526.533-4.044.111-4.63-2.23-7.88-.21-.291-.434-.6-.674-.939-.49-.688-.957-1.3-1.408-1.888-2.183-2.856-3.624-4.741-2.658-8.97a41.478,41.478,0,0,1,1.336-4.284,17.853,17.853,0,0,0,1.131-4l.182.238.008.01c.451.591.918,1.2,1.409,1.89.229.321.443.618.643.9l.03.042c2.341,3.25,2.763,3.836,2.231,7.88-.3,2.294,1.311,4.445,2.871,6.525,1.445,1.926,2.938,3.916,2.938,6.032a16.238,16.238,0,0,1-.367,3.088,6.816,6.816,0,0,0-.048,3.718c.473,1.255,1.713,2.326,3.9,3.372,4.75,2.27,4.685,4.927,4.578,9.328a51.114,51.114,0,0,0,.07,5.263c.464,6.224,4.561,7.7,9.081,8.763-.007.14-.753,13.906,0,17Zm-2.772-31.269h0c-.939-6.962-.969-12.651-.09-16.91,1.088-5.269,3.583-8.377,7.414-9.236,3.167-.711,3.5-1.745,4.02-4.222.538-2.591,1.352-6.506,9.117-9.1l2.759-.911a30.742,30.742,0,0,0,4.391-1.606c-.011-.059-.14-.414-.393-1.082l-.028-.077a30.9,30.9,0,0,1-.969-2.97,6.949,6.949,0,0,0-3.3-3.828c-.781-.525-1.85-1.244-2.029-2.165a1.593,1.593,0,0,1,.3-1.217c1.161-1.73,3.647-1.882,11.885-2.387h.014c11.138-.688,26.228-23.339,33.385-39.2,3.163-7.006,11.61-32.214,15.849-46.64l.182-.082v16.46l-.006.019c-.244.812-2.425,8.052-3.712,12.094-4.23,13.284-9.818,29.623-12.313,35.149-7.157,15.865-22.247,38.516-33.385,39.2h-.014c-8.238.5-10.724.657-11.885,2.387a1.592,1.592,0,0,0-.3,1.217c.179.921,1.248,1.64,2.029,2.165a6.949,6.949,0,0,1,3.3,3.828,30.736,30.736,0,0,0,.967,2.963l.031.083c.246.648.382,1.022.393,1.083a30.735,30.735,0,0,1-4.391,1.606l-2.759.911c-7.765,2.591-8.578,6.505-9.117,9.1-.516,2.478-.852,3.511-4.02,4.223-3.444.772-5.872,3.4-7.022,7.61A11.083,11.083,0,0,0-2400.531-905.455Zm-40.9-34.041a9.352,9.352,0,0,1-1.446-.12c-.89-.141-1.97-.3-3.126-.47.011-2.5,0-12.541,0-16.743v-.257c1.121.161,2.2.324,3.126.47a9.233,9.233,0,0,0,1.447.119c3.4,0,5.6-2.088,8.15-4.507a33.039,33.039,0,0,1,4.943-4.1,5.484,5.484,0,0,1,2.41-1.075.562.562,0,0,1,.5.223c.447.631-.219,2.523-.989,4.713a41.421,41.421,0,0,0-1.337,4.286c-.79,3.459-.026,5.333,1.762,7.779a5.871,5.871,0,0,0-2.343,1.073,33.056,33.056,0,0,0-4.943,4.1c-2.547,2.418-4.747,4.507-8.15,4.507h0Z" transform="translate(2546 1092)" stroke="rgba(0,0,0,0)" stroke-miterlimit="10" stroke-width="1" fill="url(#linear-gradient)"/>
      </g>
    </g>
  </g>
</svg>
