<svg xmlns="http://www.w3.org/2000/svg" xmlns:xlink="http://www.w3.org/1999/xlink" width="261.845" height="198.369" viewBox="0 0 261.845 198.369">
  <defs>
    <radialGradient id="radial-gradient" cx="0.48" cy="0.593" r="0.702" gradientTransform="translate(0.138 -0.148) scale(0.713 1.249)" gradientUnits="objectBoundingBox">
      <stop offset="0" stop-color="#1fb9e6"/>
      <stop offset="1" stop-color="#0669d2"/>
    </radialGradient>
    <linearGradient id="linear-gradient" x1="0.082" y1="0.875" x2="0.276" y2="0.365" gradientUnits="objectBoundingBox">
      <stop offset="0" stop-color="#191e64"/>
      <stop offset="1" stop-color="#17448b"/>
    </linearGradient>
    <filter id="thick_4" x="0" y="26.291" width="123.031" height="150.743" filterUnits="userSpaceOnUse">
      <feOffset dy="8" input="SourceAlpha"/>
      <feGaussianBlur stdDeviation="9" result="blur"/>
      <feFlood flood-color="#0f093c" flood-opacity="0.169"/>
      <feComposite operator="in" in2="blur"/>
      <feComposite in="SourceGraphic"/>
    </filter>
    <linearGradient id="linear-gradient-2" x1="0.691" y1="1" x2="0.443" y2="0.191" xlink:href="#linear-gradient"/>
    <filter id="thick_3" x="58.663" y="105.707" width="80.605" height="92.662" filterUnits="userSpaceOnUse">
      <feOffset dy="8" input="SourceAlpha"/>
      <feGaussianBlur stdDeviation="9" result="blur-2"/>
      <feFlood flood-color="#0f093c" flood-opacity="0.169"/>
      <feComposite operator="in" in2="blur-2"/>
      <feComposite in="SourceGraphic"/>
    </filter>
    <linearGradient id="linear-gradient-3" x1="0.5" y1="0.781" x2="0.398" y2="0.434" gradientUnits="objectBoundingBox">
      <stop offset="0" stop-color="#191e64"/>
      <stop offset="0.095" stop-color="#191f65"/>
      <stop offset="1" stop-color="#17448b"/>
    </linearGradient>
    <filter id="thick_1" x="72.403" y="28.009" width="189.442" height="157.095" filterUnits="userSpaceOnUse">
      <feOffset dy="8" input="SourceAlpha"/>
      <feGaussianBlur stdDeviation="9" result="blur-3"/>
      <feFlood flood-color="#0f093c" flood-opacity="0.161"/>
      <feComposite operator="in" in2="blur-3"/>
      <feComposite in="SourceGraphic"/>
    </filter>
    <linearGradient id="linear-gradient-4" x1="0.5" y1="0" x2="0.5" y2="1" xlink:href="#linear-gradient"/>
  </defs>
  <g id="youyang" transform="translate(-29.309 -33.056)">
    <g id="Op_component_17" data-name="Op component 17" transform="translate(-707 -355)" opacity="0.67" fill="url(#radial-gradient)">
      <path d="M 832.1574096679688 535.017578125 C 832.1572265625 535.017578125 832.1571655273438 535.017578125 832.1569213867188 535.017578125 C 830.2747802734375 535.0174560546875 828.6636352539063 534.7251586914063 826.9183349609375 533.298828125 C 825.5234375 532.1589965820313 824.4284057617188 531.6251220703125 823.7037353515625 531.2717895507813 C 823.2516479492188 531.0513916015625 822.89453125 530.8772583007813 822.8264770507813 530.7225341796875 C 822.7208251953125 530.4821166992188 823.02197265625 529.7235717773438 823.1209106445313 529.4742431640625 C 823.4457397460938 528.6558227539063 824.8916625976563 527.4873046875 826.2900390625 526.3572387695313 C 828.450927734375 524.6110229492188 830.6853637695313 522.8052368164063 830.45166015625 521.1181640625 C 830.3422241210938 520.3283081054688 829.7160034179688 519.6835327148438 828.5903930664063 519.2018432617188 C 825.6395263671875 517.9390258789063 824.04541015625 516.9500732421875 823.0880737304688 515.788330078125 C 822.0556030273438 514.535400390625 821.7437744140625 512.9783935546875 822.0769653320313 510.7398986816406 C 822.28173828125 509.3628234863281 822.2868041992188 508.2404479980469 822.2908325195313 507.338623046875 C 822.2954711914063 506.3022155761719 822.2987670898438 505.5533752441406 822.6143798828125 505.1533203125 C 822.9375 504.7436828613281 823.7308349609375 504.5322570800781 825.1867065429688 504.4678039550781 C 825.928466796875 504.4349365234375 826.4953002929688 504.4182739257813 826.9507446289063 504.4048767089844 C 828.2362670898438 504.3670349121094 828.541748046875 504.3580627441406 828.7108764648438 503.9646911621094 C 828.8626098632813 503.6117553710938 828.6160888671875 503.3358154296875 828.4360961914063 503.1343383789063 C 828.2501831054688 502.9263000488281 827.9692993164063 502.6118774414063 827.7809448242188 502.1167907714844 C 827.6405029296875 501.7476196289063 827.4778442382813 501.4371032714844 827.3342895507813 501.1631164550781 C 827.009033203125 500.5422058105469 826.9163818359375 500.3175354003906 827.064453125 500.032470703125 C 827.3015747070313 499.5759582519531 828.163330078125 498.9546508789063 829.6989135742188 498.1330871582031 C 831.9934692382813 496.9054870605469 832.9586791992188 495.9417114257813 832.8287353515625 495.0081787109375 C 832.6824951171875 493.9580383300781 831.2015380859375 493.5047607421875 829.9276733398438 493.2271728515625 C 829.242431640625 493.077880859375 828.446044921875 492.9415893554688 827.6028442382813 492.7973022460938 C 825.044921875 492.3596496582031 821.8614501953125 491.8149719238281 820.8809204101563 490.6711730957031 C 820.1181030273438 489.78125 819.1013793945313 489.3108520507813 817.940673828125 489.3108520507813 C 816.5575561523438 489.3108520507813 815.0930786132813 489.9838562011719 813.7054443359375 491.2572021484375 C 811.4171752929688 493.3572082519531 805.6483154296875 496.0213317871094 802.4273681640625 496.0213317871094 C 802.1188354492188 496.0213317871094 801.8373413085938 495.9969787597656 801.5908203125 495.9489440917969 C 797.260009765625 495.1051330566406 786.7159423828125 492.9103393554688 782.3529052734375 490.760009765625 C 780.3296508789063 489.7627868652344 778.2698364257813 488.7041625976563 776.90966796875 487.718994140625 C 775.7037963867188 486.8455505371094 775.1116943359375 486.0774536132813 775.1004638671875 485.3716735839844 C 775.3798828125 482.2653198242188 776.2067260742188 479.2334899902344 777.5582885742188 476.3599243164063 C 777.7716064453125 475.9255065917969 777.9824829101563 475.5326538085938 778.1864624023438 475.1526489257813 C 779.3365478515625 473.0100708007813 780.1675415039063 471.4620056152344 777.4369506835938 469.0714111328125 C 776.9716796875 468.6640625 776.5390014648438 468.3070678710938 776.1571655273438 467.9921264648438 C 774.142822265625 466.3304138183594 773.30908203125 465.6426391601563 773.30908203125 462.5425109863281 C 773.30908203125 461.2801513671875 773.701416015625 459.8924560546875 774.0808715820313 458.5504455566406 C 774.865234375 455.7762145996094 775.6763305664063 452.9075317382813 772.6461181640625 451.6226806640625 L 772.3843383789063 451.5117797851563 C 770.4714965820313 450.7019348144531 768.819580078125 450.0025634765625 767.6324462890625 448.9407043457031 C 766.3682250976563 447.8099365234375 765.7794189453125 446.3478393554688 765.7794189453125 444.3393859863281 C 765.7794189453125 441.9473571777344 765.1217041015625 439.5872192382813 764.5413818359375 437.5048828125 C 764.1768188476563 436.1966857910156 763.8499145507813 435.0237426757813 763.7906494140625 434.1681518554688 L 763.9979858398438 434.2820434570313 L 764.254150390625 434.4227600097656 L 764.50244140625 434.2686157226563 L 765.5556030273438 433.6147155761719 C 770.3233642578125 430.6590881347656 776.00537109375 427.4952392578125 780.7547607421875 425.1515808105469 C 786.4913940429688 422.3207702636719 790.7175903320313 420.7577514648438 792.660888671875 420.7478637695313 C 793.2545776367188 420.7931518554688 793.8489990234375 420.8160705566406 794.4280395507813 420.8160400390625 C 801.5531005859375 420.8158264160156 806.08642578125 417.3892211914063 809.0862426757813 415.121826171875 L 809.12158203125 415.0950927734375 L 809.6985473632813 414.6559143066406 L 809.7061767578125 414.6501159667969 L 809.7135620117188 414.6440124511719 C 810.50927734375 413.9887390136719 811.4053344726563 413.4410400390625 812.378173828125 413.0153198242188 L 813.0170288085938 412.9801025390625 C 814.1011962890625 413.4466552734375 815.0615844726563 414.1380920410156 815.7998657226563 414.9847412109375 L 815.8113403320313 414.9978942871094 L 815.82373046875 415.0102233886719 C 816.8770141601563 416.0602722167969 817.7853393554688 417.1556701660156 818.5867919921875 418.1221618652344 C 820.7049560546875 420.6774597167969 822.5343017578125 422.8843994140625 826.0869750976563 423.4698486328125 L 826.0941162109375 423.4710388183594 L 826.1012573242188 423.4719848632813 C 826.6482543945313 423.5459899902344 827.2059936523438 423.5835266113281 827.7589721679688 423.58349609375 C 829.35986328125 423.5834655761719 830.9105834960938 423.2816467285156 832.3682861328125 422.6863098144531 C 834.5542602539063 421.8646545410156 835.9722900390625 420.9043579101563 836.6864624023438 419.7592468261719 C 837.1796264648438 419.8586730957031 837.7445678710938 419.9796142578125 838.3148193359375 420.1080932617188 C 841.46630859375 420.8236694335938 843.3536987304688 421.1871032714844 844.9210205078125 421.18701171875 C 846.4990234375 421.1869201660156 847.7421264648438 420.83544921875 849.5076293945313 419.8901977539063 L 849.5099487304688 419.888916015625 L 849.5123291015625 419.8876342773438 C 850.5994262695313 419.2904968261719 851.7476806640625 418.7660217285156 852.9254150390625 418.3286437988281 C 854.4725341796875 417.8479309082031 855.9099731445313 417.0579528808594 857.0949096679688 416.0384216308594 C 857.1240234375 416.0381164550781 857.1544799804688 416.0379333496094 857.186279296875 416.0379333496094 C 858.185546875 416.0379333496094 860.5089721679688 416.1954345703125 862.7559814453125 416.3477478027344 L 863.30712890625 416.3850708007813 L 865.8485107421875 416.5614013671875 C 868.3255004882813 416.7342224121094 870.2821655273438 416.8707580566406 871.83642578125 416.8707275390625 C 875.8402709960938 416.8706359863281 877.3707885742188 415.9328308105469 878.6597900390625 412.689697265625 C 878.765869140625 412.4219055175781 878.8917846679688 412.1073303222656 879.0469360351563 411.7548828125 L 879.0481567382813 411.7521057128906 L 879.04931640625 411.7493286132813 C 880.3563842773438 408.6800537109375 884.5569458007813 404.8701782226563 887.0667114257813 402.5938415527344 L 887.0843505859375 402.577880859375 C 887.861083984375 401.8742065429688 888.54052734375 401.2546997070313 888.985595703125 400.8016052246094 L 889.3470458984375 400.4320678710938 C 891.5170288085938 400.1219482421875 893.1091918945313 399.4656066894531 894.6502685546875 398.8303527832031 C 896.6303100585938 398.0141296386719 898.50048828125 397.2431945800781 901.5681762695313 397.1315612792969 C 907.66455078125 396.908935546875 910.1990356445313 395.4646911621094 912.3123779296875 393.20654296875 C 913.1192016601563 392.3445129394531 913.455810546875 391.3321838378906 913.7528076171875 390.4390258789063 C 914.1756591796875 389.1672973632813 914.4225463867188 388.5559692382813 915.4054565429688 388.5559692382813 C 915.853759765625 388.5559692382813 916.4437255859375 388.6860656738281 917.1591186523438 388.9425659179688 C 918.8742065429688 389.5576171875 920.6742553710938 389.9220275878906 922.2623901367188 390.2435302734375 C 923.6626586914063 390.5270080566406 924.8719482421875 390.7718200683594 925.7294311523438 391.1205749511719 C 926.7391357421875 391.5311889648438 926.8685913085938 391.9339599609375 926.8685913085938 392.239013671875 C 926.8685913085938 392.7364501953125 926.7936401367188 393.3343811035156 926.7142944335938 393.9674682617188 C 926.4396362304688 396.1585998535156 926.0634155273438 399.1594848632813 928.444580078125 401.5875854492188 C 928.9027099609375 402.0547485351563 929.3267211914063 402.4553833007813 929.7008056640625 402.8088989257813 C 930.6787109375 403.73291015625 931.32470703125 404.3433532714844 931.5928955078125 405.1636962890625 C 931.8721313476563 406.0177917480469 931.7530517578125 407.1784362792969 931.194580078125 409.0446472167969 C 930.8114013671875 410.3250122070313 930.1160278320313 411.6179809570313 929.5025024414063 412.7586975097656 C 928.4749755859375 414.6692810058594 927.5875244140625 416.3193054199219 928.3115234375 417.5306701660156 C 928.874755859375 418.4731750488281 930.2431030273438 418.8934936523438 932.7481079101563 418.8934936523438 C 935.0966186523438 418.8934936523438 936.7824096679688 418.7811584472656 938.0133056640625 418.6990966796875 C 938.794677734375 418.6470336914063 939.411865234375 418.6058959960938 939.9541625976563 418.6058959960938 C 941.3717041015625 418.6058959960938 942.2407836914063 418.8577270507813 944.2965087890625 420.2728271484375 C 945.27978515625 420.9496765136719 946.3547973632813 421.6165771484375 947.3943481445313 422.2615661621094 C 950.3486938476563 424.0944213867188 953.4036254882813 425.9896850585938 953.4036254882813 427.6022033691406 C 953.4036254882813 430.6304626464844 954.2763061523438 431.2416687011719 958.8963012695313 431.4490661621094 C 959.0433959960938 431.4556884765625 959.1954345703125 431.4622802734375 959.3519287109375 431.4690856933594 C 961.0577392578125 431.543212890625 963.3939208984375 431.6447143554688 965.4008178710938 432.0336303710938 C 967.6382446289063 432.4672241210938 969.025634765625 433.1690368652344 969.5243530273438 434.1195983886719 C 969.953125 434.9369201660156 969.7418212890625 436.0335998535156 968.896240234375 437.3792724609375 C 968.0865478515625 438.6678161621094 967.2826538085938 439.9981384277344 966.5053100585938 441.28466796875 C 963.4321899414063 446.3703002929688 960.529541015625 451.1739807128906 957.1804809570313 453.7791442871094 L 957.1749877929688 453.7834167480469 L 957.1696166992188 453.787841796875 C 956.3424072265625 454.4691772460938 955.6748657226563 455.3002624511719 955.21240234375 456.2188110351563 L 955.1187744140625 456.238037109375 L 953.6685791015625 456.5357360839844 C 952.2302856445313 456.8302917480469 944.687744140625 458.4208984375 937.4447631835938 460.8101501464844 C 933.2943115234375 462.1792907714844 929.9449462890625 463.5767822265625 927.4896850585938 464.9638366699219 C 924.3245239257813 466.751953125 922.6398315429688 468.4980163574219 922.33935546875 470.3018493652344 C 921.8623046875 473.1856689453125 918.7415771484375 475.0607299804688 916.2075805664063 476.1260375976563 C 913.05810546875 477.4500122070313 909.6154174804688 478.0331726074219 908.06982421875 478.1021118164063 C 904.6140747070313 478.254638671875 903.193115234375 480.3555603027344 901.9393920898438 482.2091979980469 L 901.9221801757813 482.2346496582031 C 901.0416870117188 483.5468444824219 900.1322631835938 484.9020690917969 898.6351928710938 485.9760131835938 C 896.9303588867188 487.1989440917969 894.6959228515625 487.8607482910156 891.8040771484375 487.999267578125 C 883.6100463867188 488.3877868652344 875.0988159179688 491.0925598144531 870.7546997070313 492.6702270507813 C 864.7473754882813 494.8519592285156 859.4117431640625 497.5157470703125 857.7794189453125 499.1480407714844 C 856.2940063476563 500.6286315917969 853.4675903320313 503.5203552246094 851.2342529296875 506.2455139160156 C 847.5159301757813 510.7825927734375 847.5577392578125 512.2642211914063 847.91259765625 512.9839477539063 L 847.983642578125 513.1284790039063 C 847.8680419921875 513.2677001953125 847.7562866210938 513.4063110351563 847.6469116210938 513.5420532226563 C 846.6060791015625 514.8331909179688 845.707275390625 515.9483032226563 842.6892700195313 516.2424926757813 C 839.889892578125 516.5150756835938 836.424072265625 517.1994018554688 835.810302734375 518.9116821289063 C 835.5430297851563 519.6572265625 835.8242797851563 520.4520874023438 836.646240234375 521.2741088867188 C 836.8682861328125 521.4961547851563 837.0874633789063 521.7131958007813 837.3021240234375 521.9257202148438 C 839.3771362304688 523.9805908203125 841.0161743164063 525.6035766601563 840.4782104492188 527.019775390625 C 840.3514404296875 527.3536376953125 840.1736450195313 527.7221069335938 839.9854125976563 528.1121215820313 C 839.4069213867188 529.31103515625 838.7511596679688 530.669921875 839.264404296875 531.7789916992188 C 839.5594482421875 532.4166259765625 840.203369140625 532.8685302734375 841.17822265625 533.1220703125 C 842.7037963867188 533.5188598632813 843.4627075195313 533.9813232421875 843.6712646484375 534.2047729492188 C 843.4520874023438 534.3360595703125 842.6381225585938 534.6503295898438 839.8709716796875 534.6503295898438 C 838.056884765625 534.6503295898438 836.4967651367188 534.764892578125 835.120361328125 534.8659057617188 C 834.01220703125 534.947265625 833.0549926757813 535.017578125 832.1574096679688 535.017578125 Z" stroke="none"/>
      <path d="M 832.1575317382813 534.517578125 C 833.036865234375 534.517578125 833.9854125976563 534.4479370117188 835.083740234375 534.3672485351563 C 836.4688110351563 534.265625 838.03857421875 534.1503295898438 839.8709716796875 534.1503295898438 C 841.0224609375 534.1503295898438 841.8126831054688 534.0946655273438 842.3494262695313 534.0258178710938 C 842.0103149414063 533.8890380859375 841.5797729492188 533.7431640625 841.0523681640625 533.60595703125 C 839.9257202148438 533.3129272460938 839.1715087890625 532.7689208984375 838.8106079101563 531.9889526367188 C 838.1981811523438 530.6654052734375 838.908447265625 529.1934814453125 839.5350952148438 527.8948364257813 C 839.7184448242188 527.5148315429688 839.8916625976563 527.1558837890625 840.0108032226563 526.8422241210938 C 840.12939453125 526.530029296875 840.1842651367188 526.0527954101563 839.55029296875 525.1261596679688 C 838.9765014648438 524.2874755859375 838.0375366210938 523.357666015625 836.9503173828125 522.281005859375 C 836.735107421875 522.0679321289063 836.5153198242188 521.850341796875 836.2926635742188 521.627685546875 C 835.083740234375 520.4185791015625 835.1071166992188 519.3915405273438 835.339599609375 518.742919921875 C 835.9033203125 517.17041015625 838.3598022460938 516.1616821289063 842.6407470703125 515.7448120117188 C 845.4497680664063 515.4710083007813 846.24755859375 514.4812622070313 847.2576293945313 513.228271484375 C 847.3036499023438 513.171142578125 847.3500366210938 513.1135864257813 847.3970336914063 513.0556030273438 C 846.9969482421875 512.0647583007813 847.2020263671875 510.3768615722656 850.8475341796875 505.9285888671875 C 853.0947265625 503.1864929199219 855.9343872070313 500.2811279296875 857.4259033203125 498.7944641113281 C 859.131103515625 497.0893249511719 864.4189453125 494.4393005371094 870.5840454101563 492.2002563476563 C 874.9547729492188 490.6129150390625 883.5204467773438 487.8914794921875 891.7801513671875 487.4998474121094 C 897.9865112304688 487.2026062011719 899.775634765625 484.5362243652344 901.5079956054688 481.9545288085938 L 901.5252075195313 481.9290466308594 C 902.7796630859375 480.0744018554688 904.3408203125 477.7662048339844 908.0475463867188 477.6026000976563 C 909.5573120117188 477.5352478027344 912.9246826171875 476.9637145996094 916.0137329101563 475.6651000976563 C 918.4317016601563 474.6486206054688 921.40625 472.8789672851563 921.8461303710938 470.2196960449219 C 922.4143676757813 466.8087768554688 927.4654541015625 463.5755920410156 937.2881469726563 460.3353271484375 C 944.5574951171875 457.9373474121094 952.125244140625 456.3414306640625 953.5679931640625 456.0459594726563 L 954.879638671875 455.7766723632813 C 955.3662719726563 454.8825378417969 956.0364379882813 454.0734252929688 956.8517456054688 453.4019165039063 L 956.8624877929688 453.39306640625 L 956.8734741210938 453.3844604492188 C 960.1494750976563 450.8361511230469 963.0288696289063 446.0710144042969 966.077392578125 441.0260620117188 C 966.8558959960938 439.7377014160156 967.660888671875 438.4054870605469 968.4728393554688 437.1132507324219 C 969.2169189453125 435.92919921875 969.4216918945313 435.0001525878906 969.0816040039063 434.3518981933594 C 968.7896728515625 433.7954711914063 967.8975830078125 433.0267639160156 965.3057250976563 432.5245056152344 C 963.3351440429688 432.1426391601563 961.0203857421875 432.0420532226563 959.3302612304688 431.9685974121094 C 959.1735229492188 431.9618225097656 959.0211791992188 431.9551696777344 958.8738403320313 431.9485778808594 C 954.3211669921875 431.7441711425781 952.9036254882813 431.1180419921875 952.9036254882813 427.6022033691406 C 952.9036254882813 427.2413024902344 952.6328735351563 426.5880737304688 951.3428955078125 425.5254211425781 C 950.2324829101563 424.6107177734375 948.7258911132813 423.6759948730469 947.1307983398438 422.6864318847656 C 946.0862426757813 422.0383911132813 945.006103515625 421.3682861328125 944.0130004882813 420.6847229003906 C 942.0509643554688 419.3340759277344 941.2786865234375 419.1058959960938 939.9541625976563 419.1058959960938 C 939.4285278320313 419.1058959960938 938.8186645507813 419.1465454101563 938.0465698242188 419.197998046875 C 936.8086547851563 419.2804870605469 935.1132202148438 419.3934936523438 932.7481079101563 419.3934936523438 C 930.046875 419.3934936523438 928.5462036132813 418.8980712890625 927.8822631835938 417.7871704101563 C 927.0128173828125 416.3323364257813 927.9625244140625 414.5665283203125 929.0621337890625 412.5218811035156 C 929.6937866210938 411.347412109375 930.346923828125 410.1329650878906 930.715576171875 408.9013061523438 C 931.2425537109375 407.1401977539063 931.36279296875 406.0689086914063 931.11767578125 405.319091796875 C 930.888916015625 404.6195068359375 930.2796630859375 404.0437927246094 929.357421875 403.1723022460938 C 928.9801025390625 402.8157653808594 928.5523681640625 402.41162109375 928.0875854492188 401.9376525878906 C 925.5372924804688 399.3370361328125 925.9307861328125 396.1976013183594 926.2182006835938 393.9053039550781 C 926.2955322265625 393.2881164550781 926.3685913085938 392.7052307128906 926.3685913085938 392.239013671875 C 926.3685913085938 392.158203125 926.3518676757813 392.09716796875 926.2635498046875 392.0061645507813 C 926.1693725585938 391.9092102050781 925.9676513671875 391.7572021484375 925.5410766601563 391.583740234375 C 924.7268676757813 391.2525939941406 923.538818359375 391.0120849609375 922.1632080078125 390.7336120605469 C 920.5584106445313 390.4087219238281 918.739501953125 390.0404663085938 916.9903564453125 389.4132080078125 C 916.3292846679688 389.1761474609375 915.7960205078125 389.0559692382813 915.4054565429688 389.0559692382813 C 914.8204956054688 389.0559692382813 914.6773681640625 389.2431945800781 914.2272338867188 390.5968017578125 C 913.9295654296875 391.4920654296875 913.55908203125 392.606201171875 912.677490234375 393.5482177734375 C 910.0794067382813 396.3242492675781 907.0734252929688 397.4308776855469 901.5863647460938 397.6312255859375 C 898.6082153320313 397.7395935058594 896.7782592773438 398.4939880371094 894.8408203125 399.2926025390625 C 893.3108520507813 399.9233093261719 891.7314453125 400.5743713378906 889.5867919921875 400.9020690917969 L 889.34228515625 401.1520080566406 C 888.8877563476563 401.6147155761719 888.2026977539063 402.2394104003906 887.4202270507813 402.9482116699219 L 887.402587890625 402.9642028808594 C 884.9232177734375 405.2130126953125 880.7734375 408.9767761230469 879.5093383789063 411.9452514648438 L 879.5069580078125 411.9507751464844 L 879.5045776367188 411.9563293457031 C 879.3529052734375 412.3008422851563 879.22900390625 412.6102905273438 879.1243896484375 412.8743286132813 C 877.7549438476563 416.3200378417969 876.0521240234375 417.3706359863281 871.83642578125 417.3707275390625 C 870.2643432617188 417.3707580566406 868.3002319335938 417.2337036132813 865.8139038085938 417.0602111816406 L 863.2733764648438 416.8839111328125 L 862.72216796875 416.8466186523438 C 860.5505981445313 416.6994018554688 858.3072509765625 416.5473327636719 857.2781372070313 416.5383605957031 C 856.0732421875 417.5409545898438 854.6323852539063 418.3199768066406 853.0869750976563 418.8020324707031 C 851.9364624023438 419.2299499511719 850.81494140625 419.7425842285156 849.7530517578125 420.3258666992188 L 849.7483520507813 420.3284606933594 L 849.74365234375 420.3309631347656 C 848.2236328125 421.1448364257813 846.82177734375 421.6868896484375 844.9210205078125 421.68701171875 C 843.306396484375 421.6871032714844 841.3919067382813 421.3194885253906 838.2048950195313 420.5958557128906 C 837.7598266601563 420.4955749511719 837.3182983398438 420.3999633789063 836.9121704101563 420.3157653808594 C 836.0930786132813 421.4269104003906 834.6566162109375 422.3594970703125 832.5507202148438 423.1519165039063 C 831.03466796875 423.7700500488281 829.4225463867188 424.0834655761719 827.7589721679688 424.08349609375 C 827.18359375 424.0835266113281 826.6033325195313 424.0444946289063 826.0341796875 423.9674682617188 L 826.0198974609375 423.9655151367188 L 826.0056762695313 423.9631958007813 C 822.2686157226563 423.3473815917969 820.3839721679688 421.0737609863281 818.201904296875 418.4413146972656 C 817.4075317382813 417.4833984375 816.5072631835938 416.3976440429688 815.470703125 415.3643188476563 L 815.4459838867188 415.3396606445313 L 815.4230346679688 415.3133544921875 C 814.7576904296875 414.5504455566406 813.8976440429688 413.9217529296875 812.92529296875 413.4859008789063 L 812.4969482421875 413.509521484375 C 811.597900390625 413.9114074707031 810.7691650390625 414.4223937988281 810.0313720703125 415.0299987792969 L 810.0166015625 415.0421447753906 L 810.0014038085938 415.0537719726563 L 809.423095703125 415.4939880371094 L 809.3876953125 415.5207214355469 C 806.3346557617188 417.8284301757813 801.7207641601563 421.3158264160156 794.4280395507813 421.3160400390625 C 793.8432006835938 421.3160705566406 793.2432250976563 421.293212890625 792.6441650390625 421.2480163574219 C 791.5385131835938 421.2603454589844 788.5673828125 421.8539123535156 780.97607421875 425.5999450683594 C 776.240234375 427.9369201660156 770.5739135742188 431.0920104980469 765.8193359375 434.0394592285156 L 764.7661743164063 434.693359375 L 764.4003295898438 434.9205322265625 C 764.5380249023438 435.6304626464844 764.7767333984375 436.4869995117188 765.0230102539063 437.3706665039063 C 765.582763671875 439.3792419433594 766.2794189453125 441.8789978027344 766.2794189453125 444.3393859863281 C 766.2794189453125 446.220703125 766.7994995117188 447.5248718261719 767.9657592773438 448.5680541992188 C 769.0910034179688 449.5745239257813 770.70751953125 450.2588806152344 772.5792236328125 451.0513305664063 L 772.84130859375 451.162353515625 C 774.3892211914063 451.8186950683594 775.2152099609375 452.97412109375 775.2964477539063 454.5965881347656 C 775.35986328125 455.8645324707031 774.9722900390625 457.2352600097656 774.56201171875 458.6864929199219 C 774.1918334960938 459.9956970214844 773.80908203125 461.3494873046875 773.80908203125 462.5425109863281 C 773.80908203125 465.4069213867188 774.5350952148438 466.0058288574219 776.475341796875 467.6064147949219 C 776.8598022460938 467.923583984375 777.2955322265625 468.2830200195313 777.7662963867188 468.6952209472656 C 779.1513671875 469.9078063964844 779.767333984375 470.9860534667969 779.7635498046875 472.1913146972656 C 779.7601318359375 473.2781677246094 779.2350463867188 474.2564086914063 778.6270141601563 475.3891296386719 C 778.42578125 475.7640686035156 778.2176513671875 476.1517333984375 778.0089111328125 476.5765380859375 C 776.6876220703125 479.3869934082031 775.877685546875 482.3507080078125 775.60107421875 485.3871459960938 C 775.6683959960938 486.9080810546875 779.986083984375 489.0360412597656 782.573974609375 490.3115234375 C 786.8829956054688 492.4352111816406 797.3753662109375 494.6181945800781 801.6864624023438 495.4581909179688 C 801.9015502929688 495.5000915527344 802.1508178710938 495.5213317871094 802.4273681640625 495.5213317871094 C 803.8668823242188 495.5213317871094 805.9978637695313 494.9468994140625 808.2739868164063 493.9453125 C 810.3630981445313 493.0260009765625 812.3147583007813 491.8548278808594 813.367431640625 490.8888244628906 C 814.8488159179688 489.5293884277344 816.4302368164063 488.8108520507813 817.940673828125 488.8108520507813 C 819.2330932617188 488.8108520507813 820.412109375 489.3559875488281 821.260498046875 490.3457641601563 C 821.5018920898438 490.6273803710938 822.115478515625 491.0537109375 823.6674194335938 491.4853515625 C 824.8946533203125 491.8266906738281 826.3142700195313 492.069580078125 827.6871948242188 492.3044738769531 C 828.5360717773438 492.4497375488281 829.337890625 492.5869140625 830.0341796875 492.7386169433594 C 831.4666137695313 493.05078125 833.1351318359375 493.5830383300781 833.323974609375 494.9392395019531 C 833.4893798828125 496.1274108886719 832.475830078125 497.2144470214844 829.934814453125 498.5739440917969 C 828.983642578125 499.0828552246094 828.3197021484375 499.4972229003906 827.905029296875 499.8406982421875 C 827.5377197265625 500.1449890136719 827.4962768554688 500.2897033691406 827.4959716796875 500.2897033691406 C 827.4959716796875 500.2897033691406 827.4959716796875 500.2897033691406 827.4959716796875 500.2897033691406 C 827.4921264648438 500.3868713378906 827.6636962890625 500.7143859863281 827.7772216796875 500.9310913085938 C 827.9197998046875 501.2032775878906 828.0972290039063 501.5419921875 828.248291015625 501.9389953613281 C 828.4037475585938 502.3476867675781 828.62841796875 502.59912109375 828.8089599609375 502.8012084960938 C 829.016357421875 503.0333557128906 829.4479370117188 503.516357421875 829.1702270507813 504.1622009277344 C 828.9044799804688 504.7802429199219 828.2572631835938 504.8379211425781 828.0136108398438 504.859619140625 C 827.7762451171875 504.8807983398438 827.4537353515625 504.8902893066406 826.9654541015625 504.9046630859375 C 826.5116577148438 504.9179992675781 825.9468383789063 504.9346313476563 825.2088623046875 504.9673156738281 C 823.6578979492188 505.0359802246094 823.1553955078125 505.2747497558594 823.0068969726563 505.4629821777344 C 822.7979736328125 505.7278137207031 822.794677734375 506.4753112792969 822.790771484375 507.3408508300781 C 822.7866821289063 508.2586669921875 822.7816162109375 509.4009094238281 822.5714721679688 510.8135070800781 C 822.2567749023438 512.9281005859375 822.5266723632813 514.32080078125 823.4739990234375 515.4703979492188 C 824.3763427734375 516.5653686523438 825.9156494140625 517.5133056640625 828.787109375 518.7421875 C 830.0851440429688 519.2976684570313 830.811767578125 520.073974609375 830.9468994140625 521.049560546875 C 831.2194213867188 523.0165405273438 828.9776611328125 524.8281860351563 826.6043090820313 526.7461547851563 C 825.382568359375 527.7334594726563 823.862060546875 528.9622802734375 823.5856323242188 529.6587524414063 C 823.39306640625 530.1438598632813 823.3308715820313 530.3870849609375 823.31201171875 530.5040893554688 C 823.446044921875 530.5899047851563 823.705810546875 530.716552734375 823.9228515625 530.8223876953125 C 824.6683349609375 531.185791015625 825.7947998046875 531.7350463867188 827.2346801757813 532.9116821289063 C 828.8654174804688 534.244384765625 830.3818359375 534.5174560546875 832.1572875976563 534.517578125 L 832.1575317382813 534.517578125 M 832.1569213867188 535.517578125 C 830.0969848632813 535.5174560546875 828.3944702148438 535.1509399414063 826.6019287109375 533.6859741210938 C 823.0140991210938 530.7542114257813 821.5750732421875 532.0131225585938 822.6561889648438 529.289794921875 C 823.7369995117188 526.5665893554688 833.7725219726563 521.9635009765625 828.3936767578125 519.6614990234375 C 823.014892578125 517.359619140625 820.86572265625 515.4813232421875 821.5823974609375 510.6662902832031 C 822.2985229492188 505.8514099121094 820.5076293945313 504.1744995117188 825.1646118164063 503.9682922363281 C 829.8212280273438 503.7620849609375 828.030029296875 504.1777038574219 827.3135986328125 502.2945861816406 C 826.5972900390625 500.4114990234375 825.1591186523438 499.9949951171875 829.4630126953125 497.6921997070313 C 833.7670288085938 495.3894958496094 832.6934814453125 494.3416137695313 829.8212280273438 493.7156982421875 C 826.94921875 493.0899047851563 821.9360961914063 492.6702880859375 820.5012817382813 490.9966125488281 C 819.841064453125 490.2263793945313 818.9525146484375 489.8108215332031 817.940673828125 489.8108215332031 C 816.7538452148438 489.8108215332031 815.3976440429688 490.3829956054688 814.0435180664063 491.6256103515625 C 811.7562866210938 493.724609375 805.8914184570313 496.5213317871094 802.4273681640625 496.5213317871094 C 802.0925903320313 496.5213317871094 801.7797241210938 496.4951477050781 801.4951782226563 496.439697265625 C 798.2669067382813 495.8106994628906 786.7974243164063 493.5079040527344 782.1318969726563 491.20849609375 C 777.4660034179688 488.9088134765625 774.6002807617188 487.235107421875 774.6002807617188 485.3511962890625 C 774.8825073242188 482.1817016601563 775.7291259765625 479.0730895996094 777.1076049804688 476.143310546875 C 778.5451049804688 473.2146911621094 779.9733276367188 471.9565124511719 777.1076049804688 469.4476013183594 C 774.2421264648438 466.9386901855469 772.80908203125 466.5158081054688 772.80908203125 462.5425109863281 C 772.80908203125 458.5692138671875 776.398193359375 453.7567138671875 772.450927734375 452.0830078125 C 768.5032958984375 450.4092102050781 765.2794189453125 449.1535034179688 765.2794189453125 444.3393859863281 C 765.2794189453125 439.926513671875 762.9033813476563 435.3682861328125 763.334228515625 433.3469848632813 L 764.2387084960938 433.8438110351563 L 765.2918701171875 433.1899108886719 C 773.9625244140625 427.8147888183594 788.1364135742188 420.247802734375 792.6795043945313 420.247802734375 C 793.2799682617188 420.2941284179688 793.862060546875 420.3160705566406 794.427978515625 420.3160705566406 C 801.4127197265625 420.3158264160156 805.8161010742188 416.9667358398438 808.8201293945313 414.6961975097656 L 809.3956909179688 414.2580871582031 C 810.2493896484375 413.5549926757813 811.2153930664063 412.9696044921875 812.2614135742188 412.52099609375 L 813.10498046875 412.4744873046875 C 814.3078002929688 412.9726867675781 815.3609008789063 413.7206115722656 816.1766967773438 414.6560974121094 C 817.2174072265625 415.693603515625 818.0913696289063 416.7413940429688 818.9716796875 417.8030090332031 C 821.1112060546875 420.3840942382813 822.8038940429688 422.4220886230469 826.1682739257813 422.9765014648438 C 826.697021484375 423.0480346679688 827.2284545898438 423.0835266113281 827.7589111328125 423.0835266113281 C 829.2801513671875 423.0834655761719 830.7906494140625 422.79150390625 832.1857299804688 422.2207946777344 C 835.0576782226563 421.1423950195313 836.0213012695313 420.0286865234375 836.4266967773438 419.1982116699219 C 837.0241088867188 419.3139038085938 837.7415161132813 419.4664001464844 838.4246826171875 419.6203002929688 C 841.4512939453125 420.3075256347656 843.368896484375 420.6871032714844 844.9209594726563 420.68701171875 C 846.4893798828125 420.6869201660156 847.6845092773438 420.2991333007813 849.2716064453125 419.4494018554688 C 850.3873901367188 418.8364868164063 851.55517578125 418.3034057617188 852.764404296875 417.8551025390625 C 854.3187866210938 417.3741149902344 855.7313842773438 416.5845947265625 856.898193359375 415.5462036132813 L 855.6829223632813 415.097412109375 L 856.9010009765625 415.5440063476563 C 856.902099609375 415.5430908203125 856.903076171875 415.5422973632813 856.9038696289063 415.5414123535156 L 855.6854858398438 415.0932922363281 L 857.0698852539063 415.4930114746094 C 857.044921875 415.5119934082031 857.0159301757813 415.5260009765625 856.9871215820313 415.5404052734375 C 857.0467529296875 415.5387573242188 857.1132202148438 415.5379638671875 857.186279296875 415.5379638671875 C 858.2830810546875 415.5379638671875 860.8441772460938 415.7174377441406 863.3408203125 415.8861999511719 L 865.8831176757813 416.0625915527344 C 868.366455078125 416.2359008789063 870.300048828125 416.3707885742188 871.83642578125 416.3707275390625 C 875.607177734375 416.3706359863281 876.9818115234375 415.5577697753906 878.1951293945313 412.5050048828125 C 878.3088989257813 412.2178039550781 878.435302734375 411.9031982421875 878.5892944335938 411.5534057617188 C 879.9423828125 408.3760070800781 884.2033081054688 404.5158996582031 886.7484130859375 402.2074890136719 C 887.5429077148438 401.48779296875 888.2009887695313 400.8868103027344 888.62890625 400.4512023925781 L 889.1093139648438 399.9601135253906 C 894.036376953125 399.3070068359375 895.8587036132813 396.8389892578125 901.5499877929688 396.6318969726563 C 907.284423828125 396.4224853515625 909.7952880859375 395.1643981933594 911.9473266601563 392.8648986816406 C 913.7278442382813 390.9625244140625 913.0499267578125 388.0559997558594 915.4054565429688 388.0559997558594 C 915.8972778320313 388.0559997558594 916.5216064453125 388.1828002929688 917.327880859375 388.4718933105469 C 921.9953002929688 390.1456909179688 927.3685913085938 389.9385986328125 927.3685913085938 392.239013671875 C 927.3685913085938 394.5393981933594 925.9296264648438 398.3088989257813 928.8015747070313 401.2374877929688 C 931.673583984375 404.1661071777344 933.1137084960938 404.37548828125 931.673583984375 409.18798828125 C 930.2332763671875 414.0006103515625 924.86181640625 418.3934936523438 932.7481079101563 418.3934936523438 C 936.5285034179688 418.3934936523438 938.4954223632813 418.1058959960938 939.9541625976563 418.1058959960938 C 941.5385131835938 418.1058959960938 942.5234985351563 418.4453125 944.5800170898438 419.8609924316406 C 948.5305786132813 422.5802001953125 953.9036254882813 425.0932006835938 953.9036254882813 427.6022033691406 C 953.9036254882813 430.1111145019531 954.2554931640625 430.7402038574219 958.918701171875 430.9495849609375 C 963.5817260742188 431.1589965820313 973.2628784179688 431.3699951171875 969.319580078125 437.6452941894531 C 965.3765258789063 443.9205017089844 961.7907104492188 450.8263854980469 957.4874877929688 454.1737976074219 C 956.5374755859375 454.956298828125 955.819580078125 455.9382019042969 955.3984985351563 457.0310974121094 L 955.2192993164063 456.7278137207031 L 953.7691040039063 457.0255126953125 C 950.7252807617188 457.6488952636719 924.0112915039063 463.3078918457031 922.8325805664063 470.3840026855469 C 921.88330078125 476.1224060058594 911.5452880859375 478.4476013183594 908.0921020507813 478.6015930175781 C 904.8726196289063 478.7437133789063 903.5900268554688 480.6612854003906 902.3363037109375 482.5148010253906 C 900.5543212890625 485.1705017089844 898.5286254882813 488.1777954101563 891.8280029296875 488.4986877441406 C 878.0687866210938 489.1510925292969 861.07861328125 496.5559997558594 858.1329956054688 499.5015869140625 C 854.8463745117188 502.7774963378906 847.3115234375 510.6341857910156 848.3610229492188 512.7628784179688 L 848.576904296875 513.2017822265625 C 847.2504272460938 514.7294921875 846.4990234375 516.3734741210938 842.73779296875 516.7401123046875 C 838.4375 517.1588745117188 834.4869995117188 518.4074096679688 836.9998168945313 520.9205932617188 C 839.5128784179688 523.4334106445313 841.6621704101563 525.3109130859375 840.9456176757813 527.1973266601563 C 840.2291870117188 529.0836791992188 838.080078125 531.7996215820313 841.3040771484375 532.63818359375 C 844.5278930664063 533.4766235351563 846.3287963867188 535.1503295898438 839.8709716796875 535.1503295898438 C 836.64013671875 535.1503295898438 834.2193603515625 535.5176391601563 832.1569213867188 535.517578125 Z" stroke="none" fill="#30abec"/>
    </g>
    <text id="youyang-2" data-name="youyang" transform="translate(152.579 96.746)" fill="#fff" font-size="10" font-family="MicrosoftYaHei, Microsoft YaHei"><tspan x="-25" y="0">酉阳土家族</tspan><tspan x="-25" y="16">苗族自治县</tspan></text>
    <g transform="matrix(1, 0, 0, 1, 29.31, 33.06)" filter="url(#thick_4)">
      <path id="thick_4-2" data-name="thick_4" d="M763.334,433.347c-.285,2.009,1.945,6.58,1.945,10.992,0,4.814,3.224,6.07,7.172,7.744s.358,6.486.358,10.46,1.433,4.4,4.3,6.905,1.438,3.767,0,6.7a27.3,27.3,0,0,0-2.507,9.208c0,1.884,2.866,3.558,7.532,5.857s16.135,4.6,19.363,5.231,10.04-2.512,12.548-4.814,5.023-2.3,6.458-.629,6.448,2.093,9.32,2.719,3.946,1.674-.358,3.977-2.866,2.719-2.149,4.6,2.508,1.467-2.149,1.674-2.866,1.883-3.582,6.7,1.432,6.693,6.811,9-5.737,9.628-5.737,9.628l-.6.8s-1.365-15.029-.473-15.945c-.449-1.145.14-4.659.14-4.659s.185-4.1.236-4.283c-1.433-1.673-5.234.074-7.747,2.374s-9.32,5.435-12.543,4.807-14.693-2.926-19.349-5.226-7.522-3.973-7.522-5.854c.018-.2-.594-14.464-.2-15.955-1.942-1.6-1.595-3.558-1.595-6.828,0-.194-.108-10.346-.358-10.452a34.528,34.528,0,0,1-3.777-1.778,6.175,6.175,0,0,1-3.387-5.954c0-4.392-2.356-8.927-1.95-10.959,0-.01,0-.031,0-.031" transform="translate(-736.31 -388.06)" fill="url(#linear-gradient)"/>
    </g>
    <g transform="matrix(1, 0, 0, 1, 29.31, 33.06)" filter="url(#thick_3)">
      <path id="thick_3-2" data-name="thick_3" d="M821.972,530.164s.507,15.492.561,15.639a1.31,1.31,0,0,0-.009.218c-.424,1.658,1.07,1,4.224,3.574,3.584,2.929,6.805,1.463,13.253,1.463,3.642,0,4.654-.535,4.264-1.151a.381.381,0,0,0,.028-.553c.095-.138.437-10.844.33-11a.383.383,0,0,0-.025-.519c.391-.557-.429-3.623-.426-3.691.444-.064-1.766-1.435-1.306-1.48,3.761-.363,4.168-1.886,5.494-3.41V512.763l.216.439c-1.326,1.528-2.078,3.172-5.839,3.538-4.3.419-8.251,1.667-5.738,4.18s4.662,4.39,3.946,6.277-2.866,4.6.358,5.441,5.025,2.512-1.433,2.512-9.682,1.467-13.269-1.464-4.038-2.212-4.038-2.212Z" transform="translate(-736.31 -388.06)" fill="url(#linear-gradient-2)"/>
    </g>
    <g transform="matrix(1, 0, 0, 1, 29.31, 33.06)" filter="url(#thick_1)">
      <path id="thick_1-2" data-name="thick_1" d="M80.82,149.589h0c0-.052.007-.451.035-1C80.837,149.3,80.825,149.551,80.82,149.589Zm.037-1.066h0c.014-.573.026-1.277.038-2.092,0-.005-.016-.01-.048-.017a.345.345,0,0,0,.073-.345c-.155-.486-1.293-1.07-2.9-1.487a2.2,2.2,0,0,1-1.586-1.069c-.414-.895.161-2.087.718-3.24.193-.4.375-.778.51-1.132.653-1.72-1.087-3.444-3.291-5.626-.215-.213-.434-.43-.655-.65-.673-.673-.915-1.292-.719-1.84.219-.611.976-1.133,2.249-1.55a20.441,20.441,0,0,1,4.208-.791,6.509,6.509,0,0,0,5.3-2.884c.173-.215.352-.437.541-.654l-.216-.439c-1.051-2.131,6.484-9.984,9.772-13.262,2.946-2.945,19.934-10.35,33.7-11,6.709-.322,8.728-3.33,10.508-5.984l.018-.027c1.246-1.841,2.534-3.745,5.738-3.887,3.455-.154,13.791-2.476,14.74-8.217,1.178-7.072,27.894-12.736,30.937-13.359l1.451-.3.179.3a6.985,6.985,0,0,1,2.089-2.858c3.421-2.661,6.347-7.5,9.444-12.628l0-.005c.776-1.284,1.578-2.611,2.385-3.9a5.165,5.165,0,0,0,.922-2.559c.142,3.342.582,16.4.355,16.626-.739,1.176-1.5,2.423-2.3,3.743-3.427,5.625-7.31,12-10.807,14.719a6.972,6.972,0,0,0-2.089,2.857l-.179-.3-1.451.3c-3.042.622-29.758,6.286-30.937,13.358-.949,5.742-11.285,8.064-14.74,8.218-3.2.142-4.492,2.045-5.738,3.887l-.018.027c-1.781,2.654-3.8,5.662-10.508,5.984-13.763.653-30.75,8.058-33.7,11-3.288,3.277-10.823,11.13-9.772,13.262v.519c-.331.381-.589.718-.817,1.015a4.7,4.7,0,0,1-2.563,1.977C81.143,144.272,80.925,147.247,80.857,148.523Z" transform="translate(26.97)" stroke="rgba(0,0,0,0)" stroke-miterlimit="10" stroke-width="1" fill="url(#linear-gradient-3)"/>
    </g>
    <path id="thick_2" d="M164.718,24.323h0c-1.812-.075-2.882-.444-3.272-1.127-.552-.969.267-2.492,1.215-4.256a21.179,21.179,0,0,0,1.731-3.808c.135-.45.241-.85.327-1.223V24.322Z" transform="translate(60.282 39.056)" fill="url(#linear-gradient-4)"/>
  </g>
</svg>
