<svg xmlns="http://www.w3.org/2000/svg" xmlns:xlink="http://www.w3.org/1999/xlink" width="336.809" height="248.216" viewBox="0 0 336.809 248.216">
  <defs>
    <linearGradient id="linear-gradient" x1="0.681" y1="0.921" x2="0.663" y2="0.694" gradientUnits="objectBoundingBox">
      <stop offset="0" stop-color="#191e64"/>
      <stop offset="1" stop-color="#17448b"/>
    </linearGradient>
    <filter id="yubei3" x="0" y="0" width="336.809" height="248.216" filterUnits="userSpaceOnUse">
      <feOffset dy="8" input="SourceAlpha"/>
      <feGaussianBlur stdDeviation="9" result="blur"/>
      <feFlood flood-color="#0f093c" flood-opacity="0.161"/>
      <feComposite operator="in" in2="blur"/>
      <feComposite in="SourceGraphic"/>
    </filter>
    <radialGradient id="radial-gradient" cx="0.483" cy="0.5" r="0.671" gradientTransform="translate(0.079) scale(0.842 1)" gradientUnits="objectBoundingBox">
      <stop offset="0" stop-color="#1fb9e6"/>
      <stop offset="1" stop-color="#0669d2"/>
    </radialGradient>
  </defs>
  <g id="yubei" transform="translate(-757.604 -1843.039)">
    <g transform="matrix(1, 0, 0, 1, 757.6, 1843.04)" filter="url(#yubei3)">
      <path id="yubei3-2" data-name="yubei3" d="M.294,200.255h0c.273-1.112.039-14.989,0-16,5.116-.286,9.962-.431,14.4-.431A79.014,79.014,0,0,0,28.81,182.4l.887-.146.358-.061c3.026-.519,6.451-1.107,10.834-1.648,6.057-.729,9.261-3.675,13.7-7.753l.03-.028.095-.087a63.759,63.759,0,0,1,13.259-9.943c6.419-3.517,15.432-5.3,26.789-5.3A158.246,158.246,0,0,1,121.495,160c14.268,2.483,22.88,3.981,34.1,4.077h.124c5.969,0,12-3.714,17.825-7.305,4.421-2.714,8.6-5.277,12.938-6.48,1.407-.392,2.92-.832,4.383-1.256l.037-.011c7.334-2.134,16.461-4.79,24.377-4.79a28.44,28.44,0,0,1,5.655.527,32.34,32.34,0,0,0,6.431.605c5.385,0,18.6-1.3,24.982-13.353,2.514-4.748,6.838-9.556,12.851-14.292a1.192,1.192,0,0,1,.145.125v.089l0,.193,0,.306c-.078,12.165-.041,14.966,0,15.173-6.087,4.771-10.46,9.617-13,14.406a23.51,23.51,0,0,1-11.473,10.635,33.593,33.593,0,0,1-13.509,2.717,32.223,32.223,0,0,1-6.43-.6,28.37,28.37,0,0,0-5.656-.527c-7.911,0-17.03,2.653-24.358,4.785l-.013,0-.043.013c-1.674.486-3.06.886-4.383,1.256-4.345,1.2-8.516,3.764-12.932,6.476l-.005,0c-5.825,3.592-11.848,7.305-17.825,7.305H155.6c-11.226-.094-19.836-1.593-34.1-4.076a158.158,158.158,0,0,0-26.737-2.569c-11.354,0-20.367,1.783-26.789,5.3a63.756,63.756,0,0,0-13.252,9.937l-.1.094-.03.027c-4.435,4.078-7.64,7.025-13.7,7.753-4.327.534-7.712,1.114-10.7,1.625l-.039.007-.063.011-.391.067-.354.059-.533.088A78.975,78.975,0,0,1,14.7,199.824C10.241,199.824,5.4,199.969.294,200.255Zm2.437-20.961h0A20.194,20.194,0,0,0,0,177.367c.367-.527.12-14.774.076-15.955A16.557,16.557,0,0,1,5.6,166.48a6.582,6.582,0,0,1,.549,6.525c-.517,1.122-1.3,2.513-2.133,3.986-.44.756-.872,1.529-1.287,2.3ZM36.82,150.046h0a20.42,20.42,0,0,1-2.7-4.638c.085-.5.086-15.889,0-15.988l0,0a21.528,21.528,0,0,0,7.825,9.445c2.453,1.46,2.871,3.237,2.791,4.47a5.156,5.156,0,0,1-2.462,3.865,29.3,29.3,0,0,1-5.462,2.843Zm39.606-18.187h0a21.676,21.676,0,0,0-3.46-3.077l-.293-.205c-.307-.2-.621-.437-.873-.627l-.236-.177c.239-.139.124-4.365.014-8.453v-.045c-.1-3.722-.2-7.238-.013-7.323.049-.023.1-.045.152-.066l.1.078c.277.208.563.422.854.612l.293.2c3.925,2.8,7.875,7.64,7.188,12.828a9.581,9.581,0,0,1-3.727,6.25Zm188.69-14.6v0a13.15,13.15,0,0,1-1.678-7.991,35.966,35.966,0,0,1,2.4-9.956c2.636-7.11,6.949-14.839,11.121-22.314l.26-.465c1.748-3.133,3.4-6.088,4.651-8.6a6.987,6.987,0,0,0,.813-3.9l.007.007.008.009.006,0a.009.009,0,0,1,.007,0c.168.17.086,6.653.025,11.387v.044c-.03,2.357-.053,4.219-.039,4.7a7.369,7.369,0,0,1-.827,3.749c-1.269,2.538-2.99,5.619-4.653,8.6l-.028.051L276.96,93l0,.005,0,.006c-4.593,8.232-9.343,16.744-11.76,24.026l-.075.224ZM120.264,51.151a38.084,38.084,0,0,0-15.607-26.8c-1.342-.988-2.657-1.808-3.653-2.411.256-.1.133-6.421.043-11.037l0-.155,0-.082C101,8.222,100.955,6.111,101,6.094l.165-.055c1.4.854,2.479,1.567,3.488,2.311a38.76,38.76,0,0,1,10.951,12.2,40.842,40.842,0,0,1,4.953,21.452c-.069,2.575-.164,5.941-.295,9.145Z" transform="translate(27 12.96)" fill="url(#linear-gradient)"/>
    </g>
    <g id="yubei2" transform="translate(613.004 1856)" opacity="0.67" fill="url(#radial-gradient)">
      <path d="M 172.6889038085938 183.7108459472656 C 173.7044372558594 181.5086822509766 174.833251953125 179.3370208740234 176.0501098632813 177.2450714111328 L 176.0517578125 177.2422180175781 L 176.0534057617188 177.2392883300781 C 176.8891143798828 175.7575378417969 177.678466796875 174.3579711914063 178.2052154541016 173.214111328125 C 180.0774078369141 169.1449737548828 177.8792419433594 164.6893310546875 172.3226776123047 161.2221832275391 C 172.9847869873047 160.3118286132813 173.6414489746094 159.4321594238281 174.2390441894531 158.6552886962891 C 174.9729309082031 157.7143859863281 176.6145477294922 157.2156829833984 178.9843597412109 157.2156829833984 C 182.4513702392578 157.2156829833984 187.4740753173828 158.2494354248047 193.9129333496094 160.2881774902344 C 194.7014923095703 160.5380401611328 195.2293090820313 160.7017364501953 195.5853424072266 160.7965545654297 C 196.0787658691406 160.9456634521484 196.5901184082031 161.0212554931641 197.1053619384766 161.0212097167969 C 198.020751953125 161.0211791992188 198.9243316650391 160.7806854248047 199.7183990478516 160.32568359375 C 201.8792266845703 159.0818176269531 202.4852294921875 156.6493988037109 203.0198974609375 154.5032806396484 L 203.0232543945313 154.4899291992188 L 203.0669708251953 154.3191833496094 C 203.1793365478516 153.8797912597656 203.2950439453125 153.4272918701172 203.4206390380859 153.004150390625 C 204.8369293212891 152.1629333496094 206.3307037353516 151.4322814941406 207.8635864257813 150.8311767578125 L 207.87158203125 150.8280334472656 L 207.8794403076172 150.8246459960938 C 212.5614318847656 148.80078125 216.6049652099609 147.0529327392578 216.8441467285156 143.370361328125 C 216.9339752197266 141.9974670410156 216.4805755615234 140.0269317626953 213.8102569580078 138.4374694824219 C 210.5944671630859 136.5079803466797 208.0711212158203 133.0200347900391 206.7993774414063 130.5611572265625 C 206.8448638916016 130.5872955322266 206.8898620605469 130.6131896972656 206.9342956542969 130.6387481689453 C 207.0803985595703 130.7228240966797 207.2214050292969 130.8039703369141 207.3544769287109 130.8792572021484 L 207.3699035644531 130.8880767822266 C 210.1384429931641 132.4709930419922 213.9300842285156 134.6389312744141 218.1194763183594 134.6386108398438 C 218.7888336181641 134.6385650634766 219.4563598632813 134.5827789306641 220.1035461425781 134.4727783203125 C 220.4592895507813 134.412353515625 220.8037567138672 134.3829956054688 221.1565399169922 134.3829956054688 C 222.4785766601563 134.3829956054688 223.7387237548828 134.8106079101563 225.3340759277344 135.3519592285156 L 225.50439453125 135.4097290039063 C 227.6383666992188 136.1617126464844 230.2939605712891 137.0967559814453 233.7776794433594 137.0967559814453 C 236.5766143798828 137.0967102050781 239.5196533203125 136.5076446533203 242.7749786376953 135.2958221435547 C 249.9134368896484 132.634033203125 251.8675842285156 128.5936126708984 252.2498931884766 125.6728210449219 C 252.9657897949219 120.2656097412109 248.8998260498047 115.2568588256836 244.8559722900391 112.3726806640625 L 244.5602264404297 112.1656036376953 L 244.5537261962891 112.1610717773438 L 244.547119140625 112.1567153930664 C 244.3943176269531 112.0568237304688 244.2408905029297 111.9484100341797 244.0887451171875 111.8373184204102 C 248.1544799804688 109.7458114624023 257.9796447753906 106.4117813110352 262.317626953125 104.9397506713867 C 275.3852233886719 100.5125350952148 283.4636535644531 93.15692901611328 287.7406616210938 81.79132080078125 C 291.5986022949219 71.49853515625 292.2129821777344 58.8144645690918 292.6597595214844 42.01896286010742 C 293.1389465332031 23.99478530883789 284.1649475097656 13.54199981689453 276.5523376464844 7.947106838226318 C 275.5626831054688 7.218194484710693 274.5863342285156 6.579624176025391 273.7395324707031 6.050545692443848 C 282.1751098632813 3.043409109115601 293.3213500976563 2.272361755371094 293.6607055664063 2.253527879714966 L 293.6716003417969 2.253963947296143 L 293.6983642578125 2.252142429351807 L 298.0450439453125 1.959928274154663 L 298.6052856445313 1.922285437583923 L 298.5031433105469 1.370142579078674 L 298.4069519042969 0.8500705361366272 C 300.8857421875 2.018778800964355 303.1922302246094 3.513924837112427 305.2741394042969 5.302821159362793 C 307.5946960449219 7.296767234802246 309.5963134765625 9.62122631072998 311.2236633300781 12.21202087402344 C 313.5096740722656 16.08901596069336 314.5807800292969 19.52898979187012 315.5259094238281 22.56428527832031 C 317.9461059570313 30.33699989318848 319.5450134277344 35.47196578979492 338.3350524902344 37.47682189941406 C 340.7432250976563 37.73332214355469 342.8975524902344 37.85799789428711 344.9211120605469 37.85796356201172 C 353.1937866210938 37.85778427124023 357.3677673339844 35.74667739868164 362.2008056640625 33.30217742919922 C 365.9999084472656 31.38067817687988 370.305908203125 29.20274925231934 377.433837890625 27.84232139587402 C 378.5267639160156 27.6339282989502 379.6243286132813 27.52824974060059 380.6958923339844 27.52824974060059 C 384.83154296875 27.52824974060059 388.8561096191406 29.07528495788574 392.9995727539063 32.25782012939453 C 396.6626586914063 35.07131958007813 399.8359069824219 38.66592788696289 402.9046630859375 42.14221572875977 C 406.6559143066406 46.39160537719727 409.8956298828125 50.0615348815918 413.2440185546875 51.39025115966797 C 414.2300415039063 51.77817916870117 415.2420043945313 52.19681930541992 416.2206420898438 52.60167694091797 C 420.6396484375 54.42974853515625 425.2090759277344 56.32010650634766 429.5026550292969 56.31999969482422 C 432.2780151367188 56.31989669799805 434.6651916503906 55.54411315917969 436.7926025390625 53.94952392578125 L 437.4573364257813 54.07585525512695 C 438.369873046875 54.25157165527344 441.6148376464844 54.92918014526367 445.0079345703125 56.2606086730957 C 446.950439453125 57.02281951904297 448.607421875 57.86989212036133 449.9328918457031 58.7783203125 C 451.5215454101563 59.86710739135742 452.6370849609375 61.04742813110352 453.2485656738281 62.28642654418945 C 454.0686645507813 63.94814300537109 453.9923706054688 65.77492523193359 453.0217895507813 67.71603393554688 C 451.76806640625 70.22342681884766 450.1132507324219 73.18864440917969 448.3612976074219 76.3280029296875 L 448.1231994628906 76.75460815429688 C 443.8857116699219 84.34799957275391 439.5039672851563 92.19989013671875 436.8664245605469 99.41935729980469 C 433.9211120605469 107.4812088012695 433.7261047363281 113.403205871582 436.2756042480469 117.4991073608398 C 430.3192443847656 122.2225952148438 426.0243225097656 127.0258560180664 423.5062866210938 131.7807464599609 C 421.0261840820313 136.4634246826172 417.2459716796875 139.9671020507813 412.2706909179688 142.1944580078125 C 407.3361206054688 144.403564453125 402.3116760253906 144.8672790527344 398.9656066894531 144.8672790527344 C 396.1317138671875 144.8672790527344 393.9591369628906 144.5439605712891 392.6356201171875 144.2727203369141 C 390.8902282714844 143.9163208007813 388.9537353515625 143.7356414794922 386.8794860839844 143.7356414794922 C 378.89453125 143.7356414794922 369.7313232421875 146.4017181396484 362.3685302734375 148.5439300537109 L 362.3267822265625 148.5560760498047 C 360.664306640625 149.0389709472656 359.2861022949219 149.4380645751953 357.9489135742188 149.8110656738281 C 353.5409851074219 151.0321807861328 349.3359069824219 153.6134948730469 344.8839416503906 156.3463897705078 C 339.1144714355469 159.9018249511719 333.1493225097656 163.5778503417969 327.3204956054688 163.5778503417969 L 327.1962890625 163.5778503417969 C 316.02099609375 163.4831390380859 307.4238891601563 161.9872131347656 293.1807250976563 159.5088500976563 C 283.3478698730469 157.7995300292969 274.3234252929688 156.932861328125 266.3580322265625 156.932861328125 C 254.9161224365234 156.932861328125 245.8220825195313 158.7369995117188 239.3285369873047 162.2951812744141 C 233.2844390869141 165.6019592285156 229.4011535644531 169.1632080078125 225.9749755859375 172.3052520751953 L 225.8767242431641 172.3953857421875 L 225.8471527099609 172.4225769042969 C 221.4805755615234 176.4372863769531 218.3256530761719 179.3379669189453 212.4281921386719 180.0476379394531 C 208.0521087646484 180.587646484375 204.6320495605469 181.1741485595703 201.6145782470703 181.6916046142578 L 201.2117156982422 181.7606811523438 C 200.9187927246094 181.8089294433594 200.626220703125 181.8573608398438 200.3366546630859 181.9052429199219 C 195.7357635498047 182.6666412353516 191.7622985839844 183.3241729736328 186.2983245849609 183.3241729736328 C 182.0761260986328 183.3241729736328 177.5015106201172 183.4541931152344 172.6889038085938 183.7108459472656 Z" stroke="none"/>
      <path d="M 299.0796813964844 1.738006591796875 L 299.1990661621094 2.383499145507813 L 298.0785827636719 2.458816528320313 L 293.7319030761719 2.75103759765625 L 293.6746215820313 2.754898071289063 L 293.6576232910156 2.754074096679688 C 293.236572265625 2.774932861328125 290.1878051757813 3.008102416992188 286.2459411621094 3.612564086914063 C 283.0998840332031 4.095016479492188 278.7732238769531 4.913818359375 274.8853454589844 6.188079833984375 C 275.50927734375 6.594573974609375 276.1753540039063 7.048446655273438 276.8484497070313 7.544219970703125 C 284.5571594238281 13.20974731445313 293.6445007324219 23.79206848144531 293.1595764160156 42.03228759765625 C 292.7115173339844 58.87682342529297 292.0940856933594 71.60121154785156 288.2086181640625 81.96743011474609 C 283.874755859375 93.48414611816406 275.6986083984375 100.9342880249023 262.4783020019531 105.4132461547852 C 258.3983459472656 106.797737121582 249.4492797851563 109.8344955444336 245.0689086914063 111.9113464355469 L 245.1390686035156 111.9604644775391 L 245.1427307128906 111.9630355834961 L 245.1463623046875 111.9656066894531 C 249.3085021972656 114.934211730957 253.4905090332031 120.1114654541016 252.74560546875 125.737678527832 C 252.3455505371094 128.7946014404297 250.3213195800781 133.0155639648438 242.9493713378906 135.7644348144531 C 239.6372680664063 136.9973907470703 236.6371459960938 137.5967407226563 233.7776489257813 137.5967407226563 C 230.2099304199219 137.5967407226563 227.510498046875 136.6468200683594 225.3410949707031 135.88232421875 L 225.1734619140625 135.8254699707031 C 223.6217346191406 135.2988891601563 222.3960876464844 134.8829956054688 221.1565551757813 134.8829956054688 C 220.8321533203125 134.8829956054688 220.5150451660156 134.9100646972656 220.1872863769531 134.9657135009766 C 219.5122985839844 135.0804290771484 218.8165893554688 135.1386108398438 218.1194763183594 135.1386108398438 C 214.3026733398438 135.1386108398438 210.8477172851563 133.4185943603516 208.15185546875 131.9071350097656 C 208.5238647460938 132.4913177490234 208.9344177246094 133.077392578125 209.3673706054688 133.6380004882813 C 210.3854064941406 134.9562072753906 212.0274658203125 136.7846832275391 214.0660095214844 138.0078125 C 217.1061401367188 139.8174591064453 217.424072265625 142.1650085449219 217.3430480957031 143.4027404785156 C 217.2230834960938 145.2505798339844 216.1947326660156 146.8214263916016 214.19921875 148.205078125 C 212.5428771972656 149.3535308837891 210.3739929199219 150.2910308837891 208.0778198242188 151.2835998535156 L 208.0620727539063 151.2903900146484 L 208.0461120605469 151.2966461181641 C 206.5992736816406 151.8640289306641 205.18798828125 152.5486450195313 203.845458984375 153.3341064453125 C 203.7428283691406 153.6943359375 203.6458435058594 154.0737152099609 203.5511779785156 154.4437561035156 L 203.5067443847656 154.6173858642578 L 203.5067443847656 154.6173858642578 L 203.5050659179688 154.6241455078125 C 202.9462890625 156.8670043945313 202.3129577636719 159.4090728759766 199.9669799804688 160.7595367431641 C 199.0972900390625 161.2578277587891 198.1077575683594 161.5212097167969 197.1053161621094 161.5212097167969 C 196.5441589355469 161.5212097167969 195.9872131347656 161.4393310546875 195.4496459960938 161.2778472900391 C 195.0843811035156 161.1802368164063 194.5523681640625 161.0152587890625 193.7619934082031 160.7648620605469 C 187.3720092773438 158.7415771484375 182.4000854492188 157.7156829833984 178.984375 157.7156829833984 C 176.7752075195313 157.7156829833984 175.270263671875 158.1474761962891 174.6320495605469 158.9644165039063 C 174.1326293945313 159.6137390136719 173.5914611816406 160.3355865478516 173.0401916503906 161.08740234375 C 178.4959411621094 164.6593780517578 180.5947875976563 169.2166442871094 178.6593933105469 173.4232482910156 C 178.1241455078125 174.5854339599609 177.3298645019531 175.9938201904297 176.4889221191406 177.4849243164063 L 176.4856567382813 177.4907073974609 L 176.4822998046875 177.4965057373047 C 175.4120483398438 179.33642578125 174.4104614257813 181.2381439208984 173.4946899414063 183.1683044433594 C 178.0120849609375 182.9398040771484 182.3117370605469 182.8241424560547 186.2982788085938 182.8241424560547 C 191.7210083007813 182.8241424560547 195.4867858886719 182.2010040283203 200.2545166015625 181.4120635986328 C 200.5437316894531 181.3641662597656 200.8359680175781 181.3158416748047 201.1316833496094 181.26708984375 L 201.5269775390625 181.1993255615234 C 204.5506286621094 180.6807861328125 207.9776611328125 180.0930328369141 212.3684387207031 179.5512542724609 C 215.0088500976563 179.2335052490234 217.2474365234375 178.4467468261719 219.413330078125 177.0753631591797 C 221.4513854980469 175.7848510742188 223.3315734863281 174.0561828613281 225.5086975097656 172.0545349121094 L 225.5387878417969 172.02685546875 L 225.6371765136719 171.9365997314453 C 229.0842895507813 168.775390625 232.9913024902344 165.1923522949219 239.0882873535156 161.8567199707031 C 245.65625 158.2577209472656 254.8311157226563 156.432861328125 266.3580017089844 156.4328155517578 C 274.3519287109375 156.4328155517578 283.4051818847656 157.302001953125 293.2664489746094 159.0162506103516 C 307.482666015625 161.4899139404297 316.0641174316406 162.9831390380859 327.2005920410156 163.0778503417969 L 327.3204956054688 163.0778503417969 C 333.007568359375 163.0778503417969 338.9114074707031 159.4396057128906 344.6223754882813 155.9202575683594 C 349.1052551269531 153.1683959960938 353.3395080566406 150.5691375732422 357.8145751953125 149.3294677734375 C 359.1477966308594 148.9575347900391 360.5252990722656 148.5586853027344 362.1871032714844 148.0760040283203 L 362.22607421875 148.0646362304688 C 369.6201171875 145.913330078125 378.822265625 143.2359313964844 386.8794555664063 143.2356414794922 C 388.9869079589844 143.2355651855469 390.9570922851563 143.4196472167969 392.7360229492188 143.7828979492188 C 394.0368347167969 144.0494995117188 396.1735229492188 144.3672790527344 398.9656372070313 144.3672790527344 C 402.262939453125 144.3672790527344 407.2123718261719 143.9111480712891 412.0663452148438 141.7380981445313 C 416.9374694824219 139.5573883056641 420.6377563476563 136.1284942626953 423.064453125 131.5467529296875 C 425.56640625 126.8221435546875 429.7890930175781 122.059326171875 435.6229858398438 117.3800582885742 C 433.2280883789063 113.165657043457 433.4844970703125 107.2192001342773 436.3967895507813 99.24778747558594 C 439.0479736328125 91.99099731445313 443.4395446777344 84.12142944335938 447.6865234375 76.51100158691406 L 447.9246520996094 76.08432006835938 C 449.6737976074219 72.95010375976563 451.325927734375 69.98967742919922 452.5745239257813 67.492431640625 C 453.4840393066406 65.67343139648438 453.5578308105469 64.04289245605469 452.8001708984375 62.50764465332031 C 451.7380981445313 60.355712890625 448.9804382324219 58.35646057128906 444.8252563476563 56.72603607177734 C 441.4717407226563 55.41014099121094 438.2646484375 54.74049377441406 437.3639526367188 54.56707763671875 L 436.91357421875 54.48147583007813 C 434.7422180175781 56.05415344238281 432.3128662109375 56.81996154785156 429.5026550292969 56.81996154785156 C 425.1096496582031 56.81996154785156 420.4934387207031 54.91032409667969 416.0291748046875 53.06353759765625 C 415.0526733398438 52.65957641601563 414.0428466796875 52.2418212890625 413.0595703125 51.85499572753906 C 409.6000061035156 50.48214721679688 406.3235778808594 46.77064514160156 402.5298461914063 42.47311401367188 C 396.5527648925781 35.70236206054688 389.7782287597656 28.02824401855469 380.6959228515625 28.02824401855469 C 379.6557006835938 28.02824401855469 378.5896911621094 28.13093566894531 377.5275268554688 28.33346557617188 C 370.4688415527344 29.68067932128906 366.1962280273438 31.84175109863281 362.4265747070313 33.74842834472656 C 357.7398986816406 36.11892700195313 353.3131408691406 38.35797119140625 344.921142578125 38.35797119140625 C 342.8794250488281 38.35797119140625 340.7077941894531 38.23236083984375 338.2819213867188 37.9739990234375 C 329.3916015625 37.02542114257813 323.9206848144531 35.37757873535156 320.5428161621094 32.63096618652344 C 317.3209838867188 30.01121520996094 316.2678527832031 26.62910461425781 315.0485229492188 22.71292114257813 C 314.1118469238281 19.70491027832031 313.0505065917969 16.29611206054688 310.7959289550781 12.47105407714844 C 309.1960754394531 9.925552368164063 307.2286987304688 7.641494750976563 304.9483032226563 5.682037353515625 C 303.1506042480469 4.13739013671875 301.1830444335938 2.815567016601563 299.0796813964844 1.738006591796875 M 297.7412719726563 0 C 303.4770202636719 2.489715576171875 308.3257141113281 6.655929565429688 311.6505126953125 11.9515380859375 C 319.8471069335938 25.84628295898438 312.64404296875 34.23281860351563 338.3880310058594 36.97964477539063 C 340.8314819335938 37.23989868164063 342.9881896972656 37.35795593261719 344.921142578125 37.35795593261719 C 359.7533874511719 37.35795593261719 361.3569030761719 30.40176391601563 377.340087890625 27.35118103027344 C 378.4930419921875 27.13133239746094 379.6101684570313 27.02824401855469 380.6958923339844 27.02824401855469 C 395.9898071289063 27.02824401855469 404.8338623046875 47.51496887207031 413.4284362792969 50.92550659179688 C 418.790771484375 53.03509521484375 424.3602294921875 55.81997680664063 429.5026550292969 55.81997680664063 C 432.0175476074219 55.81997680664063 434.4306030273438 55.15371704101563 436.6667175292969 53.41664123535156 L 437.5506896972656 53.58464050292969 C 439.7130432128906 54.00103759765625 458.4804382324219 57.91671752929688 453.468994140625 67.93964385986328 C 452.1539916992188 70.56957244873047 450.4226684570313 73.65971374511719 448.559814453125 76.99825286865234 C 440.2025146484375 91.97421264648438 430.8589782714844 108.7326431274414 436.9443359375 117.6086044311523 C 431.742919921875 121.6849975585938 426.826416015625 126.5795745849609 423.9481506347656 132.0147552490234 C 418.3555297851563 142.5742034912109 407.2731628417969 145.3672790527344 398.9656372070313 145.3672790527344 C 396.50830078125 145.3672790527344 394.2928771972656 145.1227416992188 392.5352172851563 144.7625427246094 C 390.7391967773438 144.3957977294922 388.8420715332031 144.2355804443359 386.8794555664063 144.2356414794922 C 378.9511108398438 144.2359313964844 369.9735717773438 146.8519744873047 362.4664611816406 149.0361785888672 C 360.9322814941406 149.4817810058594 359.4712524414063 149.9055023193359 358.083251953125 150.2926788330078 C 353.7585144042969 151.4907531738281 349.5725402832031 154.054931640625 345.1455078125 156.7724914550781 C 339.3012084960938 160.3740386962891 333.2597351074219 164.0778503417969 327.3204956054688 164.0778503417969 L 327.1962890625 164.0778503417969 C 315.9898986816406 163.9828948974609 307.36962890625 162.4852905273438 293.0950012207031 160.00146484375 C 285.0298156738281 158.5994262695313 275.5553588867188 157.4328308105469 266.3580017089844 157.4328308105469 C 256.3860778808594 157.4328308105469 246.7398986816406 158.80419921875 239.5688171386719 162.7336730957031 C 233.52001953125 166.04296875 229.648193359375 169.6152801513672 226.2146606445313 172.7638854980469 C 221.7730102539063 176.8475646972656 218.5586547851563 179.8135375976563 212.4879150390625 180.5440673828125 C 207.9293518066406 181.1065673828125 204.4081726074219 181.72021484375 201.296142578125 182.2534942626953 C 196.197021484375 183.0936126708984 192.142578125 183.8241424560547 186.2982788085938 183.8241424560547 C 180.6585693359375 183.8241424560547 175.4133605957031 184.0579223632813 171.8922119140625 184.2551422119141 C 173.0054321289063 181.770751953125 174.2490844726563 179.3468627929688 175.6178894042969 176.9936828613281 C 176.4872131347656 175.4522552490234 177.2396850585938 174.1153564453125 177.7510681152344 173.0049285888672 C 179.8988342285156 168.3368225097656 176.1365661621094 164.0632171630859 171.5999755859375 161.3675384521484 C 172.3378295898438 160.3447875976563 173.1121826171875 159.3001098632813 173.8427124023438 158.3504333496094 C 174.5396118164063 157.4570007324219 176.0090637207031 156.7156829833984 178.9843444824219 156.7156829833984 C 182.091064453125 156.7156829833984 186.8395080566406 157.5240325927734 194.0638732910156 159.8114929199219 C 194.8017272949219 160.0452880859375 195.3642272949219 160.2206115722656 195.7221984863281 160.3155670166016 C 196.175048828125 160.4532623291016 196.6410217285156 160.5212249755859 197.1053466796875 160.5212249755859 C 197.9269714355469 160.5212249755859 198.7431030273438 160.3082427978516 199.4698181152344 159.8918609619141 C 201.4495849609375 158.7522125244141 202.0047912597656 156.5095062255859 202.5380859375 154.3690338134766 C 202.6841735839844 153.7991790771484 202.8302917480469 153.2147827148438 202.998291015625 152.6741790771484 C 204.4915161132813 151.7743835449219 206.0579833984375 151.0021820068359 207.6810302734375 150.3656768798828 C 212.2103271484375 148.4078521728516 216.1260070800781 146.7130432128906 216.3451538085938 143.3379669189453 C 216.4255065917969 142.1106872558594 216.0090942382813 140.3281860351563 213.5545043945313 138.8671112060547 C 209.7192077636719 136.5659332275391 206.7239990234375 132.0073852539063 205.7231750488281 129.4067077636719 C 206.3514404296875 129.7135009765625 207.0454711914063 130.1299285888672 207.6006774902344 130.4440765380859 C 210.380615234375 132.0334777832031 214.054443359375 134.1386108398438 218.1194763183594 134.1386108398438 C 218.7440185546875 134.1386108398438 219.3786010742188 134.0888214111328 220.0197448730469 133.9798583984375 C 220.4115600585938 133.9133148193359 220.7877197265625 133.8829956054688 221.1565246582031 133.8829956054688 C 222.6099548339844 133.8829956054688 223.9478454589844 134.3541412353516 225.666748046875 134.9368286132813 C 227.8866271972656 135.7190551757813 230.422119140625 136.5967407226563 233.7776489257813 136.5967407226563 C 236.2195434570313 136.5967407226563 239.0957641601563 136.1319122314453 242.6004943847656 134.8272552490234 C 249.4967651367188 132.2557830810547 251.3888549804688 128.3985748291016 251.7540893554688 125.6079254150391 C 252.4407958984375 120.421142578125 248.4886169433594 115.5777130126953 244.565673828125 112.7797470092773 L 244.2734375 112.5752105712891 C 243.8935852050781 112.3268203735352 243.5283203125 112.0419311523438 243.1630554199219 111.7716064453125 C 246.7134399414063 109.7115020751953 257.2915649414063 106.1172866821289 262.1569213867188 104.4662857055664 C 275.0946655273438 100.0830688476563 283.0721130371094 92.77774810791016 287.2726745605469 81.61521148681641 C 291.1006774902344 71.40235900878906 291.7143249511719 58.75682067871094 292.1599426269531 42.00567626953125 C 292.6347961425781 24.14414978027344 283.7807312011719 13.88014221191406 276.2562255859375 8.350006103515625 C 275.0362243652344 7.451431274414063 273.8089294433594 6.669754028320313 272.6035461425781 5.939254760742188 C 281.166259765625 2.621826171875 293.3803100585938 1.753158569335938 293.6618957519531 1.75323486328125 C 293.6630554199219 1.75323486328125 293.6640625 1.753250122070313 293.6648254394531 1.753280639648438 L 298.0115051269531 1.461074829101563 L 297.7412719726563 0 Z" stroke="none" fill="#30abec"/>
    </g>
    <text id="yubei1" transform="translate(918.654 1967.41)" fill="#fff" font-size="10" font-family="MicrosoftYaHei, Microsoft YaHei"><tspan x="0" y="0">渝北区</tspan></text>
  </g>
</svg>
