<svg xmlns="http://www.w3.org/2000/svg" xmlns:xlink="http://www.w3.org/1999/xlink" width="204.298" height="163.94" viewBox="0 0 204.298 163.94">
  <defs>
    <linearGradient id="linear-gradient" x1="0.403" y1="0.825" x2="0.686" y2="0.336" gradientUnits="objectBoundingBox">
      <stop offset="0" stop-color="#191e64"/>
      <stop offset="1" stop-color="#17448b"/>
    </linearGradient>
    <filter id="thick_1" x="0" y="36.802" width="145.507" height="122.745" filterUnits="userSpaceOnUse">
      <feOffset dy="8" input="SourceAlpha"/>
      <feGaussianBlur stdDeviation="9" result="blur"/>
      <feFlood flood-color="#0f093c" flood-opacity="0.161"/>
      <feComposite operator="in" in2="blur"/>
      <feComposite in="SourceGraphic"/>
    </filter>
    <linearGradient id="linear-gradient-2" x1="0.624" y1="0.874" x2="0.457" y2="0.306" xlink:href="#linear-gradient"/>
    <filter id="thick_2" x="82.198" y="35.519" width="122.1" height="128.421" filterUnits="userSpaceOnUse">
      <feOffset dy="8" input="SourceAlpha"/>
      <feGaussianBlur stdDeviation="9" result="blur-2"/>
      <feFlood flood-color="#0f093c" flood-opacity="0.169"/>
      <feComposite operator="in" in2="blur-2"/>
      <feComposite in="SourceGraphic"/>
    </filter>
    <radialGradient id="radial-gradient" cx="0.529" cy="0.377" r="0.666" gradientTransform="translate(0.132 -0.119) scale(0.751 1.317)" gradientUnits="objectBoundingBox">
      <stop offset="0" stop-color="#1fb9e6"/>
      <stop offset="1" stop-color="#0669d2"/>
    </radialGradient>
  </defs>
  <g id="yunyang" transform="translate(-770.099 -107.375)">
    <g transform="matrix(1, 0, 0, 1, 770.1, 107.38)" filter="url(#thick_1)">
      <path id="thick_1-2" data-name="thick_1" d="M82.6,124.047c-.069,0-.114-.017-.133-.05a1.54,1.54,0,0,1-.173-1.221.528.528,0,0,1,.272-.31c1.875-.757,2.191-2.632,2.126-4.072-.106-2.338-1.294-4.863-1.95-5.061a12.291,12.291,0,0,0-4.331-.628,57.365,57.365,0,0,0-8.19.835l-.281.042c-1.039.155-1.934.289-2.6.35-.046,0-.1.007-.147.007-1.834,0-7.006-2.807-9.986-5.789a8.168,8.168,0,0,1-1.558-3.172c-.828-2.45-1.857-5.5-6.417-6.74-3.307-.9-6.19-3.779-8.979-6.564-1-1-2.242-2.248-3.492-3.344A11.734,11.734,0,0,0,33.155,86c0-.067,0-.14,0-.216s0-.179,0-.274v-.855c0-2.649,0-3.745-2.007-4.253a4.585,4.585,0,0,0-1.119-.142c-1.445,0-2.733.708-4.682,1.78l-.029.016-1.311.718c-.961.519-1.689.887-2.079,1.084l-.011.006-.177.09c-.247-.149-.591-.382-.9-.588l-.006,0c-.576-.386-1.293-.866-2.211-1.4-.515-.3-.987-.567-1.535-.877-2.749-1.55-2.749-1.55-2.49-4.426.167-1.87-.089-3.263-1.88-3.984A5.478,5.478,0,0,0,10.64,72.3a18.187,18.187,0,0,0-4.343.771l-1.215.309c-1.255.3-2.4.678-3.406,1.009l-.045.015-.137.044c-.421.136-1,.323-1.467.454v-.014C-.019,74.465,0,70.163.026,66c.017-3.126.033-6.073.018-7.1.467-.131,1.035-.315,1.45-.45l.137-.044.045-.015c1.008-.33,2.151-.7,3.406-1.009L6.3,57.074A18.187,18.187,0,0,1,10.64,56.3a5.478,5.478,0,0,1,2.087.377c1.791.722,2.047,2.115,1.88,3.984-.258,2.876-.258,2.876,2.49,4.426.549.31,1.02.577,1.535.877.93.541,1.643,1.019,2.217,1.4.287.193.644.434.9.587l.188-.1c.39-.2,1.116-.564,2.08-1.085l1.311-.717.033-.018c1.948-1.071,3.235-1.779,4.679-1.779a4.582,4.582,0,0,1,1.118.142c2.007.508,2.007,1.6,2.007,4.253v.855c0,.1,0,.188,0,.274s0,.15,0,.217a11.735,11.735,0,0,1,3.607,2.326c1.25,1.1,2.493,2.344,3.492,3.345,2.79,2.785,5.675,5.664,8.979,6.563,4.56,1.24,5.589,4.288,6.416,6.736a8.184,8.184,0,0,0,1.559,3.176c2.98,2.982,8.152,5.789,9.985,5.789a1.476,1.476,0,0,0,.148-.007c.667-.06,1.563-.194,2.6-.35l.281-.042a57.364,57.364,0,0,1,8.19-.835,12.291,12.291,0,0,1,4.331.628,3.451,3.451,0,0,1,2.3,2.1c.163.563.345,1.059.5,1.5.758,2.02,1.413,3.765-2.976,5.536a.528.528,0,0,0-.272.31A1.54,1.54,0,0,0,82.47,108a7.337,7.337,0,0,0,5.88,3.434l1.538.041-.055.656c.211-.1.382-.173.538-.24C88.929,120.736,83.584,124.047,82.6,124.047Z" transform="translate(27.5 0)" stroke="rgba(0,0,0,0)" stroke-width="1" fill="url(#linear-gradient)"/>
    </g>
    <g transform="matrix(1, 0, 0, 1, 770.1, 107.38)" filter="url(#thick_2)">
      <path id="thick_2-2" data-name="thick_2" d="M89.833,128.129v0l.055-.654-1.538-.041a7.793,7.793,0,0,1-3.439-1.031A6.783,6.783,0,0,1,82.47,124a2.072,2.072,0,0,1-.251-1.363,2.192,2.192,0,0,0,.024-.281c.009-.027,0-1.645-.012-3.886-.025-4.555-.062-11.439.015-11.517A1.846,1.846,0,0,0,82.47,108a7.337,7.337,0,0,0,5.88,3.434l1.538.041-.055.656a25.3,25.3,0,0,1,3.727-1.37c4.051-1.092,9.61-2.671,11.114-3.767a4.071,4.071,0,0,1,.9-.453l.077-.642c.107-.89,1.178-8.834,5.738-13.559,2.116-2.2,1.844-2.739,1.117-4.186a11.65,11.65,0,0,1-1.428-5.786c0-2.73.945-4.542,2.973-5.7,2.184-1.248,5.171-1.5,8.984-1.5.722,0,1.464.008,2.182.016.569.007,1.028.01,1.447.01,2.062,0,4.082-.067,4.889-.553.982-.6.9-2.083.812-3.522l0-.095c-.022-.436-.044-.886-.044-1.329a4.81,4.81,0,0,1,3.474-4.95,9.593,9.593,0,0,1,3.146-.485,19.822,19.822,0,0,1,5.82,1.026c.334.1.63.189.88.254.072-.4.11-.935.138-1.324l0-.04a17.049,17.049,0,0,1,.908-4.854,13.548,13.548,0,0,1,2.239-4.024,2.688,2.688,0,0,0,.372-.542c-.009.839-.01,15.941,0,16a2.688,2.688,0,0,1-.373.544,13.548,13.548,0,0,0-2.239,4.024,17.047,17.047,0,0,0-.908,4.853l0,.038c-.028.39-.066.923-.139,1.327-.259-.068-.555-.153-.88-.254a19.822,19.822,0,0,0-5.82-1.026,9.593,9.593,0,0,0-3.146.485,4.81,4.81,0,0,0-3.474,4.95c0,.444.022.894.044,1.33l0,.093c.084,1.439.17,2.927-.812,3.522-.807.487-2.827.554-4.889.554-.418,0-.877,0-1.445-.01-.721-.008-1.467-.017-2.2-.017-3.806,0-6.788.256-8.971,1.5-2.028,1.161-2.973,2.974-2.973,5.7a11.644,11.644,0,0,0,1.428,5.785c.727,1.447,1,1.989-1.117,4.186-4.561,4.728-5.631,12.67-5.738,13.56l-.077.642a4.07,4.07,0,0,0-.9.453c-1.506,1.1-7.064,2.675-11.114,3.767a25.3,25.3,0,0,0-3.725,1.37Z" transform="translate(27.5 0)" stroke="rgba(0,0,0,0)" stroke-width="1" fill="url(#linear-gradient-2)"/>
    </g>
    <g id="Op_component_10" data-name="Op component 10" opacity="0.67" fill="url(#radial-gradient)">
      <path d="M 887.9964599609375 218.7072296142578 L 888.025634765625 218.3622283935547 L 887.496337890625 218.3478851318359 L 885.966064453125 218.3064270019531 C 884.8241577148438 218.2351684570313 883.7149658203125 217.9021911621094 882.7578735351563 217.3432769775391 C 881.8114013671875 216.7905578613281 881.0333251953125 216.0281066894531 880.506591796875 215.1375732421875 C 880.2598876953125 214.6179504394531 880.33349609375 214.3551483154297 880.3760986328125 214.2951507568359 C 882.51611328125 213.4281463623047 883.6875 212.4852294921875 884.059326171875 211.3297729492188 C 884.4053955078125 210.2543640136719 884.0003051757813 209.1743316650391 883.6084594726563 208.1298675537109 C 883.4513549804688 207.6999969482422 883.2732543945313 207.2126159667969 883.1155395507813 206.6689758300781 L 883.1116333007813 206.6556549072266 L 883.1070556640625 206.642578125 C 882.710205078125 205.5130310058594 881.7366943359375 204.6144714355469 880.5007934570313 204.2358703613281 C 879.3356323242188 203.7956848144531 877.8657836914063 203.5817108154297 876.0079956054688 203.5817108154297 C 873.3218994140625 203.5817108154297 870.35791015625 204.0281066894531 867.7428588867188 204.4219665527344 L 867.5238037109375 204.4547882080078 C 866.46826171875 204.6130065917969 865.5567016601563 204.7496490478516 864.8912963867188 204.8099517822266 C 864.8571166992188 204.8133697509766 864.8244018554688 204.8148498535156 864.7891235351563 204.8148498535156 C 863.252197265625 204.8148498535156 858.2379760742188 202.2438507080078 855.1776733398438 199.1924438476563 C 854.4752807617188 198.2984008789063 853.989013671875 197.3041076660156 853.7322387695313 196.2366485595703 L 853.7269897460938 196.2148132324219 L 853.7197875976563 196.1935272216797 C 852.8986206054688 193.7636566162109 851.7760009765625 190.4418640136719 846.9597778320313 189.1313323974609 C 843.7821044921875 188.2667083740234 840.9459228515625 185.4350738525391 838.2030639648438 182.6966705322266 C 837.1434936523438 181.6353759765625 835.9423217773438 180.4322204589844 834.6947021484375 179.3363800048828 C 833.7010498046875 178.3939971923828 832.545166015625 177.6264190673828 831.2548828125 177.0516052246094 C 831.2556762695313 176.9985504150391 831.2562866210938 176.9438018798828 831.2562866210938 176.8874969482422 L 831.2562866210938 176.0330963134766 C 831.2562866210938 173.3668670654297 831.2562866210938 171.898193359375 828.8717041015625 171.2958068847656 C 828.4459838867188 171.1898956298828 828.0404052734375 171.1386108398438 827.630126953125 171.1386108398438 C 826.0579833984375 171.1386108398438 824.6542358398438 171.9104461669922 822.71142578125 172.9787139892578 L 822.6784057617188 172.9968566894531 L 821.3682250976563 173.7137908935547 C 820.4647216796875 174.2017822265625 819.7672119140625 174.5559692382813 819.366455078125 174.7586212158203 C 819.1614379882813 174.6261291503906 818.9251098632813 174.4667358398438 818.7236938476563 174.3308715820313 C 818.14013671875 173.9397888183594 817.4154052734375 173.4540863037109 816.4791870117188 172.9098510742188 C 815.9263916015625 172.5881652832031 815.4346313476563 172.3098754882813 814.9378051757813 172.0295257568359 C 813.6868286132813 171.3244171142578 812.9978637695313 170.9360656738281 812.755126953125 170.5046539306641 C 812.5200805664063 170.0867462158203 812.5802612304688 169.4174652099609 812.7001953125 168.0841064453125 C 812.8613891601563 166.2741546630859 812.7074584960938 164.4774780273438 810.5086669921875 163.5909881591797 C 809.8200073242188 163.3128356933594 809.0760498046875 163.1775665283203 808.2345581054688 163.1775665283203 C 806.8220825195313 163.1775665283203 805.3380737304688 163.5597534179688 803.7669067382813 163.9643859863281 L 802.5560913085938 164.2721710205078 C 801.2772216796875 164.5823364257813 800.0715942382813 164.9773406982422 799.1027221679688 165.2947692871094 L 799.0701904296875 165.3054504394531 L 798.97119140625 165.3375854492188 C 798.7266845703125 165.4170227050781 798.4303588867188 165.5132904052734 798.1328125 165.6059112548828 C 798.19580078125 165.2041778564453 798.36572265625 164.8206481933594 798.6332397460938 164.4824981689453 L 799.369873046875 164.4824981689453 L 799.974609375 164.4824981689453 L 799.8609619140625 163.8885345458984 L 799.712890625 163.1146545410156 C 800.8587646484375 161.7021942138672 802.1544799804688 160.1014251708984 802.1544799804688 158.1999053955078 C 802.1544799804688 157.2779846191406 802.1895751953125 157.1826171875 802.3687744140625 157.105712890625 C 802.7913818359375 156.9242858886719 803.9204711914063 156.9242858886719 805.7910766601563 156.9242858886719 C 811.960205078125 156.9242858886719 816.398193359375 154.4776306152344 821.109375 148.4793548583984 C 823.3666381835938 145.6058959960938 824.2844848632813 143.9542694091797 824.4959716796875 142.3854370117188 C 824.7176513671875 140.7408905029297 824.1237182617188 139.3399505615234 823.1192626953125 137.2281494140625 C 822.91259765625 136.7941131591797 823.0975952148438 136.1971282958984 823.6689453125 135.4535675048828 C 824.2352905273438 134.7165374755859 825.1739501953125 133.8560485839844 826.4588623046875 132.89599609375 C 828.847412109375 131.1113128662109 831.8967895507813 129.3650970458984 834.1233520507813 128.0900573730469 L 834.13818359375 128.0815887451172 L 835.7613525390625 127.1462097167969 C 837.2766723632813 126.2604522705078 838.9776611328125 125.0467300415039 838.702880859375 123.4965515136719 C 838.4622192382813 122.1035079956055 836.8285522460938 121.3763046264648 835.3799438476563 120.812873840332 C 836.6061401367188 120.9189376831055 837.8240966796875 121.1032028198242 839.021240234375 121.3643341064453 C 839.7603759765625 121.531852722168 841.0040893554688 121.8136901855469 842.2515258789063 121.8136749267578 C 843.1549072265625 121.8136520385742 843.941650390625 121.6655502319336 844.5899658203125 121.3734893798828 C 846.4952392578125 120.5133514404297 846.1948852539063 119.0060729980469 845.99609375 118.008674621582 L 845.9944458007813 118.0006103515625 L 845.9917602539063 117.9883346557617 C 845.8849487304688 117.5313339233398 845.8240966796875 117.0625457763672 845.8107299804688 116.5946350097656 C 845.8209838867188 116.5328063964844 845.9904174804688 115.8437271118164 848.5784912109375 113.4175338745117 C 850.3458251953125 111.7607421875 852.7010498046875 109.8041763305664 855.2254638671875 107.8947982788086 C 855.6215209960938 107.9367065429688 856.0225219726563 107.9587020874023 856.4205322265625 107.9602890014648 L 856.4248657226563 107.9603118896484 L 856.4292602539063 107.9602508544922 C 856.5914916992188 107.9580535888672 856.756103515625 107.9569320678711 856.9183349609375 107.9569320678711 C 857.6815185546875 107.9569320678711 858.4502563476563 107.9815139770508 859.2149047851563 108.0302276611328 C 858.146240234375 109.104850769043 857.2559204101563 110.4028701782227 858.4288940429688 111.7105712890625 C 859.6937255859375 113.1181716918945 862.5816040039063 113.1801300048828 863.5305786132813 113.2004928588867 C 864.405517578125 113.2202301025391 865.25732421875 113.2755126953125 865.5599365234375 113.5438537597656 C 865.7809448242188 113.7398681640625 865.823486328125 114.2031555175781 865.8237915039063 114.9890670776367 C 865.7686157226563 116.5670623779297 866.6802978515625 118.0148010253906 868.2058715820313 118.7721557617188 C 869.9608764648438 119.7413024902344 872.6580810546875 120.2124481201172 876.4506225585938 120.2124099731445 C 876.8930053710938 120.2123947143555 877.3571166992188 120.2058486938477 877.8299560546875 120.1929321289063 C 883.6295776367188 120.0327682495117 884.1666870117188 117.4658737182617 884.4248046875 116.232292175293 C 884.5587768554688 115.5957107543945 884.6180419921875 115.3872528076172 884.9766845703125 115.2143936157227 C 885.5057983398438 114.9593505859375 886.6235961914063 114.8455276489258 888.6008911132813 114.8453903198242 C 894.5198974609375 114.9247817993164 900.4932861328125 115.3400039672852 906.3546752929688 116.0795745849609 L 906.3579711914063 116.0799942016602 L 906.3612060546875 116.0803527832031 C 907.0994873046875 116.1637191772461 907.8352661132813 116.2437210083008 908.5570068359375 116.3191299438477 C 907.0918579101563 119.4412536621094 905.8569946289063 123.385139465332 907.4550170898438 125.7114944458008 L 907.4662475585938 125.7278900146484 L 907.478759765625 125.7433319091797 C 908.5759887695313 127.0963439941406 909.8054809570313 128.3778228759766 911.1329956054688 129.5521850585938 L 911.1412353515625 129.5600738525391 C 911.962158203125 130.345947265625 913.4901733398438 131.8087921142578 914.770751953125 133.1917724609375 C 916.0670166015625 134.5917205810547 916.6030883789063 135.3654327392578 916.8241577148438 135.7738800048828 C 914.751953125 136.0121002197266 912.8875732421875 136.4441070556641 911.4022216796875 137.0323638916016 C 909.6900634765625 137.7104949951172 908.5103149414063 138.5657653808594 907.8958740234375 139.5744781494141 C 907.2357177734375 140.6592102050781 906.6978759765625 142.8443298339844 910.5116577148438 145.2933349609375 C 914.8059692382813 148.0458068847656 915.1599731445313 149.5892639160156 916.10595703125 153.7142486572266 L 916.1088256835938 153.7269439697266 L 916.3394165039063 154.7862243652344 C 916.7847290039063 156.9192657470703 917.1700439453125 158.7650299072266 919.6964111328125 159.6572723388672 C 920.5264892578125 159.9493865966797 921.458251953125 160.09130859375 922.5453491210938 160.09130859375 C 923.9909057617188 160.09130859375 925.723388671875 159.8478088378906 928.3385009765625 159.2771148681641 C 930.6878662109375 158.7619323730469 932.8989868164063 158.5007476806641 934.9110717773438 158.5007476806641 C 938.6524658203125 158.5007476806641 941.8169555664063 159.3658294677734 944.5853881835938 161.1453857421875 L 944.5951538085938 161.1516723632813 L 944.605224609375 161.1574859619141 C 945.1700439453125 161.4845428466797 945.7152099609375 161.8466339111328 946.2308349609375 162.2370147705078 C 946.20458984375 162.2704010009766 946.1773071289063 162.3031463623047 946.1490478515625 162.3352508544922 L 946.1412963867188 162.3440551757813 L 946.1339721679688 162.3531951904297 C 945.1148071289063 163.6253356933594 944.333984375 165.0289916992188 943.8130493164063 166.5252075195313 C 943.2587890625 168.1463317871094 942.9445190429688 169.8242645263672 942.8779907226563 171.5154724121094 L 942.8775024414063 171.5224304199219 C 942.8617553710938 171.7429351806641 942.8426513671875 172.0101318359375 942.8162841796875 172.2705841064453 C 942.7160034179688 172.2409515380859 942.6113891601563 172.2093200683594 942.5027465820313 172.1757659912109 C 940.286865234375 171.4805450439453 938.2783813476563 171.1277160644531 936.5352783203125 171.1277160644531 C 935.3169555664063 171.1277160644531 934.2031860351563 171.3002319335938 933.2250366210938 171.6404724121094 C 930.7321166992188 172.5081939697266 929.4144897460938 174.3830871582031 929.4144897460938 177.0624847412109 C 929.4144897460938 177.5266265869141 929.4381713867188 177.9915771484375 929.4609985351563 178.4411926269531 L 929.464599609375 178.5111389160156 C 929.5394287109375 179.805908203125 929.6166381835938 181.1411285400391 928.8926391601563 181.5797271728516 C 928.1852416992188 182.0058898925781 926.0472412109375 182.0606079101563 924.2637329101563 182.0606079101563 C 923.8468017578125 182.0606079101563 923.38916015625 182.0574340820313 922.8234252929688 182.0506286621094 C 922.1019287109375 182.0424346923828 921.3562622070313 182.0339508056641 920.6276245117188 182.0339508056641 C 916.7384033203125 182.0339508056641 913.6812133789063 182.3008117675781 911.402587890625 183.6031951904297 C 909.2036743164063 184.8620300292969 908.178955078125 186.810791015625 908.1776733398438 189.7353820800781 C 908.1365966796875 191.8114776611328 908.6502685546875 193.893798828125 909.663330078125 195.7584075927734 C 910.024658203125 196.4778747558594 910.1948852539063 196.8431549072266 910.1214599609375 197.2515716552734 C 910.0340576171875 197.7373352050781 909.5875854492188 198.3695373535156 908.6284790039063 199.3654479980469 C 903.9553833007813 204.2091064453125 902.863525390625 212.30517578125 902.75439453125 213.2123718261719 L 902.7128295898438 213.5578460693359 C 902.4588623046875 213.6675262451172 902.2168579101563 213.7993011474609 901.9902954101563 213.9513702392578 L 901.9822998046875 213.9567565917969 L 901.9744873046875 213.9624328613281 C 900.53759765625 215.0096282958984 895.036865234375 216.5689544677734 891.0242919921875 217.6507568359375 L 891.021728515625 217.6514587402344 L 891.0191650390625 217.6521759033203 C 889.9898071289063 217.9414978027344 888.9765014648438 218.2952880859375 887.9964599609375 218.7072296142578 Z" stroke="none"/>
      <path d="M 855.3716430664063 108.4114227294922 C 853.0223388671875 110.1951599121094 850.8130493164063 112.0270080566406 849.1207885742188 113.5955657958984 C 846.87158203125 115.680419921875 846.4012451171875 116.4867095947266 846.313720703125 116.6713409423828 C 846.3310546875 117.0755767822266 846.3864135742188 117.4798126220703 846.4786376953125 117.8745574951172 L 846.4832153320313 117.8948364257813 L 846.4864501953125 117.9109344482422 C 846.6880493164063 118.9225158691406 847.0632934570313 120.8054656982422 844.7952880859375 121.829345703125 C 844.0819702148438 122.1507110595703 843.2261352539063 122.3136444091797 842.2515258789063 122.3136444091797 C 840.9490966796875 122.3136444091797 839.6722412109375 122.0245208740234 838.9085693359375 121.8514862060547 C 838.6503295898438 121.7952117919922 838.3909912109375 121.7425689697266 838.1309204101563 121.6935882568359 C 838.6716918945313 122.1414947509766 839.0718994140625 122.6954040527344 839.1952514648438 123.4092559814453 C 839.5660400390625 125.5013580322266 837.0785522460938 126.9554138183594 836.016357421875 127.5763092041016 L 836.013671875 127.5778656005859 L 836.010986328125 127.5794067382813 L 834.3866577148438 128.5154876708984 L 834.3719482421875 128.5239105224609 C 832.156494140625 129.7925720214844 829.1223754882813 131.530029296875 826.7581787109375 133.2965087890625 C 823.8718872070313 135.4530334472656 823.396484375 136.6473083496094 823.5707397460938 137.0133514404297 C 824.5845336914063 139.1446685791016 825.2310791015625 140.6746673583984 824.991455078125 142.4522247314453 C 824.7667236328125 144.1194458007813 823.8211059570313 145.8366851806641 821.5025634765625 148.7881774902344 C 816.6847534179688 154.9222259521484 812.1328735351563 157.4242858886719 805.7910766601563 157.4242858886719 C 804.3596801757813 157.4242858886719 803.1051635742188 157.4242858886719 802.6700439453125 157.5304718017578 C 802.6544799804688 157.6930999755859 802.6544799804688 157.9682922363281 802.6544799804688 158.1999053955078 C 802.6544799804688 160.1901397705078 801.3580322265625 161.8763122558594 800.2476806640625 163.2489318847656 L 800.35205078125 163.7945556640625 L 800.4557495117188 164.3365478515625 C 801.0763549804688 164.1460418701172 801.7438354492188 163.9547576904297 802.4346313476563 163.7871398925781 L 803.6422119140625 163.4801940917969 C 805.2447509765625 163.0674591064453 806.7584838867188 162.6776123046875 808.2344970703125 162.6775665283203 C 809.141357421875 162.6775512695313 809.9465942382813 162.82470703125 810.6956787109375 163.1272583007813 C 813.218017578125 164.1442108154297 813.3580322265625 166.3339538574219 813.1981811523438 168.12890625 C 813.0980834960938 169.2417297363281 813.031982421875 169.9769134521484 813.19091796875 170.2594909667969 C 813.3651123046875 170.5691070556641 814.08837890625 170.9767761230469 815.1834716796875 171.5940704345703 C 815.6819458007813 171.8752899169922 816.17529296875 172.1545104980469 816.73046875 172.4775695800781 C 817.6805419921875 173.0298461914063 818.41259765625 173.5204925537109 819.0032348632813 173.9163513183594 C 819.1271362304688 173.9999084472656 819.2644653320313 174.0925140380859 819.398681640625 174.1816864013672 C 819.8096313476563 173.9725952148438 820.4031982421875 173.6667633056641 821.132080078125 173.2730560302734 L 822.4375 172.5587158203125 L 822.4703369140625 172.5406494140625 C 824.4785766601563 171.4364471435547 825.9295654296875 170.6386260986328 827.6300659179688 170.6386108398438 C 828.08154296875 170.6385955810547 828.526611328125 170.6947174072266 828.994140625 170.8110504150391 C 829.809326171875 171.0169982910156 830.9500732421875 171.4423370361328 831.441650390625 172.7527465820313 C 831.7562866210938 173.5913696289063 831.7562866210938 174.6155548095703 831.7562866210938 176.0330963134766 L 831.7562866210938 176.7319946289063 C 832.9759521484375 177.3115234375 834.0750732421875 178.0611572265625 835.03125 178.9664764404297 C 836.2883911132813 180.0712585449219 837.49365234375 181.2784271240234 838.5563354492188 182.3428344726563 C 841.2529907226563 185.0351257324219 844.0414428710938 187.819091796875 847.091064453125 188.6488647460938 C 852.1643676757813 190.0293579101563 853.3363037109375 193.4970245361328 854.1934814453125 196.033447265625 L 854.2078247070313 196.0760040283203 L 854.2183837890625 196.1197052001953 C 854.4559326171875 197.1072998046875 854.9046020507813 198.0289001464844 855.5523071289063 198.8598327636719 C 856.874755859375 200.1728820800781 858.7637939453125 201.5640563964844 860.7452392578125 202.6831970214844 C 862.7408447265625 203.8103332519531 864.2141723632813 204.3148498535156 864.7891235351563 204.3148498535156 C 864.8123779296875 204.3148498535156 864.8275146484375 204.3138122558594 864.8361206054688 204.3129577636719 L 864.8411254882813 204.3124542236328 L 864.8461303710938 204.3119812011719 C 865.4970092773438 204.2530212402344 866.4019165039063 204.1173706054688 867.4496459960938 203.9603118896484 L 867.6683959960938 203.9275512695313 C 870.3006591796875 203.5311126708984 873.2841186523438 203.0817718505859 876.0079956054688 203.0817108154297 C 877.9193725585938 203.0816955566406 879.4425048828125 203.3044128417969 880.6627807617188 203.7625732421875 C 882.0425415039063 204.1903686523438 883.131103515625 205.2027587890625 883.5787963867188 206.4767913818359 L 883.5879516601563 206.5029602050781 L 883.595703125 206.5296020507813 C 883.7481689453125 207.0550842285156 883.9225463867188 207.5325469970703 884.0780029296875 207.9580688476563 C 885.0164794921875 210.4609069824219 885.4139404296875 212.6956481933594 880.8522338867188 214.6387939453125 C 880.868408203125 214.7043304443359 880.8973999023438 214.7917175292969 880.9487915039063 214.9028625488281 C 881.939697265625 216.5614318847656 883.8656005859375 217.6716918945313 885.9888916015625 217.8068237304688 L 887.5098876953125 217.8480529785156 L 888.5684204101563 217.8767547607422 L 888.5630493164063 217.9406433105469 C 889.3226318359375 217.6490173339844 890.0987548828125 217.3914794921875 890.8839111328125 217.1707916259766 L 890.8890380859375 217.1693420410156 L 890.8941650390625 217.16796875 C 893.1838989257813 216.5506744384766 900.1517333984375 214.6721343994141 901.6799926757813 213.5583343505859 L 901.6956176757813 213.5469665527344 L 901.7116088867188 213.5362091064453 C 901.8834228515625 213.4208831787109 902.0631713867188 213.3161010742188 902.2495727539063 213.2224731445313 L 902.2579345703125 213.1526794433594 C 902.369140625 212.2284088134766 903.4822998046875 203.9794006347656 908.2682495117188 199.0186309814453 C 909.1182861328125 198.1359710693359 909.5634765625 197.5290069580078 909.6293334960938 197.1630554199219 C 909.6744384765625 196.9122161865234 909.5284423828125 196.6039276123047 909.2199096679688 195.9896240234375 C 908.1689453125 194.0522918701172 907.6358642578125 191.8885803222656 907.6776733398438 189.730224609375 C 907.68017578125 186.6531219482422 908.8173217773438 184.5070648193359 911.1544799804688 183.1690979003906 C 913.5287475585938 181.8120574951172 916.6586303710938 181.5339660644531 920.6276245117188 181.5339508056641 C 921.3577270507813 181.533935546875 922.1055297851563 181.5424346923828 922.8294067382813 181.5506744384766 C 923.3939208984375 181.5574493408203 923.8496704101563 181.5606079101563 924.2637329101563 181.5606079101563 C 926.7133178710938 181.5606079101563 928.1842651367188 181.4227294921875 928.633544921875 181.1520843505859 C 929.10009765625 180.8694458007813 929.0255126953125 179.5797882080078 928.965576171875 178.5435333251953 L 928.9653930664063 178.5399932861328 L 928.9652099609375 178.5364685058594 L 928.961669921875 178.4665985107422 C 928.9384765625 178.0107269287109 928.9144897460938 177.5393524169922 928.9144897460938 177.0624847412109 C 928.9144897460938 174.1505889892578 930.3482055664063 172.1124114990234 933.060791015625 171.1681976318359 C 934.091796875 170.8095855712891 935.2607421875 170.6277465820313 936.5352172851563 170.6277160644531 C 938.2545166015625 170.6276550292969 940.217529296875 170.9589538574219 942.3698120117188 171.6115112304688 C 942.3729858398438 171.568359375 942.3759155273438 171.5269622802734 942.3787231445313 171.4877777099609 C 942.4478149414063 169.7509307861328 942.7708740234375 168.0278015136719 943.3390502929688 166.3660888671875 L 943.3399658203125 166.3634490966797 L 943.3408813476563 166.3608093261719 C 943.8408813476563 164.9246520996094 944.571533203125 163.5714874267578 945.51513671875 162.3331756591797 C 945.140869140625 162.0692443847656 944.7528686523438 161.8207550048828 944.3546752929688 161.5901947021484 L 944.3345947265625 161.5785522460938 L 944.3150634765625 161.5659942626953 C 941.6296997070313 159.8398590087891 938.5535888671875 159.0007476806641 934.9110717773438 159.0007476806641 C 932.9349365234375 159.0007476806641 930.7598266601563 159.2580108642578 928.445068359375 159.7656097412109 C 925.7930908203125 160.3443756103516 924.0286865234375 160.59130859375 922.5453491210938 160.59130859375 C 921.4008178710938 160.59130859375 920.414794921875 160.4401245117188 919.5299072265625 160.1287384033203 C 916.7401123046875 159.1434478759766 916.3069458007813 157.0773620605469 915.85009765625 154.8891754150391 L 915.620849609375 153.8359375 L 915.6185913085938 153.8260345458984 C 915.1506958007813 151.7858734130859 914.8416137695313 150.4380493164063 914.1458129882813 149.266357421875 C 913.4402465820313 148.0782775878906 912.2727661132813 147.0160522460938 910.241455078125 145.7140502929688 C 908.5481567382813 144.6266937255859 907.5260620117188 143.5133972167969 907.11669921875 142.3104858398438 C 906.7715454101563 141.2961273193359 906.8932495117188 140.2601928710938 907.4688720703125 139.3143463134766 C 908.6417236328125 137.3889617919922 911.703369140625 135.9829254150391 915.9703979492188 135.3787841796875 C 915.6434936523438 134.9342193603516 915.1091918945313 134.2837219238281 914.2361450195313 133.3513946533203 C 913.0039672851563 132.0354461669922 911.6212768554688 130.7118072509766 910.795166015625 129.9209747314453 L 910.7942504882813 129.9200744628906 C 909.4490356445313 128.7293395996094 908.2029418945313 127.4301452636719 907.0903930664063 126.0582885742188 L 907.0653686523438 126.0273895263672 L 907.0428466796875 125.9946136474609 C 906.1635131835938 124.7144927978516 905.9725952148438 122.917236328125 906.4754028320313 120.6527557373047 C 906.7380981445313 119.469482421875 907.18701171875 118.1588592529297 907.8137817382813 116.7432403564453 C 907.314208984375 116.6896820068359 906.81005859375 116.6342010498047 906.3051147460938 116.5771789550781 L 906.298583984375 116.5764465332031 L 906.2921142578125 116.5756378173828 C 900.4501953125 115.8385162353516 894.4965209960938 115.4246063232422 888.5972290039063 115.3453979492188 C 887.9100341796875 115.3453979492188 885.8540649414063 115.3465423583984 885.1937255859375 115.6648101806641 C 885.0601196289063 115.7292327880859 885.03955078125 115.7391357421875 884.9142456054688 116.334716796875 C 884.7752075195313 116.9990692138672 884.5425415039063 118.1110382080078 883.468017578125 119.0546112060547 C 882.2949829101563 120.0847778320313 880.455322265625 120.6205902099609 877.8435668945313 120.6927185058594 C 877.365478515625 120.7057647705078 876.8967895507813 120.7123870849609 876.4506225585938 120.7123870849609 C 872.5781860351563 120.7123870849609 869.8051147460938 120.2226867675781 867.9740600585938 119.2152862548828 C 866.2789306640625 118.3696441650391 865.2655639648438 116.7503967285156 865.3237915039063 114.9804534912109 C 865.322998046875 114.2303314208984 865.2703857421875 113.9864654541016 865.225341796875 113.9155731201172 C 865.1558837890625 113.8590087890625 864.8510131835938 113.7303924560547 863.5198974609375 113.7003784179688 C 861.7799072265625 113.6630706787109 859.320556640625 113.4508972167969 858.0567016601563 112.04443359375 C 857.5921020507813 111.5265045166016 856.9439086914063 110.4361114501953 857.8226318359375 108.9527130126953 C 857.91845703125 108.791015625 858.0274047851563 108.6328735351563 858.14599609375 108.4782409667969 C 857.7362670898438 108.4640655517578 857.3265380859375 108.4569244384766 856.91845703125 108.4569244384766 C 856.7584228515625 108.4569244384766 856.5961303710938 108.4580383300781 856.43603515625 108.4601898193359 L 856.42724609375 108.4603118896484 L 856.41845703125 108.4602966308594 C 856.0701293945313 108.4588928222656 855.7195434570313 108.4424896240234 855.3716430664063 108.4114227294922 M 855.0838012695313 107.3753051757813 C 855.5272827148438 107.4300842285156 855.9746704101563 107.45849609375 856.4224853515625 107.4602966308594 C 856.587890625 107.4580535888672 856.7530517578125 107.4569244384766 856.91845703125 107.4569244384766 C 858.0735473632813 107.4569244384766 859.2284545898438 107.5116424560547 860.3770751953125 107.6209106445313 C 859.0966186523438 108.7898864746094 857.6654052734375 110.110595703125 858.8010864257813 111.376708984375 C 859.918701171875 112.6203918457031 862.6456298828125 112.681396484375 863.5413208007813 112.7005920410156 C 866.0989990234375 112.7582855224609 866.3237915039063 113.1282958984375 866.3237915039063 114.9977874755859 C 866.2720947265625 116.3762969970703 867.0894775390625 117.6639099121094 868.4381103515625 118.3291931152344 C 870.1080322265625 119.2551727294922 872.7415771484375 119.7123870849609 876.4506225585938 119.7123870849609 C 876.8904418945313 119.7123870849609 877.3460083007813 119.7059478759766 877.8162841796875 119.6930847167969 C 883.218994140625 119.5438842773438 883.6856079101563 117.3236846923828 883.9354248046875 116.1298980712891 C 884.20068359375 114.869384765625 884.3060913085938 114.3453979492188 888.6046142578125 114.3453979492188 C 894.5653076171875 114.4251861572266 900.514404296875 114.8386840820313 906.4172973632813 115.58349609375 C 907.402099609375 115.6946868896484 908.3690795898438 115.7984924316406 909.3170166015625 115.8948059082031 C 907.8823852539063 118.7880859375 906.260498046875 123.0895080566406 907.8671264648438 125.4284057617188 C 908.9522705078125 126.7665100097656 910.15771484375 128.0225982666016 911.4716796875 129.1842041015625 C 913.16552734375 130.8057861328125 917.5419921875 134.9916839599609 917.477294921875 136.2080841064453 C 912.8552856445313 136.6470184326172 909.4415893554688 137.9980926513672 908.3228759765625 139.8345947265625 C 907.6334228515625 140.9674987792969 907.5007934570313 142.7656860351563 910.7817993164063 144.8726043701172 C 915.25341796875 147.7386932373047 915.6431884765625 149.4595947265625 916.596923828125 153.6183929443359 L 916.8280029296875 154.6798858642578 C 917.2775268554688 156.8332977294922 917.6069946289063 158.3890838623047 919.8629150390625 159.1858062744141 C 920.6646728515625 159.4679565429688 921.5510864257813 159.59130859375 922.5453491210938 159.59130859375 C 924.1355590820313 159.59130859375 926.0009155273438 159.2754821777344 928.2318725585938 158.7886047363281 C 930.6243896484375 158.2639617919922 932.8462524414063 158.0007629394531 934.9110717773438 158.0007629394531 C 938.7378540039063 158.0007629394531 942.0247192382813 158.9049835205078 944.8557739257813 160.7247924804688 C 945.5762939453125 161.1419982910156 946.2584228515625 161.6092987060547 946.8967895507813 162.1224975585938 C 946.7968139648438 162.3160858154297 946.6716918945313 162.4983978271484 946.524169921875 162.6658172607422 C 945.5426025390625 163.8910980224609 944.78662109375 165.2496185302734 944.2852783203125 166.6896057128906 C 943.7467041015625 168.2647857666016 943.4412841796875 169.8966064453125 943.3773193359375 171.5431060791016 C 943.349609375 171.9306182861328 943.3101806640625 172.4905853271484 943.2357788085938 172.9071044921875 C 943.0046997070313 172.8468933105469 942.7136840820313 172.7642059326172 942.355224609375 172.6535186767578 C 940.176513671875 171.969970703125 938.23291015625 171.6276550292969 936.5352783203125 171.6277160644531 C 935.3692626953125 171.6277465820313 934.319091796875 171.7892913818359 933.3892822265625 172.1126861572266 C 931.0841064453125 172.9150848388672 929.9144897460938 174.5807952880859 929.9144897460938 177.0624847412109 C 929.9144897460938 177.5372924804688 929.9398803710938 178.0115966796875 929.9639282226563 178.4857940673828 C 930.0471801757813 179.9251861572266 930.13037109375 181.4145050048828 929.1516723632813 182.0073852539063 C 928.4000854492188 182.4601745605469 926.5841674804688 182.5606079101563 924.2637329101563 182.5606079101563 C 923.8003540039063 182.5606079101563 923.3164672851563 182.5565948486328 922.8173828125 182.5505981445313 C 922.07861328125 182.5421905517578 921.3472900390625 182.533935546875 920.6276245117188 182.5339508056641 C 917.1407470703125 182.5339660644531 913.9418334960938 182.727783203125 911.6506958007813 184.0372924804688 C 909.6224975585938 185.1983947753906 908.6776733398438 187.0124969482422 908.6776733398438 189.7404937744141 C 908.63720703125 191.7431182861328 909.1265258789063 193.7257843017578 910.1063232421875 195.5263977050781 C 910.8350830078125 196.9770050048828 911.1027221679688 197.5169982910156 908.9885864257813 199.7122802734375 C 904.4415893554688 204.42529296875 903.35791015625 212.3815002441406 903.2507934570313 213.2720947265625 L 903.173583984375 213.9140014648438 C 902.8508911132813 214.0278930664063 902.5468139648438 214.1799926757813 902.2689819335938 214.3664855957031 C 900.8344116210938 215.4119873046875 895.8176879882813 216.8762817382813 891.1544799804688 218.1334838867188 C 889.8704833984375 218.494384765625 888.6240234375 218.952880859375 887.4273071289063 219.5039978027344 L 887.4827880859375 218.8476867675781 L 885.944091796875 218.8059997558594 C 883.4522094726563 218.6533813476563 881.226806640625 217.3538208007813 880.0648193359375 215.3726806640625 C 879.6262817382813 214.4651947021484 879.8948974609375 213.9517211914063 880.1635131835938 213.841796875 C 884.5474243164063 212.0726013183594 883.906982421875 210.3491821289063 883.1403198242188 208.3054809570313 C 882.980224609375 207.8674011230469 882.7982788085938 207.3698883056641 882.6353149414063 206.8082885742188 C 882.2880859375 205.8200988769531 881.4348754882813 205.0401000976563 880.3391723632813 204.7093200683594 C 879.1358642578125 204.2514801025391 877.6358642578125 204.0816802978516 876.0079956054688 204.0817260742188 C 873.3712158203125 204.081787109375 870.3999633789063 204.5274353027344 867.8173217773438 204.9163818359375 C 866.6605224609375 205.089599609375 865.6627197265625 205.2420959472656 864.9364013671875 205.3079223632813 C 864.89013671875 205.3125610351563 864.841064453125 205.3148498535156 864.7891235351563 205.3148498535156 C 862.9867553710938 205.3148498535156 857.8248291015625 202.5488433837891 854.8034057617188 199.5252990722656 C 854.0501708984375 198.5733184814453 853.5205078125 197.4942932128906 853.24609375 196.3536071777344 C 852.417724609375 193.9024047851563 851.390380859375 190.8550872802734 846.8284912109375 189.6137847900391 C 843.5256958007813 188.7151184082031 840.6448974609375 185.8410949707031 837.8497924804688 183.0505065917969 C 836.7266845703125 181.9255981445313 835.563720703125 180.7646179199219 834.357177734375 179.7053985595703 C 833.331298828125 178.7308959960938 832.1068115234375 177.9411926269531 830.7498168945313 177.3786926269531 C 830.7498168945313 177.2349853515625 830.7562866210938 177.0697174072266 830.7562866210938 176.8874969482422 L 830.7562866210938 176.0330963134766 C 830.7562866210938 173.3851928710938 830.7562866210938 172.28759765625 828.7492065429688 171.7805938720703 C 828.3604736328125 171.6838684082031 827.9913330078125 171.6385955810547 827.630126953125 171.6385955810547 C 826.1781005859375 171.6386413574219 824.8554077148438 172.3704528808594 822.9193115234375 173.4349975585938 L 821.6082763671875 174.1524047851563 C 820.4630126953125 174.77099609375 819.6541748046875 175.1721954345703 819.3397827148438 175.3325958251953 C 819.0936279296875 175.1833953857422 818.74609375 174.9490966796875 818.444091796875 174.7454071044922 C 817.859619140625 174.3536987304688 817.1483764648438 173.877197265625 816.2279052734375 173.3421173095703 C 815.6859130859375 173.0267181396484 815.1998291015625 172.7514953613281 814.6920776367188 172.4649963378906 C 811.9434814453125 170.9156951904297 811.9434814453125 170.9156951904297 812.2022094726563 168.039306640625 C 812.3687133789063 166.1697845458984 812.1126708984375 164.7767944335938 810.3217163085938 164.0547180175781 C 809.65478515625 163.7853393554688 808.9594116210938 163.6775360107422 808.2345581054688 163.6775665283203 C 806.888916015625 163.6776275634766 805.4422607421875 164.0492401123047 803.8916015625 164.4485931396484 L 802.67626953125 164.7575073242188 C 801.4017944335938 165.0664978027344 800.219970703125 165.4548950195313 799.225830078125 165.7805938720703 C 798.8005981445313 165.9185943603516 798.144775390625 166.1336059570313 797.621826171875 166.2796936035156 L 797.621826171875 166.2660980224609 C 797.531982421875 165.44189453125 797.813720703125 164.6197967529297 798.4036865234375 163.9824981689453 L 799.369873046875 163.9824981689453 L 799.1793823242188 162.9868927001953 L 799.3179931640625 162.8077850341797 C 800.4141845703125 161.4566040039063 801.6544799804688 159.9232940673828 801.6544799804688 158.1999053955078 C 801.6544799804688 156.4242858886719 801.6544799804688 156.4242858886719 805.7910766601563 156.4242858886719 C 811.78759765625 156.4242858886719 816.1113891601563 154.0332946777344 820.7161254882813 148.1704864501953 C 824.9360961914063 142.798583984375 824.6038208007813 141.5133056640625 822.667724609375 137.4428863525391 C 821.4058837890625 134.7926940917969 829.5222778320313 130.1486968994141 833.8897094726563 127.647705078125 L 835.51171875 126.7129974365234 C 836.8843994140625 125.9105987548828 838.4320068359375 124.8330841064453 838.2105712890625 123.5837860107422 C 837.9976196289063 122.3514099121094 836.24951171875 121.6813049316406 834.8399047851563 121.1405944824219 C 834.1087036132813 120.8792114257813 833.4016723632813 120.5665893554688 832.7255859375 120.205810546875 C 832.7807006835938 120.2055053710938 832.8358154296875 120.2053527832031 832.8909301757813 120.2053527832031 C 834.9920654296875 120.2053527832031 837.085693359375 120.4303741455078 839.1278076171875 120.8757934570313 C 839.8948974609375 121.0496368408203 841.0684204101563 121.3136444091797 842.2515258789063 121.3136444091797 C 842.9910888671875 121.3136444091797 843.7344970703125 121.2104644775391 844.3845825195313 120.9175872802734 C 845.9293823242188 120.2201843261719 845.7053833007813 119.1081848144531 845.5048828125 118.1020965576172 C 845.388671875 117.6047973632813 845.32373046875 117.0990905761719 845.3104248046875 116.5911865234375 C 845.3104248046875 115.5433044433594 849.6450805664063 111.4729919433594 855.0838012695313 107.3753051757813 Z" stroke="none" fill="#30abec"/>
    </g>
    <text id="yunyang-2" data-name="yunyang" transform="translate(873.579 163.746)" fill="#fff" font-size="10" font-family="MicrosoftYaHei, Microsoft YaHei"><tspan x="-15" y="0">云阳县</tspan></text>
  </g>
</svg>
