<svg xmlns="http://www.w3.org/2000/svg" xmlns:xlink="http://www.w3.org/1999/xlink" width="334.012" height="167.073" viewBox="0 0 334.012 167.073">
  <defs>
    <linearGradient id="linear-gradient" x1="0.623" y1="0.894" x2="0.618" y2="0.458" gradientUnits="objectBoundingBox">
      <stop offset="0" stop-color="#191e64"/>
      <stop offset="1" stop-color="#17448b"/>
    </linearGradient>
    <filter id="yuzhong3" x="0" y="0" width="334.012" height="167.073" filterUnits="userSpaceOnUse">
      <feOffset dy="8" input="SourceAlpha"/>
      <feGaussianBlur stdDeviation="9" result="blur"/>
      <feFlood flood-color="#0f093c" flood-opacity="0.161"/>
      <feComposite operator="in" in2="blur"/>
      <feComposite in="SourceGraphic"/>
    </filter>
    <radialGradient id="radial-gradient" cx="0.5" cy="0.5" r="0.5" gradientUnits="objectBoundingBox">
      <stop offset="0" stop-color="#1fb9e6"/>
      <stop offset="1" stop-color="#0669d2"/>
    </radialGradient>
  </defs>
  <g id="yuzhong" transform="translate(-2331.399 -1919.457)">
    <g transform="matrix(1, 0, 0, 1, 2331.4, 1919.46)" filter="url(#yuzhong3)">
      <path id="yuzhong3-2" data-name="yuzhong3" d="M109.187,117.529h0A133.9,133.9,0,0,0,95.092,105.77c-4.246-2.744-9.861-3.307-16.985-3.307-3.04,0-6.331.106-10.141.228h-.02l-.215.007h-.005c-3.841.123-8.194.263-12.537.263-7.991,0-19.452-.407-26.7-3.924C19.75,94.789,10.164,90.657,0,86.756c.238-.206.157-5.316.086-9.825-.049-3.1-.091-5.775-.016-6.148,10.142,3.894,19.7,8.018,28.422,12.255,7.243,3.518,18.706,3.925,26.7,3.925,4.335,0,8.679-.139,12.511-.262h.005l.239-.008h.03c3.808-.122,7.1-.228,10.136-.228,7.122,0,12.735.562,16.981,3.306a134,134,0,0,1,14.095,11.759A668.637,668.637,0,0,1,242.25,79.219c31.795-2.006,34.015-20.309,35-50A116.446,116.446,0,0,1,280,4.486l-.023,0-.054-.01L280,4.457c.028.017,0,1.831-.037,4.128-.075,4.724-.188,11.86.037,11.9a116.446,116.446,0,0,0-2.747,24.728c-.989,29.7-3.209,48-35,50.006a670.05,670.05,0,0,0-133.063,22.31Z" transform="translate(27 14.54)" fill="url(#linear-gradient)"/>
    </g>
    <g id="yuzhong2" transform="translate(2167.959 1672.823)" opacity="0.67" fill="url(#radial-gradient)">
      <path d="M 299.7682189941406 362.1491088867188 C 295.4019470214844 357.9833984375 290.7120666503906 354.0789489746094 285.8253479003906 350.5416259765625 L 285.8146362304688 350.5339050292969 L 285.8035888671875 350.5267333984375 C 281.4549255371094 347.7164916992188 275.7605285644531 347.140625 268.5483703613281 347.140625 C 265.5001525878906 347.140625 262.2062072753906 347.2464599609375 258.3921203613281 347.3689575195313 L 258.3705444335938 347.36962890625 L 258.1488342285156 347.3767700195313 C 254.3123626708984 347.5000305175781 249.9640350341797 347.6397399902344 245.6292572021484 347.6397399902344 C 237.6871185302734 347.6397399902344 226.3013916015625 347.2380981445313 219.1504364013672 343.765380859375 C 210.6000671386719 339.6098937988281 201.2443389892578 335.5660705566406 191.3318939208984 331.7411499023438 C 191.4703979492188 331.5764465332031 191.5840911865234 331.4201354980469 191.6959381103516 331.266357421875 L 191.7007598876953 331.2597351074219 L 191.7054748535156 331.2527770996094 C 194.6816253662109 326.8671875 196.0494995117188 321.5859985351563 195.5855102539063 316.3180236816406 C 208.7079772949219 317.2213745117188 221.2008209228516 317.6794128417969 232.7245788574219 317.6794128417969 C 251.7498321533203 317.6794128417969 268.0589599609375 316.4552917480469 281.198974609375 314.0409851074219 C 297.7046813964844 311.0083312988281 309.2506103515625 306.0687561035156 315.5159606933594 299.3594970703125 C 322.2828063964844 292.1656188964844 330.2241821289063 285.9004516601563 339.1182861328125 280.7393493652344 C 347.19775390625 276.0509948730469 356.24365234375 272.1684265136719 366.004638671875 269.1994934082031 C 382.4149780273438 264.2081298828125 401.1018371582031 261.6772766113281 421.5460510253906 261.6772766113281 C 441.3170471191406 261.6772766113281 458.6373901367188 264.03955078125 469.8418579101563 266.0624389648438 C 468.1127624511719 274.040771484375 467.2220458984375 282.2200317382813 467.1936950683594 290.3820495605469 C 466.9301452636719 298.2935485839844 466.5892333984375 304.7221069335938 465.7824096679688 310.3816833496094 C 464.868408203125 316.7929992675781 463.4449768066406 321.6096496582031 461.3027648925781 325.5398864746094 C 458.9237976074219 329.904541015625 455.6188354492188 333.1528625488281 451.1990051269531 335.4704895019531 C 446.4481201171875 337.9617614746094 440.3834838867188 339.40966796875 432.6585388183594 339.8970947265625 C 387.8196716308594 342.8183898925781 343.1127624511719 350.3043212890625 299.7682189941406 362.1491088867188 Z" stroke="none"/>
      <path d="M 299.9086303710938 361.5924377441406 C 343.1985168457031 349.7828369140625 387.8497009277344 342.3153686523438 432.6270751953125 339.3981018066406 C 440.2804260253906 338.9151611328125 446.2793884277344 337.485595703125 450.966796875 335.0276794433594 C 455.2962951660156 332.7574157714844 458.5335693359375 329.57568359375 460.86376953125 325.3005981445313 C 462.9764709472656 321.4244384765625 464.3821105957031 316.6614379882813 465.2873840332031 310.3110961914063 C 466.0907592773438 304.6759033203125 466.4307250976563 298.2644653320313 466.6937255859375 290.3731994628906 C 466.7220153808594 282.3509521484375 467.579833984375 274.3130798339844 469.2445678710938 266.4631958007813 C 458.0487060546875 264.46484375 440.9843139648438 262.1772766113281 421.5460510253906 262.1772766113281 C 401.1511535644531 262.1772766113281 382.5133056640625 264.7008666992188 366.150146484375 269.6778869628906 C 356.4259033203125 272.6355895996094 347.4154968261719 276.5027465820313 339.3692626953125 281.1718139648438 C 330.51708984375 286.3085632324219 322.6138000488281 292.5434875488281 315.8814086914063 299.7007446289063 C 309.541259765625 306.4900817871094 297.9028015136719 311.4802856445313 281.2893371582031 314.5327758789063 C 268.1195678710938 316.9524841308594 251.7800445556641 318.1794128417969 232.7245788574219 318.1794128417969 C 221.3581085205078 318.1794128417969 209.0511474609375 317.7343444824219 196.1275634765625 316.8562622070313 C 196.4543151855469 322.0370788574219 195.0546875 327.1988830566406 192.1321105957031 331.5145568847656 C 201.8275146484375 335.2734985351563 210.9848022460938 339.240966796875 219.3688659667969 343.3156433105469 C 226.4271087646484 346.7433166503906 237.7365112304688 347.1397399902344 245.6292572021484 347.1397399902344 C 249.9554290771484 347.1397399902344 254.2990417480469 347.0002136230469 258.1312866210938 346.8770751953125 L 258.3544616699219 346.8699035644531 L 258.3815307617188 346.8690185546875 C 262.1977844238281 346.7464904785156 265.4936218261719 346.640625 268.5483703613281 346.640625 C 275.8490905761719 346.640625 281.6234741210938 347.2300720214844 286.0749206542969 350.1067810058594 L 286.0971374511719 350.1211547851563 L 286.1185302734375 350.1366271972656 C 290.9471435546875 353.6318664550781 295.5843505859375 357.4843139648438 299.9086303710938 361.5924377441406 M 299.627197265625 362.7060241699219 C 295.2040100097656 358.4678649902344 290.4945068359375 354.5386962890625 285.5321960449219 350.9466857910156 C 281.4068298339844 348.2807006835938 275.9429626464844 347.6406555175781 268.5483703613281 347.6406555175781 C 265.5023193359375 347.6406555175781 262.1299743652344 347.7491455078125 258.3865661621094 347.869384765625 C 254.423095703125 347.9966735839844 250.0543975830078 348.1397399902344 245.6292419433594 348.1397399902344 C 235.7288208007813 348.1397399902344 225.5398712158203 347.4241333007813 218.9320068359375 344.2151794433594 C 208.1341857910156 338.9673767089844 197.8858642578125 334.791259765625 190.4400787353516 331.9336853027344 C 190.8521423339844 331.5764465332031 191.0719299316406 331.2742614746094 191.291748046875 330.9720458984375 C 194.3146820068359 326.5174560546875 195.6404266357422 321.1266784667969 195.0283660888672 315.7781982421875 C 205.6613311767578 316.5199890136719 218.8769989013672 317.1794128417969 232.7245788574219 317.1794128417969 C 265.4201965332031 317.1794128417969 301.5777282714844 313.5526428222656 315.1505432128906 299.0182495117188 C 343.6871643066406 268.6806030273438 386.3716735839844 261.1772766113281 421.5460510253906 261.1772766113281 C 441.641357421875 261.1772766113281 459.28271484375 263.625244140625 470.4411926269531 265.6631164550781 C 468.6431884765625 273.7836608886719 467.7220153808594 282.0737609863281 467.6936950683594 290.3908996582031 C 466.70458984375 320.0918273925781 464.4789428710938 338.3903503417969 432.6900329589844 340.3961181640625 C 387.6970520019531 343.3274230957031 343.1157836914063 350.8021545410156 299.627197265625 362.7060241699219 Z" stroke="none" fill="#30abec"/>
    </g>
    <text id="yuzhong1" transform="translate(2498.274 1993.83)" fill="#fff" font-size="10" font-family="MicrosoftYaHei, Microsoft YaHei"><tspan x="0" y="0">渝中区</tspan></text>
  </g>
</svg>
