<svg xmlns="http://www.w3.org/2000/svg" xmlns:xlink="http://www.w3.org/1999/xlink" width="327" height="258" viewBox="0 0 327 258">
  <defs>
    <linearGradient id="linear-gradient" x1="0.545" y1="-0.316" x2="0.483" y2="1.381" gradientUnits="objectBoundingBox">
      <stop offset="0" stop-color="#191e64"/>
      <stop offset="1" stop-color="#17448b"/>
    </linearGradient>
    <filter id="zhongxian1" x="49.456" y="77.415" width="228.815" height="142.363" filterUnits="userSpaceOnUse">
      <feOffset dy="8" input="SourceAlpha"/>
      <feGaussianBlur stdDeviation="9" result="blur"/>
      <feFlood flood-opacity="0.161"/>
      <feComposite operator="in" in2="blur"/>
      <feComposite in="SourceGraphic"/>
    </filter>
    <radialGradient id="radial-gradient" cx="0.5" cy="0.5" r="0.5" gradientUnits="objectBoundingBox">
      <stop offset="0" stop-color="#1fb9e6"/>
      <stop offset="1" stop-color="#0669d2"/>
    </radialGradient>
    <clipPath id="clip-zhongxian">
      <rect width="327" height="258"/>
    </clipPath>
  </defs>
  <g id="zhongxian" clip-path="url(#clip-zhongxian)">
    <rect width="327" height="258" fill="rgba(0,0,0,0)"/>
    <g id="zhongxian-2" data-name="zhongxian">
      <g transform="matrix(1, 0, 0, 1, 0, 0)" filter="url(#zhongxian1)">
        <path id="zhongxian1-2" data-name="zhongxian1" d="M-343.959-593.722h0c-7.492,0-20.165-3.7-24.654-7.191-5.932-4.612-10.632-5.432-20.9-5.432-3.868,0-5.137-.469-5.3-.65a.353.353,0,0,1-.061-.258c.021-.31.3-1.224,2.418-3.009,2.287-1.927,3.011-3.768,2.154-5.472-1.215-2.42-5.2-3.379-5.654-3.48l-.716-.08c-6.118-.26-12.279-1.36-12.845-2.045,0-.392,1-1.022,1.661-1.439l.01-.007,0,0c.76-.479,1.908-1.2,2.068-2.1a1.418,1.418,0,0,0-.335-1.133c-1.186-1.521-4.258-1.635-8.809-1.635-1.282,0-2.833.017-4.883.053l-4.849.091-.45.009c-2.111.043-3.777.077-4.882.077-.272,0-.494,0-.681-.006a8.4,8.4,0,0,0-2.129-2.9,7.293,7.293,0,0,0-5.007-1.942h-.079c-3.7,0-6.019,2.052-8.956,4.65l-.311.279-.013.011c-2.7,2.384-6.067,5.352-10.3,7.042a5.868,5.868,0,0,1-1.679.442.591.591,0,0,1-.307-.064c-2.388-1.486-1.648-17.63-1.476-20.851a3.892,3.892,0,0,0,1.476,2.851.591.591,0,0,0,.307.065,5.864,5.864,0,0,0,1.679-.443c4.232-1.69,7.6-4.658,10.3-7.042l.013-.011.311-.279c2.937-2.6,5.258-4.65,8.956-4.65h.079a7.294,7.294,0,0,1,5.007,1.942,8.4,8.4,0,0,1,2.128,2.9c.183,0,.4.006.681.006,1.1,0,2.769-.034,4.877-.077h.005l.45-.009,4.849-.091c2.05-.036,3.6-.053,4.883-.053,4.551,0,7.623.114,8.809,1.635a1.418,1.418,0,0,1,.335,1.133c-.16.9-1.308,1.626-2.068,2.1l0,0-.01.007c-.661.417-1.661,1.047-1.661,1.439.565.684,6.727,1.785,12.845,2.045l.716.08c.451.1,4.439,1.061,5.654,3.48.858,1.7.133,3.545-2.154,5.472-2.12,1.785-2.4,2.7-2.418,3.009a.353.353,0,0,0,.061.258c.163.181,1.432.65,5.3.65,10.264,0,14.964.821,20.9,5.432,4.489,3.495,17.161,7.191,24.654,7.191a21.817,21.817,0,0,0,11.319-3.906c2.792-1.959,4.146-4.107,3.621-5.746a13.663,13.663,0,0,0-2.277-4.054c-1.5-2-3.043-4.067.546-7.057,2.376-1.987,6.6-2.78,10.324-3.48.941-.178,2.687-.508,3.663-.787-.891-.806-1.788-1.477-2.656-2.126l-.013-.01c-2.91-2.179-5.92-4.432-4.879-6.781.589-1.337,2.348-2.381,5.228-3.1,1.419-.354,2.741-.658,3.847-.909,6.06-1.388,7.5-1.8,7.8-4.1l.039-.333c.233-1.725.5-3.679-.256-4.154-.152-.092-.837-.393-3.283-.393-7.819,0-12.29-1.05-13.289-3.122a1.776,1.776,0,0,1-.056-1.5c.8-1.944,4.772-3.364,6.469-3.97l.009,0c3.6-1.284,7.181-2.865,10.639-4.394,6.556-2.887,11.293-4.972,15.2-4.972a9.331,9.331,0,0,1,2.267.264l.224.058.207.053a9.419,9.419,0,0,0,1.832-4.282l.041-.033v.043c-.008,2.012-.127,19.728-1.874,22.272l-.207-.053-.224-.058a9.334,9.334,0,0,0-2.267-.264c-3.907,0-8.763,2.138-14.912,4.844-.47,8.942-.458,13.04-.452,15.242a19.019,19.019,0,0,1-.072,2.424l-.039.333c-.3,2.293-1.745,2.708-7.8,4.1-1.106.251-2.427.555-3.847.909-2.88.722-4.639,1.766-5.228,3.1-1.041,2.348,1.967,4.6,4.876,6.779l.014.011c.868.649,1.766,1.32,2.657,2.127-.977.279-2.723.61-3.66.787-3.728.7-7.951,1.494-10.326,3.481-3.589,2.99-2.042,5.057-.546,7.057a13.664,13.664,0,0,1,2.277,4.055c.525,1.639-.829,3.788-3.621,5.746A21.817,21.817,0,0,1-343.959-593.722Zm-115.095-54.73v-11.835a1.705,1.705,0,0,0,1.125.408c3.465.29,4.882,1.344,5.46,2.178,1.238,1.8-.261,4.07-5.01,7.6a7.137,7.137,0,0,0-1.573,1.642Z" transform="translate(538.16 778)" stroke="rgba(0,0,0,0)" stroke-miterlimit="10" stroke-width="1" fill="url(#linear-gradient)"/>
      </g>
      <g id="thick_zhongxian" transform="translate(-545.385 -146.483)" opacity="0.67" fill="url(#radial-gradient)">
        <path d="M 739.56787109375 312.2606811523438 C 736.0444946289063 312.2583618164063 731.19970703125 311.4334106445313 726.2720336914063 309.9965515136719 C 721.4229736328125 308.5826416015625 717.2974853515625 306.7804260253906 715.2362670898438 305.1756286621094 C 709.18798828125 300.4740600585938 704.4228515625 299.6373596191406 694.032958984375 299.6373596191406 C 690.7628173828125 299.6373596191406 689.5409545898438 299.3016662597656 689.1844482421875 299.1679382324219 C 689.271484375 298.8388671875 689.7630004882813 297.9911804199219 691.4115600585938 296.6033325195313 C 693.8988037109375 294.5079650878906 694.6654663085938 292.4627075195313 693.6902465820313 290.5242309570313 C 692.4002685546875 287.9554443359375 688.4732666015625 286.9549865722656 687.6991577148438 286.7805480957031 L 687.6722412109375 286.7744750976563 L 687.6448364257813 286.7714233398438 L 686.9290771484375 286.6913452148438 L 686.9119262695313 286.6894226074219 L 686.8947143554688 286.6886901855469 C 684.0875854492188 286.5693359375 681.1226806640625 286.2708129882813 678.5462036132813 285.84814453125 C 676.3751831054688 285.491943359375 675.2447509765625 285.170654296875 674.7349853515625 284.974609375 C 675.0693969726563 284.6869201660156 675.6798706054688 284.3021850585938 675.9515380859375 284.1309814453125 L 675.9663696289063 284.1216430664063 L 675.971435546875 284.118408203125 C 676.8056030273438 283.5926818847656 678.066162109375 282.7982177734375 678.2645263671875 281.6776428222656 C 678.3568725585938 281.1558837890625 678.2115478515625 280.6426696777344 677.8324584960938 280.1522216796875 C 676.5015258789063 278.4456481933594 673.4669189453125 278.3226318359375 668.6270751953125 278.3226318359375 C 667.3399658203125 278.3226318359375 665.7857666015625 278.3396606445313 663.7357788085938 278.3761901855469 L 658.8860473632813 278.4673767089844 L 658.4596557617188 278.47607421875 C 656.3408813476563 278.5192260742188 654.6672973632813 278.5533447265625 653.5632934570313 278.5533447265625 C 653.4345092773438 278.5533447265625 653.314697265625 278.5528564453125 653.2044677734375 278.5518798828125 C 652.7000732421875 277.5118103027344 651.9910888671875 276.5802917480469 651.093505859375 275.7792053222656 C 649.7083129882813 274.461181640625 647.7600708007813 273.7055358886719 645.7466430664063 273.7055358886719 L 645.6898803710938 273.7057495117188 L 645.6683959960938 273.7057189941406 C 641.7820434570313 273.7057189941406 639.3995971679688 275.8123168945313 636.3832397460938 278.4794006347656 L 636.3820190429688 278.4804992675781 L 636.3784790039063 278.483642578125 L 636.0670776367188 278.7626953125 L 636.0604248046875 278.7685546875 C 633.3859252929688 281.1284790039063 630.0574340820313 284.0654907226563 625.9041748046875 285.7245178222656 C 625.4036865234375 285.9274597167969 624.7495727539063 286.1312255859375 624.4111328125 286.1312255859375 C 624.4110717773438 286.1312255859375 624.4110717773438 286.1312255859375 624.4110717773438 286.1312255859375 C 624.378173828125 286.1312255859375 624.35693359375 286.1290893554688 624.3451538085938 286.1273498535156 C 623.5863037109375 285.6371154785156 623.1143188476563 284.4324340820313 623.04931640625 282.8154296875 C 622.941162109375 280.124267578125 624.0436401367188 276.5030212402344 626.3599243164063 274.7888793945313 C 628.8394165039063 272.9444274902344 630.3866577148438 271.4901428222656 631.230224609375 270.2113342285156 C 632.14306640625 268.8275146484375 632.2286376953125 267.5786437988281 631.4846801757813 266.4993591308594 C 630.8445434570313 265.5760498046875 629.3142700195313 264.4125366210938 625.6549072265625 264.10693359375 C 625.4060668945313 264.0870056152344 625.2162475585938 264.0365295410156 625.0853881835938 263.9873962402344 C 625.3359985351563 263.7485046386719 625.9931030273438 263.2741088867188 627.6284790039063 262.6880798339844 C 633.0673217773438 260.7330322265625 635.975341796875 257.64599609375 639.6570434570313 253.7376556396484 L 639.6591796875 253.7353515625 L 639.661376953125 253.7330169677734 C 641.802978515625 251.4010772705078 644.1022338867188 249.1414947509766 646.4963989257813 247.0157623291016 C 648.603271484375 246.5461883544922 652.603515625 245.5318756103516 656.60302734375 243.8552856445313 C 661.5162963867188 241.795654296875 664.9581298828125 239.3685150146484 666.8330078125 236.6413421630859 C 668.7379150390625 233.8523712158203 669.812744140625 232.8386535644531 670.2098999023438 232.5178985595703 C 671.482666015625 232.8809051513672 672.6953125 233.3932952880859 673.81787109375 234.0426788330078 L 673.8306274414063 234.050048828125 L 673.8438110351563 234.0566558837891 C 674.9673461914063 234.6211090087891 675.9954223632813 235.2384643554688 676.9896850585938 235.8354949951172 L 677.0518798828125 235.8728332519531 L 677.1229858398438 235.9156036376953 C 679.39697265625 237.28271484375 681.5447998046875 238.5740509033203 684.3212890625 238.5739135742188 C 684.8152465820313 238.5738677978516 685.322265625 238.5314178466797 685.8282470703125 238.4476470947266 C 689.4324340820313 237.8514099121094 691.03076171875 235.4016265869141 692.44140625 231.6422424316406 C 694.1089477539063 227.1792449951172 697.4112548828125 225.2800903320313 699.7326049804688 225.0096282958984 L 699.7562866210938 225.0068969726563 L 699.7796020507813 225.0018768310547 C 699.9259643554688 224.9704742431641 700.076416015625 224.9545593261719 700.2269287109375 224.9545593261719 C 700.63134765625 224.9545593261719 701.0297241210938 225.0709533691406 701.353271484375 225.2829742431641 C 702.0126342773438 225.9072113037109 702.620849609375 226.5851135253906 703.1614990234375 227.2984619140625 L 703.1661987304688 227.3046569824219 L 703.171142578125 227.3106994628906 L 703.1778564453125 227.3190155029297 C 705.240966796875 229.8720855712891 709.0811767578125 234.6243438720703 717.2501831054688 234.6241760253906 C 718.6339111328125 234.6241455078125 720.1079711914063 234.4874114990234 721.63134765625 234.2177886962891 C 729.168212890625 232.8794860839844 730.3770751953125 230.5908966064453 731.177001953125 229.0764770507813 C 731.400390625 228.6532897949219 731.4799194335938 228.5146942138672 731.6668090820313 228.4149322509766 C 731.9395751953125 228.2692565917969 732.4965209960938 228.1754150390625 733.3663330078125 228.0625610351563 C 740.4126586914063 227.1469268798828 746.0181884765625 223.3213653564453 748.8358764648438 221.0162963867188 C 751.3544311523438 221.4651947021484 753.9312133789063 221.6927032470703 756.4990234375 221.6926727294922 C 757.6488037109375 221.6926574707031 758.8123779296875 221.6466674804688 759.9575805664063 221.5559997558594 L 762.4563598632813 221.4796295166016 L 762.6307983398438 221.474365234375 C 764.57373046875 221.4158630371094 766.408935546875 221.3606109619141 768.1414184570313 221.2181091308594 C 769.3482055664063 221.1183471679688 770.2984619140625 221.0398101806641 771.0830688476563 221.0398101806641 C 772.155517578125 221.0398101806641 772.8184204101563 221.1875610351563 773.37109375 221.5498504638672 C 773.952880859375 221.9311981201172 774.46533203125 222.5876770019531 775.084716796875 223.7449798583984 C 777.1964721679688 227.6971282958984 781.7305297851563 230.3864288330078 786.1152954101563 232.9871978759766 C 789.3713989257813 234.9170837402344 792.4468383789063 236.7398986816406 793.9889526367188 238.8436737060547 C 796.6710205078125 242.4919128417969 795.666259765625 245.2458343505859 794.064453125 247.6656799316406 C 794.0365600585938 247.6584625244141 794.0088500976563 247.6511688232422 793.9812622070313 247.6437225341797 L 793.97607421875 247.6423034667969 L 793.9708862304688 247.6410217285156 C 793.2111206054688 247.4533538818359 792.4306640625 247.3621368408203 791.5848999023438 247.3621368408203 C 787.5696411132813 247.3621368408203 782.7927856445313 249.4651336669922 776.181396484375 252.3758087158203 C 772.72802734375 253.9024810791016 769.1578369140625 255.4808044433594 765.575439453125 256.7569274902344 L 765.5625 256.7615356445313 C 763.6536254882813 257.4435729980469 759.6815795898438 258.86279296875 758.8016357421875 261.0122680664063 C 758.5418090820313 261.6470642089844 758.56494140625 262.2891845703125 758.8704223632813 262.9207458496094 C 759.9752197265625 265.2111206054688 764.469482421875 266.3247375488281 772.6097412109375 266.3247375488281 C 775.0208129882813 266.3247375488281 775.5838012695313 266.6170654296875 775.6293334960938 266.643310546875 C 775.6948852539063 266.6870422363281 775.8914794921875 266.8963012695313 775.8905639648438 267.8228759765625 C 775.8898315429688 268.5556335449219 775.7640991210938 269.4847412109375 775.6531372070313 270.304443359375 L 775.6524658203125 270.3094177246094 L 775.6519165039063 270.3143615722656 L 775.6140747070313 270.6431884765625 C 775.3624877929688 272.5381774902344 774.3523559570313 272.9032897949219 768.1937255859375 274.3131408691406 C 767.0855712890625 274.5648803710938 765.7601928710938 274.8702087402344 764.3378295898438 275.224853515625 C 761.2999877929688 275.9859313964844 759.427734375 277.1251220703125 758.7726440429688 278.6109313964844 C 757.571044921875 281.322021484375 760.7401123046875 283.695556640625 763.8048706054688 285.9909057617188 L 763.8092651367188 285.9942321777344 C 764.4366455078125 286.4623413085938 765.0791625976563 286.9417419433594 765.7252807617188 287.4784851074219 C 764.8065185546875 287.6878662109375 763.7017822265625 287.8969421386719 763.0230712890625 288.0253601074219 C 759.2374877929688 288.7371520996094 754.9461669921875 289.5440368652344 752.4708251953125 291.6138610839844 C 748.5188598632813 294.9057922363281 750.3632202148438 297.3721008300781 751.8452758789063 299.3538208007813 L 751.8508911132813 299.3613891601563 L 751.8568115234375 299.3687438964844 C 752.8184204101563 300.5581665039063 753.5557250976563 301.8700256347656 754.04833984375 303.2680053710938 C 754.4898681640625 304.6659545898438 753.175048828125 306.6491088867188 750.6146240234375 308.4460144042969 C 747.4326171875 310.6968078613281 743.613525390625 312.0153503417969 739.56787109375 312.2606811523438 Z" stroke="none"/>
        <path d="M 739.552978515625 311.7606506347656 C 743.5 311.5186157226563 747.2239379882813 310.23193359375 750.327392578125 308.0367431640625 C 752.662109375 306.3982849121094 753.9341430664063 304.59033203125 753.5737915039063 303.4256286621094 C 753.10009765625 302.0847778320313 752.3916625976563 300.8256225585938 751.468017578125 299.6830444335938 L 751.4561767578125 299.6683959960938 L 751.44482421875 299.6532592773438 C 750.6618041992188 298.606201171875 749.7742919921875 297.41943359375 749.6200561523438 296.0027160644531 C 749.4410400390625 294.3586120605469 750.2691040039063 292.797119140625 752.1500854492188 291.2302856445313 C 754.7255249023438 289.0767822265625 759.0849609375 288.257080078125 762.9300537109375 287.5340881347656 C 763.3375854492188 287.4569702148438 763.9544067382813 287.3402404785156 764.5896606445313 287.2104187011719 C 764.2265625 286.9294128417969 763.8656616210938 286.66015625 763.509521484375 286.3944091796875 L 763.505126953125 286.39111328125 C 762.0132446289063 285.2737426757813 760.4705810546875 284.1183471679688 759.4199829101563 282.9128723144531 C 758.0560302734375 281.3477478027344 757.6845703125 279.8319396972656 758.3151245117188 278.4092102050781 C 759.0458984375 276.7518920898438 760.9760131835938 275.5516662597656 764.2168579101563 274.7397155761719 C 765.6456909179688 274.3834533691406 766.9734497070313 274.0775756835938 768.0821533203125 273.8257751464844 C 771.0132446289063 273.1547546386719 772.869384765625 272.7100524902344 773.9282836914063 272.1934509277344 C 774.7355346679688 271.7996215820313 775.00341796875 271.4374389648438 775.1177978515625 270.5821533203125 L 775.1551513671875 270.2572326660156 L 775.1563110351563 270.247314453125 L 775.1576538085938 270.2373962402344 C 775.25732421875 269.5008239746094 775.3604125976563 268.7391967773438 775.3851318359375 268.0871887207031 C 775.4092407226563 267.4505004882813 775.3455200195313 267.1639099121094 775.3081665039063 267.0537109375 C 775.0825805664063 266.9839782714844 774.3740234375 266.8247375488281 772.6097412109375 266.8247375488281 C 768.6425170898438 266.8247375488281 765.4697875976563 266.552001953125 763.1796875 266.0140380859375 C 760.6205444335938 265.4128723144531 759.0635986328125 264.4719543457031 758.4203491210938 263.1384582519531 C 758.0556030273438 262.3844604492188 758.0274658203125 261.583740234375 758.3389282226563 260.8228759765625 C 759.188720703125 258.7469177246094 762.38232421875 257.3668518066406 765.3942260742188 256.2906799316406 L 765.4076538085938 256.285888671875 C 768.9727783203125 255.0159454345703 772.5343017578125 253.4414520263672 775.9799194335938 251.9181823730469 C 782.6471557617188 248.98291015625 787.46435546875 246.8621368408203 791.5848999023438 246.8621368408203 C 792.3779296875 246.8621368408203 793.1173706054688 246.9389190673828 793.8365478515625 247.0963897705078 C 795.4015502929688 244.611083984375 795.8701782226563 242.2466735839844 793.585693359375 239.1392669677734 C 792.1039428710938 237.1178588867188 789.0712890625 235.3204040527344 785.8602294921875 233.4172515869141 C 781.4163818359375 230.7814788818359 776.8212890625 228.0559692382813 774.6439208984375 223.9809112548828 C 773.5088500976563 221.8601379394531 772.8296508789063 221.539794921875 771.0830688476563 221.539794921875 C 770.3193359375 221.539794921875 769.3786010742188 221.6175384521484 768.1875610351563 221.7160034179688 L 768.1826171875 221.7164001464844 L 768.1824340820313 221.7164306640625 C 766.436767578125 221.8600158691406 764.5950317382813 221.9154510498047 762.6452026367188 221.9741516113281 L 762.4715576171875 221.9793853759766 L 759.985107421875 222.0553894042969 C 758.8306884765625 222.1464691162109 757.6580200195313 222.1926574707031 756.4990844726563 222.1926727294922 C 753.978759765625 222.1927032470703 751.44970703125 221.9759826660156 748.97412109375 221.5482025146484 C 746.0594482421875 223.9002380371094 740.453125 227.6458740234375 733.4306640625 228.5583801269531 C 733.0143432617188 228.6124267578125 732.14794921875 228.7248382568359 731.90234375 228.8559722900391 C 731.8500366210938 228.8838806152344 731.7888793945313 228.9884033203125 731.619140625 229.3099975585938 C 730.544921875 231.3436126708984 728.8956909179688 233.4356842041016 721.718505859375 234.7101287841797 C 720.16650390625 234.9848175048828 718.6630859375 235.1241302490234 717.2501831054688 235.1241760253906 C 708.84228515625 235.1243438720703 704.9044189453125 230.251220703125 702.7888793945313 227.6332244873047 L 702.7821655273438 227.6249542236328 L 702.7723999023438 227.6128540039063 L 702.7630004882813 227.6004486083984 C 702.2484130859375 226.9214782714844 701.67041015625 226.275390625 701.0441284179688 225.6789245605469 C 700.8077392578125 225.5338592529297 700.520263671875 225.4545593261719 700.2268676757813 225.4545593261719 C 700.111572265625 225.4545593261719 699.9963989257813 225.4667510986328 699.884521484375 225.4907531738281 L 699.8378295898438 225.5007476806641 L 699.7904663085938 225.5062713623047 C 697.6091918945313 225.7604064941406 694.4983520507813 227.5655364990234 692.9094848632813 231.8179016113281 C 691.4771118164063 235.6353149414063 689.7386474609375 238.3075408935547 685.9099731445313 238.9409484863281 C 685.3770751953125 239.0291595458984 684.8426513671875 239.0738830566406 684.3213500976563 239.0739135742188 C 681.4061279296875 239.0740203857422 679.0977172851563 237.6862182617188 676.8653564453125 236.3440856933594 L 676.7944946289063 236.3014984130859 L 676.7330322265625 236.2646179199219 C 675.7465209960938 235.6721801757813 674.7263793945313 235.0595855712891 673.6193237304688 234.5034332275391 L 673.593017578125 234.4902191162109 L 673.5675048828125 234.4754791259766 C 672.55615234375 233.8904418945313 671.4689331054688 233.4201049804688 670.3292236328125 233.0742034912109 C 669.86328125 233.4987030029297 668.8695678710938 234.5460815429688 667.2449951171875 236.9246063232422 C 662.9127807617188 243.226318359375 651.6525268554688 246.369140625 646.7318725585938 247.4754486083984 C 644.3848876953125 249.5650787353516 642.1310424804688 251.7830963134766 640.0296020507813 254.0712280273438 L 640.0253295898438 254.0758819580078 L 640.02099609375 254.0804901123047 C 636.29345703125 258.0375061035156 633.3491821289063 261.1630249023438 627.797119140625 263.1587829589844 C 627.2543334960938 263.3533020019531 626.8284912109375 263.5330200195313 626.495849609375 263.6919860839844 C 629.1519165039063 264.0271606445313 630.9662475585938 264.8739318847656 631.8963623046875 266.215576171875 C 632.767333984375 267.4790344238281 632.6836547851563 268.9160461425781 631.6475830078125 270.4866333007813 C 630.77099609375 271.8155212402344 629.1859130859375 273.309814453125 626.6573486328125 275.1907653808594 C 624.4807739257813 276.8015747070313 623.446044921875 280.2356262207031 623.5489501953125 282.7953796386719 C 623.6019897460938 284.1160278320313 623.9640502929688 285.1760559082031 624.5042724609375 285.6246948242188 C 624.7671508789063 285.5928649902344 625.2565307617188 285.4476013183594 625.7138671875 285.2621459960938 L 625.71630859375 285.2611694335938 L 625.7186889648438 285.2601928710938 C 629.7915649414063 283.6332702636719 633.0840454101563 280.7280578613281 635.7296142578125 278.3936462402344 L 635.736328125 278.3877258300781 L 636.0447998046875 278.1112670898438 L 636.049560546875 278.1070556640625 L 636.052001953125 278.1048889160156 C 639.0250854492188 275.47607421875 641.5927124023438 273.2057189941406 645.6683959960938 273.2057189941406 L 645.693359375 273.2057189941406 L 645.693359375 273.2057189941406 L 645.74658203125 273.2055358886719 C 647.8842163085938 273.2055358886719 649.9555053710938 274.0093383789063 651.4323120117188 275.4114074707031 C 652.2951049804688 276.1826477050781 652.9927368164063 277.0690612792969 653.5123901367188 278.0533142089844 C 653.529296875 278.0533447265625 653.54638671875 278.0533447265625 653.5635986328125 278.0533447265625 C 654.6615600585938 278.0533447265625 656.3306884765625 278.0193481445313 658.4439697265625 277.9762573242188 L 658.8766479492188 277.9674682617188 L 663.7268676757813 277.8762512207031 C 665.7803344726563 277.8396911621094 667.33740234375 277.8226318359375 668.6270751953125 277.8226318359375 C 673.6188354492188 277.8226318359375 676.755859375 277.9586181640625 678.22802734375 279.846435546875 C 678.8120727539063 280.6020202636719 678.8380126953125 281.3067016601563 678.7568969726563 281.7648010253906 C 678.5199584960938 283.1032409667969 677.146728515625 283.9687194824219 676.238037109375 284.5414428710938 L 676.2329711914063 284.5446472167969 L 676.218017578125 284.5540466308594 C 676.1276245117188 284.6109924316406 675.9929809570313 284.6958618164063 675.8439331054688 284.7928466796875 C 676.4973754882813 284.9618225097656 677.4627075195313 285.1687927246094 678.8335571289063 285.3881530761719 C 681.3434448242188 285.7898254394531 684.2138061523438 286.0742797851563 686.9159545898438 286.1891479492188 L 686.9503784179688 286.1905822753906 L 686.9846801757813 286.1944274902344 L 687.700439453125 286.2745056152344 L 687.7552490234375 286.2806701660156 L 687.80908203125 286.2927856445313 C 688.6217651367188 286.4759216308594 692.7460327148438 287.5298461914063 694.1369018554688 290.2995300292969 C 694.8883056640625 291.7931213378906 695.0813598632813 294.1655578613281 691.7335815429688 296.9858093261719 C 690.6903686523438 297.8640441894531 690.1708984375 298.4743347167969 689.9138793945313 298.84912109375 C 690.554931640625 298.9793395996094 691.794189453125 299.1373596191406 694.032958984375 299.1373596191406 C 704.5493774414063 299.1373596191406 709.3799438476563 299.9899597167969 715.5433959960938 304.7810974121094 C 717.557373046875 306.34912109375 721.6204223632813 308.119384765625 726.4119873046875 309.5165405273438 C 731.217041015625 310.9176330566406 736.126220703125 311.7557678222656 739.552978515625 311.7606506347656 M 739.5829467773438 312.7606811523438 C 732.0949096679688 312.7606811523438 719.419921875 309.0665588378906 714.9290771484375 305.5701599121094 C 708.9969482421875 300.9588317871094 704.3016967773438 300.1373596191406 694.032958984375 300.1373596191406 C 690.1651611328125 300.1373596191406 688.8947143554688 299.6681823730469 688.7322998046875 299.4879150390625 C 688.5481567382813 299.28466796875 688.6201171875 298.2997131347656 691.0895385742188 296.2208251953125 C 693.37646484375 294.2942504882813 694.1010131835938 292.4532775878906 693.2435913085938 290.7489318847656 C 692.0672607421875 288.4065246582031 688.3336791992188 287.4360961914063 687.5892333984375 287.268310546875 L 686.8734741210938 287.188232421875 C 680.6257934570313 286.9226379394531 674.5791625976563 285.8108825683594 674.0283203125 285.1438598632813 C 674.0283203125 284.7491149902344 675.0260009765625 284.1232604980469 675.6997680664063 283.6986389160156 C 676.7669067382813 283.0260620117188 678.5538940429688 281.9032287597656 677.4368286132813 280.4579772949219 C 676.2481689453125 278.9337768554688 673.1773071289063 278.8226318359375 668.6270751953125 278.8226318359375 C 667.2884521484375 278.8226318359375 665.6802368164063 278.8416137695313 663.7446899414063 278.8760986328125 L 658.8954467773438 278.96728515625 C 656.612060546875 279.0137023925781 654.7471313476563 279.0533447265625 653.5635986328125 279.0533447265625 C 653.3025512695313 279.0533447265625 653.0745239257813 279.0514221191406 652.8826293945313 279.0472106933594 C 652.404296875 277.9590148925781 651.6800537109375 276.9714050292969 650.7545776367188 276.1468811035156 C 649.4553833007813 274.9076843261719 647.6427612304688 274.2055358886719 645.74658203125 274.2055358886719 C 645.7289428710938 274.2055358886719 645.7109985351563 274.2055969238281 645.693359375 274.2057189941406 L 645.6683959960938 274.2057189941406 C 641.970458984375 274.2057189941406 639.650390625 276.2579956054688 636.712158203125 278.8560180664063 L 636.4007568359375 279.1350708007813 C 633.6982421875 281.5197143554688 630.3283081054688 284.4956970214844 626.0896606445313 286.1888427734375 C 625.7142944335938 286.3410339355469 624.9061279296875 286.6312561035156 624.4110717773438 286.6312255859375 C 624.2840576171875 286.6311950683594 624.1776123046875 286.6121215820313 624.1044311523438 286.5667114257813 C 621.4649658203125 284.9237060546875 622.2032470703125 277.2429809570313 626.0625 274.386962890625 C 630.8086547851563 270.8563537597656 632.313720703125 268.5829467773438 631.072998046875 266.7831420898438 C 630.4957275390625 265.950439453125 629.0875244140625 264.8953247070313 625.61328125 264.6051940917969 C 624.9483642578125 264.552001953125 624.517578125 264.3028869628906 624.4619140625 264.1504821777344 C 624.3577270507813 263.8448181152344 625.062255859375 263.0765380859375 627.4597778320313 262.2173767089844 C 632.7764282226563 260.3062744140625 635.6466674804688 257.2657165527344 639.2930908203125 253.3948211669922 C 641.483642578125 251.0096130371094 643.8095703125 248.7268218994141 646.2616577148438 246.5556640625 C 650.6627197265625 245.585205078125 662.2022705078125 242.4946594238281 666.4209594726563 236.3580932617188 C 668.809814453125 232.8605651855469 669.9227905273438 232.0901947021484 670.110107421875 231.9713439941406 C 671.5086669921875 232.3483581542969 672.8411865234375 232.9000701904297 674.0682373046875 233.60986328125 C 675.232177734375 234.1945953369141 676.2854614257813 234.8294219970703 677.3092651367188 235.4441833496094 C 679.5491943359375 236.7906646728516 681.6552124023438 238.0740356445313 684.3213500976563 238.0739135742188 C 684.7786865234375 238.0738830566406 685.2528686523438 238.0361022949219 685.7466430664063 237.9543914794922 C 689.1194458007813 237.3963775634766 690.62548828125 235.0584716796875 691.9732666015625 231.4665832519531 C 693.7190551757813 226.7941284179688 697.2142333984375 224.7996520996094 699.6747436523438 224.5130004882813 C 699.8574829101563 224.4738006591797 700.042724609375 224.4545593261719 700.2269287109375 224.4545593261719 C 700.7421264648438 224.4545593261719 701.248779296875 224.6051635742188 701.666259765625 224.8908386230469 C 702.3607177734375 225.5450592041016 702.9937744140625 226.2493591308594 703.5599975585938 226.9964294433594 C 705.6643676757813 229.6005401611328 709.3115234375 234.1243438720703 717.2501220703125 234.1241760253906 C 718.5603637695313 234.1241455078125 719.9879150390625 234.0008850097656 721.5442504882813 233.7254333496094 C 728.8375854492188 232.4303588867188 729.9803466796875 230.2714233398438 730.7349243164063 228.8429260253906 C 731.1990356445313 227.9636535644531 731.2720947265625 227.8301086425781 733.302001953125 227.5666961669922 C 740.4192504882813 226.6418914794922 746.0909423828125 222.645263671875 748.6968383789063 220.4830017089844 C 751.2669067382813 220.9554748535156 753.8809814453125 221.1926879882813 756.4990844726563 221.1926727294922 C 757.6430053710938 221.1926574707031 758.7879638671875 221.1473693847656 759.9299926757813 221.0566101074219 L 762.4410400390625 220.9798583984375 C 764.467529296875 220.9187774658203 766.3298950195313 220.8654327392578 768.1004638671875 220.7197875976563 C 769.3080444335938 220.6199645996094 770.2770385742188 220.539794921875 771.0830688476563 220.539794921875 C 773.2661743164063 220.539794921875 774.25146484375 221.1284027099609 775.5255737304688 223.5090484619141 C 777.5682983398438 227.3321533203125 782.0275268554688 229.9812927246094 786.370361328125 232.5571594238281 C 789.67724609375 234.5171051025391 792.7926025390625 236.3658447265625 794.3922119140625 238.5480651855469 C 797.296875 242.4990692138672 796.142822265625 245.5284118652344 794.28173828125 248.237548828125 C 794.136474609375 248.1987762451172 793.9915771484375 248.1644134521484 793.8509521484375 248.1264343261719 C 793.1237182617188 247.94677734375 792.3717651367188 247.8621215820313 791.5848388671875 247.8621215820313 C 787.7022094726563 247.8621215820313 782.98583984375 249.9264373779297 776.3828735351563 252.8334045410156 C 772.9075317382813 254.3698120117188 769.3167114257813 255.9550018310547 765.7432250976563 257.2279052734375 C 763.6275634765625 257.9838562011719 758.0062866210938 259.986083984375 759.320556640625 262.7030029296875 C 760.319580078125 264.7741088867188 764.7926635742188 265.8247375488281 772.6097412109375 265.8247375488281 C 775.0789184570313 265.8247375488281 775.7439575195313 266.1272277832031 775.8927612304688 266.21826171875 C 776.644775390625 266.6918334960938 776.3828735351563 268.6405639648438 776.1486206054688 270.3715209960938 L 776.1102294921875 270.7051696777344 C 775.8073120117188 272.9974060058594 774.3655395507813 273.4132080078125 768.3052978515625 274.800537109375 C 767.1116333007813 275.0716857910156 765.8235473632813 275.3697204589844 764.4588012695313 275.7099914550781 C 761.5751342773438 276.4324645996094 759.8182983398438 277.4786682128906 759.2301025390625 278.8126525878906 C 758.1890258789063 281.1617126464844 761.1655883789063 283.3894958496094 764.1090087890625 285.5940246582031 C 764.983642578125 286.2466125488281 765.8832397460938 286.9191589355469 766.7791137695313 287.7297058105469 C 765.8285522460938 288.0008544921875 764.1436767578125 288.3221740722656 763.1160278320313 288.5166625976563 C 759.3849487304688 289.2182006835938 755.1488037109375 290.0263671875 752.7915649414063 291.9974365234375 C 749.2094116210938 294.9813232421875 750.749267578125 297.0534057617188 752.2456665039063 299.0543823242188 C 753.2425537109375 300.2875366210938 754.0115356445313 301.6565856933594 754.5223999023438 303.1087646484375 C 755.0472412109375 304.7475891113281 753.6946411132813 306.8953247070313 750.90185546875 308.8552856445313 C 747.65576171875 311.1513671875 743.7097778320313 312.5131225585938 739.5829467773438 312.7606811523438 Z" stroke="none" fill="#30abec"/>
      </g>
      <text id="zhongxian2" transform="translate(157.349 124)" fill="#fff" font-size="10" font-family="MicrosoftYaHei, Microsoft YaHei"><tspan x="0" y="0">忠县</tspan></text>
    </g>
  </g>
</svg>
